<svg xmlns="http://www.w3.org/2000/svg" xmlns:xlink="http://www.w3.org/1999/xlink" width="124" height="124" viewBox="0 0 124 124"><defs><clipPath id="a"><rect width="72" height="72" transform="translate(0.062 0.156)" fill="#fff" stroke="#707070" stroke-width="1"/></clipPath></defs><g transform="translate(10972.994 8728.775)"><circle cx="62" cy="62" r="62" transform="translate(-10972.994 -8728.775)" fill="#fff"/><g transform="translate(-10939.062 -8703.156)" clip-path="url(#a)"><g transform="translate(8.389 0.221)"><g transform="translate(1.052 1.052)"><g transform="translate(0 0)"><path d="M55.378,72.087H24.415a4.271,4.271,0,0,1-4.271-4.271V6.524a4.271,4.271,0,0,1,4.271-4.271H55.378a4.271,4.271,0,0,1,4.271,4.271V67.816A4.271,4.271,0,0,1,55.378,72.087Z" transform="translate(-20.145 -2.253)" fill="#acacac"/></g><g transform="translate(32.438)"><path d="M96.651,6.524V67.816a4.271,4.271,0,0,1-4.271,4.271h-2.8a4.271,4.271,0,0,0,4.271-4.271V6.524a4.271,4.271,0,0,0-4.271-4.271h2.8A4.271,4.271,0,0,1,96.651,6.524Z" transform="translate(-89.584 -2.253)" fill="#9c9c9c"/></g><g transform="translate(4.905 4.258)"><path d="M54,12.185,52.86,14.117a1.66,1.66,0,0,1-1.431.818H39.554a1.66,1.66,0,0,1-1.431-.818l-1.137-1.932a1.66,1.66,0,0,0-1.431-.818H32.3a1.66,1.66,0,0,0-1.66,1.66v58a1.66,1.66,0,0,0,1.66,1.66H58.679a1.66,1.66,0,0,0,1.66-1.66v-58a1.66,1.66,0,0,0-1.66-1.66H55.428A1.66,1.66,0,0,0,54,12.185Z" transform="translate(-30.644 -11.367)" fill="#d8ecfe"/></g><g transform="translate(30.144 4.257)"><path d="M89.129,13.026v58a1.659,1.659,0,0,1-1.659,1.66h-2.8a1.659,1.659,0,0,0,1.659-1.66v-58a1.659,1.659,0,0,0-1.659-1.66h2.8a1.659,1.659,0,0,1,1.659,1.66Z" transform="translate(-84.675 -11.366)" fill="#c4e2ff"/></g></g><g transform="translate(17.428 11.242)"><path d="M73.559,24.066A18.375,18.375,0,0,0,57.45,51.253a1.815,1.815,0,0,1,.22.97L57.4,57.28a1.936,1.936,0,0,0,1.934,2.041l6.609,0a1.866,1.866,0,0,1,.705.142,18.373,18.373,0,1,0,6.915-35.391Z" transform="translate(-55.199 -24.066)" fill="#b0e7c9"/></g><g transform="translate(19.622 22.193)"><path d="M94.445,55.008a18.379,18.379,0,0,1-25.3,16.941,1.875,1.875,0,0,0-.7-.141l-6.609.006a1.936,1.936,0,0,1-1.934-2.04l.074-1.367a1.9,1.9,0,0,0,1.358.566l6.525,0a1.831,1.831,0,0,1,.7.14,18.148,18.148,0,0,0,24.332-21.6A18.3,18.3,0,0,1,94.445,55.008Z" transform="translate(-59.896 -47.51)" fill="#91deb6"/></g><g transform="translate(21.844 15.659)"><path d="M78.471,33.522a13.957,13.957,0,0,0-12.1,20.657,1.363,1.363,0,0,1,.163.73l-.257,4.747a.611.611,0,0,0,.611.644l5.928,0a1.416,1.416,0,0,1,.536.108,13.956,13.956,0,1,0,5.123-26.882Z" transform="translate(-64.654 -33.521)" fill="#f9f3f1"/></g><g transform="translate(23.463 23.039)"><path d="M94.409,56.013a13.96,13.96,0,0,1-19.215,12.81,1.414,1.414,0,0,0-.535-.108l-5.928,0a.611.611,0,0,1-.611-.644l.143-2.63,5.736,0a1.37,1.37,0,0,1,.523.1A13.613,13.613,0,0,0,92.766,49.32,13.9,13.9,0,0,1,94.409,56.013Z" transform="translate(-68.119 -49.32)" fill="#efe2dd"/></g><g transform="translate(27.745 21.617)"><path d="M83.065,47.876c-.979-1.283-2.243-2.24-3.8-1.072a4.934,4.934,0,0,0-1.74,2.681,8.332,8.332,0,0,0,1.125,6.466,14.815,14.815,0,0,0,6.352,5.638,6.241,6.241,0,0,0,7.577-1.471c.9-.943,1.244-2.488.008-3.334-1.018-.7-2.569-1.779-3.769-.856-.827.635-1.025,1.61-2.168,1.777-1.954.286-4.276-2.606-4.663-4.289a1.814,1.814,0,0,1,.272-1.438c.3-.467.687-.608,1.056-.944.878-.8.538-2.117-.256-3.158Z" transform="translate(-77.286 -46.276)" fill="#b0e7c9"/></g><g transform="translate(27.746 23.405)"><path d="M92.585,62.158a6.242,6.242,0,0,1-7.578,1.47,14.81,14.81,0,0,1-6.352-5.638,8.33,8.33,0,0,1-1.125-6.466,5.358,5.358,0,0,1,.607-1.42,8.658,8.658,0,0,0,1.328,5.365,14.8,14.8,0,0,0,6.352,5.638A6.224,6.224,0,0,0,93.3,59.73,2.524,2.524,0,0,1,92.585,62.158Z" transform="translate(-77.287 -50.104)" fill="#91deb6"/></g><g transform="translate(0 0)"><path d="M54.023,11.219h6.731a1.052,1.052,0,1,0,0-2.1H54.023a1.052,1.052,0,1,0,0,2.1Z" transform="translate(-36.584 -4.857)"/><path d="M40.338,111.118H59.854a1.052,1.052,0,0,0,0-2.1H40.338a1.052,1.052,0,1,0,0,2.1Z" transform="translate(-29.292 -58.089)"/><path d="M40.338,120.452H59.854a1.052,1.052,0,0,0,0-2.1H40.338a1.052,1.052,0,1,0,0,2.1Z" transform="translate(-29.292 -63.063)"/><path d="M40.338,129.786H59.854a1.052,1.052,0,0,0,0-2.1H40.338a1.052,1.052,0,1,0,0,2.1Z" transform="translate(-29.292 -68.037)"/><path d="M69.03,17.7a1.052,1.052,0,0,0-1.661,1.292,17.324,17.324,0,0,1-20.207,26.67,2.9,2.9,0,0,0-1.1-.219h0l-6.609,0h0a.884.884,0,0,1-.882-.931l.274-5.056a2.862,2.862,0,0,0-.347-1.533A17.323,17.323,0,0,1,53.68,12.295h.011A17.169,17.169,0,0,1,64.1,15.769a1.052,1.052,0,0,0,1.266-1.682A19.305,19.305,0,0,0,59.5,11.073V5.323A5.329,5.329,0,0,0,54.177,0H23.215a5.329,5.329,0,0,0-5.323,5.323V66.615a5.329,5.329,0,0,0,5.323,5.323H54.177A5.329,5.329,0,0,0,59.5,66.615V48.152A19.428,19.428,0,0,0,69.03,17.7ZM57.4,66.615a3.222,3.222,0,0,1-3.218,3.218H23.215A3.222,3.222,0,0,1,20,66.615V5.323A3.222,3.222,0,0,1,23.215,2.1H54.177A3.222,3.222,0,0,1,57.4,5.323v5.22a19.534,19.534,0,0,0-2.8-.331V6.97a2.716,2.716,0,0,0-2.713-2.712H48.632a2.723,2.723,0,0,0-2.338,1.336L45.158,7.526a.61.61,0,0,1-.524.3H32.758a.61.61,0,0,1-.524-.3L31.1,5.594A2.723,2.723,0,0,0,28.76,4.258H25.509A2.716,2.716,0,0,0,22.8,6.97V41.784a1.052,1.052,0,1,0,2.1,0V6.97a.608.608,0,0,1,.608-.608H28.76a.61.61,0,0,1,.524.3L30.42,8.594A2.723,2.723,0,0,0,32.758,9.93H44.634a2.723,2.723,0,0,0,2.338-1.336l1.137-1.932a.61.61,0,0,1,.524-.3h3.251a.608.608,0,0,1,.608.608v3.258A19.427,19.427,0,0,0,36.647,38.935a.762.762,0,0,1,.092.408L36.464,44.4a2.988,2.988,0,0,0,2.984,3.15h0l6.609,0h0a.813.813,0,0,1,.307.064A19.252,19.252,0,0,0,52.49,49V64.968a.608.608,0,0,1-.608.608H25.509a.608.608,0,0,1-.608-.608V46.694a1.052,1.052,0,0,0-2.1,0V64.968a2.716,2.716,0,0,0,2.713,2.712H51.883A2.716,2.716,0,0,0,54.6,64.968V49.016a19.456,19.456,0,0,0,2.8-.332Z" transform="translate(-17.892 0)"/><path d="M64.476,59.633a1.671,1.671,0,0,0,1.208.519l5.928,0a4.657,4.657,0,0,1,1.261.435A14.945,14.945,0,0,0,88.089,56.8a15,15,0,1,0-23.844-3.31.312.312,0,0,1,.035.167L64.022,58.4a1.67,1.67,0,0,0,.454,1.234Zm.036-13.759a12.894,12.894,0,1,1,8.032,12.354,2.459,2.459,0,0,0-.932-.185h0l-5.462,0,.232-4.282a2.414,2.414,0,0,0-.291-1.293,12.91,12.91,0,0,1-1.577-6.6Z" transform="translate(-41.61 -16.662)"/><path d="M83.376,61.346a8.221,8.221,0,0,0,3.382.775,7.342,7.342,0,0,0,5.389-2.48,3.737,3.737,0,0,0,1.083-2.889,2.807,2.807,0,0,0-1.243-2.039l-.033-.022c-1.111-.761-3.179-2.178-4.973-.8a5.168,5.168,0,0,0-.909.95c-.362.458-.485.579-.77.621a2.845,2.845,0,0,1-2.012-1.1,5.879,5.879,0,0,1-1.473-2.385.758.758,0,0,1,.134-.636c.2-.306.611-.489.878-.732,1.186-1.081,1.135-2.919-.128-4.574-2.208-2.894-4.247-2.041-5.266-1.275a5.975,5.975,0,0,0-2.124,3.251,9.365,9.365,0,0,0,1.243,7.283A15.973,15.973,0,0,0,83.376,61.346ZM77.347,48.553a3.866,3.866,0,0,1,1.355-2.11,1.212,1.212,0,0,1,.732-.316c.385,0,.894.265,1.6,1.185.326.427.825,1.339.384,1.741a3.151,3.151,0,0,1-.291.224,3.225,3.225,0,0,0-.944.933,2.85,2.85,0,0,0-.41,2.24c.465,2.022,3.186,5.482,5.842,5.094a3.161,3.161,0,0,0,2.116-1.4,3.287,3.287,0,0,1,.54-.586c.537-.413,1.53.2,2.5.867l.033.022a.691.691,0,0,1,.339.523,1.675,1.675,0,0,1-.515,1.218,5.18,5.18,0,0,1-6.383,1.237A13.79,13.79,0,0,1,78.355,54.2a7.288,7.288,0,0,1-1.008-5.649Z" transform="translate(-48.342 -23.457)"/></g></g></g></g></svg>