<svg xmlns="http://www.w3.org/2000/svg" xmlns:xlink="http://www.w3.org/1999/xlink" width="124" height="124" viewBox="0 0 124 124"><defs><clipPath id="a"><rect width="67.267" height="67.267" transform="translate(0 0)" fill="#fff"/></clipPath></defs><g transform="translate(10614.326 8728.775)"><circle cx="62" cy="62" r="62" transform="translate(-10614.326 -8728.775)" fill="#fff"/><g transform="translate(-10585.96 -8700.409)" clip-path="url(#a)"><g transform="translate(3.16 0)"><path d="M70.859,67.757H36.069a3,3,0,0,1-3-3V5.457a3,3,0,0,1,3-3h34.79a3,3,0,0,1,3,3v59.3A3,3,0,0,1,70.859,67.757Z" transform="translate(-22.99 -1.476)" fill="#b1e4f9"/><path d="M123.144,2.461h-2.871a3,3,0,0,1,3,3v59.3a3,3,0,0,1-3,3h2.871a3,3,0,0,0,3-3V5.457a3,3,0,0,0-3-3Z" transform="translate(-75.275 -1.476)" fill="#9dc6fb"/><path d="M75.228,6.955H64.154a1.88,1.88,0,0,1-1.661-1l-1.856-3.5H78.745l-1.856,3.5a1.88,1.88,0,0,1-1.661,1Z" transform="translate(-39.518 -1.476)" fill="#524798"/><path d="M93.04,2.461l-1.856,3.5a1.88,1.88,0,0,1-1.661,1h3.025a1.88,1.88,0,0,0,1.661-1l1.856-3.5Z" transform="translate(-56.838 -1.476)" fill="#453d81"/><path d="M35.145,27.759H11.566a1.214,1.214,0,0,0-1.214,1.214v8.388a1.214,1.214,0,0,0,1.214,1.214H23.7a1.214,1.214,0,0,1,1.022.559l1.136,1.773a1.214,1.214,0,0,0,2.044,0l1.136-1.773a1.214,1.214,0,0,1,1.022-.559h5.082a1.214,1.214,0,0,0,1.214-1.214V28.973a1.214,1.214,0,0,0-1.214-1.214Z" transform="translate(-9.367 -16.644)" fill="#dd636e"/><g transform="translate(23.023 11.115)"><path d="M68.146,27.759H65.392a1.214,1.214,0,0,1,1.214,1.214v8.388a1.214,1.214,0,0,1-1.214,1.214h2.755a1.214,1.214,0,0,0,1.214-1.214V28.973a1.214,1.214,0,0,0-1.214-1.214Z" transform="translate(-65.392 -27.759)" fill="#da4a54"/></g><path d="M117.489,61.991H93.911A1.214,1.214,0,0,0,92.7,63.205v8.388a1.214,1.214,0,0,0,1.214,1.214h4.255a1.214,1.214,0,0,1,1.022.559l1.136,1.773a1.214,1.214,0,0,0,2.044,0l1.136-1.773a1.214,1.214,0,0,1,1.022-.559h12.964a1.214,1.214,0,0,0,1.214-1.214V63.205A1.214,1.214,0,0,0,117.489,61.991Z" transform="translate(-58.741 -37.17)" fill="#ffe07d"/><g transform="translate(55.994 24.821)"><path d="M150.491,61.991h-2.755a1.214,1.214,0,0,1,1.214,1.214v8.388a1.214,1.214,0,0,1-1.214,1.214h2.755a1.214,1.214,0,0,0,1.214-1.214V63.205A1.214,1.214,0,0,0,150.491,61.991Z" transform="translate(-147.736 -61.991)" fill="#ffd064"/></g><path d="M35.145,86.548H11.566a1.214,1.214,0,0,0-1.214,1.214V96.15a1.214,1.214,0,0,0,1.214,1.214H23.7a1.214,1.214,0,0,1,1.022.559L25.862,99.7a1.214,1.214,0,0,0,2.044,0l1.136-1.773a1.214,1.214,0,0,1,1.022-.559h5.082a1.214,1.214,0,0,0,1.214-1.214V87.762a1.214,1.214,0,0,0-1.214-1.214Z" transform="translate(-9.367 -51.894)" fill="#dd636e"/><g transform="translate(23.023 34.654)"><path d="M68.146,86.548H65.392a1.214,1.214,0,0,1,1.214,1.214V96.15a1.214,1.214,0,0,1-1.214,1.214h2.755A1.214,1.214,0,0,0,69.36,96.15V87.762a1.214,1.214,0,0,0-1.214-1.214Z" transform="translate(-65.392 -86.548)" fill="#da4a54"/></g><path d="M117.489,120.78H93.911a1.214,1.214,0,0,0-1.214,1.214v8.388a1.214,1.214,0,0,0,1.214,1.214h4.255a1.214,1.214,0,0,1,1.022.559l1.136,1.773a1.214,1.214,0,0,0,2.044,0l1.136-1.773a1.214,1.214,0,0,1,1.022-.559h12.964a1.214,1.214,0,0,0,1.214-1.214v-8.388A1.214,1.214,0,0,0,117.489,120.78Z" transform="translate(-58.741 -72.42)" fill="#ffe07d"/><g transform="translate(55.994 48.36)"><path d="M150.491,120.78h-2.755a1.214,1.214,0,0,1,1.214,1.214v8.388a1.214,1.214,0,0,1-1.214,1.214h2.755a1.214,1.214,0,0,0,1.214-1.214v-8.388A1.214,1.214,0,0,0,150.491,120.78Z" transform="translate(-147.736 -120.78)" fill="#ffd064"/></g><path d="M20.581,36.616H29.99a.985.985,0,1,0,0-1.971H20.581a.985.985,0,0,0,0,1.971Z" transform="translate(-14.909 -20.774)"/><path d="M20.581,44.935H37.214a.985.985,0,0,0,0-1.971H20.581a.985.985,0,1,0,0,1.971Z" transform="translate(-14.909 -25.761)"/><path d="M102.925,70.848h9.409a.985.985,0,1,0,0-1.971h-9.409a.985.985,0,0,0,0,1.971Z" transform="translate(-64.283 -41.299)"/><path d="M119.559,77.2H102.925a.985.985,0,0,0,0,1.971h16.634a.985.985,0,0,0,0-1.971Z" transform="translate(-64.283 -46.287)"/><path d="M66.64,36.622a2.2,2.2,0,0,0,2.2-2.2V26.035a2.2,2.2,0,0,0-2.2-2.2h-6.9V11.894a.985.985,0,1,0-1.971,0V23.836H43.061a2.2,2.2,0,0,0-2.2,2.2v8.388a2.2,2.2,0,0,0,2.2,2.2h4.255a.227.227,0,0,1,.192.105L48.644,38.5a2.2,2.2,0,0,0,3.7,0l1.136-1.773a.227.227,0,0,1,.192-.105h4.1V47.375H43.061a2.2,2.2,0,0,0-2.2,2.2v8.388a2.2,2.2,0,0,0,2.2,2.2h4.255a.227.227,0,0,1,.192.105l1.136,1.773a2.2,2.2,0,0,0,3.7,0l1.136-1.773a.227.227,0,0,1,.192-.105h4.1v3.124A2.013,2.013,0,0,1,55.761,65.3H20.97a2.013,2.013,0,0,1-2.011-2.011V46.455h3.269a.227.227,0,0,1,.192.105l1.136,1.772a2.2,2.2,0,0,0,3.7,0L28.4,46.56a.228.228,0,0,1,.192-.105H33.67a2.2,2.2,0,0,0,2.2-2.2V35.868a2.2,2.2,0,0,0-2.2-2.2H18.959V22.916h3.269a.227.227,0,0,1,.192.105l1.136,1.772a2.2,2.2,0,0,0,3.7,0L28.4,23.021a.228.228,0,0,1,.192-.105H33.67a2.2,2.2,0,0,0,2.2-2.2V12.329a2.2,2.2,0,0,0-2.2-2.2h-4.7a.985.985,0,0,0,0,1.971h4.7a.229.229,0,0,1,.228.228v8.388a.229.229,0,0,1-.228.228H28.588a2.19,2.19,0,0,0-1.852,1.013L25.6,23.731a.228.228,0,0,1-.385,0L24.08,21.958a2.19,2.19,0,0,0-1.852-1.013H10.091a.229.229,0,0,1-.228-.228V12.329a.229.229,0,0,1,.228-.228H25.034a.985.985,0,1,0,0-1.971H18.959V3.981A2.013,2.013,0,0,1,20.97,1.971h7.448L30,4.943a2.86,2.86,0,0,0,2.531,1.522H43.6a2.86,2.86,0,0,0,2.531-1.522l1.578-2.972H55.76a2.013,2.013,0,0,1,2.011,2.011V7.954a.985.985,0,0,0,1.971,0V3.981A3.986,3.986,0,0,0,55.76,0H20.97a3.986,3.986,0,0,0-3.982,3.981V10.13h-6.9a2.2,2.2,0,0,0-2.2,2.2v8.388a2.2,2.2,0,0,0,2.2,2.2h6.9V33.669h-6.9a2.2,2.2,0,0,0-2.2,2.2v8.388a2.2,2.2,0,0,0,2.2,2.2h6.9v16.83a3.986,3.986,0,0,0,3.982,3.982h34.79a3.986,3.986,0,0,0,3.981-3.982V60.162h6.9a2.2,2.2,0,0,0,2.2-2.2V55.675a.985.985,0,1,0-1.971,0v2.288a.229.229,0,0,1-.228.228H53.676A2.19,2.19,0,0,0,51.824,59.2l-1.136,1.773a.228.228,0,0,1-.385,0L49.168,59.2a2.189,2.189,0,0,0-1.852-1.013H43.061a.229.229,0,0,1-.228-.228V49.574a.229.229,0,0,1,.228-.228H66.64a.229.229,0,0,1,.228.228v2.161a.985.985,0,1,0,1.971,0V49.574a2.2,2.2,0,0,0-2.2-2.2h-6.9V36.622ZM45.48,1.971,44.392,4.019a.894.894,0,0,1-.791.475H32.528a.894.894,0,0,1-.791-.475L30.649,1.971ZM10.091,44.484a.229.229,0,0,1-.228-.228V35.868a.229.229,0,0,1,.228-.228H33.669a.229.229,0,0,1,.228.228v8.388a.229.229,0,0,1-.228.228H28.588A2.19,2.19,0,0,0,26.736,45.5L25.6,47.27a.228.228,0,0,1-.385,0L24.08,45.5a2.19,2.19,0,0,0-1.852-1.013Zm43.585-9.833a2.19,2.19,0,0,0-1.852,1.013l-1.136,1.773a.229.229,0,0,1-.385,0l-1.136-1.772a2.19,2.19,0,0,0-1.852-1.013H43.061a.229.229,0,0,1-.228-.228V26.035a.229.229,0,0,1,.228-.228H66.64a.229.229,0,0,1,.228.228v8.388a.229.229,0,0,1-.228.228Z" transform="translate(-7.891 0)"/><path d="M20.581,95.405H29.99a.985.985,0,1,0,0-1.971H20.581a.985.985,0,1,0,0,1.971Z" transform="translate(-14.909 -56.023)"/><path d="M38.2,102.738a.985.985,0,0,0-.985-.985H20.581a.985.985,0,1,0,0,1.971H37.214A.985.985,0,0,0,38.2,102.738Z" transform="translate(-14.909 -61.011)"/><path d="M102.925,129.637h9.409a.985.985,0,1,0,0-1.971h-9.409a.985.985,0,0,0,0,1.971Z" transform="translate(-64.283 -76.549)"/><path d="M102.925,137.956h16.634a.985.985,0,0,0,0-1.971H102.925a.985.985,0,0,0,0,1.971Z" transform="translate(-64.283 -81.537)"/></g></g></g></svg>