<svg xmlns="http://www.w3.org/2000/svg" width="246.212" height="178.022" viewBox="0 0 246.212 178.022"><g transform="translate(-96.327 -41.606)"><g transform="translate(96.327 84.686)"><g transform="translate(159.265 17.693)"><path d="M474.951,192.288v18.549a6.05,6.05,0,0,0,6.077,5.947H547.54a6.077,6.077,0,0,0,6.077-6.077V195.033l8.28-8.7-80.851-.252A6.105,6.105,0,0,0,474.951,192.288Z" transform="translate(-474.951 -186.081)" fill="#f5f5f5"/><g transform="translate(8.506 9.104)"><path d="M555.528,209.858l-60.356-.279.006-1.855,60.356.279Z" transform="translate(-495.172 -207.724)" fill="#e0e0e0"/></g><g transform="translate(8.506 15.207)"><path d="M555.528,224.367l-60.356-.279.006-1.855,60.356.279Z" transform="translate(-495.172 -222.233)" fill="#e0e0e0"/></g><g transform="translate(44.98 21.317)"><rect width="1.855" height="23.881" transform="matrix(0.005, -1, 1, 0.005, 0, 1.855)" fill="#e0e0e0"/></g></g><path d="M163.7,148.729V163.1a4.709,4.709,0,0,1-4.709,4.709H107.452a4.709,4.709,0,0,1-4.709-4.709V150.957l-6.416-6.741,62.646-.2A4.709,4.709,0,0,1,163.7,148.729Z" transform="translate(-96.327 -144.02)" fill="#e0e0e0"/><g transform="translate(14.008 7.054)"><path d="M129.634,162.444l46.765-.216-.005-1.437-46.765.216Z" transform="translate(-129.629 -160.791)" fill="#fafafa"/></g><g transform="translate(14.008 11.783)"><path d="M129.634,173.686l46.765-.216-.005-1.437-46.765.216Z" transform="translate(-129.629 -172.032)" fill="#fafafa"/></g><g transform="translate(14.007 16.517)"><rect width="18.504" height="1.437" transform="translate(0 0.091) rotate(-0.282)" fill="#fafafa"/></g></g><g transform="translate(138.442 111.059)"><g transform="translate(0 0)"><g transform="translate(0)"><path d="M11.55,0H97.021a11.549,11.549,0,0,1,11.549,11.549V144.258a11.549,11.549,0,0,1-11.549,11.549H11.549A11.549,11.549,0,0,1,0,144.257V11.55A11.55,11.55,0,0,1,11.55,0Z" transform="translate(0 108.569) rotate(-90)" fill="#263238"/><g transform="translate(10.66 3.424)"><rect width="101.722" height="130.117" transform="translate(0 101.722) rotate(-90)" fill="#fff"/></g><g transform="translate(142.969 49.276)"><circle cx="4.166" cy="4.166" r="4.166" transform="matrix(0.229, -0.973, 0.973, 0.229, 0, 8.111)" fill="#455a64"/></g><g transform="translate(4.487 37.935)"><rect width="32.7" height="1.721" rx="0.861" transform="translate(0 32.7) rotate(-90)" fill="#455a64"/></g></g><g transform="translate(24.227 42.782)"><circle cx="10.512" cy="10.512" r="10.512" transform="translate(0 17.561) rotate(-56.646)" fill="#e8505b"/><circle cx="10.512" cy="10.512" r="10.512" transform="translate(0 17.561) rotate(-56.646)" fill="#fff" opacity="0.3"/><g transform="translate(10.293 11.91)"><path d="M279.154,336.74c.4-.033.76.406.807.982s-.237,1.068-.636,1.1-.76-.407-.807-.982S278.756,336.772,279.154,336.74Z" transform="translate(-278.514 -336.738)" fill="#263238"/></g><g transform="translate(16.85 11.774)"><path d="M294.868,336.414c-.4-.016-.742.437-.766,1.014s.281,1.057.68,1.073.742-.438.766-1.014S295.267,336.43,294.868,336.414Z" transform="translate(-294.101 -336.414)" fill="#263238"/></g><g transform="translate(10.01 16.418)"><path d="M286.595,347.678a42.747,42.747,0,0,1-8.753,0,42.817,42.817,0,0,1,8.753,0Z" transform="translate(-277.842 -347.454)" fill="#263238"/></g><g transform="translate(9.5 10.448)"><path d="M278.866,333.518c-.026.125-.524.12-1.109.216s-1.06.244-1.122.133.375-.472,1.053-.576S278.9,333.4,278.866,333.518Z" transform="translate(-276.628 -333.262)" fill="#263238"/></g><g transform="translate(17.297 10.369)"><path d="M297.381,333.918c-.079.1-.533-.138-1.117-.312s-1.09-.241-1.1-.368.557-.269,1.231-.06S297.461,333.829,297.381,333.918Z" transform="translate(-295.164 -333.073)" fill="#263238"/></g></g><g transform="translate(102.412 43.996)"><circle cx="10.896" cy="10.896" r="10.896" transform="translate(0 21.521) rotate(-80.951)" fill="#e8505b"/><circle cx="10.896" cy="10.896" r="10.896" transform="translate(0 21.521) rotate(-80.951)" opacity="0.3"/><g transform="translate(8.051 9.727)"><path d="M459.719,334.437c.413-.034.787.422.837,1.018s-.246,1.107-.659,1.141-.788-.422-.837-1.018S459.306,334.471,459.719,334.437Z" transform="translate(-459.055 -334.435)" fill="#263238"/></g><g transform="translate(14.847 9.586)"><path d="M476.006,334.1c-.414-.017-.769.453-.794,1.051s.292,1.1.705,1.113.77-.454.794-1.052S476.42,334.116,476.006,334.1Z" transform="translate(-475.211 -334.099)" fill="#263238"/></g><g transform="translate(7.756 12.72)"><path d="M467.429,343.461a7.848,7.848,0,0,1-1.276-.662,7.063,7.063,0,0,0-3.244-.8,8.075,8.075,0,0,0-3.252.844,7.009,7.009,0,0,1-1.3.619,3.568,3.568,0,0,1,1.151-.9,7.076,7.076,0,0,1,3.394-1.013,6.371,6.371,0,0,1,3.406.973A3.388,3.388,0,0,1,467.429,343.461Z" transform="translate(-458.355 -341.549)" fill="#263238"/></g><g transform="translate(7.232 8.455)"><path d="M459.424,331.433c.037.046-.034.183-.215.341a1.811,1.811,0,0,1-.853.4,1.636,1.636,0,0,1-.945-.1c-.223-.1-.325-.221-.3-.274.057-.119.57.052,1.167-.063S459.341,331.329,459.424,331.433Z" transform="translate(-457.107 -331.411)" fill="#263238"/></g><g transform="translate(15.297 8.284)"><path d="M478.593,331.725c.018.055-.1.161-.342.238a1.618,1.618,0,0,1-.979-.036,1.9,1.9,0,0,1-.8-.535c-.16-.185-.218-.33-.175-.372.095-.1.533.277,1.123.484S478.551,331.6,478.593,331.725Z" transform="translate(-476.282 -331.004)" fill="#263238"/></g></g><g transform="translate(51.389 79.1)"><g transform="translate(41.19)"><path d="M417.965,402.378l2.524-1.251,2.462,1.37-.41-2.787,2.064-1.918-2.778-.471-1.186-2.555-1.307,2.5-2.8.339,1.97,2.014Z" transform="translate(-416.538 -394.765)" fill="#e0e0e0"/></g><g transform="translate(30.892)"><path d="M393.485,402.378l2.524-1.251,2.462,1.37-.41-2.787,2.064-1.918-2.778-.471-1.186-2.555-1.307,2.5-2.8.339,1.97,2.014Z" transform="translate(-392.057 -394.765)" fill="#e8505b"/></g><g transform="translate(20.595)"><path d="M369,402.378l2.524-1.251,2.462,1.37-.41-2.787,2.064-1.918-2.778-.471-1.186-2.555-1.307,2.5-2.8.339,1.97,2.014Z" transform="translate(-367.577 -394.765)" fill="#e8505b"/></g><g transform="translate(10.297)"><path d="M344.525,402.378l2.524-1.251,2.462,1.37-.41-2.787,2.064-1.918-2.778-.471-1.186-2.555-1.307,2.5-2.8.339,1.97,2.014Z" transform="translate(-343.097 -394.765)" fill="#e8505b"/></g><path d="M320.044,402.378l2.524-1.251,2.462,1.37-.41-2.787,2.064-1.918-2.778-.471-1.186-2.555-1.307,2.5-2.8.339,1.97,2.014Z" transform="translate(-318.617 -394.765)" fill="#e8505b"/></g><g transform="translate(50.301 24.62)"><path d="M366.491,265.359c0,.062-11.3.112-25.229.112s-25.231-.05-25.231-.112,11.294-.112,25.231-.112S366.491,265.3,366.491,265.359Z" transform="translate(-316.03 -265.247)" fill="#263238"/></g><g transform="translate(63.434 21.589)"><path d="M372.175,258.154c0,.062-5.58.112-12.462.112s-12.462-.05-12.462-.112,5.579-.112,12.462-.112S372.175,258.092,372.175,258.154Z" transform="translate(-347.251 -258.042)" fill="#263238"/></g><g transform="translate(59.462 35.898)"><g transform="translate(0.16 0)"><g transform="translate(0)"><circle cx="14.353" cy="14.353" r="14.353" transform="matrix(0.307, -0.952, 0.952, 0.307, 0, 27.324)" fill="#e8505b"/><g transform="translate(12.236 14.444)"><path d="M368.154,326.4c.544-.045,1.037.555,1.1,1.341s-.324,1.458-.868,1.5-1.038-.556-1.1-1.341S367.61,326.443,368.154,326.4Z" transform="translate(-367.279 -326.397)" fill="#263238"/></g><g transform="translate(21.189 14.258)"><path d="M389.609,325.954c-.545-.022-1.013.6-1.046,1.385s.384,1.443.929,1.466,1.014-.6,1.046-1.385S390.155,325.977,389.609,325.954Z" transform="translate(-388.562 -325.954)" fill="#263238"/></g><g transform="translate(11.849 18.964)"><path d="M378.311,337.146c.022.022-.094.17-.326.421a8.2,8.2,0,0,1-1.076.969,7.664,7.664,0,0,1-1.9,1.04,6.724,6.724,0,0,1-2.631.412,7.764,7.764,0,0,1-2.588-.6,11.163,11.163,0,0,1-1.906-1,6.21,6.21,0,0,1-1.525-1.247,13.8,13.8,0,0,1,1.69.976,13.528,13.528,0,0,0,1.89.885,8,8,0,0,0,2.461.534,6.777,6.777,0,0,0,2.472-.354,8.453,8.453,0,0,0,1.855-.911c.489-.336.883-.62,1.139-.838S378.289,337.125,378.311,337.146Z" transform="translate(-366.359 -337.141)" fill="#263238"/></g><g transform="translate(10.708 10.946)"><path d="M366.7,318.351c-.025.127-.712.081-1.527.214s-1.457.375-1.519.262.542-.566,1.45-.7S366.729,318.236,366.7,318.351Z" transform="translate(-363.647 -318.079)" fill="#263238"/></g><g transform="translate(22.288 10.802)"><path d="M394.2,318.824c-.079.1-.687-.26-1.5-.5s-1.518-.3-1.526-.424.754-.285,1.658,0S394.282,318.737,394.2,318.824Z" transform="translate(-391.174 -317.737)" fill="#263238"/></g></g><g transform="translate(10.66 17.937)"><path d="M364.957,334.7c.056-.01.147.138.162.41a1.69,1.69,0,0,1-1.145,1.614c-.261.076-.431.039-.44-.018-.021-.124.53-.309.908-.864C364.84,335.3,364.833,334.72,364.957,334.7Z" transform="translate(-363.533 -334.699)" fill="#263238"/></g><g transform="translate(23.366 18.09)"><path d="M395.387,336.23c.011.057-.107.143-.331.163a1.3,1.3,0,0,1-1.3-.964c-.046-.22,0-.358.06-.365.125-.01.268.414.689.713C394.913,336.094,395.36,336.108,395.387,336.23Z" transform="translate(-393.738 -335.065)" fill="#263238"/></g></g><g transform="translate(0 0.015)"><path d="M373.583,310.015s-.013-.1-.026-.289l-.054-.847q-.017-.28-.037-.623c-.024-.228-.073-.476-.113-.745s-.089-.559-.138-.868a9.584,9.584,0,0,0-.233-.972,17,17,0,0,0-1.974-4.73,17.721,17.721,0,0,0-4.516-5.037l-.768-.572c-.27-.177-.554-.339-.835-.512s-.558-.361-.865-.5l-.921-.442-.469-.222-.492-.179-1-.364c-.339-.112-.694-.184-1.045-.28a9.01,9.01,0,0,0-1.073-.243,16.505,16.505,0,0,0-2.242-.259c-.382-.013-.768-.05-1.156-.045l-1.174.061c-.2.014-.4.013-.592.039l-.591.091c-.395.065-.8.111-1.193.193a18.777,18.777,0,0,0-2.364.694,18.483,18.483,0,0,0-2.312,1.016c-.374.2-.733.44-1.1.659-.181.116-.375.215-.548.346l-.522.391a19.988,19.988,0,0,0-2.01,1.709l-.9.992-.227.249-.2.27-.405.543-.408.545-.357.583-.356.587-.179.294-.151.31-.6,1.25-.481,1.312a17.562,17.562,0,0,0,0,11.183l.481,1.313.6,1.25.151.31.179.294.356.587.357.583.408.545.406.544.2.27.227.249.9.992a19.9,19.9,0,0,0,2.011,1.71l.522.391c.173.131.367.23.548.346.371.22.729.456,1.1.66a18.571,18.571,0,0,0,2.312,1.016,18.789,18.789,0,0,0,2.364.694c.4.082.8.128,1.193.194l.591.091c.2.026.4.025.593.038l1.174.061c.388.006.774-.031,1.156-.045a16.442,16.442,0,0,0,2.243-.259,9.1,9.1,0,0,0,1.073-.243c.351-.1.706-.168,1.045-.28l1-.363.493-.179.468-.222.922-.442c.307-.14.579-.338.865-.5s.565-.335.835-.511l.767-.572a17.716,17.716,0,0,0,4.516-5.037,17,17,0,0,0,1.974-4.73,9.705,9.705,0,0,0,.233-.972q.073-.464.138-.868c.04-.269.089-.516.113-.745s.026-.437.037-.623c.023-.366.041-.648.054-.846s.026-.289.026-.289,0,.1,0,.289-.018.481-.032.848q-.012.281-.026.626c-.021.229-.066.478-.1.748s-.082.562-.128.873a9.7,9.7,0,0,1-.224.978,16.917,16.917,0,0,1-1.951,4.773,17.777,17.777,0,0,1-4.527,5.1l-.772.58c-.271.179-.557.344-.84.52s-.562.366-.872.508l-.929.449-.472.226-.5.183-1.008.37c-.342.114-.7.189-1.055.286a9.2,9.2,0,0,1-1.084.249,16.711,16.711,0,0,1-2.266.268c-.386.014-.776.053-1.169.048l-1.186-.058c-.2-.013-.4-.012-.6-.038l-.6-.09c-.4-.065-.805-.111-1.207-.194a18.87,18.87,0,0,1-2.393-.7,18.636,18.636,0,0,1-2.341-1.025c-.379-.2-.743-.443-1.118-.665-.184-.117-.38-.217-.555-.35l-.529-.395a20.062,20.062,0,0,1-2.037-1.728l-.913-1-.23-.252-.206-.273-.411-.549-.413-.552-.362-.59-.361-.594-.181-.3-.154-.314-.61-1.265-.488-1.329a17.764,17.764,0,0,1,0-11.324l.488-1.329.61-1.265.154-.314.181-.3.361-.594.362-.59.413-.552.411-.549.207-.273.23-.252.913-1a20.131,20.131,0,0,1,2.037-1.728l.528-.395c.175-.132.371-.233.555-.35.375-.222.739-.461,1.118-.665a18.622,18.622,0,0,1,2.34-1.025,18.956,18.956,0,0,1,2.393-.7c.4-.082.808-.128,1.207-.194l.6-.091c.2-.026.4-.024.6-.037l1.187-.059c.392-.005.782.033,1.168.048a16.565,16.565,0,0,1,2.266.268,9.226,9.226,0,0,1,1.084.248c.355.1.713.172,1.055.286l1.007.371.5.183.472.226.929.449c.31.142.583.342.872.508s.569.34.84.52l.772.58a17.781,17.781,0,0,1,4.528,5.1,16.9,16.9,0,0,1,1.951,4.773,9.641,9.641,0,0,1,.224.979q.068.467.128.873c.037.27.082.519.1.749s.018.438.026.626c.013.368.024.65.032.849S373.583,310.015,373.583,310.015Z" transform="translate(-337.809 -292.093)" fill="#e8505b"/></g></g><rect width="130.117" height="6.492" transform="translate(10.66 3.424)" fill="#e0e0e0"/><path d="M229.35,220.937a.879.879,0,1,1-.879-.879A.879.879,0,0,1,229.35,220.937Z" transform="translate(-214.492 -214.447)" fill="#fff"/><path d="M236.293,220.937a.879.879,0,1,1-.879-.879A.879.879,0,0,1,236.293,220.937Z" transform="translate(-218.514 -214.447)" fill="#fff"/><path d="M243.236,220.937a.879.879,0,1,1-.879-.879A.879.879,0,0,1,243.236,220.937Z" transform="translate(-222.537 -214.447)" fill="#fff"/><g transform="translate(25.594 29.739)"><path d="M358.141,277.529c0,.062-22.577.112-50.421.112s-50.426-.05-50.426-.112,22.573-.112,50.426-.112S358.141,277.467,358.141,277.529Z" transform="translate(-257.294 -277.417)" fill="#e0e0e0"/></g><g transform="translate(25.594 32.238)"><path d="M358.141,283.471c0,.062-22.577.112-50.421.112s-50.426-.05-50.426-.112,22.573-.112,50.426-.112S358.141,283.41,358.141,283.471Z" transform="translate(-257.294 -283.359)" fill="#e0e0e0"/></g></g></g><g transform="translate(173.015 51.752)"><g transform="translate(0 25.916)"><g transform="translate(0 11.257)"><path d="M334.429,176.956s-.89-2.014-1.055-2.457c-.452-1.208-3.363-9.3-2.665-10.521,3.228-5.664,5.729-9.69,12.1-9.69l11.242-.075s10.654-2.169,18.161,22.057Z" transform="translate(-308.744 -154.136)" fill="#455a64"/><path d="M280.607,178.948l14.72-3.173,17.307-9.1.066-12.421c-2.6-.716-7.565,1.085-16.511,5.642l-13.289,6.86a7.868,7.868,0,0,0-2.292,12.194Z" transform="translate(-278.639 -154.098)" fill="#455a64"/></g><g transform="translate(1.55 26.772)"><g transform="translate(23.366 26.837)"><path d="M348.055,261.323c-.213-.7-.068-1.148.95-.806,2.246.753,4.252.508,4.743.072s.04-1.27-.69-1.2a8.838,8.838,0,0,1-2.366-.328,5.762,5.762,0,0,1-1.764-.745c-.468-.3-.873-.578-1.232-.836a11.608,11.608,0,0,1-2.72-2.7l-7.1,3.048,1.144,3.558a3.761,3.761,0,0,0,2.4,2.756,17.033,17.033,0,0,0,5.26.413c.592-.388,2.878,2.918,3.569,4.086s1.517,1.312,1.785.6c.183-.486-1.848-4.109-2.558-5.248a13.878,13.878,0,0,1-1.42-2.671" transform="translate(-337.872 -254.782)" fill="#b77153"/><g transform="translate(3.974 7.536)"><path d="M348.715,274.946c-.006.026-.175.018-.418-.1a1.838,1.838,0,0,1-.973-1.739c.026-.269.108-.417.133-.408a2.351,2.351,0,0,0,1.258,2.248Z" transform="translate(-347.319 -272.698)" fill="#995037"/></g><g transform="translate(6.305 7.683)"><path d="M354.173,275.234c-.008.026-.169.01-.4-.112a1.826,1.826,0,0,1-.912-1.683c.022-.257.1-.4.123-.393a2.435,2.435,0,0,0,1.185,2.187Z" transform="translate(-352.861 -273.046)" fill="#995037"/></g></g><path d="M282.323,199.835s22.552,25.92,22.526,25.492,10.109-8.007,10.109-8.007l-22.112-26.338Z" transform="translate(-282.323 -190.983)" fill="#455a64"/><g transform="translate(13.678 3.759)"><path d="M314.84,199.919c.006-.005.061.048.159.154l.421.468,1.516,1.75c1.272,1.484,3.018,3.543,4.935,5.827s3.645,4.361,4.886,5.871l1.462,1.8.389.5a.819.819,0,0,1,.124.183c-.006.005-.06-.048-.158-.153l-.421-.468-1.515-1.749c-1.272-1.484-3.018-3.544-4.936-5.829s-3.645-4.36-4.886-5.871l-1.461-1.8-.389-.5A.822.822,0,0,1,314.84,199.919Z" transform="translate(-314.84 -199.918)" fill="#263238"/></g></g><g transform="translate(51.105 23.356)"><path d="M404.152,193.023a7.675,7.675,0,0,0,.27-1.661,4.976,4.976,0,0,0-1.474-3.636c-.547-.575-1.135-1.071-1.609-1.593a4.915,4.915,0,0,1-1.01-1.575,2.745,2.745,0,0,1-.183-1.25,1.1,1.1,0,0,1,.117-.448,3.127,3.127,0,0,0,.213,1.639,5.023,5.023,0,0,0,1.015,1.493c.47.5,1.06.991,1.62,1.58a5.166,5.166,0,0,1,1.215,1.941,4.971,4.971,0,0,1,.254,1.854,4.486,4.486,0,0,1-.236,1.237A1.381,1.381,0,0,1,404.152,193.023Z" transform="translate(-400.133 -182.861)" fill="#263238"/></g><g transform="translate(17.062 12.704)"><path d="M326.846,158.408a2.183,2.183,0,0,1,.327-.155c.218-.094.546-.22.976-.357a8.493,8.493,0,0,1,1.615-.329,5.553,5.553,0,0,1,2.176.2,5.043,5.043,0,0,1,2.226,1.432,5.915,5.915,0,0,1,1.338,2.726,10.386,10.386,0,0,1,.214,3.353,7.279,7.279,0,0,1-1.247,3.38,9.284,9.284,0,0,1-2.7,2.392c-.987.622-1.981,1.131-2.923,1.627l-5.009,2.629-3.385,1.755-.925.467a2.148,2.148,0,0,1-.329.149,2.219,2.219,0,0,1,.309-.189l.906-.5,3.351-1.818,4.983-2.67c.938-.5,1.933-1.015,2.9-1.632a9.133,9.133,0,0,0,2.632-2.337,7.087,7.087,0,0,0,1.211-3.275,10.269,10.269,0,0,0-.2-3.283,5.753,5.753,0,0,0-1.274-2.647,4.91,4.91,0,0,0-2.136-1.4,5.483,5.483,0,0,0-2.118-.229,8.824,8.824,0,0,0-1.6.288c-.431.122-.762.235-.984.315A2.171,2.171,0,0,1,326.846,158.408Z" transform="translate(-319.202 -157.539)" fill="#263238"/></g><g transform="translate(14.221 27.522)"><path d="M315.933,198.15a9.187,9.187,0,0,0-3.486-5.383,2.82,2.82,0,0,1,.83.512,7.235,7.235,0,0,1,2.528,3.9A2.826,2.826,0,0,1,315.933,198.15Z" transform="translate(-312.446 -192.766)" fill="#263238"/></g><g transform="translate(36.786 21.888)"><path d="M380.162,187.575a2.738,2.738,0,0,1-.479.129,4.83,4.83,0,0,1-1.422.061,5.23,5.23,0,0,1-2.138-.7,4.892,4.892,0,0,1-1.974-2.217,5.219,5.219,0,0,1-.272-3.579,2.934,2.934,0,0,1,1.19-1.649,1.473,1.473,0,0,1,1.074-.22,1.571,1.571,0,0,1,.938.623,5.209,5.209,0,0,1,.5,4.487,5.332,5.332,0,0,1-1.275,2.088,4.853,4.853,0,0,1-2.192,1.239,5.011,5.011,0,0,1-4.686-1.09,4.913,4.913,0,0,1-1.406-4.272,4.231,4.231,0,0,1,.858-1.979,2.113,2.113,0,0,1,.84-.643,1.353,1.353,0,0,1,1.033.011,1.921,1.921,0,0,1,1.1,1.529,3.219,3.219,0,0,1-.341,1.719,8.208,8.208,0,0,1-1.79,2.387,8.517,8.517,0,0,1-1.838,1.3,7.9,7.9,0,0,1-1.313.549c-.154.051-.276.077-.356.1a.512.512,0,0,1-.124.025.556.556,0,0,1,.117-.047c.078-.029.2-.062.348-.12a8.9,8.9,0,0,0,1.286-.583,8.664,8.664,0,0,0,1.794-1.315,8.172,8.172,0,0,0,1.732-2.362,3.069,3.069,0,0,0,.313-1.631,1.747,1.747,0,0,0-1-1.378,1.163,1.163,0,0,0-.892,0,1.929,1.929,0,0,0-.758.59,4.041,4.041,0,0,0-.806,1.886,4.71,4.71,0,0,0,1.353,4.08,4.8,4.8,0,0,0,4.478,1.034,4.634,4.634,0,0,0,2.092-1.181,5.12,5.12,0,0,0,1.224-2,5.479,5.479,0,0,0,.248-2.257,4.711,4.711,0,0,0-.231-1.081,3.111,3.111,0,0,0-.474-.954,1.368,1.368,0,0,0-.814-.551,1.275,1.275,0,0,0-.931.19,2.754,2.754,0,0,0-1.114,1.534,5.068,5.068,0,0,0,.238,3.461,4.782,4.782,0,0,0,1.894,2.175,5.219,5.219,0,0,0,2.083.723A5.82,5.82,0,0,0,380.162,187.575Z" transform="translate(-366.091 -179.371)" fill="#fafafa"/></g><g transform="translate(46.997)"><path d="M402.1,134.54a5.1,5.1,0,0,1-1-2,1.356,1.356,0,0,1-.027-.73.563.563,0,0,1,.543-.417c.252.024.424.259.559.474a10.725,10.725,0,0,1,1.038,1.968,1.5,1.5,0,0,1,.121.6.607.607,0,0,1-.292.509.624.624,0,0,1-.633-.085,1.836,1.836,0,0,1-.432-.509" transform="translate(-396.546 -129.687)" fill="#995037"/><path d="M404.3,132.655l-1.113-2.328a1.85,1.85,0,0,1-.23-.725.56.56,0,0,1,.973-.464,1.86,1.86,0,0,1,.373.55l.525,1.021a3.279,3.279,0,0,1,.346.868,1.106,1.106,0,0,1-.174.892.678.678,0,0,1-.837.2" transform="translate(-397.662 -128.273)" fill="#995037"/><path d="M392.063,138.929a10.117,10.117,0,0,1-1.687-3.066c-.14-1.058,1.158-2.935,3.939-3.357a6.812,6.812,0,0,0,2.858-.979.9.9,0,0,0,.326-1.085,16.138,16.138,0,0,1-.974-2.752c.13-.568.5-.557,1.462.85s2.07,2.834,1.857,3.482-3.6,2.654-3.6,2.654l.927,1.494Z" transform="translate(-390.366 -127.337)" fill="#b77153"/><path d="M401.564,169.826l-10.673-20.907,6.871-3.851L412.2,167.953s.762,1.462,1.826,3.174h-12.1" transform="translate(-390.67 -137.61)" fill="#455a64"/></g><g transform="translate(46.981 7.458)"><path d="M397.325,145.067a.518.518,0,0,1-.119.084l-.361.218-1.382.805L390.5,149l.039-.127c1.038,2.117,2.387,4.564,3.747,7.225,2.025,3.935,3.774,7.539,5,10.164.617,1.312,1.1,2.379,1.435,3.119l.375.855a1.773,1.773,0,0,1,.116.3,1.813,1.813,0,0,1-.158-.285l-.413-.837-1.5-3.087c-1.267-2.607-3.038-6.2-5.061-10.13-1.358-2.657-2.7-5.112-3.72-7.241l-.04-.084.079-.044,5-2.757,1.408-.759.374-.193A.538.538,0,0,1,397.325,145.067Z" transform="translate(-390.328 -145.067)" fill="#263238"/></g><g transform="translate(23.897 29.163)"><path d="M337.238,201.581a12.832,12.832,0,0,1-1.779-4.914c.064-.015.355,1.119.848,2.472S337.3,201.551,337.238,201.581Z" transform="translate(-335.449 -196.668)" fill="#263238"/></g></g><g transform="translate(19.233)"><path d="M393.357,111.342a4.221,4.221,0,0,0,4.977-6.382,5.089,5.089,0,0,0,3.425-5.827,6.588,6.588,0,0,0-5.1-4.866,5.421,5.421,0,0,0-2.818.072,3.449,3.449,0,0,0-2.1,1.8" transform="translate(-363.4 -82.174)" fill="#263238"/><g transform="translate(26.694 23.587)"><path d="M390.746,121.932c.008.026-.315.082-.823.348a3.635,3.635,0,0,0-1.61,1.734,3.556,3.556,0,0,0,.27,3.39,3.55,3.55,0,0,0,1.571,1.324,3.526,3.526,0,0,0,4.075-.931,3.553,3.553,0,0,0,.841-1.876,3.557,3.557,0,0,0-1.23-3.171,3.636,3.636,0,0,0-2.2-.863c-.573-.019-.888.07-.892.044a.9.9,0,0,1,.225-.063,2.913,2.913,0,0,1,.668-.068,3.629,3.629,0,0,1,2.3.828A3.68,3.68,0,0,1,394.986,124a3.741,3.741,0,0,1,.291,1.952,3.753,3.753,0,0,1-.88,1.994,3.727,3.727,0,0,1-4.329.989,3.742,3.742,0,0,1-1.658-1.414,3.738,3.738,0,0,1-.586-1.884,3.676,3.676,0,0,1,.345-1.683,3.631,3.631,0,0,1,1.714-1.746,2.906,2.906,0,0,1,.632-.229A.9.9,0,0,1,390.746,121.932Z" transform="translate(-387.821 -121.801)" fill="#e8505b"/></g><path d="M355.8,82.816a4.135,4.135,0,0,0,1.946-7.643,5.138,5.138,0,0,0-7.669-6.013,6.817,6.817,0,0,0-12.6,2.019,6.589,6.589,0,0,0-8.454,8.94,5.1,5.1,0,0,0,.865,10.171,4.5,4.5,0,0,0,6.824,5.055,4.926,4.926,0,0,0,8.857-1.018" transform="translate(-324.362 -65.727)" fill="#263238"/><g transform="translate(13.592 8.19)"><path d="M369.461,113.83c.088-2.048.2-3.9.2-3.9a5.523,5.523,0,0,0,4.776-5.25c.2-4.673-.268-15.433-.268-15.433L365.74,85.2l-9.066,7.3,1.422,21.462a5.691,5.691,0,0,0,5.942,5.309h0A5.691,5.691,0,0,0,369.461,113.83Z" transform="translate(-356.674 -85.197)" fill="#b77153"/><g transform="translate(14.964 11.347)"><path d="M394.553,112.876c-.074.078-.51-.289-1.137-.313s-1.093.294-1.159.209c-.033-.038.043-.182.246-.33a1.514,1.514,0,0,1,1.833.083C394.526,112.691,394.589,112.841,394.553,112.876Z" transform="translate(-392.249 -112.173)" fill="#263238"/></g><g transform="translate(8.016 11.347)"><path d="M378.035,112.876c-.074.078-.51-.289-1.137-.313s-1.093.294-1.159.209c-.033-.038.042-.182.246-.33a1.514,1.514,0,0,1,1.833.083C378.008,112.691,378.072,112.841,378.035,112.876Z" transform="translate(-375.731 -112.173)" fill="#263238"/></g><g transform="translate(12.469 11.153)"><path d="M386.524,117.321a3.862,3.862,0,0,1,1.022-.156c.161-.011.313-.04.342-.156a.935.935,0,0,0-.1-.513l-.453-1.325a24.071,24.071,0,0,1-1.011-3.46,23.947,23.947,0,0,1,1.267,3.371q.227.7.434,1.332a1.068,1.068,0,0,1,.072.677.4.4,0,0,1-.268.24,1,1,0,0,1-.273.029A3.835,3.835,0,0,1,386.524,117.321Z" transform="translate(-386.318 -111.711)" fill="#263238"/></g><g transform="translate(6.923 22.746)"><path d="M379.193,141.256a11.149,11.149,0,0,1-6.062-1.985,5.864,5.864,0,0,0,5.983,3.132Z" transform="translate(-373.131 -139.271)" fill="#995037"/></g></g><path d="M370.571,84.826a6.167,6.167,0,0,0,.085,7.141,3.584,3.584,0,0,0,2.829,1.58,2.015,2.015,0,0,0,1.971-2.2,2.323,2.323,0,1,0,4.45.079,4.189,4.189,0,0,0,.524,1.434,1.421,1.421,0,0,0,1.29.679c.7-.093,1.114-.849,1.275-1.541a6.335,6.335,0,0,0-1.8-5.825,7.677,7.677,0,0,0-5.838-2.048,9.777,9.777,0,0,0-5.735,2.508" transform="translate(-350.498 -76.374)" fill="#263238"/><path d="M359.335,89.737a10.892,10.892,0,0,1,.941,4.193,5.624,5.624,0,0,1-1.515,3.936,3.826,3.826,0,0,1-3.975.954,4.427,4.427,0,0,1-.579,3.731,2.834,2.834,0,0,1-3.465.911,3.794,3.794,0,0,1-1.62-2.986,9.56,9.56,0,0,1,10.4-10.671" transform="translate(-338.669 -79.637)" fill="#263238"/><g transform="translate(12.231 21.064)"><path d="M356.095,115.972a1.644,1.644,0,0,0-1.969.472,2.686,2.686,0,0,0,2.672,4.409" transform="translate(-353.438 -115.802)" fill="#b77153"/><g transform="translate(0.964 1.38)"><path d="M357.279,121.353c0,.026-.208.056-.53-.035a1.406,1.406,0,0,1-.961-.859,1.026,1.026,0,0,1,.026-.746,1.1,1.1,0,0,1,.388-.46c.288-.19.509-.183.51-.159s-.186.087-.414.285a.922.922,0,0,0-.3,1.009,1.389,1.389,0,0,0,.8.781C357.085,121.29,357.283,121.318,357.279,121.353Z" transform="translate(-355.731 -119.082)" fill="#995037"/></g></g><g transform="translate(21.176 17.766)"><path d="M377.826,108.485c-.058.182-.742.115-1.555.151s-1.489.142-1.561-.035.589-.6,1.537-.637S377.889,108.317,377.826,108.485Z" transform="translate(-374.704 -107.962)" fill="#263238"/></g><g transform="translate(28.801 17.425)"><path d="M394.874,107.887c-.071.065-.212.022-.374-.019a1.526,1.526,0,0,0-.571-.036,7.035,7.035,0,0,1-.718.063c-.206,0-.349-.046-.376-.135s.066-.2.24-.321a1.8,1.8,0,0,1,.793-.277,1.053,1.053,0,0,1,.9.316C394.932,107.669,394.94,107.829,394.874,107.887Z" transform="translate(-392.831 -107.152)" fill="#263238"/></g><path d="M383.762,127.571a1.408,1.408,0,0,1,1.181-.167.884.884,0,0,1,.586.964.966.966,0,0,1-.379.538,1.23,1.23,0,0,1-.974.239.953.953,0,0,1-.724-.662.78.78,0,0,1,.38-.876" transform="translate(-358.583 -101.421)" fill="#995037"/><g transform="translate(24.737 25.509)"><path d="M385.907,127.508c.011.025-.149.133-.451.2a2.032,2.032,0,0,1-2.1-.875c-.166-.26-.2-.449-.177-.459s.119.147.3.364a2.273,2.273,0,0,0,1.952.813C385.719,127.528,385.895,127.476,385.907,127.508Z" transform="translate(-383.171 -126.371)" fill="#263238"/></g><g transform="translate(10.584 25.137)"><path d="M356.928,129.225c-.027,0-.01-.325-.156-.88a3.636,3.636,0,0,0-1.332-1.956,3.557,3.557,0,0,0-3.365-.492,3.561,3.561,0,0,0-1.641,1.237,3.526,3.526,0,0,0,0,4.18,3.555,3.555,0,0,0,1.641,1.238,3.556,3.556,0,0,0,3.365-.493,3.635,3.635,0,0,0,1.332-1.956c.146-.554.13-.881.156-.88a.9.9,0,0,1,.011.234,2.922,2.922,0,0,1-.082.667,3.631,3.631,0,0,1-1.32,2.06,3.676,3.676,0,0,1-1.564.712,3.735,3.735,0,0,1-1.967-.151,3.736,3.736,0,0,1-1.748-1.3,3.726,3.726,0,0,1,0-4.44A3.742,3.742,0,0,1,352,125.7a3.738,3.738,0,0,1,1.967-.151,3.681,3.681,0,0,1,1.564.712,3.632,3.632,0,0,1,1.32,2.061,2.917,2.917,0,0,1,.082.667A.894.894,0,0,1,356.928,129.225Z" transform="translate(-349.523 -125.486)" fill="#e8505b"/></g><g transform="translate(20.781 7.964)"><path d="M383.827,84.661c0-.005.041,0,.117.029a.91.91,0,0,1,.294.189,1.36,1.36,0,0,1,.376,1.226,1.753,1.753,0,0,1-1.456,1.29,3.648,3.648,0,0,1-2.465-.589l-.868-.5.953.313a1.031,1.031,0,0,1,.643.738,1.325,1.325,0,0,1-.133,1.006,1.408,1.408,0,0,1-.856.606,2.005,2.005,0,0,1-1.066-.024,3.647,3.647,0,0,1-1.831-1.582l-.609-.891.774.751a1.683,1.683,0,0,1,.416,1.59A1.741,1.741,0,0,1,377.179,90a2.265,2.265,0,0,1-2.394-.292,2.847,2.847,0,0,1-.906-1.35,2.625,2.625,0,0,1-.1-.426.461.461,0,0,1-.009-.151c.018,0,.045.2.18.552a2.9,2.9,0,0,0,.922,1.265,2.124,2.124,0,0,0,2.222.234,1.549,1.549,0,0,0,.82-1.063,1.48,1.48,0,0,0-.365-1.386l.165-.14a3.472,3.472,0,0,0,1.714,1.489,1.474,1.474,0,0,0,1.671-.48,1,1,0,0,0-.388-1.434l.085-.188a3.509,3.509,0,0,0,2.329.6,1.625,1.625,0,0,0,1.365-1.144,1.312,1.312,0,0,0-.3-1.154A1.571,1.571,0,0,0,383.827,84.661Z" transform="translate(-373.766 -84.659)" fill="#455a64"/></g><g transform="translate(6.18 8.239)"><path d="M352.509,92.555s-.015.031-.056.082a1.868,1.868,0,0,1-.2.209,2.724,2.724,0,0,1-2.641.587,2.828,2.828,0,0,1-1.67-1.444l.177-.024a2.721,2.721,0,1,1-4.577-2.393l.146.159a2.8,2.8,0,0,1-1.769.64,3.038,3.038,0,0,1-1.661-.453,2.512,2.512,0,0,1-.994-1.168,2.953,2.953,0,0,1,.483-3.011,1.8,1.8,0,0,1,.513-.426c.014.017-.19.143-.457.473a2.905,2.905,0,0,0-.611,1.67,2.806,2.806,0,0,0,.222,1.229,2.355,2.355,0,0,0,.942,1.074,2.861,2.861,0,0,0,1.559.407,2.6,2.6,0,0,0,1.632-.6l.146.159a2.6,2.6,0,0,0-.535,2.828,2.571,2.571,0,0,0,2.809,1.428,2.611,2.611,0,0,0,1.968-2.049l.049-.3.127.271a2.685,2.685,0,0,0,1.549,1.38,2.592,2.592,0,0,0,1.62.013,2.806,2.806,0,0,0,.936-.5C352.412,92.647,352.5,92.546,352.509,92.555Z" transform="translate(-339.053 -85.314)" fill="#455a64"/></g><g transform="translate(1.849 17.76)"><path d="M338.2,113.15a1.069,1.069,0,0,1-.364.217,2.477,2.477,0,0,1-2.77-.6,2.6,2.6,0,0,1-.632-2.157l.192.085a4.294,4.294,0,0,1-1.58,1.29,3.391,3.391,0,0,1-1.533.327,3.125,3.125,0,0,1-1.409-.387,2.49,2.49,0,0,1-1.34-1.99,2.363,2.363,0,0,1,.433-1.578,1.821,1.821,0,0,1,.314-.321c.083-.061.128-.089.133-.083s-.164.141-.376.454a2.333,2.333,0,0,0,.935,3.337,3.039,3.039,0,0,0,2.749.039,4.145,4.145,0,0,0,1.5-1.218l.272-.352-.08.437a2.427,2.427,0,0,0,.559,1.995,2.313,2.313,0,0,0,1.48.771,2.575,2.575,0,0,0,1.124-.114C338.064,113.211,338.192,113.135,338.2,113.15Z" transform="translate(-328.757 -107.948)" fill="#455a64"/></g><g transform="translate(31.967 13.849)"><path d="M403.5,98.65a1.412,1.412,0,0,1,.093.777A2.794,2.794,0,0,1,401.139,102a1.412,1.412,0,0,1-.781-.058c0-.037.3-.006.755-.1a2.886,2.886,0,0,0,2.327-2.433C403.512,98.95,403.467,98.655,403.5,98.65Z" transform="translate(-400.358 -98.65)" fill="#455a64"/></g><g transform="translate(32.381 18.253)"><path d="M406.647,109.121a.681.681,0,0,1,.106.319,1.81,1.81,0,0,1-.087.922,1.431,1.431,0,0,1-1.018.936,1.461,1.461,0,0,1-.851-.074,1.175,1.175,0,0,1-.67-.65l.212-.071a1.448,1.448,0,0,1,.053.413,1.675,1.675,0,0,1-1.055,1.5,1.4,1.4,0,0,1-.837.035,1.62,1.62,0,0,1-.632-.348,1.527,1.527,0,0,1-.509-.882.667.667,0,0,1,.012-.373c.021,0,.013.133.074.353a1.54,1.54,0,0,0,.526.78,1.309,1.309,0,0,0,1.293.241,1.487,1.487,0,0,0,.9-1.309,1.249,1.249,0,0,0-.043-.347l.212-.071a1.138,1.138,0,0,0,1.273.607,1.289,1.289,0,0,0,.917-.8,1.942,1.942,0,0,0,.146-.857A1.985,1.985,0,0,1,406.647,109.121Z" transform="translate(-401.342 -109.121)" fill="#455a64"/></g><g transform="translate(23.802 24.503)"><path d="M382,123.979c.028,0,.047.1.01.238a.984.984,0,0,1-.834.691c-.147.01-.234-.026-.233-.054,0-.064.325-.095.61-.339S381.94,123.968,382,123.979Z" transform="translate(-380.946 -123.978)" fill="#263238"/></g></g></g><g transform="translate(153.524 41.606)"><g transform="translate(0)"><path d="M248.328,41.612a1.767,1.767,0,0,1-.292.036l-.857.072a9.626,9.626,0,0,0-1.38.2c-.27.058-.568.083-.872.177l-.973.282a16.09,16.09,0,0,0-4.62,2.358,16.462,16.462,0,0,0-4.514,5.141,17.348,17.348,0,0,0-1.561,3.678,18.418,18.418,0,0,0-.582,6.562c.024.387.112.769.166,1.158a8.177,8.177,0,0,0,.234,1.164,16.454,16.454,0,0,0,1.816,4.553,16.263,16.263,0,0,0,7.754,6.886,14.953,14.953,0,0,0,5.425,1.154,14.637,14.637,0,0,0,5.64-.877l.552-.21.073-.027.066.032L262.4,77.9l-.234.2c-.879-2.624-1.731-5.168-2.547-7.609l-.032-.094.069-.071a16.971,16.971,0,0,0,4.093-6.984,17.424,17.424,0,0,0,.521-7.392,17,17,0,0,0-5.8-10.588,17.456,17.456,0,0,0-3.932-2.44,17.094,17.094,0,0,0-3.31-1l-1.238-.2-.913-.053-.559-.037a.956.956,0,0,1-.19-.022,1.018,1.018,0,0,1,.19-.006l.561.01.919.027,1.25.172a16.765,16.765,0,0,1,3.352.963,17.433,17.433,0,0,1,4,2.429,17.122,17.122,0,0,1,3.718,4.386,17.313,17.313,0,0,1,2.224,6.318,17.675,17.675,0,0,1-.5,7.517,17.249,17.249,0,0,1-4.153,7.126l.038-.165,2.558,7.606.129.383-.363-.179-8-3.939.139.005-.564.215a14.952,14.952,0,0,1-5.766.9,15.27,15.27,0,0,1-5.544-1.185,16.56,16.56,0,0,1-7.9-7.038,16.73,16.73,0,0,1-1.836-4.641,8.5,8.5,0,0,1-.234-1.185c-.053-.4-.141-.785-.165-1.178a18.67,18.67,0,0,1,.62-6.665,17.517,17.517,0,0,1,1.6-3.724,16.565,16.565,0,0,1,4.611-5.175,15.985,15.985,0,0,1,4.694-2.331l.986-.269a8.915,8.915,0,0,1,.881-.163,9.021,9.021,0,0,1,1.392-.169l.862-.038A1.889,1.889,0,0,1,248.328,41.612Z" transform="translate(-232.303 -41.606)" fill="#263238"/><g transform="translate(10.025 8.853)"><path d="M265.9,68.476l-1.165.013-2.581-3.513-.027-2.324s-1.8-.09-1.555,2.951.008,2.269.008,2.269-3.822.058-4.135.394c-.228.244-.289,4.042-.306,6.1a2.23,2.23,0,0,0,1.605,2.228,1.672,1.672,0,0,0,.412.05c.953-.011,5.815-.841,5.815-.841l2.012-.023Z" transform="translate(-256.135 -62.652)" fill="#e8505b"/><g transform="translate(10.378 5.148)"><path d="M283.516,74.891l-.626,7.973-1.994.023-.089-7.8Z" transform="translate(-280.807 -74.891)" fill="#e8505b"/></g></g></g></g></g></svg>