<svg xmlns="http://www.w3.org/2000/svg" xmlns:xlink="http://www.w3.org/1999/xlink" width="194.52" height="194.52" viewBox="0 0 194.52 194.52"><defs><clipPath id="a"><rect width="194.52" height="194.52" transform="translate(0)" fill="#fff"/></clipPath></defs><g clip-path="url(#a)"><g transform="translate(-0.001)"><path d="M59.809,11.1l-4.593,4.593A37.876,37.876,0,0,1,28.435,26.784v25.73A47.068,47.068,0,0,0,40.674,84.17l19.135,21.049L78.945,84.17A47.068,47.068,0,0,0,91.184,52.514V26.784A37.876,37.876,0,0,1,64.4,15.689Zm0,0" transform="translate(100.199 39.102)" fill="#835712"/><path d="M28.435,23.125v25.73A47.062,47.062,0,0,0,40.674,80.511L55.1,96.384,69.533,80.511A47.068,47.068,0,0,0,81.771,48.855V23.125A37.874,37.874,0,0,1,55.1,12.135,37.874,37.874,0,0,1,28.435,23.125Zm0,0" transform="translate(100.199 42.76)" fill="#ae7418"/><path d="M32.6,20.806H57.7V39.631H32.6Zm0,0" transform="translate(114.862 73.316)" fill="#007f76"/><path d="M32.6,20.806H48.284V39.631H32.6Zm0,0" transform="translate(114.862 73.316)" fill="#00a99d"/><path d="M16.381,77.313V39.664H.694l21.962-25.1,21.962,25.1H28.93V77.313Zm0,0" transform="translate(2.444 51.321)" fill="#1f80aa"/><path d="M.694,36.87H16.381V74.519h6.275V36.87H38.342L19.518,15.357Zm0,0" transform="translate(2.444 54.114)" fill="#29abe2"/><path d="M41.414,14.564V52.213H57.1l-21.962,25.1-21.962-25.1H28.864V14.564Zm0,0" transform="translate(46.434 51.321)" fill="#1f80aa"/><path d="M50.826,52.213H35.139V14.564H28.864V52.213H13.177L32,73.726Zm0,0" transform="translate(46.434 51.321)" fill="#29abe2"/><path d="M.694.694h100.4v25.1H.694Zm0,0" transform="translate(2.444 2.444)" fill="#736357"/><path d="M.694.694H91.678v25.1H.694Zm0,0" transform="translate(2.444 2.444)" fill="#998675"/><path d="M.694,6.242h100.4v25.1H.694Zm0,0" transform="translate(2.444 21.995)" fill="#534741"/><path d="M.694,6.242h100.4v25.1H.694Zm0,0" transform="translate(2.444 21.995)" fill="#534741"/><path d="M.694,6.242H91.678v25.1H.694Zm0,0" transform="translate(2.444 21.995)" fill="#736357"/><path d="M.694,31.21h100.4v25.1H.694Zm0,0" transform="translate(2.444 109.974)" fill="#736357"/><path d="M.694,31.21H91.678v25.1H.694Zm0,0" transform="translate(2.444 109.974)" fill="#998675"/><path d="M.694,36.758h100.4v25.1H.694Zm0,0" transform="translate(2.444 129.524)" fill="#534741"/><path d="M.694,36.758H91.678v25.1H.694Zm0,0" transform="translate(2.444 129.524)" fill="#736357"/><path d="M103.534,67.438H3.137A3.137,3.137,0,0,1,0,64.3V39.2a3.137,3.137,0,0,1,3.137-3.137h100.4a3.137,3.137,0,0,1,3.137,3.137V64.3A3.137,3.137,0,0,1,103.534,67.438ZM6.275,61.164H100.4V42.339H6.275Zm0,0" transform="translate(0.001 127.08)" fill="#12263f"/><path d="M62.253,110.8a3.141,3.141,0,0,1-2.322-1.026L40.8,88.726A50.1,50.1,0,0,1,27.742,54.959V29.228a3.137,3.137,0,0,1,3.137-3.137,34.505,34.505,0,0,0,24.56-10.175l4.6-4.593a3.133,3.133,0,0,1,4.436,0l4.6,4.593a34.505,34.505,0,0,0,24.56,10.175,3.137,3.137,0,0,1,3.137,3.137v25.73A50.094,50.094,0,0,1,83.71,88.726L64.576,109.775A3.141,3.141,0,0,1,62.253,110.8ZM34.017,32.246V54.956A43.81,43.81,0,0,0,45.443,84.5L62.253,103l16.81-18.5A43.815,43.815,0,0,0,90.49,54.959V32.249A40.694,40.694,0,0,1,64.631,20.355l-2.378-2.378-2.378,2.374A40.678,40.678,0,0,1,34.017,32.246Zm0,0" transform="translate(97.755 36.657)" fill="#12263f"/><path d="M60.14,45.212h-25.1A3.137,3.137,0,0,1,31.9,42.075V23.25a3.137,3.137,0,0,1,3.137-3.137h25.1a3.137,3.137,0,0,1,3.137,3.137V42.075A3.137,3.137,0,0,1,60.14,45.212ZM38.178,38.937H57V26.388H38.178Zm0,0" transform="translate(112.418 70.872)" fill="#12263f"/><path d="M52.115,33.026H45.84V26.751a3.137,3.137,0,0,0-6.275,0v6.275H33.29V26.751a9.412,9.412,0,0,1,18.824,0Zm0,0" transform="translate(117.306 61.096)" fill="#12263f"/><path d="M2.774,38.839h25.1v6.275H2.774Zm0,0" transform="translate(9.776 136.856)" fill="#12263f"/><path d="M19.419,38.839h6.275v6.275H19.419Zm0,0" transform="translate(68.429 136.856)" fill="#12263f"/><path d="M16.645,38.839H22.92v6.275H16.645Zm0,0" transform="translate(58.653 136.856)" fill="#12263f"/><path d="M13.871,38.839h6.275v6.275H13.871Zm0,0" transform="translate(48.878 136.856)" fill="#12263f"/><path d="M103.534,61.89H3.137A3.137,3.137,0,0,1,0,58.753v-25.1a3.137,3.137,0,0,1,3.137-3.137h100.4a3.137,3.137,0,0,1,3.137,3.137v25.1A3.137,3.137,0,0,1,103.534,61.89ZM6.275,55.615H100.4V36.791H6.275Zm0,0" transform="translate(0.001 107.53)" fill="#12263f"/><path d="M2.774,33.29h25.1v6.275H2.774Zm0,0" transform="translate(9.776 117.305)" fill="#12263f"/><path d="M19.419,33.29h6.275v6.275H19.419Zm0,0" transform="translate(68.429 117.305)" fill="#12263f"/><path d="M16.645,33.29H22.92v6.275H16.645Zm0,0" transform="translate(58.653 117.305)" fill="#12263f"/><path d="M13.871,33.29h6.275v6.275H13.871Zm0,0" transform="translate(48.878 117.305)" fill="#12263f"/><path d="M103.534,36.922H3.137A3.137,3.137,0,0,1,0,33.785V8.686A3.137,3.137,0,0,1,3.137,5.548h100.4a3.137,3.137,0,0,1,3.137,3.137v25.1A3.137,3.137,0,0,1,103.534,36.922ZM6.275,30.648H100.4V11.823H6.275Zm0,0" transform="translate(0.001 19.551)" fill="#12263f"/><path d="M2.774,8.323h25.1V14.6H2.774Zm0,0" transform="translate(9.776 29.326)" fill="#12263f"/><path d="M19.419,8.323h6.275V14.6H19.419Zm0,0" transform="translate(68.429 29.326)" fill="#12263f"/><path d="M16.645,8.323H22.92V14.6H16.645Zm0,0" transform="translate(58.653 29.326)" fill="#12263f"/><path d="M13.871,8.323h6.275V14.6H13.871Zm0,0" transform="translate(48.878 29.326)" fill="#12263f"/><path d="M103.534,31.374H3.137A3.137,3.137,0,0,1,0,28.237V3.137A3.137,3.137,0,0,1,3.137,0h100.4a3.137,3.137,0,0,1,3.137,3.137v25.1A3.137,3.137,0,0,1,103.534,31.374ZM6.275,25.1H100.4V6.275H6.275Zm0,0" transform="translate(0.001)" fill="#12263f"/><path d="M2.774,2.774h25.1V9.049H2.774Zm0,0" transform="translate(9.776 9.775)" fill="#12263f"/><path d="M19.419,2.774h6.275V9.049H19.419Zm0,0" transform="translate(68.429 9.775)" fill="#12263f"/><path d="M16.645,2.774H22.92V9.049H16.645Zm0,0" transform="translate(58.653 9.775)" fill="#12263f"/><path d="M13.871,2.774h6.275V9.049H13.871Zm0,0" transform="translate(48.878 9.775)" fill="#12263f"/><path d="M31.375,82.856H18.825a3.137,3.137,0,0,1-3.137-3.137V45.207H3.138A3.14,3.14,0,0,1,.776,40L22.737,14.9a3.245,3.245,0,0,1,4.725,0L49.424,40a3.14,3.14,0,0,1-2.362,5.206H34.512V79.718a3.137,3.137,0,0,1-3.137,3.137Zm-9.412-6.275h6.275V42.069a3.137,3.137,0,0,1,3.137-3.137h8.772L25.1,21.736l-15.047,17.2h8.772a3.137,3.137,0,0,1,3.137,3.137Zm0,0" transform="translate(0 48.915)" fill="#12263f"/><path d="M37.584,82.894a3.157,3.157,0,0,1-2.362-1.069l-21.962-25.1a3.14,3.14,0,0,1,2.362-5.206h12.55V17.008a3.137,3.137,0,0,1,3.137-3.137h12.55A3.137,3.137,0,0,1,47,17.008V51.52h12.55a3.14,3.14,0,0,1,2.362,5.206l-21.962,25.1A3.157,3.157,0,0,1,37.584,82.894Zm-15.047-25.1,15.047,17.2,15.047-17.2H43.858a3.137,3.137,0,0,1-3.137-3.137V20.146H34.446V54.657a3.137,3.137,0,0,1-3.137,3.137Zm0,0" transform="translate(43.99 48.877)" fill="#12263f"/><path d="M75.166,35.9H68.891V7.662H24.968V1.387H72.029a3.137,3.137,0,0,1,3.137,3.137Zm0,0" transform="translate(87.98 4.888)" fill="#12263f"/><path d="M72.029,68.5H24.968V62.22H68.891V33.984h6.275V65.358A3.137,3.137,0,0,1,72.029,68.5Zm0,0" transform="translate(87.98 119.749)" fill="#12263f"/></g></g></svg>