<svg xmlns="http://www.w3.org/2000/svg" width="253" height="203.07" viewBox="0 0 253 203.07"><g transform="translate(-432.325 -4369.5)"><rect width="253" height="82" rx="10" transform="translate(432.325 4478.859)" fill="#f6f1e5"/><g transform="translate(400.536 4322.772)"><g transform="translate(100.709 46.728)"><g transform="translate(0 137.977)"><g transform="translate(0 0.917)"><g transform="translate(11.135 1.505)"><rect width="83.002" height="52.738" fill="#455a64"/></g><rect width="101.362" height="18.509" rx="9.254" fill="#455a64"/><g transform="translate(7.64 18.127)"><path d="M248.551,406.475c0,.071-19.39.13-43.3.13s-43.308-.058-43.308-.13,19.386-.13,43.308-.13S248.551,406.4,248.551,406.475Z" transform="translate(-161.94 -406.345)" fill="#263238"/></g><g transform="translate(22.092 18.756)"><path d="M189.154,443.433c-.072,0-.13-8.039-.13-17.954s.058-17.956.13-17.956.13,8.038.13,17.956S189.225,443.433,189.154,443.433Z" transform="translate(-189.024 -407.523)" fill="#263238"/></g><g transform="translate(70.855 2.399)"><path d="M284.237,385.512a12.868,12.868,0,0,1-.324-1.365,18.141,18.141,0,0,0-2.712-6.118,12.718,12.718,0,0,1-.793-1.157,5.426,5.426,0,0,1,.942,1.05,14.848,14.848,0,0,1,2.743,6.188A5.374,5.374,0,0,1,284.237,385.512Z" transform="translate(-280.406 -376.871)" fill="#263238"/></g><g transform="translate(71.788 1.875)"><path d="M289.511,382.287c-.045.015-.227-.529-.67-1.33a10.228,10.228,0,0,0-5.277-4.584c-.855-.326-1.42-.431-1.411-.477a1.215,1.215,0,0,1,.4.036,6.577,6.577,0,0,1,1.069.268A9.363,9.363,0,0,1,289,380.871a6.546,6.546,0,0,1,.415,1.021A1.237,1.237,0,0,1,289.511,382.287Z" transform="translate(-282.154 -375.889)" fill="#263238"/></g></g><g transform="translate(29.668)" opacity="0.3"><path d="M203.221,371.956a212.018,212.018,0,0,0,17.208,53.884h3.733c1.526-2.112,1.019-5.06.067-7.485s-2.3-4.808-2.292-7.413a40.91,40.91,0,0,1,.742-4.763c.764-6.161-3.469-11.8-4.446-17.926-.354-2.218-.152-4.777,1.528-6.267,1.473-1.306,3.63-1.4,5.6-1.358,5.146.122,10.368.765,15.389-.366s9.959-4.564,11-9.606Z" transform="translate(-203.221 -370.656)"/></g></g><g transform="translate(4.214)"><g transform="translate(9.5 45.379)"><path d="M238,233.609l16.269-4.387s-3.489-10.321-6.2-17.777a21.142,21.142,0,0,0-8.506-10.8,6.38,6.38,0,0,0-2.856-1.13c-3.849-.514-14.376-1.9-19.6-2.332-6.462-.538-19.95,3.017-19.95,3.017s-11.833,6.562-15.823,9.211A5.544,5.544,0,0,0,179.2,212.1c-.738,1.984-1.676,5.393-2.8,9.8l-3.081,12.082,13.874-.426c2.8,8.49,5.386,16.115,5.386,16.115l-2.513,15.616s18.965,7.584,23.811,7.046,26.805-9.02,26.805-9.02-2.513-24.769-2.513-25.488C238.173,237.557,238.1,235.757,238,233.609Z" transform="translate(-173.322 -197.126)" fill="#ff725e"/><g transform="translate(18.328 18.275)" opacity="0.3"><path d="M238.019,233.068a5.015,5.015,0,0,0-4.435-1.664,10.023,10.023,0,0,0-4.523,1.865c-4.206,2.855-7.19,7.157-9.834,11.5a138.66,138.66,0,0,0-11.557,23.87l.108,2.126c3.449-.435,5.7-3.344,7.2-6.481s2.142-6.614,3.462-9.83A25.348,25.348,0,0,1,232.09,240.8a6.534,6.534,0,0,0,5.608-2.017A4.654,4.654,0,0,0,238.019,233.068Z" transform="translate(-207.669 -231.374)"/></g><g transform="translate(63.045 19.027)"><path d="M293.26,252.934c-.077.007-.537-4.5-1.029-10.062s-.828-10.082-.752-10.089.537,4.5,1.029,10.064S293.337,252.927,293.26,252.934Z" transform="translate(-291.469 -232.783)" fill="#263238"/></g><g transform="translate(10.174 19.027)"><path d="M192.393,232.783a3.677,3.677,0,0,1,.2.7c.12.509.273,1.155.456,1.928.374,1.631.87,3.888,1.4,6.384s1,4.761,1.323,6.4l.37,1.947a3.694,3.694,0,0,1,.1.722,3.645,3.645,0,0,1-.2-.7l-.456-1.928c-.374-1.631-.871-3.888-1.4-6.386s-1-4.76-1.323-6.4c-.148-.781-.273-1.434-.37-1.947A3.661,3.661,0,0,1,192.393,232.783Z" transform="translate(-192.388 -232.783)" fill="#263238"/></g><g transform="translate(61.117 2.583)"><path d="M289.1,201.967c.08.022-.388,1.827-.71,4.1s-.39,4.133-.474,4.131a4.72,4.72,0,0,1-.052-1.225,25.523,25.523,0,0,1,.84-5.843A4.7,4.7,0,0,1,289.1,201.967Z" transform="translate(-287.855 -201.967)" fill="#263238"/></g></g><g transform="translate(34.21 77.683)"><g transform="translate(25.522)"><path d="M281.906,261.844c-.146.043,4.133,14.753,4.133,14.753l-12.579-1.024-6,7.359,21.439,7.9s13.282-5.923,13.282-6.462-4.777-26.7-4.777-26.7Z" transform="translate(-267.457 -257.665)" fill="#886962"/></g><g transform="translate(0 2.778)"><g transform="translate(8.452)"><path d="M257.731,265.977a.893.893,0,0,0,.644-.3,1.093,1.093,0,0,0,.274-.808,1.041,1.041,0,0,0-.731-.848,1.416,1.416,0,0,0-1.4.255,2.042,2.042,0,0,0-.523.67,2.374,2.374,0,0,0-.163.425c-.038.149-.085.313-.019.409a.346.346,0,0,0,.368.094.716.716,0,0,0,.375-.259,1.046,1.046,0,0,0,.148-.955,1.392,1.392,0,0,0-1.887-.622,2.534,2.534,0,0,0-.952.755,1.082,1.082,0,0,0-.242.538.347.347,0,0,0,.261.389.647.647,0,0,0,.53-.181.857.857,0,0,0,.243-.552,1.3,1.3,0,0,0-.559-1.132,1.652,1.652,0,0,0-1.338-.17,1.564,1.564,0,0,0-1.079.861.791.791,0,0,0-.033.654.544.544,0,0,0,.531.3.771.771,0,0,0,.582-.322.781.781,0,0,0,.065-.673,1.134,1.134,0,0,0-1.178-.743,2.266,2.266,0,0,0-1.431.673,3.514,3.514,0,0,0-.558.617.8.8,0,0,0-.155.693.4.4,0,0,0,.57.144.646.646,0,0,0,.326-.617,1.729,1.729,0,0,0-.838-1.368,1.788,1.788,0,0,0-1.638-.133,1.755,1.755,0,0,0-.689.5,1,1,0,0,0-.247.753c.055.539.939.647,1.226.2a1.047,1.047,0,0,0-.368-1.442,1.893,1.893,0,0,0-1.676-.091,4.4,4.4,0,0,0-.8.4,1.959,1.959,0,0,0-.632.564.7.7,0,0,0-.049.721.391.391,0,0,0,.565.183.625.625,0,0,0,.287-.629,1.38,1.38,0,0,0-.324-.723,1.639,1.639,0,0,0-1.428-.591,1.621,1.621,0,0,0-1.255.84.832.832,0,0,0-.046.7.5.5,0,0,0,.555.26.682.682,0,0,0,.531-.387.89.89,0,0,0-.014-.688,1.47,1.47,0,0,0-1.134-.824,3.024,3.024,0,0,0-1.464.043,1.256,1.256,0,0,0-.935.893.935.935,0,0,0,.515,1.053.778.778,0,0,0,.9-.606,1.277,1.277,0,0,0-.332-1.133,1.977,1.977,0,0,0-1.026-.614,2.347,2.347,0,0,0-2.127.528,1.713,1.713,0,0,0-.52.88.847.847,0,0,0,.273.846.577.577,0,0,0,.774-.023.825.825,0,0,0,.261-.74,1.6,1.6,0,0,0-.858-1.152,1.736,1.736,0,0,0-1.167-.177,1.838,1.838,0,0,0-.792.386,2.3,2.3,0,0,0-.47.569.778.778,0,0,1,.078-.175,1.715,1.715,0,0,1,.354-.438,1.866,1.866,0,0,1,.812-.427,1.816,1.816,0,0,1,1.238.161,1.718,1.718,0,0,1,.943,1.235.971.971,0,0,1-.3.87.737.737,0,0,1-.977.038,1.015,1.015,0,0,1-.343-1.006,1.889,1.889,0,0,1,.563-.982,2.537,2.537,0,0,1,2.3-.593,2.188,2.188,0,0,1,1.141.672,1.5,1.5,0,0,1,.386,1.335,1.16,1.16,0,0,1-.422.622.868.868,0,0,1-.766.148.949.949,0,0,1-.581-.536,1.34,1.34,0,0,1-.107-.782,1.494,1.494,0,0,1,1.1-1.091,3.258,3.258,0,0,1,1.592-.055,1.727,1.727,0,0,1,1.326.977,1.154,1.154,0,0,1,.015.892.947.947,0,0,1-.735.548.773.773,0,0,1-.84-.408,1.1,1.1,0,0,1,.042-.932,1.893,1.893,0,0,1,1.472-1,1.919,1.919,0,0,1,1.678.687,1.657,1.657,0,0,1,.39.876.912.912,0,0,1-.427.9.677.677,0,0,1-.55.067.724.724,0,0,1-.412-.363.989.989,0,0,1,.059-1.011,2.237,2.237,0,0,1,.723-.655,4.641,4.641,0,0,1,.853-.43,2.181,2.181,0,0,1,1.932.118,1.337,1.337,0,0,1,.448,1.859,1.016,1.016,0,0,1-.978.4.961.961,0,0,1-.5-.222.826.826,0,0,1-.27-.491,1.283,1.283,0,0,1,.307-.985,2.05,2.05,0,0,1,.808-.583,2.078,2.078,0,0,1,1.9.158,2.007,2.007,0,0,1,.971,1.613.933.933,0,0,1-.487.872.8.8,0,0,1-.528.068.625.625,0,0,1-.426-.351,1.05,1.05,0,0,1,.177-.963,3.75,3.75,0,0,1,.606-.672,2.539,2.539,0,0,1,1.61-.74,1.6,1.6,0,0,1,.882.218,1.334,1.334,0,0,1,.561.716,1.044,1.044,0,0,1-.1.906,1.029,1.029,0,0,1-.789.437.812.812,0,0,1-.78-.447,1.046,1.046,0,0,1,.032-.873,1.818,1.818,0,0,1,1.25-1,1.893,1.893,0,0,1,1.538.211A1.53,1.53,0,0,1,254.9,265a.956.956,0,0,1-1.055.934.573.573,0,0,1-.434-.628,1.286,1.286,0,0,1,.292-.654,2.745,2.745,0,0,1,1.042-.811,1.584,1.584,0,0,1,2.144.753,1.225,1.225,0,0,1-.187,1.123.884.884,0,0,1-.474.316.5.5,0,0,1-.544-.172.686.686,0,0,1,.006-.539,2.52,2.52,0,0,1,.179-.45,2.18,2.18,0,0,1,.571-.711,1.54,1.54,0,0,1,1.523-.253,1.137,1.137,0,0,1,.779.948,1.149,1.149,0,0,1-.318.855A.751.751,0,0,1,257.731,265.977Z" transform="translate(-235.469 -262.87)" fill="#263238"/></g><g transform="translate(0.999 1.567)"><path d="M228.842,265.806l-7.341,27.75,23.345.734,7.341-27.406Z" transform="translate(-221.501 -265.806)" fill="#455a64"/></g><g transform="translate(0 1.567)"><path d="M227.969,265.806l-.933.089-7.407,25.63,1.127,1.546Z" transform="translate(-219.629 -265.806)" fill="#e0e0e0"/></g><g transform="translate(15.848 8.64)"><path d="M257.277,279.063h7.582a1.785,1.785,0,0,1,1.677,1.094,5.1,5.1,0,0,1,.438,2.187,2.769,2.769,0,0,1,.51,1.531,38.575,38.575,0,0,1,0,4.155c-.073.219-.875.438-.875.438a2.781,2.781,0,0,1,.073,2.042,2.141,2.141,0,0,1-1.093,1.093s-1.021,2.333-2.041,2.625a6.922,6.922,0,0,1-2.479,0c-.51,0-8.749-4.229-8.749-4.229v-.948s-2.916.292-2.989-1.312,1.9-1.509,1.9-1.509h4.447s-4.885.2-5.322-.533-1.02-2.479.474-2.77,8.24-.292,8.24-.292l3.681.609h.583l-.455-1.621s-3.867-.01-4.44-.082-1.667-.219-1.667-1.24S257.277,279.063,257.277,279.063Z" transform="translate(-249.328 -279.062)" fill="#886962"/></g><g transform="translate(18.424 15.618)"><path d="M263.791,292.778a6.3,6.3,0,0,1-1.417.1c-.876.013-2.087-.008-3.421-.094s-2.538-.221-3.4-.348a6.3,6.3,0,0,1-1.392-.277,7.516,7.516,0,0,1,1.416.072c.87.074,2.072.175,3.4.261s2.533.14,3.4.179A7.494,7.494,0,0,1,263.791,292.778Z" transform="translate(-254.156 -292.138)" fill="#654742"/></g><g transform="translate(18.897 18.967)"><path d="M263.514,299.8a5.131,5.131,0,0,1-1.262-.039c-.775-.067-1.844-.195-3.016-.385s-2.227-.408-2.983-.59a5.093,5.093,0,0,1-1.21-.362,5.818,5.818,0,0,1,1.251.16l2.989.5,2.995.468A5.7,5.7,0,0,1,263.514,299.8Z" transform="translate(-255.042 -298.415)" fill="#654742"/></g><g transform="translate(29.544 14.615)"><path d="M279.169,290.261c.007-.011.111.03.267.162a1.764,1.764,0,0,1,.494.724,1.8,1.8,0,0,1-.031,1.345,1.941,1.941,0,0,1-1.307,1.1l.085-.211a2.394,2.394,0,0,1-1.095,3.408l.084-.1a4.665,4.665,0,0,1-1.64,2.489,3.879,3.879,0,0,1-.736.455c-.184.083-.289.113-.295.1-.02-.037.38-.214.92-.688a4.777,4.777,0,0,0,1.481-2.423l.017-.069.067-.027a2.149,2.149,0,0,0,.964-3l-.107-.168.193-.043a1.721,1.721,0,0,0,1.154-.931,1.661,1.661,0,0,0,.082-1.193A2.506,2.506,0,0,0,279.169,290.261Z" transform="translate(-274.996 -290.259)" fill="#654742"/></g></g></g><g transform="translate(18.35)"><g transform="translate(6.273 8.235)"><g transform="translate(0.086)"><path d="M227.173,178.289l4.681-9.443-1.451-4.129s7.022-3.644,4.623-11.083c-1.159-3.593-4.147-10.795-6.927-17.283a14.566,14.566,0,0,0-18.031-8.07l-.715.24c-7.556,3.043-9.194,11.159-5.944,18.63l9.5,27.761Z" transform="translate(-201.823 -127.518)" fill="#886962"/></g><g transform="translate(18.09 37.192)"><path d="M246.146,197.216a18.177,18.177,0,0,1-10.582.5s4.076,4.564,11.244,1.411Z" transform="translate(-235.564 -197.216)" fill="#654742"/></g><g transform="translate(24.47 14.025)"><path d="M249.659,154.471a1.116,1.116,0,0,1-.661,1.41,1.067,1.067,0,0,1-1.411-.587,1.117,1.117,0,0,1,.66-1.411A1.069,1.069,0,0,1,249.659,154.471Z" transform="translate(-247.52 -153.802)" fill="#263238"/></g><g transform="translate(21.756 11.985)"><path d="M246.643,150.557c-.085.182-1.086-.142-2.224.244-1.142.369-1.78,1.236-1.95,1.138-.082-.042-.032-.336.243-.723a3.062,3.062,0,0,1,1.5-1.082,2.939,2.939,0,0,1,1.828-.022C246.484,150.264,246.687,150.473,246.643,150.557Z" transform="translate(-242.433 -149.978)" fill="#263238"/></g><g transform="translate(13.995 17.504)"><path d="M230.028,160.99a1.116,1.116,0,0,1-.661,1.41,1.068,1.068,0,0,1-1.411-.587,1.117,1.117,0,0,1,.66-1.411A1.068,1.068,0,0,1,230.028,160.99Z" transform="translate(-227.889 -160.32)" fill="#263238"/></g><g transform="translate(10.858 15.502)"><path d="M226.059,157c-.065.19-1.1-.022-2.184.484-1.094.49-1.636,1.421-1.816,1.343-.085-.033-.069-.329.164-.745a3.063,3.063,0,0,1,1.378-1.238,2.944,2.944,0,0,1,1.815-.22C225.868,156.73,226.093,156.916,226.059,157Z" transform="translate(-222.011 -156.569)" fill="#263238"/></g><g transform="translate(18.121 14.706)"><path d="M239.337,164.391a7.962,7.962,0,0,1,1.737-.956c.281-.128.536-.278.519-.493a1.56,1.56,0,0,0-.484-.8l-1.6-1.925a40.153,40.153,0,0,1-3.878-5.141,40.142,40.142,0,0,1,4.283,4.817q.824,1.021,1.573,1.95a1.775,1.775,0,0,1,.535,1.09.769.769,0,0,1-.335.586,2.084,2.084,0,0,1-.471.235A7.824,7.824,0,0,1,239.337,164.391Z" transform="translate(-235.622 -155.077)" fill="#263238"/></g><g transform="translate(8.32 11.606)"><path d="M222.294,149.63c-.008.347-1.194.583-2.476,1.193-1.294.584-2.24,1.338-2.51,1.12-.124-.107-.034-.461.3-.907a4.778,4.778,0,0,1,3.8-1.761C221.964,149.307,222.293,149.467,222.294,149.63Z" transform="translate(-217.255 -149.268)" fill="#263238"/></g><g transform="translate(20.647 8.829)"><path d="M244.318,144.736c-.113.326-.988.321-1.935.626-.958.271-1.683.759-1.958.551-.125-.1-.086-.406.18-.767a2.945,2.945,0,0,1,3.137-.948C244.164,144.351,244.363,144.58,244.318,144.736Z" transform="translate(-240.356 -144.063)" fill="#263238"/></g><g transform="translate(0 24.914)"><path d="M205.782,174.208c-.145-.012-5.6.206-3.732,5.217s6.511,2.105,6.466,1.958S205.782,174.208,205.782,174.208Z" transform="translate(-201.662 -174.207)" fill="#886962"/><g transform="translate(1.482 2.184)"><path d="M207.575,181.962c-.028-.008-.065.094-.187.216a.929.929,0,0,1-.647.256c-.6,0-1.36-.671-1.72-1.566a3.075,3.075,0,0,1-.221-1.34,1.077,1.077,0,0,1,.407-.915.474.474,0,0,1,.6.048c.12.115.125.227.155.226s.076-.124-.041-.316a.6.6,0,0,0-.314-.241.7.7,0,0,0-.53.052,1.307,1.307,0,0,0-.623,1.116,3.163,3.163,0,0,0,.217,1.509,2.417,2.417,0,0,0,2.078,1.69,1,1,0,0,0,.749-.43C207.611,182.087,207.6,181.965,207.575,181.962Z" transform="translate(-204.44 -178.3)" fill="#654742"/></g></g><g transform="translate(18.684 25.93)"><path d="M236.743,176.115c.181-.073.6,1.162,1.952,1.684s2.622-.057,2.69.113c.043.072-.213.339-.764.541a3.248,3.248,0,0,1-2.222-.025,2.823,2.823,0,0,1-1.558-1.438C236.622,176.489,236.656,176.137,236.743,176.115Z" transform="translate(-236.676 -176.112)" fill="#263238"/></g></g><path d="M224.352,118.2a3.089,3.089,0,0,0-2.411-1.688,4.775,4.775,0,0,0-.371-.808,3.957,3.957,0,0,0-4.668-1.726,3.847,3.847,0,0,0-6.8.334,4.6,4.6,0,0,0-4.89.941,1.164,1.164,0,0,0-.356.548.537.537,0,0,0,.084.414,2.9,2.9,0,0,0-2.625-.549,2.775,2.775,0,0,0-.843.428,3.26,3.26,0,0,0-1.719,1.757A4.641,4.641,0,0,0,195.207,122a4.414,4.414,0,0,0-2.715,4.109,3.223,3.223,0,0,0-.654,5.542s-3.276,2-1.292,4.854c1.014,1.459,3.093.448,3.093.448l6.157,9.319c-.027.066,1.06,1.033,1.584.57a3.477,3.477,0,0,0,.823-1.889,7.632,7.632,0,0,0,.389-2.359,1.854,1.854,0,0,0-1.365-1.758,2.781,2.781,0,0,0,.9-2.627,8.2,8.2,0,0,0-1.08-2.692l-2.066-3.776a5.34,5.34,0,0,0,3.407-4.34,3.056,3.056,0,0,0,3.86-2.443,3.982,3.982,0,0,0,5.375.791c.152,1.116,2.361,1.457,3.485,1.387a3.931,3.931,0,0,0,2.172-1.232,6.317,6.317,0,0,0,2.3.048h0c.038-.009.075-.018.112-.029,1.478-.342,2.439-2.11,2.709-3.6a2.833,2.833,0,0,0,1.054-.484A3.079,3.079,0,0,0,224.352,118.2Z" transform="translate(-189.907 -112.085)" fill="#263238"/></g><g transform="translate(6.757 41.195)"><g transform="translate(0 27.035)"><path d="M172.6,253.9s-3.248,11.761-3.966,14.633-.71,9.543.9,11.517,7,3.231,7,3.231,10.546-5.15,14.136-11.433,13.408-23.37,13.408-23.37l-3.111-8.533L184.63,255.558l.169-2.029Z" transform="translate(-168.182 -239.95)" fill="#886962"/></g><g transform="translate(37.939)"><path d="M239.908,189.411h0a1.148,1.148,0,0,1,1.546.508l9.408,18.736-2.415,1.073-9.053-18.8A1.148,1.148,0,0,1,239.908,189.411Z" transform="translate(-239.28 -189.286)" fill="#455a64"/></g><g transform="translate(32.272 18.502)"><path d="M228.66,233.03l8.8-9.071h8.43l5.4,7.127s-2.559.478-3.475-.9l-1.191-1.7s1.191,2.612.55,3.894c0,0-1.264,2.98-1.466,3.3a1.426,1.426,0,0,1-1.775.8c-1.1-.183-2.806-1.075-2.623-1.717a1.058,1.058,0,0,1,.825-.733l-2.566-.367s-2.584,4.68-4.142,5.78a12.189,12.189,0,0,1-3.129,1.573Z" transform="translate(-228.66 -223.959)" fill="#886962"/></g><g transform="translate(6.213 42.369)"><path d="M190.389,268.688c.02.043-.711.382-1.83,1.035a25.19,25.19,0,0,0-7.5,6.686c-.776,1.037-1.2,1.724-1.237,1.7a2.23,2.23,0,0,1,.251-.509c.174-.321.455-.769.827-1.306a21.973,21.973,0,0,1,7.558-6.742c.576-.307,1.053-.535,1.392-.672A2.211,2.211,0,0,1,190.389,268.688Z" transform="translate(-179.824 -268.685)" fill="#654742"/></g><g transform="translate(43.001 20.593)"><path d="M248.767,228.422a5.591,5.591,0,0,1,1.235-.209c.766-.093,1.827-.2,3-.308a3.7,3.7,0,0,1,.889,0,1.88,1.88,0,0,1,.791.318,2.788,2.788,0,0,1,.892,1.076,3.511,3.511,0,0,1,.395,1.2c-.046.02-.2-.442-.568-1.1a2.774,2.774,0,0,0-.861-.956,1.669,1.669,0,0,0-.687-.261,3.674,3.674,0,0,0-.826.009c-1.172.1-2.236.183-3.006.227A5.65,5.65,0,0,1,248.767,228.422Z" transform="translate(-248.767 -227.877)" fill="#654742"/></g><g transform="translate(42.965 23.487)"><path d="M255.45,239.586c-.046,0,.036-.64-.02-1.66a10.987,10.987,0,0,0-.244-1.771,2.547,2.547,0,0,0-.991-1.782,3.7,3.7,0,0,0-1.037-.367l-1.038-.236a12.911,12.911,0,0,0-1.77-.272,14.255,14.255,0,0,0-1.651.042,1.17,1.17,0,0,1,.431-.137,5.5,5.5,0,0,1,1.229-.1,10.931,10.931,0,0,1,1.812.218c.337.065.686.141,1.049.222a3.812,3.812,0,0,1,1.118.393,1.963,1.963,0,0,1,.789.917,4.888,4.888,0,0,1,.311,1.051,9.665,9.665,0,0,1,.19,1.817,8.307,8.307,0,0,1-.075,1.226A1.293,1.293,0,0,1,255.45,239.586Z" transform="translate(-248.698 -233.3)" fill="#654742"/></g><g transform="translate(44.815 26.728)"><path d="M254.015,239.375a5.827,5.827,0,0,1,.133,1.689v.164l-.168-.03a1.546,1.546,0,0,0-.281-.027,1.683,1.683,0,0,0-1.165.514c-.237.247-.314.461-.356.447s-.022-.255.206-.574a1.679,1.679,0,0,1,1.315-.666,1.62,1.62,0,0,1,.342.037l-.167.133A5.856,5.856,0,0,1,254.015,239.375Z" transform="translate(-252.166 -239.375)" fill="#654742"/></g><g transform="translate(43.256 26.639)"><path d="M252.661,239.578a165.9,165.9,0,0,1-3.417-.182,5.573,5.573,0,0,1,3.417.182Z" transform="translate(-249.244 -239.208)" fill="#654742"/></g><g transform="translate(42.014 26.569)"><path d="M248.3,239.077a4.915,4.915,0,0,1-1.372,3.274c-.066-.047.363-.719.735-1.616S248.216,239.063,248.3,239.077Z" transform="translate(-246.917 -239.077)" fill="#654742"/></g></g><g transform="translate(0 97.693)"><g transform="translate(83.094 72.649)"><path d="M312,431.307l-.761,24.157,30.05,1.1c-.07-2.877-15.406-9.21-15.406-9.21l1.123-15.458Z" transform="translate(-311.238 -431.307)" fill="#ff725e"/><g transform="translate(4.482 14.364)" opacity="0.6"><path d="M320.556,458.267a1.227,1.227,0,0,0-.9,1.369,1.18,1.18,0,0,0,1.349.9,1.3,1.3,0,0,0,.945-1.455,1.224,1.224,0,0,0-1.508-.784" transform="translate(-319.637 -458.225)" fill="#fff"/></g><g transform="translate(0 21.726)" opacity="0.6"><path d="M311.238,474.453l.172-2.432,28.748,1.964s1.316.631,1.131,1.568Z" transform="translate(-311.238 -472.021)" fill="#fff"/></g><g transform="translate(12.339 15.759)"><path d="M337.159,460.994c-.01.146-.746.186-1.486.631-.751.426-1.146,1.048-1.279.985-.134-.034.117-.9,1.021-1.426S337.2,460.86,337.159,460.994Z" transform="translate(-334.361 -460.839)" fill="#263238"/></g><g transform="translate(16.177 17.266)"><path d="M343.618,463.73c.028.144-.617.37-1.138.972-.539.587-.689,1.253-.835,1.242-.139.018-.209-.845.454-1.582S343.62,463.59,343.618,463.73Z" transform="translate(-341.553 -463.664)" fill="#263238"/></g><g transform="translate(19.737 18.678)"><path d="M348.382,468.8c-.135.027-.312-.715.094-1.5s1.1-1.085,1.162-.961c.078.124-.383.539-.707,1.192S348.528,468.793,348.382,468.8Z" transform="translate(-348.225 -466.31)" fill="#263238"/></g><g transform="translate(11.872 11.78)"><path d="M336.617,453.965c-.066.132-.732-.1-1.563-.069-.832.009-1.488.264-1.559.135-.081-.109.569-.629,1.549-.646S336.693,453.853,336.617,453.965Z" transform="translate(-333.487 -453.383)" fill="#263238"/></g><g transform="translate(9.911 6.21)"><path d="M334.318,445.505a2.827,2.827,0,0,1-1.5-.063,6.74,6.74,0,0,1-1.557-.542,7.156,7.156,0,0,1-.848-.49,1.867,1.867,0,0,1-.441-.371.639.639,0,0,1-.038-.783.8.8,0,0,1,.655-.312,1.973,1.973,0,0,1,.561.1,5.316,5.316,0,0,1,2.278,1.317c.674.671.892,1.228.84,1.255-.068.046-.391-.426-1.081-.985a6.025,6.025,0,0,0-1.315-.806,5.622,5.622,0,0,0-.854-.3c-.315-.095-.586-.107-.672.031-.032.053-.036.074.027.17a1.5,1.5,0,0,0,.325.271,7.941,7.941,0,0,0,.778.483,8.319,8.319,0,0,0,1.434.611A10.393,10.393,0,0,1,334.318,445.505Z" transform="translate(-329.812 -442.945)" fill="#263238"/></g><g transform="translate(13.874 4.241)"><path d="M337.582,443.988a2.4,2.4,0,0,1-.344-1.468,4.874,4.874,0,0,1,.682-2.539,1.245,1.245,0,0,1,.988-.725.7.7,0,0,1,.613.442,2.037,2.037,0,0,1,.134.558,3.322,3.322,0,0,1-.036,1.013,3.454,3.454,0,0,1-.7,1.531c-.616.757-1.234.91-1.245.86-.046-.075.476-.34.953-1.071a3.469,3.469,0,0,0,.528-1.4,3.1,3.1,0,0,0,0-.87c-.035-.321-.146-.583-.266-.555-.149-.008-.413.223-.545.473a5.037,5.037,0,0,0-.4.8,5.4,5.4,0,0,0-.347,1.491C337.527,443.413,337.663,443.968,337.582,443.988Z" transform="translate(-337.238 -439.255)" fill="#263238"/></g></g><g transform="translate(17.786 72.825)"><g transform="translate(0.076)"><path d="M209.908,431.637l7.609,22.941-28.493,9.613c-.751-2.778,12.146-13.216,12.146-13.216l-5.479-14.5Z" transform="translate(-188.993 -431.637)" fill="#ff725e"/></g><g transform="translate(19.542 15.121)" opacity="0.6"><path d="M226.578,459.983a1.227,1.227,0,0,1,1.252,1.057,1.181,1.181,0,0,1-1.036,1.251,1.3,1.3,0,0,1-1.32-1.126c.007-.6.627-1.281,1.222-1.181" transform="translate(-225.474 -459.974)" fill="#fff"/></g><g transform="translate(0 20.658)" opacity="0.6"><path d="M217.451,472.633l-.858-2.282-27,10.07s-1.082.98-.638,1.825Z" transform="translate(-188.851 -470.351)" fill="#fff"/></g><g transform="translate(11.737 18.958)"><path d="M210.852,467.555c.051.138.768-.034,1.6.182.841.194,1.4.678,1.506.58.12-.07-.369-.832-1.385-1.076S210.778,467.438,210.852,467.555Z" transform="translate(-210.847 -467.165)" fill="#263238"/></g><g transform="translate(9.169 21.432)"><path d="M206.036,471.962c.013.146.7.179,1.367.608.684.409,1.018,1.005,1.154.953.138-.022-.041-.869-.885-1.387S205.994,471.828,206.036,471.962Z" transform="translate(-206.034 -471.801)" fill="#263238"/></g><g transform="translate(6.772 23.682)"><path d="M203.449,478.077c.137-.013.1-.774-.519-1.415s-1.367-.725-1.387-.589c-.039.141.521.407,1.017.942S203.307,478.11,203.449,478.077Z" transform="translate(-201.541 -476.017)" fill="#263238"/></g><g transform="translate(10.846 14.799)"><path d="M209.191,460.477c.1.107.674-.3,1.479-.512.8-.228,1.5-.171,1.533-.314.046-.128-.725-.441-1.669-.179S209.086,460.391,209.191,460.477Z" transform="translate(-209.177 -459.37)" fill="#263238"/></g><g transform="translate(10.397 8.741)"><path d="M208.336,451.573a2.825,2.825,0,0,0,1.425-.489,6.771,6.771,0,0,0,1.338-.962,7.126,7.126,0,0,0,.673-.711,1.844,1.844,0,0,0,.318-.481.64.64,0,0,0-.186-.761.806.806,0,0,0-.717-.113,1.975,1.975,0,0,0-.511.255,5.368,5.368,0,0,0-.784.6,5.314,5.314,0,0,0-1.024,1.307,2.5,2.5,0,0,0-.448,1.442c.078.025.253-.519.755-1.252a6.024,6.024,0,0,1,1.031-1.146,5.59,5.59,0,0,1,.734-.529c.275-.181.531-.27.654-.162.045.042.055.06.022.17a1.489,1.489,0,0,1-.234.352,7.792,7.792,0,0,1-.608.685,8.316,8.316,0,0,1-1.2.994A10.389,10.389,0,0,0,208.336,451.573Z" transform="translate(-208.335 -448.018)" fill="#263238"/></g><g transform="translate(7.554 8.249)"><path d="M206.1,451.281a2.4,2.4,0,0,0-.089-1.5,4.876,4.876,0,0,0-1.378-2.241,1.243,1.243,0,0,0-1.153-.413.7.7,0,0,0-.462.6,2.043,2.043,0,0,0,.03.573,3.342,3.342,0,0,0,.323.962,3.467,3.467,0,0,0,1.107,1.268c.806.55,1.442.521,1.438.47a12.308,12.308,0,0,1-1.218-.756,3.471,3.471,0,0,1-.9-1.188,3.084,3.084,0,0,1-.252-.834c-.058-.318-.027-.6.1-.608.141-.05.459.1.657.3a5.02,5.02,0,0,1,.615.654,5.425,5.425,0,0,1,.757,1.331C205.99,450.714,206.017,451.286,206.1,451.281Z" transform="translate(-203.008 -447.095)" fill="#263238"/></g></g><path d="M187.437,313.493s-11.163-9.9-16.062-9.817-20.968-.983-14.229,21.279c6.8,22.449,18.958,56.775,19.29,55.543l20.935-9.2-8.505-31.929s28.535.32,34.046-.4,15.818-7.98,15.818-7.98l-1.639,40.345,21.877-1.218s3.072-48.463,3.957-58.424c.77-8.672-8.975-18.4-18.913-16.21-6.492,1.434-29.7,17.815-29.7,17.815Z" transform="translate(-155.519 -295.163)" fill="#263238"/><g transform="translate(82.927 14.367)"><path d="M311.96,322.086a5.88,5.88,0,0,1-.025,1.058c-.038.745-.088,1.711-.148,2.872-.113,2.425-.19,5.779-.249,9.486s-.129,7.067-.258,9.5c-.059,1.215-.132,2.2-.2,2.874a5.83,5.83,0,0,1-.139,1.049,5.763,5.763,0,0,1,0-1.058c.02-.747.047-1.713.079-2.875.04-2.5.092-5.819.15-9.493.058-3.709.177-7.068.356-9.495.086-1.213.179-2.194.265-2.87A5.886,5.886,0,0,1,311.96,322.086Z" transform="translate(-310.926 -322.086)" fill="#455a64"/></g><g transform="translate(79.957 23.678)"><path d="M308.478,349.116a4.479,4.479,0,0,1-.965-1.165,13.005,13.005,0,0,1-2.152-6.909,4.475,4.475,0,0,1,.133-1.507,17.811,17.811,0,0,0,2.985,9.58Z" transform="translate(-305.36 -339.536)" fill="#455a64"/></g><g transform="translate(26.551 14.366)"><path d="M232.029,349.152c-.035,0-.082-.552-.25-1.538a19.881,19.881,0,0,0-1.148-4.062,20.724,20.724,0,0,0-3.163-5.373,19.979,19.979,0,0,0-5.854-4.86c-4.747-2.749-8.923-5.443-11.837-7.551-1.457-1.052-2.6-1.952-3.361-2.614-.386-.322-.666-.595-.859-.776a1.652,1.652,0,0,1-.279-.293c.021-.023.441.34,1.229.959s1.948,1.49,3.42,2.512c2.943,2.046,7.133,4.7,11.87,7.444a20.59,20.59,0,0,1,3.317,2.277,20.97,20.97,0,0,1,2.617,2.687,20.346,20.346,0,0,1,3.141,5.492,18.129,18.129,0,0,1,1.047,4.134,11.265,11.265,0,0,1,.105,1.155A1.658,1.658,0,0,1,232.029,349.152Z" transform="translate(-205.277 -322.084)" fill="#455a64"/></g><g transform="translate(56.415 17.796)"><path d="M265.851,328.513a5.333,5.333,0,0,1-.363.934c-.261.588-.613,1.45-1.018,2.525a45.38,45.38,0,0,0-2.9,17.585c.038,1.148.1,2.077.154,2.718a5.29,5.29,0,0,1,.044,1,5.245,5.245,0,0,1-.186-.986c-.1-.638-.2-1.568-.272-2.722a40.8,40.8,0,0,1,2.915-17.691c.438-1.069.829-1.92,1.13-2.491A5.175,5.175,0,0,1,265.851,328.513Z" transform="translate(-261.242 -328.512)" fill="#455a64"/></g><g transform="translate(19.052 14.892)"><path d="M191.224,323.072a1.921,1.921,0,0,1,.3.2l.839.61.6.447c.216.17.427.38.666.593a16.277,16.277,0,0,1,1.554,1.523l.848.942c.273.346.542.718.828,1.1l.434.58c.14.2.266.417.4.63.265.43.554.864.82,1.327a40.371,40.371,0,0,1,2.809,6.336c.826,2.318,1.448,4.577,2.01,6.629l1.455,5.459c.425,1.55.767,2.805,1.026,3.666.117.413.211.744.282,1a1.891,1.891,0,0,1,.082.353,1.967,1.967,0,0,1-.131-.337l-.329-.982c-.289-.853-.659-2.1-1.106-3.647l-1.509-5.444c-.573-2.046-1.2-4.3-2.023-6.606a41.584,41.584,0,0,0-2.773-6.3c-.261-.46-.544-.892-.8-1.321-.134-.212-.257-.427-.394-.628l-.425-.578c-.28-.378-.543-.75-.809-1.1l-.829-.945a17.021,17.021,0,0,0-1.515-1.539c-.234-.217-.439-.432-.649-.606l-.586-.462-.807-.648A1.96,1.96,0,0,1,191.224,323.072Z" transform="translate(-191.224 -323.071)" fill="#455a64"/></g><g transform="translate(31.686 12.067)"><path d="M214.9,323.838c3.983,2.629,8.369,3.248,13.056,4.144,2.7.517,5.535.987,8.176.207,5.66-1.672,11.132-8.114,14.768-10.412l-15.183,3.846Z" transform="translate(-214.9 -317.776)" fill="#ff725e"/></g></g></g></g><g transform="translate(55.789 46.728)"><circle cx="20.171" cy="20.171" r="20.171" transform="translate(0 15.854) rotate(-23.141)" fill="#fafafa"/><g transform="translate(2.187 2.199)"><circle cx="20.234" cy="20.234" r="20.234" transform="translate(0 39.425) rotate(-76.965)" fill="#fff"/></g><g transform="translate(6.07 6.102)"><g transform="translate(39.227 30.388)"><path d="M159.158,167.207c.006.02-.213.061-.551.251a2.669,2.669,0,0,0-1.081,1.188,2.541,2.541,0,0,0-.244,1.08,2.206,2.206,0,0,0,.371,1.2,2.414,2.414,0,0,0,4.452-.824,2.21,2.21,0,0,0-.082-1.252,2.543,2.543,0,0,0-.615-.921,2.674,2.674,0,0,0-1.434-.723c-.384-.056-.6-.016-.6-.037a.5.5,0,0,1,.156-.032.955.955,0,0,1,.193-.014,1.56,1.56,0,0,1,.264.01,2.709,2.709,0,0,1,2.185,1.661,2.347,2.347,0,0,1,.106,1.343,2.747,2.747,0,0,1-.686,1.32,2.432,2.432,0,0,1-2.968.549,2.748,2.748,0,0,1-1.113-.987,2.348,2.348,0,0,1-.381-1.292,2.709,2.709,0,0,1,1.446-2.333,1.518,1.518,0,0,1,.243-.1.989.989,0,0,1,.185-.056A.526.526,0,0,1,159.158,167.207Z" transform="translate(-157.126 -167.121)" fill="#263238"/></g><path d="M113.526,121.276s-.017-.111-.041-.327-.058-.541-.1-.96q-.033-.317-.073-.707c-.039-.258-.107-.537-.165-.842s-.129-.63-.2-.98a3.5,3.5,0,0,0-.14-.534c-.056-.181-.114-.368-.174-.56a19.342,19.342,0,0,0-2.488-5.282,20.183,20.183,0,0,0-5.4-5.5l-.9-.611c-.316-.187-.648-.357-.976-.539l-.5-.271a3.987,3.987,0,0,0-.514-.254l-1.071-.455c-.181-.076-.361-.157-.545-.229l-.569-.179-1.156-.362c-.392-.11-.8-.174-1.2-.264l-.612-.127c-.1-.02-.2-.046-.309-.061l-.314-.033a18.788,18.788,0,0,0-2.567-.179c-.436.005-.877-.018-1.319.009l-1.333.13c-.223.026-.45.034-.672.074l-.669.134c-.446.095-.9.169-1.348.283a21.34,21.34,0,0,0-2.656.913l-.658.276c-.11.047-.222.09-.33.141l-.317.171-1.275.689c-.416.251-.812.539-1.223.808-.2.142-.416.264-.606.423l-.574.472a22.78,22.78,0,0,0-2.2,2.051l-.974,1.177-.245.3c-.075.1-.145.212-.218.318l-.434.639-.435.643-.376.683-.375.687-.189.344c-.055.119-.1.241-.156.361L74.3,115.2l-.479,1.52a20.02,20.02,0,0,0,.583,12.735l.616,1.47.751,1.392.189.345.219.326.436.65.437.646.493.6.491.6.246.3.271.272,1.078,1.083a22.779,22.779,0,0,0,2.379,1.841l.615.418c.2.14.43.243.642.365.434.231.855.481,1.292.693l1.333.569.331.142c.112.041.228.073.341.11l.681.215a21.4,21.4,0,0,0,2.729.666c.456.073.915.1,1.368.158l.678.073c.226.019.452.007.677.013l1.339.007c.443-.014.88-.076,1.314-.111a18.724,18.724,0,0,0,2.54-.414l.31-.061c.1-.025.2-.06.3-.089l.6-.183c.395-.127.8-.228,1.175-.373l1.117-.467.551-.23.522-.277,1.025-.552a3.917,3.917,0,0,0,.488-.3l.471-.316c.311-.212.626-.411.923-.627l.844-.691a20.182,20.182,0,0,0,4.873-5.972c.136-.251.276-.494.4-.739l.32-.746.308-.718c.048-.118.1-.232.145-.35l.112-.354.426-1.339c.123-.429.189-.85.279-1.242l.122-.574a3.485,3.485,0,0,0,.091-.544l.109-.994c.031-.308.073-.592.088-.853s.005-.5.007-.711q.009-.631.014-.965c0-.217.011-.329.011-.329s.006.111.008.329,0,.545.005.967c0,.213,0,.45,0,.712s-.051.547-.079.856-.065.643-.1,1a3.5,3.5,0,0,1-.087.547l-.118.577c-.088.394-.152.818-.273,1.249s-.273.878-.42,1.346c-.036.118-.074.236-.111.356s-.1.233-.144.352l-.306.723-.318.751c-.126.246-.265.492-.4.745a20.226,20.226,0,0,1-4.88,6.024l-.847.7c-.3.218-.615.419-.927.633l-.474.319a4.061,4.061,0,0,1-.491.3l-1.031.559c-.174.093-.347.19-.525.281l-.555.233-1.125.473c-.382.148-.785.25-1.183.379l-.6.185c-.1.03-.2.065-.3.09l-.312.063a18.935,18.935,0,0,1-2.559.422c-.438.036-.878.1-1.324.115l-1.35-.005c-.226-.005-.455.007-.682-.012l-.684-.072c-.457-.054-.92-.085-1.38-.157a21.6,21.6,0,0,1-2.753-.668l-.687-.216c-.115-.037-.231-.07-.345-.111l-.334-.142-1.346-.573c-.441-.213-.866-.465-1.3-.7-.215-.124-.443-.227-.648-.368l-.621-.421a22.836,22.836,0,0,1-2.4-1.855l-1.089-1.092-.273-.275-.249-.3-.5-.6-.5-.605-.441-.651-.441-.656-.221-.329-.191-.348-.758-1.4-.622-1.483a20.188,20.188,0,0,1-.589-12.854l.484-1.534.626-1.468c.053-.122.1-.245.158-.364l.19-.348.379-.693.38-.688.44-.648.438-.645c.074-.107.144-.216.22-.32l.248-.3.984-1.187a22.9,22.9,0,0,1,2.221-2.067l.58-.476c.192-.159.409-.283.611-.426.414-.271.815-.561,1.234-.814L84.123,104l.319-.172c.109-.051.222-.095.333-.142l.664-.278a21.541,21.541,0,0,1,2.679-.917c.452-.115.91-.188,1.36-.283l.674-.134c.224-.04.453-.048.678-.074l1.344-.129c.445-.027.889,0,1.329-.007a18.914,18.914,0,0,1,2.586.186l.317.034c.1.016.208.042.311.062l.616.129c.408.092.819.157,1.213.269l1.164.368.573.181c.185.073.366.155.548.231l1.078.461a3.943,3.943,0,0,1,.516.257l.5.275c.331.184.664.356.981.546l.907.617a20.22,20.22,0,0,1,5.412,5.552,19.251,19.251,0,0,1,2.471,5.318l.17.564a3.5,3.5,0,0,1,.136.536l.193.985c.056.306.121.586.157.845s.045.5.064.71q.054.63.084.963C113.522,121.165,113.526,121.276,113.526,121.276Z" transform="translate(-72.874 -101.853)" fill="#263238"/></g><g transform="translate(19.079 17.225)"><path d="M115.622,133.147a7.4,7.4,0,1,0-10.559,6.7v1.867h6.489s.04-1.048.054-1.984A7.4,7.4,0,0,0,115.622,133.147Z" transform="translate(-100.814 -125.744)" fill="#ff725e"/><g transform="translate(3.438 7.431)"><path d="M113.151,150.212s0-.031.007-.091.017-.153.03-.267c.029-.234.07-.58.136-1.024s.153-.987.294-1.61a11,11,0,0,1,.672-2.06,7.025,7.025,0,0,1,.609-1.108,1.366,1.366,0,0,1,.506-.454.765.765,0,0,1,.7.023.5.5,0,0,1,.234.293.518.518,0,0,1-.031.38,1.054,1.054,0,0,1-.572.493,2.024,2.024,0,0,1-1.539-.109,2.052,2.052,0,0,1-1.046-1.235,1.554,1.554,0,0,1-.044-.854.666.666,0,0,1,.673-.514.48.48,0,0,1,.377.261.672.672,0,0,1,.06.457,1.447,1.447,0,0,1-.521.736,2.208,2.208,0,0,1-1.725.5,1.924,1.924,0,0,1-1.432-1.067,1.119,1.119,0,0,1-.05-.9.565.565,0,0,1,.325-.327.555.555,0,0,1,.456.041.741.741,0,0,1,.312.325,1.159,1.159,0,0,1,.113.426,2.133,2.133,0,0,1-.113.846,2.2,2.2,0,0,1-1.043,1.241,2.245,2.245,0,0,1-1.532.211,1.173,1.173,0,0,1-.666-.353.574.574,0,0,1-.041-.713.484.484,0,0,1,.333-.163.693.693,0,0,1,.353.068,1.07,1.07,0,0,1,.453.508c.186.4.335.792.487,1.164.592,1.492,1.012,2.722,1.293,3.574.141.426.244.758.314.984l.077.257c.017.058.023.088.023.088s-.012-.028-.032-.086l-.086-.255c-.076-.228-.188-.557-.33-.979-.291-.848-.72-2.074-1.319-3.561-.152-.37-.306-.764-.49-1.157a1,1,0,0,0-.422-.474.444.444,0,0,0-.554.692,1.1,1.1,0,0,0,.624.325,2.164,2.164,0,0,0,1.475-.206,2.12,2.12,0,0,0,1-1.2,2.041,2.041,0,0,0,.107-.811.8.8,0,0,0-.379-.68.465.465,0,0,0-.383-.037.475.475,0,0,0-.272.278,1.027,1.027,0,0,0,.049.824,1.834,1.834,0,0,0,1.364,1.015,2.118,2.118,0,0,0,1.653-.48,1.363,1.363,0,0,0,.491-.685.582.582,0,0,0-.051-.4.387.387,0,0,0-.307-.215.519.519,0,0,0-.368.119.64.64,0,0,0-.211.331,1.465,1.465,0,0,0,.042.8,1.969,1.969,0,0,0,1,1.186,1.95,1.95,0,0,0,1.473.109.975.975,0,0,0,.53-.451.437.437,0,0,0-.171-.575.69.69,0,0,0-.633-.021,1.294,1.294,0,0,0-.48.43,7.017,7.017,0,0,0-.607,1.093,11.062,11.062,0,0,0-.681,2.045c-.145.619-.237,1.161-.309,1.6s-.117.785-.153,1.022l-.039.266C113.158,150.182,113.151,150.212,113.151,150.212Z" transform="translate(-108.197 -141.704)" fill="#263238"/></g><g transform="translate(4.249 16.335)"><path d="M115.93,161.664h-5.572a.418.418,0,0,1-.418-.418h0a.418.418,0,0,1,.418-.419h5.572a.418.418,0,0,1,.418.418h0A.418.418,0,0,1,115.93,161.664Z" transform="translate(-109.94 -160.828)" fill="#263238"/></g><g transform="translate(4.249 17.536)"><path d="M115.93,163.409h-5.572a.418.418,0,0,0,0,.836h.612l.811,1.544a.538.538,0,0,0,.476.287h1.991a.536.536,0,0,0,.478-.292l.789-1.539h.416a.418.418,0,0,0,0-.836Z" transform="translate(-109.94 -163.409)" fill="#263238"/></g><g transform="translate(0.824 1.357)" opacity="0.2"><path d="M104.407,129.988a5.457,5.457,0,0,1,1.482-.986,3.941,3.941,0,0,1,1.141-.331c.28-.029.44,0,.453.057.032.135-.529.334-1.285.839a6.09,6.09,0,0,0-2.775,5.979c.1.9.312,1.461.189,1.523-.054.027-.177-.077-.336-.31a3.94,3.94,0,0,1-.483-1.085,5.453,5.453,0,0,1-.2-1.769,5.767,5.767,0,0,1,.518-2.14" transform="translate(-102.583 -128.659)" fill="#fff"/></g><g transform="translate(6.57 0.836)" opacity="0.2"><path d="M115.86,128.448c-.469,0-.884-.132-.932-.381-.02-.123.066-.255.236-.357a1.487,1.487,0,0,1,1.4.007c.169.1.254.237.232.359" transform="translate(-114.926 -127.539)" fill="#fff"/></g><g transform="translate(6.29 19.715)"><path d="M116.965,168.417c-.007.013-.147-.05-.383-.118a3.107,3.107,0,0,0-1.882.054c-.231.081-.368.153-.375.14a1.146,1.146,0,0,1,.352-.2,2.709,2.709,0,0,1,1.924-.055A1.132,1.132,0,0,1,116.965,168.417Z" transform="translate(-114.325 -168.088)" fill="#455a64"/></g><g transform="translate(5.336 18.346)"><path d="M116.773,165.194c0,.025-1.007.045-2.249.045s-2.25-.02-2.25-.045,1.007-.046,2.25-.046S116.773,165.168,116.773,165.194Z" transform="translate(-112.274 -165.148)" fill="#455a64"/></g><g transform="translate(5.729 19.041)"><path d="M116.876,166.652a3.16,3.16,0,0,1-.548.056c-.339.021-.809.041-1.329.048s-.989,0-1.33-.011a3.18,3.18,0,0,1-.55-.04,3.5,3.5,0,0,1,.551-.024l1.328-.016,1.327-.021A3.489,3.489,0,0,1,116.876,166.652Z" transform="translate(-113.119 -166.641)" fill="#455a64"/></g></g></g><g transform="translate(82.265 139.378)"><g transform="translate(0.112 0.106)"><path d="M139.011,223.07l-17.062-4.044a1.237,1.237,0,0,1-.778-1.48l2.8-11.105a1.232,1.232,0,0,1,1.345-.986l17.1,4.163c.6.147.733.752.586,1.349l-2.954,11.475A.857.857,0,0,1,139.011,223.07Z" transform="translate(-121.135 -205.43)" fill="#fafafa"/></g><path d="M138.712,222.9a1.25,1.25,0,0,0,.643-.068,1.152,1.152,0,0,0,.568-.518,1.847,1.847,0,0,0,.155-.477l.138-.567,1.676-6.779q.267-1.073.559-2.245.147-.585.3-1.194a3.506,3.506,0,0,0,.124-.6,1.049,1.049,0,0,0-.145-.567.988.988,0,0,0-.441-.393,5.137,5.137,0,0,0-.627-.166l-1.328-.312-2.772-.653-12.341-2.919a1.033,1.033,0,0,0-1.2.691l-.407,1.6-.793,3.137-1.5,5.929-.179.7a1.086,1.086,0,0,0,0,.651.992.992,0,0,0,.379.507,1.724,1.724,0,0,0,.622.215l2.613.625,4.689,1.126,6.786,1.645,1.842.458.478.124a1.042,1.042,0,0,1,.161.049.92.92,0,0,1-.166-.028l-.483-.1-1.852-.419-6.8-1.578-4.695-1.1-2.615-.615a1.883,1.883,0,0,1-.686-.241,1.183,1.183,0,0,1-.455-.6,1.285,1.285,0,0,1-.01-.761q.088-.35.177-.7l1.491-5.933.79-3.138.411-1.611a1.25,1.25,0,0,1,1.452-.833l12.337,2.935,2.77.662,1.327.318a5.111,5.111,0,0,1,.659.179,1.166,1.166,0,0,1,.521.467,1.223,1.223,0,0,1,.167.665,3.566,3.566,0,0,1-.133.636l-.3,1.193-.573,2.242-1.742,6.762-.148.565a1.9,1.9,0,0,1-.17.49,1.188,1.188,0,0,1-.609.527,1.086,1.086,0,0,1-.493.063A.612.612,0,0,1,138.712,222.9Z" transform="translate(-120.895 -205.202)" fill="#455a64"/><g transform="translate(8.706 6.003)"><path d="M142.959,220.026l1.958,1.931-2.662.816-2.661.816.7-2.747.7-2.747Z" transform="translate(-139.594 -218.095)" fill="#455a64"/></g></g><g transform="translate(236.905 153.232)"><g transform="translate(0 0.384)"><g transform="translate(0.707 1.243)"><path d="M339.977,198.521l-5.7,18.52c1.573,1.932,3.261,3.776,6.181,4.689l14.1,3.877,5.47-21.887Z" transform="translate(-334.274 -198.521)" fill="#e0e0e0"/></g><path d="M338.459,195.851l-5.7,18.52,6.182,4.689,14.1,3.878,6.251-20.915Z" transform="translate(-332.756 -195.851)" fill="#ff725e"/><g transform="translate(0 17.766)"><path d="M335.523,234.008l-2.767.755a8.336,8.336,0,0,0,2.141,2.65,12.045,12.045,0,0,0,4.04,2.039A8.007,8.007,0,0,1,335.523,234.008Z" transform="translate(-332.756 -234.008)" fill="#ff725e"/></g><g transform="translate(0 17.766)" opacity="0.3"><path d="M335.523,234.008c-1.1.595-2.314,1.343-2.767.755a8.336,8.336,0,0,0,2.141,2.65,12.045,12.045,0,0,0,4.04,2.039A8.007,8.007,0,0,1,335.523,234.008Z" transform="translate(-332.756 -234.008)"/></g></g><g transform="translate(2.563)"><path d="M338.838,199.26l10.085-2.111-.43-2.122-10.233,1.952Z" transform="translate(-338.26 -195.027)" fill="#e0e0e0"/></g><g transform="translate(20.329 3.155)"><path d="M383.832,210.461l-5.588-8.657-1.827,1.163,5.492,8.852Z" transform="translate(-376.418 -201.804)" fill="#e0e0e0"/></g><g transform="translate(6.413 7.797)"><path d="M362.366,216.457c-.01.034-3.564-.986-7.936-2.28s-7.91-2.37-7.9-2.4,3.563.986,7.937,2.28S362.376,216.423,362.366,216.457Z" transform="translate(-346.53 -211.772)" fill="#263238"/></g><g transform="translate(5.498 10.632)"><path d="M360.4,222.547c-.01.034-3.564-.986-7.936-2.28s-7.91-2.37-7.9-2.4,3.563.986,7.937,2.28S360.411,222.513,360.4,222.547Z" transform="translate(-344.565 -217.862)" fill="#263238"/></g><g transform="translate(4.838 13.19)"><path d="M358.983,228.041c-.01.034-3.564-.986-7.936-2.28s-7.91-2.37-7.9-2.4,3.563.986,7.937,2.28S358.993,228.007,358.983,228.041Z" transform="translate(-343.147 -223.356)" fill="#263238"/></g><g transform="translate(4.1 15.623)"><path d="M357.4,233.266c-.01.034-3.564-.986-7.936-2.28s-7.91-2.37-7.9-2.4,3.563.986,7.937,2.28S357.408,233.232,357.4,233.266Z" transform="translate(-341.562 -228.581)" fill="#263238"/></g></g><g transform="translate(232.113 81.504)"><g transform="translate(0)"><g transform="translate(1.426)"><g transform="translate(23.341)"><g transform="translate(0.055 0.049)"><rect width="14.886" height="18.619" transform="matrix(0.019, -1, 1, 0.019, 0, 14.883)" fill="#ebebeb"/></g><path d="M234.22,38.633s-.032,0-.09,0l-.261,0-1.012-.014-3.811-.06L215.6,38.326l.049-.047c-.083,4.43-.178,9.508-.278,14.882h0l-.053-.055,18.616.364-.046.044c.095-4.481.174-8.2.229-10.794.03-1.3.053-2.319.069-3.017.009-.347.016-.613.02-.8s.01-.276.01-.276,0,.089,0,.266-.006.445-.01.788c-.01.7-.026,1.712-.046,3.007-.044,2.6-.107,6.329-.183,10.823v.045h-.045l-18.616-.346h-.054v-.056c.1-5.373.2-10.452.29-14.881v-.048h.048l13.473.281,3.8.085,1,.025.256.007Z" transform="translate(-215.265 -38.228)" fill="#263238"/><g transform="translate(0.715 0.998)"><rect width="13.012" height="17.311" transform="translate(0 13.009) rotate(-88.907)" fill="#ff725e"/></g><g transform="translate(0.715 6.037)" opacity="0.3"><path d="M216.8,59.164l6.2-7.971,3.648,5.131,2.591-2.656,4.869,5.827Z" transform="translate(-216.8 -51.193)"/></g><g transform="translate(9.542 3.759)" opacity="0.3"><path d="M238.485,47.69a1.363,1.363,0,1,1-1.337-1.388A1.363,1.363,0,0,1,238.485,47.69Z" transform="translate(-235.758 -46.301)"/></g></g><g transform="translate(0 7.285)"><g transform="translate(0.081)"><rect width="28.135" height="22.493" transform="translate(0 3.501) rotate(-7.148)" fill="#ebebeb"/></g><g transform="translate(0 0)"><path d="M193.13,53.874s-.047.008-.135.021l-.391.054-1.515.2-5.713.736-20.153,2.564.064-.081c.835,6.643,1.793,14.257,2.807,22.315v0L168,79.612l27.918-3.487-.059.075c-.828-6.722-1.515-12.294-2-16.191-.237-1.949-.423-3.479-.55-4.526l-.142-1.195c-.031-.271-.045-.415-.045-.415s.022.133.058.4.088.666.156,1.18c.135,1.043.332,2.565.583,4.506.5,3.905,1.211,9.489,2.07,16.225l.008.067-.068.009-27.914,3.515-.081.01-.01-.081v0l-2.79-22.317-.009-.073.072-.009,20.209-2.5,5.7-.7,1.5-.18.384-.044C193.089,53.876,193.13,53.874,193.13,53.874Z" transform="translate(-165.133 -53.874)" fill="#263238"/></g><g transform="translate(1.22 1.53)"><rect width="26.158" height="19.661" transform="matrix(0.992, -0.124, 0.124, 0.992, 0, 3.255)" fill="#ff725e"/></g><g transform="translate(3.667 11.03)" opacity="0.4"><path d="M173.008,90.828l7.544-13.263,6.567,6.882,3.3-4.533,8.543,7.659Z" transform="translate(-173.008 -77.565)"/></g><g transform="translate(14.921 6.738)" opacity="0.4"><path d="M201.284,70.15a2.06,2.06,0,1,1-2.3-1.787A2.06,2.06,0,0,1,201.284,70.15Z" transform="translate(-197.18 -68.346)"/></g></g></g><g transform="translate(0 7.667)"><path d="M167.079,54.694l-5.009,6.536,1.169,1.785,5.884-7.512Z" transform="translate(-162.071 -54.694)" fill="#e0e0e0"/></g><g transform="translate(27.835 24.541)"><path d="M226.865,90.938l-5.009,6.536,1.169,1.785,5.884-7.512Z" transform="translate(-221.856 -90.938)" fill="#e0e0e0"/></g></g></g></g></g></svg>