<svg xmlns="http://www.w3.org/2000/svg" xmlns:xlink="http://www.w3.org/1999/xlink" width="124" height="124" viewBox="0 0 124 124"><defs><clipPath id="a"><rect width="77" height="77" transform="translate(756 1486)" fill="#fff"/></clipPath></defs><g transform="translate(-738.348 -1324.125)"><circle cx="62" cy="62" r="62" transform="translate(738.348 1324.125)" fill="#fff"/><g transform="translate(5.348 -135)" clip-path="url(#a)"><g transform="translate(756 1486.004)"><path d="M55.717,12.116v46a7.666,7.666,0,0,1-7.666,7.666H22.5a7.683,7.683,0,0,1-6.644-3.833v-.013a7.588,7.588,0,0,1-1.022-3.82v-46A7.666,7.666,0,0,1,22.5,4.45H48.051a7.666,7.666,0,0,1,7.64,7.091C55.7,11.732,55.717,11.924,55.717,12.116Z" transform="translate(-4.611 -3.172)" fill="#5aaae7"/><path d="M59.955,16.686V51.809a19.061,19.061,0,0,1-5.558-3.68L45.415,49.8l4.651-7.87a19.165,19.165,0,0,1,9.889-25.247Z" transform="translate(-8.849 -4.868)" fill="#3d9ae2"/><path d="M83.526,34.353A19.165,19.165,0,0,1,61.333,49.9a16.522,16.522,0,0,1-1.789-.409,19.072,19.072,0,0,1-8.113-4.587L42.449,46.58,47.1,38.71a19.161,19.161,0,1,1,36.426-4.357Z" transform="translate(-8.438 -4.2)" fill="#ffd422"/><path d="M60.811,29.664V45a2.563,2.563,0,0,0,2.555,2.555H76.143A2.563,2.563,0,0,0,78.7,45V29.664Z" transform="translate(-10.982 -6.666)" fill="#ebbf00"/><path d="M75.732,41.529v2.555a2.563,2.563,0,0,1-2.555,2.555H60.4a2.563,2.563,0,0,1-2.555-2.555V41.529Z" transform="translate(-10.571 -8.31)" fill="#d1d3d4"/><path d="M57.845,26.7H75.732V39.474H57.845Z" transform="translate(-10.571 -6.255)" fill="#3d9ae2"/><path d="M40.3,63.777a2.555,2.555,0,0,1,0,5.111H35.186a2.555,2.555,0,1,1,0-5.111Z" transform="translate(-7.077 -11.393)" fill="#e6e7e8"/><path d="M33.78,64.754a3.848,3.848,0,0,1-.511,1.917l-.422.741A2.428,2.428,0,0,1,32.63,66.4a2.5,2.5,0,0,1,.754-1.8,2.886,2.886,0,0,1,.371-.319c.013.153.026.319.026.473Z" transform="translate(-7.077 -11.463)" fill="#e6e7e8"/><path d="M32.456,29.676a5.121,5.121,0,1,1-3.616-1.495,5.121,5.121,0,0,1,3.616,1.495Z" transform="translate(-5.842 -6.46)" fill="#3d9ae2"/><path d="M29.489,26.709a5.121,5.121,0,1,1-3.616-1.495A5.121,5.121,0,0,1,29.489,26.709Z" transform="translate(-5.431 -6.049)" fill="#ffd422"/><path d="M27.32,59.256a3.833,3.833,0,0,0-7.155-1.917l-5.749,9.94a7.588,7.588,0,0,1-1.022-3.82V43.042A2.555,2.555,0,0,0,11.426,44.5l-5.8,12.585A12.659,12.659,0,0,0,4.45,62.424V85.18l20.443-.013V79.622a7.7,7.7,0,0,0-1.1-3.948l-2.734-4.548,5.749-9.953a3.848,3.848,0,0,0,.511-1.916Z" transform="translate(-3.172 -8.52)" fill="#ffc477"/><path d="M26.7,8.9h2.555v2.555H26.7Z" transform="translate(-6.255 -3.789)"/><path d="M32.63,8.9H42.852v2.555H32.63Z" transform="translate(-7.077 -3.789)"/><path d="M52.8,57.906a6.4,6.4,0,0,1-6.388,6.388H23.067l4.393-7.607a3.778,3.778,0,0,0-.217,1.219,3.833,3.833,0,0,0,3.833,3.833h5.111a3.833,3.833,0,0,0,0-7.666H31.075a3.823,3.823,0,0,0-3.107,1.606,5.1,5.1,0,0,0-9.11-4.537L14.514,58.67a6.354,6.354,0,0,1-.049-.764v-46a6.4,6.4,0,0,1,6.388-6.388H46.407a6.414,6.414,0,0,1,5.532,3.194l2.212-1.278a8.979,8.979,0,0,0-7.744-4.472H20.854A8.954,8.954,0,0,0,11.91,11.91V36.569a3.833,3.833,0,0,0-1.85,1.841l-5.8,12.581a13.872,13.872,0,0,0-1.294,5.893V79.626H5.522V56.884A11.324,11.324,0,0,1,6.58,52.066L11.91,40.5V57.906a8.909,8.909,0,0,0,1.136,4.358,1.278,1.278,0,0,0,2.276.114l5.749-9.958A2.555,2.555,0,1,1,25.5,54.975l-5.75,9.958a1.278,1.278,0,0,0,.011,1.3L22.5,70.78a6.411,6.411,0,0,1,.914,3.294v5.54h2.555v-5.54a8.958,8.958,0,0,0-1.277-4.609L23.114,66.85H46.407a8.954,8.954,0,0,0,8.944-8.944V51.518H52.8Zm-21.72-1.278h5.111a1.278,1.278,0,1,1,0,2.555H31.075a1.278,1.278,0,1,1,0-2.555Z" transform="translate(-2.966 -2.966)"/><path d="M81.2,19.092A20.443,20.443,0,0,0,45.463,38.4l-4.319,7.321A1.278,1.278,0,0,0,41.2,47.1a1.3,1.3,0,0,0,1.29.524l8.343-1.559A20.365,20.365,0,0,0,60.9,50.957a21.21,21.21,0,0,0,3.565.307A20.443,20.443,0,0,0,81.2,19.092Zm.869,14.834a17.887,17.887,0,0,1-29.961,9.838,1.292,1.292,0,0,0-.882-.345,1.388,1.388,0,0,0-.23.013l-6.222,1.163,3.22-5.443a1.331,1.331,0,0,0,.077-1.163,17.886,17.886,0,1,1,34-4.063Z" transform="translate(-8.232 -3.99)"/><path d="M75.526,24.187H71.693V22.909a5.111,5.111,0,0,0-10.221,0v1.278H57.639a1.278,1.278,0,0,0-1.278,1.278V40.8a3.844,3.844,0,0,0,3.833,3.833H72.971A3.844,3.844,0,0,0,76.8,40.8V25.464A1.278,1.278,0,0,0,75.526,24.187Zm-11.5-1.278a2.555,2.555,0,0,1,5.111,0v1.278H64.027ZM74.249,40.8a1.278,1.278,0,0,1-1.278,1.278H60.194A1.278,1.278,0,0,1,58.917,40.8V39.519H74.249Zm0-3.833H58.917V26.742h2.555V29.3h2.555V26.742h5.111V29.3h2.555V26.742h2.555Z" transform="translate(-10.365 -5.022)"/><path d="M31.149,22.682,29.181,24.65a6.407,6.407,0,1,0,1.807,1.807l1.968-1.968ZM29.5,29.974a3.833,3.833,0,1,1-3.833-3.833,3.77,3.77,0,0,1,1.642.383l-3.823,3.823,1.807,1.807,3.824-3.821a3.77,3.77,0,0,1,.383,1.642Z" transform="translate(-5.221 -5.699)"/><path d="M37.08,26.7h5.111v2.555H37.08Z" transform="translate(-7.694 -6.255)"/><path d="M37.08,32.63h5.111v2.555H37.08Z" transform="translate(-7.694 -7.077)"/></g></g></g></svg>