<svg xmlns="http://www.w3.org/2000/svg" xmlns:xlink="http://www.w3.org/1999/xlink" width="111.816" height="111.817" viewBox="0 0 111.816 111.817"><defs><clipPath id="a"><rect width="111.817" height="111.817" fill="#fff"/></clipPath></defs><g clip-path="url(#a)"><g transform="translate(0 0.54)"><path d="M33.527,26.971a17.13,17.13,0,1,0-29.184-.048,5.534,5.534,0,0,0,4.713,2.644H28.843a5.5,5.5,0,0,0,4.684-2.6Zm0,0" transform="translate(1.948 0.795)" fill="#c47a4a"/><path d="M25.741,26.97a5.5,5.5,0,0,1-4.685,2.6H16.906a5.5,5.5,0,0,0,4.685-2.6,17.048,17.048,0,0,0,2.546-9.378A17.2,17.2,0,0,0,9.093.969a17.133,17.133,0,0,1,19.2,16.623,17.064,17.064,0,0,1-2.548,9.378Zm0,0" transform="translate(9.735 0.794)" fill="#b26944"/><path d="M15.245,31.087A9.966,9.966,0,0,1,5.28,21.121V12.044A4.319,4.319,0,0,1,9.6,7.725H20.892a4.318,4.318,0,0,1,4.318,4.318v9.078a9.964,9.964,0,0,1-9.965,9.966Zm0,0" transform="translate(5.653 8.162)" fill="#fdd1a7"/><path d="M20.369,6.587c-1.55,11.737-15.945,9.494-15.945,9.494V6.587Zm0,0" transform="translate(4.737 6.944)" fill="#c47a4a"/><path d="M36.85,55.07a17.13,17.13,0,1,0-33.615-.093,5.453,5.453,0,0,1-1.1,4.513A5.9,5.9,0,0,0,6.7,69.143H33.406A5.9,5.9,0,0,0,37.97,59.49a5.334,5.334,0,0,1-1.12-4.42Zm0,0" transform="translate(0.847 36.912)" fill="#ff5a96"/><path d="M30.288,63.236a5.907,5.907,0,0,1-5.905,5.908h-3.6a5.9,5.9,0,0,0,4.564-9.655,5.327,5.327,0,0,1-1.12-4.418,17.137,17.137,0,0,0-15.006-20.4,17.434,17.434,0,0,1,2.71-.07,17.136,17.136,0,0,1,15.9,20.47,5.327,5.327,0,0,0,1.12,4.418,5.877,5.877,0,0,1,1.341,3.748Zm0,0" transform="translate(9.869 36.912)" fill="#ff3b82"/><path d="M15.245,64.821A9.966,9.966,0,0,1,5.28,54.855V45.777A4.319,4.319,0,0,1,9.6,41.458H20.892a4.319,4.319,0,0,1,4.318,4.319v9.078a9.964,9.964,0,0,1-9.965,9.966Zm0,0" transform="translate(5.653 44.28)" fill="#fdd1a7"/><path d="M20.369,40.32c-1.55,11.738-15.945,9.495-15.945,9.495V40.32Zm0,0" transform="translate(4.737 43.061)" fill="#ff5a96"/><path d="M67.342,26.971a17.129,17.129,0,1,0-29.184-.048,5.536,5.536,0,0,0,4.714,2.645H62.658a5.507,5.507,0,0,0,4.684-2.6Zm0,0" transform="translate(38.154 0.795)" fill="#756f6f"/><path d="M59.556,26.97a5.5,5.5,0,0,1-4.684,2.6H50.722a5.5,5.5,0,0,0,4.683-2.6,17.132,17.132,0,0,0-12.5-26A17.133,17.133,0,0,1,62.1,17.592a17.057,17.057,0,0,1-2.549,9.378Zm0,0" transform="translate(45.941 0.794)" fill="#5b5555"/><path d="M49.061,31.087a9.966,9.966,0,0,1-9.966-9.966V12.044a4.319,4.319,0,0,1,4.319-4.318H54.707a4.319,4.319,0,0,1,4.319,4.318v9.078a9.966,9.966,0,0,1-9.966,9.966Zm0,0" transform="translate(41.858 8.162)" fill="#fdd1a7"/><path d="M54.184,6.587c-1.55,11.737-15.944,9.494-15.944,9.494V6.587Zm0,0" transform="translate(40.942 6.944)" fill="#756f6f"/><path d="M70.665,55.07a17.13,17.13,0,1,0-33.615-.093,5.453,5.453,0,0,1-1.1,4.513,5.9,5.9,0,0,0,4.563,9.653H67.221a5.9,5.9,0,0,0,4.564-9.653,5.333,5.333,0,0,1-1.119-4.42Zm0,0" transform="translate(37.052 36.912)" fill="#ffa730"/><path d="M64.1,63.236A5.907,5.907,0,0,1,58.2,69.144H54.6a5.9,5.9,0,0,0,4.564-9.655,5.324,5.324,0,0,1-1.12-4.418,17.148,17.148,0,0,0-15.006-20.4,17.431,17.431,0,0,1,2.71-.07,17.147,17.147,0,0,1,15.9,20.47,5.324,5.324,0,0,0,1.12,4.418A5.877,5.877,0,0,1,64.1,63.236Zm0,0" transform="translate(46.075 36.912)" fill="#fa8916"/><path d="M49.061,64.821a9.966,9.966,0,0,1-9.966-9.966V45.777a4.319,4.319,0,0,1,4.319-4.319H54.707a4.319,4.319,0,0,1,4.319,4.319v9.078a9.966,9.966,0,0,1-9.966,9.966Zm0,0" transform="translate(41.858 44.28)" fill="#fdd1a7"/><path d="M54.184,40.32c-1.55,11.738-15.944,9.495-15.944,9.495V40.32Zm0,0" transform="translate(40.942 43.061)" fill="#ffa730"/><path d="M51.112,24.574H23.8a2.29,2.29,0,0,0-2.29,2.29v14.8a2.289,2.289,0,0,0,2.29,2.29H38.741v1.925a2.29,2.29,0,0,0,3.832,1.693l3.966-3.616h4.573a2.29,2.29,0,0,0,2.29-2.29v-14.8a2.29,2.29,0,0,0-2.29-2.29Zm0,0" transform="translate(23.036 26.202)" fill="#00c2f8"/><path d="M40.435,26.864v14.8a2.29,2.29,0,0,1-2.288,2.289H33.624a2.289,2.289,0,0,0,2.288-2.289v-14.8a2.289,2.289,0,0,0-2.288-2.291h4.523a2.289,2.289,0,0,1,2.288,2.291Zm0,0" transform="translate(36.001 26.202)" fill="#00abef"/><path d="M19.376,17.616H42.562a2.29,2.29,0,0,1,2.29,2.29V32.641a2.29,2.29,0,0,1-2.29,2.29H37.18v2.584A2.289,2.289,0,0,1,33.341,39.2l-4.646-4.27H19.376a2.29,2.29,0,0,1-2.29-2.29V19.906a2.29,2.29,0,0,1,2.29-2.29Zm0,0" transform="translate(18.294 18.752)" fill="#ffb54e"/><path d="M34.205,19.906V32.641a2.29,2.29,0,0,1-2.29,2.289H27.03a2.289,2.289,0,0,0,2.29-2.289V19.906a2.289,2.289,0,0,0-2.29-2.29h4.886A2.29,2.29,0,0,1,34.205,19.906Zm0,0" transform="translate(28.941 18.753)" fill="#ff9a1b"/><path d="M110.1,95.414a3.669,3.669,0,0,1-.778-3.059A18.771,18.771,0,0,0,98.315,71.431a45.477,45.477,0,0,0-.341-32.892,11.622,11.622,0,0,0,4.258-6.63,7.1,7.1,0,0,0,4.658-3.23,18.7,18.7,0,0,0-.872-20.967,1.638,1.638,0,0,0-2.635,1.947,15.427,15.427,0,0,1,.722,17.3,3.827,3.827,0,0,1-1.582,1.426V20.258A5.962,5.962,0,0,0,96.674,14.3q.042-.251.077-.507a1.638,1.638,0,0,0-3.248-.429,8.4,8.4,0,0,1-6.039,7.4,18.86,18.86,0,0,1-7.5.75,1.638,1.638,0,0,0-.646,3.195v3.661a3.894,3.894,0,0,1-1.607-1.465A15.492,15.492,0,0,1,91.291,3.334a15.2,15.2,0,0,1,6.924,1.839A1.638,1.638,0,0,0,99.77,2.29,18.764,18.764,0,0,0,72.939,13.418a45.422,45.422,0,0,0-34.071,0,18.766,18.766,0,1,0-33.973,15.2,7.144,7.144,0,0,0,4.69,3.281,11.629,11.629,0,0,0,4.258,6.633A45.478,45.478,0,0,0,13.5,71.428a18.634,18.634,0,0,0-4.1,2.408,1.638,1.638,0,1,0,2.008,2.587A15.5,15.5,0,0,1,36.09,91.714a6.937,6.937,0,0,0,1.46,5.781,4.212,4.212,0,0,1,.969,2.707,4.272,4.272,0,0,1-4.267,4.267H31.224A11.522,11.522,0,0,0,32.5,99.187V90.109a5.962,5.962,0,0,0-5.85-5.954c.028-.168.055-.336.078-.507a1.638,1.638,0,0,0-3.248-.429,8.394,8.394,0,0,1-3.25,5.959C16.093,92.286,9.476,91.32,9.412,91.31a1.638,1.638,0,0,0-.5,3.237c.038.006.171.026.386.051v4.589a11.522,11.522,0,0,0,1.277,5.282H7.544A4.272,4.272,0,0,1,3.276,100.2,4.212,4.212,0,0,1,4.245,97.5a7.069,7.069,0,0,0,1.444-5.866,15.577,15.577,0,0,1-.283-2.958,15.327,15.327,0,0,1,1.648-6.958A1.638,1.638,0,1,0,4.129,80.24a18.578,18.578,0,0,0-2,8.432,18.844,18.844,0,0,0,.343,3.582,3.809,3.809,0,0,1-.759,3.161,7.543,7.543,0,0,0,5.829,12.331h5.528a11.578,11.578,0,0,0,15.653,0h5.528a7.534,7.534,0,0,0,7.329-9.321,45.516,45.516,0,0,0,28.654,0,7.534,7.534,0,0,0,7.329,9.321h5.528a11.578,11.578,0,0,0,15.653,0h5.528A7.543,7.543,0,0,0,110.1,95.414ZM12.57,99.187V94.729a17,17,0,0,0,9.614-2.919,11.011,11.011,0,0,0,3.5-4.382h.858a2.684,2.684,0,0,1,2.681,2.681v9.078a8.328,8.328,0,1,1-16.656,0Zm75.96-75.319a11.656,11.656,0,0,0,7.175-6.29h.86a2.684,2.684,0,0,1,2.681,2.68v9.078a8.328,8.328,0,1,1-16.656,0v-4.46a20.278,20.278,0,0,0,5.94-1.008ZM7.686,26.913a15.492,15.492,0,1,1,26.4.043A3.828,3.828,0,0,1,32.5,28.384V20.258A5.962,5.962,0,0,0,26.654,14.3q.041-.251.076-.507a1.638,1.638,0,0,0-3.248-.429,8.4,8.4,0,0,1-6.039,7.4,18.86,18.86,0,0,1-7.5.75,1.638,1.638,0,0,0-.646,3.195v3.662a3.9,3.9,0,0,1-1.608-1.466Zm4.884,2.424v-4.46a20.283,20.283,0,0,0,5.94-1.008,11.656,11.656,0,0,0,7.175-6.29h.86a2.683,2.683,0,0,1,2.68,2.68v9.078a8.327,8.327,0,1,1-16.655,0ZM39.384,94.089a3.633,3.633,0,0,1-.081-1.734A18.751,18.751,0,0,0,16.616,70.4a42.2,42.2,0,0,1,.108-30.244,11.593,11.593,0,0,0,15.486-8.252,7.086,7.086,0,0,0,4.657-3.229A18.7,18.7,0,0,0,39.661,18.4c-.012-.578-.053-1.15-.118-1.717a42.152,42.152,0,0,1,32.731,0,19.009,19.009,0,0,0-.124,2.133,18.717,18.717,0,0,0,2.766,9.806,7.148,7.148,0,0,0,4.689,3.282,11.594,11.594,0,0,0,15.485,8.253A42.194,42.194,0,0,1,95.2,70.4a18.765,18.765,0,0,0-23.051,18.27,18.853,18.853,0,0,0,.343,3.583,3.963,3.963,0,0,1-.076,1.84,42.156,42.156,0,0,1-33.034-.005Zm51.535,13.426a8.337,8.337,0,0,1-8.328-8.328V94.729A17,17,0,0,0,92.2,91.809a11.013,11.013,0,0,0,3.5-4.382h.857a2.684,2.684,0,0,1,2.681,2.681v9.078a8.337,8.337,0,0,1-8.328,8.328Zm13.354-3.046h-3.028a11.522,11.522,0,0,0,1.278-5.282V90.109a5.962,5.962,0,0,0-5.85-5.954c.028-.168.055-.336.078-.507A1.638,1.638,0,1,0,93.5,83.22a8.394,8.394,0,0,1-3.25,5.959C86.114,92.286,79.5,91.32,79.433,91.31a1.638,1.638,0,0,0-.5,3.237c.038.006.171.026.386.051v4.589a11.522,11.522,0,0,0,1.277,5.282H77.564A4.272,4.272,0,0,1,73.3,100.2a4.211,4.211,0,0,1,.969-2.708,7.073,7.073,0,0,0,1.444-5.865,15.586,15.586,0,0,1-.283-2.959A15.493,15.493,0,0,1,91.734,73.2a15.5,15.5,0,0,1,14.377,18.514,6.936,6.936,0,0,0,1.46,5.781,4.216,4.216,0,0,1,.969,2.707,4.273,4.273,0,0,1-4.268,4.268Zm0,0" transform="translate(0 -0.053)"/><path d="M60.629,49.955V35.16A3.932,3.932,0,0,0,56.7,31.232H47.336V20.752a3.932,3.932,0,0,0-3.928-3.927H20.223a3.932,3.932,0,0,0-3.928,3.927V33.487a3.932,3.932,0,0,0,3.928,3.928h5.243v12.54a3.932,3.932,0,0,0,3.928,3.928h3.115a1.638,1.638,0,0,0,0-3.276H29.393a.652.652,0,0,1-.652-.652V37.415H28.9l4.176,3.838A3.888,3.888,0,0,0,35.72,42.3a3.96,3.96,0,0,0,1.6-.34,3.877,3.877,0,0,0,2.348-3.6v-.946h3.744A3.93,3.93,0,0,0,47.2,34.508h9.5a.652.652,0,0,1,.652.652v14.8a.652.652,0,0,1-.652.652H52.127a1.64,1.64,0,0,0-1.1.427l-3.965,3.617a.652.652,0,0,1-1.091-.482V52.245a1.638,1.638,0,0,0-1.638-1.638H40.048a1.638,1.638,0,0,0,0,3.276h2.644v.287a3.879,3.879,0,0,0,2.342,3.593,3.955,3.955,0,0,0,1.6.342,3.888,3.888,0,0,0,2.63-1.033l3.5-3.189H56.7a3.932,3.932,0,0,0,3.928-3.928ZM44.061,33.487a.652.652,0,0,1-.652.652H38.027a1.638,1.638,0,0,0-1.638,1.638v2.584a.651.651,0,0,1-1.092.48l-4.646-4.27a1.638,1.638,0,0,0-1.109-.433H20.223a.652.652,0,0,1-.652-.652V20.752a.652.652,0,0,1,.652-.651H43.41a.652.652,0,0,1,.652.651V33.487Zm0,0" transform="translate(17.447 17.906)"/><path d="M30.056,21.006H21.907a1.638,1.638,0,0,0,0,3.276h8.149a1.638,1.638,0,0,0,0-3.276Zm0,0" transform="translate(21.702 22.382)"/><path d="M38.131,31.737a1.638,1.638,0,0,0,0-3.276h-7.7a1.638,1.638,0,0,0,0,3.276Zm0,0" transform="translate(30.832 30.364)"/></g></g></svg>