<svg xmlns="http://www.w3.org/2000/svg" width="101.509" height="101.508" viewBox="0 0 101.509 101.508"><path d="M86.8,142.9a4.229,4.229,0,0,0-4.23-4.229H14.9a4.229,4.229,0,0,0-4.229,4.229v42.3H86.8Zm0,0" transform="translate(-8.553 -111.176)" fill="#26c4b1"/><path d="M10.668,373.332v8.459a4.229,4.229,0,0,0,4.229,4.229H82.569a4.229,4.229,0,0,0,4.23-4.229v-8.459Zm0,0" transform="translate(-8.553 -299.315)" fill="#cbd3db"/><path d="M138.668,437.332h25.377v12.689H138.668Zm0,0" transform="translate(-111.176 -350.627)" fill="#6c8199"/><path d="M330.295,27.586v8.459h-4.779a17.54,17.54,0,0,1-1.8,4.356l3.384,3.384-5.985,5.985-3.384-3.384a17.539,17.539,0,0,1-4.356,1.8v4.779h-8.459V48.184a17.54,17.54,0,0,1-4.356-1.8l-3.384,3.384-5.985-5.985,3.384-3.384a17.539,17.539,0,0,1-1.8-4.356H288V27.586h4.779a17.54,17.54,0,0,1,1.8-4.356l-3.384-3.384,5.985-5.985,3.384,3.384a17.539,17.539,0,0,1,4.356-1.8V10.668h8.459v4.779a17.54,17.54,0,0,1,4.356,1.8l3.384-3.384,5.985,5.985-3.384,3.384a17.539,17.539,0,0,1,1.8,4.356Zm-14.8,4.229a6.344,6.344,0,1,0-6.344,6.344A6.345,6.345,0,0,0,315.492,31.815Zm0,0" transform="translate(-230.901 -8.553)" fill="#fecd2a"/><path d="M93.791,25.562a4.23,4.23,0,1,1-4.229-4.23A4.229,4.229,0,0,1,93.791,25.562Zm0,0" transform="translate(-68.414 -17.103)" fill="#fff"/><path d="M93.791,206.9a4.23,4.23,0,1,1-4.229-4.229A4.229,4.229,0,0,1,93.791,206.9Zm0,0" transform="translate(-68.414 -162.487)" fill="#fff"/><path d="M307.127,334.9a4.229,4.229,0,1,1-4.229-4.229A4.229,4.229,0,0,1,307.127,334.9Zm0,0" transform="translate(-239.454 -265.11)" fill="#fff"/><g transform="translate(0 0)"><path d="M76.132,185.1a2.115,2.115,0,0,1-2.115,2.115H6.344A2.115,2.115,0,0,1,4.229,185.1v-6.344h48.64v-4.229H4.229V134.344a2.115,2.115,0,0,1,2.115-2.115H33.836V128H6.344A6.345,6.345,0,0,0,0,134.344V185.1a6.345,6.345,0,0,0,6.344,6.344H25.377V199.9H21.148v4.229H59.214V199.9h-4.23v-8.459H74.017a6.344,6.344,0,0,0,6.344-6.344V163.951H76.132ZM50.754,199.9H29.606v-8.459H50.754Zm0,0" transform="translate(0 -102.623)" fill="#3d4249"/><path d="M321.742,16.918h-3.219a19.164,19.164,0,0,0-.764-1.846l2.274-2.277a2.116,2.116,0,0,0,0-2.991l-5.98-5.98a2.116,2.116,0,0,0-2.991,0L308.785,6.1a19.379,19.379,0,0,0-1.846-.765V2.115A2.115,2.115,0,0,0,304.824,0h-8.459a2.115,2.115,0,0,0-2.114,2.115V5.334A19.088,19.088,0,0,0,292.4,6.1l-2.278-2.274a2.115,2.115,0,0,0-2.99,0L281.155,9.8a2.116,2.116,0,0,0,0,2.991l2.276,2.277a19.188,19.188,0,0,0-.766,1.846h-3.219a2.115,2.115,0,0,0-2.115,2.115v8.459a2.115,2.115,0,0,0,2.115,2.114h3.219a19.09,19.09,0,0,0,.764,1.846l-2.274,2.278a2.115,2.115,0,0,0,0,2.99l5.983,5.983a2.116,2.116,0,0,0,2.991,0l2.278-2.275a19.155,19.155,0,0,0,1.846.764V44.41a2.115,2.115,0,0,0,2.115,2.115h8.459a2.115,2.115,0,0,0,2.114-2.115V41.191a19.085,19.085,0,0,0,1.846-.764l2.278,2.275a2.115,2.115,0,0,0,2.99,0l5.983-5.983a2.115,2.115,0,0,0,0-2.99l-2.275-2.278a19.147,19.147,0,0,0,.761-1.846h3.219a2.115,2.115,0,0,0,2.115-2.114V19.033a2.115,2.115,0,0,0-2.115-2.115Zm-2.114,8.459h-2.669a2.116,2.116,0,0,0-2.048,1.586,14.71,14.71,0,0,1-1.575,3.806,2.115,2.115,0,0,0,.325,2.57l1.887,1.887-2.992,2.992-1.886-1.887a2.116,2.116,0,0,0-2.57-.326,14.723,14.723,0,0,1-3.806,1.576,2.114,2.114,0,0,0-1.586,2.047v2.666H298.48V39.626a2.114,2.114,0,0,0-1.586-2.047A14.71,14.71,0,0,1,293.087,36a2.115,2.115,0,0,0-2.57.325l-1.887,1.887-2.992-2.992,1.887-1.887a2.116,2.116,0,0,0,.326-2.57,14.7,14.7,0,0,1-1.576-3.806,2.115,2.115,0,0,0-2.047-1.586h-2.666V21.148h2.669a2.115,2.115,0,0,0,2.047-1.586,14.716,14.716,0,0,1,1.575-3.807,2.114,2.114,0,0,0-.325-2.569L285.641,11.3l2.992-2.992,1.887,1.887a2.115,2.115,0,0,0,2.57.325A14.7,14.7,0,0,1,296.9,8.943,2.114,2.114,0,0,0,298.48,6.9V4.229h4.229V6.9A2.117,2.117,0,0,0,304.3,8.946a14.715,14.715,0,0,1,3.807,1.575,2.114,2.114,0,0,0,2.569-.325l1.887-1.887L315.55,11.3l-1.887,1.886a2.115,2.115,0,0,0-.325,2.57,14.721,14.721,0,0,1,1.575,3.806,2.113,2.113,0,0,0,2.047,1.586h2.667Zm0,0" transform="translate(-222.348 0)" fill="#3d4249"/><path d="M360.459,74.668a8.459,8.459,0,1,0,8.459,8.459A8.459,8.459,0,0,0,360.459,74.668Zm0,12.689a4.23,4.23,0,1,1,4.229-4.23A4.23,4.23,0,0,1,360.459,87.357Zm0,0" transform="translate(-282.213 -59.864)" fill="#3d4249"/><path d="M81.007,23.437a6.344,6.344,0,0,0,5.955-4.23H93.7a2.115,2.115,0,0,1,2.114,2.115V31.9a6.344,6.344,0,0,0,6.344,6.344h8.459V34.011h-8.459A2.115,2.115,0,0,1,100.04,31.9V21.322A6.345,6.345,0,0,0,93.7,14.978H86.962a6.334,6.334,0,1,0-5.955,8.459Zm0-8.459a2.115,2.115,0,1,1-2.115,2.115A2.115,2.115,0,0,1,81.007,14.978Zm0,0" transform="translate(-59.859 -8.634)" fill="#3d4249"/><path d="M80.9,192a6.344,6.344,0,1,0,5.955,8.459h30a2.116,2.116,0,0,0,1.5-.62l2.114-2.115-2.99-2.99-1.495,1.495H86.858A6.344,6.344,0,0,0,80.9,192Zm0,8.459a2.115,2.115,0,1,1,2.114-2.115A2.115,2.115,0,0,1,80.9,200.459Zm0,0" transform="translate(-59.756 -153.934)" fill="#3d4249"/><path d="M304.915,258.115h-6.344a6.344,6.344,0,0,0-6.344,6.344v4.618a6.344,6.344,0,1,0,4.23,0v-4.618a2.115,2.115,0,0,1,2.114-2.115h6.344A6.344,6.344,0,0,0,311.26,256H307.03a2.115,2.115,0,0,1-2.115,2.115Zm-10.574,19.033a2.115,2.115,0,1,1,2.115-2.115A2.115,2.115,0,0,1,294.342,277.148Zm0,0" transform="translate(-230.899 -205.246)" fill="#3d4249"/></g></svg>