<svg xmlns="http://www.w3.org/2000/svg" width="101.509" height="101.509" viewBox="0 0 101.509 101.509"><g transform="translate(2.062 1.487)"><path d="M107.785,364.252v6.939H10.4v-6.939l55.213-3.523Z" transform="translate(-10.4 -290.698)" fill="#756e78"/><path d="M107.785,116.46v51.952H10.4V116.46H44.928s1.835,12.406,13.966,12.406S71.771,116.46,71.771,116.46Z" transform="translate(-10.4 -94.858)" fill="#b2e5fb"/><path d="M472.336,371.5v6.939H465.1a6.5,6.5,0,0,0,1.741-4.251V371.5l2.622-1.732Z" transform="translate(-374.952 -297.943)" fill="#655f66"/><path d="M471.43,116.46v51.952h-5.5v-46.3a8.239,8.239,0,0,0-1.965-5.65Z" transform="translate(-374.046 -94.858)" fill="#90d8f9"/><path d="M195.819,424.451l-5.815.739a19.037,19.037,0,0,0-27.756,0l-5.874-.628L162.3,413.5h27.653Z" transform="translate(-127.433 -333.007)" fill="#cee0ea"/><path d="M170.124,474.439l-4.138.4h-49a1.037,1.037,0,0,1-.991-1.078v-5.18a1.037,1.037,0,0,1,.991-1.078h50.042l3.092.4a1.037,1.037,0,0,1,.991,1.078v4.387A1.037,1.037,0,0,1,170.124,474.439Z" transform="translate(-95.062 -376.301)" fill="#e6edf4"/><path d="M372.854,468.578v5.181a1.038,1.038,0,0,1-.991,1.078H367.13c1.151,0,1.244-1.112,1.244-1.625V467.5h3.489A1.038,1.038,0,0,1,372.854,468.578Z" transform="translate(-296.405 -376.301)" fill="#cee0ea"/><g transform="translate(28.163)"><ellipse cx="13.172" cy="13.172" rx="13.172" ry="13.172" transform="translate(7.12 7.885)" fill="#b2e5fb"/><path d="M191.447,24.421l-1.46-.117a.591.591,0,0,1-.572-.432,19.815,19.815,0,0,0-1.426-4.424.591.591,0,0,1,.1-.709l1.463-1.463a1.189,1.189,0,0,0,0-1.681L185.4,11.445a1.188,1.188,0,0,0-1.683,0L182.264,12.9a.591.591,0,0,1-.71.1,17.207,17.207,0,0,0-4.022-1.67.591.591,0,0,1-.431-.572V8.69a1.189,1.189,0,0,0-1.19-1.19h-5.868a1.189,1.189,0,0,0-1.19,1.19v2.059a.591.591,0,0,1-.432.572,17.156,17.156,0,0,0-4.024,1.662.591.591,0,0,1-.709-.1l-1.463-1.462a1.186,1.186,0,0,0-1.681,0l-4.15,4.15a1.186,1.186,0,0,0,0,1.681l1.455,1.457a.591.591,0,0,1,.1.71,17.194,17.194,0,0,0-1.67,4.021.591.591,0,0,1-.572.431h-2.068a1.189,1.189,0,0,0-1.19,1.19v5.868a1.189,1.189,0,0,0,1.19,1.19H155.7a.591.591,0,0,1,.572.432,17.149,17.149,0,0,0,1.662,4.025.589.589,0,0,1-.079.686s.041.254.033.262l-.739,1.183a1.192,1.192,0,0,0,0,1.683l3.545,3.545a1.189,1.189,0,0,0,1.681,0l1.456-1.456a.591.591,0,0,1,.71-.1,19.245,19.245,0,0,0,4.25,1.779.591.591,0,0,1,.43.572V46.8a1.189,1.189,0,0,0,1.19,1.19l5.023.313a1.189,1.189,0,0,0,1.19-1.19V45.051a.591.591,0,0,1,.432-.572,21.586,21.586,0,0,0,4.5-1.889.591.591,0,0,1,.709.1l1.463,1.463a1.188,1.188,0,0,0,1.683,0l3.642-3.693a1.189,1.189,0,0,0,0-1.681L187.6,37.322a.591.591,0,0,1-.1-.71,19.3,19.3,0,0,0,1.7-4.284.591.591,0,0,1,.572-.43h2.068a1.189,1.189,0,0,0,1.19-1.19l-.4-5.1a1.19,1.19,0,0,0-1.19-1.189ZM172.961,38.535a10.525,10.525,0,1,1,10.524-10.524A10.524,10.524,0,0,1,172.961,38.535Z" transform="translate(-152.449 -7.5)" fill="#756e78"/><g transform="translate(3.572 11.949)"><path d="M207.917,73.414v5.87a1.191,1.191,0,0,1-1.19,1.19H204.66a.589.589,0,0,0-.571.43,17.263,17.263,0,0,1-1.671,4.021.591.591,0,0,0,.1.71l1.457,1.457a1.189,1.189,0,0,1,0,1.681l-4.15,4.15a1.188,1.188,0,0,1-1.683,0l-1.463-1.463a.592.592,0,0,0-.71-.1,17.138,17.138,0,0,1-4.023,1.663.588.588,0,0,0-.432.571v2.06a1.191,1.191,0,0,1-1.19,1.19h-5.868a1.191,1.191,0,0,1-1.19-1.19V93.587a.589.589,0,0,0-.43-.571,17.265,17.265,0,0,1-4.021-1.671.591.591,0,0,0-.71.1L176.646,92.9a1.189,1.189,0,0,1-1.681,0l-4.152-4.15a1.192,1.192,0,0,1,0-1.683l1.463-1.461a.211.211,0,0,0,.02-.024c14.729,8.879,29.248-3.187,30.137-17.812a17.257,17.257,0,0,1,1.663,4.023.588.588,0,0,0,.571.432h2.06a1.191,1.191,0,0,1,1.19,1.19Z" transform="translate(-170.465 -67.77)" fill="#655f66"/></g></g><g transform="translate(15.762 41.183)"><path d="M115.584,228.516c0,7.341-5.17,12.5-12.511,12.5-4.788,0-8-2.324-11.2-5.534a13.294,13.294,0,0,1,18.286-18.286c3.187,2.968,5.426,6.537,5.426,11.325Z" transform="translate(-89.903 -215.224)" fill="#fe93d3"/><path d="M124.446,236.475a13.292,13.292,0,0,1-24.616,6.961,13.293,13.293,0,0,0,18.285-18.285A13.282,13.282,0,0,1,124.446,236.475Z" transform="translate(-97.862 -223.182)" fill="#fe73c5"/></g><g transform="translate(55.039 41.183)"><path d="M313.769,228.516c0,7.341-5.538,12.468-12.878,12.468-4.789,0-7.916-2.11-10.912-5.508a13.294,13.294,0,0,1,18.285-18.286C311.687,220.217,313.769,223.727,313.769,228.516Z" transform="translate(-288.012 -215.224)" fill="#66c6a6"/><path d="M322.548,236.467a13.293,13.293,0,0,1-24.618,6.959,13.295,13.295,0,0,0,18.285-18.285A13.285,13.285,0,0,1,322.548,236.467Z" transform="translate(-295.964 -223.174)" fill="#50b29f"/></g></g><g transform="translate(0 0)"><path d="M98.039,21.206h-25.3V19.081A2.68,2.68,0,0,0,70.058,16.4H68.669a18.645,18.645,0,0,0-1.281-3.1l.99-.99a2.679,2.679,0,0,0,0-3.785l-4.15-4.15a2.677,2.677,0,0,0-3.785,0l-.983.983a18.669,18.669,0,0,0-3.1-1.287v-1.4A2.68,2.68,0,0,0,53.687,0H47.818a2.68,2.68,0,0,0-2.677,2.676V4.066a18.646,18.646,0,0,0-3.1,1.281l-.99-.99a2.679,2.679,0,0,0-3.785,0l-4.15,4.15a2.677,2.677,0,0,0,0,3.785l.983.983a18.648,18.648,0,0,0-1.286,3.1h-1.4a2.68,2.68,0,0,0-2.676,2.676v2.159H16.852a1.487,1.487,0,0,0,0,2.974H28.737v.736a2.68,2.68,0,0,0,2.677,2.676H32.8a18.646,18.646,0,0,0,1.281,3.1l-.99.99a2.679,2.679,0,0,0,0,3.785l4.15,4.15a2.677,2.677,0,0,0,3.785,0l.983-.983a18.661,18.661,0,0,0,3.1,1.287v1.4A2.68,2.68,0,0,0,47.785,44h5.869a2.68,2.68,0,0,0,2.676-2.676V39.931a18.646,18.646,0,0,0,3.1-1.281l.99.99a2.679,2.679,0,0,0,3.785,0l4.15-4.15a2.677,2.677,0,0,0,0-3.785l-.983-.983a18.662,18.662,0,0,0,1.287-3.1h1.4a2.68,2.68,0,0,0,2.676-2.676v-.77h25.3a.5.5,0,0,1,.5.5V73.554H2.974V24.675a.5.5,0,0,1,.5-.5H9.913a1.487,1.487,0,1,0,0-2.974H3.47A3.474,3.474,0,0,0,0,24.675V80.188a3.474,3.474,0,0,0,3.47,3.47H17.824a1.487,1.487,0,1,0,0-2.974H3.47a.5.5,0,0,1-.5-.5V76.528H98.535v3.659a.5.5,0,0,1-.5.5H24.763a1.487,1.487,0,1,0,0,2.974h9.63l-4.355,8.129H23.991a2.481,2.481,0,0,0-2.478,2.478V99.03a2.481,2.481,0,0,0,2.478,2.478h31.62a1.487,1.487,0,1,0,0-2.974H24.487V94.76H76.564v3.775H62.551a1.487,1.487,0,1,0,0,2.974H77.059a2.481,2.481,0,0,0,2.478-2.478V94.264a2.481,2.481,0,0,0-2.478-2.478H71.471l-4.355-8.129H98.039a3.474,3.474,0,0,0,3.47-3.47V24.675a3.474,3.474,0,0,0-3.47-3.47ZM69.761,24.653H67.53a1.487,1.487,0,0,0-1.444,1.132A15.7,15.7,0,0,1,64.251,30.2a1.487,1.487,0,0,0,.219,1.824L66.041,33.6l-3.729,3.729L60.734,35.75a1.486,1.486,0,0,0-1.822-.22,15.7,15.7,0,0,1-4.422,1.827A1.487,1.487,0,0,0,53.356,38.8v2.222H48.082v-2.23a1.487,1.487,0,0,0-1.132-1.444,15.7,15.7,0,0,1-4.418-1.836,1.488,1.488,0,0,0-1.824.219L39.136,37.3l-3.729-3.729L36.984,32a1.487,1.487,0,0,0,.22-1.822,15.7,15.7,0,0,1-1.827-4.422,1.487,1.487,0,0,0-1.445-1.135H31.711V19.345h2.23a1.487,1.487,0,0,0,1.444-1.132,15.7,15.7,0,0,1,1.835-4.418A1.487,1.487,0,0,0,37,11.97L35.431,10.4,39.16,6.669l1.578,1.578a1.487,1.487,0,0,0,1.822.22,15.7,15.7,0,0,1,4.422-1.827A1.487,1.487,0,0,0,48.116,5.2V2.974H53.39V5.2a1.487,1.487,0,0,0,1.132,1.444A15.7,15.7,0,0,1,58.94,8.484a1.487,1.487,0,0,0,1.824-.219l1.571-1.571,3.729,3.729L64.488,12a1.487,1.487,0,0,0-.22,1.822,15.7,15.7,0,0,1,1.827,4.422,1.487,1.487,0,0,0,1.445,1.135H69.76v5.274ZM40.879,91.786a17.6,17.6,0,0,1,19.75,0Zm27.217,0H65.262a20.526,20.526,0,0,0-29.015,0H33.412l4.355-8.129H63.743Z" transform="translate(0 0)"/><path d="M207.334,50.375a12.011,12.011,0,1,0,12.011,12.011A12.025,12.025,0,0,0,207.334,50.375Zm0,21.049a9.037,9.037,0,1,1,9.037-9.037A9.048,9.048,0,0,1,207.334,71.424Z" transform="translate(-156.598 -40.388)"/><path d="M111.961,222.5a14.779,14.779,0,1,0-14.779,14.779A14.8,14.8,0,0,0,111.961,222.5Zm-26.584,0a11.8,11.8,0,1,1,11.8,11.8A11.818,11.818,0,0,1,85.378,222.5Z" transform="translate(-66.067 -166.542)"/><path d="M137.744,265.17a1.487,1.487,0,0,0,2.1-2.1l-2.936-2.936,2.936-2.936a1.487,1.487,0,1,0-2.1-2.1l-2.936,2.936-2.936-2.936a1.487,1.487,0,1,0-2.1,2.1l2.936,2.936-2.936,2.936a1.487,1.487,0,1,0,2.1,2.1l2.936-2.936Z" transform="translate(-103.693 -204.169)"/><path d="M285.408,225.35a1.487,1.487,0,0,0-2.887.715,14.777,14.777,0,1,0,.157-7.713,1.487,1.487,0,1,0,2.855.834,11.808,11.808,0,1,1-.125,6.165Z" transform="translate(-226.474 -166.538)"/><path d="M327.478,265.927h.048a1.487,1.487,0,0,0,1.125-.572l6.822-8.756a1.487,1.487,0,0,0-2.346-1.828l-5.724,7.346-2.99-3.366a1.487,1.487,0,1,0-2.224,1.975l4.176,4.7A1.488,1.488,0,0,0,327.478,265.927Z" transform="translate(-258.012 -203.8)"/></g></svg>