<svg xmlns="http://www.w3.org/2000/svg" width="253" height="181.156" viewBox="0 0 253 181.156"><g transform="translate(-432.325 -3929)"><rect width="253" height="86" rx="10" transform="translate(432.325 4024.156)" fill="#f6f1e5"/><g transform="translate(343.434 3871.366)"><g transform="translate(96.566 57.635)"><g transform="translate(22.219)"><g transform="translate(0 9.165)"><path d="M166.149,146.3l-18.107-7.029a104.908,104.908,0,0,1,47.206-53.942c2.68-1.471,5.464-2.845,8.275-4.084,1.926-.849,3.9-1.648,5.859-2.377l6.764,18.208c-1.6.6-3.215,1.25-4.79,1.944-2.3,1.013-4.573,2.136-6.761,3.337A85.455,85.455,0,0,0,166.149,146.3Z" transform="translate(-148.042 -78.867)" fill="#cbc232"/></g><g transform="translate(55.327)"><path d="M288.284,94.123,276.22,57.635l31.687,10.879Z" transform="translate(-276.22 -57.635)" fill="#cbc232"/></g></g><g transform="translate(0 82.1)"><g transform="translate(12.701 20.55)"><path d="M153.571,370.426a104.575,104.575,0,0,1-25.457-49.9c-.609-3-1.093-6.064-1.441-9.115a105.978,105.978,0,0,1-.608-15.962l19.41.735a86.551,86.551,0,0,0,.5,13.028c.284,2.495.68,5,1.178,7.447a85.144,85.144,0,0,0,20.729,40.631Z" transform="translate(-125.99 -295.447)" fill="#cbc232"/></g><path d="M137.775,278.3l-41.209-3.945,24.479-26.517Z" transform="translate(-96.566 -247.838)" fill="#cbc232"/></g><g transform="translate(184.81 74.41)"><g transform="translate(0 68.148)"><path d="M524.721,387.9l33.936,18.037-30.422,14.034Z" transform="translate(-524.721 -387.904)" fill="#cbc232"/></g><g transform="translate(3.914)"><path d="M550.1,321.021l-16.31-10.547a86.918,86.918,0,0,0,5.027-8.885c1.106-2.254,2.123-4.578,3.023-6.905a85.461,85.461,0,0,0,1.119-58.379l18.38-6.281a104.914,104.914,0,0,1-1.383,71.667c-1.1,2.85-2.348,5.695-3.7,8.454A106.4,106.4,0,0,1,550.1,321.021Z" transform="translate(-533.788 -230.023)" fill="#cbc232"/></g><g transform="translate(26.846 27.812)"><path d="M586.915,294.456" transform="translate(-586.915 -294.456)" fill="#cbc232" stroke="#ff725e" stroke-miterlimit="10" stroke-width="45"/></g></g><g transform="translate(126.933 4.838)"><path d="M454.934,127.753a84.681,84.681,0,0,0-40.919-33.959c-2.324-.915-4.723-1.74-7.129-2.453a86.21,86.21,0,0,0-16.251-3.162l1.849-19.336A105.686,105.686,0,0,1,412.4,72.717c2.944.873,5.88,1.883,8.726,3a103.977,103.977,0,0,1,50.246,41.692Z" transform="translate(-390.635 -68.843)" fill="#cbc232"/><g transform="translate(50.548 32.661)"><path d="M507.742,165.564l32.151-21.054-2.352,33.42Z" transform="translate(-507.742 -144.51)" fill="#cbc232"/></g></g></g><g transform="translate(148.402 97.536)"><g transform="translate(15.825)"><g transform="translate(0 2.915)"><g transform="translate(4.193 0.883)"><path d="M274.763,158.874l.725.029a14.007,14.007,0,0,1,13.449,13.416c.282,6.781.507,14.275.321,17.9-.385,7.507-7.942,8.383-7.942,8.383l-.028,3.064c-.045,5.06-.822,10.618-5.882,10.546l-3.376-1.5a9.13,9.13,0,0,1-9-9.137l.025-27.987C262.686,165.763,266.932,159.027,274.763,158.874Z" transform="translate(-263.03 -158.874)" fill="#ffbf9d"/></g><g transform="translate(12.813 37.339)"><path d="M292.73,246.595A18.233,18.233,0,0,1,283,243.332s2.1,5.495,9.624,5.11Z" transform="translate(-283.001 -243.332)" fill="#ff9a6c"/></g><g transform="translate(25.195 20.053)"><path d="M313.83,204.3a1.073,1.073,0,0,1-1.076,1.042,1.026,1.026,0,0,1-1.068-1.01,1.073,1.073,0,0,1,1.075-1.043A1.027,1.027,0,0,1,313.83,204.3Z" transform="translate(-311.686 -203.287)" fill="#263238"/></g><g transform="translate(24.106 16.723)"><path d="M313.4,196.783c-.139.135-.927-.5-2.082-.54-1.152-.058-2.023.5-2.142.357-.059-.065.086-.313.465-.566a2.943,2.943,0,0,1,1.722-.458,2.828,2.828,0,0,1,1.65.6C313.358,196.465,313.468,196.723,313.4,196.783Z" transform="translate(-309.164 -195.572)" fill="#263238"/></g><g transform="translate(15.2 19.799)"><path d="M290.676,203.708a1.073,1.073,0,0,1-1.076,1.042,1.027,1.027,0,0,1-1.068-1.01,1.074,1.074,0,0,1,1.076-1.042A1.027,1.027,0,0,1,290.676,203.708Z" transform="translate(-288.532 -202.697)" fill="#263238"/></g><g transform="translate(12.752 16.497)"><path d="M287.1,196.26c-.139.135-.929-.5-2.082-.54-1.152-.058-2.022.5-2.142.356-.059-.065.085-.312.466-.566a2.94,2.94,0,0,1,1.721-.458,2.827,2.827,0,0,1,1.651.6C287.054,195.942,287.165,196.2,287.1,196.26Z" transform="translate(-282.861 -195.049)" fill="#263238"/></g><g transform="translate(20.677 16.793)"><path d="M301.388,205.371a7.631,7.631,0,0,1,1.887-.265c.3-.019.578-.066.635-.266a1.5,1.5,0,0,0-.163-.881q-.374-1.085-.784-2.278a38.633,38.633,0,0,1-1.729-5.946,38.662,38.662,0,0,1,2.2,5.794q.391,1.2.747,2.29a1.708,1.708,0,0,1,.108,1.162.741.741,0,0,1-.5.412,2.014,2.014,0,0,1-.5.05A7.534,7.534,0,0,1,301.388,205.371Z" transform="translate(-301.22 -195.734)" fill="#263238"/></g><g transform="translate(12.177 12.242)"><path d="M286.813,186.145c-.126.309-1.273.116-2.633.227-1.363.083-2.47.437-2.639.148-.075-.138.127-.426.58-.712a4.6,4.6,0,0,1,4.016-.286C286.627,185.741,286.868,186,286.813,186.145Z" transform="translate(-281.526 -185.189)" fill="#263238"/></g><g transform="translate(24.127 13.302)"><path d="M313.133,188.921c-.213.254-1-.049-1.953-.1-.954-.083-1.773.107-1.948-.174-.077-.136.061-.394.424-.628a2.833,2.833,0,0,1,3.144.22C313.127,188.522,313.228,188.8,313.133,188.921Z" transform="translate(-309.211 -187.645)" fill="#263238"/></g><g transform="translate(2.405)"><path d="M285.995,167.679s-1.8-4.78-4.023-5.966c-2.694-1.435-3.993,1.532-6.581.7s-5.16-2.21-7.912-.291c-3.013,2.1-1.7,3.707-2.012,7.032-1.259,13.482-3.874,17.207-4.328,10.815-.05-.7-1.963-1.33-2.135-4.287-.224-3.834-.19-8.477.768-11.155a10.7,10.7,0,0,1,4.575-5.434c3.794-2.6,8.862-2.466,12.288-1.986S286.537,161.8,285.995,167.679Z" transform="translate(-258.888 -156.829)" fill="#263238"/></g><g transform="translate(0 20.9)"><path d="M258.457,207.3a2.04,2.04,0,0,0-2.125-2.05c-1.406.079-3,.814-3.016,3.712-.035,5.141,5.133,4.116,5.143,3.969C258.467,212.831,258.461,209.453,258.457,207.3Z" transform="translate(-253.317 -205.248)" fill="#ffbf9d"/></g><g transform="translate(1.756 22.568)"><path d="M259.667,213.186c-.022-.017-.09.062-.242.13a.9.9,0,0,1-.669.009,2.215,2.215,0,0,1-1.011-2,2.957,2.957,0,0,1,.259-1.28,1.034,1.034,0,0,1,.679-.682.456.456,0,0,1,.527.249c.068.144.035.246.062.256s.111-.085.071-.3a.573.573,0,0,0-.2-.323.675.675,0,0,0-.495-.134,1.259,1.259,0,0,0-.941.79,3.039,3.039,0,0,0-.32,1.43,2.324,2.324,0,0,0,1.291,2.229.96.96,0,0,0,.82-.13C259.657,213.31,259.685,213.2,259.667,213.186Z" transform="translate(-257.385 -209.112)" fill="#ff9a6c"/></g></g><g transform="translate(2.216)"><path d="M287.363,158.419c-.727-.666-1.8-.855-2.52-1.527-1.313-1.223-1.135-3.7-2.737-4.509-.95-.479-2.107-.114-3.15-.325-1.687-.341-2.221-1.692-4.809-1.95a4.72,4.72,0,0,0-4.683,2.068,3.893,3.893,0,0,0-3.906-.009,4.331,4.331,0,0,0-1.921,2.935s-.506-.32-2.244.8a8.456,8.456,0,0,0-2.607,3.6c-.736,1.815-.115,3.866.509,5.722a3.921,3.921,0,0,0,1.736,2.55,2.655,2.655,0,0,0,3.2-1.444c.592-1.15,1.462-2.279,2.152-3.372,1.2-1.9,2.4-3.659,1.683-5.018a5.847,5.847,0,0,1,3.594.326c1.133.5,2.082,1.35,3.2,1.874a3.148,3.148,0,0,0,3.482-.227,2.515,2.515,0,0,0,3.751,1.2,3.511,3.511,0,0,0,4.45,1.732A2.853,2.853,0,0,0,287.363,158.419Z" transform="translate(-258.45 -150.076)" fill="#263238"/></g><g transform="translate(2.658 13.897)"><path d="M259.48,182.272a6.268,6.268,0,0,1,.479,1.225,2.522,2.522,0,0,0,.741,1.114,2.24,2.24,0,0,0,1.564.335,3.846,3.846,0,0,0,1.592-.5,6.136,6.136,0,0,0,1.091-.865,7.9,7.9,0,0,1,.949-.911,4.444,4.444,0,0,1-.793,1.061,5.486,5.486,0,0,1-1.1.956,3.9,3.9,0,0,1-1.711.562,2.444,2.444,0,0,1-1.765-.418,2.584,2.584,0,0,1-.77-1.263A5.22,5.22,0,0,1,259.48,182.272Z" transform="translate(-259.474 -182.272)" fill="#455a64"/></g><g transform="translate(2.473 15.599)"><path d="M259.048,188.47a4.21,4.21,0,0,0,.955.657,2.874,2.874,0,0,0,1.209.223,3.5,3.5,0,0,0,1.454-.4,7.023,7.023,0,0,0,2.115-1.837,5.576,5.576,0,0,1,.789-.9,4.064,4.064,0,0,1-.618,1.031,6.231,6.231,0,0,1-2.148,1.977,3.555,3.555,0,0,1-1.588.407,2.864,2.864,0,0,1-1.306-.309C259.217,188.957,259.018,188.475,259.048,188.47Z" transform="translate(-259.045 -186.214)" fill="#455a64"/></g><g transform="translate(2.377 18.408)"><path d="M258.826,195.116a4.8,4.8,0,0,0,.96.515,3.123,3.123,0,0,0,2.494-.317,7.212,7.212,0,0,0,1.963-1.752,4.793,4.793,0,0,1,.748-.837,3.672,3.672,0,0,1-.577.97,6.246,6.246,0,0,1-1.987,1.888,3.543,3.543,0,0,1-1.472.45,2.829,2.829,0,0,1-1.244-.2C259.034,195.549,258.8,195.127,258.826,195.116Z" transform="translate(-258.824 -192.723)" fill="#455a64"/></g><g transform="translate(16.772 30.732)"><g transform="translate(0.139 0.176)"><path d="M292.989,221.682a6.513,6.513,0,0,0-.455,1.689,1.964,1.964,0,0,0,.411,1.56,2.155,2.155,0,0,0,1.58.923l.019,0a2.4,2.4,0,0,0,2.548-1.8l.324-1.247C296.249,222.368,293.07,221.773,292.989,221.682Z" transform="translate(-292.496 -221.682)" fill="#ff9a6c"/></g><path d="M295.6,225.374c0-.025-.151-.008-.412,0a3.532,3.532,0,0,1-1.079-.1,2.111,2.111,0,0,1-1.239-.893,2.649,2.649,0,0,1-.344-1.843,2.62,2.62,0,0,1,.375-1.009l-.166.063c1.131.283,2.121.518,2.831.673a4.933,4.933,0,0,0,1.149.194,4.975,4.975,0,0,0-1.1-.385c-.7-.207-1.677-.48-2.8-.779l-.105-.028-.06.091a2.989,2.989,0,0,0-.015,3.185,2.276,2.276,0,0,0,1.427.946,2.982,2.982,0,0,0,1.144,0A.921.921,0,0,0,295.6,225.374Z" transform="translate(-292.173 -221.274)" fill="#263238"/></g></g><g transform="translate(79.927 10.867)"><path d="M435.656,183.96a4.206,4.206,0,0,0,1.261-5.326,6.531,6.531,0,0,0-4.79-3.252,9.217,9.217,0,0,0-7.979,2.515c-1.108,1.108-2.013,2.56-3.5,3.053-1.307.433-2.74,0-4.108.161a6.192,6.192,0,0,0-4.383,3.064,13.375,13.375,0,0,0-1.62,5.253c-.224,1.679-.382,3.523-1.567,4.734-1.155,1.181-2.957,1.408-4.385,2.239a5.956,5.956,0,0,0-1.888,8.109c.548.825,1.342,1.586,1.392,2.576a7.379,7.379,0,0,1-.835,2.557,4.02,4.02,0,0,0,3.366,5.042c1.173.085,2.438-.355,3.482.186s1.408,1.8,2.062,2.77a5.027,5.027,0,0,0,6.106,1.673c.87-.411,1.7-1.1,2.654-1.019s1.7.907,2.638,1.1a3.4,3.4,0,0,0,3.163-1.644,17.16,17.16,0,0,1,2.228-3.025c1.245-1.075,2.976-1.32,4.54-1.833a12.727,12.727,0,0,0,7.447-17.722" transform="translate(-401.826 -175.251)" fill="#263238"/><g transform="translate(11.306 29.514)"><path d="M432.332,244.666a3.45,3.45,0,0,0-1.359-.923l.1-.005a2.062,2.062,0,0,0-.293-.054,1.363,1.363,0,0,0-1.074.117h.01a2.537,2.537,0,0,0-1.406,1.188,3,3,0,0,0,.309,3.1,2.3,2.3,0,0,0,4.224-.727A2.849,2.849,0,0,0,432.332,244.666Z" transform="translate(-428.018 -243.627)" fill="#455a64"/></g><g transform="translate(13.418 9.049)"><path d="M457.113,236.563l2.279-32.952a2.8,2.8,0,0,0-2.381-2.945l-14.682-4.392c-4.732-.707-8.145,5.01-8.651,9.768-.562,5.286-1.04,11.762-.582,15.744.92,8.007,7.45,9.313,7.45,9.313,0-.027-.071,8.139-.161,11.03l-1.948,8.938Z" transform="translate(-432.912 -196.216)" fill="#ae7461"/><g transform="translate(2.321 14.859)"><path d="M438.293,231.519a1.021,1.021,0,0,0,.939,1.071.977.977,0,0,0,1.091-.875,1.021,1.021,0,0,0-.938-1.072A.977.977,0,0,0,438.293,231.519Z" transform="translate(-438.29 -230.639)" fill="#263238"/></g><g transform="translate(2.058 11.735)"><path d="M437.7,224.392c.121.139.918-.4,2.016-.35,1.1.035,1.878.634,2,.5.061-.057-.058-.3-.4-.573a2.8,2.8,0,0,0-1.6-.568,2.691,2.691,0,0,0-1.611.445C437.76,224.094,437.636,224.329,437.7,224.392Z" transform="translate(-437.681 -223.402)" fill="#263238"/></g><g transform="translate(12.225 15.627)"><path d="M461.237,233.3a1.02,1.02,0,0,0,.939,1.071.977.977,0,0,0,1.091-.875,1.021,1.021,0,0,0-.938-1.072A.977.977,0,0,0,461.237,233.3Z" transform="translate(-461.234 -232.418)" fill="#263238"/></g><g transform="translate(12.838 12.404)"><path d="M462.668,225.942c.121.139.919-.4,2.016-.35,1.1.034,1.878.634,2,.5.061-.057-.057-.3-.4-.573a2.8,2.8,0,0,0-1.6-.568,2.7,2.7,0,0,0-1.611.445C462.734,225.644,462.608,225.88,462.668,225.942Z" transform="translate(-462.653 -224.953)" fill="#263238"/></g><g transform="translate(5.755 12.238)"><path d="M449.009,233.69a7.274,7.274,0,0,0-1.768-.4c-.279-.041-.542-.108-.581-.3a1.429,1.429,0,0,1,.223-.823l.921-2.1a36.717,36.717,0,0,0,2.1-5.5,36.778,36.778,0,0,0-2.539,5.32q-.464,1.106-.887,2.112a1.621,1.621,0,0,0-.193,1.094.7.7,0,0,0,.443.43,1.877,1.877,0,0,0,.473.086A7.137,7.137,0,0,0,449.009,233.69Z" transform="translate(-446.246 -224.567)" fill="#263238"/></g><g transform="translate(7.566 32.457)"><path d="M450.462,273.824a19.109,19.109,0,0,0,10.295-2.414s-2.39,5.884-10.317,4.8Z" transform="translate(-450.44 -271.41)" fill="#6f4439"/></g><g transform="translate(8.396 22.887)"><path d="M452.536,250.329a2.7,2.7,0,0,1,2.274-1.083,1.76,1.76,0,0,1,1.41.848,1.613,1.613,0,0,1-1.911,2.336,4.012,4.012,0,0,1-1.573-1.069,1.252,1.252,0,0,1-.329-.426.559.559,0,0,1,.067-.555" transform="translate(-452.363 -249.239)" fill="#6f4439"/></g><g transform="translate(8.092 22.259)"><path d="M455.283,247.784c-.178-.018-.231,1.173-1.288,1.975s-2.318.616-2.335.782c-.02.074.273.244.808.281a2.969,2.969,0,0,0,1.946-.586,2.583,2.583,0,0,0,1-1.659C455.485,248.082,455.365,247.781,455.283,247.784Z" transform="translate(-451.66 -247.784)" fill="#263238"/></g><g transform="translate(12.557 8.118)"><path d="M462.008,215.76c.1.3,1.2.209,2.478.419,1.285.185,2.307.606,2.49.346.082-.125-.087-.413-.495-.72a4.37,4.37,0,0,0-3.785-.583C462.216,215.391,461.968,215.616,462.008,215.76Z" transform="translate(-462.004 -215.023)" fill="#263238"/></g><g transform="translate(2.597 7.906)"><path d="M438.954,215.59c.183.258.95.032,1.859.059.911-.005,1.672.24,1.86-.013.083-.123-.027-.378-.354-.629a2.693,2.693,0,0,0-3-.036C438.991,215.213,438.874,215.465,438.954,215.59Z" transform="translate(-438.93 -214.533)" fill="#263238"/></g></g><g transform="translate(8.287 4.567)"><path d="M421.627,197.854a5.467,5.467,0,0,1,2.143-2.98,20.209,20.209,0,0,0,1.787-1c1.163-.911,1.453-2.523,2.182-3.808a6.008,6.008,0,0,1,4.622-2.97c1.579-.138,3.2.359,4.739-.007,1.14-.27,2.143-.993,3.3-1.194,2.248-.393,4.307,1.245,5.909,2.871-.017,1.6-1.311,2.658-2.557,3.67a5.563,5.563,0,0,1-4.522,1.123c-1.221-.242-2.554-.88-3.623-.243-1.125.67-1.2,2.349-2.2,3.193-1.43,1.206-3.66.022-5.462.528-1.391.391-2.275,1.7-3.212,2.8s-2.33,2.139-3.709,1.708A16.287,16.287,0,0,1,421.627,197.854Z" transform="translate(-421.024 -185.831)" fill="#263238"/></g><g transform="translate(25.784 5.295)"><path d="M461.594,192.278c1.009-.273,3.075-.893,3.626-1.757a6.14,6.14,0,0,1,5.386-2.992,5.069,5.069,0,0,1,4.505,4.073,7.29,7.29,0,0,1,6.205,4.124,7.6,7.6,0,0,1,.384.941,5.544,5.544,0,0,1,.3,4.66c-.361.9-.968,1.9-.513,2.762.462.875,1.663.919,2.593,1.255a3.683,3.683,0,0,1,2.259,4.146,4.482,4.482,0,0,0-.319,1.806,3.951,3.951,0,0,0,1.06,1.582,4.582,4.582,0,0,1-2.8,7.419,5.914,5.914,0,0,0-2.115.45c-.716.426-1.039,1.275-1.549,1.934a3.953,3.953,0,0,1-4.3,1.279,3.625,3.625,0,0,1-.854-.445,2.837,2.837,0,0,1-2.531,1.077l.54-16.771a1.388,1.388,0,0,1-1.028.782c-2.7.57-3.014-4.985-2.391-6.48a15.658,15.658,0,0,1-2.661-2.88,11.3,11.3,0,0,1-1.159-5.462C465.265,193.824,461.151,192.4,461.594,192.278Z" transform="translate(-461.561 -187.518)" fill="#263238"/></g><g transform="translate(36.848 25.32)"><path d="M487.283,235.542c.111-1.7,2.2-2.038,3.668-1.162.8.481,1.411,1.433,1.31,3.242-.27,4.824-5.058,3.558-5.058,3.42C487.2,240.956,487.154,237.537,487.283,235.542Z" transform="translate(-487.193 -233.911)" fill="#ae7461"/></g><g transform="translate(38.428 26.938)"><path d="M490.858,241.426c.022-.014.081.063.219.137a.841.841,0,0,0,.628.048,2.082,2.082,0,0,0,1.066-1.812,2.785,2.785,0,0,0-.168-1.216.973.973,0,0,0-.6-.681.429.429,0,0,0-.509.2c-.072.131-.047.229-.073.236s-.1-.087-.049-.284a.538.538,0,0,1,.207-.292.638.638,0,0,1,.472-.1,1.183,1.183,0,0,1,.836.8,2.858,2.858,0,0,1,.216,1.361,2.185,2.185,0,0,1-1.342,2.015.9.9,0,0,1-.761-.17C490.86,241.543,490.841,241.434,490.858,241.426Z" transform="translate(-490.853 -237.659)" fill="#6f4439"/></g><g transform="translate(32.482 8.846)"><path d="M477.079,195.748a2.882,2.882,0,0,1,.951.821,4.453,4.453,0,0,1,.306,3.344l-.028.121.119.032a4.667,4.667,0,0,1,3.07,2.785,3.636,3.636,0,0,1,.233,1.181,7.112,7.112,0,0,1-.17,1.273,9.577,9.577,0,0,0-.2,1.371,2.271,2.271,0,0,0,.361,1.43,5.86,5.86,0,0,0,2.368,1.835,8.116,8.116,0,0,1,2.22,1.5,6.033,6.033,0,0,1,1.743,4.071,6.3,6.3,0,0,1-.679,2.974c-.331.654-.6.965-.577.985.009.008.08-.066.209-.214a5.168,5.168,0,0,0,.484-.709,6.125,6.125,0,0,0,.8-3.039,6.21,6.21,0,0,0-1.76-4.288,8.308,8.308,0,0,0-2.288-1.576,5.615,5.615,0,0,1-2.236-1.721,3.326,3.326,0,0,1-.117-2.557,7.282,7.282,0,0,0,.168-1.338,3.909,3.909,0,0,0-.263-1.292,4.893,4.893,0,0,0-3.3-2.917l.091.153a4.484,4.484,0,0,0-.436-3.486,2.03,2.03,0,0,0-.746-.627A1.171,1.171,0,0,0,477.079,195.748Z" transform="translate(-477.077 -195.746)" fill="#455a64"/></g><g transform="translate(35.895 31.5)"><path d="M489.3,249.267a3.446,3.446,0,0,0-1.359-.923l.1,0a2.008,2.008,0,0,0-.293-.054,1.364,1.364,0,0,0-1.074.117h.01a2.536,2.536,0,0,0-1.405,1.188,3,3,0,0,0,.309,3.1,2.3,2.3,0,0,0,4.224-.727A2.849,2.849,0,0,0,489.3,249.267Z" transform="translate(-484.986 -248.228)" fill="#455a64"/></g></g><g transform="translate(50.797 85.482)"><g transform="translate(12.089 0.914)"><path d="M362.346,350.715a4.317,4.317,0,0,1,2.482-.424c1.164.255,5.389,3.01,5.389,3.01l5.877,1.949-2.564,10.984-4.128-1.845-7.055,3.407Z" transform="translate(-362.346 -350.234)" fill="#ae7461"/></g><g transform="translate(0 0)"><path d="M335.691,352.1a20.645,20.645,0,0,0,4.374-.987c1.163-.581,3.937-3.042,4.518-3s3.975.914,3.975.914l-2.141,2.084s4.205,2.55,5.458,3.489,5.189,5.144,5.368,6.173a3.179,3.179,0,0,1-.626,2.639c-.492.4-2.281-.4-2.281-.4a2.236,2.236,0,0,1-.4,1.834c-.671.895-2.237.581-2.237.581s-.134,1.476-.85,1.745-2.326-.536-2.326-.536-.486,1.252-1.07,1.386-2.24-.85-2.24-.85-7.158-5.144-8.768-5.9a8.243,8.243,0,0,0-2.1-.805Z" transform="translate(-334.339 -348.116)" fill="#ffbf9d"/></g><g transform="translate(13.134 16.47)"><path d="M365.814,388.324c-.032,0-.052-.126-.128-.314a5.587,5.587,0,0,0-.36-.714,4.552,4.552,0,0,1-.554-1.02,2.512,2.512,0,0,1,.74.912,2.659,2.659,0,0,1,.319.78C365.875,388.185,365.841,388.326,365.814,388.324Z" transform="translate(-364.766 -386.273)" fill="#ff9a6c"/></g><g transform="translate(15.275 15.007)"><path d="M371.607,385.527a11.312,11.312,0,0,1-.9-1.351c-.49-.745-1.014-1.242-.976-1.288a3.158,3.158,0,0,1,1.154,1.168A4.344,4.344,0,0,1,371.607,385.527Z" transform="translate(-369.726 -382.883)" fill="#ff9a6c"/></g><g transform="translate(18.248 12.033)"><path d="M378.394,379.029c-.063.016-.263-.758-.758-1.593s-1.064-1.392-1.02-1.44a4.392,4.392,0,0,1,1.777,3.033Z" transform="translate(-376.614 -375.994)" fill="#ff9a6c"/></g><g transform="translate(17.904 9.486)"><path d="M375.845,370.092a4.025,4.025,0,0,1,.107,2.415,24.524,24.524,0,0,1-.107-2.415Z" transform="translate(-375.818 -370.092)" fill="#ff9a6c"/></g><g transform="translate(7.516 0.914)"><path d="M351.751,354.778a28.047,28.047,0,0,1,1.521-4.026c.4-.448,5.184-.518,5.184-.518l.12,2.084-.83.878-1.789-.117A3.064,3.064,0,0,1,351.751,354.778Z" transform="translate(-351.751 -350.234)" fill="#ae7461"/></g><g transform="translate(2.005 13.12)"><path d="M339.19,378.512s-.463.357,0,1.207,1.719.243,2.124,0c0,0-.608,1.417.162,1.863a3.024,3.024,0,0,0,1.7.324,1.655,1.655,0,0,0,1.053,1.418c1.093.567,1.377,0,1.377,0s.123,1.4,1.377,1.539a2.24,2.24,0,0,0,1.348-.136l-.48-.278s1-2.219.429-2.867a1.941,1.941,0,0,0-1.5-.567s.248-1.316-.474-1.682a1.329,1.329,0,0,0-1.915.589s-.081-1.442-1.134-1.409a2.343,2.343,0,0,0-1.62.681Z" transform="translate(-338.985 -378.512)" fill="#ae7461"/><g transform="translate(4.209 1.409)"><path d="M349.934,381.777a5.329,5.329,0,0,1-1.193,2.027,10.917,10.917,0,0,1,1.193-2.027Z" transform="translate(-348.736 -381.776)" fill="#6f4439"/></g><g transform="translate(6.599 2.54)"><path d="M355.5,384.4a4.415,4.415,0,0,1-1.226,2.148A41.952,41.952,0,0,1,355.5,384.4Z" transform="translate(-354.272 -384.396)" fill="#6f4439"/></g></g></g><g transform="translate(0 40.763)"><g transform="translate(4.186 76.723)"><g transform="translate(33.919)"><path d="M313.386,422.26H306.6l-1.665,23.656,6.932-.134c1.158-3.758,2.883-22.742,2.883-22.742Z" transform="translate(-304.935 -422.26)" fill="#263238"/></g><path d="M230.292,422.26s-4.342,10.184-3.908,14.305a43.86,43.86,0,0,0,2.492,9.35l34.257-.055a63.8,63.8,0,0,0,1.393-7.459c.723-5.092,2.678-16.142,2.678-16.142Z" transform="translate(-226.353 -422.26)" fill="#263238"/></g><g transform="translate(2.16)"><path d="M259.029,258.115s4.162,16.972,4.754,20.92c1.085,7.243,5.163,37.746,4.607,40.434s-.925,5.485-.925,5.485-34.149-2.15-37.82-1.828-5.228.215-6.118-3.977.027-25.982-.752-31.249-.785-7.821-1.086-15.647c-.261-6.782,1.282-12.223,4.508-16.149s10.366-7.9,10.366-7.9l2.533-3.694,18.352,9.172.309-2.83.76,4.339Z" transform="translate(-221.66 -244.514)" fill="#455a64"/></g><g transform="translate(6.177 27.892)" opacity="0.3"><path d="M272.632,341.829c-.3-.761-1.267-.952-2.079-1.042-7.594-.843-15.5-2.738-21.046-7.993a39.381,39.381,0,0,1-5.531-7.034c-3.6-5.45-6.993-11.04-10.381-16.628l-2.63.995a106.314,106.314,0,0,0,5.828,20.069c2.63,6.474,4.667,12.742,11.327,14.86,4.3,1.369,12.48.319,16.983-.033a26.337,26.337,0,0,0,5.579-.874,3.643,3.643,0,0,0,1.51-.767A1.49,1.49,0,0,0,272.632,341.829Z" transform="translate(-230.966 -309.132)"/></g><g transform="translate(0 9.908)"><g transform="translate(0.09)"><path d="M227.031,267.468c-5.921.909-10.209,9.394-9.56,14.5.051.4-2.819,35.949,3.488,38.785,4.992,2.244,23.217.549,31.672.064a19.274,19.274,0,0,0,6.76-1.644l5.3-2.368c-.02.031,4.485-.978,4.485-.978s1.518-3.591-.321-10.156l-8.622.365-21.509-.016a2.387,2.387,0,0,0-2.7-1.024l2.3-23.735" transform="translate(-216.863 -267.468)" fill="#455a64"/></g><path d="M238.21,281.265s-.006.14-.029.414-.06.684-.107,1.215c-.1,1.074-.246,2.652-.434,4.691l-1.654,17.423-.092-.082a2.944,2.944,0,0,1,1.518.044,2.463,2.463,0,0,1,1.263,1.009l-.067-.036,13.959,0c2.526-.006,5.144.013,7.843-.013l8.325-.357.083,0,.022.08a24.131,24.131,0,0,1,.874,4.982,13.667,13.667,0,0,1-.554,5.245l-.017.051-.06.013-2.366.527-1.2.263-.6.129-.31.061-.021,0a.115.115,0,0,1-.107-.169s-.011,0-.016.006l-.036.016-.071.032-.142.065a22.041,22.041,0,0,0-2.27,1.13,8.488,8.488,0,0,1-1.044.564l-1.118.507a19.925,19.925,0,0,1-4.864,1.572,19.69,19.69,0,0,1-2.582.3l-2.6.164c-6.032.4-11.925.822-17.632.886a57.5,57.5,0,0,1-8.392-.4,14.613,14.613,0,0,1-2.015-.421,6.711,6.711,0,0,1-.967-.357,2.881,2.881,0,0,1-.827-.633,6.361,6.361,0,0,1-1.062-1.726,14.528,14.528,0,0,1-.654-1.879A42.758,42.758,0,0,1,217,309.008c-.2-2.477-.287-4.887-.326-7.217-.07-4.661.055-9,.231-12.961.089-1.979.2-3.863.309-5.644.02-.44.074-.895.06-1.3a8.991,8.991,0,0,1-.047-1.288,12.425,12.425,0,0,1,.328-2.428,17.3,17.3,0,0,1,3.6-7.171,10.689,10.689,0,0,1,4.04-3.063,7.55,7.55,0,0,1,1.269-.389c.295-.054.446-.075.446-.075s-.149.037-.441.1a8.1,8.1,0,0,0-1.257.408,10.758,10.758,0,0,0-3.991,3.077,17.284,17.284,0,0,0-3.545,7.142,12.348,12.348,0,0,0-.317,2.4,8.894,8.894,0,0,0,.051,1.268c.016.455-.038.879-.056,1.329-.107,1.781-.208,3.664-.293,5.643-.166,3.956-.281,8.295-.2,12.951.042,2.327.133,4.734.337,7.2a42.642,42.642,0,0,0,1.191,7.531,9.02,9.02,0,0,0,1.671,3.517,2.659,2.659,0,0,0,.765.586,6.546,6.546,0,0,0,.935.343,14.431,14.431,0,0,0,1.986.413,57.416,57.416,0,0,0,8.359.391c5.7-.067,11.587-.487,17.619-.89a47.912,47.912,0,0,0,5.157-.461,19.734,19.734,0,0,0,4.825-1.561l1.184-.521a10.479,10.479,0,0,1,1.246-.458,20.281,20.281,0,0,0,2.27-.9l.14-.062.07-.031.035-.016.009,0,0,0c-.037-.026.089.055-.082-.059.024.014.08.031.094-.045a.091.091,0,0,0-.095-.069c-.017,0,0,0,0,0l.295-.058.6-.128,1.2-.262,2.366-.525-.077.064a13.512,13.512,0,0,0,.54-5.147,24,24,0,0,0-.862-4.938l.106.077-8.33.348c-2.7.022-5.319,0-7.845,0l-13.961-.025h-.044l-.024-.036a2.3,2.3,0,0,0-1.179-.95,2.79,2.79,0,0,0-1.436-.044l-.1.021.01-.1c.732-7.4,1.319-13.329,1.723-17.416l.475-4.687.128-1.213C238.19,281.4,238.21,281.265,238.21,281.265Z" transform="translate(-216.655 -267.468)" fill="#263238"/></g><g transform="translate(18.189 4.185)"><path d="M278.553,260.584a2.8,2.8,0,0,1-.408-.211l-1.131-.646.079-.035c-.224,1.13-.44,2.794-.819,4.786l-.025.132-.116-.073c-1.664-1.048-3.66-2.247-5.791-3.535-1.588-.95-3.072-1.91-4.44-2.74s-2.63-1.534-3.687-2.127l-2.51-1.4-.681-.382a.137.137,0,1,1,.02-.038l.7.347c.605.307,1.476.761,2.544,1.337s2.332,1.276,3.716,2.09l4.45,2.726c2.129,1.287,4.122,2.5,5.778,3.562l-.14.06c.4-1.978.641-3.643.9-4.771l.017-.074.063.039,1.105.69A2.875,2.875,0,0,1,278.553,260.584Z" transform="translate(-258.794 -254.21)" fill="#263238"/></g><g transform="translate(20.708 5.525)" opacity="0.3"><path d="M264.631,257.314l9.353,6.969a23.416,23.416,0,0,0,6.609,3.877q-.067-3.25-.135-6.5l-.957,4.563Z" transform="translate(-264.631 -257.314)"/></g><g transform="translate(46.417 48.478)"><path d="M325.287,367.886a1.652,1.652,0,0,1-.044-.438q-.017-.5-.042-1.193c-.032-1.007-.074-2.4-.2-3.929s-.324-2.907-.506-3.9-.332-1.595-.3-1.6a1.66,1.66,0,0,1,.151.414c.086.27.186.666.3,1.159a29.173,29.173,0,0,1,.574,3.909c.129,1.538.145,2.936.137,3.946-.005.5-.016.913-.029,1.2A1.664,1.664,0,0,1,325.287,367.886Z" transform="translate(-324.192 -356.825)" fill="#263238"/></g><g transform="translate(11.352 11.665)"><path d="M249.183,279.233c-.038.011-.2-.535-.573-1.37a13.62,13.62,0,0,0-4.435-5.476c-.739-.538-1.239-.811-1.22-.846a1.408,1.408,0,0,1,.369.159,8.574,8.574,0,0,1,.942.556,12.145,12.145,0,0,1,4.49,5.544,8.6,8.6,0,0,1,.348,1.037A1.383,1.383,0,0,1,249.183,279.233Z" transform="translate(-242.955 -271.54)" fill="#263238"/></g></g><g transform="translate(73.752 53.374)"><g transform="translate(0 37.015)"><path d="M390.6,359.5c-1.782-.39,21.745,5.813,21.943,5.846l11.171-3.581-9.6,19.842-26.6-8.858Z" transform="translate(-387.52 -359.483)" fill="#ff725e"/><g transform="translate(9.334 2.339)" opacity="0.3"><path d="M413.459,365.435l-2.012-.534-2.3,14.037,3.993,1.33Z" transform="translate(-409.144 -364.901)"/></g></g><g transform="translate(6.159)"><g transform="translate(19.454)"><path d="M446.859,289.8l.725-9.132,18.211-6.936.647,3.408L454.036,282.9Z" transform="translate(-446.859 -273.728)" fill="#e0e0e0"/></g><g transform="translate(0 1.397)"><path d="M441.765,280.577s4.647,7.284,6.075,12.762c1.539,5.9.206,16.324.206,16.324L442.8,333.208a7.027,7.027,0,0,1,1.347,3.122c.207,1.7-1.658,3.6-1.658,3.6s-.812-.487,2.3,5.1,3.265,18.315,3.265,18.315H401.789c2.2-10.8,6.706-27.952,6.706-28.235s.025-11.9.025-11.9-.2-11.256.833-15.324,10.713-18.987,15.367-22.772c4.948-4.025,16.1-8.145,16.1-8.145l.939,3.613" transform="translate(-401.789 -276.964)" fill="#ff725e"/></g><g transform="translate(9.242 64.447)"><g transform="translate(0.002 0.064)"><path d="M423.211,429.488c-.142-.49,3.445-6.3,3.445-6.3l20.565,3.152,1.431,5.275Z" transform="translate(-423.206 -423.184)" fill="#ff725e"/></g><path d="M423.207,429.4a1,1,0,0,1,.133,0l.38.025,1.456.108,5.378.423,18.1,1.476-.1.107-1.082-3.984-.35-1.291.077.065-20.56-3.18.066-.029c-1.19,1.925-2.108,3.479-2.707,4.561-.3.541-.518.964-.648,1.257a2.231,2.231,0,0,0-.128.338.587.587,0,0,0-.018.12.835.835,0,0,1,.113-.469c.12-.3.329-.727.619-1.273.581-1.092,1.482-2.656,2.658-4.59l.022-.036.044.007,20.57,3.123.062.009.015.056.35,1.291c.37,1.365.733,2.706,1.08,3.984l.032.118-.133-.011-18.15-1.55-5.356-.473-1.437-.133-.369-.037A.87.87,0,0,1,423.207,429.4Z" transform="translate(-423.201 -423.035)" fill="#263238"/></g><g transform="translate(7.345 5.009)"><path d="M451.436,285.333a.806.806,0,0,1-.127.036l-.377.091c-.332.08-.821.2-1.448.359-1.251.326-3.063.811-5.224,1.6-.539.2-1.1.417-1.671.667-.287.124-.578.252-.866.4-.144.072-.295.139-.437.217s-.282.158-.416.253a21.978,21.978,0,0,0-3.079,2.8c-2.013,2.124-4.066,4.584-6.171,7.2s-4.045,5.149-5.786,7.469c-.87,1.161-1.687,2.269-2.442,3.312a26.429,26.429,0,0,0-1.951,2.976,31.978,31.978,0,0,0-2.046,4.665c-.2.565-.342,1.008-.439,1.308l-.108.342a.64.64,0,0,1-.042.116.575.575,0,0,1,.023-.12c.023-.087.053-.2.09-.347.084-.3.216-.75.4-1.32a30.086,30.086,0,0,1,2-4.7,26.108,26.108,0,0,1,1.94-3c.75-1.048,1.563-2.159,2.429-3.322,1.734-2.326,3.675-4.862,5.778-7.482s4.166-5.074,6.192-7.2a21.925,21.925,0,0,1,3.119-2.813c.137-.1.29-.174.432-.26s.3-.145.443-.217c.292-.145.586-.272.875-.4.577-.248,1.141-.464,1.684-.66a51.29,51.29,0,0,1,5.254-1.55c.63-.153,1.123-.258,1.458-.328l.382-.074A.689.689,0,0,1,451.436,285.333Z" transform="translate(-418.804 -285.332)" fill="#263238"/></g><g transform="translate(25.426 51.756)"><path d="M472.357,404.221a4.4,4.4,0,0,1-.569-.293c-.361-.2-.871-.5-1.487-.893a34.465,34.465,0,0,1-4.5-3.445,32.834,32.834,0,0,1-3.8-4.087c-.434-.56-.77-1.023-.987-1.352a3.87,3.87,0,0,1-.324-.517,3.931,3.931,0,0,1,.387.48c.235.316.587.768,1.033,1.317a37.7,37.7,0,0,0,3.823,4.036,39.256,39.256,0,0,0,4.441,3.467c.6.4,1.1.723,1.448.937A4.269,4.269,0,0,1,472.357,404.221Z" transform="translate(-460.695 -393.634)" fill="#263238"/></g><g transform="translate(9.909 70.87)" opacity="0.3"><path d="M424.745,437.915l.622,2.068,23.288-.073Z" transform="translate(-424.745 -437.915)"/></g></g><g transform="translate(21.493 13.058)"><g transform="translate(0.133)"><path d="M442.887,313.053l.445,33.677-5.711,31.961h15.009s6.625-24.066,8.193-29.3c1.522-5.082,3.8-30.661,4.005-31.917.079-.492,1.685-9.327-3.042-13.494" transform="translate(-437.622 -303.981)" fill="#ff725e"/></g><path d="M461.612,303.981s.1.09.284.275l.345.345c.067.07.146.141.218.226l.215.289a10.011,10.011,0,0,1,1.863,4.034,20.788,20.788,0,0,1,.354,7.047c-.067.69-.2,1.392-.268,2.123s-.149,1.489-.227,2.268q-.232,2.337-.49,4.935c-.35,3.46-.744,7.251-1.219,11.318-.239,2.033-.5,4.136-.8,6.3-.148,1.082-.319,2.177-.5,3.286-.094.554-.209,1.109-.314,1.67-.127.556-.263,1.121-.418,1.675l-8.085,28.95-.023.082H437.314l.024-.13c2.112-11.78,4.061-22.651,5.73-31.958l0,.017c-.118-10.2-.216-18.616-.284-24.49-.028-2.93-.05-5.225-.065-6.794,0-.777-.008-1.374-.01-1.783s.006-.61.006-.61.012.207.022.61.021,1,.037,1.782c.027,1.569.066,3.863.115,6.794.087,5.874.212,14.291.363,24.489v.009l0,.009c-1.658,9.308-3.594,20.181-5.693,31.964l-.109-.13,12.935,0h2.074l-.108.082,8.1-28.949c.157-.555.289-1.1.416-1.658.105-.558.221-1.11.315-1.662.186-1.106.358-2.2.508-3.279.309-2.159.571-4.261.814-6.293.483-4.065.886-7.854,1.245-11.312q.266-2.594.505-4.933.121-1.167.236-2.268c.067-.738.207-1.439.276-2.122a20.835,20.835,0,0,0-.315-7.014,10.09,10.09,0,0,0-1.814-4.027l-.21-.291c-.071-.086-.148-.158-.214-.228l-.336-.351C461.7,304.082,461.612,303.981,461.612,303.981Z" transform="translate(-437.314 -303.981)" fill="#263238"/></g><g transform="translate(30.933 11.777)"><path d="M470.027,301.318c-.007.043-.714-.13-1.873-.137a10.01,10.01,0,0,0-7.884,3.72c-.732.9-1.048,1.554-1.086,1.533a1.958,1.958,0,0,1,.207-.465,8.435,8.435,0,0,1,.754-1.166,9.612,9.612,0,0,1,8.012-3.78,8.426,8.426,0,0,1,1.379.16A1.934,1.934,0,0,1,470.027,301.318Z" transform="translate(-459.183 -301.014)" fill="#263238"/></g></g></g></g></g></svg>