<svg xmlns="http://www.w3.org/2000/svg" width="103.693" height="103.694" viewBox="0 0 103.693 103.694"><g transform="translate(-0.037 0.005)"><path d="M41.29,36.286A19.442,19.442,0,1,0,20.928,55.706a3.3,3.3,0,0,1,1.683.53l8.958,5.972V54.874a3.154,3.154,0,0,1,1.32-2.605,19.4,19.4,0,0,0,8.4-15.983Z" transform="translate(-0.774 -5.504)" fill="#f8c460"/><path d="M27.47,53.873a3.3,3.3,0,0,0-1.683-.53A19.363,19.363,0,0,1,13.758,19.528a19.413,19.413,0,0,0,7.168,37.055,3.3,3.3,0,0,1,1.683.53l8.958,5.972V56.6Z" transform="translate(-0.772 -6.381)" fill="#faaf42"/><path d="M112.518,16.856A19.625,19.625,0,0,0,93.838,35.828a19.4,19.4,0,0,0,8.379,16.427,3.167,3.167,0,0,1,1.341,2.613v7.338l8.955-5.969a3.292,3.292,0,0,1,1.69-.533,19.442,19.442,0,0,0-1.685-38.848Z" transform="translate(-30.639 -5.502)" fill="#f8c460"/><path d="M108.42,56.969V59.84l-4.86,3.24V55.741a3.185,3.185,0,0,0-1.353-2.625A19.442,19.442,0,0,1,93.838,36.7a19.646,19.646,0,0,1,11.374-17.19,19.262,19.262,0,0,0-.842,28.107A13.285,13.285,0,0,1,108.42,56.969Z" transform="translate(-30.64 -6.376)" fill="#faaf42"/><path d="M60.154,84.216H82.837V98.8A11.341,11.341,0,0,1,71.5,110.139h0A11.341,11.341,0,0,1,60.154,98.8Z" transform="translate(-19.638 -27.512)" fill="#ffd3b6"/><path d="M74.736,106.9A11.341,11.341,0,0,1,63.395,95.557V84.216h-3.24V98.8a11.341,11.341,0,0,0,20.813,6.231A11.281,11.281,0,0,1,74.736,106.9Z" transform="translate(-19.638 -27.512)" fill="#f9b995"/><path d="M78.024,73.019h0a3.24,3.24,0,0,0-3.24-3.24H65.063A9.721,9.721,0,0,0,55.342,79.5h0a6.481,6.481,0,0,0,6.481,6.481h4.352a12.962,12.962,0,0,0,9.166-3.8L76.4,81.12h0a4.861,4.861,0,0,0,4.86,4.861h0V76.259A3.24,3.24,0,0,0,78.024,73.019Z" transform="translate(-18.066 -22.796)" fill="#8e969b"/><path d="M78.627,79.59l-.047.047a12.961,12.961,0,0,1-9.165,3.8H65.238a6.626,6.626,0,0,1-6.656-6.764A9.661,9.661,0,0,1,60,71.9a9.708,9.708,0,0,0-4.663,8.331A6.528,6.528,0,0,0,61.9,86.673h4.277a12.962,12.962,0,0,0,9.166-3.8L76.4,81.812a4.861,4.861,0,0,0,4.86,4.861v-4.5a4.9,4.9,0,0,1-1.419-2.226.732.732,0,0,0-1.218-.355Z" transform="translate(-18.066 -23.488)" fill="#778084"/><path d="M93.84,93.84h1.62a3.24,3.24,0,0,1,3.24,3.24h0a3.24,3.24,0,0,1-3.24,3.24H93.84Z" transform="translate(-30.642 -30.656)" fill="#ffd3b6"/><path d="M0,0H1.62a3.24,3.24,0,0,1,3.24,3.24h0a3.24,3.24,0,0,1-3.24,3.24H0Z" transform="translate(40.516 69.665) rotate(180)" fill="#ffd3b6"/><path d="M56.272,122.714H75.714a12.961,12.961,0,0,1,12.961,12.961v6.481H43.311v-6.481a12.961,12.961,0,0,1,12.961-12.961Z" transform="translate(-14.136 -40.088)" fill="#f8c460"/><path d="M54.652,138.119a6.481,6.481,0,0,1-6.481-6.481h0a12.9,12.9,0,0,1,1.7-6.4A12.95,12.95,0,0,0,43.311,136.5v6.481H88.676v-4.861Z" transform="translate(-14.136 -40.911)" fill="#faaf42"/><path d="M45.328,21.084a19.022,19.022,0,0,0-2.014,8.1,19.4,19.4,0,0,0,9.348,16.978,19.33,19.33,0,0,0-7.334-25.08Z" transform="translate(-14.136 -6.889)" fill="#faaf42"/><path d="M103.163,21.084a19.022,19.022,0,0,1,2.014,8.1,19.4,19.4,0,0,1-9.348,16.978,19.33,19.33,0,0,1,7.334-25.08Z" transform="translate(-30.641 -6.889)" fill="#faaf42"/><path d="M87.006,21.841a19.442,19.442,0,1,0-25.045,18.6,3.352,3.352,0,0,1,1.909,1.408l3.694,5.91,3.692-5.907a3.37,3.37,0,0,1,1.913-1.413,19.442,19.442,0,0,0,13.836-18.6Z" transform="translate(-15.707 -0.781)" fill="#f8c460"/><path d="M96.689,19.031a.81.81,0,0,1-.727-.455A15.41,15.41,0,0,0,92.883,14.3a.81.81,0,1,1,1.134-1.157,16.97,16.97,0,0,1,3.4,4.723.81.81,0,0,1-.373,1.084A.821.821,0,0,1,96.689,19.031Z" transform="translate(-30.25 -4.219)" fill="#fff"/><path d="M71.5,43.121a19.329,19.329,0,0,0-7.752-7.053A19.418,19.418,0,0,1,52.986,18.3,19.2,19.2,0,0,1,56.55,7.6,19.374,19.374,0,0,0,61.972,42.15a3.352,3.352,0,0,1,1.909,1.408l3.687,5.91,3.692-5.907a3,3,0,0,1,.284-.368Z" transform="translate(-15.71 -2.486)" fill="#faaf42"/><path d="M30.8,63.043a1.62,1.62,0,0,0,1.62-1.62V54.088a1.531,1.531,0,0,1,.624-1.273,21.19,21.19,0,0,0,5.128-5.023,1.62,1.62,0,1,0-2.626-1.9A18.01,18.01,0,0,1,31.2,50.153a4.768,4.768,0,0,0-2.02,3.935V58.4L22.737,54.1a4.922,4.922,0,0,0-2.506-.8A17.877,17.877,0,0,1,3.265,34.8,18.1,18.1,0,0,1,20.378,17.691a17.66,17.66,0,0,1,6.643,1A1.62,1.62,0,1,0,28.1,15.636a21.062,21.062,0,1,0-8.015,40.9,1.7,1.7,0,0,1,.86.259L29.9,62.77A1.62,1.62,0,0,0,30.8,63.043Z" transform="translate(0 -4.718)"/><path d="M115.08,14.451a21.062,21.062,0,0,0-7.84,1.184,1.62,1.62,0,1,0,1.079,3.056,17.846,17.846,0,0,1,6.643-1A18.1,18.1,0,0,1,132.069,34.8a17.877,17.877,0,0,1-16.963,18.5,4.922,4.922,0,0,0-2.508.8l-6.439,4.293V54.086a4.771,4.771,0,0,0-2.019-3.939,17.984,17.984,0,0,1-4.347-4.256,1.62,1.62,0,1,0-2.626,1.9A21.168,21.168,0,0,0,102.3,52.81a1.533,1.533,0,0,1,.622,1.273v7.338a1.62,1.62,0,0,0,2.519,1.348l8.956-5.972a1.7,1.7,0,0,1,.862-.259,21.062,21.062,0,0,0-.177-42.087Z" transform="translate(-31.619 -4.717)"/><path d="M74.409,12.865a3.522,3.522,0,0,1,3.519,3.517,1.62,1.62,0,0,1-.475,1.147l-1.735,1.735a14.484,14.484,0,0,0-4.271,10.309v1.113a1.62,1.62,0,0,0,3.24,0V29.574a11.273,11.273,0,0,1,3.321-8.018l1.735-1.735a4.833,4.833,0,0,0,1.424-3.438,6.766,6.766,0,0,0-6.759-6.758H71.726a6.766,6.766,0,0,0-6.759,6.758v1.343a1.62,1.62,0,1,0,3.24,0V16.382a3.522,3.522,0,0,1,3.519-3.517Z" transform="translate(-21.21 -3.146)"/><circle cx="1.62" cy="1.62" r="1.62" transform="translate(50.237 32.402)"/><path d="M28.97,44.011a11.273,11.273,0,0,1,3.321-8.018l1.735-1.735a4.833,4.833,0,0,0,1.424-3.438,6.766,6.766,0,0,0-6.759-6.758H26.009a6.766,6.766,0,0,0-6.759,6.758v1.343a1.62,1.62,0,1,0,3.24,0V30.819A3.522,3.522,0,0,1,26.009,27.3h2.683a3.522,3.522,0,0,1,3.519,3.517,1.62,1.62,0,0,1-.475,1.147L30,33.7A14.484,14.484,0,0,0,25.73,44.011v1.113a1.62,1.62,0,0,0,3.24,0Z" transform="translate(-6.276 -7.862)"/><circle cx="1.62" cy="1.62" r="1.62" transform="translate(19.454 42.123)"/><path d="M112.3,33.783a1.62,1.62,0,0,0,1.62-1.62V30.819a3.522,3.522,0,0,1,3.519-3.517h2.683a3.522,3.522,0,0,1,3.519,3.517,1.62,1.62,0,0,1-.475,1.147L121.435,33.7a14.484,14.484,0,0,0-4.271,10.309v1.113a1.62,1.62,0,1,0,3.24,0V44.011a11.273,11.273,0,0,1,3.321-8.018l1.735-1.735a4.833,4.833,0,0,0,1.424-3.438,6.766,6.766,0,0,0-6.759-6.758h-2.683a6.766,6.766,0,0,0-6.759,6.758v1.343A1.62,1.62,0,0,0,112.3,33.783Z" transform="translate(-36.144 -7.862)"/><circle cx="1.62" cy="1.62" r="1.62" transform="translate(81.02 42.123)"/><circle cx="1.62" cy="1.62" r="1.62" transform="translate(45.377 66.425)"/><circle cx="1.62" cy="1.62" r="1.62" transform="translate(55.098 66.425)"/><path d="M74.928,81.007H73.752a12.922,12.922,0,0,0,4.417-9.721,4.861,4.861,0,1,0,0-9.721v-8.1a4.861,4.861,0,0,0-3.45-4.652,4.86,4.86,0,0,0-4.651-3.449H68.124l2.142-3.427a1.766,1.766,0,0,1,1.008-.721,21.054,21.054,0,0,0-6.9-41.2A21.325,21.325,0,0,0,44.145,20.649,21.125,21.125,0,0,0,59.138,41.215a1.763,1.763,0,0,1,1,.716l2.152,3.432H60.347A11.354,11.354,0,0,0,49.006,56.7a8.023,8.023,0,0,0,1.849,5.087,4.848,4.848,0,0,0,1.392,9.494,12.922,12.922,0,0,0,4.417,9.721H55.486A14.6,14.6,0,0,0,40.9,95.588v6.481a1.62,1.62,0,0,0,1.62,1.62H87.89a1.62,1.62,0,0,0,1.62-1.62V95.588A14.6,14.6,0,0,0,74.928,81.007ZM60.071,38.113a17.872,17.872,0,0,1-12.686-17.4A18.041,18.041,0,0,1,64.5,3.252c.24-.013.475-.013.706-.013a17.815,17.815,0,0,1,5.139,34.874,5,5,0,0,0-2.821,2.106l-2.318,3.707-2.32-3.71a4.984,4.984,0,0,0-2.816-2.1ZM79.789,66.425a1.62,1.62,0,0,1-1.62,1.62V64.8A1.62,1.62,0,0,1,79.789,66.425ZM60.347,48.6h9.721a1.62,1.62,0,0,1,1.62,1.62,1.62,1.62,0,0,0,1.62,1.62,1.62,1.62,0,0,1,1.62,1.62v7.665a3.24,3.24,0,0,1-1.62-2.8,1.62,1.62,0,0,0-2.766-1.145l-1.064,1.064a11.27,11.27,0,0,1-8.018,3.321H57.107A4.861,4.861,0,0,1,52.246,56.7a8.111,8.111,0,0,1,8.1-8.1ZM50.626,66.425a1.62,1.62,0,0,1,1.62-1.62v3.24A1.62,1.62,0,0,1,50.626,66.425Zm4.861,4.86V64.643a8.1,8.1,0,0,0,1.62.162H61.46a14.476,14.476,0,0,0,9.381-3.415,6.505,6.505,0,0,0,4.088,3.2v6.695a9.721,9.721,0,1,1-19.442,0ZM86.27,100.449h-3.24V95.588a1.62,1.62,0,0,0-3.24,0v4.861H50.626V95.588a1.62,1.62,0,0,0-3.24,0v4.861h-3.24V95.588A11.356,11.356,0,0,1,55.486,84.247H74.928A11.356,11.356,0,0,1,86.27,95.588Z" transform="translate(-13.35 0)"/></g></svg>