<svg xmlns="http://www.w3.org/2000/svg" width="253" height="175.157" viewBox="0 0 253 175.157"><g transform="translate(-915.325 -4149)"><rect width="253" height="80" rx="10" transform="translate(915.325 4244.156)" fill="#f6f1e5"/><g transform="translate(887.801 4013.348)"><g transform="translate(64.679 262.729)"><g transform="translate(0 24.776)"><g transform="translate(1.964 3.834)"><path d="M68.511,439.342l2.947,19.363H88.576l3.973-19.083Z" transform="translate(-68.511 -439.342)" fill="#21c9b8"/></g><g transform="translate(3.916 14.115)"><g transform="translate(0.1 2.028)"><path d="M92.1,463.453c0,.055-4.386.1-9.8.1s-9.8-.045-9.8-.1,4.386-.1,9.8-.1S92.1,463.4,92.1,463.453Z" transform="translate(-72.512 -463.353)" fill="#fafafa"/></g><g transform="translate(0.034 1.076)"><path d="M92.109,461.6c0,.056-4.416.1-9.862.1s-9.863-.045-9.863-.1,4.415-.1,9.863-.1S92.109,461.541,92.109,461.6Z" transform="translate(-72.383 -461.496)" fill="#fafafa"/></g><path d="M92.043,459.5c0,.056-4.416.1-9.862.1s-9.863-.045-9.863-.1,4.415-.1,9.863-.1S92.043,459.442,92.043,459.5Z" transform="translate(-72.317 -459.397)" fill="#fafafa"/><g transform="translate(2.098 3.067)"><path d="M77.273,470.29a30.972,30.972,0,0,1-.852-4.911,30.971,30.971,0,0,1,.852,4.911Z" transform="translate(-76.41 -465.379)" fill="#fafafa"/></g><g transform="translate(3.783 3.007)"><path d="M80.04,470.027a56.636,56.636,0,0,1-.324-4.764,19.008,19.008,0,0,1,.324,4.764Z" transform="translate(-79.697 -465.263)" fill="#fafafa"/></g><g transform="translate(5.647 2.855)"><path d="M83.934,469.882a19.369,19.369,0,0,1-.576-4.915,72.845,72.845,0,0,1,.576,4.915Z" transform="translate(-83.332 -464.967)" fill="#fafafa"/></g><g transform="translate(7.486 2.906)"><path d="M87.172,470.033a19.84,19.84,0,0,1-.161-4.967,69.578,69.578,0,0,1,.161,4.967Z" transform="translate(-86.921 -465.066)" fill="#fafafa"/></g><g transform="translate(10.168 3.061)"><path d="M92.359,470.078a27.6,27.6,0,0,1-.159-4.711,27.745,27.745,0,0,1,.159,4.711Z" transform="translate(-92.151 -465.367)" fill="#fafafa"/></g><g transform="translate(12.22 3.008)"><path d="M96.236,470.13a29.42,29.42,0,0,1,.039-4.865,29.57,29.57,0,0,1-.039,4.865Z" transform="translate(-96.153 -465.265)" fill="#fafafa"/></g><g transform="translate(14.089 2.548)"><path d="M99.819,469.435a32.388,32.388,0,0,1,.492-5.067,32.226,32.226,0,0,1-.492,5.067Z" transform="translate(-99.8 -464.368)" fill="#fafafa"/></g><g transform="translate(16.422 3.112)"><path d="M104.366,469.716a13.364,13.364,0,0,1,.924-4.249,103.592,103.592,0,0,1-.924,4.249Z" transform="translate(-104.351 -465.467)" fill="#fafafa"/></g></g><path d="M64.679,431.863v3.623a1.427,1.427,0,0,0,1.427,1.427H90.894a1.427,1.427,0,0,0,1.426-1.427v-3.623Z" transform="translate(-64.679 -431.863)" fill="#bcefea"/><g transform="translate(2.149 5.049)" opacity="0.4"><path d="M68.872,441.713l.206,1.153L91.95,444.5l.58-2.783Z" transform="translate(-68.872 -441.713)"/></g></g><g transform="translate(1.677)"><g transform="translate(1.569 1.382)"><path d="M76.756,409.613c-3.642-2.112-5.591-7.025-5.737-11.046a12.335,12.335,0,0,1,4.826-10.521,11.047,11.047,0,0,1,11.988-.1,12.481,12.481,0,0,1,5.5,10.833,14.366,14.366,0,0,1-5.884,10.79" transform="translate(-71.011 -386.23)" fill="#455a64"/></g><g transform="translate(12.085 1.769)"><path d="M92.567,410.368a4.789,4.789,0,0,1-.067-.92c-.019-.658-.043-1.5-.071-2.508-.054-2.117-.137-5.041-.279-8.269s-.316-6.148-.448-8.262c-.06-1.007-.11-1.847-.15-2.5a4.775,4.775,0,0,1-.013-.922,4.765,4.765,0,0,1,.146.911c.072.588.161,1.442.257,2.5.194,2.111.406,5.033.549,8.265s.187,6.161.179,8.28c0,1.06-.017,1.918-.037,2.51A4.786,4.786,0,0,1,92.567,410.368Z" transform="translate(-91.524 -386.984)" fill="#fff"/></g><g transform="translate(0.088 12.504)"><path d="M70.69,408.23c-.008.094-.589.123-1.3.065s-1.277-.182-1.269-.276.589-.123,1.3-.065S70.7,408.136,70.69,408.23Z" transform="translate(-68.123 -407.924)" fill="#263238"/></g><g transform="translate(0.752 8.245)"><path d="M71.52,400.574c-.038.086-.54-.053-1.119-.31s-1.019-.535-.981-.621.539.052,1.119.31S71.558,400.488,71.52,400.574Z" transform="translate(-69.418 -399.617)" fill="#263238"/></g><g transform="translate(2.62 4.793)"><path d="M75.152,394.614c-.049.078-.612-.187-1.2-.673s-.953-.988-.885-1.051.534.319,1.1.788S75.2,394.533,75.152,394.614Z" transform="translate(-73.061 -392.883)" fill="#263238"/></g><g transform="translate(5.657 1.973)"><path d="M79.906,389.407c-.086.038-.356-.384-.6-.942s-.377-1.042-.291-1.08.356.383.6.942S79.992,389.369,79.906,389.407Z" transform="translate(-78.986 -387.382)" fill="#263238"/></g><g transform="translate(8.766)"><path d="M85.79,385.739c-.084.039-.375-.41-.568-1.032s-.21-1.157-.118-1.172.257.472.444,1.07S85.878,385.7,85.79,385.739Z" transform="translate(-85.05 -383.534)" fill="#263238"/></g><g transform="translate(13.786 0.182)"><path d="M95.45,383.891c.089.031.035.415-.121.857s-.354.774-.443.743-.034-.415.121-.857S95.361,383.86,95.45,383.891Z" transform="translate(-94.843 -383.889)" fill="#263238"/></g><g transform="translate(16.737 1.726)"><path d="M101.881,386.915c.064.069-.169.388-.519.713s-.687.532-.752.462.169-.389.519-.713S101.817,386.846,101.881,386.915Z" transform="translate(-100.599 -386.902)" fill="#263238"/></g><g transform="translate(19.746 3.78)"><path d="M107.932,390.928c.053.078-.231.362-.633.635s-.772.431-.825.353.231-.362.633-.635S107.879,390.85,107.932,390.928Z" transform="translate(-106.468 -390.908)" fill="#263238"/></g><g transform="translate(21.343 6.847)"><path d="M111.717,396.917c.037.087-.41.36-1,.611s-1.1.384-1.132.3.41-.36,1-.611S111.68,396.83,111.717,396.917Z" transform="translate(-109.584 -396.89)" fill="#263238"/></g><g transform="translate(22.295 10.14)"><path d="M113.513,403.4c.012.093-.443.227-1.015.3s-1.046.053-1.058-.04.443-.227,1.016-.3S113.5,403.305,113.513,403.4Z" transform="translate(-111.441 -403.315)" fill="#263238"/></g><g transform="translate(22.803 13.441)"><path d="M114.46,410.662c-.037.087-.522-.041-1.082-.284s-.984-.511-.946-.6.522.041,1.082.285S114.5,410.575,114.46,410.662Z" transform="translate(-112.43 -409.753)" fill="#263238"/></g><g transform="translate(22.179 16.419)"><path d="M113.459,417.033c-.03.086-.642-.06-1.283-.48s-1.021-.92-.955-.982.535.3,1.141.7S113.494,416.942,113.459,417.033Z" transform="translate(-111.214 -415.563)" fill="#263238"/></g><g transform="translate(20.913 19.327)"><path d="M110.412,423.02c-.056.073-.544-.213-1.012-.719s-.719-1.011-.642-1.062.443.348.893.83S110.472,422.944,110.412,423.02Z" transform="translate(-108.744 -421.235)" fill="#263238"/></g><g transform="translate(2.632 21.473)"><path d="M75.532,425.439c.044.084-.468.436-1.143.787s-1.258.569-1.3.485.469-.436,1.144-.788S75.489,425.355,75.532,425.439Z" transform="translate(-73.085 -425.421)" fill="#263238"/></g><g transform="translate(1.503 18.55)"><path d="M72.86,419.745c.039.086-.372.356-.917.6s-1.019.378-1.058.292.372-.356.917-.6S72.821,419.659,72.86,419.745Z" transform="translate(-70.883 -419.718)" fill="#263238"/></g><g transform="translate(0 15.923)"><path d="M70.256,414.666c.013.093-.492.242-1.128.332s-1.164.088-1.177-.005.492-.242,1.129-.333S70.243,414.573,70.256,414.666Z" transform="translate(-67.951 -414.594)" fill="#263238"/></g><g transform="translate(3.856 14.529)"><path d="M77.777,411.917c.028.088-.465.318-1.123.391s-1.189-.039-1.181-.131.52-.136,1.143-.209S77.749,411.825,77.777,411.917Z" transform="translate(-75.473 -411.874)" fill="#263238"/></g><g transform="translate(7.526 11.331)"><path d="M84.467,405.691c.028.088-.364.287-.894.338s-.953-.066-.943-.157.417-.133.909-.182S84.439,405.6,84.467,405.691Z" transform="translate(-82.631 -405.637)" fill="#263238"/></g><g transform="translate(8.187 8.176)"><path d="M85.707,400.14c-.031.089-.455.023-.948-.148s-.868-.381-.837-.47.455-.023.948.148S85.738,400.051,85.707,400.14Z" transform="translate(-83.92 -399.483)" fill="#263238"/></g><g transform="translate(10.392 5.027)"><path d="M88.978,394.565c-.066.065-.357-.127-.565-.489s-.23-.71-.14-.734.249.243.436.563S89.047,394.5,88.978,394.565Z" transform="translate(-88.222 -393.34)" fill="#263238"/></g><g transform="translate(8.154 16.762)"><path d="M85.435,416.288c.022.091-.346.26-.821.376a3.146,3.146,0,0,1-.691.1l-.067-.2c.123-.023.2-.017.219.019s-.034.1-.134.174l-.067-.2a3.131,3.131,0,0,1,.659-.228C85.008,416.216,85.412,416.2,85.435,416.288Z" transform="translate(-83.856 -416.231)" fill="#263238"/></g><g transform="translate(8.172 21.316)"><path d="M86.112,425.142c.034.088-.435.354-1.047.595s-1.138.365-1.172.277.434-.354,1.047-.595S86.077,425.055,86.112,425.142Z" transform="translate(-83.89 -425.114)" fill="#263238"/></g><g transform="translate(5.266 19.287)"><path d="M79.732,421.2c.03.089-.282.276-.7.418s-.778.184-.808.095.282-.276.7-.418S79.7,421.114,79.732,421.2Z" transform="translate(-78.223 -421.157)" fill="#263238"/></g><g transform="translate(4.808 9.305)"><path d="M79.573,402.5c-.022.091-.566.036-1.195-.187s-1.087-.523-1.046-.607.549.07,1.16.285S79.6,402.41,79.573,402.5Z" transform="translate(-77.329 -401.685)" fill="#263238"/></g><g transform="translate(14.242 9.103)"><path d="M97.295,401.31c.052.079-.255.373-.685.656s-.821.45-.873.371.255-.373.685-.656S97.243,401.231,97.295,401.31Z" transform="translate(-95.732 -401.29)" fill="#263238"/></g><g transform="translate(14.772 13.594)"><path d="M98.274,410.123c.019.092-.3.237-.72.323s-.769.082-.788-.01.3-.237.719-.324S98.255,410.031,98.274,410.123Z" transform="translate(-96.765 -410.051)" fill="#263238"/></g><g transform="translate(14.903 17.856)"><path d="M98.952,419.284c-.039.086-.5-.045-1.036-.291s-.933-.516-.893-.6.5.045,1.036.292S98.991,419.2,98.952,419.284Z" transform="translate(-97.021 -418.365)" fill="#263238"/></g><g transform="translate(14.566 22.424)"><path d="M97.461,428.6c-.073.06-.374-.187-.673-.55s-.482-.707-.409-.767.374.187.673.55S97.534,428.542,97.461,428.6Z" transform="translate(-96.363 -427.275)" fill="#263238"/></g><g transform="translate(14.255 5.752)"><path d="M96.927,394.778c.057.073-.141.324-.482.494s-.661.181-.685.092.224-.241.532-.4S96.868,394.7,96.927,394.778Z" transform="translate(-95.757 -394.754)" fill="#263238"/></g><g transform="translate(17.828 10.314)"><path d="M104.612,403.7c.031.087-.366.305-.908.38s-.984-.026-.978-.118.424-.149.93-.22S104.581,403.608,104.612,403.7Z" transform="translate(-102.726 -403.654)" fill="#263238"/></g><g transform="translate(16.889 6.218)"><path d="M102.865,395.691c.042.083-.353.364-.913.542s-1.044.179-1.058.088.421-.241.954-.413S102.822,395.605,102.865,395.691Z" transform="translate(-100.894 -395.664)" fill="#263238"/></g><g transform="translate(17.769 16.18)"><path d="M105.492,415.647a4.133,4.133,0,0,1-2.88-.522,14.709,14.709,0,0,1,2.88.522Z" transform="translate(-102.611 -415.096)" fill="#263238"/></g><g transform="translate(17.284 20.934)"><path d="M103.438,426.142c-.056.073-.553-.218-1.048-.717s-.786-1-.713-1.051.475.33.955.81S103.5,426.068,103.438,426.142Z" transform="translate(-101.666 -424.368)" fill="#263238"/></g><g transform="translate(4.903 1.38)"><path d="M84.659,386.228a15.438,15.438,0,0,0-2.992,2.364,14.6,14.6,0,0,0-3.727,8.238,18.488,18.488,0,0,0,.225,5.048,38.417,38.417,0,0,0,.945,4.05c.328,1.141.629,2.054.83,2.688a6.261,6.261,0,0,1,.287.994,5.737,5.737,0,0,1-.413-.95c-.24-.621-.577-1.525-.936-2.662a34.263,34.263,0,0,1-1.024-4.066,18.115,18.115,0,0,1-.254-5.141,14.364,14.364,0,0,1,3.892-8.366,10.7,10.7,0,0,1,2.232-1.744,6.73,6.73,0,0,1,.683-.355A.793.793,0,0,1,84.659,386.228Z" transform="translate(-77.514 -386.226)" fill="#fff"/></g><g transform="translate(11.789 1.521)"><path d="M95.859,409.964a37.519,37.519,0,0,0,1.534-3.665,20.748,20.748,0,0,0,.917-9.426,17.737,17.737,0,0,0-1.453-5.027,11.863,11.863,0,0,0-2.479-3.452,9.014,9.014,0,0,0-2.428-1.535c-.631-.263-1.009-.325-1-.354a.837.837,0,0,1,.279.022,5.154,5.154,0,0,1,.773.208,8.394,8.394,0,0,1,2.54,1.477,11.686,11.686,0,0,1,2.6,3.5,17.47,17.47,0,0,1,1.507,5.115,20.042,20.042,0,0,1-1.027,9.552c-.193.59-.441,1.094-.626,1.55-.22.44-.4.823-.568,1.126A6.488,6.488,0,0,1,95.859,409.964Z" transform="translate(-90.946 -386.501)" fill="#fff"/></g></g></g><g transform="translate(73.423 135.652)"><g transform="translate(0 28.128)"><g transform="translate(0 35.782)"><path d="M98.293,260.318s-13.468,33.132-15.637,41.625c-2.388,9.352-.642,16.838,11.278,18,9.891.967,42.183-11.83,42.183-11.83l-3.945-24.649L103.6,294.99l6.921-32.013Z" transform="translate(-81.735 -260.318)" fill="#ffbe9d"/></g><g transform="translate(14.35)"><path d="M127.37,206.14a18.462,18.462,0,0,1-2.747-3.1s-1.417-9.216-2.038-11.165-2.393-1.417-2.764-.708.726,16.3.726,16.3l-5.76,3.013-3.993,2.3a4.738,4.738,0,0,0-1.059,2.126c-.177,1.152,2.126,12.583,2.126,12.583l12.154,2.147c3.132-2.972,4.9-7.619,5.746-13.4v-8.6S128.167,206.583,127.37,206.14Z" transform="translate(-109.726 -190.52)" fill="#ffbe9d"/><g transform="translate(7.617 16.283)"><path d="M124.584,224.761a1.649,1.649,0,0,1,.343-.027l.986-.023,1.56-.012.473,0a1.368,1.368,0,0,1,.263.02,1.073,1.073,0,0,1,.256.1,1.407,1.407,0,0,1,.667.916c.193,1.541.375,3.337.641,5.346.133,1,.271,2.055.481,3.127a3.312,3.312,0,0,0,.225.763,1.011,1.011,0,0,0,.533.5,1.949,1.949,0,0,0,1.551-.207,2.481,2.481,0,0,0,.655-.493,1.625,1.625,0,0,0,.2-.739,12.019,12.019,0,0,0,.013-1.658c-.054-1.094-.171-2.148-.3-3.149s-.282-1.95-.453-2.829a9.177,9.177,0,0,0-.31-1.247,5.511,5.511,0,0,0-.524-1.055,7.567,7.567,0,0,0-.64-.867,2.215,2.215,0,0,0-.7-.616,1.881,1.881,0,0,0-1.463-.11l-.924.338a1.709,1.709,0,0,1-.329.1,1.624,1.624,0,0,1,.309-.152c.207-.091.509-.225.909-.387a1.976,1.976,0,0,1,1.565.075,2.355,2.355,0,0,1,.766.638,7.652,7.652,0,0,1,.671.877,5.676,5.676,0,0,1,.558,1.085,9.168,9.168,0,0,1,.333,1.274c.182.885.34,1.835.48,2.84s.26,2.063.319,3.169a12.14,12.14,0,0,1-.01,1.7,1.759,1.759,0,0,1-.269.89,2.747,2.747,0,0,1-.728.551,2.2,2.2,0,0,1-1.775.218,1.28,1.28,0,0,1-.671-.628,3.513,3.513,0,0,1-.245-.829c-.209-1.09-.341-2.144-.469-3.149-.251-2-.419-3.837-.581-5.335a1.232,1.232,0,0,0-.566-.809.755.755,0,0,0-.441-.111l-.47-.014-1.559-.033-.985-.027A1.682,1.682,0,0,1,124.584,224.761Z" transform="translate(-124.584 -222.283)" fill="#eb996e"/></g><g transform="translate(4.482 20.186)"><path d="M127.52,238.971a.865.865,0,0,1,.072.334,1.942,1.942,0,0,1-.153.959,1.731,1.731,0,0,1-1.116,1.011,1.846,1.846,0,0,1-1.837-.619l-.007-.008-.006-.012a5.74,5.74,0,0,1-.526-2.141c-.064-.778-.047-1.6-.127-2.423a9.894,9.894,0,0,0-1.076-3.388c-.244-.5-.462-.984-.71-1.4a3.463,3.463,0,0,0-.41-.559,1.124,1.124,0,0,0-.508-.333,7.561,7.561,0,0,0-1.923-.393,4.835,4.835,0,0,0-.723.005,4.49,4.49,0,0,1,2.712.211,2.093,2.093,0,0,1,.311.137,1.164,1.164,0,0,1,.281.232,3.6,3.6,0,0,1,.449.583c.268.431.491.909.742,1.408a9.83,9.83,0,0,1,1.12,3.469c.082.849.061,1.667.118,2.429a5.625,5.625,0,0,0,.477,2.058l-.013-.021a1.654,1.654,0,0,0,1.613.578,1.607,1.607,0,0,0,1.035-.883,2.05,2.05,0,0,0,.2-.9A2.092,2.092,0,0,1,127.52,238.971Z" transform="translate(-118.469 -229.896)" fill="#eb996e"/></g><g transform="translate(2.871 24.254)"><path d="M122.474,243.79c.012-.018.126.2-.033.52a1.92,1.92,0,0,1-.357.513,1.332,1.332,0,0,1-.723.435,1.4,1.4,0,0,1-1-.248,2.117,2.117,0,0,1-.712-.925,5.192,5.192,0,0,1-.339-2.579,5.359,5.359,0,0,1,.222-1.011l.042.143a4.867,4.867,0,0,1-1.445-2l.134.068a3.176,3.176,0,0,1-2.27-.317,2.7,2.7,0,0,1-.523-.379c-.106-.1-.154-.167-.147-.175.021-.025.245.2.731.437a3.18,3.18,0,0,0,2.153.214l.1-.025.038.093a4.791,4.791,0,0,0,1.4,1.88l.07.056-.027.087a5.267,5.267,0,0,0-.208.962,5.115,5.115,0,0,0,.3,2.45,1.912,1.912,0,0,0,.613.84,1.058,1.058,0,0,0,1.487-.111,2.025,2.025,0,0,0,.37-.454A.853.853,0,0,0,122.474,243.79Z" transform="translate(-115.326 -237.831)" fill="#eb996e"/></g><g transform="translate(5.161 22.827)"><path d="M119.948,235.049c.077.017.01.515.182,1.093s.363,1.065.286,1.1a2.02,2.02,0,0,1-.543-1.026A1.328,1.328,0,0,1,119.948,235.049Z" transform="translate(-119.793 -235.048)" fill="#eb996e"/></g><g transform="translate(2.499 26.585)"><path d="M118.543,242.751c-.022.078-.893-.166-1.983-.1s-1.928.4-1.959.322a4.321,4.321,0,0,1,3.942-.225Z" transform="translate(-114.6 -242.378)" fill="#eb996e"/></g><g transform="translate(13.364 12.616)"><path d="M140.268,222.109a.857.857,0,0,1-.4.035,2.925,2.925,0,0,1-1.057-.273,4.081,4.081,0,0,1-1.3-.966,7.071,7.071,0,0,1-1.085-1.649,3.8,3.8,0,0,1-.345-3.487,1.2,1.2,0,0,1,.89-.64c.271-.011.4.075.4.084-.005.025-.146-.022-.381.018a1.131,1.131,0,0,0-.74.63,2.521,2.521,0,0,0-.186,1.487,4.3,4.3,0,0,0,.2.886,9.8,9.8,0,0,0,.4.9,7.443,7.443,0,0,0,1.029,1.6,4.177,4.177,0,0,0,1.2.96A4.545,4.545,0,0,0,140.268,222.109Z" transform="translate(-135.795 -215.129)" fill="#eb996e"/></g><g transform="translate(16.402 23.716)"><path d="M143.871,240.3c-.079.018-.287-.9-.887-1.872s-1.312-1.581-1.261-1.643a4.607,4.607,0,0,1,2.148,3.515Z" transform="translate(-141.721 -236.782)" fill="#eb996e"/></g><g transform="translate(11.668 4.366)"><path d="M133.882,199.039c.064.033-.128.506-.524.985s-.822.76-.866.7.284-.414.66-.874S133.816,199,133.882,199.039Z" transform="translate(-132.487 -199.036)" fill="#eb996e"/></g><g transform="translate(15.785 19.01)"><path d="M140.605,228.625c-.073-.008-.107-.243-.075-.526s.117-.5.19-.5.107.244.075.526S140.678,228.633,140.605,228.625Z" transform="translate(-140.518 -227.603)" fill="#eb996e"/></g></g><g transform="translate(14.061 70.308)"><path d="M109.164,340.826a2.724,2.724,0,0,1,.389-.478c.264-.293.639-.724,1.092-1.263a37.714,37.714,0,0,0,5.78-9.318c.282-.646.5-1.173.646-1.54a2.716,2.716,0,0,1,.255-.56,2.713,2.713,0,0,1-.158.6c-.115.379-.308.919-.569,1.578a31.844,31.844,0,0,1-5.811,9.369c-.474.526-.873.939-1.161,1.211A2.731,2.731,0,0,1,109.164,340.826Z" transform="translate(-109.163 -327.667)" fill="#eb996e"/></g></g><g transform="translate(32.336 79.169)"><path d="M238.148,321.159l16.148,3.774-3.352-21.681-13.369-6.883a49.52,49.52,0,0,0-16.3-5.081l-9.064-1.177-24.769.12c-5.563-.641-13.186,1.278-22.493,5.686l-20.108,8.762,11.463,23.185,12.538-3.842,1.109,10.205,2.72,33.264L170.352,385.9h60.986l-4.531-9.569a21.454,21.454,0,0,1-1.525-13.957l7.886-38.033A4.127,4.127,0,0,1,238.148,321.159Z" transform="translate(-144.828 -290.097)" fill="#21c9b8"/><path d="M231.342,385.9H170.321l0-.015,2.323-18.408-2.72-33.261-1.107-10.189-12.534,3.841,0-.01-11.469-23.2.013-.005,20.108-8.761a70.573,70.573,0,0,1,12.652-4.738,27.916,27.916,0,0,1,9.847-.949l24.768-.121,9.066,1.177a49.4,49.4,0,0,1,16.3,5.082l13.375,6.886v.007l3.354,21.7-.019,0-16.148-3.773a4.114,4.114,0,0,0-4.964,3.17l-7.887,38.033a21.439,21.439,0,0,0,1.525,13.949Zm-60.991-.026H231.3l-4.522-9.551a21.462,21.462,0,0,1-1.527-13.965l7.887-38.032a4.139,4.139,0,0,1,5-3.19l16.13,3.768-3.347-21.655-13.364-6.88a49.362,49.362,0,0,0-16.291-5.08L212.2,290.11l-24.768.121a27.9,27.9,0,0,0-9.839.949,70.561,70.561,0,0,0-12.649,4.736l-20.1,8.756L156.3,327.834l12.542-3.843,0,.015,1.109,10.2,2.72,33.264Z" transform="translate(-144.811 -290.084)" fill="#21c9b8"/><g transform="translate(21.35 21.785)"><path d="M190.234,354.923a5.723,5.723,0,0,1-.111-.887c-.059-.616-.139-1.432-.235-2.42-.208-2.042-.55-4.857-1.07-7.945s-1.125-5.859-1.6-7.856c-.234-.965-.428-1.762-.573-2.363a5.7,5.7,0,0,1-.187-.874,5.781,5.781,0,0,1,.287.846c.17.55.4,1.35.656,2.345.523,1.989,1.156,4.761,1.68,7.857s.835,5.922.994,7.972c.081,1.025.131,1.855.151,2.43A5.717,5.717,0,0,1,190.234,354.923Z" transform="translate(-186.456 -332.579)" fill="#263238"/></g><g transform="translate(85.985 23.368)"><path d="M321.523,335.669c.028.043-.761.542-1.9,1.515a21.614,21.614,0,0,0-1.888,1.828,21.163,21.163,0,0,0-3.558,5.333,21.665,21.665,0,0,0-.963,2.445c-.46,1.427-.618,2.347-.668,2.338a3.111,3.111,0,0,1,.08-.651c.032-.209.078-.464.152-.755s.14-.627.256-.987a19.019,19.019,0,0,1,.92-2.492,19.757,19.757,0,0,1,3.6-5.4,18.978,18.978,0,0,1,1.948-1.806c.288-.246.572-.438.813-.616s.458-.32.639-.43A3.107,3.107,0,0,1,321.523,335.669Z" transform="translate(-312.538 -335.667)" fill="#263238"/></g><g transform="translate(47.029 25.854)"><path d="M250.385,358.68a.338.338,0,0,1-.023.087c-.023.068-.051.151-.086.257l-.354,1-1.376,3.8-4.975,13.549-.11.3-.109-.3-6.508-17.939c-.094-.26-.188-.52-.28-.774l-.017-.047.018-.047c2.523-6.514,4.879-12.6,6.88-17.767l.108-.279.106.28,4.914,12.974,1.355,3.628.348.955c.035.1.063.179.085.245a.311.311,0,0,1,.023.083.411.411,0,0,1-.04-.083l-.1-.244-.382-.953-1.418-3.616-5-12.905h.214l-6.845,17.781v-.094l.28.774,6.475,17.951h-.218l5.057-13.481,1.44-3.787.389-1,.1-.257A.427.427,0,0,1,250.385,358.68Z" transform="translate(-236.548 -340.517)" fill="#fafafa"/></g><g transform="translate(61.487 26.259)"><path d="M278.587,359.469a.337.337,0,0,1-.023.087l-.086.256-.353,1-1.376,3.8-4.976,13.549-.11.3-.109-.3c-1.9-5.237-4.13-11.387-6.508-17.939l-.28-.774-.017-.047.018-.047,6.88-17.767.108-.279.106.279,4.914,12.974c.58,1.552,1.038,2.776,1.355,3.627l.348.955.085.245a.312.312,0,0,1,.023.083.364.364,0,0,1-.041-.083l-.1-.244-.382-.953-1.418-3.616-5-12.905h.214l-6.845,17.781v-.093l.28.774,6.475,17.951h-.218l5.058-13.481,1.44-3.787.389-1,.1-.256A.461.461,0,0,1,278.587,359.469Z" transform="translate(-264.75 -341.307)" fill="#fafafa"/></g><g transform="translate(75.819 26.765)"><path d="M299.622,378.787a2.2,2.2,0,0,1-.16-.363l-.41-1.059c-.355-.95-.852-2.28-1.46-3.911-1.218-3.335-2.883-7.9-4.722-12.939-.05-.137-.1-.275-.146-.4l-.017-.047.018-.046,4.9-12.57,1.506-3.784.421-1.023a2.111,2.111,0,0,1,.164-.35,2.182,2.182,0,0,1-.114.369l-.375,1.04-1.428,3.814c-1.24,3.238-2.937,7.675-4.821,12.6v-.093l.145.4,4.649,12.965,1.38,3.94.362,1.076A2.192,2.192,0,0,1,299.622,378.787Z" transform="translate(-292.708 -342.294)" fill="#fafafa"/></g><g transform="translate(33.335 25.787)"><path d="M223.672,358.548a.331.331,0,0,1-.023.087l-.086.257q-.127.359-.353,1l-1.376,3.8-4.976,13.548-.11.3-.109-.3L210.132,359.3l-.28-.774-.017-.047.018-.047,6.88-17.767.108-.279.106.28,4.914,12.974,1.355,3.628.348.954.085.245a.312.312,0,0,1,.023.083.381.381,0,0,1-.041-.083l-.1-.245-.382-.953-1.418-3.616-5-12.905h.214c-1.991,5.172-4.335,11.261-6.845,17.781v-.093l.28.774,6.475,17.95h-.218l5.058-13.481,1.44-3.787.389-1,.1-.256A.443.443,0,0,1,223.672,358.548Z" transform="translate(-209.835 -340.385)" fill="#fafafa"/></g><g transform="translate(24.332 25.649)"><path d="M192.276,351.3a.9.9,0,0,1,.026-.2c.028-.148.063-.339.107-.577.106-.526.253-1.262.438-2.19l1.632-7.845.076-.368.135.351,5.021,13.049,1.83,4.785.017.047-.017.046-4.988,13.3-1.489,3.9-.412,1.044a2.36,2.36,0,0,1-.157.356,2.55,2.55,0,0,1,.113-.373l.37-1.059,1.416-3.928,4.9-13.336v.092l-1.835-4.784-4.978-13.065.212-.016-1.725,7.825-.5,2.177-.139.57A.913.913,0,0,1,192.276,351.3Z" transform="translate(-192.275 -340.116)" fill="#fafafa"/></g><g transform="translate(82.813 27.346)"><path d="M310.081,350.578l-3.731-7.139.023-.012,3.731,7.139Z" transform="translate(-306.35 -343.427)" fill="#fafafa"/></g><g transform="translate(42.197 70.233)"><path d="M249.857,427.084a1.367,1.367,0,0,1-.174.244l-.538.67c-.467.581-1.173,1.4-2.072,2.383s-2.007,2.125-3.279,3.347-2.73,2.5-4.309,3.789-3.151,2.426-4.6,3.428-2.8,1.84-3.956,2.51-2.1,1.195-2.762,1.531l-.766.386a1.352,1.352,0,0,1-.275.12,1.384,1.384,0,0,1,.252-.164l.744-.427c.651-.361,1.582-.9,2.719-1.6s2.468-1.55,3.917-2.548,3-2.158,4.577-3.432,3.023-2.563,4.308-3.762,2.4-2.33,3.307-3.3,1.638-1.765,2.126-2.327l.573-.639A1.409,1.409,0,0,1,249.857,427.084Z" transform="translate(-227.122 -427.084)" fill="#263238"/></g><g transform="translate(31.097 49.45)" opacity="0.3"><path d="M206.431,390.089c2.633,1.344,6.1,1.233,9.177.5s5.922-2.017,8.92-2.95,6.326-1.506,9.313-.743c2.338.6,4.4,1.992,6.884,1.94,1.552-.033,3.127-.642,4.62-.347a3.041,3.041,0,0,1,2.353,4c-.614,1.616-2.434,2.81-4.382,3.422-5.028,1.581-10.493-.13-15.816.026-3.163.093-6.265.85-9.406,1.256s-6.513.423-9.195-.847-4.326-4.164-2.911-6.5" transform="translate(-205.47 -386.545)"/></g><g transform="translate(85.597 5.326)"><path d="M314.56,300.474a3.841,3.841,0,0,1-.274.67c-.1.21-.215.468-.335.775s-.276.647-.408,1.04a24.737,24.737,0,0,0-.841,2.779,24.2,24.2,0,0,0-.626,7.058,24.81,24.81,0,0,0,.339,2.884c.06.41.152.773.218,1.1s.134.6.193.822a3.725,3.725,0,0,1,.152.707,3.751,3.751,0,0,1-.252-.679c-.075-.221-.16-.493-.238-.815s-.186-.684-.259-1.1a21.964,21.964,0,0,1-.4-2.9,22.694,22.694,0,0,1,.633-7.131,21.983,21.983,0,0,1,.9-2.788c.144-.392.312-.731.448-1.033s.265-.556.378-.76A3.718,3.718,0,0,1,314.56,300.474Z" transform="translate(-311.781 -300.474)" fill="#263238"/></g><g transform="translate(22.321 3.567)"><path d="M192.168,297.042a14.889,14.889,0,0,1-.795,1.332,22.078,22.078,0,0,0-2.692,6.911,14.916,14.916,0,0,1-.316,1.518,1.294,1.294,0,0,1,0-.42c.014-.269.057-.657.132-1.133a17.91,17.91,0,0,1,2.718-6.977c.267-.4.5-.717.669-.924S192.154,297.032,192.168,297.042Z" transform="translate(-188.351 -297.042)" fill="#263238"/></g><g transform="translate(20.537 23.035)" opacity="0.3"><path d="M185.85,335.017a15.787,15.787,0,0,0-.943,5.883,5.464,5.464,0,0,0,3.174,4.714q-.817-5.274-2.012-10.479" transform="translate(-184.871 -335.017)"/></g></g><g transform="translate(55.642)"><g transform="translate(8.863 24.183)"><path d="M240.563,188.206a3.944,3.944,0,0,1,3.52,4.007h0l-2.353,48.19c-.1,6.29-9.293,9.824-16.027,9.667h0c-6.8-1.606-7.051-5.687-7.136-11.671-.142-10-.1-6.488-.1-6.431,0,0-8.59-1.446-10.346-12.662-.873-5.578-.573-14.72-.085-22.192.439-6.725,4.913-14.968,11.614-14.244Z" transform="translate(-207.562 -182.825)" fill="#ffbe9d"/><g transform="translate(2.421 17.943)"><g transform="translate(1.781 2.337)"><path d="M215.759,223.682a1.439,1.439,0,0,0,1.384,1.454,1.376,1.376,0,0,0,1.485-1.293,1.438,1.438,0,0,0-1.382-1.454A1.377,1.377,0,0,0,215.759,223.682Z" transform="translate(-215.758 -222.385)" fill="#263238"/></g><path d="M212.306,219.332c.178.188,1.269-.616,2.816-.609,1.546-.015,2.68.784,2.848.595.083-.084-.1-.422-.592-.783a3.95,3.95,0,0,0-2.279-.708,3.787,3.787,0,0,0-2.242.719C212.381,218.909,212.219,219.248,212.306,219.332Z" transform="translate(-212.284 -217.826)" fill="#263238"/></g><g transform="translate(17.768 17.943)"><g transform="translate(1.418 2.499)"><path d="M244.988,224a1.438,1.438,0,0,0,1.383,1.454,1.376,1.376,0,0,0,1.485-1.293,1.438,1.438,0,0,0-1.382-1.454A1.375,1.375,0,0,0,244.988,224Z" transform="translate(-244.987 -222.701)" fill="#263238"/></g><path d="M242.243,219.332c.178.188,1.271-.616,2.817-.608,1.546-.015,2.68.783,2.848.595.083-.084-.1-.422-.592-.784a3.944,3.944,0,0,0-2.279-.708,3.791,3.791,0,0,0-2.242.719C242.319,218.909,242.156,219.248,242.243,219.332Z" transform="translate(-242.221 -217.826)" fill="#263238"/></g><g transform="translate(8.071 17.943)"><path d="M227.246,230.717a10.284,10.284,0,0,0-2.512-.459c-.395-.042-.768-.121-.835-.391a2.013,2.013,0,0,1,.266-1.17l1.176-3.006c1.632-4.28,2.814-7.8,2.642-7.864s-1.636,3.353-3.269,7.633q-.589,1.583-1.126,3.024a2.285,2.285,0,0,0-.209,1.55.992.992,0,0,0,.648.579,2.685,2.685,0,0,0,.671.095A10.051,10.051,0,0,0,227.246,230.717Z" transform="translate(-223.306 -217.826)" fill="#263238"/></g><g transform="translate(10.902 45.17)"><path d="M228.828,274.909a28.522,28.522,0,0,0,15.024-3.973s-3.805,7.906-15.024,6.832Z" transform="translate(-228.828 -270.936)" fill="#eb996e"/></g><g transform="translate(12.013 32.629)"><path d="M231.241,248.44a4.132,4.132,0,0,1,2.973-1.965,1.772,1.772,0,0,1,1.744.972,2.805,2.805,0,0,1-.249,2.572,2.369,2.369,0,0,1-2.345,1.134,3.966,3.966,0,0,1-1.936-1.262,1.4,1.4,0,0,1-.393-.555.955.955,0,0,1,.123-.812" transform="translate(-230.995 -246.472)" fill="#eb996e"/></g><g transform="translate(11.622 31.915)"><path d="M235.173,245.08c-.252-.015-.259,1.665-1.7,2.853s-3.228,1-3.241,1.235c-.024.105.4.327,1.153.349a4.181,4.181,0,0,0,2.705-.936,3.643,3.643,0,0,0,1.317-2.392C235.474,245.487,235.288,245.071,235.173,245.08Z" transform="translate(-230.232 -245.08)" fill="#263238"/></g><g transform="translate(16.895 14.417)"><path d="M240.532,212.427c.193.4,1.711.054,3.539.093,1.829,0,3.338.388,3.541-.012.089-.19-.2-.559-.833-.906a6.156,6.156,0,0,0-5.394-.063C240.749,211.872,240.447,212.234,240.532,212.427Z" transform="translate(-240.518 -210.948)" fill="#263238"/></g><g transform="translate(2.53 15.288)"><path d="M212.547,214.255c.339.351,1.663-.016,3.255-.036,1.591-.065,2.942.231,3.251-.137.136-.179-.077-.53-.667-.862a5.337,5.337,0,0,0-2.647-.572,5.238,5.238,0,0,0-2.6.711C212.582,213.722,212.4,214.083,212.547,214.255Z" transform="translate(-212.497 -212.646)" fill="#263238"/></g></g><g transform="translate(43.955 56.653)"><path d="M281.872,256.907a.562.562,0,0,1-.194-.026,5.478,5.478,0,0,1-2.335-1.168,3.257,3.257,0,0,1-1.1-2.815,2.142,2.142,0,0,1,.971-1.569,1.062,1.062,0,0,1,1.033-.049.861.861,0,0,1,.463.966.758.758,0,0,1-.372.444,1.269,1.269,0,0,1-.523.132,2.3,2.3,0,0,1-.977-.2,4.489,4.489,0,0,1-1.529-1.009,4.341,4.341,0,0,1-1.286-2.763,4.435,4.435,0,0,1,.32-2.038,3.712,3.712,0,0,1,.258-.5c.07-.108.111-.161.118-.156s-.118.242-.279.693a4.632,4.632,0,0,0-.229,1.983,4.213,4.213,0,0,0,1.271,2.6,4.3,4.3,0,0,0,1.451.941,2.045,2.045,0,0,0,.868.174.655.655,0,0,0,.654-.39.6.6,0,0,0-.336-.655.8.8,0,0,0-.778.045,1.909,1.909,0,0,0-.856,1.376,2.9,2.9,0,0,0,.205,1.525,3.284,3.284,0,0,0,.777,1.117,5.427,5.427,0,0,0,1.7,1.057C281.619,256.814,281.878,256.885,281.872,256.907Z" transform="translate(-276.014 -246.161)" fill="#263238"/></g><g transform="translate(21.087)"><path d="M232.939,153.3a3.4,3.4,0,0,1-1.226-4.241c-.469-.664.085-1.655.85-1.928a4.014,4.014,0,0,1,2.395.161c-.21-.375.353-.7.778-.765l2.967-.475a4.591,4.591,0,0,1-3.1-2.634,7.156,7.156,0,0,1-.424-4.138,1.512,1.512,0,0,1,.523-1.061,11.2,11.2,0,0,1,2.071,3.471,2.945,2.945,0,0,1,2.122,1.07.809.809,0,0,1,1.215-.327c.626-1.752,1.815-3.6,3.664-3.815-.581-.816.472-1.793,1.368-2.24a5.785,5.785,0,0,1,2.063-.72,1.969,1.969,0,0,1,1.894.861,1.21,1.21,0,0,1-.7,1.746,2.032,2.032,0,0,1,.719,2.4,2.018,2.018,0,0,1,2.436-.5,7.8,7.8,0,0,1,4.08-.595,1.893,1.893,0,0,1,1,.35c.209.174.347.424.564.588a2.138,2.138,0,0,0,1.1.295,4.363,4.363,0,0,1,2.459.9,2.132,2.132,0,0,1,.665,2.389c2.046.663,4.077-1.69,6.187-1.273a4.123,4.123,0,0,1,2.63,2.517,7.036,7.036,0,0,1-3.3.484,1.408,1.408,0,0,1-1.361,1.079.825.825,0,0,1-.469,1.288,7.272,7.272,0,0,1,3.939.065c1.97.466,4.133,1.5,4.588,3.473a6.3,6.3,0,0,1,0,2.139c-.124,1.063-.667,2.461-1.719,2.264-.65-.121-.986-.816-1.333-1.378a5.607,5.607,0,0,0-3.436-2.482c-.5.488.431,1.112.836,1.684s.239,1.334.34,2.018A10.569,10.569,0,0,0,270.7,158.8c.987,2.051.47,4.475-.068,6.688-.146.6-.828,1.345-1.2.849a1.668,1.668,0,0,1,1.253,1.7,4.857,4.857,0,0,1-.71,2.17c-.15.292-.337.615-.657.69-.463.108-.842-.357-1.089-.764l-2.014-3.308a5.065,5.065,0,0,1-.053,2.282,4.3,4.3,0,0,1-2.609,3.355,5.651,5.651,0,0,1-3.01-.225" transform="translate(-231.405 -135.652)" fill="#263238"/></g><g transform="translate(9.235 17.518)"><g transform="translate(0 0.603)"><path d="M243.745,205.392c-.437-.18-2.187.536-2.476.162-1.464-1.9-2.256-7.33-2.621-9.7s1.115-5.017.892-7.406a9.261,9.261,0,0,0-1.8-5.37,7.02,7.02,0,0,0-2.9-1.857,11.225,11.225,0,0,0-10.177,1.357c-1.2.851-2.336,1.988-3.8,2.125s-2.779-.756-4.032-1.508-2.8-1.409-4.131-.8a4.071,4.071,0,0,0-1.316,1.08,19.509,19.509,0,0,0-2.827,7.455,15.422,15.422,0,0,1,.671-8.137c1.93-4.725,7.12-10.066,15.4-11.41,13.253-2.151,19.464,5.227,21.818,10.5,1.01,2.263,1.85,8.193,1.118,12.764A32.949,32.949,0,0,1,243.745,205.392Z" transform="translate(-208.288 -171)" fill="#263238"/></g><g transform="translate(16.91)"><path d="M263.376,183.138c-.2.063-.737-1.426-2.064-3.554a24.312,24.312,0,0,0-2.619-3.5,15.624,15.624,0,0,0-4.055-3.309,16.077,16.077,0,0,0-4.982-1.626,18.217,18.217,0,0,0-4.33-.15c-2.482.221-3.971.794-4.049.59-.033-.079.3-.32.96-.627a12.435,12.435,0,0,1,2.964-.9,15.89,15.89,0,0,1,4.621-.133,15.558,15.558,0,0,1,5.448,1.669,15.191,15.191,0,0,1,4.351,3.679,19.712,19.712,0,0,1,2.515,3.845C263.3,181.471,263.53,183.1,263.376,183.138Z" transform="translate(-241.274 -169.823)" fill="#21c9b8"/></g><g transform="translate(11.116 1.783)"><path d="M244.924,173.321a5.683,5.683,0,0,1-.8.094,17.558,17.558,0,0,0-2.155.359,15.986,15.986,0,0,0-10.886,8.656,17.4,17.4,0,0,0-.836,2.019,5.653,5.653,0,0,1-.272.759A.633.633,0,0,1,230,185c.031-.133.068-.333.143-.582a13.98,13.98,0,0,1,.764-2.069,15.5,15.5,0,0,1,11.016-8.76,13.975,13.975,0,0,1,2.188-.278c.259-.017.462-.008.6-.008A.639.639,0,0,1,244.924,173.321Z" transform="translate(-229.971 -173.301)" fill="#455a64"/></g><g transform="translate(19.777 3.398)"><path d="M256.687,176.455a17.274,17.274,0,0,1-1.552.847,35.476,35.476,0,0,0-6.945,4.874,17.433,17.433,0,0,1-1.324,1.171,1.643,1.643,0,0,1,.3-.375c.2-.231.509-.551.9-.934a27.339,27.339,0,0,1,6.987-4.9c.493-.239.9-.419,1.185-.53A1.646,1.646,0,0,1,256.687,176.455Z" transform="translate(-246.865 -176.452)" fill="#455a64"/></g><g transform="translate(32.301 9.349)"><path d="M275.761,188.061a1.42,1.42,0,0,1-.026.444c-.032.285-.1.692-.207,1.192a20.168,20.168,0,0,1-3.186,7.282c-.3.417-.548.745-.735.961s-.295.332-.309.321c-.033-.026.341-.533.887-1.387a24.907,24.907,0,0,0,3.159-7.221C275.6,188.673,275.719,188.054,275.761,188.061Z" transform="translate(-271.296 -188.061)" fill="#455a64"/></g><g transform="translate(33.069 11.476)"><path d="M272.8,206.113c-.037-.034.542-.653,1.315-1.77a18.851,18.851,0,0,0,1.225-2.042,18.5,18.5,0,0,0,1.821-5.516,18.794,18.794,0,0,0,.233-2.37c.044-1.358-.052-2.2,0-2.2a2.55,2.55,0,0,1,.1.587,12.49,12.49,0,0,1,.089,1.621,16.49,16.49,0,0,1-.178,2.405,17.216,17.216,0,0,1-1.847,5.591,16.505,16.505,0,0,1-1.289,2.038,12.541,12.541,0,0,1-1.038,1.249A2.5,2.5,0,0,1,272.8,206.113Z" transform="translate(-272.794 -192.21)" fill="#455a64"/></g></g><g transform="translate(0 28.609)"><path d="M190.273,193.982c.017-.014.211.218.605.589a5.912,5.912,0,0,0,1.9,1.222,3.771,3.771,0,0,0,3.208-.192,2.743,2.743,0,0,0,1.188-1.472,2.212,2.212,0,0,0-.2-1.959.954.954,0,0,0-.815-.444.657.657,0,0,0-.628.545,2.449,2.449,0,0,0,.438,1.812,2.987,2.987,0,0,0,1.351,1.085,2.545,2.545,0,0,0,1.505.111,3.048,3.048,0,0,0,1.821-1.231,5.57,5.57,0,0,0,.392-.739.7.7,0,0,1-.042.217,2.459,2.459,0,0,1-.262.579,3.07,3.07,0,0,1-1.866,1.358,2.721,2.721,0,0,1-1.627-.088,3.189,3.189,0,0,1-1.475-1.152,2.667,2.667,0,0,1-.489-2.015,1.022,1.022,0,0,1,.3-.521.914.914,0,0,1,.575-.227,1.221,1.221,0,0,1,1.044.554,2.46,2.46,0,0,1,.234,2.2,2.973,2.973,0,0,1-1.31,1.6,3.929,3.929,0,0,1-3.4.156,5.607,5.607,0,0,1-1.909-1.323,6,6,0,0,1-.412-.478A.715.715,0,0,1,190.273,193.982Z" transform="translate(-190.273 -191.458)" fill="#263238"/></g><g transform="translate(56.594 17.912)"><path d="M312.107,180.51a1.333,1.333,0,0,1-.3.065c-.2.033-.488.078-.866.122a8.869,8.869,0,0,1-3.218-.128,4.886,4.886,0,0,1-1.994-1.031,3.317,3.317,0,0,1-1.15-2.295,2.783,2.783,0,0,1,.255-1.4,2.427,2.427,0,0,1,1.024-1.082,3.143,3.143,0,0,1,3.025.011,1.408,1.408,0,0,1-.058,2.609,2.937,2.937,0,0,1-1.468.227,7.3,7.3,0,0,1-1.381-.229,7.221,7.221,0,0,1-3.93-2.659,7.127,7.127,0,0,1-1.282-2.95,6.207,6.207,0,0,1-.1-.872,1.31,1.31,0,0,1,.01-.306c.028,0,.026.421.191,1.157a7.348,7.348,0,0,0,1.33,2.857,7.1,7.1,0,0,0,5.175,2.746,2.692,2.692,0,0,0,1.338-.207,1.147,1.147,0,0,0,.035-2.145,2.9,2.9,0,0,0-2.759-.011,2.32,2.32,0,0,0-1.161,2.239,3.1,3.1,0,0,0,1.052,2.145,4.735,4.735,0,0,0,1.9,1.014,9.3,9.3,0,0,0,3.158.206l.869-.072A1.3,1.3,0,0,1,312.107,180.51Z" transform="translate(-300.667 -170.593)" fill="#263238"/></g><g transform="translate(15.769 3.6)"><path d="M221.472,142.675a4.943,4.943,0,0,0-.288,1.023,3.533,3.533,0,0,0,.774,2.682,3.822,3.822,0,0,0,3.845,1.145,2.427,2.427,0,0,0,1.8-1.487,1.493,1.493,0,0,0-.19-1.194.984.984,0,0,0-1.066-.446,1.466,1.466,0,0,0-.923.825,1.676,1.676,0,0,0-.04,1.232,4.291,4.291,0,0,0,1.52,1.929,7.653,7.653,0,0,0,3.941,1.541,7.813,7.813,0,0,0,2.875-.259c.661-.194,1-.374,1.015-.346a1.051,1.051,0,0,1-.243.137,5.613,5.613,0,0,1-.74.309,7.485,7.485,0,0,1-2.923.348,7.727,7.727,0,0,1-4.075-1.534,4.5,4.5,0,0,1-1.619-2.044,1.938,1.938,0,0,1,.048-1.421,1.725,1.725,0,0,1,1.1-.975,1.252,1.252,0,0,1,1.351.559,1.749,1.749,0,0,1,.22,1.412,2.165,2.165,0,0,1-.808,1.108,3.318,3.318,0,0,1-1.178.546,4.006,4.006,0,0,1-4.052-1.263,3.577,3.577,0,0,1-.73-2.818,3.108,3.108,0,0,1,.245-.768A1.032,1.032,0,0,1,221.472,142.675Z" transform="translate(-221.032 -142.675)" fill="#263238"/></g><g transform="translate(41.611 47.543)"><path d="M271.774,231.709a3.4,3.4,0,0,1,4.978-2.894c1.181.683,2.084,2.055,1.976,4.69-.289,7.025-7.283,5.285-7.287,5.084C271.438,238.463,271.629,234.615,271.774,231.709Z" transform="translate(-271.441 -228.392)" fill="#ffbe9d"/><g transform="translate(2.248 2.118)"><path d="M275.834,238.029c.032-.021.119.091.322.194a1.225,1.225,0,0,0,.914.056,3.031,3.031,0,0,0,1.513-2.66,4.042,4.042,0,0,0-.27-1.766,1.415,1.415,0,0,0-.882-.978.624.624,0,0,0-.736.306c-.1.192-.064.334-.1.345-.021.017-.146-.124-.077-.412a.778.778,0,0,1,.294-.429.924.924,0,0,1,.684-.151,1.722,1.722,0,0,1,1.234,1.142,4.154,4.154,0,0,1,.343,1.976c-.1,1.414-.882,2.709-1.91,2.961a1.31,1.31,0,0,1-1.111-.232C275.84,238.2,275.809,238.041,275.834,238.029Z" transform="translate(-275.827 -232.524)" fill="#eb996e"/></g></g></g><g transform="translate(98.796 34.576)"><g transform="translate(12.272 24.374)"><path d="M350.573,289.564c-3.523-9.232-41.322-38.921-41.322-38.921l-10.862,5.8,27.4,27.572,2.931,19.073s9.138,2.633,13.037,2.256C349.036,304.636,352.5,294.6,350.573,289.564Z" transform="translate(-298.389 -250.643)" fill="#ffbe9d"/></g><g transform="translate(38.855 56.415)"><path d="M358.844,326.943a2.973,2.973,0,0,1-.365-.528l-.911-1.486-2.979-4.915c-1.176-1.912-2.27-3.622-3.073-4.855l-.949-1.461a2.916,2.916,0,0,1-.323-.554,2.948,2.948,0,0,1,.408.494c.25.328.6.811,1.021,1.415.844,1.207,1.966,2.905,3.144,4.82s2.194,3.676,2.914,4.96c.36.642.646,1.164.838,1.529A2.951,2.951,0,0,1,358.844,326.943Z" transform="translate(-350.243 -313.145)" fill="#eb996e"/></g><path d="M286.689,205.577c-1.08-.054-.946.907-.651,1.624s1.99,4.654,1.99,4.654-4.11-7.4-4.558-7.841-1.238-1.237-1.846-.777-.349,1.085-.111,1.825c.212.662,2.363,5.62,2.815,6.662.053.123.436.932.229,1.061-.15.294-.8-.352-1-.615l-3.151-4.159s-2.469-3.465-3.04-3.244c-1.035.4-1.527.977-1.282,1.574s5.564,8.5,5.564,8.5l-4.594-5.546a2.122,2.122,0,0,0-1.2-.707,1.259,1.259,0,0,0-1.238.382c-.6.675.543,1.991,1.051,2.919.322.589,2.326,3.277,2.326,3.277l4.476,7.75-.731.16-1.625-2.623-1.706,5.023a44.544,44.544,0,0,0,4.646,6.623c.954,1.035,3.665,1.163,3.665,1.163l10.925-4.808a52.137,52.137,0,0,0-.559-5.564,36.245,36.245,0,0,0-2.868-6.012c-.848-1.257-2.617-3.079-3.27-4.347S287.95,205.641,286.689,205.577Z" transform="translate(-274.451 -203.099)" fill="#ffbe9d"/><g transform="translate(12.921 12.865)"><path d="M302.872,228.194c.038.034-.444.536-1.047,1.467a12.141,12.141,0,0,0-.917,1.713,12.119,12.119,0,0,0-1.006,4.619,12.173,12.173,0,0,0,.121,1.939c.161,1.1.391,1.754.342,1.77a1.706,1.706,0,0,1-.191-.45,4.238,4.238,0,0,1-.168-.548,7.172,7.172,0,0,1-.169-.741,10.748,10.748,0,0,1-.181-1.972,11.39,11.39,0,0,1,1.027-4.717,10.759,10.759,0,0,1,.985-1.718,7.116,7.116,0,0,1,.462-.6,4.325,4.325,0,0,1,.381-.429C302.731,228.3,302.859,228.181,302.872,228.194Z" transform="translate(-299.656 -228.193)" fill="#eb996e"/></g><g transform="translate(7.033 19.834)"><path d="M293.478,243.371a11,11,0,0,0-2.881-.558,7.471,7.471,0,0,0-1.618.157l-.076.016-.039-.058a5.319,5.319,0,0,1-.69-1.138,5.317,5.317,0,0,1,.869,1.007l-.116-.043a6.159,6.159,0,0,1,3.775.191A2.083,2.083,0,0,1,293.478,243.371Z" transform="translate(-288.169 -241.788)" fill="#eb996e"/></g><g transform="translate(6.527 10.583)"><path d="M296.9,223.75a13.88,13.88,0,0,1-1.5.416,26.63,26.63,0,0,0-6.875,2.931,13.649,13.649,0,0,1-1.342.8,6.829,6.829,0,0,1,1.241-.956,20.79,20.79,0,0,1,6.93-2.954A6.8,6.8,0,0,1,296.9,223.75Z" transform="translate(-287.183 -223.743)" fill="#eb996e"/></g><g transform="translate(2.875 15.084)"><path d="M282.461,232.524c.016-.009.087.1.2.295a4.023,4.023,0,0,1,.358.909,4.145,4.145,0,0,1,.116,1.453,6.236,6.236,0,0,1-.439,1.722,12.119,12.119,0,0,1-.725,1.609,6.17,6.17,0,0,1-.851,1.174,4.116,4.116,0,0,1-.744.633c-.193.126-.311.177-.319.163-.028-.039.406-.308.922-.921a6.9,6.9,0,0,0,.777-1.167,14.306,14.306,0,0,0,.692-1.587,6.564,6.564,0,0,0,.443-1.651,4.349,4.349,0,0,0-.055-1.385C282.678,232.987,282.413,232.546,282.461,232.524Z" transform="translate(-280.059 -232.523)" fill="#eb996e"/></g></g></g><g transform="translate(-124.42 10.535)"><g transform="translate(362.926 186.111)"><path d="M412.823,240.627l-4.2,5.91-1.564-.693-11.923,7.094-2.118-6.264s6.692-1.784,8.186-3.857.224-2.78.224-2.78l3.457-2.929Z" transform="translate(-393.016 -237.109)" fill="#ebebeb"/></g><g transform="translate(341.619 150)"><path d="M380.413,175.951s-4.618-1.759-10.385-9.208-7.66-16.492-8.488-16.571-4.173-2.275-13.189,11.574-6.833,17.694-5.47,17.866,10.968-1.041,16.634.463,12.632,5.6,12.632,5.6Z" transform="translate(-341.619 -150)" fill="#ebebeb"/><g transform="translate(29.486 22.893)"><path d="M431,217.87l-2.084,2.857-.934,1.28a4.085,4.085,0,0,1-5.531,1.014l-9.707-5.071,7.961-12.726,9.421,6.953A4.085,4.085,0,0,1,431,217.87Z" transform="translate(-412.747 -205.223)" fill="#e0e0e0"/></g><g transform="translate(1.007 0.278)"><path d="M350.285,162.491c-4.819,7.512-7.387,14.459-5.737,15.518s6.895-4.172,11.714-11.684,7.387-14.459,5.737-15.518S355.1,154.98,350.285,162.491Z" transform="translate(-344.049 -150.672)" fill="#e0e0e0"/></g><g transform="translate(45.317 35.854)"><path d="M453.58,240.778l-2.645-1.279,2.2-3.01,1.89,1.6Z" transform="translate(-450.935 -236.488)" fill="#e0e0e0"/></g><g transform="translate(39.856 32.702)"><path d="M443.4,232.509a31.207,31.207,0,0,1-5.635-3.617,31.227,31.227,0,0,1,5.635,3.617Z" transform="translate(-437.761 -228.886)" fill="#ebebeb"/></g><g transform="translate(41.585 31.023)"><path d="M446.978,228.319a26.144,26.144,0,0,1-5.043-3.478,26.2,26.2,0,0,1,5.043,3.478Z" transform="translate(-441.933 -224.834)" fill="#ebebeb"/></g><g transform="translate(38.972 34.943)"><path d="M440.773,237.553c-.022.045-.34-.079-.842-.319-.251-.119-.547-.268-.873-.438s-.652-.406-1.007-.634a11.9,11.9,0,0,1-2.421-1.864,14.473,14.473,0,0,1,2.617,1.562c.352.226.674.466.983.652s.59.351.822.5C440.516,237.3,440.794,237.508,440.773,237.553Z" transform="translate(-435.629 -234.29)" fill="#ebebeb"/></g><g transform="translate(6.918 10.447)"><path d="M366.305,176.152s-3.77-3.183-6.866,2.088,1.135,6.836,1.135,6.836A37.753,37.753,0,0,0,366.305,176.152Z" transform="translate(-358.307 -175.2)" fill="#ebebeb"/></g><g transform="translate(4.822 5.368)"><path d="M368.742,162.95a6.349,6.349,0,0,1-.32,1.047c-.232.665-.564,1.633-1.01,2.814l-.861,1.877-.483,1.045-.253.546c-.09.182-.2.358-.3.541l-1.293,2.281-.34.6c-.112.2-.256.387-.384.584l-.8,1.181-.806,1.18c-.136.191-.256.392-.4.571l-.432.536-1.651,2.038c-.133.16-.257.325-.395.476l-.417.437-.8.833-1.434,1.49c-.935.844-1.712,1.5-2.246,1.964a6.283,6.283,0,0,1-.859.681,6.448,6.448,0,0,1,.764-.785l2.169-2.048,1.392-1.509.777-.838.407-.437c.134-.151.255-.317.386-.478l1.623-2.037L361.2,177c.145-.178.263-.378.4-.568l.8-1.173.8-1.172c.128-.195.271-.378.383-.578l.341-.592,1.3-2.255c.1-.181.212-.354.3-.534l.259-.539.5-1.031c.322-.664.622-1.283.9-1.849l1.112-2.762A6.424,6.424,0,0,1,368.742,162.95Z" transform="translate(-353.252 -162.95)" fill="#e0e0e0"/></g></g></g></g></g></svg>