<svg xmlns="http://www.w3.org/2000/svg" width="94.333" height="92.905" viewBox="0 0 94.333 92.905"><g transform="translate(0 -0.058)"><path d="M62.82,40.989l12.433-12.3C79.9,24.043,88.828,29.9,84,35.578L68.948,53.29a10.561,10.561,0,0,1-2.014,1.827,15.018,15.018,0,0,1-8.165,2.068H36.428a41.922,41.922,0,0,0-4.836.28l-6.426.722L11.839,45.254S19.4,30.976,34.231,35.08a31.935,31.935,0,0,0,8.522,1.134H57.435c6.912,0,6.967,10.983-.058,10.983H44.6" transform="translate(7.09 16.138)" fill="#ffcdac"/><path d="M22.807,69.732,35.486,56.724a.009.009,0,0,0,0-.013L13.972,35.833a.01.01,0,0,0-.013,0L1.16,49.12Zm0,0" transform="translate(0.695 21.423)" fill="#6bd5e1"/><path d="M13.359,11.561A7.92,7.92,0,0,0,6.2,19.444v8.432a2.637,2.637,0,0,0,2.637,2.637H26.915a2.637,2.637,0,0,0,2.637-2.637V19.444a7.919,7.919,0,0,0-7.173-7.884" transform="translate(3.71 6.888)" fill="#ffb677"/><path d="M25.662,10.1a8.848,8.848,0,1,1-8.848-8.849A8.848,8.848,0,0,1,25.662,10.1Zm0,0" transform="translate(4.77 0.713)" fill="#ffcdac"/><path d="M27.967,11.561A7.921,7.921,0,0,0,20.8,19.444v8.432a2.638,2.638,0,0,0,2.638,2.637H41.523a2.637,2.637,0,0,0,2.637-2.637V19.444a7.92,7.92,0,0,0-7.173-7.884" transform="translate(12.459 6.888)" fill="#ff8364"/><path d="M40.27,10.1a8.848,8.848,0,1,1-8.848-8.849A8.848,8.848,0,0,1,40.27,10.1Zm0,0" transform="translate(13.518 0.713)" fill="#ffcdac"/><path d="M42.576,11.561a7.92,7.92,0,0,0-7.164,7.884v8.432a2.638,2.638,0,0,0,2.637,2.637H56.131a2.638,2.638,0,0,0,2.638-2.637V19.444A7.92,7.92,0,0,0,51.6,11.56" transform="translate(21.207 6.888)" fill="#ffd98e"/><path d="M54.879,10.1A8.848,8.848,0,1,1,46.03,1.248,8.849,8.849,0,0,1,54.879,10.1Zm0,0" transform="translate(22.267 0.713)" fill="#ffcdac"/><path d="M92.1,28.034a8.545,8.545,0,0,0-5.27-2.208,7.544,7.544,0,0,0-5.8,2.207L70.549,38.412a6.963,6.963,0,0,0-.71-1.013,6.8,6.8,0,0,0-5.313-2.376H49.843a30.116,30.116,0,0,1-8.028-1.067,19.752,19.752,0,0,0-18.425,3.9,26.8,26.8,0,0,0-4.8,5.15l-2.633-2.555a1.872,1.872,0,0,0-1.3-.527h-.012a1.875,1.875,0,0,0-1.331.571L.519,53.782a1.857,1.857,0,0,0,.057,2.631L22.222,77.025a1.855,1.855,0,0,0,2.609-.048L37.51,63.969a1.866,1.866,0,0,0-.037-2.641l-1.1-1.071,2.527-.284a40.16,40.16,0,0,1,4.622-.268H65.859a16.772,16.772,0,0,0,9.165-2.36l.06-.04a12.366,12.366,0,0,0,2.367-2.149L92.506,37.444c2.577-3.031,2.415-6.813-.4-9.41ZM23.454,73.073,4.487,55.012,14.7,44.4,33.561,62.7ZM89.679,35.04,74.624,52.753a8.674,8.674,0,0,1-1.629,1.485,13.2,13.2,0,0,1-7.135,1.757H43.518a43.817,43.817,0,0,0-5.043.292l-5.555.623L21.29,45.623a23.145,23.145,0,0,1,4.447-4.893,15.974,15.974,0,0,1,15.089-3.2,33.823,33.823,0,0,0,9.017,1.2H64.526a3.353,3.353,0,0,1,3.341,3.634A4.019,4.019,0,0,1,67,44.944a3.153,3.153,0,0,1-2.531,1.062H51.686a1.856,1.856,0,0,0,0,3.712H64.468a6.882,6.882,0,0,0,5.359-2.371,7.621,7.621,0,0,0,1.748-4.728l12.08-11.954a4.344,4.344,0,0,1,5.933.1c.78.72,1.829,2.232.09,4.278Zm0,0" transform="translate(0 15.425)"/><path d="M30.079,39.831a1.855,1.855,0,1,0-3.613.847l.017.076a1.857,1.857,0,0,0,1.805,1.432,1.878,1.878,0,0,0,.425-.049,1.856,1.856,0,0,0,1.383-2.23Zm0,0" transform="translate(15.82 22.961)"/><path d="M9.528,39.21H27.61a4.465,4.465,0,0,0,2.637-.859,4.465,4.465,0,0,0,2.637.859H50.967A4.465,4.465,0,0,0,53.6,38.35a4.465,4.465,0,0,0,2.637.859H74.323a4.5,4.5,0,0,0,4.492-4.493V26.285a9.73,9.73,0,0,0-5.292-8.7,10.7,10.7,0,1,0-16.483,0A9.72,9.72,0,0,0,53.6,20.531a9.7,9.7,0,0,0-3.437-2.946,10.7,10.7,0,1,0-16.482,0,9.7,9.7,0,0,0-3.437,2.946,9.711,9.711,0,0,0-3.437-2.947,10.7,10.7,0,1,0-16.482,0,9.731,9.731,0,0,0-5.293,8.7v8.431A4.5,4.5,0,0,0,9.528,39.21ZM65.282,3.769a6.993,6.993,0,1,1-6.993,6.993A7,7,0,0,1,65.282,3.769ZM60.461,20.315a10.666,10.666,0,0,0,9.641,0,6.029,6.029,0,0,1,5,5.97v8.432a.782.782,0,0,1-.782.782H56.241a.782.782,0,0,1-.781-.782V26.285a6.029,6.029,0,0,1,5-5.97ZM41.926,3.769a6.993,6.993,0,1,1-6.993,6.993A7,7,0,0,1,41.926,3.769ZM37.1,20.315a10.666,10.666,0,0,0,9.641,0,6.03,6.03,0,0,1,5,5.97v8.432a.782.782,0,0,1-.782.782H32.885a.782.782,0,0,1-.782-.782V26.285a6.031,6.031,0,0,1,5-5.97ZM18.569,3.769a6.993,6.993,0,1,1-6.993,6.993,7,7,0,0,1,6.993-6.993ZM8.746,26.285a6.031,6.031,0,0,1,5-5.97,10.666,10.666,0,0,0,9.641,0,6.029,6.029,0,0,1,5,5.97v8.432a.782.782,0,0,1-.782.782H9.528a.782.782,0,0,1-.782-.782Zm0,0" transform="translate(3.015 0)"/></g></svg>