<svg xmlns="http://www.w3.org/2000/svg" width="85.333" height="85.333" viewBox="0 0 85.333 85.333"><g transform="translate(1.376 1.376)"><g transform="translate(56.43)"><path d="M55.763,1V12.011H42V1Z" transform="translate(-42 -1)" fill="#f0d0b4"/></g><g transform="translate(12.387)"><path d="M23.763,1V12.011H10V1Z" transform="translate(-10 -1)" fill="#f0d0b4"/></g><g transform="translate(34.408)"><path d="M39.763,1V12.011H26V1Z" transform="translate(-26 -1)" fill="#f0d0b4"/></g><g transform="translate(5.505 19.269)"><path d="M76.57,67.3H5v-46.8A5.506,5.506,0,0,1,10.505,15H71.064a5.506,5.506,0,0,1,5.505,5.505Z" transform="translate(-5 -15)" fill="#ccd1d9"/></g><g transform="translate(11.011 24.774)"><path d="M68.183,60.29H10.376A1.377,1.377,0,0,1,9,58.914V20.376A1.377,1.377,0,0,1,10.376,19H68.183a1.377,1.377,0,0,1,1.376,1.376V58.914A1.377,1.377,0,0,1,68.183,60.29Z" transform="translate(-9 -19)" fill="#69d6f4"/></g><g transform="translate(0 71.57)"><path d="M80.828,53H3.753a2.691,2.691,0,0,0-1.941.812A2.691,2.691,0,0,0,1,55.753a8.265,8.265,0,0,0,8.258,8.258H75.322a8.27,8.27,0,0,0,8.258-8.258A2.761,2.761,0,0,0,80.828,53Z" transform="translate(-1 -53)" fill="#969faa"/></g><g transform="translate(68.817 77.075)"><path d="M51,57h5.505v5.505H51Z" transform="translate(-51 -57)" fill="#ff826e"/></g><g transform="translate(57.806 77.075)"><path d="M43,57h5.505v5.505H43Z" transform="translate(-43 -57)" fill="#ff826e"/></g><g transform="translate(31.656 71.57)"><path d="M43.269,53v2.753a2.761,2.761,0,0,1-2.753,2.753H26.753A2.761,2.761,0,0,1,24,55.753V53Z" transform="translate(-24 -53)" fill="#ff826e"/></g><g transform="translate(19.269 39.914)"><path d="M59.043,47.892V56.15H50.165v-.041a13.764,13.764,0,1,0-26.907-4.088,13.637,13.637,0,0,0,.633,4.129H15V47.892l3.5-1.115A20,20,0,0,1,20.2,42.621l-1.679-3.248,5.849-5.849L27.621,35.2A20,20,0,0,1,31.778,33.5L32.892,30H41.15l1.115,3.5A20,20,0,0,1,46.422,35.2l3.248-1.679,5.849,5.849L53.84,42.621a20,20,0,0,1,1.707,4.157Z" transform="translate(-15 -30)" fill="#ffc729"/></g><g transform="translate(27.527 48.172)"><path d="M48.527,49.763a13.8,13.8,0,0,1-.619,4.088v.041H38.4a5.436,5.436,0,0,0,1.872-4.129,5.505,5.505,0,0,0-11.011,0,5.436,5.436,0,0,0,1.872,4.129h-9.5a13.764,13.764,0,1,1,26.894-4.129Z" transform="translate(-21 -36)" fill="#fcd770"/></g></g><path d="M81.2,66.3H79.828V20.882A6.89,6.89,0,0,0,72.946,14H68.817v2.753h4.129a4.134,4.134,0,0,1,4.129,4.129V66.3H8.258V20.882a4.134,4.134,0,0,1,4.129-4.129h4.129V14H12.387a6.89,6.89,0,0,0-6.882,6.882V66.3H4.129A4.134,4.134,0,0,0,0,70.43a9.647,9.647,0,0,0,9.634,9.634H75.7a9.647,9.647,0,0,0,9.634-9.634A4.134,4.134,0,0,0,81.2,66.3Zm-46.8,2.753H50.925V70.43a1.377,1.377,0,0,1-1.376,1.376H35.785a1.377,1.377,0,0,1-1.376-1.376Zm28.9,8.258H60.559V74.559h2.753Zm11.011,0H71.57V74.559h2.753Zm2.753-.139V71.806H68.817v5.505H66.064V71.806H57.806v5.505H9.634A6.89,6.89,0,0,1,2.753,70.43a1.377,1.377,0,0,1,1.376-1.376H31.656V70.43a4.134,4.134,0,0,0,4.129,4.129H49.548a4.134,4.134,0,0,0,4.129-4.129V69.054H81.2A1.377,1.377,0,0,1,82.58,70.43a6.9,6.9,0,0,1-5.505,6.743Z" transform="translate(0 5.269)"/><path d="M27.269,20.753V18H10.753A2.755,2.755,0,0,0,8,20.753V59.29a2.755,2.755,0,0,0,2.753,2.753H68.559a2.755,2.755,0,0,0,2.753-2.753V20.753A2.755,2.755,0,0,0,68.559,18H52.043v2.753H68.559V59.29H63.054V51.405L59.291,50.2a20.728,20.728,0,0,0-1.265-3.068l1.806-3.508-7.259-7.259L49.064,38.17A20.79,20.79,0,0,0,46,36.905L44.788,33.14H34.522L33.316,36.9a20.728,20.728,0,0,0-3.068,1.265L26.74,36.362l-7.259,7.259,1.806,3.508A20.79,20.79,0,0,0,20.022,50.2l-3.764,1.208V59.29H10.753V20.753Zm0,35.785A12.388,12.388,0,1,1,51.7,59.29H45.958a6.882,6.882,0,1,0-12.6,0H27.613A12.4,12.4,0,0,1,27.269,56.537Zm8.258,0A4.129,4.129,0,1,1,42.7,59.29H36.61a4.115,4.115,0,0,1-1.083-2.753ZM19.011,53.412l3.243-1.038.2-.712a17.741,17.741,0,0,1,1.587-3.85l.361-.646-1.555-3.02,4.421-4.421,3.02,1.555.646-.361a17.741,17.741,0,0,1,3.85-1.587l.712-.2,1.036-3.241h6.25l1.038,3.243.712.2a17.741,17.741,0,0,1,3.85,1.587l.646.361,3.02-1.555,4.421,4.421-1.555,3.02.361.646a17.741,17.741,0,0,1,1.587,3.85l.2.712L60.3,53.412V59.29H54.535a15.14,15.14,0,1,0-29.759,0H19.011Z" transform="translate(3.011 6.774)"/><path d="M13,4h5.505V6.753H13Z" transform="translate(4.892 1.505)"/><path d="M29,4h5.505V6.753H29Z" transform="translate(10.914 1.505)"/><path d="M45,4h5.505V6.753H45Z" transform="translate(16.935 1.505)"/><path d="M31.882,37.161h2.753v-23.4h6.882V0H25V13.763h6.882ZM27.753,2.753H38.763v8.258H27.753Z" transform="translate(9.408)"/><path d="M49.763,19.269H36V37.161h2.753V22.021H52.516V13.763H59.4V0H42.882V13.763h6.882ZM45.634,2.753H56.645v8.258H45.634Z" transform="translate(13.548)"/><path d="M15.882,22.021H29.645v15.14H32.4V19.269H18.634V13.763h6.882V0H9V13.763h6.882ZM11.753,2.753H22.763v8.258H11.753Z" transform="translate(3.387)"/></svg>