<svg xmlns="http://www.w3.org/2000/svg" xmlns:xlink="http://www.w3.org/1999/xlink" width="382.348" height="482.058" viewBox="0 0 382.348 482.058"><defs><clipPath id="a"><path d="M6.939,0h468.18c3.832,0,6.939,6.415,6.939,14.329v353.69c0,7.913-3.107,14.329-6.939,14.329H6.939C3.107,382.348,0,375.932,0,368.019V14.329C0,6.415,3.107,0,6.939,0Z" transform="translate(-13818.883 -13307.311)" fill="#cbc232"/></clipPath><clipPath id="b"><path d="M363.315,0C563.969,0,726.631,155.789,726.631,347.964S563.969,695.928,363.315,695.928,0,540.139,0,347.964,162.662,0,363.315,0Z" transform="translate(0 0)" fill="#21c9b8"/></clipPath><clipPath id="c"><rect width="530.776" height="530.776" fill="#dee4f0"/></clipPath><clipPath id="d"><rect width="164.718" height="168.09" fill="#fff" stroke="#fff" stroke-width="1"/></clipPath><clipPath id="e"><rect width="58.209" height="58.209" transform="translate(0 0)" fill="#12263f"/></clipPath><clipPath id="f"><rect width="51.708" height="51.708" fill="#12263f"/></clipPath><clipPath id="g"><rect width="52.997" height="52.997" transform="translate(0)" fill="#12263f"/></clipPath><clipPath id="h"><rect width="48.821" height="48.821" transform="translate(0 0)" fill="#12263f"/></clipPath></defs><g transform="translate(7132.278 13195.058)"><g transform="translate(6175.032 -26531.883) rotate(-90)" opacity="0.61" clip-path="url(#a)"><path d="M0,0H2398.132V505.308H0Z" transform="translate(-15143.035 -13371.444)" fill="#f3f9ff"/><path d="M339.691,0C527.3,0,679.381,152.085,679.381,339.691S527.3,679.381,339.691,679.381,0,527.3,0,339.691,152.085,0,339.691,0Z" transform="translate(-13285.051 -13355.636)" fill="#dbe3fb" opacity="0.14"/><path d="M339.691,0C527.3,0,679.381,152.085,679.381,339.691S527.3,679.381,339.691,679.381,0,527.3,0,339.691,152.085,0,339.691,0Z" transform="translate(-14076.762 -12959.152)" fill="#dbe3fb" opacity="0.14"/><path d="M339.691,0C527.3,0,679.381,152.085,679.381,339.691S527.3,679.381,339.691,679.381,0,527.3,0,339.691,152.085,0,339.691,0Z" transform="translate(-13298.395 -13510.606)" fill="#dbe3fb" opacity="0"/><rect width="9.32" height="2.485" transform="translate(-13153.392 -12939.704)" fill="#dbe3fb"/><ellipse cx="339.238" cy="324.904" rx="339.238" ry="324.904" transform="translate(-14135.324 -13978.838)" fill="#94a6dd" opacity="0.13"/><path d="M347.5,0c191.917,0,347.5,149.006,347.5,332.814S539.414,665.628,347.5,665.628,0,516.622,0,332.814,155.58,0,347.5,0Z" transform="translate(-13640.354 -13164.039)" fill="#fff" opacity="0.25"/><path d="M453.264,0C703.595,0,906.528,202.933,906.528,453.264S703.595,906.528,453.264,906.528,0,703.595,0,453.264,202.933,0,453.264,0Z" transform="translate(-15143.035 -13116.137)" fill="#a5b9f6" opacity="0.23" style="mix-blend-mode:multiply;isolation:isolate"/><path d="M453.264,0C703.595,0,906.528,202.933,906.528,453.264S703.595,906.528,453.264,906.528,0,703.595,0,453.264,202.933,0,453.264,0Z" transform="translate(-15241.656 -13963.87)" fill="#a5b9f6" opacity="0.23" style="mix-blend-mode:multiply;isolation:isolate"/><path d="M453.264,0C703.595,0,906.528,202.933,906.528,453.264S703.595,906.528,453.264,906.528,0,703.595,0,453.264,202.933,0,453.264,0Z" transform="translate(-14460.897 -13878.895)" fill="#f6f8fe" opacity="0.51" style="mix-blend-mode:lighten;isolation:isolate"/><g transform="translate(-14538.409 -13748.186)"><g clip-path="url(#c)"><path d="M530.776,265.384c0-8.566-.445-17.023-1.242-25.387H406.306l115.518-43.039a264.075,264.075,0,0,0-17.719-47.595L365.817,200.875,470.144,96.541a267.021,267.021,0,0,0-35.916-35.908l-87.152,87.161L398.3,35.715a264.035,264.035,0,0,0-46.185-21.142L290.788,148.75V1.233C282.423.445,273.958,0,265.384,0s-17.031.445-25.4,1.233V124.478L196.957,8.96a262.269,262.269,0,0,0-47.6,17.719l51.513,138.279L96.541,60.633A268,268,0,0,0,60.624,96.541L147.785,183.7,35.715,132.474a264.315,264.315,0,0,0-21.142,46.185L148.75,240H1.233C.445,248.361,0,256.818,0,265.384c0,8.583.445,17.04,1.233,25.4H124.478L8.952,333.819a262.977,262.977,0,0,0,17.719,47.612L164.95,329.909,60.624,434.227a267.083,267.083,0,0,0,35.916,35.916L183.7,382.983l-51.228,112.07A264.266,264.266,0,0,0,178.651,516.2l61.337-134.177V529.543c8.365.789,16.83,1.233,25.4,1.233s17.04-.445,25.4-1.233V406.3l43.031,115.527a264.14,264.14,0,0,0,47.6-17.711L329.9,365.826,434.227,470.144a266.109,266.109,0,0,0,35.916-35.916l-87.161-87.161,112.07,51.244A265.2,265.2,0,0,0,516.2,352.125L382.026,290.788H529.534c.8-8.365,1.242-16.821,1.242-25.4" fill="#dee4f0" opacity="0.12"/></g></g><path d="M618.344,309.167c0-9.979-.518-19.831-1.447-29.576H473.339l134.577-50.14A307.632,307.632,0,0,0,587.273,174l-161.1,60.012L547.708,112.468a311.075,311.075,0,0,0-41.842-41.832L404.335,172.177,464.015,41.607a307.6,307.6,0,0,0-53.805-24.63L338.763,173.291V1.437C329.018.518,319.156,0,309.167,0s-19.841.518-29.586,1.437V145.015L229.452,10.438a305.538,305.538,0,0,0-55.457,20.642l60.012,161.093L112.468,70.636a312.219,312.219,0,0,0-41.842,41.832L172.167,214.009,41.607,154.33a307.922,307.922,0,0,0-24.63,53.805l156.314,71.457H1.437C.518,289.336,0,299.188,0,309.167c0,10,.518,19.851,1.437,29.6H145.015L10.429,388.893a306.364,306.364,0,0,0,20.642,55.467l161.093-60.021L70.626,505.867a311.149,311.149,0,0,0,41.842,41.842L214.009,446.168,154.33,576.727a307.863,307.863,0,0,0,53.8,24.64l71.457-156.314V616.908c9.745.919,19.606,1.437,29.586,1.437s19.851-.518,29.6-1.437V473.329l50.13,134.586a307.711,307.711,0,0,0,55.457-20.633l-60.021-161.1L505.867,547.708a310.013,310.013,0,0,0,41.842-41.842L446.168,404.326l130.559,59.7a308.948,308.948,0,0,0,24.64-53.805L445.053,338.763H616.9c.929-9.745,1.447-19.6,1.447-29.6" transform="translate(-14335.129 -12938.46)" fill="none" stroke="#fff" stroke-width="1"/><rect width="9.32" height="2.485" transform="translate(-13114.48 -12874.489)" fill="#e9dcbf"/><g transform="translate(-13397.381 -13286.881)" style="isolation:isolate"><g transform="translate(0 0)" clip-path="url(#d)" style="isolation:isolate"><path d="M19.412,0h0a3.235,3.235,0,0,0-3.177,2.829A15.828,15.828,0,0,1,2.809,16.186a3.24,3.24,0,0,0,.021,6.425A15.7,15.7,0,0,1,16.256,35.965a3.2,3.2,0,0,0,6.351.056A15.957,15.957,0,0,1,36.08,22.531a3.091,3.091,0,0,0,2.737-3.043v-.076a3.2,3.2,0,0,0-2.807-3.156A15.958,15.958,0,0,1,22.584,2.8,3.221,3.221,0,0,0,19.412,0" transform="translate(0 0)" fill="#fff" stroke="#fff" stroke-width="1"/><path d="M40.955,0h0a3.235,3.235,0,0,0-3.177,2.829A15.828,15.828,0,0,1,24.352,16.186a3.24,3.24,0,0,0,.021,6.425A15.7,15.7,0,0,1,37.8,35.965a3.2,3.2,0,0,0,6.351.056,15.957,15.957,0,0,1,13.473-13.49,3.091,3.091,0,0,0,2.737-3.043v-.076a3.2,3.2,0,0,0-2.807-3.156A15.954,15.954,0,0,1,44.129,2.8,3.224,3.224,0,0,0,40.955,0" transform="translate(20.424 0)" fill="#fff" stroke="#fff" stroke-width="1"/><path d="M62.5,0h0a3.235,3.235,0,0,0-3.177,2.829A15.828,15.828,0,0,1,45.9,16.186a3.24,3.24,0,0,0,.021,6.425A15.7,15.7,0,0,1,59.342,35.965a3.2,3.2,0,0,0,6.351.056,15.957,15.957,0,0,1,13.473-13.49A3.091,3.091,0,0,0,81.9,19.488v-.076A3.2,3.2,0,0,0,79.1,16.256,15.958,15.958,0,0,1,65.67,2.8,3.221,3.221,0,0,0,62.5,0" transform="translate(40.847 0)" fill="#fff" stroke="#fff" stroke-width="1"/><path d="M84.042,0h0a3.235,3.235,0,0,0-3.177,2.829A15.828,15.828,0,0,1,67.439,16.186a3.24,3.24,0,0,0,.021,6.425A15.7,15.7,0,0,1,80.886,35.965a3.2,3.2,0,0,0,6.351.056,15.957,15.957,0,0,1,13.473-13.49,3.091,3.091,0,0,0,2.737-3.043v-.076a3.2,3.2,0,0,0-2.807-3.156A15.958,15.958,0,0,1,87.214,2.8,3.221,3.221,0,0,0,84.042,0" transform="translate(61.271 0)" fill="#fff" stroke="#fff" stroke-width="1"/><path d="M19.412,22.12h0a3.237,3.237,0,0,0-3.177,2.83A15.83,15.83,0,0,1,2.809,38.308a3.24,3.24,0,0,0,.021,6.425A15.7,15.7,0,0,1,16.256,58.087a3.2,3.2,0,0,0,6.351.055A15.957,15.957,0,0,1,36.08,44.653a3.092,3.092,0,0,0,2.737-3.043v-.078a3.205,3.205,0,0,0-2.807-3.156A15.956,15.956,0,0,1,22.584,24.919a3.221,3.221,0,0,0-3.171-2.8" transform="translate(0 20.97)" fill="#fff" stroke="#fff" stroke-width="1"/><path d="M40.955,22.12h0a3.237,3.237,0,0,0-3.177,2.83A15.83,15.83,0,0,1,24.352,38.308a3.24,3.24,0,0,0,.021,6.425A15.7,15.7,0,0,1,37.8,58.087a3.2,3.2,0,0,0,6.351.055A15.957,15.957,0,0,1,57.623,44.653,3.092,3.092,0,0,0,60.36,41.61v-.078a3.205,3.205,0,0,0-2.807-3.156A15.952,15.952,0,0,1,44.129,24.919a3.224,3.224,0,0,0-3.173-2.8" transform="translate(20.424 20.97)" fill="#fff" stroke="#fff" stroke-width="1"/><path d="M62.5,22.12h0a3.237,3.237,0,0,0-3.177,2.83A15.83,15.83,0,0,1,45.9,38.308a3.24,3.24,0,0,0,.021,6.425A15.7,15.7,0,0,1,59.342,58.087a3.2,3.2,0,0,0,6.351.055A15.957,15.957,0,0,1,79.166,44.653,3.092,3.092,0,0,0,81.9,41.61v-.078A3.205,3.205,0,0,0,79.1,38.376,15.956,15.956,0,0,1,65.67,24.919a3.221,3.221,0,0,0-3.171-2.8" transform="translate(40.847 20.97)" fill="#fff" stroke="#fff" stroke-width="1"/><path d="M84.042,22.12h0a3.237,3.237,0,0,0-3.177,2.83A15.83,15.83,0,0,1,67.439,38.308a3.24,3.24,0,0,0,.021,6.425A15.7,15.7,0,0,1,80.886,58.087a3.2,3.2,0,0,0,6.351.055A15.957,15.957,0,0,1,100.71,44.653a3.092,3.092,0,0,0,2.737-3.043v-.078a3.205,3.205,0,0,0-2.807-3.156A15.956,15.956,0,0,1,87.214,24.919a3.221,3.221,0,0,0-3.171-2.8" transform="translate(61.271 20.97)" fill="#fff" stroke="#fff" stroke-width="1"/><path d="M19.412,44.241h0a3.235,3.235,0,0,0-3.177,2.829A15.823,15.823,0,0,1,2.809,60.425a3.241,3.241,0,0,0,.021,6.427A15.7,15.7,0,0,1,16.256,80.206a3.2,3.2,0,0,0,6.351.056A15.957,15.957,0,0,1,36.08,66.772a3.092,3.092,0,0,0,2.737-3.043v-.076A3.2,3.2,0,0,0,36.009,60.5,15.958,15.958,0,0,1,22.584,47.04a3.221,3.221,0,0,0-3.171-2.8" transform="translate(0 41.942)" fill="#fff" stroke="#fff" stroke-width="1"/><path d="M40.955,44.241h0a3.235,3.235,0,0,0-3.177,2.829A15.823,15.823,0,0,1,24.352,60.425a3.241,3.241,0,0,0,.021,6.427A15.7,15.7,0,0,1,37.8,80.206a3.2,3.2,0,0,0,6.351.056,15.957,15.957,0,0,1,13.473-13.49,3.092,3.092,0,0,0,2.737-3.043v-.076A3.2,3.2,0,0,0,57.552,60.5,15.954,15.954,0,0,1,44.129,47.04a3.224,3.224,0,0,0-3.173-2.8" transform="translate(20.424 41.942)" fill="#fff" stroke="#fff" stroke-width="1"/><path d="M62.5,44.241h0a3.235,3.235,0,0,0-3.177,2.829A15.823,15.823,0,0,1,45.9,60.425a3.241,3.241,0,0,0,.021,6.427A15.7,15.7,0,0,1,59.342,80.206a3.2,3.2,0,0,0,6.351.056,15.957,15.957,0,0,1,13.473-13.49A3.092,3.092,0,0,0,81.9,63.729v-.076A3.2,3.2,0,0,0,79.1,60.5,15.958,15.958,0,0,1,65.67,47.04a3.221,3.221,0,0,0-3.171-2.8" transform="translate(40.847 41.942)" fill="#fff" stroke="#fff" stroke-width="1"/><path d="M84.042,44.241h0a3.235,3.235,0,0,0-3.177,2.829A15.823,15.823,0,0,1,67.439,60.425a3.241,3.241,0,0,0,.021,6.427A15.7,15.7,0,0,1,80.886,80.206a3.2,3.2,0,0,0,6.351.056,15.957,15.957,0,0,1,13.473-13.49,3.092,3.092,0,0,0,2.737-3.043v-.076a3.2,3.2,0,0,0-2.807-3.156A15.958,15.958,0,0,1,87.214,47.04a3.221,3.221,0,0,0-3.171-2.8" transform="translate(61.271 41.942)" fill="#fff" stroke="#fff" stroke-width="1"/><path d="M19.412,66.361h0a3.235,3.235,0,0,0-3.177,2.829A15.828,15.828,0,0,1,2.809,82.547a3.24,3.24,0,0,0,.021,6.425,15.7,15.7,0,0,1,13.426,13.354,3.2,3.2,0,0,0,6.351.056A15.957,15.957,0,0,1,36.08,88.892a3.091,3.091,0,0,0,2.737-3.043v-.076a3.2,3.2,0,0,0-2.807-3.156A15.958,15.958,0,0,1,22.584,69.16a3.221,3.221,0,0,0-3.171-2.8" transform="translate(0 62.912)" fill="#fff" stroke="#fff" stroke-width="1"/><path d="M40.955,66.361h0a3.235,3.235,0,0,0-3.177,2.829A15.827,15.827,0,0,1,24.352,82.547a3.24,3.24,0,0,0,.021,6.425A15.7,15.7,0,0,1,37.8,102.326a3.2,3.2,0,0,0,6.351.056,15.957,15.957,0,0,1,13.473-13.49,3.091,3.091,0,0,0,2.737-3.043v-.076a3.2,3.2,0,0,0-2.807-3.156A15.954,15.954,0,0,1,44.129,69.16a3.224,3.224,0,0,0-3.173-2.8" transform="translate(20.424 62.912)" fill="#fff" stroke="#fff" stroke-width="1"/><path d="M62.5,66.361h0a3.235,3.235,0,0,0-3.177,2.829A15.827,15.827,0,0,1,45.9,82.547a3.24,3.24,0,0,0,.021,6.425,15.7,15.7,0,0,1,13.426,13.354,3.2,3.2,0,0,0,6.351.056,15.957,15.957,0,0,1,13.473-13.49A3.091,3.091,0,0,0,81.9,85.849v-.076A3.2,3.2,0,0,0,79.1,82.617,15.958,15.958,0,0,1,65.67,69.16a3.221,3.221,0,0,0-3.171-2.8" transform="translate(40.847 62.912)" fill="#fff" stroke="#fff" stroke-width="1"/><path d="M84.042,66.361h0a3.235,3.235,0,0,0-3.177,2.829A15.827,15.827,0,0,1,67.439,82.547a3.24,3.24,0,0,0,.021,6.425,15.7,15.7,0,0,1,13.426,13.354,3.2,3.2,0,0,0,6.351.056,15.957,15.957,0,0,1,13.473-13.49,3.091,3.091,0,0,0,2.737-3.043v-.076a3.2,3.2,0,0,0-2.807-3.156A15.958,15.958,0,0,1,87.214,69.16a3.221,3.221,0,0,0-3.171-2.8" transform="translate(61.271 62.912)" fill="#fff" stroke="#fff" stroke-width="1"/></g></g></g><g transform="translate(-7070.807 -13123.598)"><path d="M3285.453,1074.4v153.91h-129.7v-95.424C3202,1123.558,3258.262,1101.472,3285.453,1074.4Z" transform="translate(-3155.751 -1074.399)" fill="#dbe3fb"/><path d="M3523.713,1145.024V1210.4q-.073,8.333-.185,17.913H3394.011V1074.4c26.653,27.751,83.387,50.793,129.512,61.019C3523.512,1136.426,3523.61,1139.01,3523.713,1145.024Z" transform="translate(-3264.308 -1074.399)" fill="#eae7ad"/><path d="M3523.528,1312.659c0,.168-.005.342-.005.51-1.165,99.19-114.389,146.96-129.512,153.406V1312.659Z" transform="translate(-3264.308 -1158.749)" fill="#a5b9f6"/><path d="M3285.453,1312.659v153.917c-14.8-7.2-121.063-52.247-129.7-142.58v-11.337Z" transform="translate(-3155.751 -1158.749)" fill="#cbc232"/></g><path d="M-34.016,0l1.729-9.953,3.1.007a4.117,4.117,0,0,1,2.6.7A2.177,2.177,0,0,1-25.8-7.28a2.507,2.507,0,0,1-1.743,2.208,1.672,1.672,0,0,1,.923.769,2.3,2.3,0,0,1,.28,1.33,2.88,2.88,0,0,1-1.1,2.191A4.378,4.378,0,0,1-30.194,0Zm2.762-4.334-.472,2.687,1.579.007a2.036,2.036,0,0,0,1.237-.366,1.451,1.451,0,0,0,.595-.988,1.226,1.226,0,0,0-.167-.96,1.11,1.11,0,0,0-.885-.373Zm.246-1.449,1.36.014a2.166,2.166,0,0,0,1.241-.355,1.378,1.378,0,0,0,.578-.95q.171-1.2-1.265-1.21l-1.477-.007ZM-21.123,0A2,2,0,0,1-21.2-.67a2.505,2.505,0,0,1-1.887.807A2.27,2.27,0,0,1-24.695-.5a1.913,1.913,0,0,1-.6-1.528,2.211,2.211,0,0,1,1.015-1.856,4.608,4.608,0,0,1,2.594-.646l.9.014.1-.444a1.543,1.543,0,0,0,.021-.431.74.74,0,0,0-.243-.5.836.836,0,0,0-.55-.188,1.177,1.177,0,0,0-.766.222,1.077,1.077,0,0,0-.4.68l-1.935.007a2.15,2.15,0,0,1,.974-1.719A3.773,3.773,0,0,1-21.3-7.533a2.727,2.727,0,0,1,1.969.749,2.19,2.19,0,0,1,.595,1.856L-19.3-1.388l-.034.438a2.111,2.111,0,0,0,.116.82l-.007.13Zm-1.483-1.36a1.765,1.765,0,0,0,1.456-.725l.239-1.278-.67-.007a1.872,1.872,0,0,0-1.538.649,1.131,1.131,0,0,0-.212.554.656.656,0,0,0,.154.584A.779.779,0,0,0-22.606-1.36Zm7.793-.089a1.266,1.266,0,0,0,.889-.291,1.428,1.428,0,0,0,.465-.81l1.812-.007a2.657,2.657,0,0,1-.489,1.4,2.969,2.969,0,0,1-1.176.971,3.366,3.366,0,0,1-1.548.328,2.733,2.733,0,0,1-2.133-.93,3.469,3.469,0,0,1-.759-2.42l.021-.376.007-.075a4.624,4.624,0,0,1,1.217-2.861,3.291,3.291,0,0,1,2.55-1.015,2.666,2.666,0,0,1,1.986.817,2.885,2.885,0,0,1,.721,2.082h-1.8a1.514,1.514,0,0,0-.26-.937.987.987,0,0,0-.779-.369q-1.381-.041-1.675,2.017a6.809,6.809,0,0,0-.075,1.258Q-15.771-1.47-14.813-1.449Zm7.109-1.5-.9.779L-8.976,0H-10.9l1.818-10.5H-7.15l-1,5.7.376-.4L-5.578-7.4H-3.1L-6.337-4.218-4.279,0H-6.392ZM1-.766a2.554,2.554,0,0,1-2.037.9A1.9,1.9,0,0,1-2.652-.629a2.8,2.8,0,0,1-.424-1.982l.8-4.785H-.349l-.813,4.806a1.9,1.9,0,0,0-.007.424.7.7,0,0,0,.759.7,1.763,1.763,0,0,0,1.483-.69L2-7.4H3.938L2.652,0H.854ZM11.19-3.678a6.109,6.109,0,0,1-.608,2.064A3.347,3.347,0,0,1,9.427-.273,2.676,2.676,0,0,1,7.9.144a2.135,2.135,0,0,1-1.7-.8l-.677,3.5H3.6L5.366-7.4,7.144-7.4l-.13.745A2.362,2.362,0,0,1,8.9-7.533a2.1,2.1,0,0,1,1.688.79,3.432,3.432,0,0,1,.643,2.068A7.991,7.991,0,0,1,11.19-3.678ZM9.276-3.821l.041-.656A1.823,1.823,0,0,0,9.075-5.53a.871.871,0,0,0-.749-.4,1.592,1.592,0,0,0-1.388.711L6.385-2.174a1.079,1.079,0,0,0,1.087.718A1.392,1.392,0,0,0,8.634-2,3.7,3.7,0,0,0,9.276-3.821ZM19.428.137a3.631,3.631,0,0,1-2.649-1,3.548,3.548,0,0,1-1.022-2.659v-.191A4.468,4.468,0,0,1,16.188-5.7a3.161,3.161,0,0,1,1.22-1.354,3.425,3.425,0,0,1,1.8-.475,3.07,3.07,0,0,1,2.389.957,3.889,3.889,0,0,1,.872,2.714v.807H17.76a1.835,1.835,0,0,0,.578,1.162,1.746,1.746,0,0,0,1.22.438,2.132,2.132,0,0,0,1.784-.827L22.313-1.2a2.966,2.966,0,0,1-1.2.981A3.947,3.947,0,0,1,19.428.137ZM19.2-5.934a1.237,1.237,0,0,0-.954.4A2.048,2.048,0,0,0,17.78-4.4h2.748V-4.56a1.46,1.46,0,0,0-.355-1.015A1.277,1.277,0,0,0,19.2-5.934ZM25.409-7.4l.062.854A2.582,2.582,0,0,1,27.6-7.533a2.146,2.146,0,0,1,1.75.69,3.221,3.221,0,0,1,.588,2.064V0H27.959V-4.73a1.282,1.282,0,0,0-.273-.913,1.224,1.224,0,0,0-.909-.284,1.359,1.359,0,0,0-1.251.711V0H23.55V-7.4ZM-22.1,17h-1.982V6.5H-22.1Zm5.913,0a2.194,2.194,0,0,1-.2-.663,2.39,2.39,0,0,1-1.866.8,2.626,2.626,0,0,1-1.8-.629,2.023,2.023,0,0,1-.714-1.586,2.09,2.09,0,0,1,.872-1.8,4.3,4.3,0,0,1,2.519-.636h.909v-.424a1.219,1.219,0,0,0-.263-.82,1.035,1.035,0,0,0-.831-.308,1.177,1.177,0,0,0-.783.239.813.813,0,0,0-.284.656h-1.976a1.984,1.984,0,0,1,.4-1.189,2.621,2.621,0,0,1,1.121-.858,4.086,4.086,0,0,1,1.627-.311,3.228,3.228,0,0,1,2.17.687,2.4,2.4,0,0,1,.8,1.931v3.206a3.536,3.536,0,0,0,.294,1.593V17Zm-1.634-1.374a1.7,1.7,0,0,0,.807-.195,1.28,1.28,0,0,0,.547-.523V13.637h-.738q-1.483,0-1.579,1.025l-.007.116a.791.791,0,0,0,.26.608A1.009,1.009,0,0,0-17.825,15.626ZM-7.667,9.6l.062.854a2.582,2.582,0,0,1,2.126-.991,2.146,2.146,0,0,1,1.75.69,3.221,3.221,0,0,1,.588,2.064V17H-5.117V12.27a1.282,1.282,0,0,0-.273-.913,1.224,1.224,0,0,0-.909-.284,1.359,1.359,0,0,0-1.251.711V17H-9.526V9.6ZM2.786,16.248a2.477,2.477,0,0,1-2.023.889,2.337,2.337,0,0,1-1.815-.684,2.918,2.918,0,0,1-.639-2V9.6H.284v4.778q0,1.155,1.053,1.155a1.427,1.427,0,0,0,1.381-.7V9.6H4.7V17H2.84ZM12.855,13.37a4.479,4.479,0,0,1-.759,2.772,2.513,2.513,0,0,1-2.119.995,2.309,2.309,0,0,1-1.921-.923L7.967,17H6.19V6.5H8.166v3.767a2.25,2.25,0,0,1,1.8-.8,2.534,2.534,0,0,1,2.123.995,4.485,4.485,0,0,1,.769,2.8Zm-1.976-.144a2.942,2.942,0,0,0-.355-1.637,1.2,1.2,0,0,0-1.06-.516,1.3,1.3,0,0,0-1.3.772v2.919a1.321,1.321,0,0,0,1.313.779,1.22,1.22,0,0,0,1.258-.943A4.866,4.866,0,0,0,10.879,13.227Zm6.6,3.91a3.631,3.631,0,0,1-2.649-1,3.548,3.548,0,0,1-1.022-2.659v-.191a4.468,4.468,0,0,1,.431-1.993,3.161,3.161,0,0,1,1.22-1.354,3.425,3.425,0,0,1,1.8-.475,3.07,3.07,0,0,1,2.389.957,3.889,3.889,0,0,1,.872,2.714v.807h-4.71a1.835,1.835,0,0,0,.578,1.162,1.746,1.746,0,0,0,1.22.438,2.132,2.132,0,0,0,1.784-.827l.971,1.087a2.966,2.966,0,0,1-1.2.981A3.947,3.947,0,0,1,17.476,17.137Zm-.226-6.07a1.237,1.237,0,0,0-.954.4,2.048,2.048,0,0,0-.468,1.135h2.748V12.44a1.46,1.46,0,0,0-.355-1.015A1.277,1.277,0,0,0,17.25,11.066Zm4.491,4.963a1,1,0,0,1,.318-.766,1.235,1.235,0,0,1,1.6,0,1,1,0,0,1,.318.766.981.981,0,0,1-.314.755,1.256,1.256,0,0,1-1.606,0A.981.981,0,0,1,21.742,16.029Z" transform="translate(-7032.782 -13143.521)" fill="#12263f"/><path d="M17.1,11.685a3.522,3.522,0,0,1-1.186,2.529,4.165,4.165,0,0,1-2.82.923,3.745,3.745,0,0,1-3.011-1.289,5.284,5.284,0,0,1-1.1-3.538V9.7a5.966,5.966,0,0,1,.506-2.529,3.791,3.791,0,0,1,1.446-1.678,4.05,4.05,0,0,1,2.184-.584,4.058,4.058,0,0,1,2.775.923,3.785,3.785,0,0,1,1.217,2.591H15.065a2.079,2.079,0,0,0-.537-1.4,1.987,1.987,0,0,0-1.4-.434,1.742,1.742,0,0,0-1.535.735,4.118,4.118,0,0,0-.523,2.28v.752a4.408,4.408,0,0,0,.489,2.358,1.71,1.71,0,0,0,1.542.745,2.025,2.025,0,0,0,1.418-.434,1.961,1.961,0,0,0,.537-1.343ZM22.6,15a2.194,2.194,0,0,1-.2-.663,2.39,2.39,0,0,1-1.866.8,2.626,2.626,0,0,1-1.8-.629,2.023,2.023,0,0,1-.714-1.586,2.09,2.09,0,0,1,.872-1.8,4.3,4.3,0,0,1,2.519-.636h.909v-.424a1.219,1.219,0,0,0-.263-.82,1.035,1.035,0,0,0-.831-.308,1.177,1.177,0,0,0-.783.239.813.813,0,0,0-.284.656H18.189a1.984,1.984,0,0,1,.4-1.189,2.621,2.621,0,0,1,1.121-.858,4.086,4.086,0,0,1,1.627-.311,3.228,3.228,0,0,1,2.17.687,2.4,2.4,0,0,1,.8,1.931v3.206a3.536,3.536,0,0,0,.294,1.593V15Zm-1.634-1.374a1.7,1.7,0,0,0,.807-.195,1.28,1.28,0,0,0,.547-.523V11.637h-.738q-1.483,0-1.579,1.025L20,12.778a.791.791,0,0,0,.26.608A1.009,1.009,0,0,0,20.971,13.626Zm9.01-4.17A5.367,5.367,0,0,0,29.27,9.4a1.447,1.447,0,0,0-1.47.759V15H25.825V7.6h1.866l.055.882a1.831,1.831,0,0,1,1.647-1.019,2.07,2.07,0,0,1,.615.089Zm7.608,1.914a4.436,4.436,0,0,1-.776,2.738,2.488,2.488,0,0,1-2.1,1.029,2.3,2.3,0,0,1-1.812-.779v3.486H30.931V7.6h1.832l.068.725A2.322,2.322,0,0,1,34.7,7.467a2.5,2.5,0,0,1,2.126,1.012,4.556,4.556,0,0,1,.759,2.789Zm-1.976-.144a2.911,2.911,0,0,0-.366-1.593,1.191,1.191,0,0,0-1.063-.561,1.294,1.294,0,0,0-1.278.711v3.028a1.316,1.316,0,0,0,1.292.731Q35.614,13.544,35.614,11.227Zm6.6,3.91a3.631,3.631,0,0,1-2.649-1,3.548,3.548,0,0,1-1.022-2.659v-.191A4.468,4.468,0,0,1,38.977,9.3,3.161,3.161,0,0,1,40.2,7.942,3.425,3.425,0,0,1,42,7.467a3.07,3.07,0,0,1,2.389.957,3.889,3.889,0,0,1,.872,2.714v.807h-4.71a1.835,1.835,0,0,0,.578,1.162,1.746,1.746,0,0,0,1.22.438,2.132,2.132,0,0,0,1.784-.827L45.1,13.8a2.966,2.966,0,0,1-1.2.981A3.947,3.947,0,0,1,42.217,15.137Zm-.226-6.07a1.237,1.237,0,0,0-.954.4A2.048,2.048,0,0,0,40.57,10.6h2.748V10.44a1.46,1.46,0,0,0-.355-1.015A1.277,1.277,0,0,0,41.992,9.066Zm6.754-3.281V7.6H50.01V9.053H48.746v3.691a.881.881,0,0,0,.157.588.79.79,0,0,0,.6.178,3.15,3.15,0,0,0,.581-.048v1.5a4.067,4.067,0,0,1-1.2.178,1.886,1.886,0,0,1-2.119-2.1V9.053H45.69V7.6h1.08V5.785ZM55.4,15a2.194,2.194,0,0,1-.2-.663,2.39,2.39,0,0,1-1.866.8,2.626,2.626,0,0,1-1.8-.629,2.023,2.023,0,0,1-.714-1.586,2.09,2.09,0,0,1,.872-1.8,4.3,4.3,0,0,1,2.519-.636h.909v-.424a1.219,1.219,0,0,0-.263-.82,1.035,1.035,0,0,0-.831-.308,1.177,1.177,0,0,0-.783.239.813.813,0,0,0-.284.656H50.981a1.984,1.984,0,0,1,.4-1.189A2.621,2.621,0,0,1,52.5,7.778a4.086,4.086,0,0,1,1.627-.311,3.228,3.228,0,0,1,2.17.687,2.4,2.4,0,0,1,.8,1.931v3.206a3.536,3.536,0,0,0,.294,1.593V15Zm-1.634-1.374a1.7,1.7,0,0,0,.807-.195,1.28,1.28,0,0,0,.547-.523V11.637h-.738q-1.483,0-1.579,1.025l-.007.116a.791.791,0,0,0,.26.608A1.009,1.009,0,0,0,53.763,13.626Zm8.859-.67a.637.637,0,0,0-.359-.571,4.077,4.077,0,0,0-1.152-.373q-2.639-.554-2.639-2.242a2.032,2.032,0,0,1,.817-1.644,3.3,3.3,0,0,1,2.136-.66,3.547,3.547,0,0,1,2.252.663,2.09,2.09,0,0,1,.844,1.723H62.547a.956.956,0,0,0-.273-.7,1.157,1.157,0,0,0-.854-.277,1.182,1.182,0,0,0-.772.226.712.712,0,0,0-.273.574.609.609,0,0,0,.311.53,3.2,3.2,0,0,0,1.049.349,8.571,8.571,0,0,1,1.244.332,2.044,2.044,0,0,1,1.565,1.989,1.929,1.929,0,0,1-.868,1.637,3.745,3.745,0,0,1-2.242.625,3.912,3.912,0,0,1-1.651-.332,2.77,2.77,0,0,1-1.131-.909,2.113,2.113,0,0,1-.41-1.248h1.873a1.031,1.031,0,0,0,.39.807,1.546,1.546,0,0,0,.971.28,1.43,1.43,0,0,0,.858-.215A.67.67,0,0,0,62.623,12.956Zm9.755.588a1.3,1.3,0,0,0,.889-.3,1.054,1.054,0,0,0,.355-.8h1.853a2.534,2.534,0,0,1-.41,1.377,2.706,2.706,0,0,1-1.1.971,3.455,3.455,0,0,1-1.548.345,3.211,3.211,0,0,1-2.5-1.008,3.99,3.99,0,0,1-.916-2.786v-.13A3.944,3.944,0,0,1,69.9,8.485a3.174,3.174,0,0,1,2.5-1.019,3.111,3.111,0,0,1,2.225.79,2.8,2.8,0,0,1,.851,2.1H73.622a1.346,1.346,0,0,0-.355-.933,1.324,1.324,0,0,0-1.945.144,2.908,2.908,0,0,0-.352,1.63V11.4a2.945,2.945,0,0,0,.349,1.641A1.205,1.205,0,0,0,72.377,13.544Zm3.917-2.311a4.387,4.387,0,0,1,.424-1.962,3.1,3.1,0,0,1,1.22-1.333,3.56,3.56,0,0,1,1.849-.472,3.368,3.368,0,0,1,2.444.916,3.676,3.676,0,0,1,1.056,2.488l.014.506a3.866,3.866,0,0,1-.95,2.731,3.683,3.683,0,0,1-5.1,0,3.934,3.934,0,0,1-.954-2.789Zm1.976.144a2.757,2.757,0,0,0,.4,1.61,1.426,1.426,0,0,0,2.256.007,3.017,3.017,0,0,0,.4-1.76,2.73,2.73,0,0,0-.4-1.6,1.312,1.312,0,0,0-1.135-.567,1.29,1.29,0,0,0-1.121.564A3.068,3.068,0,0,0,78.27,11.377ZM86.336,7.6l.062.854a2.582,2.582,0,0,1,2.126-.991,2.146,2.146,0,0,1,1.75.69,3.221,3.221,0,0,1,.588,2.064V15H88.886V10.27a1.282,1.282,0,0,0-.273-.913,1.224,1.224,0,0,0-.909-.284,1.359,1.359,0,0,0-1.251.711V15H84.477V7.6ZM13.048,30.544a1.3,1.3,0,0,0,.889-.3,1.054,1.054,0,0,0,.355-.8h1.853a2.534,2.534,0,0,1-.41,1.377,2.706,2.706,0,0,1-1.1.971,3.455,3.455,0,0,1-1.548.345,3.211,3.211,0,0,1-2.5-1.008,3.99,3.99,0,0,1-.916-2.786v-.13a3.944,3.944,0,0,1,.909-2.728,3.174,3.174,0,0,1,2.5-1.019,3.111,3.111,0,0,1,2.225.79,2.8,2.8,0,0,1,.851,2.1H14.292a1.346,1.346,0,0,0-.355-.933,1.324,1.324,0,0,0-1.945.144,2.908,2.908,0,0,0-.352,1.63V28.4a2.945,2.945,0,0,0,.349,1.641A1.205,1.205,0,0,0,13.048,30.544Zm3.917-2.311a4.387,4.387,0,0,1,.424-1.962,3.1,3.1,0,0,1,1.22-1.333,3.56,3.56,0,0,1,1.849-.472,3.368,3.368,0,0,1,2.444.916,3.676,3.676,0,0,1,1.056,2.488l.014.506a3.866,3.866,0,0,1-.95,2.731,3.3,3.3,0,0,1-2.55,1.029,3.319,3.319,0,0,1-2.553-1.025,3.934,3.934,0,0,1-.954-2.789Zm1.976.144a2.757,2.757,0,0,0,.4,1.61,1.426,1.426,0,0,0,2.256.007,3.017,3.017,0,0,0,.4-1.76,2.73,2.73,0,0,0-.4-1.6,1.312,1.312,0,0,0-1.135-.567,1.29,1.29,0,0,0-1.121.564A3.068,3.068,0,0,0,18.941,28.377ZM27.007,24.6l.062.854a2.582,2.582,0,0,1,2.126-.991,2.146,2.146,0,0,1,1.75.69,3.221,3.221,0,0,1,.588,2.064V32H29.557V27.27a1.282,1.282,0,0,0-.273-.913,1.224,1.224,0,0,0-.909-.284,1.359,1.359,0,0,0-1.251.711V32H25.148V24.6ZM35.4,22.785V24.6H36.66v1.449H35.4v3.691a.881.881,0,0,0,.157.588.79.79,0,0,0,.6.178,3.151,3.151,0,0,0,.581-.048v1.5a4.067,4.067,0,0,1-1.2.178,1.886,1.886,0,0,1-2.119-2.1V26.053h-1.08V24.6h1.08V22.785Zm6.521,3.671a5.367,5.367,0,0,0-.711-.055,1.447,1.447,0,0,0-1.47.759V32H37.76V24.6h1.866l.055.882a1.831,1.831,0,0,1,1.647-1.019,2.07,2.07,0,0,1,.615.089ZM46.948,32a2.194,2.194,0,0,1-.2-.663,2.39,2.39,0,0,1-1.866.8,2.626,2.626,0,0,1-1.8-.629,2.023,2.023,0,0,1-.714-1.586,2.09,2.09,0,0,1,.872-1.8,4.3,4.3,0,0,1,2.519-.636h.909v-.424a1.219,1.219,0,0,0-.263-.82,1.035,1.035,0,0,0-.831-.308,1.177,1.177,0,0,0-.783.239.813.813,0,0,0-.284.656H42.532a1.984,1.984,0,0,1,.4-1.189,2.621,2.621,0,0,1,1.121-.858,4.086,4.086,0,0,1,1.627-.311,3.228,3.228,0,0,1,2.17.687,2.4,2.4,0,0,1,.8,1.931v3.206a3.536,3.536,0,0,0,.294,1.593V32Zm-1.634-1.374a1.7,1.7,0,0,0,.807-.195,1.28,1.28,0,0,0,.547-.523V28.637h-.738q-1.483,0-1.579,1.025l-.007.116a.791.791,0,0,0,.26.608A1.009,1.009,0,0,0,45.314,30.626Zm8.859-.67a.637.637,0,0,0-.359-.571,4.077,4.077,0,0,0-1.152-.373q-2.639-.554-2.639-2.242a2.032,2.032,0,0,1,.817-1.644,3.3,3.3,0,0,1,2.136-.66,3.547,3.547,0,0,1,2.252.663,2.09,2.09,0,0,1,.844,1.723H54.1a.956.956,0,0,0-.273-.7,1.157,1.157,0,0,0-.854-.277,1.182,1.182,0,0,0-.772.226.712.712,0,0,0-.273.574.609.609,0,0,0,.311.53,3.2,3.2,0,0,0,1.049.349,8.571,8.571,0,0,1,1.244.332,2.044,2.044,0,0,1,1.565,1.989,1.929,1.929,0,0,1-.868,1.637,3.745,3.745,0,0,1-2.242.625,3.912,3.912,0,0,1-1.651-.332A2.77,2.77,0,0,1,50.2,30.9a2.113,2.113,0,0,1-.41-1.248h1.873a1.031,1.031,0,0,0,.39.807,1.546,1.546,0,0,0,.971.28,1.43,1.43,0,0,0,.858-.215A.67.67,0,0,0,54.173,29.956Zm6.6,2.181a3.631,3.631,0,0,1-2.649-1A3.548,3.548,0,0,1,57.1,28.479v-.191A4.468,4.468,0,0,1,57.53,26.3a3.161,3.161,0,0,1,1.22-1.354,3.425,3.425,0,0,1,1.8-.475,3.07,3.07,0,0,1,2.389.957,3.889,3.889,0,0,1,.872,2.714v.807H59.1a1.835,1.835,0,0,0,.578,1.162,1.746,1.746,0,0,0,1.22.438,2.132,2.132,0,0,0,1.784-.827l.971,1.087a2.966,2.966,0,0,1-1.2.981A3.947,3.947,0,0,1,60.77,32.137Zm-.226-6.07a1.237,1.237,0,0,0-.954.4,2.048,2.048,0,0,0-.468,1.135h2.748V27.44a1.46,1.46,0,0,0-.355-1.015A1.277,1.277,0,0,0,60.544,26.066ZM66.751,24.6l.062.854a2.582,2.582,0,0,1,2.126-.991,2.146,2.146,0,0,1,1.75.69,3.221,3.221,0,0,1,.588,2.064V32H69.3V27.27a1.282,1.282,0,0,0-.273-.913,1.224,1.224,0,0,0-.909-.284,1.359,1.359,0,0,0-1.251.711V32H64.892V24.6Zm3.924-3.015a1.913,1.913,0,0,1-.451,1.3,1.4,1.4,0,0,1-1.1.523,1.669,1.669,0,0,1-.461-.058,3.1,3.1,0,0,1-.557-.25,3.005,3.005,0,0,0-.513-.236,1.253,1.253,0,0,0-.342-.044.548.548,0,0,0-.407.171.664.664,0,0,0-.167.485l-1.148-.068a1.942,1.942,0,0,1,.448-1.292,1.381,1.381,0,0,1,1.1-.533,1.412,1.412,0,0,1,.386.051,4.253,4.253,0,0,1,.591.25,3.843,3.843,0,0,0,.567.239,1.3,1.3,0,0,0,.328.041A.577.577,0,0,0,69.359,22a.637.637,0,0,0,.174-.482ZM77.06,32a2.194,2.194,0,0,1-.2-.663,2.39,2.39,0,0,1-1.866.8,2.626,2.626,0,0,1-1.8-.629,2.023,2.023,0,0,1-.714-1.586,2.09,2.09,0,0,1,.872-1.8,4.3,4.3,0,0,1,2.519-.636h.909v-.424a1.219,1.219,0,0,0-.263-.82,1.035,1.035,0,0,0-.831-.308,1.177,1.177,0,0,0-.783.239.813.813,0,0,0-.284.656H72.644a1.985,1.985,0,0,1,.4-1.189,2.621,2.621,0,0,1,1.121-.858,4.086,4.086,0,0,1,1.627-.311,3.228,3.228,0,0,1,2.17.687,2.4,2.4,0,0,1,.8,1.931v3.206a3.536,3.536,0,0,0,.294,1.593V32Zm-1.634-1.374a1.7,1.7,0,0,0,.807-.195,1.28,1.28,0,0,0,.547-.523V28.637h-.738q-1.483,0-1.579,1.025l-.007.116a.791.791,0,0,0,.26.608A1.009,1.009,0,0,0,75.426,30.626Zm8.859-.67a.637.637,0,0,0-.359-.571,4.077,4.077,0,0,0-1.152-.373q-2.639-.554-2.639-2.242a2.032,2.032,0,0,1,.817-1.644,3.3,3.3,0,0,1,2.136-.66,3.547,3.547,0,0,1,2.252.663,2.09,2.09,0,0,1,.844,1.723H84.21a.956.956,0,0,0-.273-.7,1.157,1.157,0,0,0-.854-.277,1.182,1.182,0,0,0-.772.226.712.712,0,0,0-.273.574.609.609,0,0,0,.311.53,3.2,3.2,0,0,0,1.049.349,8.571,8.571,0,0,1,1.244.332,2.044,2.044,0,0,1,1.565,1.989,1.929,1.929,0,0,1-.868,1.637,3.745,3.745,0,0,1-2.242.625,3.912,3.912,0,0,1-1.651-.332,2.77,2.77,0,0,1-1.131-.909,2.113,2.113,0,0,1-.41-1.248h1.873a1.031,1.031,0,0,0,.39.807,1.546,1.546,0,0,0,.971.28A1.43,1.43,0,0,0,84,30.52.67.67,0,0,0,84.286,29.956Zm3.295,1.073a1,1,0,0,1,.318-.766,1.235,1.235,0,0,1,1.6,0,1,1,0,0,1,.318.766.981.981,0,0,1-.314.755,1.256,1.256,0,0,1-1.606,0A.981.981,0,0,1,87.581,31.029Z" transform="translate(-6896.84 -12813.964)" fill="#12263f"/><path d="M-20.6-3.315A3.522,3.522,0,0,1-21.786-.786a4.165,4.165,0,0,1-2.82.923,3.745,3.745,0,0,1-3.011-1.289,5.284,5.284,0,0,1-1.1-3.538V-5.3a5.966,5.966,0,0,1,.506-2.529,3.791,3.791,0,0,1,1.446-1.678,4.05,4.05,0,0,1,2.184-.584,4.058,4.058,0,0,1,2.775.923,3.785,3.785,0,0,1,1.217,2.591h-2.051a2.079,2.079,0,0,0-.537-1.4,1.987,1.987,0,0,0-1.4-.434,1.742,1.742,0,0,0-1.535.735,4.118,4.118,0,0,0-.523,2.28v.752a4.408,4.408,0,0,0,.489,2.358,1.71,1.71,0,0,0,1.542.745,2.025,2.025,0,0,0,1.418-.434,1.961,1.961,0,0,0,.537-1.343Zm.909-.451a4.387,4.387,0,0,1,.424-1.962,3.1,3.1,0,0,1,1.22-1.333A3.56,3.56,0,0,1-16.2-7.533a3.368,3.368,0,0,1,2.444.916A3.676,3.676,0,0,1-12.7-4.129l.014.506a3.866,3.866,0,0,1-.95,2.731A3.3,3.3,0,0,1-16.184.137,3.319,3.319,0,0,1-18.737-.889a3.934,3.934,0,0,1-.954-2.789Zm1.976.144a2.757,2.757,0,0,0,.4,1.61,1.309,1.309,0,0,0,1.135.557,1.312,1.312,0,0,0,1.121-.55,3.017,3.017,0,0,0,.4-1.76,2.73,2.73,0,0,0-.4-1.6A1.312,1.312,0,0,0-16.2-5.934a1.29,1.29,0,0,0-1.121.564A3.068,3.068,0,0,0-17.715-3.623ZM-4.809-3.63A4.436,4.436,0,0,1-5.585-.892,2.488,2.488,0,0,1-7.68.137,2.3,2.3,0,0,1-9.492-.643V2.844h-1.976V-7.4h1.832l.068.725a2.322,2.322,0,0,1,1.873-.861A2.5,2.5,0,0,1-5.568-6.521a4.556,4.556,0,0,1,.759,2.789Zm-1.976-.144A2.911,2.911,0,0,0-7.15-5.366a1.191,1.191,0,0,0-1.063-.561,1.294,1.294,0,0,0-1.278.711v3.028A1.316,1.316,0,0,0-8.2-1.456Q-6.785-1.456-6.785-3.773ZM-1.5,0H-3.483V-7.4H-1.5ZM-3.6-9.311a.973.973,0,0,1,.3-.731,1.117,1.117,0,0,1,.81-.287,1.12,1.12,0,0,1,.807.287.967.967,0,0,1,.3.731.97.97,0,0,1-.3.738,1.122,1.122,0,0,1-.8.287,1.122,1.122,0,0,1-.8-.287A.97.97,0,0,1-3.6-9.311ZM4.413,0a2.194,2.194,0,0,1-.2-.663,2.39,2.39,0,0,1-1.866.8,2.626,2.626,0,0,1-1.8-.629A2.023,2.023,0,0,1-.167-2.078,2.09,2.09,0,0,1,.7-3.883a4.3,4.3,0,0,1,2.519-.636h.909v-.424a1.219,1.219,0,0,0-.263-.82,1.035,1.035,0,0,0-.831-.308,1.177,1.177,0,0,0-.783.239.813.813,0,0,0-.284.656H0a1.984,1.984,0,0,1,.4-1.189,2.621,2.621,0,0,1,1.121-.858,4.086,4.086,0,0,1,1.627-.311,3.228,3.228,0,0,1,2.17.687,2.4,2.4,0,0,1,.8,1.931v3.206A3.536,3.536,0,0,0,6.409-.116V0ZM2.779-1.374a1.7,1.7,0,0,0,.807-.195,1.28,1.28,0,0,0,.547-.523V-3.363H3.394q-1.483,0-1.579,1.025l-.007.116a.791.791,0,0,0,.26.608A1.009,1.009,0,0,0,2.779-1.374Zm8.032-2.379a4.457,4.457,0,0,1,.776-2.755,2.517,2.517,0,0,1,2.123-1.025,2.265,2.265,0,0,1,1.784.807V-10.5h1.982V0H15.692l-.1-.786a2.325,2.325,0,0,1-1.9.923A2.511,2.511,0,0,1,11.6-.892,4.6,4.6,0,0,1,10.811-3.753Zm1.976.144a2.912,2.912,0,0,0,.362,1.593,1.181,1.181,0,0,0,1.053.554,1.322,1.322,0,0,0,1.292-.772V-5.154a1.3,1.3,0,0,0-1.278-.772Q12.787-5.927,12.787-3.609ZM22.412.137a3.631,3.631,0,0,1-2.649-1,3.548,3.548,0,0,1-1.022-2.659v-.191A4.468,4.468,0,0,1,19.171-5.7a3.161,3.161,0,0,1,1.22-1.354,3.425,3.425,0,0,1,1.8-.475,3.07,3.07,0,0,1,2.389.957,3.889,3.889,0,0,1,.872,2.714v.807h-4.71a1.835,1.835,0,0,0,.578,1.162,1.746,1.746,0,0,0,1.22.438,2.132,2.132,0,0,0,1.784-.827L25.3-1.2a2.966,2.966,0,0,1-1.2.981A3.947,3.947,0,0,1,22.412.137Zm-.226-6.07a1.237,1.237,0,0,0-.954.4A2.048,2.048,0,0,0,20.764-4.4h2.748V-4.56a1.46,1.46,0,0,0-.355-1.015A1.277,1.277,0,0,0,22.186-5.934Zm-50.8,20.89a.637.637,0,0,0-.359-.571,4.077,4.077,0,0,0-1.152-.373q-2.639-.554-2.639-2.242a2.032,2.032,0,0,1,.817-1.644,3.3,3.3,0,0,1,2.136-.66,3.547,3.547,0,0,1,2.252.663,2.09,2.09,0,0,1,.844,1.723H-28.69a.956.956,0,0,0-.273-.7,1.157,1.157,0,0,0-.854-.277,1.182,1.182,0,0,0-.772.226.712.712,0,0,0-.273.574.609.609,0,0,0,.311.53,3.2,3.2,0,0,0,1.049.349,8.571,8.571,0,0,1,1.244.332,2.044,2.044,0,0,1,1.565,1.989,1.929,1.929,0,0,1-.868,1.637,3.745,3.745,0,0,1-2.242.625,3.912,3.912,0,0,1-1.651-.332,2.77,2.77,0,0,1-1.131-.909A2.113,2.113,0,0,1-33,14.648h1.873a1.031,1.031,0,0,0,.39.807,1.546,1.546,0,0,0,.971.28,1.43,1.43,0,0,0,.858-.215A.67.67,0,0,0-28.615,14.956Zm6.6,2.181a3.631,3.631,0,0,1-2.649-1,3.548,3.548,0,0,1-1.022-2.659v-.191a4.468,4.468,0,0,1,.431-1.993,3.161,3.161,0,0,1,1.22-1.354,3.425,3.425,0,0,1,1.8-.475,3.07,3.07,0,0,1,2.389.957,3.889,3.889,0,0,1,.872,2.714v.807h-4.71a1.835,1.835,0,0,0,.578,1.162,1.746,1.746,0,0,0,1.22.438,2.132,2.132,0,0,0,1.784-.827l.971,1.087a2.966,2.966,0,0,1-1.2.981A3.947,3.947,0,0,1-22.019,17.137Zm-.226-6.07a1.237,1.237,0,0,0-.954.4,2.048,2.048,0,0,0-.468,1.135h2.748V12.44a1.46,1.46,0,0,0-.355-1.015A1.277,1.277,0,0,0-22.244,11.066Zm4.1,2.181a4.335,4.335,0,0,1,.81-2.741,2.625,2.625,0,0,1,2.184-1.039,2.3,2.3,0,0,1,1.894.834l.082-.7h1.791v7.15a3.161,3.161,0,0,1-.441,1.688,2.832,2.832,0,0,1-1.241,1.094,4.362,4.362,0,0,1-1.873.376,4.056,4.056,0,0,1-1.586-.325,2.815,2.815,0,0,1-1.169-.837l.875-1.2a2.314,2.314,0,0,0,1.791.827,1.694,1.694,0,0,0,1.224-.42,1.577,1.577,0,0,0,.438-1.193v-.4a2.285,2.285,0,0,1-1.8.772,2.618,2.618,0,0,1-2.157-1.042,4.334,4.334,0,0,1-.824-2.765Zm1.976.144a2.692,2.692,0,0,0,.4,1.576,1.284,1.284,0,0,0,1.107.571,1.372,1.372,0,0,0,1.292-.677V11.75a1.369,1.369,0,0,0-1.278-.677,1.292,1.292,0,0,0-1.118.581A3.034,3.034,0,0,0-16.167,13.391Zm10.732,2.857a2.477,2.477,0,0,1-2.023.889,2.337,2.337,0,0,1-1.815-.684,2.918,2.918,0,0,1-.639-2V9.6h1.976v4.778q0,1.155,1.053,1.155a1.427,1.427,0,0,0,1.381-.7V9.6h1.982V17H-5.38Zm7.561-4.792a5.367,5.367,0,0,0-.711-.055,1.447,1.447,0,0,0-1.47.759V17H-2.03V9.6H-.164l.055.882A1.831,1.831,0,0,1,1.538,9.467a2.07,2.07,0,0,1,.615.089ZM5.161,17H3.179V9.6H5.161Zm-2.1-9.311a.973.973,0,0,1,.3-.731,1.117,1.117,0,0,1,.81-.287,1.12,1.12,0,0,1,.807.287,1.044,1.044,0,0,1,0,1.47,1.122,1.122,0,0,1-.8.287,1.122,1.122,0,0,1-.8-.287A.97.97,0,0,1,3.063,7.689ZM6.48,13.247a4.457,4.457,0,0,1,.776-2.755A2.517,2.517,0,0,1,9.379,9.467a2.265,2.265,0,0,1,1.784.807V6.5h1.982V17H11.361l-.1-.786a2.325,2.325,0,0,1-1.9.923,2.511,2.511,0,0,1-2.1-1.029A4.6,4.6,0,0,1,6.48,13.247Zm1.976.144a2.912,2.912,0,0,0,.362,1.593,1.181,1.181,0,0,0,1.053.554,1.322,1.322,0,0,0,1.292-.772V11.846a1.3,1.3,0,0,0-1.278-.772Q8.456,11.073,8.456,13.391ZM18.963,17a2.194,2.194,0,0,1-.2-.663,2.39,2.39,0,0,1-1.866.8,2.626,2.626,0,0,1-1.8-.629,2.023,2.023,0,0,1-.714-1.586,2.09,2.09,0,0,1,.872-1.8,4.3,4.3,0,0,1,2.519-.636h.909v-.424a1.219,1.219,0,0,0-.263-.82,1.035,1.035,0,0,0-.831-.308,1.177,1.177,0,0,0-.783.239.813.813,0,0,0-.284.656H14.547a1.984,1.984,0,0,1,.4-1.189,2.621,2.621,0,0,1,1.121-.858,4.086,4.086,0,0,1,1.627-.311,3.228,3.228,0,0,1,2.17.687,2.4,2.4,0,0,1,.8,1.931v3.206a3.536,3.536,0,0,0,.294,1.593V17Zm-1.634-1.374a1.7,1.7,0,0,0,.807-.195,1.28,1.28,0,0,0,.547-.523V13.637h-.738q-1.483,0-1.579,1.025l-.007.116a.791.791,0,0,0,.26.608A1.009,1.009,0,0,0,17.329,15.626Zm4.546-2.379a4.457,4.457,0,0,1,.776-2.755,2.517,2.517,0,0,1,2.123-1.025,2.265,2.265,0,0,1,1.784.807V6.5H28.54V17H26.756l-.1-.786a2.325,2.325,0,0,1-1.9.923,2.511,2.511,0,0,1-2.1-1.029A4.6,4.6,0,0,1,21.875,13.247Zm1.976.144a2.912,2.912,0,0,0,.362,1.593,1.181,1.181,0,0,0,1.053.554,1.322,1.322,0,0,0,1.292-.772V11.846a1.3,1.3,0,0,0-1.278-.772Q23.851,11.073,23.851,13.391Zm6.323,2.639a1,1,0,0,1,.318-.766,1.235,1.235,0,0,1,1.6,0,1,1,0,0,1,.318.766.981.981,0,0,1-.314.755,1.256,1.256,0,0,1-1.606,0A.981.981,0,0,1,30.174,16.029Z" transform="translate(-6846.84 -13142.7)" fill="#12263f"/><path d="M11.542,11.685a3.522,3.522,0,0,1-1.186,2.529,4.165,4.165,0,0,1-2.82.923,3.745,3.745,0,0,1-3.011-1.289,5.284,5.284,0,0,1-1.1-3.538V9.7a5.966,5.966,0,0,1,.506-2.529A3.791,3.791,0,0,1,5.379,5.495,4.05,4.05,0,0,1,7.563,4.91a4.058,4.058,0,0,1,2.775.923,3.785,3.785,0,0,1,1.217,2.591H9.5a2.079,2.079,0,0,0-.537-1.4,1.987,1.987,0,0,0-1.4-.434,1.742,1.742,0,0,0-1.535.735,4.118,4.118,0,0,0-.523,2.28v.752a4.408,4.408,0,0,0,.489,2.358,1.71,1.71,0,0,0,1.542.745,2.025,2.025,0,0,0,1.418-.434,1.961,1.961,0,0,0,.537-1.343Zm4.621,3.452a3.631,3.631,0,0,1-2.649-1,3.548,3.548,0,0,1-1.022-2.659v-.191A4.468,4.468,0,0,1,12.923,9.3a3.161,3.161,0,0,1,1.22-1.354,3.425,3.425,0,0,1,1.8-.475,3.07,3.07,0,0,1,2.389.957,3.889,3.889,0,0,1,.872,2.714v.807h-4.71a1.835,1.835,0,0,0,.578,1.162,1.746,1.746,0,0,0,1.22.438,2.132,2.132,0,0,0,1.784-.827l.971,1.087a2.966,2.966,0,0,1-1.2.981A3.947,3.947,0,0,1,16.163,15.137Zm-.226-6.07a1.237,1.237,0,0,0-.954.4,2.048,2.048,0,0,0-.468,1.135h2.748V10.44a1.46,1.46,0,0,0-.355-1.015A1.277,1.277,0,0,0,15.937,9.066ZM22.144,7.6l.062.854a2.582,2.582,0,0,1,2.126-.991,2.146,2.146,0,0,1,1.75.69,3.221,3.221,0,0,1,.588,2.064V15H24.694V10.27a1.282,1.282,0,0,0-.273-.913,1.224,1.224,0,0,0-.909-.284,1.359,1.359,0,0,0-1.251.711V15H20.285V7.6Zm8.388-1.818V7.6H31.8V9.053H30.532v3.691a.881.881,0,0,0,.157.588.79.79,0,0,0,.6.178,3.15,3.15,0,0,0,.581-.048v1.5a4.067,4.067,0,0,1-1.2.178,1.886,1.886,0,0,1-2.119-2.1V9.053h-1.08V7.6h1.08V5.785Zm6.521,3.671a5.367,5.367,0,0,0-.711-.055,1.447,1.447,0,0,0-1.47.759V15H32.9V7.6h1.866l.055.882a1.831,1.831,0,0,1,1.647-1.019,2.07,2.07,0,0,1,.615.089ZM42.085,15a2.194,2.194,0,0,1-.2-.663,2.39,2.39,0,0,1-1.866.8,2.626,2.626,0,0,1-1.8-.629,2.023,2.023,0,0,1-.714-1.586,2.09,2.09,0,0,1,.872-1.8,4.3,4.3,0,0,1,2.519-.636H41.8v-.424a1.219,1.219,0,0,0-.263-.82,1.035,1.035,0,0,0-.831-.308,1.177,1.177,0,0,0-.783.239.813.813,0,0,0-.284.656H37.669a1.984,1.984,0,0,1,.4-1.189,2.621,2.621,0,0,1,1.121-.858,4.086,4.086,0,0,1,1.627-.311,3.228,3.228,0,0,1,2.17.687,2.4,2.4,0,0,1,.8,1.931v3.206a3.536,3.536,0,0,0,.294,1.593V15Zm-1.634-1.374a1.7,1.7,0,0,0,.807-.195,1.28,1.28,0,0,0,.547-.523V11.637h-.738q-1.483,0-1.579,1.025l-.007.116a.791.791,0,0,0,.26.608A1.009,1.009,0,0,0,40.451,13.626ZM47.389,15H45.407V4.5h1.982ZM51.1,15H49.119V7.6H51.1ZM49,5.689a.973.973,0,0,1,.3-.731,1.281,1.281,0,0,1,1.617,0,.967.967,0,0,1,.3.731.97.97,0,0,1-.3.738,1.267,1.267,0,0,1-1.606,0A.97.97,0,0,1,49,5.689Zm6,7.718h3.616V15H52.475V13.8L55.955,9.2H52.578V7.6H58.5V8.772ZM64.137,15a2.194,2.194,0,0,1-.2-.663,2.39,2.39,0,0,1-1.866.8,2.626,2.626,0,0,1-1.8-.629,2.023,2.023,0,0,1-.714-1.586,2.09,2.09,0,0,1,.872-1.8,4.3,4.3,0,0,1,2.519-.636h.909v-.424a1.219,1.219,0,0,0-.263-.82,1.035,1.035,0,0,0-.831-.308,1.177,1.177,0,0,0-.783.239.813.813,0,0,0-.284.656H59.721a1.984,1.984,0,0,1,.4-1.189,2.621,2.621,0,0,1,1.121-.858,4.086,4.086,0,0,1,1.627-.311,3.228,3.228,0,0,1,2.17.687,2.4,2.4,0,0,1,.8,1.931v3.206a3.536,3.536,0,0,0,.294,1.593V15ZM62.5,13.626a1.7,1.7,0,0,0,.807-.195,1.28,1.28,0,0,0,.547-.523V11.637h-.738q-1.483,0-1.579,1.025l-.007.116a.791.791,0,0,0,.26.608A1.009,1.009,0,0,0,62.5,13.626Zm7.93-.082a1.3,1.3,0,0,0,.889-.3,1.054,1.054,0,0,0,.355-.8H73.53a2.534,2.534,0,0,1-.41,1.377,2.706,2.706,0,0,1-1.1.971,3.455,3.455,0,0,1-1.548.345,3.211,3.211,0,0,1-2.5-1.008,3.99,3.99,0,0,1-.916-2.786v-.13a3.944,3.944,0,0,1,.909-2.728,3.174,3.174,0,0,1,2.5-1.019,3.111,3.111,0,0,1,2.225.79,2.8,2.8,0,0,1,.851,2.1H71.678a1.346,1.346,0,0,0-.355-.933,1.324,1.324,0,0,0-1.945.144,2.908,2.908,0,0,0-.352,1.63V11.4a2.945,2.945,0,0,0,.349,1.641A1.205,1.205,0,0,0,70.433,13.544ZM76.743,15H74.761V7.6h1.982Zm-2.1-9.311a.973.973,0,0,1,.3-.731,1.281,1.281,0,0,1,1.617,0,.967.967,0,0,1,.3.731.97.97,0,0,1-.3.738,1.267,1.267,0,0,1-1.606,0A.97.97,0,0,1,74.644,5.689Zm3.418,5.544a4.387,4.387,0,0,1,.424-1.962,3.1,3.1,0,0,1,1.22-1.333,3.56,3.56,0,0,1,1.849-.472A3.368,3.368,0,0,1,84,8.383a3.676,3.676,0,0,1,1.056,2.488l.014.506a3.866,3.866,0,0,1-.95,2.731,3.683,3.683,0,0,1-5.1,0,3.934,3.934,0,0,1-.954-2.789Zm1.976.144a2.757,2.757,0,0,0,.4,1.61,1.426,1.426,0,0,0,2.256.007,3.017,3.017,0,0,0,.4-1.76,2.73,2.73,0,0,0-.4-1.6,1.312,1.312,0,0,0-1.135-.567,1.29,1.29,0,0,0-1.121.564A3.068,3.068,0,0,0,80.038,11.377ZM81.945,4.5H84.1L82.2,6.619H80.6ZM88.1,7.6l.062.854a2.582,2.582,0,0,1,2.126-.991,2.146,2.146,0,0,1,1.75.69,3.221,3.221,0,0,1,.588,2.064V15H90.654V10.27a1.282,1.282,0,0,0-.273-.913,1.224,1.224,0,0,0-.909-.284,1.359,1.359,0,0,0-1.251.711V15H86.245V7.6Zm9.2,3.644a4.457,4.457,0,0,1,.776-2.755A2.517,2.517,0,0,1,100.2,7.467a2.265,2.265,0,0,1,1.784.807V4.5h1.982V15h-1.784l-.1-.786a2.325,2.325,0,0,1-1.9.923,2.511,2.511,0,0,1-2.1-1.029A4.6,4.6,0,0,1,97.305,11.247Zm1.976.144a2.912,2.912,0,0,0,.362,1.593,1.181,1.181,0,0,0,1.053.554,1.322,1.322,0,0,0,1.292-.772V9.846a1.3,1.3,0,0,0-1.278-.772Q99.281,9.073,99.281,11.391Zm9.625,3.746a3.631,3.631,0,0,1-2.649-1,3.548,3.548,0,0,1-1.022-2.659v-.191a4.468,4.468,0,0,1,.431-1.993,3.161,3.161,0,0,1,1.22-1.354,3.425,3.425,0,0,1,1.8-.475,3.07,3.07,0,0,1,2.389.957,3.889,3.889,0,0,1,.872,2.714v.807h-4.71a1.835,1.835,0,0,0,.578,1.162,1.746,1.746,0,0,0,1.22.438,2.132,2.132,0,0,0,1.784-.827l.971,1.087a2.966,2.966,0,0,1-1.2.981A3.947,3.947,0,0,1,108.906,15.137Zm-.226-6.07a1.237,1.237,0,0,0-.954.4,2.048,2.048,0,0,0-.468,1.135h2.748V10.44a1.46,1.46,0,0,0-.355-1.015A1.277,1.277,0,0,0,108.68,9.066ZM13.039,32H11.056V21.5h1.982Zm5.913,0a2.194,2.194,0,0,1-.2-.663,2.39,2.39,0,0,1-1.866.8,2.626,2.626,0,0,1-1.8-.629,2.023,2.023,0,0,1-.714-1.586,2.09,2.09,0,0,1,.872-1.8,4.3,4.3,0,0,1,2.519-.636h.909v-.424a1.219,1.219,0,0,0-.263-.82,1.035,1.035,0,0,0-.831-.308,1.177,1.177,0,0,0-.783.239.813.813,0,0,0-.284.656H14.536a1.984,1.984,0,0,1,.4-1.189,2.621,2.621,0,0,1,1.121-.858,4.086,4.086,0,0,1,1.627-.311,3.228,3.228,0,0,1,2.17.687,2.4,2.4,0,0,1,.8,1.931v3.206a3.536,3.536,0,0,0,.294,1.593V32Zm-1.634-1.374a1.7,1.7,0,0,0,.807-.195,1.28,1.28,0,0,0,.547-.523V28.637h-.738q-1.483,0-1.579,1.025l-.007.116a.791.791,0,0,0,.26.608A1.009,1.009,0,0,0,17.318,30.626ZM27.743,32H25.761V24.6h1.982Zm-2.1-9.311a.973.973,0,0,1,.3-.731,1.281,1.281,0,0,1,1.617,0,1.044,1.044,0,0,1,0,1.47,1.267,1.267,0,0,1-1.606,0A.97.97,0,0,1,25.644,22.689ZM31.188,24.6l.062.854a2.582,2.582,0,0,1,2.126-.991,2.146,2.146,0,0,1,1.75.69,3.221,3.221,0,0,1,.588,2.064V32H33.738V27.27a1.282,1.282,0,0,0-.273-.913,1.224,1.224,0,0,0-.909-.284,1.359,1.359,0,0,0-1.251.711V32H29.329V24.6ZM37.751,32V26.053h-1.1V24.6h1.1v-.629a2.553,2.553,0,0,1,.714-1.931,2.767,2.767,0,0,1,2-.687,4.618,4.618,0,0,1,1,.137l-.021,1.531a2.519,2.519,0,0,0-.6-.062q-1.114,0-1.114,1.046V24.6H41.2v1.449h-1.47V32Zm4.17-3.767a4.387,4.387,0,0,1,.424-1.962,3.1,3.1,0,0,1,1.22-1.333,3.56,3.56,0,0,1,1.849-.472,3.368,3.368,0,0,1,2.444.916,3.676,3.676,0,0,1,1.056,2.488l.014.506a3.866,3.866,0,0,1-.95,2.731,3.683,3.683,0,0,1-5.1,0,3.934,3.934,0,0,1-.954-2.789Zm1.976.144a2.757,2.757,0,0,0,.4,1.61,1.426,1.426,0,0,0,2.256.007,3.017,3.017,0,0,0,.4-1.76,2.73,2.73,0,0,0-.4-1.6,1.312,1.312,0,0,0-1.135-.567,1.29,1.29,0,0,0-1.121.564A3.068,3.068,0,0,0,43.9,28.377Zm10.4-1.921a5.367,5.367,0,0,0-.711-.055,1.447,1.447,0,0,0-1.47.759V32H50.144V24.6h1.866l.055.882a1.831,1.831,0,0,1,1.647-1.019,2.07,2.07,0,0,1,.615.089ZM57.1,24.6l.062.827a2.6,2.6,0,0,1,2.126-.964,1.973,1.973,0,0,1,1.962,1.128,2.54,2.54,0,0,1,2.222-1.128,2.206,2.206,0,0,1,1.791.7,3.221,3.221,0,0,1,.588,2.109V32H63.871V27.283a1.408,1.408,0,0,0-.246-.919,1.091,1.091,0,0,0-.868-.291,1.233,1.233,0,0,0-1.23.848L61.533,32H59.557V27.29a1.391,1.391,0,0,0-.253-.93,1.1,1.1,0,0,0-.861-.287,1.28,1.28,0,0,0-1.217.7V32H55.251V24.6ZM71.657,32a2.194,2.194,0,0,1-.2-.663,2.39,2.39,0,0,1-1.866.8,2.626,2.626,0,0,1-1.8-.629,2.023,2.023,0,0,1-.714-1.586,2.09,2.09,0,0,1,.872-1.8,4.3,4.3,0,0,1,2.519-.636h.909v-.424a1.219,1.219,0,0,0-.263-.82,1.035,1.035,0,0,0-.831-.308,1.177,1.177,0,0,0-.783.239.813.813,0,0,0-.284.656H67.241a1.985,1.985,0,0,1,.4-1.189,2.621,2.621,0,0,1,1.121-.858,4.086,4.086,0,0,1,1.627-.311,3.228,3.228,0,0,1,2.17.687,2.4,2.4,0,0,1,.8,1.931v3.206a3.536,3.536,0,0,0,.294,1.593V32Zm-1.634-1.374a1.7,1.7,0,0,0,.807-.195,1.28,1.28,0,0,0,.547-.523V28.637h-.738q-1.483,0-1.579,1.025l-.007.116a.791.791,0,0,0,.26.608A1.009,1.009,0,0,0,70.023,30.626Zm7.93-.082a1.3,1.3,0,0,0,.889-.3,1.054,1.054,0,0,0,.355-.8H81.05a2.534,2.534,0,0,1-.41,1.377,2.706,2.706,0,0,1-1.1.971,3.455,3.455,0,0,1-1.548.345,3.211,3.211,0,0,1-2.5-1.008,3.99,3.99,0,0,1-.916-2.786v-.13a3.944,3.944,0,0,1,.909-2.728,3.174,3.174,0,0,1,2.5-1.019,3.111,3.111,0,0,1,2.225.79,2.8,2.8,0,0,1,.851,2.1H79.2a1.346,1.346,0,0,0-.355-.933,1.324,1.324,0,0,0-1.945.144,2.908,2.908,0,0,0-.352,1.63V28.4a2.945,2.945,0,0,0,.349,1.641A1.205,1.205,0,0,0,77.953,30.544ZM84.262,32H82.28V24.6h1.982Zm-2.1-9.311a.973.973,0,0,1,.3-.731,1.281,1.281,0,0,1,1.617,0,1.044,1.044,0,0,1,0,1.47,1.267,1.267,0,0,1-1.606,0A.97.97,0,0,1,82.164,22.689Zm3.418,5.544a4.387,4.387,0,0,1,.424-1.962,3.1,3.1,0,0,1,1.22-1.333,3.56,3.56,0,0,1,1.849-.472,3.368,3.368,0,0,1,2.444.916,3.676,3.676,0,0,1,1.056,2.488l.014.506a3.866,3.866,0,0,1-.95,2.731,3.683,3.683,0,0,1-5.1,0,3.934,3.934,0,0,1-.954-2.789Zm1.976.144a2.757,2.757,0,0,0,.4,1.61,1.426,1.426,0,0,0,2.256.007,3.017,3.017,0,0,0,.4-1.76,2.73,2.73,0,0,0-.4-1.6,1.312,1.312,0,0,0-1.135-.567,1.29,1.29,0,0,0-1.121.564A3.068,3.068,0,0,0,87.557,28.377ZM89.465,21.5h2.153l-1.894,2.119H88.118Zm6.159,3.1.062.854a2.582,2.582,0,0,1,2.126-.991,2.146,2.146,0,0,1,1.75.69,3.221,3.221,0,0,1,.588,2.064V32H98.174V27.27a1.282,1.282,0,0,0-.273-.913,1.224,1.224,0,0,0-.909-.284,1.359,1.359,0,0,0-1.251.711V32H93.764V24.6Zm6.125,6.426a1,1,0,0,1,.318-.766,1.235,1.235,0,0,1,1.6,0,1,1,0,0,1,.318.766.981.981,0,0,1-.314.755,1.256,1.256,0,0,1-1.606,0A.981.981,0,0,1,101.749,31.029Z" transform="translate(-7077.647 -12785.181)" fill="#12263f"/><ellipse cx="49.011" cy="47.423" rx="49.011" ry="47.423" transform="translate(-6986.678 -13019.734)" fill="#fff"/><path d="M20.283,5.047l3.254,8.121,3.254-8.121h1.7V15H27.18V11.124L27.3,6.94,24.036,15h-1L19.77,6.961l.13,4.163V15H18.587V5.047Zm13.4,10.09a3.232,3.232,0,0,1-2.447-.988,3.666,3.666,0,0,1-.943-2.642v-.232a4.438,4.438,0,0,1,.42-1.965,3.28,3.28,0,0,1,1.176-1.354,2.956,2.956,0,0,1,1.637-.489,2.77,2.77,0,0,1,2.242.95,4.114,4.114,0,0,1,.8,2.721v.526H31.555a2.629,2.629,0,0,0,.639,1.767,2.009,2.009,0,0,0,1.555.673,2.2,2.2,0,0,0,1.135-.273,2.851,2.851,0,0,0,.813-.725l.772.6A3.106,3.106,0,0,1,33.681,15.137Zm-.157-6.631a1.687,1.687,0,0,0-1.285.557,2.708,2.708,0,0,0-.643,1.562H35.3v-.1a2.409,2.409,0,0,0-.52-1.494A1.588,1.588,0,0,0,33.524,8.506Zm4.2,2.734A4.333,4.333,0,0,1,38.528,8.5a2.745,2.745,0,0,1,4.17-.147V4.5h1.265V15H42.8l-.062-.793a2.575,2.575,0,0,1-2.112.93,2.526,2.526,0,0,1-2.1-1.053,4.382,4.382,0,0,1-.81-2.748Zm1.265.144a3.281,3.281,0,0,0,.52,1.969,1.68,1.68,0,0,0,1.436.711,1.845,1.845,0,0,0,1.757-1.08v-3.4A1.859,1.859,0,0,0,40.955,8.54a1.687,1.687,0,0,0-1.449.718A3.612,3.612,0,0,0,38.986,11.384ZM47.3,15H46.034V7.6H47.3ZM45.931,5.642a.755.755,0,0,1,.188-.52.706.706,0,0,1,.557-.212.717.717,0,0,1,.561.212.747.747,0,0,1,.191.52.722.722,0,0,1-.191.513.73.73,0,0,1-.561.205.718.718,0,0,1-.557-.205A.73.73,0,0,1,45.931,5.642Zm3.056,5.592a4.369,4.369,0,0,1,.427-1.955A3.187,3.187,0,0,1,50.6,7.938a3.238,3.238,0,0,1,1.74-.472,3.119,3.119,0,0,1,2.444,1.046,4.024,4.024,0,0,1,.933,2.782v.089a4.407,4.407,0,0,1-.414,1.938,3.14,3.14,0,0,1-1.183,1.336,3.275,3.275,0,0,1-1.767.479,3.111,3.111,0,0,1-2.437-1.046,4,4,0,0,1-.933-2.769Zm1.271.15a3.164,3.164,0,0,0,.571,1.976,1.934,1.934,0,0,0,3.059-.01,3.46,3.46,0,0,0,.567-2.116,3.159,3.159,0,0,0-.578-1.972,1.836,1.836,0,0,0-1.535-.755,1.816,1.816,0,0,0-1.511.745A3.435,3.435,0,0,0,50.258,11.384Zm11.354,1.654a.931.931,0,0,0-.386-.8,3.718,3.718,0,0,0-1.347-.489,6.367,6.367,0,0,1-1.524-.492,2.169,2.169,0,0,1-.834-.684,1.635,1.635,0,0,1-.27-.943A1.919,1.919,0,0,1,58.021,8.1a3,3,0,0,1,1.965-.629,3.091,3.091,0,0,1,2.041.649,2.063,2.063,0,0,1,.783,1.661H61.538a1.142,1.142,0,0,0-.441-.9,1.652,1.652,0,0,0-1.111-.376,1.729,1.729,0,0,0-1.08.3.947.947,0,0,0-.39.786.767.767,0,0,0,.362.69,4.458,4.458,0,0,0,1.309.444,6.821,6.821,0,0,1,1.535.506,2.239,2.239,0,0,1,.872.708,1.74,1.74,0,0,1,.284,1.008,1.893,1.893,0,0,1-.793,1.589,3.326,3.326,0,0,1-2.058.6,3.725,3.725,0,0,1-1.572-.314,2.557,2.557,0,0,1-1.07-.878A2.117,2.117,0,0,1,57,12.724h1.265a1.309,1.309,0,0,0,.509,1.008,1.976,1.976,0,0,0,1.254.373,2.039,2.039,0,0,0,1.152-.291A.893.893,0,0,0,61.613,13.038Zm-55.34,20.1a3.232,3.232,0,0,1-2.447-.988,3.666,3.666,0,0,1-.943-2.642v-.232a4.438,4.438,0,0,1,.42-1.965,3.28,3.28,0,0,1,1.176-1.354,2.956,2.956,0,0,1,1.637-.489,2.77,2.77,0,0,1,2.242.95,4.114,4.114,0,0,1,.8,2.721v.526H4.146a2.629,2.629,0,0,0,.639,1.767,2.009,2.009,0,0,0,1.555.673,2.2,2.2,0,0,0,1.135-.273,2.851,2.851,0,0,0,.813-.725l.772.6A3.106,3.106,0,0,1,6.272,33.137Zm-.157-6.631a1.687,1.687,0,0,0-1.285.557,2.708,2.708,0,0,0-.643,1.562H7.893v-.1a2.409,2.409,0,0,0-.52-1.494A1.588,1.588,0,0,0,6.115,26.506ZM11.994,33H10.729V22.5h1.265Zm5.093.137a3.232,3.232,0,0,1-2.447-.988,3.666,3.666,0,0,1-.943-2.642v-.232a4.438,4.438,0,0,1,.42-1.965,3.28,3.28,0,0,1,1.176-1.354,2.956,2.956,0,0,1,1.637-.489,2.77,2.77,0,0,1,2.242.95,4.114,4.114,0,0,1,.8,2.721v.526H14.961a2.629,2.629,0,0,0,.639,1.767,2.009,2.009,0,0,0,1.555.673,2.2,2.2,0,0,0,1.135-.273,2.851,2.851,0,0,0,.813-.725l.772.6A3.106,3.106,0,0,1,17.087,33.137Zm-.157-6.631a1.687,1.687,0,0,0-1.285.557A2.708,2.708,0,0,0,15,28.625h3.705v-.1a2.409,2.409,0,0,0-.52-1.494A1.588,1.588,0,0,0,16.93,26.506ZM24.4,32.1a1.822,1.822,0,0,0,1.183-.41,1.443,1.443,0,0,0,.561-1.025h1.2a2.293,2.293,0,0,1-.437,1.21,2.881,2.881,0,0,1-1.077.916,3.107,3.107,0,0,1-1.425.342A3.047,3.047,0,0,1,22,32.128a4.016,4.016,0,0,1-.892-2.758v-.212a4.453,4.453,0,0,1,.4-1.921,3.02,3.02,0,0,1,1.138-1.306,3.233,3.233,0,0,1,1.753-.465,2.966,2.966,0,0,1,2.068.745,2.663,2.663,0,0,1,.878,1.935h-1.2a1.743,1.743,0,0,0-.543-1.179,1.691,1.691,0,0,0-1.207-.461A1.77,1.77,0,0,0,22.9,27.2a3.259,3.259,0,0,0-.53,2.006v.239a3.194,3.194,0,0,0,.526,1.969A1.779,1.779,0,0,0,24.4,32.1Zm6.077-8.292V25.6h1.381v.978H30.479v4.587a1.024,1.024,0,0,0,.185.667.777.777,0,0,0,.629.222,3.062,3.062,0,0,0,.6-.082V33a3.666,3.666,0,0,1-.971.137,1.575,1.575,0,0,1-1.278-.513,2.2,2.2,0,0,1-.431-1.456V26.581H27.867V25.6h1.347V23.813Zm6.433,2.926a3.79,3.79,0,0,0-.622-.048A1.667,1.667,0,0,0,34.6,27.75V33H33.336V25.6h1.23l.021.854a1.969,1.969,0,0,1,1.764-.991,1.292,1.292,0,0,1,.561.1Zm.827,2.5a4.369,4.369,0,0,1,.427-1.955,3.187,3.187,0,0,1,1.189-1.34,3.238,3.238,0,0,1,1.74-.472,3.119,3.119,0,0,1,2.444,1.046,4.024,4.024,0,0,1,.933,2.782v.089a4.407,4.407,0,0,1-.414,1.938,3.14,3.14,0,0,1-1.183,1.336,3.275,3.275,0,0,1-1.767.479,3.111,3.111,0,0,1-2.437-1.046,4,4,0,0,1-.933-2.769Zm1.271.15a3.164,3.164,0,0,0,.571,1.976,1.934,1.934,0,0,0,3.059-.01,3.46,3.46,0,0,0,.567-2.116,3.159,3.159,0,0,0-.578-1.972,1.836,1.836,0,0,0-1.535-.755,1.816,1.816,0,0,0-1.511.745A3.434,3.434,0,0,0,39.01,29.384ZM41.669,22.5H43.2l-1.832,2.01H40.35Zm5.585,3.1.041.93a2.7,2.7,0,0,1,2.215-1.066q2.345,0,2.365,2.646V33H50.61V28.105a1.7,1.7,0,0,0-.366-1.183,1.466,1.466,0,0,0-1.118-.383,1.825,1.825,0,0,0-1.08.328,2.228,2.228,0,0,0-.725.861V33H46.058V25.6Zm7.9,7.4H53.892V25.6h1.265Zm-1.367-9.358a.755.755,0,0,1,.188-.52.706.706,0,0,1,.557-.212.717.717,0,0,1,.561.212.747.747,0,0,1,.191.52.722.722,0,0,1-.191.513.73.73,0,0,1-.561.205.718.718,0,0,1-.557-.205A.73.73,0,0,1,53.789,23.642ZM60.146,32.1a1.822,1.822,0,0,0,1.183-.41,1.443,1.443,0,0,0,.561-1.025h1.2a2.293,2.293,0,0,1-.437,1.21,2.881,2.881,0,0,1-1.077.916,3.107,3.107,0,0,1-1.425.342,3.047,3.047,0,0,1-2.4-1.008,4.016,4.016,0,0,1-.892-2.758v-.212a4.453,4.453,0,0,1,.4-1.921,3.02,3.02,0,0,1,1.138-1.306,3.233,3.233,0,0,1,1.753-.465,2.966,2.966,0,0,1,2.068.745,2.663,2.663,0,0,1,.878,1.935h-1.2a1.743,1.743,0,0,0-.543-1.179,1.691,1.691,0,0,0-1.207-.461,1.77,1.77,0,0,0-1.494.694,3.259,3.259,0,0,0-.53,2.006v.239a3.194,3.194,0,0,0,.526,1.969A1.779,1.779,0,0,0,60.146,32.1Zm4.026-2.871a4.369,4.369,0,0,1,.427-1.955,3.187,3.187,0,0,1,1.189-1.34,3.238,3.238,0,0,1,1.74-.472,3.119,3.119,0,0,1,2.444,1.046,4.024,4.024,0,0,1,.933,2.782v.089a4.407,4.407,0,0,1-.414,1.938,3.14,3.14,0,0,1-1.183,1.336,3.275,3.275,0,0,1-1.767.479,3.111,3.111,0,0,1-2.437-1.046,4,4,0,0,1-.933-2.769Zm1.271.15a3.164,3.164,0,0,0,.571,1.976,1.934,1.934,0,0,0,3.059-.01,3.46,3.46,0,0,0,.567-2.116,3.159,3.159,0,0,0-.578-1.972,1.836,1.836,0,0,0-1.535-.755,1.816,1.816,0,0,0-1.511.745A3.434,3.434,0,0,0,65.444,29.384ZM76.8,31.038a.931.931,0,0,0-.386-.8,3.718,3.718,0,0,0-1.347-.489,6.367,6.367,0,0,1-1.524-.492,2.169,2.169,0,0,1-.834-.684,1.635,1.635,0,0,1-.27-.943,1.919,1.919,0,0,1,.769-1.538,3,3,0,0,1,1.965-.629,3.091,3.091,0,0,1,2.041.649A2.063,2.063,0,0,1,78,27.777H76.724a1.142,1.142,0,0,0-.441-.9,1.652,1.652,0,0,0-1.111-.376,1.729,1.729,0,0,0-1.08.3.947.947,0,0,0-.39.786.767.767,0,0,0,.362.69,4.458,4.458,0,0,0,1.309.444,6.821,6.821,0,0,1,1.535.506,2.239,2.239,0,0,1,.872.708,1.74,1.74,0,0,1,.284,1.008,1.893,1.893,0,0,1-.793,1.589,3.326,3.326,0,0,1-2.058.6,3.725,3.725,0,0,1-1.572-.314,2.557,2.557,0,0,1-1.07-.878,2.117,2.117,0,0,1-.386-1.22h1.265a1.309,1.309,0,0,0,.509,1.008,1.976,1.976,0,0,0,1.254.373,2.039,2.039,0,0,0,1.152-.291A.893.893,0,0,0,76.8,31.038ZM7.629,50.1a1.822,1.822,0,0,0,1.183-.41,1.443,1.443,0,0,0,.561-1.025h1.2a2.293,2.293,0,0,1-.437,1.21,2.881,2.881,0,0,1-1.077.916,3.107,3.107,0,0,1-1.425.342,3.047,3.047,0,0,1-2.4-1.008,4.016,4.016,0,0,1-.892-2.758v-.212a4.453,4.453,0,0,1,.4-1.921,3.02,3.02,0,0,1,1.138-1.306,3.233,3.233,0,0,1,1.753-.465,2.966,2.966,0,0,1,2.068.745,2.663,2.663,0,0,1,.878,1.935h-1.2a1.743,1.743,0,0,0-.543-1.179,1.691,1.691,0,0,0-1.207-.461,1.77,1.77,0,0,0-1.494.694,3.259,3.259,0,0,0-.53,2.006v.239a3.194,3.194,0,0,0,.526,1.969A1.779,1.779,0,0,0,7.629,50.1Zm7.431,1.032a3.232,3.232,0,0,1-2.447-.988,3.666,3.666,0,0,1-.943-2.642v-.232a4.438,4.438,0,0,1,.42-1.965,3.28,3.28,0,0,1,1.176-1.354,2.956,2.956,0,0,1,1.637-.489,2.77,2.77,0,0,1,2.242.95,4.114,4.114,0,0,1,.8,2.721v.526H12.934a2.629,2.629,0,0,0,.639,1.767,2.009,2.009,0,0,0,1.555.673,2.2,2.2,0,0,0,1.135-.273,2.851,2.851,0,0,0,.813-.725l.772.6A3.106,3.106,0,0,1,15.06,51.137ZM14.9,44.506a1.687,1.687,0,0,0-1.285.557,2.708,2.708,0,0,0-.643,1.562H16.68v-.1a2.409,2.409,0,0,0-.52-1.494A1.588,1.588,0,0,0,14.9,44.506Zm8.08.232a3.79,3.79,0,0,0-.622-.048,1.667,1.667,0,0,0-1.688,1.06V51H19.408V43.6h1.23l.021.854a1.969,1.969,0,0,1,1.764-.991,1.292,1.292,0,0,1,.561.1Zm3.22-2.926V43.6h1.381v.978H26.2v4.587a1.025,1.025,0,0,0,.185.667.777.777,0,0,0,.629.222,3.062,3.062,0,0,0,.6-.082V51a3.666,3.666,0,0,1-.971.137,1.575,1.575,0,0,1-1.278-.513,2.2,2.2,0,0,1-.431-1.456V44.581H23.591V43.6h1.347V41.813ZM30.434,51H29.169V43.6h1.265Zm-1.367-9.358a.755.755,0,0,1,.188-.52.706.706,0,0,1,.557-.212.717.717,0,0,1,.561.212.747.747,0,0,1,.191.52.722.722,0,0,1-.191.513.73.73,0,0,1-.561.205.718.718,0,0,1-.557-.205A.73.73,0,0,1,29.067,41.642ZM32.881,51V44.581H31.712V43.6h1.169v-.629a2.57,2.57,0,0,1,.708-1.928,2.744,2.744,0,0,1,2-.69,6.021,6.021,0,0,1,1.935.417l-.212,1.066a4.382,4.382,0,0,0-1.627-.342,1.592,1.592,0,0,0-1.172.366,1.508,1.508,0,0,0-.359,1.1V43.6h1.511v.978H34.153V51Zm5.271,0H36.88V43.6h1.271Zm5.024-.9a1.822,1.822,0,0,0,1.183-.41,1.443,1.443,0,0,0,.561-1.025h1.2a2.293,2.293,0,0,1-.437,1.21,2.881,2.881,0,0,1-1.077.916,3.107,3.107,0,0,1-1.425.342,3.047,3.047,0,0,1-2.4-1.008,4.016,4.016,0,0,1-.892-2.758v-.212a4.453,4.453,0,0,1,.4-1.921,3.02,3.02,0,0,1,1.138-1.306,3.233,3.233,0,0,1,1.753-.465,2.966,2.966,0,0,1,2.068.745,2.663,2.663,0,0,1,.878,1.935h-1.2a1.743,1.743,0,0,0-.543-1.179,1.691,1.691,0,0,0-1.207-.461,1.77,1.77,0,0,0-1.494.694,3.259,3.259,0,0,0-.53,2.006v.239a3.194,3.194,0,0,0,.526,1.969A1.779,1.779,0,0,0,43.176,50.1ZM52.1,51a2.657,2.657,0,0,1-.178-.779,2.822,2.822,0,0,1-2.105.916,2.611,2.611,0,0,1-1.794-.619,2,2,0,0,1-.7-1.569,2.091,2.091,0,0,1,.878-1.794,4.142,4.142,0,0,1,2.471-.639h1.23v-.581a1.42,1.42,0,0,0-.4-1.056,1.593,1.593,0,0,0-1.169-.393,1.844,1.844,0,0,0-1.135.342,1.007,1.007,0,0,0-.458.827H47.476a1.745,1.745,0,0,1,.393-1.07,2.683,2.683,0,0,1,1.066-.817,3.588,3.588,0,0,1,1.48-.3,2.924,2.924,0,0,1,2,.639,2.306,2.306,0,0,1,.752,1.76v3.4a4.162,4.162,0,0,0,.26,1.62V51Zm-2.1-.964a2.223,2.223,0,0,0,1.128-.308,1.861,1.861,0,0,0,.772-.8V47.411h-.991q-2.324,0-2.324,1.36a1.151,1.151,0,0,0,.4.93A1.524,1.524,0,0,0,50.005,50.036Zm4.84-2.8a4.333,4.333,0,0,1,.807-2.738,2.745,2.745,0,0,1,4.17-.147V40.5h1.265V51H59.924l-.062-.793a2.575,2.575,0,0,1-2.112.93,2.526,2.526,0,0,1-2.1-1.053,4.382,4.382,0,0,1-.81-2.748Zm1.265.144a3.281,3.281,0,0,0,.52,1.969,1.68,1.68,0,0,0,1.436.711,1.845,1.845,0,0,0,1.757-1.08v-3.4a1.859,1.859,0,0,0-1.743-1.046,1.687,1.687,0,0,0-1.449.718A3.612,3.612,0,0,0,56.11,47.384Zm6.6-.15a4.369,4.369,0,0,1,.427-1.955,3.187,3.187,0,0,1,1.189-1.34,3.238,3.238,0,0,1,1.74-.472,3.119,3.119,0,0,1,2.444,1.046,4.024,4.024,0,0,1,.933,2.782v.089a4.407,4.407,0,0,1-.414,1.938,3.14,3.14,0,0,1-1.183,1.336,3.275,3.275,0,0,1-1.767.479,3.111,3.111,0,0,1-2.437-1.046,4,4,0,0,1-.933-2.769Zm1.271.15a3.164,3.164,0,0,0,.571,1.976,1.934,1.934,0,0,0,3.059-.01,3.46,3.46,0,0,0,.567-2.116,3.159,3.159,0,0,0-.578-1.972,1.836,1.836,0,0,0-1.535-.755,1.816,1.816,0,0,0-1.511.745A3.435,3.435,0,0,0,63.985,47.384Zm11.354,1.654a.931.931,0,0,0-.386-.8,3.718,3.718,0,0,0-1.347-.489,6.367,6.367,0,0,1-1.524-.492,2.169,2.169,0,0,1-.834-.684,1.635,1.635,0,0,1-.27-.943,1.919,1.919,0,0,1,.769-1.538,3,3,0,0,1,1.965-.629,3.091,3.091,0,0,1,2.041.649,2.063,2.063,0,0,1,.783,1.661H75.264a1.142,1.142,0,0,0-.441-.9,1.652,1.652,0,0,0-1.111-.376,1.729,1.729,0,0,0-1.08.3.947.947,0,0,0-.39.786.767.767,0,0,0,.362.69,4.458,4.458,0,0,0,1.309.444,6.821,6.821,0,0,1,1.535.506,2.239,2.239,0,0,1,.872.708,1.74,1.74,0,0,1,.284,1.008,1.893,1.893,0,0,1-.793,1.589,3.326,3.326,0,0,1-2.058.6,3.725,3.725,0,0,1-1.572-.314,2.557,2.557,0,0,1-1.07-.878,2.117,2.117,0,0,1-.386-1.22H71.99a1.309,1.309,0,0,0,.509,1.008,1.976,1.976,0,0,0,1.254.373,2.039,2.039,0,0,0,1.152-.291A.893.893,0,0,0,75.339,49.038Z" transform="translate(-6977.533 -12998.09)" fill="#12263f"/><g transform="translate(-7031.788 -13058.047)" clip-path="url(#e)"><g transform="translate(0 -0.001)"><path d="M54.16,28.811H45.71V26.933h5.633a7.511,7.511,0,1,0,0-15.022,7.379,7.379,0,0,0-1.536.162,11.238,11.238,0,0,0-15.858-6.4A13.942,13.942,0,0,0,23.178.645,14.139,14.139,0,0,0,9.9,10.073a8.449,8.449,0,1,0-.8,16.86h.939v7.511H3.462A2.82,2.82,0,0,0,.645,37.261v3.755a2.8,2.8,0,0,0,.732,1.878,2.8,2.8,0,0,0-.732,1.878v3.755A2.8,2.8,0,0,0,1.377,50.4a2.8,2.8,0,0,0-.732,1.878v3.755a2.82,2.82,0,0,0,2.817,2.817H18.483A2.82,2.82,0,0,0,21.3,56.038V52.282a2.8,2.8,0,0,0-.732-1.878,2.794,2.794,0,0,0,.732-1.878V44.772a2.8,2.8,0,0,0-.732-1.878,2.794,2.794,0,0,0,.732-1.878V37.261a2.82,2.82,0,0,0-2.817-2.817H11.911V26.933h24.41v1.878h-8.45a4.7,4.7,0,0,0-4.694,4.694V48.527a4.7,4.7,0,0,0,4.694,4.694h4.694v3.755H28.811v1.878h24.41V56.977H49.466V53.221H54.16a4.7,4.7,0,0,0,4.694-4.694V33.505A4.7,4.7,0,0,0,54.16,28.811ZM43.833,21.3V33.353l-.262-.787H38.462l-.263.787V21.3h-3.68l5.7-7.13a1.046,1.046,0,0,1,1.585,0L47.513,21.3ZM19.422,56.038a.939.939,0,0,1-.939.939H3.462a.939.939,0,0,1-.939-.939V52.282a.939.939,0,0,1,.939-.939H18.483a.939.939,0,0,1,.939.939Zm0-7.511a.939.939,0,0,1-.939.939H3.462a.939.939,0,0,1-.939-.939V44.772a.939.939,0,0,1,.939-.939H18.483a.939.939,0,0,1,.939.939Zm-.939-12.205a.939.939,0,0,1,.939.939v3.755a.939.939,0,0,1-.939.939H3.462a.939.939,0,0,1-.939-.939V37.261a.939.939,0,0,1,.939-.939ZM9.095,25.055a6.571,6.571,0,1,1,1.272-13.018l.846.165.238-.829A12.251,12.251,0,0,1,23.178,2.523a12.1,12.1,0,0,1,9.782,4.93l.515.691.732-.453a9.36,9.36,0,0,1,14.044,5.759l.245,1.008.979-.345a5.631,5.631,0,1,1,1.867,10.942H45.71V23.178h5.708L43.274,13a2.893,2.893,0,0,0-4.517,0L30.614,23.178h5.708v1.878ZM36.524,37.6l.432-.238a8.3,8.3,0,0,1,1.694-.7l.472-.137.694-2.083h2.4l.694,2.083.472.137a8.412,8.412,0,0,1,1.694.7l.432.238,1.961-.98,1.7,1.7-.98,1.961.238.432a8.3,8.3,0,0,1,.7,1.694l.137.472,2.082.694v2.14H47.508a6.507,6.507,0,0,0,.08-.939,6.572,6.572,0,0,0-13.144,0,6.507,6.507,0,0,0,.08.939H30.689v-2.14l2.083-.694.137-.472a8.412,8.412,0,0,1,.7-1.694l.238-.432-.98-1.961,1.7-1.7Zm4.492,4.355A2.82,2.82,0,0,0,38.2,44.772a2.785,2.785,0,0,0,.173.939H36.426a4.695,4.695,0,1,1,9.18,0H43.66a2.785,2.785,0,0,0,.173-.939A2.82,2.82,0,0,0,41.016,41.955Zm.939,2.817a.939.939,0,1,1-.939-.939A.939.939,0,0,1,41.955,44.772Zm-16.9-11.266a2.82,2.82,0,0,1,2.817-2.817h8.45V35.4l-2.13-1.065-3.613,3.613,1.152,2.3a10.44,10.44,0,0,0-.473,1.15l-2.447.815V45.71H25.056ZM47.588,56.977H34.444V53.221H47.588Zm9.389-8.45a2.82,2.82,0,0,1-2.817,2.817H27.872a2.82,2.82,0,0,1-2.817-2.817v-.939H56.977Zm0-2.817H53.221V42.217L50.775,41.4a10.258,10.258,0,0,0-.473-1.15l1.152-2.3-3.613-3.613L45.71,35.4V30.689h8.45a2.82,2.82,0,0,1,2.817,2.817Z" transform="translate(-0.645 -0.645)" fill="#12263f"/><path d="M8.387,26.452h1.878v1.878H8.387Z" transform="translate(2.879 11.103)" fill="#12263f"/><path d="M5.806,26.452H7.684v1.878H5.806Z" transform="translate(1.704 11.103)" fill="#12263f"/><path d="M3.226,26.452H5.1v1.878H3.226Z" transform="translate(0.53 11.103)" fill="#12263f"/><path d="M8.387,31.613h1.878v1.878H8.387Z" transform="translate(2.879 13.452)" fill="#12263f"/><path d="M10.968,31.613h1.878v1.878H10.968Z" transform="translate(4.054 13.452)" fill="#12263f"/><path d="M5.806,31.613H7.684v1.878H5.806Z" transform="translate(1.704 13.452)" fill="#12263f"/><path d="M3.226,36.774H5.1v1.878H3.226Z" transform="translate(0.53 15.802)" fill="#12263f"/><path d="M8.387,36.774h1.878v1.878H8.387Z" transform="translate(2.879 15.802)" fill="#12263f"/><path d="M5.806,36.774H7.684v1.878H5.806Z" transform="translate(1.704 15.802)" fill="#12263f"/><path d="M9.174,11.489l1.841.374a8.456,8.456,0,0,1,11.66-6.056l.751-1.721a10.247,10.247,0,0,0-4.131-.86A10.356,10.356,0,0,0,9.174,11.489Z" transform="translate(3.238 0.53)" fill="#12263f"/><path d="M5.1,12.9H3.226A4.7,4.7,0,0,0,7.92,17.6H9.8V15.72H7.92A2.82,2.82,0,0,1,5.1,12.9Z" transform="translate(0.53 4.935)" fill="#12263f"/><path d="M9.032,14.839H10.91v1.878H9.032Z" transform="translate(3.173 5.816)" fill="#12263f"/></g></g><g transform="translate(-7025.991 -12945.09)" clip-path="url(#f)"><path d="M49.285,36.2h-.862V9.48a4.314,4.314,0,0,0-4.309-4.309V4.309A4.314,4.314,0,0,0,39.805,0H13.951A4.314,4.314,0,0,0,9.642,4.309v.862A4.314,4.314,0,0,0,5.333,9.48V19.821H7.057V9.48A2.588,2.588,0,0,1,9.642,6.894V18.959h1.724V4.309a2.588,2.588,0,0,1,2.585-2.585H39.805a2.588,2.588,0,0,1,2.585,2.585v29.3h1.724V6.894A2.588,2.588,0,0,1,46.7,9.48V36.2H34.634a3.774,3.774,0,0,0-2.686,1.114,2.073,2.073,0,0,1-1.476.609H26.016v1.724h4.455a3.785,3.785,0,0,0,2.695-1.114,2.063,2.063,0,0,1,1.468-.609H48.423v1.724A1.726,1.726,0,0,1,46.7,41.366H26.016V43.09H46.7a3.451,3.451,0,0,0,3.447-3.447V37.057a.862.862,0,0,0-.862-.862Z" transform="translate(1.561)" fill="#12263f"/><path d="M8.667,21.333H10.39v6.033H8.667Z" transform="translate(2.537 6.244)" fill="#12263f"/><path d="M12,2.667h1.724V4.39H12Z" transform="translate(3.512 0.781)" fill="#12263f"/><path d="M14.666,2.667H16.39V4.39H14.666Z" transform="translate(4.293 0.781)" fill="#12263f"/><path d="M17.333,2.667h1.724V4.39H17.333Z" transform="translate(5.073 0.781)" fill="#12263f"/><path d="M12,5.333H37.854V7.057H12Z" transform="translate(3.512 1.561)" fill="#12263f"/><path d="M22.021,30.063c-.182-.047-.366-.1-.546-.158l-.527,1.641c.212.068.429.131.638.185A12.064,12.064,0,1,0,14.5,13.566a11.911,11.911,0,0,0-1.581,3.715l1.677.4a10.185,10.185,0,0,1,1.111-2.784h2.666a22.016,22.016,0,0,0-.607,5.171c0,.6.024,1.2.071,1.792l1.718-.137c-.021-.263-.037-.528-.048-.793H23.8V26.1H21.211v1.724H23.8v2.547a10.32,10.32,0,0,1-1.776-.3Zm9.469-2.242a10.382,10.382,0,0,1-1.962,1.362c.217-.441.418-.894.6-1.362ZM33.054,26.1H30.712a21.676,21.676,0,0,0,.824-5.171h3.43A10.16,10.16,0,0,1,33.054,26.1ZM22.333,9.99A10.29,10.29,0,0,1,23.8,9.762v3.409H20.7A15.239,15.239,0,0,1,22.333,9.99Zm3.188-.228a10.305,10.305,0,0,1,1.464.228,15.236,15.236,0,0,1,1.631,3.181H25.52Zm3.648,5.132a20.048,20.048,0,0,1,.643,4.309H25.52V14.894Zm5.8,4.309H31.537a21.871,21.871,0,0,0-.59-4.309h2.665A10.242,10.242,0,0,1,34.963,19.2Zm-2.6-6.033H30.447a18.509,18.509,0,0,0-.925-2.237,10.245,10.245,0,0,1,2.841,2.237ZM19.8,10.934a18.524,18.524,0,0,0-.925,2.237H16.955A10.244,10.244,0,0,1,19.8,10.934Zm-.29,8.269a20.035,20.035,0,0,1,.643-4.309H23.8V19.2Zm6.014,1.724h4.291a19.742,19.742,0,0,1-.9,5.171H25.52Zm2.742,6.894a14.373,14.373,0,0,1-1.276,2.319,10.275,10.275,0,0,1-1.466.228V27.821Z" transform="translate(3.781 2.342)" fill="#12263f"/><path d="M23.268,30.668V26.342a10.342,10.342,0,0,0-20.683,0v4.326A2.9,2.9,0,0,0,0,33.548V44.127a2.9,2.9,0,0,0,2.9,2.9H22.956a2.9,2.9,0,0,0,2.9-2.9V33.548a2.9,2.9,0,0,0-2.585-2.881ZM12.927,17.724a8.628,8.628,0,0,1,8.618,8.618V30.65H19.821V26.342a6.894,6.894,0,0,0-13.789,0V30.65H4.309V26.342A8.628,8.628,0,0,1,12.927,17.724ZM18.1,30.65H7.756V26.342a5.171,5.171,0,0,1,10.342,0ZM24.13,44.127A1.176,1.176,0,0,1,22.956,45.3H2.9a1.176,1.176,0,0,1-1.174-1.174V33.548A1.176,1.176,0,0,1,2.9,32.374H22.956a1.176,1.176,0,0,1,1.174,1.174Z" transform="translate(0 4.683)" fill="#12263f"/><path d="M10.585,31.333a2.585,2.585,0,0,0-.862,5.023v1.872h1.724V36.356a2.585,2.585,0,0,0-.862-5.023Zm0,3.447a.862.862,0,1,1,.862-.862A.862.862,0,0,1,10.585,34.781Z" transform="translate(2.342 9.171)" fill="#12263f"/></g><g transform="translate(-6900.316 -13055.44)" clip-path="url(#g)"><g transform="translate(0)"><path d="M43.757,13.951a9.4,9.4,0,0,1-6.691-2.772L35.813,9.928a.854.854,0,0,0-1.209,0l-1.252,1.251a9.4,9.4,0,0,1-6.691,2.772.855.855,0,0,0-.855.855v7.01a13.648,13.648,0,0,0,3.557,9.2l5.213,5.735a.856.856,0,0,0,1.265,0l5.213-5.735a13.65,13.65,0,0,0,3.557-9.2v-7.01A.855.855,0,0,0,43.757,13.951ZM42.9,21.816a11.936,11.936,0,0,1-3.113,8.049L35.209,34.9l-4.58-5.039a11.937,11.937,0,0,1-3.113-8.049V15.629a11.087,11.087,0,0,0,7.045-3.24l.648-.648.648.647a11.087,11.087,0,0,0,7.045,3.24Zm0,0" transform="translate(8.385 3.144)" fill="#12263f"/><path d="M31.387,18.693v.855h-.855a.855.855,0,0,0-.855.855v5.129a.855.855,0,0,0,.855.855H37.37a.855.855,0,0,0,.855-.855V20.4a.855.855,0,0,0-.855-.855h-.855v-.855a2.564,2.564,0,0,0-5.129,0Zm5.129,5.983H31.387V21.258h5.129Zm-1.71-5.983v.855H33.1v-.855a.855.855,0,1,1,1.71,0Zm0,0" transform="translate(9.643 5.241)" fill="#12263f"/><path d="M2.581,36.129H9.419v1.71H2.581Zm0,0" transform="translate(0.839 11.739)" fill="#12263f"/><path d="M18.064,36.129h1.71v1.71h-1.71Zm0,0" transform="translate(5.87 11.739)" fill="#12263f"/><path d="M15.484,36.129h1.71v1.71h-1.71Zm0,0" transform="translate(5.031 11.739)" fill="#12263f"/><path d="M12.9,36.129h1.71v1.71H12.9Zm0,0" transform="translate(4.193 11.739)" fill="#12263f"/><path d="M28.208,28.387H.855A.855.855,0,0,0,0,29.242V42.918a.855.855,0,0,0,.855.855H28.208a.855.855,0,0,0,.855-.855V29.242A.855.855,0,0,0,28.208,28.387ZM1.71,30.1H27.353v5.129H1.71ZM27.353,42.063H1.71V36.935H27.353Zm0,0" transform="translate(0 9.223)" fill="#12263f"/><path d="M2.581,30.968H9.419v1.71H2.581Zm0,0" transform="translate(0.839 10.062)" fill="#12263f"/><path d="M18.064,30.968h1.71v1.71h-1.71Zm0,0" transform="translate(5.87 10.062)" fill="#12263f"/><path d="M15.484,30.968h1.71v1.71h-1.71Zm0,0" transform="translate(5.031 10.062)" fill="#12263f"/><path d="M12.9,30.968h1.71v1.71H12.9Zm0,0" transform="translate(4.193 10.062)" fill="#12263f"/><path d="M2.581,7.742H9.419v1.71H2.581Zm0,0" transform="translate(0.839 2.515)" fill="#12263f"/><path d="M18.064,7.742h1.71v1.71h-1.71Zm0,0" transform="translate(5.87 2.515)" fill="#12263f"/><path d="M15.484,7.742h1.71v1.71h-1.71Zm0,0" transform="translate(5.031 2.515)" fill="#12263f"/><path d="M12.9,7.742h1.71v1.71H12.9Zm0,0" transform="translate(4.193 2.515)" fill="#12263f"/><path d="M28.208,0H.855A.855.855,0,0,0,0,.855V14.531a.855.855,0,0,0,.855.855H28.208a.855.855,0,0,0,.855-.855V.855A.855.855,0,0,0,28.208,0ZM1.71,1.71H27.353V6.838H1.71ZM27.353,13.676H1.71V8.548H27.353Zm0,0" transform="translate(0)" fill="#12263f"/><path d="M2.581,2.581H9.419V4.29H2.581Zm0,0" transform="translate(0.839 0.838)" fill="#12263f"/><path d="M18.064,2.581h1.71V4.29h-1.71Zm0,0" transform="translate(5.87 0.838)" fill="#12263f"/><path d="M15.484,2.581h1.71V4.29h-1.71Zm0,0" transform="translate(5.031 0.838)" fill="#12263f"/><path d="M12.9,2.581h1.71V4.29H12.9Zm0,0" transform="translate(4.193 0.838)" fill="#12263f"/><path d="M5.129,31.705H8.548A.855.855,0,0,0,9.4,30.85v-9.4h3.419a.856.856,0,0,0,.644-1.418L7.482,13.191a.884.884,0,0,0-1.287,0L.211,20.029a.856.856,0,0,0,.644,1.418H4.274v9.4a.855.855,0,0,0,.855.855ZM2.739,19.738l4.1-4.685,4.1,4.685H8.548a.855.855,0,0,0-.855.855V30H5.984v-9.4a.855.855,0,0,0-.855-.855Zm0,0" transform="translate(0 4.196)" fill="#12263f"/><path d="M20.161,12.9H16.742a.855.855,0,0,0-.855.855v9.4H12.468a.856.856,0,0,0-.644,1.418l5.983,6.838a.857.857,0,0,0,1.287,0l5.983-6.838a.856.856,0,0,0-.644-1.418H21.015v-9.4A.855.855,0,0,0,20.161,12.9Zm2.39,11.967-4.1,4.685-4.1-4.685h2.39a.855.855,0,0,0,.855-.855v-9.4h1.71v9.4a.855.855,0,0,0,.855.855Zm0,0" transform="translate(3.773 4.192)" fill="#12263f"/><path d="M35.193,10.693H36.9V2.145a.855.855,0,0,0-.855-.855H23.226V3H35.193Zm0,0" transform="translate(7.547 0.419)" fill="#12263f"/><path d="M35.193,39.306H23.226v1.71H36.047a.855.855,0,0,0,.855-.855V31.613h-1.71Zm0,0" transform="translate(7.547 10.271)" fill="#12263f"/></g></g><g transform="translate(-6902.938 -12942.204)" clip-path="url(#h)"><g transform="translate(0 4.494)"><path d="M46.26,5.1H5.406A3.988,3.988,0,0,0,1.423,9.088V40.546a4.4,4.4,0,0,0,4.392,4.392H45.852a4.4,4.4,0,0,0,4.392-4.392V9.088A3.988,3.988,0,0,0,46.26,5.1Zm2.553,3.983v4.773H21.293l3.465-7.326h21.5A2.556,2.556,0,0,1,48.813,9.088ZM5.406,6.534H23.177l-3.466,7.326H2.852V9.088A2.556,2.556,0,0,1,5.406,6.534ZM45.852,43.507H5.814a2.965,2.965,0,0,1-2.962-2.962V15.291H48.813V40.546a2.965,2.965,0,0,1-2.962,2.962Z" transform="translate(-1.423 -5.105)" fill="#12263f"/><path d="M7.645,12.051A2.349,2.349,0,1,0,5.3,9.7,2.349,2.349,0,0,0,7.645,12.051Zm0-3.268a.919.919,0,1,1-.919.919A.919.919,0,0,1,7.645,8.783Z" transform="translate(-0.569 -4.609)" fill="#12263f"/><path d="M13.019,12.051A2.349,2.349,0,1,0,10.67,9.7,2.349,2.349,0,0,0,13.019,12.051Zm0-3.268A.919.919,0,1,1,12.1,9.7.919.919,0,0,1,13.019,8.783Z" transform="translate(0.617 -4.609)" fill="#12263f"/><path d="M22.731,10.121h18.28a.715.715,0,0,0,0-1.43H22.731a.715.715,0,1,0,0,1.43Z" transform="translate(3.119 -4.314)" fill="#12263f"/><path d="M37.952,26.611H10.171a.715.715,0,0,0-.715.715V35.5a.715.715,0,0,0,.715.715H37.952a.715.715,0,0,0,.715-.715V27.326A.715.715,0,0,0,37.952,26.611Zm-.715,8.171H10.886V28.041H37.237Z" transform="translate(0.349 -0.362)" fill="#12263f"/><path d="M13.11,32.49a.716.716,0,0,0,.994.187l.518-.353V32.6a.715.715,0,1,0,1.43,0v-.279l.516.353a.715.715,0,1,0,.807-1.181L16.6,30.97l.771-.527a.715.715,0,1,0-.807-1.181l-.516.353v-.279a.715.715,0,0,0-1.43,0v.279l-.516-.353a.715.715,0,0,0-.807,1.181l.771.527L13.3,31.5A.715.715,0,0,0,13.11,32.49Z" transform="translate(1.127 0.081)" fill="#12263f"/><path d="M19.623,32.49a.716.716,0,0,0,.994.187l.516-.353V32.6a.715.715,0,1,0,1.43,0v-.279l.516.353a.715.715,0,1,0,.807-1.181l-.771-.527.771-.527a.715.715,0,0,0-.807-1.181l-.516.353v-.279a.715.715,0,0,0-1.43,0v.279l-.516-.353a.715.715,0,1,0-.807,1.181l.771.527-.771.527A.715.715,0,0,0,19.623,32.49Z" transform="translate(2.563 0.081)" fill="#12263f"/><path d="M26.133,32.49a.715.715,0,0,0,.994.187l.516-.353V32.6a.715.715,0,1,0,1.43,0v-.279l.516.353a.715.715,0,1,0,.807-1.181l-.771-.527.771-.527a.715.715,0,1,0-.807-1.181l-.516.353v-.279a.715.715,0,0,0-1.43,0v.279l-.516-.353a.715.715,0,0,0-.807,1.181l.771.527-.771.527A.715.715,0,0,0,26.133,32.49Z" transform="translate(3.999 0.081)" fill="#12263f"/><path d="M20.6,27.231h3.488a3.365,3.365,0,0,0,3.363-3.36V20.937a.715.715,0,0,0-.715-.715h-.874v-1.06a3.518,3.518,0,0,0-7.035,0v1.06h-.873a.715.715,0,0,0-.715.715v2.934a3.365,3.365,0,0,0,3.361,3.36Zm-.344-8.069a2.088,2.088,0,0,1,4.175,0v1.06H20.257Zm-1.589,2.49h7.354v2.219a1.933,1.933,0,0,1-1.933,1.93H20.6a1.933,1.933,0,0,1-1.933-1.93Z" transform="translate(2.065 -2.78)" fill="#12263f"/></g></g><path d="M3549.036,937.866l-.023,3.42a.834.834,0,1,1-1.667-.011l.023-3.428a2.027,2.027,0,1,1,1.667.019Z" transform="translate(-10487.283 -13944.559)" fill="#12263f"/><g transform="translate(-6888.655 -13162.45)" fill="none" stroke="#eae7ad" stroke-width="2"><rect width="82.672" height="49.455" rx="15" stroke="none"/><rect x="1" y="1" width="80.672" height="47.455" rx="14" fill="none"/></g><g transform="translate(-6901.204 -12821.691)" fill="none" stroke="#a5b9f6" stroke-width="2"><rect width="107.769" height="49.455" rx="15" stroke="none"/><rect x="1" y="1" width="105.769" height="47.455" rx="14" fill="none"/></g><g transform="translate(-7081.021 -13163.428)" fill="none" stroke="#dbe3fb" stroke-width="2"><rect width="93.006" height="49.455" rx="15" stroke="none"/><rect x="1" y="1" width="91.006" height="47.455" rx="14" fill="none"/></g><g transform="translate(-7087.995 -12792.931)" fill="none" stroke="#cbc232" stroke-width="2"><rect width="131.491" height="49.455" rx="15" stroke="none"/><rect x="1" y="1" width="129.491" height="47.455" rx="14" fill="none"/></g><path d="M-5490.634-9866.5h50.457" transform="translate(3019.18 -18548.68) rotate(-90)" fill="none" stroke="#eae7ad" stroke-width="2"/><path d="M-5490.633-9866.5h75.477" transform="translate(3020.704 -18312.324) rotate(-90)" fill="none" stroke="#a5b9f6" stroke-width="2"/><path d="M-5490.633-9866.5h47.748" transform="translate(2831.982 -18556.633) rotate(-90)" fill="none" stroke="#dbe3fb" stroke-width="2"/><path d="M-5490.633-9866.5h93.537" transform="translate(2840.509 -18283.563) rotate(-90)" fill="none" stroke="#cbc232" stroke-width="2"/></g></svg>