<svg xmlns="http://www.w3.org/2000/svg" xmlns:xlink="http://www.w3.org/1999/xlink" width="124" height="124" viewBox="0 0 124 124"><defs><clipPath id="a"><rect width="74" height="74" transform="translate(946 2980)" fill="#fff"/></clipPath></defs><g transform="translate(11323.994 8728.775)"><circle cx="62" cy="62" r="62" transform="translate(-11323.994 -8728.775)" fill="#fff"/><g transform="translate(-12245.168 -11686.329)" clip-path="url(#a)"><g transform="translate(946 2980)"><g transform="translate(1.09 1.077)"><path d="M49.084,22.772l-.319-3.18.319-.5-.532-5.7-.925-.575H41.375l-.759.575-.532,5.7.333.369-.333,3.469-.387.313L38.3,38.173l.686.51H50.264l.6-.51L49.471,23.248Z" transform="translate(13.096 3.67)" fill="#dbedff"/><path d="M44.081,23.248l.387-.313.333-3.469-.333-.369.532-5.7.759-.575H41.375l-.759.575-.532,5.7.333.369-.333,3.469-.387.313L38.3,38.173l.686.51h4.384l-.686-.51Z" transform="translate(13.096 3.67)" fill="#b5dcff"/><path d="M56.66,31.32H34.99l-1.124,1.094V57.369H57.135l.331-.3V32.126A.806.806,0,0,0,56.66,31.32Z" transform="translate(11.452 10.522)" fill="#8479c2"/><path d="M39.948,32.126a.806.806,0,0,1,.806-.806H34.99l-1.124,1.094V57.369h6.414l-.331-.3Z" transform="translate(11.452 10.522)" fill="#6e60b8"/><path d="M48.681,10.207h-8.8a.754.754,0,0,0-.754.754V13.6a.754.754,0,0,0,.754.754h8.8a.754.754,0,0,0,.754-.754V10.961A.754.754,0,0,0,48.681,10.207Z" transform="translate(13.4 2.703)" fill="#b5dcff"/><path d="M43.365,13.6V10.961a.754.754,0,0,1,.754-.754h-4.24a.754.754,0,0,0-.754.754V13.6a.754.754,0,0,0,.754.754h4.24A.754.754,0,0,1,43.365,13.6Z" transform="translate(13.4 2.703)" fill="#8bcaff"/><path d="M47.859,3.459a.647.647,0,0,1-.713-.354A4.238,4.238,0,0,0,40.511,1.9a.642.642,0,0,1-.868,0,4.229,4.229,0,0,0-5.715,0,.642.642,0,0,1-.869,0,4.23,4.23,0,1,0,0,6.236.642.642,0,0,1,.869,0,4.229,4.229,0,0,0,5.716,0,.642.642,0,0,1,.868,0,4.23,4.23,0,0,0,5.264.365.649.649,0,0,1,.8.034,2.928,2.928,0,1,0,1.283-5.07Z" transform="translate(8.528 -0.786)" fill="#dbedff"/><path d="M46.576,4.543a.649.649,0,0,0-.8-.034,4.23,4.23,0,0,1-5.264-.365.642.642,0,0,0-.868,0,4.229,4.229,0,0,1-5.716,0,.642.642,0,0,0-.869,0,4.26,4.26,0,0,1-6.771-1.474,4.244,4.244,0,0,0,6.771,4.762.642.642,0,0,1,.869,0,4.229,4.229,0,0,0,5.716,0,.642.642,0,0,1,.868,0,4.23,4.23,0,0,0,5.264.365.649.649,0,0,1,.8.034,2.932,2.932,0,0,0,4.845-2.212,2.892,2.892,0,0,0-.5-1.636,2.955,2.955,0,0,1-4.347.56Z" transform="translate(8.528 -0.088)" fill="#b5dcff"/><path d="M39.32,21.551h9.774L48.707,17.4h-9Z" transform="translate(13.473 5.367)" fill="#f27182"/><path d="M39.708,17.4l-.387,4.151H43.7l.387-4.151Z" transform="translate(13.473 5.367)" fill="#ed5469"/><path d="M38.163,47.079H51.11v4.345H38.163Z" transform="translate(13.044 16.359)" fill="#00d2fc"/><path d="M38.163,47.079h6.09v4.345h-6.09Z" transform="translate(13.044 16.359)" fill="#00c2fb"/><path d="M38.163,41.288H51.11v4.345H38.163Z" transform="translate(13.044 14.214)" fill="#00d2fc"/><path d="M38.163,41.288h6.09v4.345h-6.09Z" transform="translate(13.044 14.214)" fill="#00c2fb"/><path d="M37.463,26.089,24.715,32.506a.881.881,0,0,0-.485.787l-.49.51V59.342h14.4l.594-.3V26.875a.881.881,0,0,0-1.277-.787Z" transform="translate(7.702 8.55)" fill="#ffc365"/><path d="M38.163,44.321H51.11v3.968H38.163Z" transform="translate(13.044 15.338)" fill="#62ddfc"/><path d="M38.163,44.321h6.09v3.968h-6.09Z" transform="translate(13.044 15.338)" fill="#00d2fc"/><path d="M50.916,38.24H38.356a.682.682,0,0,1-.194-.031v4.408H51.11V38.209A.682.682,0,0,1,50.916,38.24Z" transform="translate(13.044 13.074)" fill="#62ddfc"/><path d="M44.162,38.24H38.254a.174.174,0,0,1-.091-.031v4.408h6.09V38.209A.173.173,0,0,1,44.162,38.24Z" transform="translate(13.044 13.074)" fill="#00d2fc"/><path d="M51.068,35.521H38.508a.754.754,0,0,0-.754.754v2.644a.754.754,0,0,0,.754.754h12.56a.754.754,0,0,0,.754-.754V36.275a.754.754,0,0,0-.754-.754Z" transform="translate(12.892 12.078)" fill="#dbedff"/><path d="M43.651,38.918V36.275a.754.754,0,0,1,.754-.754h-5.9a.754.754,0,0,0-.754.754v2.644a.754.754,0,0,0,.754.754h5.9A.754.754,0,0,1,43.651,38.918Z" transform="translate(12.892 12.078)" fill="#b5dcff"/><path d="M28.159,34.7a.881.881,0,0,1,.485-.787l9.964-5.016V26.875a.881.881,0,0,0-1.277-.787L24.583,32.506a.881.881,0,0,0-.485.787V59.046h4.061V34.7Z" transform="translate(7.835 8.55)" fill="#ffa90f"/><path d="M26.912,26.089,14.164,32.506a.881.881,0,0,0-.485.787l-.626.51V59.727H27.073l1.116-.682V26.875a.881.881,0,0,0-1.277-.787Z" transform="translate(3.744 8.55)" fill="#ffc365"/><path d="M17.571,34.7a.881.881,0,0,1,.485-.787l9.964-5.016V26.875a.881.881,0,0,0-1.277-.787L13.995,32.506a.881.881,0,0,0-.485.787V59.046h4.061V34.7Z" transform="translate(3.913 8.55)" fill="#ffa90f"/><path d="M16.154,26.089,3.407,32.506a.881.881,0,0,0-.485.787V59.046H17.431V26.875a.881.881,0,0,0-1.277-.787Z" transform="translate(-0.008 8.55)" fill="#ffc365"/><path d="M6.983,34.7a.881.881,0,0,1,.485-.787l9.964-5.016V26.875a.881.881,0,0,0-1.277-.787L3.407,32.506a.881.881,0,0,0-.485.787V59.046H6.983V34.7Z" transform="translate(-0.008 8.55)" fill="#ffa90f"/><path d="M71.58,50.007H1.843A1.048,1.048,0,0,0,.8,51.055v2.286a1.048,1.048,0,0,0,1.048,1.048H71.58a1.048,1.048,0,0,0,1.048-1.048V51.055A1.048,1.048,0,0,0,71.58,50.007Z" transform="translate(-0.796 17.444)" fill="#dbedff"/><path d="M71.58,51.889H1.843A1.048,1.048,0,0,1,.8,50.841v2.191a1.048,1.048,0,0,0,1.048,1.048H71.58a1.048,1.048,0,0,0,1.048-1.048V50.841A1.048,1.048,0,0,1,71.58,51.889Z" transform="translate(-0.796 17.752)" fill="#b5dcff"/><g transform="translate(6.83 45.074)"><path d="M32.737,33.678H27.851a.9.9,0,0,0-.9.9v5.465a.9.9,0,0,0,.9.9h4.887a.9.9,0,0,0,.9-.9V34.573A.9.9,0,0,0,32.737,33.678Z" transform="translate(2.063 -33.678)" fill="#00d2fc"/><path d="M22.149,33.678H17.263a.9.9,0,0,0-.9.9v5.465a.9.9,0,0,0,.9.9h4.887a.9.9,0,0,0,.9-.9V34.573A.9.9,0,0,0,22.149,33.678Z" transform="translate(-1.858 -33.678)" fill="#00d2fc"/><path d="M11.561,33.678H6.675a.9.9,0,0,0-.9.9v5.465a.9.9,0,0,0,.9.9h4.887a.9.9,0,0,0,.9-.9V34.573A.9.9,0,0,0,11.561,33.678Z" transform="translate(-5.78 -33.678)" fill="#00d2fc"/></g><path d="M30.294,40.038V34.573a.9.9,0,0,1,.9-.9H27.851a.9.9,0,0,0-.9.9v5.465a.9.9,0,0,0,.9.9h3.338A.9.9,0,0,1,30.294,40.038Z" transform="translate(8.893 11.396)" fill="#00c2fb"/><path d="M19.706,40.038V34.573a.9.9,0,0,1,.9-.9H17.263a.9.9,0,0,0-.9.9v5.465a.9.9,0,0,0,.9.9H20.6A.9.9,0,0,1,19.706,40.038Z" transform="translate(4.972 11.396)" fill="#00c2fb"/><path d="M9.118,40.038V34.573a.9.9,0,0,1,.9-.9H6.675a.9.9,0,0,0-.9.9v5.465a.9.9,0,0,0,.9.9h3.338A.9.9,0,0,1,9.118,40.038Z" transform="translate(1.05 11.396)" fill="#00c2fb"/></g><g transform="translate(0 0)"><path d="M6.963,42.314H11.85a1.981,1.981,0,0,0,1.979-1.979V34.87a1.981,1.981,0,0,0-1.979-1.979H6.963A1.981,1.981,0,0,0,4.984,34.87v5.465A1.981,1.981,0,0,0,6.963,42.314Zm.189-7.255h4.509v5.087H7.152Z" transform="translate(1.846 12.182)"/><path d="M17.551,42.314h4.887a1.981,1.981,0,0,0,1.979-1.979V34.87a1.981,1.981,0,0,0-1.979-1.979H17.551a1.981,1.981,0,0,0-1.979,1.979v5.465A1.981,1.981,0,0,0,17.551,42.314Zm.189-7.255h4.509v5.087H17.74Z" transform="translate(5.767 12.182)"/><path d="M28.139,42.314h4.887A1.981,1.981,0,0,0,35,40.335V34.87a1.981,1.981,0,0,0-1.979-1.979H28.139A1.981,1.981,0,0,0,26.16,34.87v5.465A1.981,1.981,0,0,0,28.139,42.314Zm.189-7.255h4.509v5.087H28.328Z" transform="translate(9.689 12.182)"/><path d="M48.252,2.637a5.328,5.328,0,0,0-7.888-1.5,5.342,5.342,0,0,0-6.581,0A5.31,5.31,0,0,0,28.352.456a5.224,5.224,0,0,0-3.178,4.857,5.223,5.223,0,0,0,3.178,4.856,5.31,5.31,0,0,0,5.431-.684,5.342,5.342,0,0,0,6.584,0,5.351,5.351,0,0,0,6.048.374,4.013,4.013,0,1,0,1.838-7.219Zm-.671,5.378A1.729,1.729,0,0,0,45.446,7.9a3.159,3.159,0,0,1-3.912-.271,1.734,1.734,0,0,0-2.336,0,3.153,3.153,0,0,1-4.247,0,1.731,1.731,0,0,0-2.343,0,3.1,3.1,0,0,1-3.392.543,3.045,3.045,0,0,1-1.874-2.868,3.046,3.046,0,0,1,1.875-2.868,3.1,3.1,0,0,1,3.391.543,1.731,1.731,0,0,0,2.343,0,3.152,3.152,0,0,1,4.246,0,1.732,1.732,0,0,0,2.34,0,3.154,3.154,0,0,1,4.928.9,1.726,1.726,0,0,0,1.921.927h0a1.844,1.844,0,1,1-.8,3.2Z" transform="translate(9.324 0)"/><path d="M71.868,64.106h-.782V40.243a1.892,1.892,0,0,0-1.89-1.89H66.032l-.43-4.606a1.084,1.084,0,1,0-2.159.2l.411,4.4H53.674L54.865,25.6h7.8l.307,3.294a1.084,1.084,0,1,0,2.159-.2L63.907,15.582A1.84,1.84,0,0,0,65,13.9V11.259a1.84,1.84,0,0,0-1.838-1.838h-8.8a1.84,1.84,0,0,0-1.838,1.838V13.9a1.84,1.84,0,0,0,1.1,1.68c-.093.993-2.032,21.779-2.125,22.771H48.61V33.02a1.965,1.965,0,0,0-2.848-1.755L34.1,37.135V33.02a1.965,1.965,0,0,0-2.848-1.755l-11.661,5.87V33.02a1.965,1.965,0,0,0-2.848-1.755L3.995,37.682a1.955,1.955,0,0,0-1.081,1.755V64.106H2.132A2.134,2.134,0,0,0,0,66.238v2.141a2.134,2.134,0,0,0,2.132,2.132H34.471a1.084,1.084,0,1,0,0-2.168H2.168V66.274H71.832v2.069h-32.3a1.084,1.084,0,0,0,0,2.168H71.868A2.134,2.134,0,0,0,74,68.379V66.237a2.134,2.134,0,0,0-2.132-2.131Zm-16.8-40.678.185-1.983h7.024l.185,1.983Zm.387-4.151.33-3.537h5.96l.33,3.537Zm-.761-7.688h8.142v1.983H54.693ZM17.423,64.106H5.082V39.562l12.341-6.213Zm14.509,0H19.591V39.562l12.341-6.213Zm14.509,0H34.1V39.562l12.341-6.213Zm17.712,0H53.374v-1.8H64.154Zm0-3.968H53.374v-1.8H64.154Zm0-3.968H53.374v-1.8H64.154Zm0-3.968H53.374V50.429H64.154Zm.56-3.94h-11.9V46.278h11.9Zm4.2,15.845h-2.6v-14.2a1.831,1.831,0,0,0,.56-1.318V45.948a1.84,1.84,0,0,0-1.838-1.838H52.484a1.84,1.84,0,0,0-1.838,1.838v2.644a1.831,1.831,0,0,0,.56,1.318v14.2h-2.6V40.521H68.919Z" transform="translate(0 3.489)"/></g></g></g></g></svg>