<svg xmlns="http://www.w3.org/2000/svg" xmlns:xlink="http://www.w3.org/1999/xlink" width="1020" height="493.206" viewBox="0 0 1020 493.206"><defs><clipPath id="a"><path d="M14.682,0h990.636C1013.427,0,1020,8.275,1020,18.483v456.24c0,10.208-6.573,18.483-14.682,18.483H14.682C6.573,493.206,0,484.931,0,474.723V18.483C0,8.275,6.573,0,14.682,0Z" transform="translate(-14498.084 -13325.311)" fill="#cbc232"/></clipPath><clipPath id="b"><path d="M385.125,0c212.7,0,385.125,165.141,385.125,368.852S597.824,737.7,385.125,737.7,0,572.564,0,368.852,172.427,0,385.125,0Z" transform="translate(0 0)" fill="#21c9b8"/></clipPath><clipPath id="c"><rect width="562.639" height="562.639" fill="#dee4f0"/></clipPath><clipPath id="d"><rect width="174.606" height="178.181" fill="#fff" stroke="#fff" stroke-width="1"/></clipPath><clipPath id="e"><rect width="78.859" height="78.859" transform="translate(0 0)" fill="#12263f"/></clipPath><clipPath id="f"><rect width="70.051" height="70.051" fill="#12263f"/></clipPath><clipPath id="g"><rect width="71.797" height="71.797" transform="translate(0)" fill="#12263f"/></clipPath><clipPath id="h"><rect width="66.14" height="66.14" transform="translate(0 0)" fill="#12263f"/></clipPath></defs><g transform="translate(-289 -1678.461)"><path d="M-5490.633-9866.5h41.285" transform="translate(6466.348 11717)" fill="none" stroke="#eae7ad" stroke-width="2"/><g transform="translate(14787.084 15003.771)" opacity="0.31" clip-path="url(#a)"><path d="M0,0H1958.007V759.1H0Z" transform="translate(-14597.666 -13375.295)" fill="#f3f9ff"/><path d="M360.082,0C558.95,0,720.165,161.214,720.165,360.082S558.95,720.165,360.082,720.165,0,558.95,0,360.082,161.214,0,360.082,0Z" transform="translate(-13212.232 -13358.536)" fill="#dbe3fb" opacity="0.14"/><path d="M360.082,0C558.95,0,720.165,161.214,720.165,360.082S558.95,720.165,360.082,720.165,0,558.95,0,360.082,161.214,0,360.082,0Z" transform="translate(-14051.47 -12938.252)" fill="#dbe3fb" opacity="0.14"/><path d="M360.082,0C558.95,0,720.165,161.214,720.165,360.082S558.95,720.165,360.082,720.165,0,558.95,0,360.082,161.214,0,360.082,0Z" transform="translate(-13226.376 -13522.811)" fill="#dbe3fb" opacity="0"/><rect width="9.879" height="2.634" transform="translate(-13072.669 -12917.637)" fill="#dbe3fb"/><ellipse cx="359.603" cy="344.409" rx="359.603" ry="344.409" transform="translate(-14113.548 -14019.15)" fill="#94a6dd" opacity="0.13"/><path d="M368.357,0C571.8,0,736.715,157.951,736.715,352.793S571.8,705.586,368.357,705.586,0,547.635,0,352.793,164.919,0,368.357,0Z" transform="translate(-13635.472 -13212.226)" fill="#fff" opacity="0.25"/><path d="M480.474,0C745.832,0,960.947,215.115,960.947,480.474S745.832,960.947,480.474,960.947,0,745.832,0,480.474,215.115,0,480.474,0Z" transform="translate(-14850.658 -12864.773)" fill="#a5b9f6" opacity="0.23" style="mix-blend-mode:multiply;isolation:isolate"/><path d="M480.474,0C745.832,0,960.947,215.115,960.947,480.474S745.832,960.947,480.474,960.947,0,745.832,0,480.474,215.115,0,480.474,0Z" transform="translate(-14458.665 -13913.207)" fill="#f6f8fe" opacity="0.51" style="mix-blend-mode:lighten;isolation:isolate"/><path d="M480.474,0C745.832,0,960.947,215.115,960.947,480.474S745.832,960.947,480.474,960.947,0,745.832,0,480.474,215.115,0,480.474,0Z" transform="translate(-15286.294 -14003.284)" fill="#a5b9f6" opacity="0.23" style="mix-blend-mode:multiply;isolation:isolate"/><g transform="translate(-14540.83 -13774.651)"><g clip-path="url(#c)"><path d="M562.639,281.315c0-9.08-.471-18.045-1.316-26.911H430.7L553.15,208.781a279.921,279.921,0,0,0-18.783-50.452L387.777,212.934l110.589-110.6a283.049,283.049,0,0,0-38.073-38.064L367.91,156.666l54.3-118.806a279.884,279.884,0,0,0-48.958-22.411L308.244,157.679V1.307C299.377.471,290.4,0,281.315,0s-18.054.471-26.92,1.307V131.951L208.781,9.5A278.013,278.013,0,0,0,158.32,28.281l54.605,146.58L102.336,64.272a284.092,284.092,0,0,0-38.073,38.064l92.393,92.393-118.8-54.3a280.182,280.182,0,0,0-22.411,48.958L157.679,254.4H1.307C.471,263.27,0,272.235,0,281.315c0,9.1.471,18.062,1.307,26.929H131.951L9.489,353.858a278.764,278.764,0,0,0,18.783,50.47l146.58-54.614L64.263,460.294a283.114,283.114,0,0,0,38.073,38.073l92.393-92.393-54.3,118.8a280.127,280.127,0,0,0,48.949,22.42l65.019-142.232V561.331c8.867.836,17.84,1.307,26.92,1.307s18.062-.471,26.929-1.307V430.688L353.858,553.15a279.994,279.994,0,0,0,50.461-18.774L349.7,387.786l110.589,110.58a282.078,282.078,0,0,0,38.073-38.073L405.973,367.9l118.8,54.321a281.115,281.115,0,0,0,22.42-48.958L404.959,308.244H561.323c.845-8.867,1.316-17.831,1.316-26.929" fill="#dee4f0" opacity="0.12"/></g></g><path d="M655.464,327.727c0-10.578-.549-21.022-1.533-31.351H501.754l142.655-53.15a326.106,326.106,0,0,0-21.882-58.776L451.754,248.064,580.588,119.22a329.75,329.75,0,0,0-44.354-44.343L428.608,182.512,491.87,44.105A326.062,326.062,0,0,0,434.835,18L359.1,183.694V1.523C348.769.549,338.315,0,327.727,0s-21.032.549-31.362,1.523v152.2L243.226,11.065A323.88,323.88,0,0,0,184.44,32.947L248.054,203.71,119.22,74.876A330.96,330.96,0,0,0,74.866,119.22L182.5,226.856l-138.4-63.262A326.407,326.407,0,0,0,18,220.629l165.7,75.746H1.523C.549,306.705,0,317.149,0,327.727c0,10.6.549,21.042,1.523,31.372h152.2L11.055,412.238a324.755,324.755,0,0,0,21.882,58.8L203.7,407.41,74.866,536.234a329.827,329.827,0,0,0,44.354,44.354L226.856,472.951l-63.262,138.4a326.34,326.34,0,0,0,57.025,26.119l75.746-165.7V653.941c10.329.974,20.783,1.523,31.362,1.523s21.042-.549,31.372-1.523v-152.2l53.14,142.666a326.189,326.189,0,0,0,58.786-21.871L407.4,451.764,536.234,580.588a328.626,328.626,0,0,0,44.354-44.354L472.951,428.6l138.4,63.283a327.493,327.493,0,0,0,26.119-57.035L471.77,359.1H653.93c.984-10.329,1.533-20.773,1.533-31.372" transform="translate(-14325.346 -12916.318)" fill="none" stroke="#fff" stroke-width="1"/><rect width="9.879" height="2.634" transform="translate(-13031.422 -12848.507)" fill="#e9dcbf"/><g transform="translate(-13536.814 -13190.194)" style="isolation:isolate"><g transform="translate(0 0)" clip-path="url(#d)" style="isolation:isolate"><path d="M20.577,0h0A3.429,3.429,0,0,0,17.21,3,16.778,16.778,0,0,1,2.978,17.158,3.434,3.434,0,0,0,3,23.968,16.647,16.647,0,0,1,17.232,38.124a3.389,3.389,0,0,0,6.732.06,16.915,16.915,0,0,1,14.281-14.3,3.277,3.277,0,0,0,2.9-3.225v-.081a3.4,3.4,0,0,0-2.976-3.345A16.916,16.916,0,0,1,23.939,2.967,3.414,3.414,0,0,0,20.577,0" transform="translate(0 0)" fill="#fff" stroke="#fff" stroke-width="1"/><path d="M42.12,0h0a3.429,3.429,0,0,0-3.368,3,16.778,16.778,0,0,1-14.232,14.16,3.434,3.434,0,0,0,.023,6.81A16.647,16.647,0,0,1,38.775,38.124a3.389,3.389,0,0,0,6.732.06,16.915,16.915,0,0,1,14.281-14.3,3.277,3.277,0,0,0,2.9-3.225v-.081a3.4,3.4,0,0,0-2.976-3.345A16.912,16.912,0,0,1,45.484,2.967,3.418,3.418,0,0,0,42.12,0" transform="translate(22.943 0)" fill="#fff" stroke="#fff" stroke-width="1"/><path d="M63.663,0h0A3.429,3.429,0,0,0,60.3,3a16.778,16.778,0,0,1-14.232,14.16,3.434,3.434,0,0,0,.023,6.81A16.647,16.647,0,0,1,60.318,38.124a3.389,3.389,0,0,0,6.732.06,16.915,16.915,0,0,1,14.281-14.3,3.277,3.277,0,0,0,2.9-3.225v-.081a3.4,3.4,0,0,0-2.976-3.345A16.916,16.916,0,0,1,67.025,2.967,3.414,3.414,0,0,0,63.663,0" transform="translate(45.886 0)" fill="#fff" stroke="#fff" stroke-width="1"/><path d="M85.208,0h0A3.429,3.429,0,0,0,81.84,3a16.778,16.778,0,0,1-14.232,14.16,3.434,3.434,0,0,0,.023,6.81A16.647,16.647,0,0,1,81.862,38.124a3.389,3.389,0,0,0,6.732.06,16.915,16.915,0,0,1,14.281-14.3,3.277,3.277,0,0,0,2.9-3.225v-.081a3.4,3.4,0,0,0-2.976-3.345A16.916,16.916,0,0,1,88.569,2.967,3.414,3.414,0,0,0,85.208,0" transform="translate(68.829 0)" fill="#fff" stroke="#fff" stroke-width="1"/><path d="M20.577,22.12h0a3.431,3.431,0,0,0-3.368,3A16.78,16.78,0,0,1,2.978,39.28,3.434,3.434,0,0,0,3,46.09,16.647,16.647,0,0,1,17.232,60.246a3.389,3.389,0,0,0,6.732.058,16.915,16.915,0,0,1,14.281-14.3,3.278,3.278,0,0,0,2.9-3.225V42.7a3.4,3.4,0,0,0-2.976-3.345A16.914,16.914,0,0,1,23.939,25.087a3.414,3.414,0,0,0-3.362-2.967" transform="translate(0 23.557)" fill="#fff" stroke="#fff" stroke-width="1"/><path d="M42.12,22.12h0a3.431,3.431,0,0,0-3.368,3A16.78,16.78,0,0,1,24.521,39.28a3.434,3.434,0,0,0,.023,6.81A16.647,16.647,0,0,1,38.775,60.246a3.389,3.389,0,0,0,6.732.058,16.915,16.915,0,0,1,14.281-14.3,3.278,3.278,0,0,0,2.9-3.225V42.7a3.4,3.4,0,0,0-2.976-3.345,16.91,16.91,0,0,1-14.23-14.265A3.418,3.418,0,0,0,42.12,22.12" transform="translate(22.943 23.557)" fill="#fff" stroke="#fff" stroke-width="1"/><path d="M63.663,22.12h0a3.431,3.431,0,0,0-3.368,3A16.78,16.78,0,0,1,46.064,39.28a3.434,3.434,0,0,0,.023,6.81A16.647,16.647,0,0,1,60.318,60.246a3.389,3.389,0,0,0,6.732.058,16.915,16.915,0,0,1,14.281-14.3,3.278,3.278,0,0,0,2.9-3.225V42.7a3.4,3.4,0,0,0-2.976-3.345A16.914,16.914,0,0,1,67.025,25.087a3.414,3.414,0,0,0-3.362-2.967" transform="translate(45.886 23.557)" fill="#fff" stroke="#fff" stroke-width="1"/><path d="M85.208,22.12h0a3.431,3.431,0,0,0-3.368,3A16.78,16.78,0,0,1,67.608,39.28a3.434,3.434,0,0,0,.023,6.81A16.647,16.647,0,0,1,81.862,60.246a3.389,3.389,0,0,0,6.732.058,16.915,16.915,0,0,1,14.281-14.3,3.278,3.278,0,0,0,2.9-3.225V42.7a3.4,3.4,0,0,0-2.976-3.345A16.914,16.914,0,0,1,88.569,25.087a3.414,3.414,0,0,0-3.362-2.967" transform="translate(68.829 23.557)" fill="#fff" stroke="#fff" stroke-width="1"/><path d="M20.577,44.241h0a3.429,3.429,0,0,0-3.368,3A16.773,16.773,0,0,1,2.978,61.4,3.435,3.435,0,0,0,3,68.209,16.647,16.647,0,0,1,17.232,82.365a3.389,3.389,0,0,0,6.732.06,16.915,16.915,0,0,1,14.281-14.3,3.278,3.278,0,0,0,2.9-3.225v-.081a3.4,3.4,0,0,0-2.976-3.345A16.916,16.916,0,0,1,23.939,47.208a3.414,3.414,0,0,0-3.362-2.967" transform="translate(0 47.115)" fill="#fff" stroke="#fff" stroke-width="1"/><path d="M42.12,44.241h0a3.429,3.429,0,0,0-3.368,3A16.773,16.773,0,0,1,24.521,61.4a3.435,3.435,0,0,0,.023,6.812A16.647,16.647,0,0,1,38.775,82.365a3.389,3.389,0,0,0,6.732.06,16.915,16.915,0,0,1,14.281-14.3,3.278,3.278,0,0,0,2.9-3.225v-.081a3.4,3.4,0,0,0-2.976-3.345,16.912,16.912,0,0,1-14.23-14.265,3.418,3.418,0,0,0-3.364-2.967" transform="translate(22.943 47.115)" fill="#fff" stroke="#fff" stroke-width="1"/><path d="M63.663,44.241h0a3.429,3.429,0,0,0-3.368,3A16.773,16.773,0,0,1,46.064,61.4a3.435,3.435,0,0,0,.023,6.812A16.647,16.647,0,0,1,60.318,82.365a3.389,3.389,0,0,0,6.732.06,16.915,16.915,0,0,1,14.281-14.3,3.278,3.278,0,0,0,2.9-3.225v-.081a3.4,3.4,0,0,0-2.976-3.345A16.916,16.916,0,0,1,67.025,47.208a3.414,3.414,0,0,0-3.362-2.967" transform="translate(45.886 47.115)" fill="#fff" stroke="#fff" stroke-width="1"/><path d="M85.208,44.241h0a3.429,3.429,0,0,0-3.368,3A16.773,16.773,0,0,1,67.608,61.4a3.435,3.435,0,0,0,.023,6.812A16.647,16.647,0,0,1,81.862,82.365a3.389,3.389,0,0,0,6.732.06,16.915,16.915,0,0,1,14.281-14.3,3.278,3.278,0,0,0,2.9-3.225v-.081a3.4,3.4,0,0,0-2.976-3.345A16.916,16.916,0,0,1,88.569,47.208a3.414,3.414,0,0,0-3.362-2.967" transform="translate(68.829 47.115)" fill="#fff" stroke="#fff" stroke-width="1"/><path d="M20.577,66.361h0a3.429,3.429,0,0,0-3.368,3A16.778,16.778,0,0,1,2.978,83.519,3.434,3.434,0,0,0,3,90.329a16.647,16.647,0,0,1,14.232,14.155,3.389,3.389,0,0,0,6.732.06,16.915,16.915,0,0,1,14.281-14.3,3.277,3.277,0,0,0,2.9-3.225v-.081a3.4,3.4,0,0,0-2.976-3.345A16.916,16.916,0,0,1,23.939,69.328a3.414,3.414,0,0,0-3.362-2.967" transform="translate(0 70.672)" fill="#fff" stroke="#fff" stroke-width="1"/><path d="M42.12,66.361h0a3.429,3.429,0,0,0-3.368,3,16.778,16.778,0,0,1-14.232,14.16,3.434,3.434,0,0,0,.023,6.81,16.647,16.647,0,0,1,14.232,14.155,3.389,3.389,0,0,0,6.732.06,16.915,16.915,0,0,1,14.281-14.3,3.277,3.277,0,0,0,2.9-3.225v-.081a3.4,3.4,0,0,0-2.976-3.345,16.912,16.912,0,0,1-14.23-14.265,3.418,3.418,0,0,0-3.364-2.967" transform="translate(22.943 70.672)" fill="#fff" stroke="#fff" stroke-width="1"/><path d="M63.663,66.361h0a3.429,3.429,0,0,0-3.368,3,16.778,16.778,0,0,1-14.232,14.16,3.434,3.434,0,0,0,.023,6.81,16.647,16.647,0,0,1,14.232,14.155,3.389,3.389,0,0,0,6.732.06,16.915,16.915,0,0,1,14.281-14.3,3.277,3.277,0,0,0,2.9-3.225v-.081a3.4,3.4,0,0,0-2.976-3.345A16.916,16.916,0,0,1,67.025,69.328a3.414,3.414,0,0,0-3.362-2.967" transform="translate(45.886 70.672)" fill="#fff" stroke="#fff" stroke-width="1"/><path d="M85.208,66.361h0a3.429,3.429,0,0,0-3.368,3,16.778,16.778,0,0,1-14.232,14.16,3.434,3.434,0,0,0,.023,6.81,16.647,16.647,0,0,1,14.232,14.155,3.389,3.389,0,0,0,6.732.06,16.915,16.915,0,0,1,14.281-14.3,3.277,3.277,0,0,0,2.9-3.225v-.081a3.4,3.4,0,0,0-2.976-3.345A16.916,16.916,0,0,1,88.569,69.328a3.414,3.414,0,0,0-3.362-2.967" transform="translate(68.829 70.672)" fill="#fff" stroke="#fff" stroke-width="1"/></g></g></g><g transform="translate(624.285 1716.549)"><path d="M3331.466,1074.4V1282.91H3155.751V1153.634C3218.408,1141,3294.628,1111.076,3331.466,1074.4Z" transform="translate(-3155.751 -1074.399)" fill="#dbe3fb"/><path d="M3569.726,1170.078v88.564q-.1,11.289-.251,24.268H3394.011V1074.4c36.108,37.6,112.969,68.812,175.457,82.666C3569.453,1158.43,3569.586,1161.93,3569.726,1170.078Z" transform="translate(-3218.296 -1074.399)" fill="#eae7ad"/><path d="M3569.475,1312.659c0,.228-.007.464-.007.691-1.578,134.378-154.969,199.094-175.457,207.828v-208.52Z" transform="translate(-3218.296 -1104.148)" fill="#a5b9f6"/><path d="M3331.466,1312.659v208.52c-20.052-9.749-164.011-70.781-175.715-193.161v-15.359Z" transform="translate(-3155.751 -1104.148)" fill="#cbc232"/></g><ellipse cx="54.206" cy="52.731" rx="54.206" ry="52.731" transform="translate(745.972 1872.16)" fill="#fff"/><path d="M-43.734,0l2.224-12.8,3.99.009a5.293,5.293,0,0,1,3.34.905A2.8,2.8,0,0,1-33.17-9.36a3.223,3.223,0,0,1-2.241,2.839,2.15,2.15,0,0,1,1.187.989,2.959,2.959,0,0,1,.36,1.709,3.7,3.7,0,0,1-1.419,2.817A5.629,5.629,0,0,1-38.821,0Zm3.551-5.572-.606,3.454,2.03.009a2.618,2.618,0,0,0,1.591-.47A1.866,1.866,0,0,0-36.4-3.85a1.577,1.577,0,0,0-.215-1.235,1.427,1.427,0,0,0-1.138-.479Zm.316-1.863,1.749.018a2.785,2.785,0,0,0,1.6-.457A1.772,1.772,0,0,0-35.78-9.1q.22-1.547-1.626-1.556l-1.9-.009ZM-27.158,0a2.566,2.566,0,0,1-.1-.861A3.221,3.221,0,0,1-29.681.176a2.919,2.919,0,0,1-2.07-.813A2.46,2.46,0,0,1-32.52-2.6a2.843,2.843,0,0,1,1.305-2.386,5.924,5.924,0,0,1,3.335-.831l1.16.018.123-.571a1.984,1.984,0,0,0,.026-.554.952.952,0,0,0-.312-.646,1.075,1.075,0,0,0-.708-.242,1.514,1.514,0,0,0-.984.286,1.384,1.384,0,0,0-.519.875l-2.487.009a2.764,2.764,0,0,1,1.252-2.21,4.85,4.85,0,0,1,2.94-.831,3.507,3.507,0,0,1,2.531.962,2.816,2.816,0,0,1,.765,2.386l-.729,4.553-.044.563a2.714,2.714,0,0,0,.149,1.055L-24.724,0Zm-1.907-1.749a2.27,2.27,0,0,0,1.872-.932l.308-1.644-.861-.009a2.406,2.406,0,0,0-1.978.835A1.454,1.454,0,0,0-30-2.786a.844.844,0,0,0,.2.751A1,1,0,0,0-29.065-1.749Zm10.02-.114A1.628,1.628,0,0,0-17.9-2.237a1.836,1.836,0,0,0,.6-1.042l2.329-.009a3.416,3.416,0,0,1-.628,1.8A3.818,3.818,0,0,1-17.117-.237a4.327,4.327,0,0,1-1.991.422,3.514,3.514,0,0,1-2.742-1.2,4.461,4.461,0,0,1-.976-3.111l.026-.483.009-.1A5.945,5.945,0,0,1-21.226-8.38a4.231,4.231,0,0,1,3.278-1.305,3.428,3.428,0,0,1,2.553,1.05,3.71,3.71,0,0,1,.927,2.676h-2.312a1.947,1.947,0,0,0-.334-1.2,1.269,1.269,0,0,0-1-.475q-1.775-.053-2.153,2.593a8.755,8.755,0,0,0-.1,1.617Q-20.276-1.89-19.046-1.863Zm9.141-1.925-1.151,1L-11.54,0h-2.479l2.338-13.5h2.487l-1.283,7.33.483-.519L-7.172-9.51H-3.99L-8.147-5.423-5.5,0H-8.218ZM1.283-.984A3.283,3.283,0,0,1-1.336.176,2.443,2.443,0,0,1-3.41-.809a3.6,3.6,0,0,1-.545-2.549L-2.927-9.51H-.448L-1.494-3.331a2.442,2.442,0,0,0-.009.545.9.9,0,0,0,.976.905A2.266,2.266,0,0,0,1.38-2.769L2.566-9.51h2.5L3.41,0H1.1Zm13.1-3.744a7.854,7.854,0,0,1-.782,2.654A4.3,4.3,0,0,1,12.12-.352a3.44,3.44,0,0,1-1.969.536A2.745,2.745,0,0,1,7.972-.844l-.87,4.5H4.623L6.9-9.51l2.285-.009-.167.958a3.036,3.036,0,0,1,2.426-1.125A2.7,2.7,0,0,1,13.614-8.67a4.412,4.412,0,0,1,.826,2.659A10.274,10.274,0,0,1,14.388-4.729Zm-2.461-.185.053-.844a2.344,2.344,0,0,0-.312-1.354,1.12,1.12,0,0,0-.962-.519,2.046,2.046,0,0,0-1.784.914l-.712,3.92a1.387,1.387,0,0,0,1.4.923A1.79,1.79,0,0,0,11.1-2.566,4.751,4.751,0,0,0,11.927-4.913ZM24.979.176a4.668,4.668,0,0,1-3.406-1.283,4.561,4.561,0,0,1-1.314-3.419v-.246a5.745,5.745,0,0,1,.554-2.562,4.064,4.064,0,0,1,1.569-1.74A4.4,4.4,0,0,1,24.7-9.686a3.947,3.947,0,0,1,3.072,1.23A5,5,0,0,1,28.89-4.966v1.037H22.834a2.36,2.36,0,0,0,.743,1.494,2.245,2.245,0,0,0,1.569.563,2.742,2.742,0,0,0,2.294-1.063l1.248,1.4A3.813,3.813,0,0,1,27.141-.277,5.075,5.075,0,0,1,24.979.176Zm-.29-7.8a1.591,1.591,0,0,0-1.226.51,2.634,2.634,0,0,0-.6,1.459h3.533v-.2a1.878,1.878,0,0,0-.457-1.305A1.642,1.642,0,0,0,24.688-7.629Zm7.98-1.881.079,1.1a3.32,3.32,0,0,1,2.733-1.274,2.759,2.759,0,0,1,2.25.888,4.142,4.142,0,0,1,.756,2.654V0h-2.54V-6.082A1.648,1.648,0,0,0,35.6-7.255a1.574,1.574,0,0,0-1.169-.365,1.747,1.747,0,0,0-1.608.914V0h-2.54V-9.51ZM-28.419,24h-2.549V10.5h2.549Zm7.6,0a2.821,2.821,0,0,1-.255-.853,3.073,3.073,0,0,1-2.4,1.028,3.376,3.376,0,0,1-2.316-.809,2.6,2.6,0,0,1-.918-2.039,2.687,2.687,0,0,1,1.121-2.32,5.529,5.529,0,0,1,3.239-.817h1.169v-.545a1.567,1.567,0,0,0-.338-1.055,1.331,1.331,0,0,0-1.068-.4,1.513,1.513,0,0,0-1.006.308,1.045,1.045,0,0,0-.365.844h-2.54a2.551,2.551,0,0,1,.51-1.529,3.37,3.37,0,0,1,1.441-1.1,5.253,5.253,0,0,1,2.092-.4,4.15,4.15,0,0,1,2.791.883,3.09,3.09,0,0,1,1.033,2.483V21.8a4.546,4.546,0,0,0,.378,2.048V24Zm-2.1-1.767a2.188,2.188,0,0,0,1.037-.25,1.645,1.645,0,0,0,.7-.672V19.676h-.949q-1.907,0-2.03,1.318l-.009.149a1.017,1.017,0,0,0,.334.782A1.3,1.3,0,0,0-22.917,22.233ZM-9.857,14.49l.079,1.1a3.32,3.32,0,0,1,2.733-1.274,2.759,2.759,0,0,1,2.25.888,4.142,4.142,0,0,1,.756,2.654V24h-2.54V17.918a1.648,1.648,0,0,0-.352-1.173A1.574,1.574,0,0,0-8.1,16.38a1.747,1.747,0,0,0-1.608.914V24h-2.54V14.49ZM3.582,23.033a3.185,3.185,0,0,1-2.6,1.143A3,3,0,0,1-1.354,23.3a3.752,3.752,0,0,1-.822-2.575V14.49H.365v6.144q0,1.485,1.354,1.485a1.835,1.835,0,0,0,1.775-.9V14.49H6.042V24H3.652Zm12.946-3.7a5.758,5.758,0,0,1-.976,3.564,3.231,3.231,0,0,1-2.725,1.279,2.969,2.969,0,0,1-2.47-1.187L10.244,24H7.958V10.5H10.5v4.843a2.893,2.893,0,0,1,2.312-1.028,3.258,3.258,0,0,1,2.729,1.279,5.767,5.767,0,0,1,.989,3.6Zm-2.54-.185a3.783,3.783,0,0,0-.457-2.1,1.545,1.545,0,0,0-1.362-.664,1.676,1.676,0,0,0-1.67.993v3.753a1.7,1.7,0,0,0,1.688,1A1.568,1.568,0,0,0,13.8,20.915,6.257,6.257,0,0,0,13.988,19.148Zm8.481,5.027a4.668,4.668,0,0,1-3.406-1.283,4.561,4.561,0,0,1-1.314-3.419v-.246a5.745,5.745,0,0,1,.554-2.562,4.064,4.064,0,0,1,1.569-1.74,4.4,4.4,0,0,1,2.316-.611,3.947,3.947,0,0,1,3.072,1.23,5,5,0,0,1,1.121,3.489v1.037H20.325a2.36,2.36,0,0,0,.743,1.494,2.245,2.245,0,0,0,1.569.563,2.742,2.742,0,0,0,2.294-1.063l1.248,1.4a3.813,3.813,0,0,1-1.547,1.261A5.075,5.075,0,0,1,22.469,24.176Zm-.29-7.8a1.591,1.591,0,0,0-1.226.51,2.634,2.634,0,0,0-.6,1.459h3.533v-.2a1.878,1.878,0,0,0-.457-1.305A1.642,1.642,0,0,0,22.179,16.371Zm5.774,6.381a1.279,1.279,0,0,1,.409-.984,1.588,1.588,0,0,1,2.057,0,1.279,1.279,0,0,1,.409.984,1.261,1.261,0,0,1-.4.971,1.614,1.614,0,0,1-2.065,0A1.261,1.261,0,0,1,27.954,22.752Z" transform="translate(524.36 1850.433)" fill="#12263f"/><path d="M13.752,14.737a4.528,4.528,0,0,1-1.525,3.252A5.355,5.355,0,0,1,8.6,19.176,4.816,4.816,0,0,1,4.73,17.519a6.793,6.793,0,0,1-1.411-4.548v-.782a7.671,7.671,0,0,1,.65-3.252A4.874,4.874,0,0,1,5.829,6.779a5.207,5.207,0,0,1,2.808-.751,5.217,5.217,0,0,1,3.568,1.187,4.866,4.866,0,0,1,1.564,3.331H11.133a2.673,2.673,0,0,0-.69-1.8,2.555,2.555,0,0,0-1.806-.558,2.24,2.24,0,0,0-1.973.945,5.3,5.3,0,0,0-.672,2.931v.967a5.667,5.667,0,0,0,.628,3.032,2.2,2.2,0,0,0,1.982.958,2.6,2.6,0,0,0,1.824-.558,2.521,2.521,0,0,0,.69-1.727ZM20.827,19a2.821,2.821,0,0,1-.255-.853,3.073,3.073,0,0,1-2.4,1.028,3.376,3.376,0,0,1-2.316-.809,2.6,2.6,0,0,1-.918-2.039,2.687,2.687,0,0,1,1.121-2.32A5.529,5.529,0,0,1,19.3,13.19h1.169v-.545a1.567,1.567,0,0,0-.338-1.055,1.331,1.331,0,0,0-1.068-.4,1.513,1.513,0,0,0-1.006.308,1.045,1.045,0,0,0-.365.844H15.15a2.551,2.551,0,0,1,.51-1.529,3.37,3.37,0,0,1,1.441-1.1,5.253,5.253,0,0,1,2.092-.4,4.15,4.15,0,0,1,2.791.883,3.09,3.09,0,0,1,1.033,2.483V16.8a4.546,4.546,0,0,0,.378,2.048V19Zm-2.1-1.767a2.188,2.188,0,0,0,1.037-.25,1.645,1.645,0,0,0,.7-.672V14.676h-.949q-1.907,0-2.03,1.318l-.009.149a1.017,1.017,0,0,0,.334.782A1.3,1.3,0,0,0,18.727,17.233Zm11.584-5.361a6.9,6.9,0,0,0-.914-.07,1.86,1.86,0,0,0-1.89.976V19h-2.54V9.49h2.4l.07,1.134a2.354,2.354,0,0,1,2.118-1.31,2.662,2.662,0,0,1,.791.114Zm9.782,2.461a5.7,5.7,0,0,1-1,3.52A3.2,3.2,0,0,1,36.4,19.176a2.963,2.963,0,0,1-2.329-1v4.482h-2.54V9.49h2.355l.088.932a2.985,2.985,0,0,1,2.408-1.107,3.22,3.22,0,0,1,2.733,1.3,5.858,5.858,0,0,1,.976,3.586Zm-2.54-.185a3.743,3.743,0,0,0-.47-2.048,1.532,1.532,0,0,0-1.367-.721,1.663,1.663,0,0,0-1.644.914v3.894a1.692,1.692,0,0,0,1.661.94Q37.553,17.128,37.553,14.148Zm8.49,5.027a4.668,4.668,0,0,1-3.406-1.283,4.561,4.561,0,0,1-1.314-3.419v-.246a5.745,5.745,0,0,1,.554-2.562,4.064,4.064,0,0,1,1.569-1.74,4.4,4.4,0,0,1,2.316-.611,3.947,3.947,0,0,1,3.072,1.23,5,5,0,0,1,1.121,3.489v1.037H43.9a2.36,2.36,0,0,0,.743,1.494,2.245,2.245,0,0,0,1.569.563A2.742,2.742,0,0,0,48.5,16.064l1.248,1.4a3.813,3.813,0,0,1-1.547,1.261A5.075,5.075,0,0,1,46.043,19.176Zm-.29-7.8a1.591,1.591,0,0,0-1.226.51,2.634,2.634,0,0,0-.6,1.459h3.533v-.2A1.878,1.878,0,0,0,47,11.833,1.642,1.642,0,0,0,45.753,11.371Zm8.684-4.219V9.49h1.626v1.863H54.437V16.1a1.133,1.133,0,0,0,.2.756,1.015,1.015,0,0,0,.773.229,4.051,4.051,0,0,0,.747-.062v1.925a5.229,5.229,0,0,1-1.538.229,2.425,2.425,0,0,1-2.725-2.7V11.354H50.508V9.49H51.9V7.152ZM62.988,19a2.821,2.821,0,0,1-.255-.853,3.073,3.073,0,0,1-2.4,1.028,3.376,3.376,0,0,1-2.316-.809,2.6,2.6,0,0,1-.918-2.039,2.687,2.687,0,0,1,1.121-2.32,5.529,5.529,0,0,1,3.239-.817h1.169v-.545a1.567,1.567,0,0,0-.338-1.055,1.331,1.331,0,0,0-1.068-.4,1.513,1.513,0,0,0-1.006.308,1.045,1.045,0,0,0-.365.844h-2.54a2.551,2.551,0,0,1,.51-1.529,3.37,3.37,0,0,1,1.441-1.1,5.253,5.253,0,0,1,2.092-.4,4.15,4.15,0,0,1,2.791.883,3.09,3.09,0,0,1,1.033,2.483V16.8a4.546,4.546,0,0,0,.378,2.048V19Zm-2.1-1.767a2.188,2.188,0,0,0,1.037-.25,1.645,1.645,0,0,0,.7-.672V14.676h-.949q-1.907,0-2.03,1.318l-.009.149a1.017,1.017,0,0,0,.334.782A1.3,1.3,0,0,0,60.888,17.233Zm11.391-.861a.818.818,0,0,0-.461-.734,5.241,5.241,0,0,0-1.481-.479q-3.393-.712-3.393-2.883a2.613,2.613,0,0,1,1.05-2.114,4.237,4.237,0,0,1,2.747-.848,4.56,4.56,0,0,1,2.9.853,2.687,2.687,0,0,1,1.085,2.215h-2.54a1.229,1.229,0,0,0-.352-.9,1.488,1.488,0,0,0-1.1-.356,1.52,1.52,0,0,0-.993.29.916.916,0,0,0-.352.738.783.783,0,0,0,.4.681,4.114,4.114,0,0,0,1.349.448,11.019,11.019,0,0,1,1.6.426,2.628,2.628,0,0,1,2.013,2.558,2.481,2.481,0,0,1-1.116,2.1,4.815,4.815,0,0,1-2.883.8,5.029,5.029,0,0,1-2.123-.426,3.561,3.561,0,0,1-1.455-1.169,2.716,2.716,0,0,1-.527-1.6h2.408a1.326,1.326,0,0,0,.5,1.037,1.987,1.987,0,0,0,1.248.36,1.839,1.839,0,0,0,1.1-.277A.861.861,0,0,0,72.278,16.372Zm12.542.756a1.666,1.666,0,0,0,1.143-.387,1.355,1.355,0,0,0,.457-1.028H88.8a3.258,3.258,0,0,1-.527,1.771,3.48,3.48,0,0,1-1.419,1.248,4.442,4.442,0,0,1-1.991.444,4.129,4.129,0,0,1-3.217-1.3A5.13,5.13,0,0,1,80.47,14.3v-.167a5.071,5.071,0,0,1,1.169-3.507,4.08,4.08,0,0,1,3.208-1.31,4,4,0,0,1,2.861,1.015,3.594,3.594,0,0,1,1.094,2.7H86.42a1.731,1.731,0,0,0-.457-1.2,1.7,1.7,0,0,0-2.5.185,3.739,3.739,0,0,0-.453,2.1v.264a3.786,3.786,0,0,0,.448,2.109A1.55,1.55,0,0,0,84.82,17.128Zm5.036-2.971a5.64,5.64,0,0,1,.545-2.522A3.989,3.989,0,0,1,91.97,9.921a4.577,4.577,0,0,1,2.377-.606,4.33,4.33,0,0,1,3.142,1.178,4.727,4.727,0,0,1,1.358,3.2l.018.65a4.97,4.97,0,0,1-1.222,3.511,4.735,4.735,0,0,1-6.561,0,5.058,5.058,0,0,1-1.226-3.586Zm2.54.185a3.545,3.545,0,0,0,.51,2.07,1.833,1.833,0,0,0,2.9.009,3.879,3.879,0,0,0,.519-2.263,3.51,3.51,0,0,0-.519-2.057,1.686,1.686,0,0,0-1.459-.729,1.659,1.659,0,0,0-1.441.725A3.944,3.944,0,0,0,92.4,14.342ZM102.768,9.49l.079,1.1a3.32,3.32,0,0,1,2.733-1.274,2.759,2.759,0,0,1,2.25.888,4.142,4.142,0,0,1,.756,2.654V19h-2.54V12.918a1.648,1.648,0,0,0-.352-1.173,1.574,1.574,0,0,0-1.169-.365,1.747,1.747,0,0,0-1.608.914V19h-2.54V9.49ZM8.54,41.128a1.666,1.666,0,0,0,1.143-.387,1.355,1.355,0,0,0,.457-1.028h2.382a3.258,3.258,0,0,1-.527,1.771,3.48,3.48,0,0,1-1.419,1.248,4.442,4.442,0,0,1-1.991.444,4.129,4.129,0,0,1-3.217-1.3A5.13,5.13,0,0,1,4.19,38.3v-.167a5.071,5.071,0,0,1,1.169-3.507,4.08,4.08,0,0,1,3.208-1.31,4,4,0,0,1,2.861,1.015,3.594,3.594,0,0,1,1.094,2.7H10.14a1.731,1.731,0,0,0-.457-1.2,1.528,1.528,0,0,0-1.16-.461,1.531,1.531,0,0,0-1.34.646,3.739,3.739,0,0,0-.453,2.1v.264a3.786,3.786,0,0,0,.448,2.109A1.55,1.55,0,0,0,8.54,41.128Zm5.036-2.971a5.64,5.64,0,0,1,.545-2.522,3.989,3.989,0,0,1,1.569-1.714,4.577,4.577,0,0,1,2.377-.606,4.33,4.33,0,0,1,3.142,1.178,4.727,4.727,0,0,1,1.358,3.2l.018.65a4.97,4.97,0,0,1-1.222,3.511,4.247,4.247,0,0,1-3.278,1.323A4.268,4.268,0,0,1,14.8,41.857a5.058,5.058,0,0,1-1.226-3.586Zm2.54.185a3.545,3.545,0,0,0,.51,2.07,1.833,1.833,0,0,0,2.9.009,3.879,3.879,0,0,0,.519-2.263,3.51,3.51,0,0,0-.519-2.057,1.686,1.686,0,0,0-1.459-.729,1.659,1.659,0,0,0-1.441.725A3.944,3.944,0,0,0,16.116,38.342ZM26.487,33.49l.079,1.1A3.32,3.32,0,0,1,29.3,33.314a2.759,2.759,0,0,1,2.25.888,4.142,4.142,0,0,1,.756,2.654V43h-2.54V36.918a1.648,1.648,0,0,0-.352-1.173,1.574,1.574,0,0,0-1.169-.365,1.747,1.747,0,0,0-1.608.914V43H24.1V33.49Zm10.784-2.338V33.49H38.9v1.863H37.272V40.1a1.133,1.133,0,0,0,.2.756,1.015,1.015,0,0,0,.773.229,4.051,4.051,0,0,0,.747-.062v1.925a5.229,5.229,0,0,1-1.538.229,2.425,2.425,0,0,1-2.725-2.7V35.354H33.343V33.49h1.389V31.152Zm8.385,4.72a6.9,6.9,0,0,0-.914-.07,1.86,1.86,0,0,0-1.89.976V43h-2.54V33.49h2.4l.07,1.134a2.354,2.354,0,0,1,2.118-1.31,2.662,2.662,0,0,1,.791.114ZM52.125,43a2.821,2.821,0,0,1-.255-.853,3.073,3.073,0,0,1-2.4,1.028,3.376,3.376,0,0,1-2.316-.809,2.6,2.6,0,0,1-.918-2.039,2.687,2.687,0,0,1,1.121-2.32A5.529,5.529,0,0,1,50.6,37.19h1.169v-.545a1.567,1.567,0,0,0-.338-1.055,1.331,1.331,0,0,0-1.068-.4,1.513,1.513,0,0,0-1.006.308,1.045,1.045,0,0,0-.365.844h-2.54a2.551,2.551,0,0,1,.51-1.529,3.37,3.37,0,0,1,1.441-1.1,5.253,5.253,0,0,1,2.092-.4,4.15,4.15,0,0,1,2.791.883,3.09,3.09,0,0,1,1.033,2.483V40.8a4.546,4.546,0,0,0,.378,2.048V43Zm-2.1-1.767a2.188,2.188,0,0,0,1.037-.25,1.645,1.645,0,0,0,.7-.672V38.676h-.949q-1.907,0-2.03,1.318l-.009.149a1.017,1.017,0,0,0,.334.782A1.3,1.3,0,0,0,50.025,41.233Zm11.391-.861a.818.818,0,0,0-.461-.734,5.241,5.241,0,0,0-1.481-.479q-3.393-.712-3.393-2.883a2.613,2.613,0,0,1,1.05-2.114,4.237,4.237,0,0,1,2.747-.848,4.56,4.56,0,0,1,2.9.853,2.687,2.687,0,0,1,1.085,2.215h-2.54a1.229,1.229,0,0,0-.352-.9,1.488,1.488,0,0,0-1.1-.356,1.52,1.52,0,0,0-.993.29.916.916,0,0,0-.352.738.783.783,0,0,0,.4.681,4.114,4.114,0,0,0,1.349.448,11.019,11.019,0,0,1,1.6.426,2.628,2.628,0,0,1,2.013,2.558,2.481,2.481,0,0,1-1.116,2.1,4.815,4.815,0,0,1-2.883.8,5.029,5.029,0,0,1-2.123-.426,3.561,3.561,0,0,1-1.455-1.169,2.716,2.716,0,0,1-.527-1.6H58.19a1.326,1.326,0,0,0,.5,1.037,1.987,1.987,0,0,0,1.248.36,1.839,1.839,0,0,0,1.1-.277A.861.861,0,0,0,61.415,40.372Zm8.481,2.8a4.668,4.668,0,0,1-3.406-1.283,4.561,4.561,0,0,1-1.314-3.419v-.246a5.745,5.745,0,0,1,.554-2.562,4.064,4.064,0,0,1,1.569-1.74,4.4,4.4,0,0,1,2.316-.611,3.947,3.947,0,0,1,3.072,1.23,5,5,0,0,1,1.121,3.489v1.037H67.752a2.36,2.36,0,0,0,.743,1.494,2.245,2.245,0,0,0,1.569.563,2.742,2.742,0,0,0,2.294-1.063l1.248,1.4a3.813,3.813,0,0,1-1.547,1.261A5.075,5.075,0,0,1,69.9,43.176Zm-.29-7.8a1.591,1.591,0,0,0-1.226.51,2.634,2.634,0,0,0-.6,1.459h3.533v-.2a1.878,1.878,0,0,0-.457-1.305A1.642,1.642,0,0,0,69.607,35.371Zm7.98-1.881.079,1.1A3.32,3.32,0,0,1,80.4,33.314a2.759,2.759,0,0,1,2.25.888,4.142,4.142,0,0,1,.756,2.654V43h-2.54V36.918a1.648,1.648,0,0,0-.352-1.173,1.574,1.574,0,0,0-1.169-.365,1.747,1.747,0,0,0-1.608.914V43H75.2V33.49Zm5.045-3.876a2.46,2.46,0,0,1-.58,1.666,1.8,1.8,0,0,1-1.415.672,2.146,2.146,0,0,1-.593-.075,3.981,3.981,0,0,1-.716-.321,3.864,3.864,0,0,0-.659-.3,1.611,1.611,0,0,0-.439-.057.7.7,0,0,0-.523.22.854.854,0,0,0-.215.624l-1.477-.088a2.5,2.5,0,0,1,.576-1.661A1.776,1.776,0,0,1,78,29.605a1.816,1.816,0,0,1,.5.066,5.468,5.468,0,0,1,.76.321,4.941,4.941,0,0,0,.729.308,1.665,1.665,0,0,0,.422.053.741.741,0,0,0,.532-.215.819.819,0,0,0,.224-.62ZM90.841,43a2.821,2.821,0,0,1-.255-.853,3.073,3.073,0,0,1-2.4,1.028,3.376,3.376,0,0,1-2.316-.809,2.6,2.6,0,0,1-.918-2.039,2.687,2.687,0,0,1,1.121-2.32,5.529,5.529,0,0,1,3.239-.817h1.169v-.545a1.567,1.567,0,0,0-.338-1.055,1.331,1.331,0,0,0-1.068-.4,1.513,1.513,0,0,0-1.006.308,1.045,1.045,0,0,0-.365.844h-2.54a2.551,2.551,0,0,1,.51-1.529,3.37,3.37,0,0,1,1.441-1.1,5.253,5.253,0,0,1,2.092-.4A4.15,4.15,0,0,1,92,34.2a3.09,3.09,0,0,1,1.033,2.483V40.8a4.546,4.546,0,0,0,.378,2.048V43Zm-2.1-1.767a2.188,2.188,0,0,0,1.037-.25,1.645,1.645,0,0,0,.7-.672V38.676h-.949q-1.907,0-2.03,1.318l-.009.149a1.017,1.017,0,0,0,.334.782A1.3,1.3,0,0,0,88.74,41.233Zm11.391-.861a.818.818,0,0,0-.461-.734,5.241,5.241,0,0,0-1.481-.479Q94.8,38.447,94.8,36.276a2.613,2.613,0,0,1,1.05-2.114,4.237,4.237,0,0,1,2.747-.848,4.56,4.56,0,0,1,2.9.853,2.687,2.687,0,0,1,1.085,2.215h-2.54a1.229,1.229,0,0,0-.352-.9,1.488,1.488,0,0,0-1.1-.356,1.52,1.52,0,0,0-.993.29.916.916,0,0,0-.352.738.783.783,0,0,0,.4.681,4.114,4.114,0,0,0,1.349.448,11.019,11.019,0,0,1,1.6.426,2.628,2.628,0,0,1,2.013,2.558,2.481,2.481,0,0,1-1.116,2.1,4.815,4.815,0,0,1-2.883.8,5.029,5.029,0,0,1-2.123-.426,3.561,3.561,0,0,1-1.455-1.169,2.716,2.716,0,0,1-.527-1.6h2.408a1.326,1.326,0,0,0,.5,1.037,1.987,1.987,0,0,0,1.248.36,1.839,1.839,0,0,0,1.1-.277A.861.861,0,0,0,100.131,40.372Zm4.236,1.38a1.279,1.279,0,0,1,.409-.984,1.588,1.588,0,0,1,2.057,0,1.279,1.279,0,0,1,.409.984,1.261,1.261,0,0,1-.4.971,1.614,1.614,0,0,1-2.065,0A1.261,1.261,0,0,1,104.367,41.752Z" transform="translate(980.308 2028.434)" fill="#12263f"/><path d="M-26.486-4.263a4.528,4.528,0,0,1-1.525,3.252A5.355,5.355,0,0,1-31.636.176a4.816,4.816,0,0,1-3.872-1.657,6.793,6.793,0,0,1-1.411-4.548v-.782a7.671,7.671,0,0,1,.65-3.252,4.874,4.874,0,0,1,1.859-2.158,5.207,5.207,0,0,1,2.808-.751,5.217,5.217,0,0,1,3.568,1.187,4.866,4.866,0,0,1,1.564,3.331H-29.1a2.673,2.673,0,0,0-.69-1.8,2.555,2.555,0,0,0-1.806-.558,2.24,2.24,0,0,0-1.973.945,5.3,5.3,0,0,0-.672,2.931v.967a5.667,5.667,0,0,0,.628,3.032,2.2,2.2,0,0,0,1.982.958,2.6,2.6,0,0,0,1.824-.558,2.521,2.521,0,0,0,.69-1.727Zm1.169-.58a5.64,5.64,0,0,1,.545-2.522A3.989,3.989,0,0,1-23.2-9.079a4.577,4.577,0,0,1,2.377-.606,4.33,4.33,0,0,1,3.142,1.178,4.727,4.727,0,0,1,1.358,3.2l.018.65A4.97,4.97,0,0,1-17.53-1.147,4.247,4.247,0,0,1-20.808.176a4.268,4.268,0,0,1-3.283-1.318,5.058,5.058,0,0,1-1.226-3.586Zm2.54.185a3.545,3.545,0,0,0,.51,2.07,1.682,1.682,0,0,0,1.459.716,1.686,1.686,0,0,0,1.441-.708,3.879,3.879,0,0,0,.519-2.263A3.51,3.51,0,0,0-19.367-6.9a1.686,1.686,0,0,0-1.459-.729,1.659,1.659,0,0,0-1.441.725A3.944,3.944,0,0,0-22.777-4.658Zm16.594-.009a5.7,5.7,0,0,1-1,3.52A3.2,3.2,0,0,1-9.875.176a2.963,2.963,0,0,1-2.329-1V3.656h-2.54V-9.51h2.355l.088.932A2.985,2.985,0,0,1-9.892-9.686a3.22,3.22,0,0,1,2.733,1.3A5.858,5.858,0,0,1-6.183-4.8Zm-2.54-.185A3.743,3.743,0,0,0-9.193-6.9,1.532,1.532,0,0,0-10.56-7.62a1.663,1.663,0,0,0-1.644.914v3.894a1.692,1.692,0,0,0,1.661.94Q-8.723-1.872-8.723-4.852ZM-1.929,0H-4.478V-9.51h2.549Zm-2.7-11.971a1.251,1.251,0,0,1,.382-.94A1.436,1.436,0,0,1-3.2-13.28a1.44,1.44,0,0,1,1.037.369,1.244,1.244,0,0,1,.387.94,1.247,1.247,0,0,1-.391.949,1.443,1.443,0,0,1-1.033.369,1.443,1.443,0,0,1-1.033-.369A1.247,1.247,0,0,1-4.627-11.971ZM5.673,0a2.821,2.821,0,0,1-.255-.853A3.073,3.073,0,0,1,3.019.176,3.376,3.376,0,0,1,.7-.633,2.6,2.6,0,0,1-.215-2.672,2.687,2.687,0,0,1,.905-4.992,5.529,5.529,0,0,1,4.144-5.81H5.313v-.545a1.567,1.567,0,0,0-.338-1.055,1.331,1.331,0,0,0-1.068-.4A1.513,1.513,0,0,0,2.9-7.5a1.045,1.045,0,0,0-.365.844H0a2.551,2.551,0,0,1,.51-1.529,3.37,3.37,0,0,1,1.441-1.1,5.253,5.253,0,0,1,2.092-.4A4.15,4.15,0,0,1,6.829-8.8,3.09,3.09,0,0,1,7.862-6.319V-2.2A4.546,4.546,0,0,0,8.24-.149V0Zm-2.1-1.767a2.188,2.188,0,0,0,1.037-.25,1.645,1.645,0,0,0,.7-.672V-4.324H4.364q-1.907,0-2.03,1.318l-.009.149a1.017,1.017,0,0,0,.334.782A1.3,1.3,0,0,0,3.573-1.767ZM13.9-4.825a5.731,5.731,0,0,1,1-3.542,3.237,3.237,0,0,1,2.729-1.318A2.913,2.913,0,0,1,19.92-8.648V-13.5h2.549V0H20.175l-.123-1.011A2.989,2.989,0,0,1,17.609.176a3.228,3.228,0,0,1-2.694-1.323A5.916,5.916,0,0,1,13.9-4.825Zm2.54.185a3.744,3.744,0,0,0,.466,2.048,1.518,1.518,0,0,0,1.354.712,1.7,1.7,0,0,0,1.661-.993V-6.627a1.676,1.676,0,0,0-1.644-.993Q16.44-7.62,16.44-4.641ZM28.815.176a4.668,4.668,0,0,1-3.406-1.283A4.561,4.561,0,0,1,24.1-4.526v-.246a5.745,5.745,0,0,1,.554-2.562,4.064,4.064,0,0,1,1.569-1.74,4.4,4.4,0,0,1,2.316-.611,3.947,3.947,0,0,1,3.072,1.23,5,5,0,0,1,1.121,3.489v1.037H26.67a2.36,2.36,0,0,0,.743,1.494,2.245,2.245,0,0,0,1.569.563,2.742,2.742,0,0,0,2.294-1.063l1.248,1.4A3.813,3.813,0,0,1,30.977-.277,5.075,5.075,0,0,1,28.815.176Zm-.29-7.8a1.591,1.591,0,0,0-1.226.51,2.634,2.634,0,0,0-.6,1.459H30.23v-.2a1.878,1.878,0,0,0-.457-1.305A1.642,1.642,0,0,0,28.525-7.629Zm-65.316,29a.818.818,0,0,0-.461-.734,5.241,5.241,0,0,0-1.481-.479q-3.393-.712-3.393-2.883a2.613,2.613,0,0,1,1.05-2.114,4.237,4.237,0,0,1,2.747-.848,4.56,4.56,0,0,1,2.9.853,2.687,2.687,0,0,1,1.085,2.215h-2.54a1.229,1.229,0,0,0-.352-.9,1.488,1.488,0,0,0-1.1-.356,1.52,1.52,0,0,0-.993.29.916.916,0,0,0-.352.738.783.783,0,0,0,.4.681,4.114,4.114,0,0,0,1.349.448,11.019,11.019,0,0,1,1.6.426,2.628,2.628,0,0,1,2.013,2.558,2.481,2.481,0,0,1-1.116,2.1,4.815,4.815,0,0,1-2.883.8,5.029,5.029,0,0,1-2.123-.426A3.561,3.561,0,0,1-41.9,22.581a2.716,2.716,0,0,1-.527-1.6h2.408a1.326,1.326,0,0,0,.5,1.037,1.987,1.987,0,0,0,1.248.36,1.839,1.839,0,0,0,1.1-.277A.861.861,0,0,0-36.791,21.372Zm8.481,2.8a4.668,4.668,0,0,1-3.406-1.283,4.561,4.561,0,0,1-1.314-3.419v-.246a5.745,5.745,0,0,1,.554-2.562,4.064,4.064,0,0,1,1.569-1.74,4.4,4.4,0,0,1,2.316-.611,3.947,3.947,0,0,1,3.072,1.23A5,5,0,0,1-24.4,19.034v1.037h-6.056a2.36,2.36,0,0,0,.743,1.494,2.245,2.245,0,0,0,1.569.563,2.742,2.742,0,0,0,2.294-1.063l1.248,1.4a3.813,3.813,0,0,1-1.547,1.261A5.075,5.075,0,0,1-28.31,24.176Zm-.29-7.8a1.591,1.591,0,0,0-1.226.51,2.634,2.634,0,0,0-.6,1.459h3.533v-.2a1.878,1.878,0,0,0-.457-1.305A1.642,1.642,0,0,0-28.6,16.371Zm5.273,2.8a5.573,5.573,0,0,1,1.042-3.524,3.375,3.375,0,0,1,2.808-1.336,2.96,2.96,0,0,1,2.435,1.072l.105-.9h2.3v9.193a4.064,4.064,0,0,1-.567,2.171,3.641,3.641,0,0,1-1.6,1.406,5.608,5.608,0,0,1-2.408.483,5.215,5.215,0,0,1-2.039-.417,3.619,3.619,0,0,1-1.5-1.077l1.125-1.547a2.975,2.975,0,0,0,2.3,1.063,2.178,2.178,0,0,0,1.573-.541,2.027,2.027,0,0,0,.563-1.534v-.51a2.938,2.938,0,0,1-2.312.993,3.366,3.366,0,0,1-2.773-1.34,5.572,5.572,0,0,1-1.059-3.555Zm2.54.185a3.461,3.461,0,0,0,.519,2.026,1.65,1.65,0,0,0,1.424.734,1.764,1.764,0,0,0,1.661-.87v-4a1.76,1.76,0,0,0-1.644-.87,1.661,1.661,0,0,0-1.437.747A3.9,3.9,0,0,0-20.786,19.359Zm13.8,3.674a3.185,3.185,0,0,1-2.6,1.143,3,3,0,0,1-2.333-.879,3.752,3.752,0,0,1-.822-2.575V14.49h2.54v6.144q0,1.485,1.354,1.485a1.835,1.835,0,0,0,1.775-.9V14.49h2.549V24H-6.917Zm9.721-6.161a6.9,6.9,0,0,0-.914-.07,1.86,1.86,0,0,0-1.89.976V24H-2.61V14.49h2.4l.07,1.134a2.354,2.354,0,0,1,2.118-1.31,2.662,2.662,0,0,1,.791.114ZM6.636,24H4.087V14.49H6.636Zm-2.7-11.971a1.251,1.251,0,0,1,.382-.94,1.436,1.436,0,0,1,1.042-.369,1.44,1.44,0,0,1,1.037.369,1.342,1.342,0,0,1,0,1.89,1.443,1.443,0,0,1-1.033.369,1.443,1.443,0,0,1-1.033-.369A1.247,1.247,0,0,1,3.938,12.029Zm4.395,7.146a5.731,5.731,0,0,1,1-3.542,3.237,3.237,0,0,1,2.729-1.318,2.913,2.913,0,0,1,2.294,1.037V10.5H16.9V24H14.607l-.123-1.011a2.989,2.989,0,0,1-2.443,1.187,3.228,3.228,0,0,1-2.694-1.323A5.916,5.916,0,0,1,8.332,19.175Zm2.54.185a3.744,3.744,0,0,0,.466,2.048,1.518,1.518,0,0,0,1.354.712,1.7,1.7,0,0,0,1.661-.993V17.373a1.676,1.676,0,0,0-1.644-.993Q10.872,16.38,10.872,19.359ZM24.381,24a2.821,2.821,0,0,1-.255-.853,3.073,3.073,0,0,1-2.4,1.028,3.376,3.376,0,0,1-2.316-.809,2.6,2.6,0,0,1-.918-2.039,2.687,2.687,0,0,1,1.121-2.32,5.529,5.529,0,0,1,3.239-.817h1.169v-.545a1.567,1.567,0,0,0-.338-1.055,1.331,1.331,0,0,0-1.068-.4,1.513,1.513,0,0,0-1.006.308,1.045,1.045,0,0,0-.365.844H18.7a2.551,2.551,0,0,1,.51-1.529,3.37,3.37,0,0,1,1.441-1.1,5.253,5.253,0,0,1,2.092-.4,4.15,4.15,0,0,1,2.791.883,3.09,3.09,0,0,1,1.033,2.483V21.8a4.546,4.546,0,0,0,.378,2.048V24Zm-2.1-1.767a2.188,2.188,0,0,0,1.037-.25,1.645,1.645,0,0,0,.7-.672V19.676h-.949q-1.907,0-2.03,1.318l-.009.149a1.017,1.017,0,0,0,.334.782A1.3,1.3,0,0,0,22.28,22.233Zm5.845-3.059a5.731,5.731,0,0,1,1-3.542,3.237,3.237,0,0,1,2.729-1.318,2.913,2.913,0,0,1,2.294,1.037V10.5h2.549V24H34.4l-.123-1.011a2.989,2.989,0,0,1-2.443,1.187,3.228,3.228,0,0,1-2.694-1.323A5.916,5.916,0,0,1,28.125,19.175Zm2.54.185a3.744,3.744,0,0,0,.466,2.048,1.518,1.518,0,0,0,1.354.712,1.7,1.7,0,0,0,1.661-.993V17.373A1.676,1.676,0,0,0,32.5,16.38Q30.665,16.38,30.665,19.359Zm8.13,3.393a1.279,1.279,0,0,1,.409-.984,1.588,1.588,0,0,1,2.057,0,1.279,1.279,0,0,1,.409.984,1.261,1.261,0,0,1-.4.971,1.614,1.614,0,0,1-2.065,0A1.261,1.261,0,0,1,38.795,22.752Z" transform="translate(1075 1844.5)" fill="#12263f"/><path d="M18.814,14.737a4.528,4.528,0,0,1-1.525,3.252,5.355,5.355,0,0,1-3.625,1.187,4.816,4.816,0,0,1-3.872-1.657,6.793,6.793,0,0,1-1.411-4.548v-.782a7.671,7.671,0,0,1,.65-3.252,4.874,4.874,0,0,1,1.859-2.158A5.207,5.207,0,0,1,13.7,6.027a5.217,5.217,0,0,1,3.568,1.187,4.866,4.866,0,0,1,1.564,3.331H16.2a2.673,2.673,0,0,0-.69-1.8A2.555,2.555,0,0,0,13.7,8.189a2.24,2.24,0,0,0-1.973.945,5.3,5.3,0,0,0-.672,2.931v.967a5.667,5.667,0,0,0,.628,3.032,2.2,2.2,0,0,0,1.982.958,2.6,2.6,0,0,0,1.824-.558,2.521,2.521,0,0,0,.69-1.727Zm5.941,4.438a4.668,4.668,0,0,1-3.406-1.283,4.561,4.561,0,0,1-1.314-3.419v-.246a5.745,5.745,0,0,1,.554-2.562,4.064,4.064,0,0,1,1.569-1.74,4.4,4.4,0,0,1,2.316-.611,3.947,3.947,0,0,1,3.072,1.23,5,5,0,0,1,1.121,3.489v1.037H22.611a2.36,2.36,0,0,0,.743,1.494,2.245,2.245,0,0,0,1.569.563,2.742,2.742,0,0,0,2.294-1.063l1.248,1.4a3.813,3.813,0,0,1-1.547,1.261A5.075,5.075,0,0,1,24.756,19.176Zm-.29-7.8a1.591,1.591,0,0,0-1.226.51,2.634,2.634,0,0,0-.6,1.459h3.533v-.2a1.878,1.878,0,0,0-.457-1.305A1.642,1.642,0,0,0,24.466,11.371Zm7.98-1.881.079,1.1a3.32,3.32,0,0,1,2.733-1.274,2.759,2.759,0,0,1,2.25.888,4.142,4.142,0,0,1,.756,2.654V19h-2.54V12.918a1.648,1.648,0,0,0-.352-1.173A1.574,1.574,0,0,0,34.2,11.38a1.747,1.747,0,0,0-1.608.914V19h-2.54V9.49ZM43.23,7.152V9.49h1.626v1.863H43.23V16.1a1.133,1.133,0,0,0,.2.756,1.015,1.015,0,0,0,.773.229,4.051,4.051,0,0,0,.747-.062v1.925a5.229,5.229,0,0,1-1.538.229,2.425,2.425,0,0,1-2.725-2.7V11.354H39.3V9.49H40.69V7.152Zm8.385,4.72a6.9,6.9,0,0,0-.914-.07,1.86,1.86,0,0,0-1.89.976V19h-2.54V9.49h2.4l.07,1.134a2.354,2.354,0,0,1,2.118-1.31,2.662,2.662,0,0,1,.791.114ZM58.084,19a2.821,2.821,0,0,1-.255-.853,3.073,3.073,0,0,1-2.4,1.028,3.376,3.376,0,0,1-2.316-.809,2.6,2.6,0,0,1-.918-2.039,2.687,2.687,0,0,1,1.121-2.32,5.529,5.529,0,0,1,3.239-.817h1.169v-.545a1.567,1.567,0,0,0-.338-1.055,1.331,1.331,0,0,0-1.068-.4,1.513,1.513,0,0,0-1.006.308,1.045,1.045,0,0,0-.365.844h-2.54a2.551,2.551,0,0,1,.51-1.529,3.37,3.37,0,0,1,1.441-1.1,5.253,5.253,0,0,1,2.092-.4,4.15,4.15,0,0,1,2.791.883,3.09,3.09,0,0,1,1.033,2.483V16.8a4.546,4.546,0,0,0,.378,2.048V19Zm-2.1-1.767a2.188,2.188,0,0,0,1.037-.25,1.645,1.645,0,0,0,.7-.672V14.676h-.949q-1.907,0-2.03,1.318l-.009.149a1.017,1.017,0,0,0,.334.782A1.3,1.3,0,0,0,55.983,17.233ZM64.9,19H62.355V5.5H64.9Zm4.772,0H67.128V9.49h2.549Zm-2.7-11.971a1.251,1.251,0,0,1,.382-.94,1.648,1.648,0,0,1,2.079,0,1.244,1.244,0,0,1,.387.94,1.247,1.247,0,0,1-.391.949,1.629,1.629,0,0,1-2.065,0A1.247,1.247,0,0,1,66.979,7.029Zm7.708,9.923h4.649V19H71.443V17.453l4.474-5.906H71.575V9.49H79.2v1.5ZM86.438,19a2.821,2.821,0,0,1-.255-.853,3.073,3.073,0,0,1-2.4,1.028,3.376,3.376,0,0,1-2.316-.809,2.6,2.6,0,0,1-.918-2.039,2.687,2.687,0,0,1,1.121-2.32,5.529,5.529,0,0,1,3.239-.817h1.169v-.545a1.567,1.567,0,0,0-.338-1.055,1.331,1.331,0,0,0-1.068-.4,1.513,1.513,0,0,0-1.006.308,1.045,1.045,0,0,0-.365.844H80.76a2.551,2.551,0,0,1,.51-1.529,3.37,3.37,0,0,1,1.441-1.1,5.253,5.253,0,0,1,2.092-.4,4.15,4.15,0,0,1,2.791.883,3.09,3.09,0,0,1,1.033,2.483V16.8A4.546,4.546,0,0,0,89,18.851V19Zm-2.1-1.767a2.188,2.188,0,0,0,1.037-.25,1.645,1.645,0,0,0,.7-.672V14.676h-.949q-1.907,0-2.03,1.318l-.009.149a1.017,1.017,0,0,0,.334.782A1.3,1.3,0,0,0,84.337,17.233Zm10.2-.105a1.666,1.666,0,0,0,1.143-.387,1.355,1.355,0,0,0,.457-1.028h2.382a3.258,3.258,0,0,1-.527,1.771,3.48,3.48,0,0,1-1.419,1.248,4.442,4.442,0,0,1-1.991.444,4.129,4.129,0,0,1-3.217-1.3A5.13,5.13,0,0,1,90.182,14.3v-.167a5.071,5.071,0,0,1,1.169-3.507,4.08,4.08,0,0,1,3.208-1.31,4,4,0,0,1,2.861,1.015,3.594,3.594,0,0,1,1.094,2.7H96.132a1.731,1.731,0,0,0-.457-1.2,1.7,1.7,0,0,0-2.5.185,3.739,3.739,0,0,0-.453,2.1v.264a3.786,3.786,0,0,0,.448,2.109A1.55,1.55,0,0,0,94.532,17.128ZM102.645,19H100.1V9.49h2.549Zm-2.7-11.971a1.251,1.251,0,0,1,.382-.94,1.648,1.648,0,0,1,2.079,0,1.244,1.244,0,0,1,.387.94,1.247,1.247,0,0,1-.391.949,1.629,1.629,0,0,1-2.065,0A1.247,1.247,0,0,1,99.946,7.029Zm4.395,7.128a5.64,5.64,0,0,1,.545-2.522,3.989,3.989,0,0,1,1.569-1.714,4.577,4.577,0,0,1,2.377-.606,4.33,4.33,0,0,1,3.142,1.178,4.727,4.727,0,0,1,1.358,3.2l.018.65a4.97,4.97,0,0,1-1.222,3.511,4.735,4.735,0,0,1-6.561,0,5.058,5.058,0,0,1-1.226-3.586Zm2.54.185a3.545,3.545,0,0,0,.51,2.07,1.833,1.833,0,0,0,2.9.009,3.879,3.879,0,0,0,.519-2.263,3.51,3.51,0,0,0-.519-2.057,1.686,1.686,0,0,0-1.459-.729,1.659,1.659,0,0,0-1.441.725A3.944,3.944,0,0,0,106.881,14.342ZM109.333,5.5H112.1l-2.435,2.725H107.6Zm7.919,3.99.079,1.1a3.32,3.32,0,0,1,2.733-1.274,2.759,2.759,0,0,1,2.25.888,4.142,4.142,0,0,1,.756,2.654V19h-2.54V12.918a1.648,1.648,0,0,0-.352-1.173,1.574,1.574,0,0,0-1.169-.365,1.747,1.747,0,0,0-1.608.914V19h-2.54V9.49Zm11.83,4.685a5.731,5.731,0,0,1,1-3.542,3.237,3.237,0,0,1,2.729-1.318,2.913,2.913,0,0,1,2.294,1.037V5.5h2.549V19h-2.294l-.123-1.011a2.989,2.989,0,0,1-2.443,1.187,3.228,3.228,0,0,1-2.694-1.323A5.916,5.916,0,0,1,129.082,14.175Zm2.54.185a3.744,3.744,0,0,0,.466,2.048,1.518,1.518,0,0,0,1.354.712,1.7,1.7,0,0,0,1.661-.993V12.373a1.676,1.676,0,0,0-1.644-.993Q131.622,11.38,131.622,14.359ZM144,19.176a4.668,4.668,0,0,1-3.406-1.283,4.561,4.561,0,0,1-1.314-3.419v-.246a5.745,5.745,0,0,1,.554-2.562,4.064,4.064,0,0,1,1.569-1.74,4.4,4.4,0,0,1,2.316-.611,3.947,3.947,0,0,1,3.072,1.23,5,5,0,0,1,1.121,3.489v1.037h-6.056a2.36,2.36,0,0,0,.743,1.494,2.245,2.245,0,0,0,1.569.563,2.742,2.742,0,0,0,2.294-1.063l1.248,1.4a3.813,3.813,0,0,1-1.547,1.261A5.075,5.075,0,0,1,144,19.176Zm-.29-7.8a1.591,1.591,0,0,0-1.226.51,2.634,2.634,0,0,0-.6,1.459h3.533v-.2a1.878,1.878,0,0,0-.457-1.305A1.642,1.642,0,0,0,143.707,11.371ZM20.739,43H18.19V29.5h2.549Zm7.6,0a2.821,2.821,0,0,1-.255-.853,3.073,3.073,0,0,1-2.4,1.028,3.376,3.376,0,0,1-2.316-.809,2.6,2.6,0,0,1-.918-2.039,2.687,2.687,0,0,1,1.121-2.32,5.529,5.529,0,0,1,3.239-.817h1.169v-.545a1.567,1.567,0,0,0-.338-1.055,1.331,1.331,0,0,0-1.068-.4,1.513,1.513,0,0,0-1.006.308,1.045,1.045,0,0,0-.365.844h-2.54a2.551,2.551,0,0,1,.51-1.529,3.37,3.37,0,0,1,1.441-1.1,5.253,5.253,0,0,1,2.092-.4A4.15,4.15,0,0,1,29.5,34.2a3.09,3.09,0,0,1,1.033,2.483V40.8a4.546,4.546,0,0,0,.378,2.048V43Zm-2.1-1.767a2.188,2.188,0,0,0,1.037-.25,1.645,1.645,0,0,0,.7-.672V38.676h-.949q-1.907,0-2.03,1.318l-.009.149a1.017,1.017,0,0,0,.334.782A1.3,1.3,0,0,0,26.241,41.233ZM39.645,43H37.1V33.49h2.549Zm-2.7-11.971a1.251,1.251,0,0,1,.382-.94,1.648,1.648,0,0,1,2.079,0,1.342,1.342,0,0,1,0,1.89,1.629,1.629,0,0,1-2.065,0A1.247,1.247,0,0,1,36.946,31.029Zm7.128,2.461.079,1.1a3.32,3.32,0,0,1,2.733-1.274,2.759,2.759,0,0,1,2.25.888,4.142,4.142,0,0,1,.756,2.654V43h-2.54V36.918A1.648,1.648,0,0,0,47,35.745a1.574,1.574,0,0,0-1.169-.365,1.747,1.747,0,0,0-1.608.914V43h-2.54V33.49ZM52.512,43V35.354H51.1V33.49h1.415v-.809A3.283,3.283,0,0,1,53.43,30.2,3.557,3.557,0,0,1,56,29.315a5.938,5.938,0,0,1,1.292.176l-.026,1.969a3.238,3.238,0,0,0-.773-.079q-1.433,0-1.433,1.345v.765h1.89v1.863h-1.89V43Zm5.361-4.843a5.64,5.64,0,0,1,.545-2.522,3.989,3.989,0,0,1,1.569-1.714,4.577,4.577,0,0,1,2.377-.606,4.33,4.33,0,0,1,3.142,1.178,4.727,4.727,0,0,1,1.358,3.2l.018.65a4.97,4.97,0,0,1-1.222,3.511,4.735,4.735,0,0,1-6.561,0,5.058,5.058,0,0,1-1.226-3.586Zm2.54.185a3.545,3.545,0,0,0,.51,2.07,1.833,1.833,0,0,0,2.9.009,3.879,3.879,0,0,0,.519-2.263,3.51,3.51,0,0,0-.519-2.057,1.686,1.686,0,0,0-1.459-.729,1.659,1.659,0,0,0-1.441.725A3.944,3.944,0,0,0,60.413,38.342Zm13.377-2.47a6.9,6.9,0,0,0-.914-.07,1.86,1.86,0,0,0-1.89.976V43h-2.54V33.49h2.4l.07,1.134a2.354,2.354,0,0,1,2.118-1.31,2.662,2.662,0,0,1,.791.114Zm3.6-2.382.079,1.063a3.342,3.342,0,0,1,2.733-1.239,2.536,2.536,0,0,1,2.522,1.45,3.265,3.265,0,0,1,2.856-1.45,2.836,2.836,0,0,1,2.3.9,4.141,4.141,0,0,1,.756,2.711V43H86.095V36.936a1.811,1.811,0,0,0-.316-1.182,1.4,1.4,0,0,0-1.116-.374,1.585,1.585,0,0,0-1.582,1.09L83.089,43h-2.54V36.944a1.789,1.789,0,0,0-.325-1.2,1.416,1.416,0,0,0-1.107-.369,1.646,1.646,0,0,0-1.564.9V43h-2.54V33.49ZM96.105,43a2.821,2.821,0,0,1-.255-.853,3.073,3.073,0,0,1-2.4,1.028,3.376,3.376,0,0,1-2.316-.809,2.6,2.6,0,0,1-.918-2.039,2.687,2.687,0,0,1,1.121-2.32,5.529,5.529,0,0,1,3.239-.817h1.169v-.545a1.567,1.567,0,0,0-.338-1.055,1.331,1.331,0,0,0-1.068-.4,1.513,1.513,0,0,0-1.006.308,1.045,1.045,0,0,0-.365.844h-2.54a2.551,2.551,0,0,1,.51-1.529,3.37,3.37,0,0,1,1.441-1.1,5.253,5.253,0,0,1,2.092-.4,4.15,4.15,0,0,1,2.791.883,3.09,3.09,0,0,1,1.033,2.483V40.8a4.546,4.546,0,0,0,.378,2.048V43ZM94,41.233a2.188,2.188,0,0,0,1.037-.25,1.645,1.645,0,0,0,.7-.672V38.676H94.8q-1.907,0-2.03,1.318l-.009.149a1.017,1.017,0,0,0,.334.782A1.3,1.3,0,0,0,94,41.233Zm10.2-.105a1.666,1.666,0,0,0,1.143-.387,1.355,1.355,0,0,0,.457-1.028h2.382a3.258,3.258,0,0,1-.527,1.771,3.48,3.48,0,0,1-1.419,1.248,4.442,4.442,0,0,1-1.991.444,4.129,4.129,0,0,1-3.217-1.3A5.13,5.13,0,0,1,99.85,38.3v-.167a5.071,5.071,0,0,1,1.169-3.507,4.08,4.08,0,0,1,3.208-1.31,4,4,0,0,1,2.861,1.015,3.594,3.594,0,0,1,1.094,2.7H105.8a1.731,1.731,0,0,0-.457-1.2,1.7,1.7,0,0,0-2.5.185,3.739,3.739,0,0,0-.453,2.1v.264a3.786,3.786,0,0,0,.448,2.109A1.55,1.55,0,0,0,104.2,41.128ZM112.313,43h-2.549V33.49h2.549Zm-2.7-11.971a1.251,1.251,0,0,1,.382-.94,1.648,1.648,0,0,1,2.079,0,1.342,1.342,0,0,1,0,1.89,1.629,1.629,0,0,1-2.065,0A1.247,1.247,0,0,1,109.614,31.029Zm4.395,7.128a5.64,5.64,0,0,1,.545-2.522,3.989,3.989,0,0,1,1.569-1.714,4.577,4.577,0,0,1,2.377-.606,4.33,4.33,0,0,1,3.142,1.178,4.727,4.727,0,0,1,1.358,3.2l.018.65a4.97,4.97,0,0,1-1.222,3.511,4.735,4.735,0,0,1-6.561,0,5.058,5.058,0,0,1-1.226-3.586Zm2.54.185a3.545,3.545,0,0,0,.51,2.07,1.833,1.833,0,0,0,2.9.009,3.879,3.879,0,0,0,.519-2.263,3.51,3.51,0,0,0-.519-2.057,1.686,1.686,0,0,0-1.459-.729,1.659,1.659,0,0,0-1.441.725A3.944,3.944,0,0,0,116.549,38.342ZM119,29.5h2.769l-2.435,2.725H117.27Zm7.919,3.99.079,1.1a3.32,3.32,0,0,1,2.733-1.274,2.759,2.759,0,0,1,2.25.888,4.142,4.142,0,0,1,.756,2.654V43H130.2V36.918a1.648,1.648,0,0,0-.352-1.173,1.574,1.574,0,0,0-1.169-.365,1.747,1.747,0,0,0-1.608.914V43h-2.54V33.49Zm7.875,8.262a1.279,1.279,0,0,1,.409-.984,1.588,1.588,0,0,1,2.057,0,1.279,1.279,0,0,1,.409.984,1.261,1.261,0,0,1-.4.971,1.614,1.614,0,0,1-2.065,0A1.261,1.261,0,0,1,134.795,41.752Z" transform="translate(433.931 2021.934)" fill="#12263f"/><path d="M21.783,5.047l3.254,8.121,3.254-8.121h1.7V15H28.68V11.124L28.8,6.94,25.536,15h-1L21.27,6.961l.13,4.163V15H20.087V5.047Zm13.4,10.09a3.232,3.232,0,0,1-2.447-.988,3.666,3.666,0,0,1-.943-2.642v-.232a4.438,4.438,0,0,1,.42-1.965,3.28,3.28,0,0,1,1.176-1.354,2.956,2.956,0,0,1,1.637-.489,2.77,2.77,0,0,1,2.242.95,4.114,4.114,0,0,1,.8,2.721v.526H33.055a2.629,2.629,0,0,0,.639,1.767,2.009,2.009,0,0,0,1.555.673,2.2,2.2,0,0,0,1.135-.273,2.851,2.851,0,0,0,.813-.725l.772.6A3.106,3.106,0,0,1,35.181,15.137Zm-.157-6.631a1.687,1.687,0,0,0-1.285.557,2.708,2.708,0,0,0-.643,1.562H36.8v-.1a2.409,2.409,0,0,0-.52-1.494A1.588,1.588,0,0,0,35.024,8.506Zm4.2,2.734A4.333,4.333,0,0,1,40.028,8.5a2.745,2.745,0,0,1,4.17-.147V4.5h1.265V15H44.3l-.062-.793a2.575,2.575,0,0,1-2.112.93,2.526,2.526,0,0,1-2.1-1.053,4.382,4.382,0,0,1-.81-2.748Zm1.265.144a3.281,3.281,0,0,0,.52,1.969,1.68,1.68,0,0,0,1.436.711,1.845,1.845,0,0,0,1.757-1.08v-3.4A1.859,1.859,0,0,0,42.455,8.54a1.687,1.687,0,0,0-1.449.718A3.612,3.612,0,0,0,40.486,11.384ZM48.8,15H47.534V7.6H48.8ZM47.431,5.642a.755.755,0,0,1,.188-.52.706.706,0,0,1,.557-.212.717.717,0,0,1,.561.212.747.747,0,0,1,.191.52.722.722,0,0,1-.191.513.73.73,0,0,1-.561.205.718.718,0,0,1-.557-.205A.73.73,0,0,1,47.431,5.642Zm3.056,5.592a4.369,4.369,0,0,1,.427-1.955A3.187,3.187,0,0,1,52.1,7.938a3.238,3.238,0,0,1,1.74-.472,3.119,3.119,0,0,1,2.444,1.046,4.024,4.024,0,0,1,.933,2.782v.089a4.407,4.407,0,0,1-.414,1.938,3.14,3.14,0,0,1-1.183,1.336,3.275,3.275,0,0,1-1.767.479,3.111,3.111,0,0,1-2.437-1.046,4,4,0,0,1-.933-2.769Zm1.271.15a3.164,3.164,0,0,0,.571,1.976,1.934,1.934,0,0,0,3.059-.01,3.46,3.46,0,0,0,.567-2.116,3.159,3.159,0,0,0-.578-1.972,1.836,1.836,0,0,0-1.535-.755,1.816,1.816,0,0,0-1.511.745A3.435,3.435,0,0,0,51.758,11.384Zm11.354,1.654a.931.931,0,0,0-.386-.8,3.718,3.718,0,0,0-1.347-.489,6.367,6.367,0,0,1-1.524-.492,2.169,2.169,0,0,1-.834-.684,1.635,1.635,0,0,1-.27-.943A1.919,1.919,0,0,1,59.521,8.1a3,3,0,0,1,1.965-.629,3.091,3.091,0,0,1,2.041.649,2.063,2.063,0,0,1,.783,1.661H63.038a1.142,1.142,0,0,0-.441-.9,1.652,1.652,0,0,0-1.111-.376,1.729,1.729,0,0,0-1.08.3.947.947,0,0,0-.39.786.767.767,0,0,0,.362.69,4.458,4.458,0,0,0,1.309.444,6.821,6.821,0,0,1,1.535.506,2.239,2.239,0,0,1,.872.708,1.74,1.74,0,0,1,.284,1.008,1.893,1.893,0,0,1-.793,1.589,3.326,3.326,0,0,1-2.058.6,3.725,3.725,0,0,1-1.572-.314,2.557,2.557,0,0,1-1.07-.878,2.117,2.117,0,0,1-.386-1.22h1.265a1.309,1.309,0,0,0,.509,1.008,1.976,1.976,0,0,0,1.254.373,2.039,2.039,0,0,0,1.152-.291A.893.893,0,0,0,63.113,13.038Zm-55.34,20.1a3.232,3.232,0,0,1-2.447-.988,3.666,3.666,0,0,1-.943-2.642v-.232a4.438,4.438,0,0,1,.42-1.965,3.28,3.28,0,0,1,1.176-1.354,2.956,2.956,0,0,1,1.637-.489,2.77,2.77,0,0,1,2.242.95,4.114,4.114,0,0,1,.8,2.721v.526H5.646a2.629,2.629,0,0,0,.639,1.767,2.009,2.009,0,0,0,1.555.673,2.2,2.2,0,0,0,1.135-.273,2.851,2.851,0,0,0,.813-.725l.772.6A3.106,3.106,0,0,1,7.772,33.137Zm-.157-6.631a1.687,1.687,0,0,0-1.285.557,2.708,2.708,0,0,0-.643,1.562H9.393v-.1a2.409,2.409,0,0,0-.52-1.494A1.588,1.588,0,0,0,7.615,26.506ZM13.494,33H12.229V22.5h1.265Zm5.093.137a3.232,3.232,0,0,1-2.447-.988,3.666,3.666,0,0,1-.943-2.642v-.232a4.438,4.438,0,0,1,.42-1.965,3.28,3.28,0,0,1,1.176-1.354,2.956,2.956,0,0,1,1.637-.489,2.77,2.77,0,0,1,2.242.95,4.114,4.114,0,0,1,.8,2.721v.526H16.461a2.629,2.629,0,0,0,.639,1.767,2.009,2.009,0,0,0,1.555.673,2.2,2.2,0,0,0,1.135-.273,2.851,2.851,0,0,0,.813-.725l.772.6A3.106,3.106,0,0,1,18.587,33.137Zm-.157-6.631a1.687,1.687,0,0,0-1.285.557,2.708,2.708,0,0,0-.643,1.562h3.705v-.1a2.409,2.409,0,0,0-.52-1.494A1.588,1.588,0,0,0,18.43,26.506ZM25.9,32.1a1.822,1.822,0,0,0,1.183-.41,1.443,1.443,0,0,0,.561-1.025h1.2a2.293,2.293,0,0,1-.437,1.21,2.881,2.881,0,0,1-1.077.916,3.107,3.107,0,0,1-1.425.342,3.047,3.047,0,0,1-2.4-1.008,4.016,4.016,0,0,1-.892-2.758v-.212a4.453,4.453,0,0,1,.4-1.921,3.02,3.02,0,0,1,1.138-1.306,3.233,3.233,0,0,1,1.753-.465,2.966,2.966,0,0,1,2.068.745,2.663,2.663,0,0,1,.878,1.935h-1.2a1.743,1.743,0,0,0-.543-1.179,1.691,1.691,0,0,0-1.207-.461A1.77,1.77,0,0,0,24.4,27.2a3.259,3.259,0,0,0-.53,2.006v.239a3.194,3.194,0,0,0,.526,1.969A1.779,1.779,0,0,0,25.9,32.1Zm6.077-8.292V25.6h1.381v.978H31.979v4.587a1.024,1.024,0,0,0,.185.667.777.777,0,0,0,.629.222,3.062,3.062,0,0,0,.6-.082V33a3.666,3.666,0,0,1-.971.137,1.575,1.575,0,0,1-1.278-.513,2.2,2.2,0,0,1-.431-1.456V26.581H29.367V25.6h1.347V23.813Zm6.433,2.926a3.79,3.79,0,0,0-.622-.048A1.667,1.667,0,0,0,36.1,27.75V33H34.836V25.6h1.23l.021.854a1.969,1.969,0,0,1,1.764-.991,1.292,1.292,0,0,1,.561.1Zm.827,2.5a4.369,4.369,0,0,1,.427-1.955,3.187,3.187,0,0,1,1.189-1.34,3.238,3.238,0,0,1,1.74-.472,3.119,3.119,0,0,1,2.444,1.046,4.024,4.024,0,0,1,.933,2.782v.089a4.407,4.407,0,0,1-.414,1.938,3.14,3.14,0,0,1-1.183,1.336,3.275,3.275,0,0,1-1.767.479,3.111,3.111,0,0,1-2.437-1.046,4,4,0,0,1-.933-2.769Zm1.271.15a3.164,3.164,0,0,0,.571,1.976,1.934,1.934,0,0,0,3.059-.01,3.46,3.46,0,0,0,.567-2.116,3.159,3.159,0,0,0-.578-1.972,1.836,1.836,0,0,0-1.535-.755,1.816,1.816,0,0,0-1.511.745A3.434,3.434,0,0,0,40.51,29.384ZM43.169,22.5H44.7l-1.832,2.01H41.85Zm5.585,3.1.041.93a2.7,2.7,0,0,1,2.215-1.066q2.345,0,2.365,2.646V33H52.11V28.105a1.7,1.7,0,0,0-.366-1.183,1.466,1.466,0,0,0-1.118-.383,1.825,1.825,0,0,0-1.08.328,2.228,2.228,0,0,0-.725.861V33H47.558V25.6Zm7.9,7.4H55.392V25.6h1.265Zm-1.367-9.358a.755.755,0,0,1,.188-.52.706.706,0,0,1,.557-.212.717.717,0,0,1,.561.212.747.747,0,0,1,.191.52.722.722,0,0,1-.191.513.73.73,0,0,1-.561.205.718.718,0,0,1-.557-.205A.73.73,0,0,1,55.289,23.642ZM61.646,32.1a1.822,1.822,0,0,0,1.183-.41,1.443,1.443,0,0,0,.561-1.025h1.2a2.293,2.293,0,0,1-.437,1.21,2.881,2.881,0,0,1-1.077.916,3.107,3.107,0,0,1-1.425.342,3.047,3.047,0,0,1-2.4-1.008,4.016,4.016,0,0,1-.892-2.758v-.212a4.453,4.453,0,0,1,.4-1.921,3.02,3.02,0,0,1,1.138-1.306,3.233,3.233,0,0,1,1.753-.465,2.966,2.966,0,0,1,2.068.745,2.663,2.663,0,0,1,.878,1.935h-1.2a1.743,1.743,0,0,0-.543-1.179,1.691,1.691,0,0,0-1.207-.461,1.77,1.77,0,0,0-1.494.694,3.259,3.259,0,0,0-.53,2.006v.239a3.194,3.194,0,0,0,.526,1.969A1.779,1.779,0,0,0,61.646,32.1Zm4.026-2.871a4.369,4.369,0,0,1,.427-1.955,3.187,3.187,0,0,1,1.189-1.34,3.238,3.238,0,0,1,1.74-.472,3.119,3.119,0,0,1,2.444,1.046,4.024,4.024,0,0,1,.933,2.782v.089a4.407,4.407,0,0,1-.414,1.938,3.14,3.14,0,0,1-1.183,1.336,3.275,3.275,0,0,1-1.767.479,3.111,3.111,0,0,1-2.437-1.046,4,4,0,0,1-.933-2.769Zm1.271.15a3.164,3.164,0,0,0,.571,1.976,1.934,1.934,0,0,0,3.059-.01,3.46,3.46,0,0,0,.567-2.116,3.159,3.159,0,0,0-.578-1.972,1.836,1.836,0,0,0-1.535-.755,1.816,1.816,0,0,0-1.511.745A3.434,3.434,0,0,0,66.944,29.384ZM78.3,31.038a.931.931,0,0,0-.386-.8,3.718,3.718,0,0,0-1.347-.489,6.367,6.367,0,0,1-1.524-.492,2.169,2.169,0,0,1-.834-.684,1.635,1.635,0,0,1-.27-.943,1.919,1.919,0,0,1,.769-1.538,3,3,0,0,1,1.965-.629,3.091,3.091,0,0,1,2.041.649,2.063,2.063,0,0,1,.783,1.661H78.224a1.142,1.142,0,0,0-.441-.9,1.652,1.652,0,0,0-1.111-.376,1.729,1.729,0,0,0-1.08.3.947.947,0,0,0-.39.786.767.767,0,0,0,.362.69,4.458,4.458,0,0,0,1.309.444,6.821,6.821,0,0,1,1.535.506,2.239,2.239,0,0,1,.872.708,1.74,1.74,0,0,1,.284,1.008,1.893,1.893,0,0,1-.793,1.589,3.326,3.326,0,0,1-2.058.6,3.725,3.725,0,0,1-1.572-.314,2.557,2.557,0,0,1-1.07-.878,2.117,2.117,0,0,1-.386-1.22h1.265a1.309,1.309,0,0,0,.509,1.008,1.976,1.976,0,0,0,1.254.373,2.039,2.039,0,0,0,1.152-.291A.893.893,0,0,0,78.3,31.038ZM9.129,50.1a1.822,1.822,0,0,0,1.183-.41,1.443,1.443,0,0,0,.561-1.025h1.2a2.293,2.293,0,0,1-.437,1.21,2.881,2.881,0,0,1-1.077.916,3.107,3.107,0,0,1-1.425.342,3.047,3.047,0,0,1-2.4-1.008,4.016,4.016,0,0,1-.892-2.758v-.212a4.453,4.453,0,0,1,.4-1.921,3.02,3.02,0,0,1,1.138-1.306,3.233,3.233,0,0,1,1.753-.465,2.966,2.966,0,0,1,2.068.745,2.663,2.663,0,0,1,.878,1.935h-1.2a1.743,1.743,0,0,0-.543-1.179,1.691,1.691,0,0,0-1.207-.461,1.77,1.77,0,0,0-1.494.694,3.259,3.259,0,0,0-.53,2.006v.239a3.194,3.194,0,0,0,.526,1.969A1.779,1.779,0,0,0,9.129,50.1Zm7.431,1.032a3.232,3.232,0,0,1-2.447-.988,3.666,3.666,0,0,1-.943-2.642v-.232a4.438,4.438,0,0,1,.42-1.965,3.28,3.28,0,0,1,1.176-1.354,2.956,2.956,0,0,1,1.637-.489,2.77,2.77,0,0,1,2.242.95,4.114,4.114,0,0,1,.8,2.721v.526H14.434a2.629,2.629,0,0,0,.639,1.767,2.009,2.009,0,0,0,1.555.673,2.2,2.2,0,0,0,1.135-.273,2.851,2.851,0,0,0,.813-.725l.772.6A3.106,3.106,0,0,1,16.56,51.137ZM16.4,44.506a1.687,1.687,0,0,0-1.285.557,2.708,2.708,0,0,0-.643,1.562H18.18v-.1a2.409,2.409,0,0,0-.52-1.494A1.588,1.588,0,0,0,16.4,44.506Zm8.08.232a3.79,3.79,0,0,0-.622-.048,1.667,1.667,0,0,0-1.688,1.06V51H20.908V43.6h1.23l.021.854a1.969,1.969,0,0,1,1.764-.991,1.292,1.292,0,0,1,.561.1Zm3.22-2.926V43.6h1.381v.978H27.7v4.587a1.025,1.025,0,0,0,.185.667.777.777,0,0,0,.629.222,3.062,3.062,0,0,0,.6-.082V51a3.666,3.666,0,0,1-.971.137,1.575,1.575,0,0,1-1.278-.513,2.2,2.2,0,0,1-.431-1.456V44.581H25.091V43.6h1.347V41.813ZM31.934,51H30.669V43.6h1.265Zm-1.367-9.358a.755.755,0,0,1,.188-.52.706.706,0,0,1,.557-.212.717.717,0,0,1,.561.212.747.747,0,0,1,.191.52.722.722,0,0,1-.191.513.73.73,0,0,1-.561.205.718.718,0,0,1-.557-.205A.73.73,0,0,1,30.567,41.642ZM34.381,51V44.581H33.212V43.6h1.169v-.629a2.57,2.57,0,0,1,.708-1.928,2.744,2.744,0,0,1,2-.69,6.021,6.021,0,0,1,1.935.417l-.212,1.066a4.382,4.382,0,0,0-1.627-.342,1.592,1.592,0,0,0-1.172.366,1.508,1.508,0,0,0-.359,1.1V43.6h1.511v.978H35.653V51Zm5.271,0H38.38V43.6h1.271Zm5.024-.9a1.822,1.822,0,0,0,1.183-.41,1.443,1.443,0,0,0,.561-1.025h1.2a2.293,2.293,0,0,1-.437,1.21,2.881,2.881,0,0,1-1.077.916,3.107,3.107,0,0,1-1.425.342,3.047,3.047,0,0,1-2.4-1.008,4.016,4.016,0,0,1-.892-2.758v-.212a4.453,4.453,0,0,1,.4-1.921,3.02,3.02,0,0,1,1.138-1.306,3.233,3.233,0,0,1,1.753-.465,2.966,2.966,0,0,1,2.068.745,2.663,2.663,0,0,1,.878,1.935h-1.2a1.743,1.743,0,0,0-.543-1.179,1.691,1.691,0,0,0-1.207-.461,1.77,1.77,0,0,0-1.494.694,3.259,3.259,0,0,0-.53,2.006v.239a3.194,3.194,0,0,0,.526,1.969A1.779,1.779,0,0,0,44.676,50.1ZM53.6,51a2.657,2.657,0,0,1-.178-.779,2.822,2.822,0,0,1-2.105.916,2.611,2.611,0,0,1-1.794-.619,2,2,0,0,1-.7-1.569,2.091,2.091,0,0,1,.878-1.794,4.142,4.142,0,0,1,2.471-.639h1.23v-.581a1.42,1.42,0,0,0-.4-1.056,1.593,1.593,0,0,0-1.169-.393,1.844,1.844,0,0,0-1.135.342,1.007,1.007,0,0,0-.458.827H48.976a1.745,1.745,0,0,1,.393-1.07,2.683,2.683,0,0,1,1.066-.817,3.588,3.588,0,0,1,1.48-.3,2.924,2.924,0,0,1,2,.639,2.306,2.306,0,0,1,.752,1.76v3.4a4.162,4.162,0,0,0,.26,1.62V51Zm-2.1-.964a2.223,2.223,0,0,0,1.128-.308,1.861,1.861,0,0,0,.772-.8V47.411h-.991q-2.324,0-2.324,1.36a1.151,1.151,0,0,0,.4.93A1.524,1.524,0,0,0,51.505,50.036Zm4.84-2.8a4.333,4.333,0,0,1,.807-2.738,2.745,2.745,0,0,1,4.17-.147V40.5h1.265V51H61.424l-.062-.793a2.575,2.575,0,0,1-2.112.93,2.526,2.526,0,0,1-2.1-1.053,4.382,4.382,0,0,1-.81-2.748Zm1.265.144a3.281,3.281,0,0,0,.52,1.969,1.68,1.68,0,0,0,1.436.711,1.845,1.845,0,0,0,1.757-1.08v-3.4a1.859,1.859,0,0,0-1.743-1.046,1.687,1.687,0,0,0-1.449.718A3.612,3.612,0,0,0,57.61,47.384Zm6.6-.15a4.369,4.369,0,0,1,.427-1.955,3.187,3.187,0,0,1,1.189-1.34,3.238,3.238,0,0,1,1.74-.472,3.119,3.119,0,0,1,2.444,1.046,4.024,4.024,0,0,1,.933,2.782v.089a4.407,4.407,0,0,1-.414,1.938,3.14,3.14,0,0,1-1.183,1.336,3.275,3.275,0,0,1-1.767.479,3.111,3.111,0,0,1-2.437-1.046,4,4,0,0,1-.933-2.769Zm1.271.15a3.164,3.164,0,0,0,.571,1.976,1.934,1.934,0,0,0,3.059-.01,3.46,3.46,0,0,0,.567-2.116,3.159,3.159,0,0,0-.578-1.972,1.836,1.836,0,0,0-1.535-.755,1.816,1.816,0,0,0-1.511.745A3.435,3.435,0,0,0,65.485,47.384Zm11.354,1.654a.931.931,0,0,0-.386-.8,3.718,3.718,0,0,0-1.347-.489,6.367,6.367,0,0,1-1.524-.492,2.169,2.169,0,0,1-.834-.684,1.635,1.635,0,0,1-.27-.943,1.919,1.919,0,0,1,.769-1.538,3,3,0,0,1,1.965-.629,3.091,3.091,0,0,1,2.041.649,2.063,2.063,0,0,1,.783,1.661H76.764a1.142,1.142,0,0,0-.441-.9,1.652,1.652,0,0,0-1.111-.376,1.729,1.729,0,0,0-1.08.3.947.947,0,0,0-.39.786.767.767,0,0,0,.362.69,4.458,4.458,0,0,0,1.309.444,6.821,6.821,0,0,1,1.535.506,2.239,2.239,0,0,1,.872.708,1.74,1.74,0,0,1,.284,1.008,1.893,1.893,0,0,1-.793,1.589,3.326,3.326,0,0,1-2.058.6,3.725,3.725,0,0,1-1.572-.314,2.557,2.557,0,0,1-1.07-.878,2.117,2.117,0,0,1-.386-1.22H73.49A1.309,1.309,0,0,0,74,49.732a1.976,1.976,0,0,0,1.254.373,2.039,2.039,0,0,0,1.152-.291A.893.893,0,0,0,76.839,49.038Z" transform="translate(758 1898.564)" fill="#12263f"/><g transform="translate(677.146 1805.354)" clip-path="url(#e)"><g transform="translate(0 -0.001)"><path d="M73.145,38.8H61.7V36.259h7.632a10.175,10.175,0,0,0,0-20.351,10,10,0,0,0-2.081.22A15.224,15.224,0,0,0,45.764,7.461,18.887,18.887,0,0,0,31.171.645,19.155,19.155,0,0,0,13.177,13.418a11.446,11.446,0,1,0-1.085,22.841h1.272V46.434h-8.9A3.82,3.82,0,0,0,.645,50.25v5.088a3.791,3.791,0,0,0,.992,2.544,3.791,3.791,0,0,0-.992,2.544v5.088a3.791,3.791,0,0,0,.992,2.544A3.791,3.791,0,0,0,.645,70.6v5.088A3.82,3.82,0,0,0,4.461,79.5H24.812a3.82,3.82,0,0,0,3.816-3.816V70.6a3.791,3.791,0,0,0-.992-2.544,3.785,3.785,0,0,0,.992-2.544V60.426a3.791,3.791,0,0,0-.992-2.544,3.785,3.785,0,0,0,.992-2.544V50.25a3.82,3.82,0,0,0-3.816-3.816h-8.9V36.259h33.07V38.8H37.531a6.367,6.367,0,0,0-6.36,6.36V65.513a6.367,6.367,0,0,0,6.36,6.36h6.36v5.088H38.8V79.5h33.07V76.961H66.785V71.873h6.36a6.367,6.367,0,0,0,6.36-6.36V45.163A6.367,6.367,0,0,0,73.145,38.8ZM59.154,28.628V44.956L58.8,43.891H51.878l-.356,1.066V28.628H46.536l7.727-9.659a1.417,1.417,0,0,1,2.147,0l7.729,9.66ZM26.084,75.689a1.272,1.272,0,0,1-1.272,1.272H4.461a1.272,1.272,0,0,1-1.272-1.272V70.6a1.272,1.272,0,0,1,1.272-1.272H24.812A1.272,1.272,0,0,1,26.084,70.6Zm0-10.175a1.272,1.272,0,0,1-1.272,1.272H4.461a1.272,1.272,0,0,1-1.272-1.272V60.426a1.272,1.272,0,0,1,1.272-1.272H24.812a1.272,1.272,0,0,1,1.272,1.272ZM24.812,48.978a1.272,1.272,0,0,1,1.272,1.272v5.088a1.272,1.272,0,0,1-1.272,1.272H4.461a1.272,1.272,0,0,1-1.272-1.272V50.25a1.272,1.272,0,0,1,1.272-1.272ZM12.092,33.715a8.9,8.9,0,1,1,1.723-17.637l1.146.224.322-1.123A16.6,16.6,0,0,1,31.171,3.189,16.392,16.392,0,0,1,44.424,9.868l.7.936.992-.614a12.681,12.681,0,0,1,19.027,7.8l.332,1.366,1.327-.467a7.629,7.629,0,1,1,2.53,14.824H61.7V31.171h7.733L58.4,17.377a3.92,3.92,0,0,0-6.119,0L41.245,31.171h7.733v2.544ZM49.252,50.709l.585-.322a11.25,11.25,0,0,1,2.295-.945l.64-.186.94-2.822h3.255l.94,2.822.64.186a11.4,11.4,0,0,1,2.295.945l.585.322,2.657-1.328,2.3,2.3-1.328,2.657.322.585a11.249,11.249,0,0,1,.945,2.295l.186.64,2.821.94v2.9h-5.2a8.816,8.816,0,0,0,.108-1.272,8.9,8.9,0,0,0-17.807,0,8.815,8.815,0,0,0,.108,1.272h-5.2V58.8l2.822-.94.186-.64a11.4,11.4,0,0,1,.945-2.295l.322-.585-1.328-2.657,2.3-2.3Zm6.086,5.9a3.82,3.82,0,0,0-3.816,3.816,3.773,3.773,0,0,0,.234,1.272H49.12a6.36,6.36,0,1,1,12.437,0H58.92a3.773,3.773,0,0,0,.234-1.272A3.82,3.82,0,0,0,55.338,56.61Zm1.272,3.816a1.272,1.272,0,1,1-1.272-1.272A1.272,1.272,0,0,1,56.61,60.426ZM33.715,45.163a3.82,3.82,0,0,1,3.816-3.816H48.978v6.383l-2.886-1.442L41.2,51.181,42.759,54.3a14.144,14.144,0,0,0-.641,1.558l-3.315,1.1V61.7H33.715Zm30.526,31.8H46.434V71.873H64.241ZM76.961,65.513a3.82,3.82,0,0,1-3.816,3.816H37.531a3.82,3.82,0,0,1-3.816-3.816V64.241H76.961Zm0-3.816H71.873V56.965l-3.315-1.105a13.9,13.9,0,0,0-.641-1.558l1.561-3.121-4.894-4.894L61.7,47.729V41.347H73.145a3.82,3.82,0,0,1,3.816,3.816Z" transform="translate(-0.645 -0.645)" fill="#12263f"/><path d="M8.387,26.452h2.544V29H8.387Z" transform="translate(6.876 24.425)" fill="#12263f"/><path d="M5.806,26.452H8.35V29H5.806Z" transform="translate(4.369 24.425)" fill="#12263f"/><path d="M3.226,26.452H5.77V29H3.226Z" transform="translate(1.862 24.425)" fill="#12263f"/><path d="M8.387,31.613h2.544v2.544H8.387Z" transform="translate(6.876 29.44)" fill="#12263f"/><path d="M10.968,31.613h2.544v2.544H10.968Z" transform="translate(9.383 29.44)" fill="#12263f"/><path d="M5.806,31.613H8.35v2.544H5.806Z" transform="translate(4.369 29.44)" fill="#12263f"/><path d="M3.226,36.774H5.77v2.544H3.226Z" transform="translate(1.862 34.454)" fill="#12263f"/><path d="M8.387,36.774h2.544v2.544H8.387Z" transform="translate(6.876 34.454)" fill="#12263f"/><path d="M5.806,36.774H8.35v2.544H5.806Z" transform="translate(4.369 34.454)" fill="#12263f"/><path d="M9.174,14.42l2.494.506a11.455,11.455,0,0,1,15.8-8.2l1.018-2.331a13.882,13.882,0,0,0-5.6-1.165A14.03,14.03,0,0,0,9.174,14.42Z" transform="translate(7.641 1.862)" fill="#12263f"/><path d="M5.77,12.9H3.226a6.367,6.367,0,0,0,6.36,6.36h2.544V16.719H9.585A3.82,3.82,0,0,1,5.77,12.9Z" transform="translate(1.862 11.263)" fill="#12263f"/><path d="M9.032,14.839h2.544v2.544H9.032Z" transform="translate(7.503 13.144)" fill="#12263f"/></g></g><g transform="translate(685 1958.383)" clip-path="url(#f)"><path d="M64.877,49.036H63.709V12.843a5.844,5.844,0,0,0-5.838-5.838V5.838A5.844,5.844,0,0,0,52.034,0H17.009a5.844,5.844,0,0,0-5.838,5.838V7.005a5.844,5.844,0,0,0-5.838,5.838v14.01H7.668V12.843a3.506,3.506,0,0,1,3.5-3.5V25.685h2.335V5.838a3.506,3.506,0,0,1,3.5-3.5H52.034a3.506,3.506,0,0,1,3.5,3.5v39.7h2.335V9.34a3.506,3.506,0,0,1,3.5,3.5V49.036H45.029a5.113,5.113,0,0,0-3.639,1.509,2.808,2.808,0,0,1-2,.826H33.354v2.335H39.39A5.128,5.128,0,0,0,43.041,52.2a2.8,2.8,0,0,1,1.988-.826h18.68v2.335a2.338,2.338,0,0,1-2.335,2.335H33.354v2.335H61.374a4.675,4.675,0,0,0,4.67-4.67V50.2a1.168,1.168,0,0,0-1.168-1.168Z" transform="translate(4.007)" fill="#12263f"/><path d="M8.667,21.333H11v8.173H8.667Z" transform="translate(6.511 16.027)" fill="#12263f"/><path d="M12,2.667h2.335V5H12Z" transform="translate(9.015 2.003)" fill="#12263f"/><path d="M14.666,2.667H17V5H14.666Z" transform="translate(11.018 2.003)" fill="#12263f"/><path d="M17.333,2.667h2.335V5H17.333Z" transform="translate(13.022 2.003)" fill="#12263f"/><path d="M12,5.333H47.026V7.668H12Z" transform="translate(9.015 4.007)" fill="#12263f"/><path d="M25.251,37.89c-.247-.064-.5-.136-.74-.214L23.8,39.9c.287.092.581.177.865.25a16.344,16.344,0,1,0-9.6-24.609,16.137,16.137,0,0,0-2.141,5.033l2.272.537a13.8,13.8,0,0,1,1.506-3.771h3.611a29.826,29.826,0,0,0-.822,7.005c0,.809.033,1.625.1,2.428l2.328-.186c-.028-.356-.05-.715-.065-1.074h5.813v7.005h-3.5v2.335h3.5V38.3a13.981,13.981,0,0,1-2.406-.413ZM38.08,34.853A14.065,14.065,0,0,1,35.422,36.7c.293-.6.566-1.211.812-1.846ZM40.2,32.518H37.025a29.366,29.366,0,0,0,1.116-7.005h4.646A13.764,13.764,0,0,1,40.2,32.518ZM25.673,10.7a13.941,13.941,0,0,1,1.983-.309V15H23.464A20.645,20.645,0,0,1,25.673,10.7Zm4.318-.308a13.961,13.961,0,0,1,1.983.309A20.641,20.641,0,0,1,34.184,15H29.992Zm4.942,6.953a27.161,27.161,0,0,1,.871,5.838H29.992V17.34Zm7.852,5.838H38.143a29.63,29.63,0,0,0-.8-5.838h3.61a13.876,13.876,0,0,1,1.831,5.838ZM39.261,15h-2.6a25.075,25.075,0,0,0-1.253-3.03A13.879,13.879,0,0,1,39.261,15Zm-17.025-3.03A25.1,25.1,0,0,0,20.983,15h-2.6A13.878,13.878,0,0,1,22.236,11.975Zm-.393,11.2a27.143,27.143,0,0,1,.871-5.838h4.942v5.838Zm8.148,2.335H35.8a26.746,26.746,0,0,1-1.222,7.005H29.992Zm3.714,9.34a19.471,19.471,0,0,1-1.728,3.141,13.92,13.92,0,0,1-1.986.309v-3.45Z" transform="translate(9.704 6.01)" fill="#12263f"/><path d="M31.523,35.871V30.01a14.01,14.01,0,0,0-28.021,0v5.861a3.931,3.931,0,0,0-3.5,3.9V54.1a3.931,3.931,0,0,0,3.926,3.926H31.1A3.931,3.931,0,0,0,35.026,54.1V39.774a3.931,3.931,0,0,0-3.5-3.9ZM17.513,18.335A11.688,11.688,0,0,1,29.188,30.01v5.838H26.853V30.01a9.34,9.34,0,1,0-18.68,0v5.838H5.838V30.01A11.688,11.688,0,0,1,17.513,18.335Zm7.005,17.513H10.508V30.01a7.005,7.005,0,0,1,14.01,0ZM32.691,54.1A1.593,1.593,0,0,1,31.1,55.7H3.926A1.593,1.593,0,0,1,2.335,54.1V39.774a1.593,1.593,0,0,1,1.591-1.591H31.1a1.593,1.593,0,0,1,1.591,1.591Z" transform="translate(0 12.021)" fill="#12263f"/><path d="M11.5,31.333a3.5,3.5,0,0,0-1.168,6.8v2.536h2.335V38.138a3.5,3.5,0,0,0-1.168-6.8Zm0,4.67a1.168,1.168,0,1,1,1.168-1.168A1.168,1.168,0,0,1,11.5,36Z" transform="translate(6.011 23.54)" fill="#12263f"/></g><g transform="translate(855.259 1808.885)" clip-path="url(#g)"><g transform="translate(0)"><path d="M50.125,15.468a12.736,12.736,0,0,1-9.065-3.756l-1.7-1.7a1.157,1.157,0,0,0-1.638,0l-1.7,1.7a12.736,12.736,0,0,1-9.065,3.756,1.158,1.158,0,0,0-1.158,1.158v9.5a18.49,18.49,0,0,0,4.819,12.463l7.062,7.769a1.159,1.159,0,0,0,1.714,0l7.062-7.769a18.492,18.492,0,0,0,4.819-12.463v-9.5A1.158,1.158,0,0,0,50.125,15.468ZM48.967,26.123a16.17,16.17,0,0,1-4.218,10.905l-6.2,6.827-6.2-6.827a16.172,16.172,0,0,1-4.218-10.905V17.741a15.02,15.02,0,0,0,9.545-4.39l.878-.878.878.876a15.02,15.02,0,0,0,9.545,4.39Zm0,0" transform="translate(20.515 7.693)" fill="#12263f"/><path d="M31.993,19.6v1.158H30.835a1.158,1.158,0,0,0-1.158,1.158v6.948a1.158,1.158,0,0,0,1.158,1.158H40.1a1.158,1.158,0,0,0,1.158-1.158V21.919A1.158,1.158,0,0,0,40.1,20.761H38.941V19.6a3.474,3.474,0,1,0-6.948,0Zm6.948,8.106H31.993V23.077h6.948ZM36.625,19.6v1.158H34.309V19.6a1.158,1.158,0,1,1,2.316,0Zm0,0" transform="translate(23.592 12.821)" fill="#12263f"/><path d="M2.581,36.129h9.264v2.316H2.581Zm0,0" transform="translate(2.052 28.72)" fill="#12263f"/><path d="M18.064,36.129H20.38v2.316H18.064Zm0,0" transform="translate(14.36 28.72)" fill="#12263f"/><path d="M15.484,36.129H17.8v2.316H15.484Zm0,0" transform="translate(12.309 28.72)" fill="#12263f"/><path d="M12.9,36.129h2.316v2.316H12.9Zm0,0" transform="translate(10.257 28.72)" fill="#12263f"/><path d="M38.215,28.387H1.158A1.158,1.158,0,0,0,0,29.545V48.073a1.158,1.158,0,0,0,1.158,1.158H38.215a1.158,1.158,0,0,0,1.158-1.158V29.545A1.158,1.158,0,0,0,38.215,28.387ZM2.316,30.7H37.057v6.948H2.316ZM37.057,46.915H2.316V39.967H37.057Zm0,0" transform="translate(0 22.566)" fill="#12263f"/><path d="M2.581,30.968h9.264v2.316H2.581Zm0,0" transform="translate(2.052 24.617)" fill="#12263f"/><path d="M18.064,30.968H20.38v2.316H18.064Zm0,0" transform="translate(14.36 24.617)" fill="#12263f"/><path d="M15.484,30.968H17.8v2.316H15.484Zm0,0" transform="translate(12.309 24.617)" fill="#12263f"/><path d="M12.9,30.968h2.316v2.316H12.9Zm0,0" transform="translate(10.257 24.617)" fill="#12263f"/><path d="M2.581,7.742h9.264v2.316H2.581Zm0,0" transform="translate(2.052 6.154)" fill="#12263f"/><path d="M18.064,7.742H20.38v2.316H18.064Zm0,0" transform="translate(14.36 6.154)" fill="#12263f"/><path d="M15.484,7.742H17.8v2.316H15.484Zm0,0" transform="translate(12.309 6.154)" fill="#12263f"/><path d="M12.9,7.742h2.316v2.316H12.9Zm0,0" transform="translate(10.257 6.154)" fill="#12263f"/><path d="M38.215,0H1.158A1.158,1.158,0,0,0,0,1.158V19.686a1.158,1.158,0,0,0,1.158,1.158H38.215a1.158,1.158,0,0,0,1.158-1.158V1.158A1.158,1.158,0,0,0,38.215,0ZM2.316,2.316H37.057V9.264H2.316ZM37.057,18.528H2.316V11.58H37.057Zm0,0" transform="translate(0)" fill="#12263f"/><path d="M2.581,2.581h9.264V4.9H2.581Zm0,0" transform="translate(2.052 2.051)" fill="#12263f"/><path d="M18.064,2.581H20.38V4.9H18.064Zm0,0" transform="translate(14.36 2.051)" fill="#12263f"/><path d="M15.484,2.581H17.8V4.9H15.484Zm0,0" transform="translate(12.309 2.051)" fill="#12263f"/><path d="M12.9,2.581h2.316V4.9H12.9Zm0,0" transform="translate(10.257 2.051)" fill="#12263f"/><path d="M6.948,38.372H11.58a1.158,1.158,0,0,0,1.158-1.158V24.475H17.37a1.159,1.159,0,0,0,.872-1.921L10.136,13.29a1.2,1.2,0,0,0-1.744,0L.286,22.554a1.159,1.159,0,0,0,.872,1.921H5.79V37.214a1.158,1.158,0,0,0,1.158,1.158ZM3.711,22.159l5.554-6.347,5.554,6.347H11.58a1.158,1.158,0,0,0-1.158,1.158V36.056H8.106V23.317a1.158,1.158,0,0,0-1.158-1.158Zm0,0" transform="translate(0 10.265)" fill="#12263f"/><path d="M23.193,12.9H18.561A1.158,1.158,0,0,0,17.4,14.061V26.8H12.771a1.159,1.159,0,0,0-.872,1.921l8.106,9.264a1.16,1.16,0,0,0,1.744,0l8.106-9.264a1.159,1.159,0,0,0-.872-1.921H24.351V14.061A1.158,1.158,0,0,0,23.193,12.9Zm3.238,16.212-5.554,6.347-5.554-6.347h3.238a1.158,1.158,0,0,0,1.158-1.158V15.219h2.316V27.957a1.158,1.158,0,0,0,1.158,1.158Zm0,0" transform="translate(9.232 10.257)" fill="#12263f"/><path d="M39.438,14.029h2.316V2.448A1.158,1.158,0,0,0,40.6,1.29H23.226V3.606H39.438Zm0,0" transform="translate(18.463 1.026)" fill="#12263f"/><path d="M39.438,42.035H23.226v2.316H40.6a1.158,1.158,0,0,0,1.158-1.158V31.613H39.438Zm0,0" transform="translate(18.463 25.13)" fill="#12263f"/></g></g><g transform="translate(851.708 1962.293)" clip-path="url(#h)"><g transform="translate(0 6.088)"><path d="M62.166,5.1H6.819a5.4,5.4,0,0,0-5.4,5.4V53.118a5.956,5.956,0,0,0,5.95,5.95h54.24a5.956,5.956,0,0,0,5.95-5.95V10.5a5.4,5.4,0,0,0-5.4-5.4Zm3.459,5.4v6.466H28.342l4.695-9.925H62.166A3.463,3.463,0,0,1,65.626,10.5ZM6.819,7.042H30.9l-4.7,9.925H3.36V10.5A3.463,3.463,0,0,1,6.819,7.042ZM61.613,57.131H7.372A4.017,4.017,0,0,1,3.36,53.118V18.9H65.626V53.118a4.017,4.017,0,0,1-4.013,4.013Z" transform="translate(-1.423 -5.105)" fill="#12263f"/><path d="M8.478,13.718A3.182,3.182,0,1,0,5.3,10.535,3.182,3.182,0,0,0,8.478,13.718Zm0-4.428a1.245,1.245,0,1,1-1.245,1.245A1.245,1.245,0,0,1,8.478,9.29Z" transform="translate(1.108 -3.636)" fill="#12263f"/><path d="M13.852,13.718a3.182,3.182,0,1,0-3.182-3.182A3.182,3.182,0,0,0,13.852,13.718Zm0-4.428a1.245,1.245,0,1,1-1.245,1.245A1.245,1.245,0,0,1,13.852,9.29Z" transform="translate(4.62 -3.636)" fill="#12263f"/><path d="M22.984,10.629H47.75a.969.969,0,0,0,0-1.937H22.984a.969.969,0,1,0,0,1.937Z" transform="translate(12.035 -2.761)" fill="#12263f"/><path d="M48.061,26.611H10.425a.969.969,0,0,0-.969.969V38.649a.969.969,0,0,0,.969.969H48.061a.969.969,0,0,0,.969-.969V27.579A.969.969,0,0,0,48.061,26.611ZM47.092,37.68h-35.7V28.548h35.7Z" transform="translate(3.827 8.95)" fill="#12263f"/><path d="M13.154,33.863a.97.97,0,0,0,1.347.253l.7-.478v.378a.969.969,0,1,0,1.937,0v-.378l.7.478a.969.969,0,1,0,1.093-1.6L17.888,31.8l1.044-.714a.969.969,0,0,0-1.093-1.6l-.7.478v-.379a.969.969,0,0,0-1.937,0v.379l-.7-.478a.969.969,0,0,0-1.093,1.6l1.044.714-1.044.713A.969.969,0,0,0,13.154,33.863Z" transform="translate(6.134 10.263)" fill="#12263f"/><path d="M19.667,33.863a.97.97,0,0,0,1.347.253l.7-.478v.378a.969.969,0,1,0,1.937,0v-.378l.7.478a.969.969,0,1,0,1.094-1.6L24.4,31.8l1.044-.714a.969.969,0,0,0-1.094-1.6l-.7.478v-.379a.969.969,0,0,0-1.937,0v.379l-.7-.478a.969.969,0,1,0-1.094,1.6l1.044.714-1.044.713A.969.969,0,0,0,19.667,33.863Z" transform="translate(10.389 10.263)" fill="#12263f"/><path d="M26.178,33.863a.969.969,0,0,0,1.346.253l.7-.478v.378a.969.969,0,1,0,1.937,0v-.378l.7.478a.969.969,0,1,0,1.093-1.6L30.907,31.8l1.044-.714a.969.969,0,1,0-1.093-1.6l-.7.478v-.379a.969.969,0,0,0-1.937,0v.379l-.7-.478a.969.969,0,0,0-1.093,1.6l1.044.714-1.044.713A.969.969,0,0,0,26.178,33.863Z" transform="translate(14.644 10.263)" fill="#12263f"/><path d="M21.793,31.342h4.726a4.558,4.558,0,0,0,4.556-4.552V22.815a.969.969,0,0,0-.969-.969H28.921V20.411a4.765,4.765,0,0,0-9.531,0v1.436H18.208a.969.969,0,0,0-.969.969v3.974a4.558,4.558,0,0,0,4.553,4.552Zm-.465-10.931a2.828,2.828,0,0,1,5.657,0v1.436H21.328Zm-2.153,3.373h9.963v3.006A2.619,2.619,0,0,1,26.519,29.4H21.793a2.619,2.619,0,0,1-2.618-2.615Z" transform="translate(8.914 1.784)" fill="#12263f"/></g></g><g transform="translate(1017.348 1817)" fill="none" stroke="#eae7ad" stroke-width="2"><rect width="112" height="67" rx="15" stroke="none"/><rect x="1" y="1" width="110" height="65" rx="14" fill="none"/></g><g transform="translate(963 2017.934)" fill="none" stroke="#a5b9f6" stroke-width="2"><rect width="146" height="67" rx="15" stroke="none"/><rect x="1" y="1" width="144" height="65" rx="14" fill="none"/></g><g transform="translate(457.36 1822.72)" fill="none" stroke="#dbe3fb" stroke-width="2"><rect width="126" height="67" rx="15" stroke="none"/><rect x="1" y="1" width="124" height="65" rx="14" fill="none"/></g><g transform="translate(422.861 2007.434)" fill="none" stroke="#cbc232" stroke-width="2"><rect width="178.139" height="67" rx="15" stroke="none"/><rect x="1" y="1" width="176.139" height="65" rx="14" fill="none"/></g><path d="M-5490.633-9866.5h41.285" transform="translate(6412 11917.934)" fill="none" stroke="#a5b9f6" stroke-width="2"/><path d="M-5490.633-9866.5h41.285" transform="translate(6073.993 11726.72)" fill="none" stroke="#dbe3fb" stroke-width="2"/><path d="M-5490.632-9866.5h76.146" transform="translate(6091.633 11911.434)" fill="none" stroke="#cbc232" stroke-width="2"/></g></svg>