<svg xmlns="http://www.w3.org/2000/svg" xmlns:xlink="http://www.w3.org/1999/xlink" width="103" height="103" viewBox="0 0 103 103"><defs><filter id="a" x="0" y="0" width="103" height="103" filterUnits="userSpaceOnUse"><feOffset dy="3" input="SourceAlpha"/><feGaussianBlur stdDeviation="3" result="b"/><feFlood flood-opacity="0.161"/><feComposite operator="in" in2="b"/><feComposite in="SourceGraphic"/></filter><clipPath id="c"><rect width="54" height="54" transform="translate(0.044)" fill="#fff"/></clipPath></defs><g transform="translate(-1008 -5714.5)"><g transform="matrix(1, 0, 0, 1, 1008, 5714.5)" filter="url(#a)"><circle cx="42.5" cy="42.5" r="42.5" transform="translate(9 6)" fill="#fff"/></g><g transform="translate(1032.303 5734)" clip-path="url(#c)"><g transform="translate(0 0)"><g transform="translate(2.599 0.866)"><g transform="translate(36.385 5.198)"><path d="M65.054,10.636v6.93A1.738,1.738,0,0,1,63.322,19.3H59.857l-3.11,3.11a1.225,1.225,0,0,1-2.088-.866V19.3H52.926a1.738,1.738,0,0,1-1.733-1.733v-6.93A1.738,1.738,0,0,1,52.926,8.9h10.4A1.738,1.738,0,0,1,65.054,10.636Z" transform="translate(-51.194 -8.903)" fill="#e6e9ed"/></g><g transform="translate(0 43.307)"><path d="M12.543,58.458l.572,1.144-2.824.944A3.445,3.445,0,0,0,8,63.075l-.061-.009H6.184a1.738,1.738,0,0,1-1.733-1.733V57.869h7.8l.017-.009C12.352,58.059,12.448,58.258,12.543,58.458Z" transform="translate(-4.452 -57.86)" fill="#ccd1d9"/></g><g transform="translate(13.861 43.307)"><path d="M30.921,57.868v3.465a1.738,1.738,0,0,1-1.733,1.733H27.43l-.061.009a3.445,3.445,0,0,0-2.287-2.53L22.258,59.6l.572-1.144c.1-.2.191-.4.277-.6l.017.009Z" transform="translate(-22.258 -57.86)" fill="#ccd1d9"/></g><g transform="translate(25.989 43.315)"><path d="M44.769,57.871V59.6l-1.551.771a3.492,3.492,0,0,0-1.889,2.694H39.571a1.738,1.738,0,0,1-1.733-1.733V57.871Z" transform="translate(-37.839 -57.871)" fill="#ccd1d9"/></g><g transform="translate(41.583 43.315)"><path d="M64.8,57.871v3.465a1.738,1.738,0,0,1-1.733,1.733H61.31a3.492,3.492,0,0,0-1.889-2.694L57.871,59.6V57.871Z" transform="translate(-57.871 -57.871)" fill="#ccd1d9"/></g><g transform="translate(3.604 19.76)"><path d="M40.831,30.21a6.486,6.486,0,0,0-3.768-1.845l-2.452-.3a2.718,2.718,0,0,1-.745-.208L33.2,33.84l-3.465-3.465L26.269,33.84l-.676-6.073a2.819,2.819,0,0,1-.667.191,16.7,16.7,0,0,0-2.989.684,15.451,15.451,0,0,0-4.895,3.188,4.116,4.116,0,0,0-.728-.875l-3.76-3.344-.147.165L9.081,31.1,13.413,35a5.585,5.585,0,0,0,6.237.849l2.261-1.135a2.333,2.333,0,0,1,.026.347V45.968H42.729V34.784A6.473,6.473,0,0,0,40.831,30.21Z" transform="translate(-9.081 -27.611)" fill="#b4dd7f"/></g><g transform="translate(0 31.187)"><path d="M26.976,44.023v10.4h-7.8l-.017-.009a11.024,11.024,0,0,0,.884-4.323,4.332,4.332,0,1,0-8.663,0,11.024,11.024,0,0,0,.884,4.323l-.017.009h-7.8v-10.4A1.738,1.738,0,0,1,6.184,42.29H25.243a1.738,1.738,0,0,1,1.733,1.733Z" transform="translate(-4.452 -42.29)" fill="#69d6f4"/></g><g transform="translate(25.989 31.187)"><path d="M60.363,44.023v10.4h-6.93V50.087a4.332,4.332,0,1,0-8.663,0v4.332h-6.93v-10.4a1.738,1.738,0,0,1,1.733-1.733H58.63A1.738,1.738,0,0,1,60.363,44.023Z" transform="translate(-37.839 -42.29)" fill="#69d6f4"/></g><g transform="translate(29.454 45.048)"><path d="M57.884,63.969v3.058H42.29V63.969a3.212,3.212,0,0,1,.026-.407A3.492,3.492,0,0,1,44.2,60.868l1.551-.771v3.465h8.663V60.1l1.551.771a3.492,3.492,0,0,1,1.889,2.694A3.212,3.212,0,0,1,57.884,63.969Z" transform="translate(-42.29 -60.097)" fill="#fcd770"/></g><g transform="translate(3.465 45.048)"><path d="M24.5,64.324v2.7H8.9v-2.7a3.1,3.1,0,0,1,.087-.754,3.445,3.445,0,0,1,2.287-2.53L14.1,60.1h5.2l2.824.944a3.445,3.445,0,0,1,2.287,2.53A3.1,3.1,0,0,1,24.5,64.324Z" transform="translate(-8.903 -60.097)" fill="#ff826e"/></g><g transform="translate(6.93 34.652)"><path d="M22.018,51.073a11.024,11.024,0,0,1-.884,4.323c-.087.2-.182.4-.277.6l-.572,1.144h-5.2l-.572-1.144c-.1-.2-.191-.4-.277-.6a11.024,11.024,0,0,1-.884-4.323,4.332,4.332,0,1,1,8.663,0Z" transform="translate(-13.355 -46.742)" fill="#b27946"/></g><g transform="translate(32.92 34.652)"><path d="M55.405,57.138V60.6H46.742V51.073a4.332,4.332,0,1,1,8.663,0v6.064Z" transform="translate(-46.742 -46.742)" fill="#b27946"/></g><g transform="translate(20.116 18.929)"><path d="M31.437,26.543l3,3.6L30.969,33.6l-.676-6.073a2.541,2.541,0,0,0,1.144-.988Z" transform="translate(-30.293 -26.543)" fill="#a0d468"/></g><g transform="translate(24.257 18.963)"><path d="M39.745,27.627l-.667,5.986-3.465-3.465,2.963-3.561a2.72,2.72,0,0,0,1.17,1.04Z" transform="translate(-35.613 -26.587)" fill="#a0d468"/></g><g transform="translate(29.151 8.663)"><path d="M44.578,13.84a2.6,2.6,0,0,1-1.507,4.713H41.9a5.027,5.027,0,0,0,.3-1.733V13.355h.866a2.586,2.586,0,0,1,1.507.485Z" transform="translate(-41.901 -13.355)" fill="#f0d0b4"/></g><g transform="translate(15.594)"><path d="M41.81,8a5.759,5.759,0,0,1-1.092,3.379,2.586,2.586,0,0,0-1.507-.485h-.866V9.156h-.459a16.351,16.351,0,0,1-7.338-1.733l-.225.078a3.454,3.454,0,0,0-2.374,3.283v.1h-.866a2.586,2.586,0,0,0-1.507.485,5.771,5.771,0,0,1,4.678-9.148H36.04A5.768,5.768,0,0,1,41.81,8Z" transform="translate(-24.484 -2.226)" fill="#656d78"/></g><g transform="translate(19.059 5.198)"><path d="M39.331,12.368v3.465a5.027,5.027,0,0,1-.3,1.733,5.21,5.21,0,0,1-2.3,2.772,5.22,5.22,0,0,1-5.2,0,5.315,5.315,0,0,1-1.074-.832,5.249,5.249,0,0,1-1.525-3.673V12.264a3.454,3.454,0,0,1,2.374-3.283l.225-.078a16.351,16.351,0,0,0,7.338,1.733h.459Z" transform="translate(-28.935 -8.903)" fill="#f0d0b4"/></g><g transform="translate(21.259 16.633)"><path d="M37.722,25.924,34.76,29.484l-3-3.6a2.639,2.639,0,0,0,.4-1.386v-.91a5.22,5.22,0,0,0,5.2,0v1A2.635,2.635,0,0,0,37.722,25.924Z" transform="translate(-31.762 -23.594)" fill="#f0d0b4"/></g><g transform="translate(15.594 8.663)"><path d="M28.252,18.553h-1.17a2.6,2.6,0,0,1-1.837-4.435,2,2,0,0,1,.329-.277,2.586,2.586,0,0,1,1.507-.485h.866V16.82a5.027,5.027,0,0,0,.3,1.733Z" transform="translate(-24.484 -13.355)" fill="#f0d0b4"/></g><g transform="translate(0.866 17.326)"><path d="M11.776,26.918l-.147.165L8.3,30.409l-1.941-1.75a2.394,2.394,0,0,1,1.6-4.176H8.12a2.4,2.4,0,0,1,1.594.606Z" transform="translate(-5.565 -24.484)" fill="#f0d0b4"/></g></g><g transform="translate(0 0)"><path d="M49.626,51.359h.866a2.6,2.6,0,0,0,2.6-2.6V34.9a2.6,2.6,0,0,0-2.6-2.6H41.829V28.916a7.29,7.29,0,0,0-2.149-5.188A7.37,7.37,0,0,0,35.4,21.636l-2.451-.307a1.735,1.735,0,0,1-1.518-1.719v-.533a6.1,6.1,0,0,0,2.005-2.37h.593A3.469,3.469,0,0,0,37.5,13.242a3.433,3.433,0,0,0-.858-2.257,6.615,6.615,0,0,0-5.781-9.872H25.077a6.614,6.614,0,0,0-5.78,9.872,3.433,3.433,0,0,0-.858,2.257A3.469,3.469,0,0,0,21.9,16.706H22.5a6.1,6.1,0,0,0,2.006,2.37v.441a1.722,1.722,0,0,1-1.461,1.71,17.914,17.914,0,0,0-3.145.721A14.966,14.966,0,0,0,15.383,24.7c-.085-.088-.17-.178-.262-.26L9.3,19.264a3.254,3.254,0,0,0-2.167-.825H6.976a3.264,3.264,0,0,0-2.184,5.69l6.275,5.647a6.458,6.458,0,0,0,7.208.975l1.031-.515V32.3H5.444a2.6,2.6,0,0,0-2.6,2.6V48.76a2.6,2.6,0,0,0,2.6,2.6h.866v1.733h-5.2v1.733H54.824V53.091h-5.2ZM12.579,45.5a10.187,10.187,0,0,1-1.071-4.536,3.465,3.465,0,0,1,6.93,0A10.187,10.187,0,0,1,17.368,45.5l-.331.662H12.91Zm6.339.775c.018-.036.03-.076.049-.113h6.4v2.6a.867.867,0,0,1-.866.866h-1.2a4.314,4.314,0,0,0-2.63-2.479l-1.881-.626Zm4.719,5.084H24.5a2.6,2.6,0,0,0,2.6-2.6v-7.8h1.733v7.8a2.6,2.6,0,0,0,2.6,2.6H32.3v1.733H23.637Zm12.128-4.867-1.071.535a4.3,4.3,0,0,0-2.2,2.6H31.434a.867.867,0,0,1-.866-.866v-2.6h5.2ZM34.033,50.9a2.584,2.584,0,0,1,1.436-2.324l.3-.148v2.93h10.4v-2.93l.3.148A2.584,2.584,0,0,1,47.893,50.9v2.19H34.033ZM37.5,49.626V40.963a3.465,3.465,0,0,1,6.93,0v8.663Zm12.995,0h-1.06a4.3,4.3,0,0,0-2.2-2.6l-1.072-.535v-.331h5.2v2.6A.867.867,0,0,1,50.492,49.626ZM51.359,34.9v9.529h-5.2V40.963a5.2,5.2,0,0,0-10.4,0v3.465h-5.2V34.9a.867.867,0,0,1,.866-.866H50.492A.867.867,0,0,1,51.359,34.9ZM30.957,22.27c.07.058.146.109.22.162l-.405,3.65L29.141,24.45Zm3.075-7.3h-.069a6.086,6.086,0,0,0,.069-.866v-2.6a1.733,1.733,0,0,1,0,3.465Zm-12.128,0a1.733,1.733,0,0,1,0-3.465v2.6a6.086,6.086,0,0,0,.069.866Zm.073-5.2H21.9A3.412,3.412,0,0,0,20.719,10a4.9,4.9,0,0,1,4.358-7.153H30.86A4.9,4.9,0,0,1,35.218,10a3.408,3.408,0,0,0-1.185-.223V8.043H32.709A15.614,15.614,0,0,1,25.757,6.4l-.321-.16-.571.191A4.322,4.322,0,0,0,21.977,9.776Zm1.66,4.332V10.541a2.6,2.6,0,0,1,1.675-2.429A17.385,17.385,0,0,0,32.3,9.771v4.337a4.332,4.332,0,1,1-8.663,0Zm4.332,6.064a6.032,6.032,0,0,0,1.76-.262,3.455,3.455,0,0,0,.191.9L27.968,23.15l-1.975-2.37a3.462,3.462,0,0,0,.206-.873,6.034,6.034,0,0,0,1.769.265ZM24.939,22.22,26.8,24.449l-1.631,1.631-.415-3.733C24.812,22.305,24.88,22.268,24.939,22.22ZM5.444,21.7a1.533,1.533,0,0,1,1.532-1.532h.156a1.527,1.527,0,0,1,1.017.387l1.383,1.23L7.282,24.04l-1.331-1.2A1.534,1.534,0,0,1,5.444,21.7ZM19.918,26.49l-1.225,1.225a2.087,2.087,0,0,1,.446.668L17.5,29.2a4.814,4.814,0,0,1-5.273-.713L8.572,25.2l2.258-2.258,3.139,2.79a3,3,0,0,1,1,2.237h1.733a4.72,4.72,0,0,0-.366-1.808,13.65,13.65,0,0,1,4.1-2.568,16.011,16.011,0,0,1,2.632-.611l.763,6.874,4.128-4.127L32.1,29.856l.755-6.793,2.337.292a5.635,5.635,0,0,1,3.268,1.6A5.565,5.565,0,0,1,40.1,28.916V32.3H36.631V29.193a2.107,2.107,0,0,1,.612-1.479L36.019,26.49a3.8,3.8,0,0,0-1.12,2.7V32.3H31.434a2.6,2.6,0,0,0-2.6,2.6V39.23H27.1V34.9a2.6,2.6,0,0,0-2.6-2.6H21.038V29.193A3.8,3.8,0,0,0,19.918,26.49ZM5.444,34.033H24.5a.867.867,0,0,1,.866.866v9.529H19.633a11.893,11.893,0,0,0,.539-3.465,5.2,5.2,0,1,0-10.4,0,11.893,11.893,0,0,0,.539,3.465H4.578V34.9a.867.867,0,0,1,.866-.866ZM4.578,48.76v-2.6h6.4c.018.037.03.076.049.113l.124.247-1.882.626a4.315,4.315,0,0,0-2.629,2.479h-1.2a.867.867,0,0,1-.866-.866Zm3.465,2.5A2.6,2.6,0,0,1,9.82,48.791l2.694-.9h4.92l2.693.9A2.6,2.6,0,0,1,21.9,51.257v1.834H8.043Z" transform="translate(-1.113 -1.113)"/><path d="M54.532,12.242H63.2v1.733H54.532Z" transform="translate(-12.95 -3.579)"/><path d="M54.532,16.694H63.2v1.733H54.532Z" transform="translate(-12.95 -4.565)"/><path d="M63.075,7.79H52.68a2.6,2.6,0,0,0-2.6,2.6v6.93a2.6,2.6,0,0,0,2.6,2.6h.866v1.374a2.091,2.091,0,0,0,3.57,1.479l2.853-2.853h3.107a2.6,2.6,0,0,0,2.6-2.6v-6.93A2.6,2.6,0,0,0,63.075,7.79Zm.866,9.529a.868.868,0,0,1-.866.866H59.251l-3.36,3.36a.373.373,0,0,1-.612-.254V18.186h-2.6a.868.868,0,0,1-.866-.866v-6.93a.868.868,0,0,1,.866-.866h10.4a.868.868,0,0,1,.866.866Z" transform="translate(-11.963 -2.592)"/></g></g></g></g></svg>