<svg xmlns="http://www.w3.org/2000/svg" xmlns:xlink="http://www.w3.org/1999/xlink" width="103" height="103" viewBox="0 0 103 103"><defs><filter id="a" x="0" y="0" width="103" height="103" filterUnits="userSpaceOnUse"><feOffset dy="3" input="SourceAlpha"/><feGaussianBlur stdDeviation="3" result="b"/><feFlood flood-opacity="0.161"/><feComposite operator="in" in2="b"/><feComposite in="SourceGraphic"/></filter><clipPath id="c"><rect width="52" height="52" transform="translate(0.1)" fill="#fff"/></clipPath></defs><g transform="translate(-780 -5998.5)"><g transform="matrix(1, 0, 0, 1, 780, 5998.5)" filter="url(#a)"><circle cx="42.5" cy="42.5" r="42.5" transform="translate(9 6)" fill="#fff"/></g><g transform="translate(807.247 6021)" clip-path="url(#c)"><g transform="translate(0.007 0)"><g transform="translate(0.844 0.844)"><g transform="translate(30.374 5.062)"><path d="M51.3,17.915a5.066,5.066,0,0,0-5.062,5.062V20.446a1.692,1.692,0,0,0-1.687-1.687H41.177V10.321A2.528,2.528,0,0,1,43.709,7.79H58.9a2.528,2.528,0,0,1,2.531,2.531V22.133A2.528,2.528,0,0,1,58.9,24.664H56.364V22.977A5.07,5.07,0,0,0,51.3,17.915a3.375,3.375,0,1,0-3.375-3.375A3.374,3.374,0,0,0,51.3,17.915Z" transform="translate(-41.177 -7.79)" fill="#e6e9ed"/></g><g transform="translate(35.436 15.187)"><path d="M57.979,26.207v1.687H56.292l-3.029,3.029a1.193,1.193,0,0,1-2.033-.844V27.895H47.855V26.207a5.066,5.066,0,0,1,5.062-5.062,5.07,5.07,0,0,1,5.062,5.062Z" transform="translate(-47.855 -21.145)" fill="#ef7385"/></g><g transform="translate(28.686 16.03)"><path d="M45.7,23.945v1.687h-6.75V23.945a1.692,1.692,0,0,1,1.687-1.687h3.375A1.692,1.692,0,0,1,45.7,23.945Z" transform="translate(-38.952 -22.258)" fill="#969faa"/></g><g transform="translate(28.686 24.468)"><path d="M40.639,34.332a1.814,1.814,0,0,0-.27-.945H45.7v1.687a1.692,1.692,0,0,1-1.687,1.687H38.952L40.116,35.6A1.788,1.788,0,0,0,40.639,34.332Z" transform="translate(-38.952 -33.387)" fill="#969faa"/></g><g transform="translate(28.686 19.405)"><path d="M45.7,29.241v2.531H40.369a1.928,1.928,0,0,0-.253-.321,1.768,1.768,0,0,0-1.164-.515V26.71H45.7v2.531Z" transform="translate(-38.952 -26.71)" fill="#69d6f4"/></g><g transform="translate(1.687)"><path d="M22.9,12.925H17.623a4.853,4.853,0,0,1-2.742-.844,4.919,4.919,0,0,1-1.806-2.236,1.811,1.811,0,0,0-3.4.1l-.43,1.291H8.528a1.8,1.8,0,0,0-1.806,1.687H5.87a2.525,2.525,0,0,0-1.789.742.423.423,0,0,0-.059.067,7.752,7.752,0,0,1-.683-3.181A9.448,9.448,0,0,1,12.78,1.113h4.742a9.441,9.441,0,0,1,9.441,9.441,7.752,7.752,0,0,1-.683,3.181,2.5,2.5,0,0,0-1.848-.81H22.9Z" transform="translate(-3.339 -1.113)" fill="#656d78"/></g><g transform="translate(0 28.458)"><path d="M21.362,51.535v9.281H7.863V52.378H1.113V48.624a10.135,10.135,0,0,1,7.846-9.871l.439-.1,1.839,6.134,3.375-3.375,3.375,3.375,1.8-5.982a10.1,10.1,0,0,1,5.332,4.016l1.645,2.472-5.4,5.4Z" transform="translate(-1.113 -38.651)" fill="#fcd770"/></g><g transform="translate(13.499 27.842)"><path d="M24.091,38.6v.008l-1.8,5.982-3.375-3.375,2.531-3.375,2.329.667c.1.034.211.059.312.093Z" transform="translate(-18.919 -37.839)" fill="#ffc729"/></g><g transform="translate(8.285 27.842)"><path d="M14.725,37.839l2.531,3.375-3.375,3.375-1.839-6.134Z" transform="translate(-12.042 -37.839)" fill="#ffc729"/></g><g transform="translate(37.123 8.437)"><circle cx="3.375" cy="3.375" r="3.375" fill="#f0d0b4"/></g><g transform="translate(0 42.185)"><path d="M1.113,56.758h6.75V65.2H1.113Z" transform="translate(-1.113 -56.758)" fill="#f0d0b4"/></g><g transform="translate(20.249 23.624)"><path d="M40.478,36.493,39.23,49.579a5.106,5.106,0,0,1-8.682,3.13l-2.725-2.717v-.844l5.4-5.4.506.759.844-4.64-.945-.945a2.543,2.543,0,0,1-.742-1.789V35.506a1.693,1.693,0,0,1,.5-1.2l1.51-1.51a1.788,1.788,0,0,1,1.266-.523.411.411,0,0,1,.1.008,1.768,1.768,0,0,1,1.164.515,1.927,1.927,0,0,1,.253.321,1.814,1.814,0,0,1,.27.945,1.788,1.788,0,0,1-.523,1.266L36.26,36.493Z" transform="translate(-27.823 -32.274)" fill="#f0d0b4"/></g><g transform="translate(1.687 11.812)"><path d="M6.714,16.82v4.936H5.87A2.525,2.525,0,0,1,4.022,17.5a.422.422,0,0,1,.059-.067,2.525,2.525,0,0,1,1.789-.742h.852A.639.639,0,0,0,6.714,16.82Z" transform="translate(-3.339 -16.694)" fill="#f0d0b4"/></g><g transform="translate(21.936 11.812)"><path d="M32.74,17.5a2.528,2.528,0,0,1-1.848,4.252h-.844V16.694h.844a2.5,2.5,0,0,1,1.848.81Z" transform="translate(-30.048 -16.694)" fill="#f0d0b4"/></g><g transform="translate(5.062 7.593)"><path d="M24.664,15.348v5.1a8.9,8.9,0,0,1-5.391,8.184.847.847,0,0,0-.515.776v1.974l-2.531,3.375L13.7,31.378V29.4a.847.847,0,0,0-.515-.776A8.875,8.875,0,0,1,7.79,20.452V15.474a.639.639,0,0,1,.008-.127A1.8,1.8,0,0,1,9.6,13.66h.717l.43-1.291a1.811,1.811,0,0,1,3.4-.1A4.919,4.919,0,0,0,15.957,14.5a4.853,4.853,0,0,0,2.742.844h5.965Z" transform="translate(-7.79 -11.129)" fill="#f0d0b4"/></g></g><g transform="translate(0 0)"><circle cx="0.844" cy="0.844" r="0.844" transform="translate(17.718 14.343)"/><circle cx="0.844" cy="0.844" r="0.844" transform="translate(9.281 14.343)"/><path d="M18.063,25.006,19,24.539a1.689,1.689,0,0,0,.755-2.265l-.377-.754V20.032H17.686V21.72a.846.846,0,0,0,.089.377l.467.932-.932.467Z" transform="translate(-4.187 -4.846)"/><path d="M17.871,30.233a3.554,3.554,0,0,0,3.2-1.976l.089-.178-1.509-.755-.089.179a1.887,1.887,0,0,1-3.375,0l-.089-.178-1.509.755.089.178A3.556,3.556,0,0,0,17.871,30.233Z" transform="translate(-3.528 -6.609)"/><path d="M48.935,5.062H33.748a3.378,3.378,0,0,0-3.375,3.375v7.749a2.528,2.528,0,0,0-1.687,2.376v5.18a2.605,2.605,0,0,0-1.12.653l-1.513,1.513a2.513,2.513,0,0,0-.742,1.79v1.628a3.354,3.354,0,0,0,.989,2.387l.633.633L26.541,34.5l-1-1.493a10.978,10.978,0,0,0-6.114-4.462l-1.714-.489v-1.34a9.731,9.731,0,0,0,5.87-8.149h.035a3.37,3.37,0,0,0,2.809-5.239A8.537,8.537,0,0,0,27,10.287,10.3,10.3,0,0,0,16.711,0H11.974A10.3,10.3,0,0,0,1.687,10.286a8.527,8.527,0,0,0,.566,3.037,3.369,3.369,0,0,0,2.809,5.239H5.1a9.728,9.728,0,0,0,5.87,8.149v1.3L8.5,28.583A10.92,10.92,0,0,0,0,39.272V52.31H21.936V44.218L23.221,45.5a5.948,5.948,0,0,0,10.12-3.648L34.515,29.53h.077A2.534,2.534,0,0,0,37.123,27V23.624h1.687v1.338a2.037,2.037,0,0,0,3.477,1.44l2.778-2.778h3.869a3.378,3.378,0,0,0,3.375-3.375V8.437a3.379,3.379,0,0,0-3.375-3.375ZM31.217,17.718h3.375a.845.845,0,0,1,.844.844v.844H30.374v-.844A.845.845,0,0,1,31.217,17.718Zm4.219,6.75H31.348a2.63,2.63,0,0,0-.974-.661V21.093h5.062v3.375Zm-16.974,5.55L17.315,33.84l-1.859-1.859L17.2,29.657Zm5.162-13.143V13.5a1.687,1.687,0,1,1,0,3.375ZM11.974,1.687h4.737a8.609,8.609,0,0,1,8.6,8.6,6.872,6.872,0,0,1-.262,1.853,3.343,3.343,0,0,0-1.426-.327H22.087a4.05,4.05,0,0,1-3.842-2.773l-.57-1.712-1.6.533.57,1.713a5.741,5.741,0,0,0,1.38,2.239H16.817a4.039,4.039,0,0,1-3.766-2.55,2.655,2.655,0,0,0-4.983.146l-.239.716H7.717A2.654,2.654,0,0,0,5.25,11.812H5.062a3.34,3.34,0,0,0-1.426.327,6.868,6.868,0,0,1-.262-1.853,8.609,8.609,0,0,1,8.6-8.6Zm-8.6,13.5A1.689,1.689,0,0,1,5.062,13.5v3.375A1.689,1.689,0,0,1,3.375,15.187Zm3.375,2.57V12.779a.968.968,0,0,1,.967-.967H9.045l.624-1.87a.967.967,0,0,1,1.815-.053,5.716,5.716,0,0,0,5.333,3.61h5.12v4.256a8.048,8.048,0,0,1-4.884,7.406,1.685,1.685,0,0,0-1.022,1.551v1.693l-1.687,2.249-1.687-2.249V26.712a1.686,1.686,0,0,0-1.023-1.551,8.048,8.048,0,0,1-4.883-7.4Zm4.716,11.875,1.763,2.35L11.37,33.84,10.2,29.925ZM1.687,43.873H6.75v6.75H1.687Zm18.562,6.75H8.437V35.436H6.75v6.75H1.687V39.272A9.23,9.23,0,0,1,8.552,30.32l2.014,6.712,3.777-3.777,3.777,3.777,1.941-6.472a9.287,9.287,0,0,1,4.081,3.379l1.264,1.9-3.47,3.47V35.436H20.249Zm11.412-8.931A4.26,4.26,0,0,1,24.414,44.3l-2.477-2.469v-.144l4.03-4.03-.642,3.53,1.66.3,1.767-9.715-1.259-1.259A1.673,1.673,0,0,1,27,29.325V27.7a.84.84,0,0,1,.247-.6l1.513-1.513A.946.946,0,0,1,30.1,26.926l-1.652,1.652,2.071,3.107,1.4-.936-.814-1.219H32.82Zm2.931-13.849H31.518a2.611,2.611,0,0,0,.543-1.585c0-.035-.009-.067-.01-.1h3.385V27A.845.845,0,0,1,34.592,27.842Zm9.774-5.906-3.273,3.273a.362.362,0,0,1-.6-.247V21.936H37.123v-.844a4.219,4.219,0,1,1,8.437,0v.844Zm-5.556-9.281a2.531,2.531,0,1,1,2.531,2.531A2.534,2.534,0,0,1,38.811,12.656Zm11.812,7.593a1.689,1.689,0,0,1-1.687,1.687H47.248v-.844a5.908,5.908,0,0,0-3.188-5.238,4.219,4.219,0,1,0-5.435,0,5.938,5.938,0,0,0-1.833,1.478,2.523,2.523,0,0,0-2.2-1.3H32.061V8.437A1.689,1.689,0,0,1,33.748,6.75H48.935a1.689,1.689,0,0,1,1.687,1.687Z" transform="translate(0 0)"/><path d="M56.622,49.717l1.194,1.193a.862.862,0,0,1,1.192,0L60.2,49.717A2.591,2.591,0,0,0,56.622,49.717Z" transform="translate(-13.696 -11.852)"/><path d="M53.475,46.247l1.193,1.193a4.224,4.224,0,0,1,5.966,0l1.193-1.193a5.913,5.913,0,0,0-8.352,0Z" transform="translate(-12.935 -10.769)"/><path d="M50.327,42.784l1.193,1.193a7.6,7.6,0,0,1,10.74,0l1.193-1.193A9.292,9.292,0,0,0,50.327,42.784Z" transform="translate(-12.173 -9.692)"/><path d="M57.871,62.323h1.687V64.01H57.871Z" transform="translate(-13.998 -15.075)"/><path d="M57.871,57.871h1.687v1.687H57.871Z" transform="translate(-13.998 -13.998)"/><path d="M57.871,53.419h1.687v1.687H57.871Z" transform="translate(-13.998 -12.921)"/></g></g></g></g></svg>