<svg xmlns="http://www.w3.org/2000/svg" xmlns:xlink="http://www.w3.org/1999/xlink" width="103" height="103" viewBox="0 0 103 103"><defs><filter id="a" x="0" y="0" width="103" height="103" filterUnits="userSpaceOnUse"><feOffset dy="3" input="SourceAlpha"/><feGaussianBlur stdDeviation="3" result="b"/><feFlood flood-opacity="0.161"/><feComposite operator="in" in2="b"/><feComposite in="SourceGraphic"/></filter><clipPath id="c"><rect width="54" height="49" transform="translate(192 1709)" fill="#fff"/></clipPath></defs><g transform="translate(-383.723 -1677)"><g transform="matrix(1, 0, 0, 1, 383.72, 1677)" filter="url(#a)"><circle cx="42.5" cy="42.5" r="42.5" transform="translate(9 6)" fill="#fff"/></g><g transform="translate(213.723 -9)" clip-path="url(#c)"><g transform="translate(195.441 1709)"><g transform="translate(0.785 0.785)"><path d="M15.081,29.565V46.056A3.141,3.141,0,0,0,18.222,49.2H46.493a3.141,3.141,0,0,0,3.141-3.141V7.577a3.141,3.141,0,0,0-3.141-3.141H18.222a3.141,3.141,0,0,0-3.141,3.141V29.565Z" transform="translate(-4.086 -2.08)" fill="#953528"/><path d="M46.849,4.435H18.578a3.1,3.1,0,0,0-.384.038c0,.119-.009.236-.009.354a36.91,36.91,0,0,0,31.8,36.549V7.577A3.141,3.141,0,0,0,46.849,4.435Z" transform="translate(-4.443 -2.08)" fill="#c64635"/><path d="M18.629,35.731v9.162A1.57,1.57,0,0,0,20.2,46.464h25.13A1.57,1.57,0,0,0,46.9,44.893V9.554a1.57,1.57,0,0,0-1.571-1.571H20.2a1.57,1.57,0,0,0-1.571,1.571V35.731Z" transform="translate(-4.494 -2.487)" fill="#d9d5ca"/><path d="M7.373,30.161,2.661,38l4.712-.769,1.571,3.926,4.712-8.638Z" transform="translate(-2.661 -5.032)" fill="#5490f5"/><path d="M21.363,30.161,26.075,38l-4.712-.769-1.571,3.926-4.712-8.638Z" transform="translate(-4.086 -5.032)" fill="#81b4fc"/><path d="M18.629,10.607A36.932,36.932,0,0,0,46.9,41.206V9.554a1.57,1.57,0,0,0-1.571-1.571H20.2a1.57,1.57,0,0,0-1.571,1.571Z" transform="translate(-4.494 -2.487)" fill="#e8e4d8"/><path d="M40.545,9.627H26.409a1.57,1.57,0,0,1-1.571-1.571V3.345a1.57,1.57,0,0,1,1.571-1.571H40.545a1.57,1.57,0,0,1,1.571,1.571V8.057A1.57,1.57,0,0,1,40.545,9.627Z" transform="translate(-5.206 -1.774)" fill="#d5d6d8"/><path d="M23.283,20.956a9.424,9.424,0,0,1-18.847,0,9.424,9.424,0,1,1,18.847,0Z" transform="translate(-2.865 -2.894)" fill="#ffc239"/><circle cx="7.068" cy="7.068" r="7.068" transform="translate(3.926 10.994)" fill="#ffd55d"/><g transform="translate(7.151 14.365)"><path d="M13.012,24.839a.753.753,0,0,1-.126-.01.786.786,0,0,1-.576-.424l-1.571-3.141,1.4-.7,1.083,2.167L17.954,18l1.11,1.11-5.5,5.5a.783.783,0,0,1-.555.231Z" transform="translate(-10.739 -18.001)" fill="#f4ac1c"/></g><path d="M40.85,1.774H27.5V5.7a1.57,1.57,0,0,0,1.571,1.571h13.35V3.345A1.57,1.57,0,0,0,40.85,1.774Z" transform="translate(-5.512 -1.774)" fill="#f1f1f3"/><g transform="translate(22.956 12.847)"><path d="M30.505,20.716a.785.785,0,0,1-.6-.283l-1.309-1.571L29.8,17.858l.705.847,2.014-2.417,1.206,1.005-2.617,3.141a.783.783,0,0,1-.6.283Z" transform="translate(-28.593 -16.287)" fill="#c64635"/></g><g transform="translate(22.956 20.701)"><path d="M30.505,29.587a.787.787,0,0,1-.6-.282l-1.309-1.571L29.8,26.73l.705.847,2.014-2.417,1.206,1.005-2.617,3.141a.785.785,0,0,1-.6.282Z" transform="translate(-28.593 -25.159)" fill="#c64635"/></g><g transform="translate(29.841 13.35)"><path d="M36.371,16.855H46.58v1.571H36.371Z" transform="translate(-36.371 -16.855)" fill="#88857c"/></g><g transform="translate(29.841 15.706)"><path d="M36.371,19.516H46.58v1.571H36.371Z" transform="translate(-36.371 -19.516)" fill="#88857c"/></g><g transform="translate(29.841 21.203)"><path d="M36.371,25.726H46.58V27.3H36.371Z" transform="translate(-36.371 -25.726)" fill="#88857c"/></g><g transform="translate(29.841 23.559)"><path d="M36.371,28.387H46.58v1.571H36.371Z" transform="translate(-36.371 -28.387)" fill="#88857c"/></g><g transform="translate(22.956 28.553)"><path d="M30.505,38.458a.787.787,0,0,1-.6-.282l-1.309-1.571L29.8,35.6l.705.847,2.014-2.417,1.206,1.006-2.617,3.141a.785.785,0,0,1-.6.282Z" transform="translate(-28.593 -34.029)" fill="#c64635"/></g><g transform="translate(22.956 36.406)"><path d="M30.505,47.329a.787.787,0,0,1-.6-.282l-1.309-1.571L29.8,44.471l.705.847L32.519,42.9l1.206,1.006-2.617,3.141a.785.785,0,0,1-.6.282Z" transform="translate(-28.593 -42.9)" fill="#c64635"/></g><g transform="translate(29.841 29.056)"><path d="M36.371,34.6H46.58v1.571H36.371Z" transform="translate(-36.371 -34.597)" fill="#88857c"/></g><g transform="translate(29.841 31.412)"><path d="M36.371,37.258H46.58v1.571H36.371Z" transform="translate(-36.371 -37.258)" fill="#88857c"/></g><g transform="translate(29.841 36.909)"><path d="M36.371,43.468H46.58v1.571H36.371Z" transform="translate(-36.371 -43.468)" fill="#88857c"/></g><g transform="translate(29.841 39.265)"><path d="M36.371,46.129H46.58V47.7H36.371Z" transform="translate(-36.371 -46.129)" fill="#88857c"/></g></g><g transform="translate(0 0)"><path d="M14.063,29.012A7.853,7.853,0,1,0,6.21,21.159,7.862,7.862,0,0,0,14.063,29.012Zm0-14.135A6.282,6.282,0,1,1,7.78,21.159,6.29,6.29,0,0,1,14.063,14.877Z" transform="translate(-2.283 -2.312)"/><path d="M12.886,24.829a.753.753,0,0,0,.126.01.785.785,0,0,0,.555-.23l5.5-5.5L17.954,18l-4.727,4.727-1.083-2.167-1.4.7,1.571,3.141a.784.784,0,0,0,.576.423Z" transform="translate(-2.803 -2.851)"/><path d="M1.909,35.078a.786.786,0,0,0,.777.335l4.09-.668,1.337,3.341a.786.786,0,0,0,.682.492l.047,0a.785.785,0,0,0,.689-.409l3.237-5.935V45.649a3.931,3.931,0,0,0,3.926,3.926H44.966a3.931,3.931,0,0,0,3.926-3.926V7.169a3.931,3.931,0,0,0-3.926-3.926H40.254A2.359,2.359,0,0,0,37.9.887H23.763a2.359,2.359,0,0,0-2.356,2.356H16.695a3.931,3.931,0,0,0-3.926,3.926v2.4A10.284,10.284,0,0,0,3.345,19.728a10,10,0,0,0,2.888,7.151c.016.016.033.029.049.045l-4.4,7.31a.785.785,0,0,0,.023.845ZM23.763,10.311H37.9a2.359,2.359,0,0,0,2.356-2.356H43.4a.787.787,0,0,1,.785.785V44.079a.786.786,0,0,1-.785.785H18.265a.786.786,0,0,1-.785-.785V38l.1.176a.785.785,0,0,0,.689.409l.047,0A.784.784,0,0,0,19,38.087l1.337-3.341,4.09.668a.786.786,0,0,0,.8-1.18l-4.389-7.3a10.118,10.118,0,0,0,2.931-7.2,10.267,10.267,0,0,0-6.282-9.414V8.74a.787.787,0,0,1,.785-.785h3.141a2.359,2.359,0,0,0,2.356,2.356Zm-4.14,17.66L23,33.59l-3.039-.5a.783.783,0,0,0-.856.484l-.951,2.377-3.323-6.092a10,10,0,0,0,4.79-1.893ZM44.966,4.814a2.359,2.359,0,0,1,2.356,2.356v38.48a2.359,2.359,0,0,1-2.356,2.356H16.695a2.359,2.359,0,0,1-2.356-2.356V32.237l1.571,2.88v8.962a2.359,2.359,0,0,0,2.356,2.356H43.4a2.359,2.359,0,0,0,2.356-2.356V8.74A2.359,2.359,0,0,0,43.4,6.384H40.254V4.814ZM22.977,3.243a.787.787,0,0,1,.785-.785H37.9a.787.787,0,0,1,.785.785V7.955a.787.787,0,0,1-.785.785H23.763a.787.787,0,0,1-.785-.785ZM16.695,4.814h4.712V6.384H18.265A2.359,2.359,0,0,0,15.91,8.74V9.813a10.149,10.149,0,0,0-1.571-.247v-2.4A2.359,2.359,0,0,1,16.695,4.814ZM4.915,19.741a8.638,8.638,0,1,1,17.277,0A8.56,8.56,0,0,1,19.67,25.88a8.728,8.728,0,0,1-12.317-.1,8.437,8.437,0,0,1-2.438-6.036ZM7.5,27.954a10.246,10.246,0,0,0,4.786,1.9l-3.33,6.1L8,33.579a.786.786,0,0,0-.856-.484l-3.039.5Z" transform="translate(-1.774 -0.887)"/><path d="M30.505,20.716a.785.785,0,0,0,.6-.283l2.617-3.141L32.52,16.287,30.505,18.7l-.705-.847-1.206,1.005L29.9,20.433a.781.781,0,0,0,.6.283Z" transform="translate(-4.852 -2.654)"/><path d="M30.505,29.587a.787.787,0,0,0,.6-.282l2.617-3.141L32.52,25.159l-2.014,2.417L29.8,26.73l-1.206,1.005L29.9,29.305a.783.783,0,0,0,.6.282Z" transform="translate(-4.852 -3.672)"/><path d="M36.371,16.855H46.58v1.571H36.371Z" transform="translate(-5.744 -2.719)"/><path d="M36.371,19.516H46.58v1.571H36.371Z" transform="translate(-5.744 -3.025)"/><path d="M36.371,25.726H46.58V27.3H36.371Z" transform="translate(-5.744 -3.737)"/><path d="M36.371,28.387H46.58v1.571H36.371Z" transform="translate(-5.744 -4.043)"/><path d="M30.505,38.458a.787.787,0,0,0,.6-.282l2.617-3.141L32.52,34.029l-2.014,2.417L29.8,35.6l-1.206,1.006L29.9,38.176a.783.783,0,0,0,.6.282Z" transform="translate(-4.852 -4.69)"/><path d="M30.505,47.329a.787.787,0,0,0,.6-.282l2.617-3.141L32.52,42.9l-2.014,2.417-.705-.847-1.206,1.006L29.9,47.047a.783.783,0,0,0,.6.282Z" transform="translate(-4.852 -5.708)"/><path d="M36.371,34.6H46.58v1.571H36.371Z" transform="translate(-5.744 -4.755)"/><path d="M36.371,37.258H46.58v1.571H36.371Z" transform="translate(-5.744 -5.061)"/><path d="M36.371,43.468H46.58v1.571H36.371Z" transform="translate(-5.744 -5.773)"/><path d="M36.371,46.129H46.58V47.7H36.371Z" transform="translate(-5.744 -6.079)"/></g></g></g></g></svg>