<svg xmlns="http://www.w3.org/2000/svg" xmlns:xlink="http://www.w3.org/1999/xlink" width="181.681" height="181.681" viewBox="0 0 181.681 181.681"><defs><clipPath id="a"><rect width="181.681" height="181.681" transform="translate(284 2422)" fill="#fff"/></clipPath></defs><g transform="translate(-284 -2422)" clip-path="url(#a)"><g transform="translate(285.465 2422.001)"><rect width="111.353" height="99.632" rx="2.774" transform="translate(8.791 79.119)" fill="#f7d881"/><path d="M95.989,42.706l-9.7-2.168A39.735,39.735,0,0,1,60.825,22.194,39.735,39.735,0,0,1,35.361,40.537l-9.7,2.168a82.05,82.05,0,0,0,32.82,65.64l2.344,1.758,2.344-1.758A82.05,82.05,0,0,0,95.989,42.706Z" transform="translate(79.831 68.647)" fill="#78b75b"/><path d="M45.763,96.478C69.206,90.148,87.2,68.757,91.887,41.8l-5.6-1.26A39.735,39.735,0,0,1,60.825,22.194,39.735,39.735,0,0,1,35.361,40.537l-9.7,2.168a82.05,82.05,0,0,0,20.1,53.772Z" transform="translate(79.831 68.647)" fill="#96cc7f"/><path d="M7.785,77.576H22.437v-29.3a29.3,29.3,0,0,1,58.607,0v29.3H95.7a11.985,11.985,0,0,1,2.93.41V48.273a46.885,46.885,0,0,0-93.771,0V77.986a11.985,11.985,0,0,1,2.93-.41Z" transform="translate(12.727 1.543)" fill="#c1c8d1"/><path d="M1.387,24.968H36.551V77.714H1.387Z" transform="translate(1.543 77.594)" fill="#f5b95b"/><path d="M30.76,55.883V30.828a5.861,5.861,0,1,0-11.721,0V55.883a11.721,11.721,0,1,0,11.721,0Z" transform="translate(39.568 77.594)" fill="#c1c8d1"/><circle cx="17.582" cy="17.582" r="17.582" transform="translate(123.074 117.214)" fill="#ebf7fe"/><path d="M35.89,56.508V33.065a8.791,8.791,0,0,0-17.582,0V56.508a14.652,14.652,0,0,0,5.3,25.9,15.734,15.734,0,0,0,3.487.469A14.652,14.652,0,0,0,35.89,56.508ZM32.55,75.057A8.791,8.791,0,1,1,22.7,60.61a2.93,2.93,0,0,0,1.465-2.549v-25a2.93,2.93,0,0,1,5.861,0V58.12a2.93,2.93,0,0,0,1.465,2.549A8.791,8.791,0,0,1,32.55,75.116Z" transform="translate(37.368 75.357)" fill="#12263f"/><path d="M177.159,109.116l-9.7-2.139a37.01,37.01,0,0,1-23.443-17,2.93,2.93,0,0,0-5.04,0,36.776,36.776,0,0,1-15.208,13.948v-12.4a14.652,14.652,0,0,0-8.791-13.421v-27.6a49.816,49.816,0,1,0-99.632,0v27.6A14.652,14.652,0,0,0,6.554,91.534v8.791H3.624a2.93,2.93,0,0,0-2.93,2.93V156a2.93,2.93,0,0,0,2.93,2.93h2.93v8.791a14.652,14.652,0,0,0,14.652,14.652h87.91a14.652,14.652,0,0,0,14.652-14.652v-.381a85.214,85.214,0,0,0,13.48,12.688l2.344,1.758a2.93,2.93,0,0,0,3.516,0l2.344-1.758a85.419,85.419,0,0,0,33.992-67.984,2.93,2.93,0,0,0-2.286-2.93ZM21.206,50.509a43.955,43.955,0,0,1,87.91,0V76.882H97.395V50.509a32.234,32.234,0,1,0-64.467,0V76.882H21.206ZM91.534,76.882H38.788V50.509a26.373,26.373,0,1,1,52.746,0Zm-55.676,29.3v11.721H6.554V106.186Zm-29.3,46.885V141.35h29.3v11.721Zm29.3-17.582H6.554V123.768h29.3Zm82.05,32.234a8.791,8.791,0,0,1-8.791,8.791H21.206a8.791,8.791,0,0,1-8.791-8.791v-8.791H38.788a2.93,2.93,0,0,0,2.93-2.93V103.255a2.93,2.93,0,0,0-2.93-2.93H12.415V91.534a8.791,8.791,0,0,1,8.791-8.791h87.91a8.791,8.791,0,0,1,8.791,8.791v14.652c-.879.264-1.758.527-2.667.733l-9.7,2.2a2.93,2.93,0,0,0-2.286,2.93,85.39,85.39,0,0,0,14.652,47.589Zm24.029,7.619-.586.44-.586-.44a79.559,79.559,0,0,1-31.648-60.951l7.355-1.641a42.871,42.871,0,0,0,24.879-15.97A42.871,42.871,0,0,0,166.2,112.75l7.384,1.641a79.559,79.559,0,0,1-31.648,60.951Z" transform="translate(-0.694 -0.694)" fill="#12263f"/><path d="M67.5,30.067,62.285,27.43l-1.993,3.956a20.776,20.776,0,1,0,4.6,3.692ZM64.893,49.261A14.8,14.8,0,1,1,57.655,36.69L49.743,52.514l-5.861-7.941-4.689,3.516L47.985,59.81a2.93,2.93,0,0,0,2.344,1.172h.264a2.93,2.93,0,0,0,2.344-1.612l9.289-18.578a14.417,14.417,0,0,1,2.667,8.469Z" transform="translate(90.415 85.535)" fill="#12263f"/></g></g></svg>