<svg xmlns="http://www.w3.org/2000/svg" xmlns:xlink="http://www.w3.org/1999/xlink" width="124" height="124" viewBox="0 0 124 124"><defs><clipPath id="a"><rect width="74" height="74" transform="translate(336 1486)" fill="#fff"/></clipPath></defs><g transform="translate(-289.001 -1324.125)"><circle cx="62" cy="62" r="62" transform="translate(289.001 1324.125)" fill="#fff"/><g transform="translate(-22.652 -133)" clip-path="url(#a)"><g transform="translate(336 1486)"><path d="M79.591,23.249,66.75,10.383V61.94H83.936V33.7A14.731,14.731,0,0,0,79.591,23.249Z" transform="translate(-11.511 -1.791)" fill="#ffb782"/><path d="M11.52,51.011,1.812,25.81a4.909,4.909,0,0,1,2.817-6.346L50.45,1.814A4.909,4.909,0,0,1,56.8,4.631l9.707,25.2a4.909,4.909,0,0,1-2.817,6.346L17.867,53.828A4.912,4.912,0,0,1,11.52,51.011Z" transform="translate(-0.256 -0.256)" fill="#de4c3c"/><path d="M61.1,16.257l-54.94,21.3,3.658,9.5L64.762,25.763Z" transform="translate(-1.063 -2.804)" fill="#7a4930"/><path d="M1.483,33.4V6.393a4.91,4.91,0,0,1,4.91-4.91H55.5a4.91,4.91,0,0,1,4.91,4.91V33.4a4.91,4.91,0,0,1-4.91,4.91H6.393A4.91,4.91,0,0,1,1.483,33.4Z" transform="translate(-0.256 -0.256)" fill="#4398d1"/><path d="M57.989,1.483H52.772L15.946,38.31H57.989A4.91,4.91,0,0,0,62.9,33.4V6.393A4.91,4.91,0,0,0,57.989,1.483Z" transform="translate(-2.75 -0.256)" fill="#3e8cc7"/><rect width="4.91" height="2.455" transform="translate(6.138 20.868)" fill="#5eb3d1"/><rect width="4.91" height="2.455" transform="translate(6.138 28.233)" fill="#5eb3d1"/><rect width="4.91" height="2.455" transform="translate(28.233 28.233)" fill="#5eb3d1"/><rect width="4.91" height="2.455" transform="translate(13.503 20.868)" fill="#5eb3d1"/><rect width="4.91" height="2.455" transform="translate(20.868 20.868)" fill="#5eb3d1"/><rect width="4.91" height="2.455" transform="translate(28.233 20.868)" fill="#5eb3d1"/><rect width="2.455" height="3.683" transform="translate(51.557 6.138)" fill="#5eb3d1"/><rect width="2.455" height="3.683" transform="translate(46.647 6.138)" fill="#5eb3d1"/><rect width="2.455" height="3.683" transform="translate(41.736 6.138)" fill="#5eb3d1"/><rect width="2.455" height="3.683" transform="translate(36.826 6.138)" fill="#5eb3d1"/><rect width="22.096" height="12.275" transform="translate(50.329 60.149)" fill="#88b337"/><path d="M54.571,27.956a5.321,5.321,0,0,0-7.684,7.359L56.947,46.29a16.555,16.555,0,0,0,.335,16.985l.892,1.428H74.132V47.517Z" transform="translate(-7.845 -4.553)" fill="#ffb782"/><rect width="2.455" height="2.455" transform="translate(54.012 63.832)" fill="#6b962a"/><path d="M7.417,15.273V9.381A1.963,1.963,0,0,1,9.381,7.417h5.892a1.963,1.963,0,0,1,1.964,1.964v5.892a1.963,1.963,0,0,1-1.964,1.964H9.381A1.964,1.964,0,0,1,7.417,15.273Z" transform="translate(-1.279 -1.279)" fill="#fdb62f"/><rect width="3.683" height="2.455" transform="translate(6.138 9.82)" fill="#fd7b2f"/><rect width="3.683" height="2.455" transform="translate(12.275 9.82)" fill="#fd7b2f"/><path d="M77.341,50.385a1.224,1.224,0,0,1-.868-.36l-4.91-4.91A1.228,1.228,0,0,1,73.3,43.38l4.91,4.91a1.228,1.228,0,0,1-.868,2.1Z" transform="translate(-12.281 -7.421)" fill="#f2a46f"/><path d="M61.377,13V6.138A6.145,6.145,0,0,0,55.239,0H6.138A6.145,6.145,0,0,0,0,6.138V33.143a6.124,6.124,0,0,0,5.5,6.074L10.119,51.2a6.137,6.137,0,0,0,7.934,3.521l28.815-11.1A17.741,17.741,0,0,0,48.4,59.372l.7,1.128V72.425a1.228,1.228,0,0,0,1.228,1.228h22.1a1.228,1.228,0,0,0,1.228-1.228V31.9a16.062,16.062,0,0,0-4.7-11.314Zm0,7.341L65.1,30.017a3.682,3.682,0,0,1-2.114,4.759l-2.13.822a6.121,6.121,0,0,0,.518-2.455ZM2.455,33.144V6.138A3.682,3.682,0,0,1,6.138,2.455h49.1a3.682,3.682,0,0,1,3.683,3.683v7.8h-.011l.011.028V33.144a3.7,3.7,0,0,1-.083.636L47.594,22.534a6.549,6.549,0,0,0-9.452,9.057l4.794,5.235H6.138a3.682,3.682,0,0,1-3.683-3.683Zm15.726,6.138L9.452,42.642,8.161,39.281ZM17.17,52.426a3.683,3.683,0,0,1-4.76-2.113h0l-2.071-5.385,14.653-5.647v-.007H45.186l1.6,1.739ZM71.2,71.2H51.557v-9.82H71.2Zm0-12.275H51.01l-.533-.851a15.308,15.308,0,0,1-.311-15.721,1.227,1.227,0,0,0-.161-1.439L39.947,29.937a4.094,4.094,0,0,1,5.912-5.661L65.419,43.832,67.155,42.1l-4.542-4.542,1.26-.491a6.137,6.137,0,0,0,3.519-7.93L63.236,18.344l3.977,3.985A13.592,13.592,0,0,1,71.2,31.9V58.922Z"/><path d="M15.017,18.209a3.191,3.191,0,0,0,3.192-3.192h0V9.125a3.191,3.191,0,0,0-3.192-3.192H9.125A3.191,3.191,0,0,0,5.933,9.125h0v5.892a3.191,3.191,0,0,0,3.192,3.192h5.892ZM8.388,15.017V13.3h2.455V10.843H8.388V9.125a.737.737,0,0,1,.737-.737h5.892a.737.737,0,0,1,.737.737h0v1.718H13.3V13.3h2.455v1.719a.737.737,0,0,1-.737.737H9.125a.737.737,0,0,1-.737-.737Z" transform="translate(-1.023 -1.023)"/><rect width="4.91" height="2.455" transform="translate(6.138 20.868)"/><rect width="4.91" height="2.455" transform="translate(6.138 28.233)"/><rect width="4.91" height="2.455" transform="translate(28.233 28.233)"/><rect width="4.91" height="2.455" transform="translate(13.503 20.868)"/><rect width="4.91" height="2.455" transform="translate(20.868 20.868)"/><rect width="4.91" height="2.455" transform="translate(28.233 20.868)"/><rect width="2.455" height="3.683" transform="translate(51.557 6.138)"/><rect width="2.455" height="3.683" transform="translate(46.647 6.138)"/><rect width="2.455" height="3.683" transform="translate(41.736 6.138)"/><rect width="2.455" height="3.683" transform="translate(36.826 6.138)"/><rect width="2.455" height="2.455" transform="translate(54.012 63.832)"/></g></g></g></svg>