<svg xmlns="http://www.w3.org/2000/svg" xmlns:xlink="http://www.w3.org/1999/xlink" width="103" height="103" viewBox="0 0 103 103"><defs><filter id="a" x="0" y="0" width="103" height="103" filterUnits="userSpaceOnUse"><feOffset dy="3" input="SourceAlpha"/><feGaussianBlur stdDeviation="3" result="b"/><feFlood flood-opacity="0.161"/><feComposite operator="in" in2="b"/><feComposite in="SourceGraphic"/></filter></defs><g transform="translate(-591 -933)"><g transform="matrix(1, 0, 0, 1, 591, 933)" filter="url(#a)"><circle cx="42.5" cy="42.5" r="42.5" transform="translate(9 6)" fill="#fff"/></g><g transform="translate(615.172 954.163)"><path d="M47.948,10.392V44.935a1.079,1.079,0,0,1-1.079,1.079H18.02a1.079,1.079,0,0,1-1.08-1.079V10.392a1.08,1.08,0,0,1,1.08-1.08H46.869A1.08,1.08,0,0,1,47.948,10.392Zm0,0" transform="translate(-2.312 -1.271)" fill="#f44545"/><path d="M51.52,10.392V44.935a1.079,1.079,0,0,1-1.079,1.079H43.116V9.312h7.325a1.08,1.08,0,0,1,1.079,1.08Zm0,0" transform="translate(-5.885 -1.271)" fill="#c42d2d"/><path d="M38.271,39.552a2.3,2.3,0,0,0-1.006,3.092l.708,1.392a.675.675,0,0,1-.6.981H34.639l-6.459,0a1.53,1.53,0,1,0-.042,3.059c-3.018,0-2.846,0-2.859,0a1.6,1.6,0,0,0-1.078.483,1.556,1.556,0,0,0-.416,1.5,1.442,1.442,0,0,0,1.462,1.07h1.328a1.529,1.529,0,0,0,.031,3.058l4.768,0a1.527,1.527,0,0,0-1.53,1.529,1.53,1.53,0,0,0,1.529,1.53l10.7,0H42.1a3.61,3.61,0,0,0,3.611-3.6l-.014-8.083a3.674,3.674,0,0,0-.042-.556h-2.04a2.444,2.444,0,0,1-2.179-1.336L39.54,39.965a.944.944,0,0,0-1.27-.413Zm0,0" transform="translate(-3.24 -5.384)" fill="#f2bb88"/><path d="M46.67,54.3a3.611,3.611,0,0,1-3.609,3.483h-.028l-12.223,0a1.529,1.529,0,0,0,1.528,1.5l10.7,0h.028a3.61,3.61,0,0,0,3.611-3.6Zm0,0" transform="translate(-4.205 -7.411)" fill="#e3a76f"/><path d="M51,58.062h5.486c1.129,0,2.059-.7,2.059-1.548V45.089a1.864,1.864,0,0,0-2.052-1.555H51.007c-1.129,0-2.054.7-2.054,1.548l0,11.425A1.863,1.863,0,0,0,51,58.062Zm0,0" transform="translate(-6.681 -5.942)" fill="#d2d2d7"/><path d="M53.295,58.062H57.08c1.129,0,2.059-.7,2.059-1.548V45.089a1.864,1.864,0,0,0-2.052-1.555H53.295Zm0,0" transform="translate(-7.274 -5.942)" fill="#5596fb"/><path d="M19.235,15.065a2.3,2.3,0,0,1,1.006,3.092l-.708,1.392a.675.675,0,0,0,.6.981h2.731l6.459,0a1.53,1.53,0,1,1,.042,3.059c2.415,0,2.843,0,2.859,0a1.6,1.6,0,0,1,1.077.483,1.561,1.561,0,0,1,.416,1.5,1.442,1.442,0,0,1-1.462,1.07H30.93A1.529,1.529,0,0,1,30.9,29.7l-4.768,0a1.525,1.525,0,0,1,1.53,1.529,1.529,1.529,0,0,1-1.529,1.53l-10.7,0H15.41a3.61,3.61,0,0,1-3.611-3.6l.014-8.083a3.623,3.623,0,0,1,.042-.556h2.04a2.444,2.444,0,0,0,2.179-1.336l1.892-3.716a.944.944,0,0,1,1.27-.413Zm0,0" transform="translate(-1.61 -2.042)" fill="#f2bb88"/><path d="M11.8,29.812a3.609,3.609,0,0,0,3.609,3.483h.028l12.223,0a1.529,1.529,0,0,1-1.528,1.5l-10.7,0H15.41A3.609,3.609,0,0,1,11.8,31.2Zm0,0" transform="translate(-1.61 -4.069)" fill="#e3a76f"/><path d="M10.512,31.652a1.863,1.863,0,0,1-2.051,1.554H2.975c-1.13,0-2.059-.7-2.059-1.549V20.234a1.864,1.864,0,0,1,2.052-1.555H8.455c1.129,0,2.053.7,2.054,1.549Zm0,0" transform="translate(-0.125 -2.549)" fill="#ebebf0"/><path d="M6.241,31.766l1.234,1.44h-4.5c-1.13,0-2.06-.7-2.06-1.549V20.234a1.864,1.864,0,0,1,2.052-1.555H7.475L6.241,20.117a1.5,1.5,0,0,0,0,1.953l.405.472a1.5,1.5,0,0,1,0,1.952l-.405.472a1.5,1.5,0,0,0,0,1.951l.405.472a1.5,1.5,0,0,1,0,1.952l-.405.473a1.5,1.5,0,0,0,0,1.952Zm0,0" transform="translate(-0.125 -2.549)" fill="#ffa90b"/><path d="M49.822,36.489H46.388V9.2a1.861,1.861,0,0,0-1.86-1.86H37.949V6.238A6.236,6.236,0,0,0,28.982.63a6.235,6.235,0,0,0-8.966,5.608V7.343H15.681a1.862,1.862,0,0,0-1.86,1.86V16.8a1.69,1.69,0,0,1-1.534,1H11.164v-.046a2.625,2.625,0,0,0-2.835-2.33h-5.5A2.626,2.626,0,0,0,0,17.76V29.2a2.167,2.167,0,0,0,.918,1.718,3.2,3.2,0,0,0,1.921.612H8.334a3.185,3.185,0,0,0,1.922-.618,2.445,2.445,0,0,0,.513-.523,4.371,4.371,0,0,0,3.037,1.221h.016V43.747a1.861,1.861,0,0,0,1.86,1.859H20.1a2.182,2.182,0,0,0,1.109.814,2.312,2.312,0,0,0,2.138,3.186h2.588l0,.009a2.312,2.312,0,0,0,2.188,3.054l10.736,0a4.371,4.371,0,0,0,3.037-1.22,2.994,2.994,0,0,0,2.434,1.139h5.5a3.378,3.378,0,0,0,1.229-.229,2.877,2.877,0,0,0,.692-.382,2.189,2.189,0,0,0,.918-1.718V38.825a2.626,2.626,0,0,0-2.835-2.336ZM5.9,26.368,5.5,26.84a2.268,2.268,0,0,0,0,2.967l.139.162h-2.8a1.665,1.665,0,0,1-.985-.3A.651.651,0,0,1,1.56,29.2V17.76c0-.367.545-.776,1.274-.778h2.8l-.138.161a2.266,2.266,0,0,0,0,2.967l.4.472a.716.716,0,0,1,0,.937l-.4.472a2.266,2.266,0,0,0,0,2.967l.405.472a.716.716,0,0,1,0,.937Zm3.706,2.825a.656.656,0,0,1-.294.476,2.634,2.634,0,0,1-1.624.3L6.681,28.792a.716.716,0,0,1,0-.937l.405-.472a2.267,2.267,0,0,0,0-2.967l-.405-.472a.716.716,0,0,1,0-.937l.4-.472a2.266,2.266,0,0,0,0-2.968l-.4-.472a.716.716,0,0,1,0-.937L7.69,16.982H8.33c.73,0,1.274.408,1.276.771,0,.011,0,12.21,0,11.439Zm22.1-27.633a4.683,4.683,0,0,1,4.678,4.678V7.343h-3.9V6.237a6.219,6.219,0,0,0-1.955-4.528,4.664,4.664,0,0,1,1.175-.15Zm-2.729.882a4.674,4.674,0,0,1,1.949,3.8V7.343h-3.9V6.237A4.675,4.675,0,0,1,28.982,2.441Zm-7.407,3.8a4.679,4.679,0,0,1,5.853-4.528,6.219,6.219,0,0,0-1.955,4.528V7.343h-3.9ZM13.821,30.05h-.016a2.811,2.811,0,0,1-1.217-.274,2.85,2.85,0,0,1-1.42-1.524l0-8.894h1.123a3.211,3.211,0,0,0,2.877-1.764l1.864-3.662v0h0l0-.006h0l.01-.019v0l0-.006.01-.019-.006.012.011-.022a.168.168,0,0,1,.224-.073,1.525,1.525,0,0,1,.666,2.048l-.71,1.393a1.457,1.457,0,0,0,1.3,2.117l9.2,0a.789.789,0,0,1,.795.762.755.755,0,0,1-.751.741H22.538a.78.78,0,1,0,0,1.559h8.077a.825.825,0,0,1,.555.256.7.7,0,0,1-.5,1.245H22.482a.78.78,0,0,0,0,1.559h6.833a.752.752,0,0,1,0,1.5l-7.467,0a.78.78,0,0,0,0,1.559c2.881,0,2.928-.078,3.226.22a.752.752,0,0,1-.531,1.283h-.016l-10.7,0Zm5.885,14H15.681a.3.3,0,0,1-.3-.3V31.609l9.161,0a2.313,2.313,0,0,0,2.188-3.054l0-.008,2.588,0a2.311,2.311,0,0,0,2.138-3.186,2.27,2.27,0,0,0,.82-3.784,2.82,2.82,0,0,0-2.308-.712A2.325,2.325,0,0,0,27.737,17.8l-9.032,0,.632-1.243a3.08,3.08,0,0,0-1.348-4.145,1.724,1.724,0,0,0-2.32.755l-.288.566V9.2a.3.3,0,0,1,.3-.3h4.335v2.889a.78.78,0,0,0,1.56,0V8.9h9.356v2.889a.78.78,0,0,0,1.56,0V8.9h3.934V33.591a1.722,1.722,0,0,0-1.756-.115,3.086,3.086,0,0,0-1.35,4.145l.632,1.242-9.031,0A2.356,2.356,0,0,0,22.7,40.417a2.258,2.258,0,0,0-.006,1.505h-.65a2.4,2.4,0,0,0-2.336,2.124Zm21.782,5.27a2.834,2.834,0,0,1-2.637,1.8l-10.735,0a.753.753,0,0,1-.532-1.283c.381-.381.737-.158,3.226-.221a.78.78,0,0,0,0-1.559H28.117c-5.18-.008-5,.082-5.3-.223a.753.753,0,0,1,.514-1.284h6.848a.78.78,0,0,0,0-1.56h-6.83c-1.091-.052-1.633.142-1.949-.244a.813.813,0,0,1,.651-1.258h8.074a.78.78,0,1,0,0-1.559H24.86a.748.748,0,0,1-.693-.981.805.805,0,0,1,.753-.522l9.2,0a1.455,1.455,0,0,0,1.3-2.116l-.709-1.393a1.525,1.525,0,0,1,.666-2.048.166.166,0,0,1,.223.073L37.463,38.6h0l0,0,0,0v0l0,.008,0,.007,0,0,0,.006,0,.006h0l0,.006,0,0,0,.005v0h0l0,0v0l0,0v0l0,.006,0,0,0,.006,0,0h0a3.347,3.347,0,0,0,3.181,1.763h.818c0,1.635,0,9.388,0,8.894Zm-.036-31.741a.78.78,0,0,0-.78.78V38.863a1.792,1.792,0,0,1-1.791-.911l-.9-1.764V8.9h2.689v6.333a.78.78,0,1,0,1.559,0V8.9h2.3a.3.3,0,0,1,.3.3V36.489h-.5a3.133,3.133,0,0,0-2.095.762v-18.9a.78.78,0,0,0-.78-.78ZM51.1,50.264a.683.683,0,0,1-.25.436,1.633,1.633,0,0,1-1.031.334H46.8V46.542a.78.78,0,0,0-1.56,0v4.492h-.919a1.65,1.65,0,0,1-.979-.3.663.663,0,0,1-.295-.477v-.68c0-.011,0-10.742,0-10.758,0-.365.546-.772,1.277-.772h.912v5.375a.78.78,0,0,0,1.56,0V38.048h3.021c.73,0,1.276.411,1.276.777Zm0,0"/><path d="M56.391,55.445a1.066,1.066,0,1,0,1.067,1.067A1.069,1.069,0,0,0,56.391,55.445Zm0,0" transform="translate(-7.551 -7.567)"/></g></g></svg>