<svg xmlns="http://www.w3.org/2000/svg" xmlns:xlink="http://www.w3.org/1999/xlink" width="222.914" height="204.869" viewBox="0 0 222.914 204.869"><defs><clipPath id="a"><path d="M123.359,174.151c-18.125,35,5.856,100.165,53.121,118.1,61.259,23.248,112.578-45.717,118.1-53.121,5.771-7.734,41.847-56.751,20.744-98.134-13.707-26.88-47.827-43.239-74.092-38.09-21.086,4.133-17.383,18.261-49.961,31.555-22.033,8.991-37.135,8-54.61,23.845C134.721,160.069,127.384,166.381,123.359,174.151Z" transform="translate(-117.305 -101.964)" fill="none"/></clipPath></defs><g transform="translate(-79.095 -64.121)"><g transform="translate(79.095 64.121)"><g transform="translate(9.356 9.266)"><g transform="translate(45.736 106.656)"><g transform="translate(87.52 10.1)"><rect width="13.634" height="22.518" rx="6.75" fill="#c7ebef"/><g transform="translate(1.418 1.539)"><rect width="4.932" height="1.238" fill="#67a2c7"/><rect width="4.932" height="1.238" transform="translate(5.866)" fill="#67a2c7"/><rect width="4.932" height="1.238" transform="translate(0 1.91)" fill="#67a2c7"/><rect width="4.932" height="1.238" transform="translate(5.866 1.91)" fill="#67a2c7"/><rect width="4.932" height="1.238" transform="translate(0 3.82)" fill="#67a2c7"/><rect width="4.932" height="1.238" transform="translate(5.866 3.82)" fill="#67a2c7"/><rect width="4.932" height="1.238" transform="translate(0 5.73)" fill="#67a2c7"/><rect width="4.932" height="1.238" transform="translate(5.866 5.73)" fill="#67a2c7"/><rect width="4.932" height="1.238" transform="translate(0 7.72)" fill="#67a2c7"/><rect width="4.932" height="1.238" transform="translate(5.866 7.72)" fill="#67a2c7"/><rect width="4.932" height="1.238" transform="translate(0 9.63)" fill="#67a2c7"/><rect width="4.932" height="1.238" transform="translate(5.866 9.63)" fill="#67a2c7"/><rect width="4.932" height="1.238" transform="translate(0 11.54)" fill="#67a2c7"/><rect width="4.932" height="1.238" transform="translate(5.866 11.54)" fill="#67a2c7"/><rect width="4.932" height="1.238" transform="translate(0 13.45)" fill="#67a2c7"/><rect width="4.932" height="1.238" transform="translate(5.866 13.45)" fill="#67a2c7"/><rect width="4.932" height="1.238" transform="translate(0 15.36)" fill="#67a2c7"/><rect width="4.932" height="1.238" transform="translate(5.866 15.36)" fill="#67a2c7"/><rect width="4.932" height="1.238" transform="translate(0 17.27)" fill="#67a2c7"/><rect width="4.932" height="1.238" transform="translate(5.866 17.27)" fill="#67a2c7"/></g></g><g transform="translate(13.719 2.762)"><rect width="13.634" height="29.75" rx="6.75" fill="#c7ebef"/><g transform="translate(1.418 2.034)"><rect width="4.932" height="1.636" fill="#67a2c7"/><rect width="4.932" height="1.636" transform="translate(5.866)" fill="#67a2c7"/><rect width="4.932" height="1.636" transform="translate(0 2.523)" fill="#67a2c7"/><rect width="4.932" height="1.636" transform="translate(5.866 2.523)" fill="#67a2c7"/><rect width="4.932" height="1.636" transform="translate(0 5.047)" fill="#67a2c7"/><rect width="4.932" height="1.636" transform="translate(5.866 5.047)" fill="#67a2c7"/><rect width="4.932" height="1.636" transform="translate(0 7.57)" fill="#67a2c7"/><rect width="4.932" height="1.636" transform="translate(5.866 7.57)" fill="#67a2c7"/><rect width="4.932" height="1.636" transform="translate(0 10.2)" fill="#67a2c7"/><rect width="4.932" height="1.636" transform="translate(5.866 10.2)" fill="#67a2c7"/><rect width="4.932" height="1.636" transform="translate(0 12.724)" fill="#67a2c7"/><rect width="4.932" height="1.636" transform="translate(5.866 12.724)" fill="#67a2c7"/><rect width="4.932" height="1.636" transform="translate(0 15.247)" fill="#67a2c7"/><rect width="4.932" height="1.636" transform="translate(5.866 15.247)" fill="#67a2c7"/><rect width="4.932" height="1.636" transform="translate(0 17.77)" fill="#67a2c7"/><rect width="4.932" height="1.636" transform="translate(5.866 17.77)" fill="#67a2c7"/><rect width="4.932" height="1.636" transform="translate(0 20.294)" fill="#67a2c7"/><rect width="4.932" height="1.636" transform="translate(5.866 20.294)" fill="#67a2c7"/><rect width="4.932" height="1.636" transform="translate(0 22.817)" fill="#67a2c7"/><rect width="4.932" height="1.636" transform="translate(5.866 22.817)" fill="#67a2c7"/></g></g><g transform="translate(112.784 11.368)"><rect width="13.634" height="21.25" rx="6.75" fill="#c7ebef"/><g transform="translate(1.632 2.152)"><rect width="2.253" height="1.094" fill="#67a2c7"/><rect width="2.253" height="1.094" transform="translate(2.679)" fill="#67a2c7"/><rect width="2.253" height="1.094" transform="translate(0 1.688)" fill="#67a2c7"/><rect width="2.253" height="1.094" transform="translate(2.679 1.688)" fill="#67a2c7"/><rect width="2.253" height="1.094" transform="translate(0 3.376)" fill="#67a2c7"/><rect width="2.253" height="1.094" transform="translate(2.679 3.376)" fill="#67a2c7"/><rect width="2.253" height="1.094" transform="translate(0 5.064)" fill="#67a2c7"/><rect width="2.253" height="1.094" transform="translate(2.679 5.064)" fill="#67a2c7"/><rect width="2.253" height="1.094" transform="translate(0 6.823)" fill="#67a2c7"/><rect width="2.253" height="1.094" transform="translate(2.679 6.823)" fill="#67a2c7"/><rect width="2.253" height="1.094" transform="translate(0 8.511)" fill="#67a2c7"/><rect width="2.253" height="1.094" transform="translate(2.679 8.511)" fill="#67a2c7"/><rect width="2.253" height="1.094" transform="translate(0 10.199)" fill="#67a2c7"/><rect width="2.253" height="1.094" transform="translate(2.679 10.199)" fill="#67a2c7"/><rect width="2.253" height="1.094" transform="translate(0 11.887)" fill="#67a2c7"/><rect width="2.253" height="1.094" transform="translate(2.679 11.887)" fill="#67a2c7"/><rect width="2.253" height="1.094" transform="translate(0 13.575)" fill="#67a2c7"/><rect width="2.253" height="1.094" transform="translate(2.679 13.575)" fill="#67a2c7"/><rect width="2.253" height="1.094" transform="translate(0 15.263)" fill="#67a2c7"/><rect width="2.253" height="1.094" transform="translate(2.679 15.263)" fill="#67a2c7"/></g><g transform="translate(6.991 2.152)"><rect width="2.253" height="1.094" fill="#67a2c7"/><rect width="2.253" height="1.094" transform="translate(2.679)" fill="#67a2c7"/><rect width="2.253" height="1.094" transform="translate(0 1.688)" fill="#67a2c7"/><rect width="2.253" height="1.094" transform="translate(2.679 1.688)" fill="#67a2c7"/><rect width="2.253" height="1.094" transform="translate(0 3.376)" fill="#67a2c7"/><rect width="2.253" height="1.094" transform="translate(2.679 3.376)" fill="#67a2c7"/><rect width="2.253" height="1.094" transform="translate(0 5.064)" fill="#67a2c7"/><rect width="2.253" height="1.094" transform="translate(2.679 5.064)" fill="#67a2c7"/><rect width="2.253" height="1.094" transform="translate(0 6.823)" fill="#67a2c7"/><rect width="2.253" height="1.094" transform="translate(2.679 6.823)" fill="#67a2c7"/><rect width="2.253" height="1.094" transform="translate(0 8.511)" fill="#67a2c7"/><rect width="2.253" height="1.094" transform="translate(2.679 8.511)" fill="#67a2c7"/><rect width="2.253" height="1.094" transform="translate(0 10.199)" fill="#67a2c7"/><rect width="2.253" height="1.094" transform="translate(2.679 10.199)" fill="#67a2c7"/><rect width="2.253" height="1.094" transform="translate(0 11.887)" fill="#67a2c7"/><rect width="2.253" height="1.094" transform="translate(2.679 11.887)" fill="#67a2c7"/><rect width="2.253" height="1.094" transform="translate(0 13.575)" fill="#67a2c7"/><rect width="2.253" height="1.094" transform="translate(2.679 13.575)" fill="#67a2c7"/><rect width="2.253" height="1.094" transform="translate(0 15.263)" fill="#67a2c7"/><rect width="2.253" height="1.094" transform="translate(2.679 15.263)" fill="#67a2c7"/></g></g><g transform="translate(0 11.264)"><rect width="13.634" height="21.25" rx="6.75" fill="#c7ebef"/><g transform="translate(1.632 2.152)"><rect width="2.253" height="1.094" fill="#67a2c7"/><rect width="2.253" height="1.094" transform="translate(2.679)" fill="#67a2c7"/><rect width="2.253" height="1.094" transform="translate(0 1.688)" fill="#67a2c7"/><rect width="2.253" height="1.094" transform="translate(2.679 1.688)" fill="#67a2c7"/><rect width="2.253" height="1.094" transform="translate(0 3.376)" fill="#67a2c7"/><rect width="2.253" height="1.094" transform="translate(2.679 3.376)" fill="#67a2c7"/><rect width="2.253" height="1.094" transform="translate(0 5.064)" fill="#67a2c7"/><rect width="2.253" height="1.094" transform="translate(2.679 5.064)" fill="#67a2c7"/><rect width="2.253" height="1.094" transform="translate(0 6.823)" fill="#67a2c7"/><rect width="2.253" height="1.094" transform="translate(2.679 6.823)" fill="#67a2c7"/><rect width="2.253" height="1.094" transform="translate(0 8.511)" fill="#67a2c7"/><rect width="2.253" height="1.094" transform="translate(2.679 8.511)" fill="#67a2c7"/><rect width="2.253" height="1.094" transform="translate(0 10.199)" fill="#67a2c7"/><rect width="2.253" height="1.094" transform="translate(2.679 10.199)" fill="#67a2c7"/><rect width="2.253" height="1.094" transform="translate(0 11.887)" fill="#67a2c7"/><rect width="2.253" height="1.094" transform="translate(2.679 11.887)" fill="#67a2c7"/><rect width="2.253" height="1.094" transform="translate(0 13.575)" fill="#67a2c7"/><rect width="2.253" height="1.094" transform="translate(2.679 13.575)" fill="#67a2c7"/><rect width="2.253" height="1.094" transform="translate(0 15.263)" fill="#67a2c7"/><rect width="2.253" height="1.094" transform="translate(2.679 15.263)" fill="#67a2c7"/></g><g transform="translate(6.991 2.152)"><rect width="2.253" height="1.094" fill="#67a2c7"/><rect width="2.253" height="1.094" transform="translate(2.679)" fill="#67a2c7"/><rect width="2.253" height="1.094" transform="translate(0 1.688)" fill="#67a2c7"/><rect width="2.253" height="1.094" transform="translate(2.679 1.688)" fill="#67a2c7"/><rect width="2.253" height="1.094" transform="translate(0 3.376)" fill="#67a2c7"/><rect width="2.253" height="1.094" transform="translate(2.679 3.376)" fill="#67a2c7"/><rect width="2.253" height="1.094" transform="translate(0 5.064)" fill="#67a2c7"/><rect width="2.253" height="1.094" transform="translate(2.679 5.064)" fill="#67a2c7"/><rect width="2.253" height="1.094" transform="translate(0 6.823)" fill="#67a2c7"/><rect width="2.253" height="1.094" transform="translate(2.679 6.823)" fill="#67a2c7"/><rect width="2.253" height="1.094" transform="translate(0 8.511)" fill="#67a2c7"/><rect width="2.253" height="1.094" transform="translate(2.679 8.511)" fill="#67a2c7"/><rect width="2.253" height="1.094" transform="translate(0 10.199)" fill="#67a2c7"/><rect width="2.253" height="1.094" transform="translate(2.679 10.199)" fill="#67a2c7"/><rect width="2.253" height="1.094" transform="translate(0 11.887)" fill="#67a2c7"/><rect width="2.253" height="1.094" transform="translate(2.679 11.887)" fill="#67a2c7"/><rect width="2.253" height="1.094" transform="translate(0 13.575)" fill="#67a2c7"/><rect width="2.253" height="1.094" transform="translate(2.679 13.575)" fill="#67a2c7"/><rect width="2.253" height="1.094" transform="translate(0 15.263)" fill="#67a2c7"/><rect width="2.253" height="1.094" transform="translate(2.679 15.263)" fill="#67a2c7"/></g></g><g transform="translate(68.493 4.904)"><rect width="17.715" height="27.611" rx="6.75" fill="#c7ebef"/><g transform="translate(2.12 2.795)"><rect width="2.927" height="1.422" fill="#67a2c7"/><rect width="2.927" height="1.422" transform="translate(3.481)" fill="#67a2c7"/><rect width="2.927" height="1.422" transform="translate(0 2.193)" fill="#67a2c7"/><rect width="2.927" height="1.422" transform="translate(3.481 2.193)" fill="#67a2c7"/><rect width="2.927" height="1.422" transform="translate(0 4.386)" fill="#67a2c7"/><rect width="2.927" height="1.422" transform="translate(3.481 4.386)" fill="#67a2c7"/><rect width="2.927" height="1.422" transform="translate(0 6.58)" fill="#67a2c7"/><rect width="2.927" height="1.422" transform="translate(3.481 6.58)" fill="#67a2c7"/><rect width="2.927" height="1.422" transform="translate(0 8.865)" fill="#67a2c7"/><rect width="2.927" height="1.422" transform="translate(3.481 8.865)" fill="#67a2c7"/><rect width="2.927" height="1.422" transform="translate(0 11.058)" fill="#67a2c7"/><rect width="2.927" height="1.422" transform="translate(3.481 11.058)" fill="#67a2c7"/><rect width="2.927" height="1.422" transform="translate(0 13.252)" fill="#67a2c7"/><rect width="2.927" height="1.422" transform="translate(3.481 13.252)" fill="#67a2c7"/><rect width="2.927" height="1.422" transform="translate(0 15.445)" fill="#67a2c7"/><rect width="2.927" height="1.422" transform="translate(3.481 15.445)" fill="#67a2c7"/><rect width="2.927" height="1.422" transform="translate(0 17.638)" fill="#67a2c7"/><rect width="2.927" height="1.422" transform="translate(3.481 17.638)" fill="#67a2c7"/><rect width="2.927" height="1.422" transform="translate(0 19.831)" fill="#67a2c7"/><rect width="2.927" height="1.422" transform="translate(3.481 19.831)" fill="#67a2c7"/></g><g transform="translate(9.084 2.795)"><rect width="2.927" height="1.422" fill="#67a2c7"/><rect width="2.927" height="1.422" transform="translate(3.481)" fill="#67a2c7"/><rect width="2.927" height="1.422" transform="translate(0 2.193)" fill="#67a2c7"/><rect width="2.927" height="1.422" transform="translate(3.481 2.193)" fill="#67a2c7"/><rect width="2.927" height="1.422" transform="translate(0 4.386)" fill="#67a2c7"/><rect width="2.927" height="1.422" transform="translate(3.481 4.386)" fill="#67a2c7"/><rect width="2.927" height="1.422" transform="translate(0 6.58)" fill="#67a2c7"/><rect width="2.927" height="1.422" transform="translate(3.481 6.58)" fill="#67a2c7"/><rect width="2.927" height="1.422" transform="translate(0 8.865)" fill="#67a2c7"/><rect width="2.927" height="1.422" transform="translate(3.481 8.865)" fill="#67a2c7"/><rect width="2.927" height="1.422" transform="translate(0 11.058)" fill="#67a2c7"/><rect width="2.927" height="1.422" transform="translate(3.481 11.058)" fill="#67a2c7"/><rect width="2.927" height="1.422" transform="translate(0 13.252)" fill="#67a2c7"/><rect width="2.927" height="1.422" transform="translate(3.481 13.252)" fill="#67a2c7"/><rect width="2.927" height="1.422" transform="translate(0 15.445)" fill="#67a2c7"/><rect width="2.927" height="1.422" transform="translate(3.481 15.445)" fill="#67a2c7"/><rect width="2.927" height="1.422" transform="translate(0 17.638)" fill="#67a2c7"/><rect width="2.927" height="1.422" transform="translate(3.481 17.638)" fill="#67a2c7"/><rect width="2.927" height="1.422" transform="translate(0 19.831)" fill="#67a2c7"/><rect width="2.927" height="1.422" transform="translate(3.481 19.831)" fill="#67a2c7"/></g></g><g transform="translate(97.843)"><rect width="13.634" height="32.618" rx="6.75" fill="#c7ebef"/><g transform="translate(1.418 3.264)"><rect width="4.932" height="1.585" fill="#67a2c7"/><rect width="4.932" height="1.585" transform="translate(5.866)" fill="#67a2c7"/><rect width="4.932" height="1.585" transform="translate(0 2.445)" fill="#67a2c7"/><rect width="4.932" height="1.585" transform="translate(5.866 2.445)" fill="#67a2c7"/><rect width="4.932" height="1.585" transform="translate(0 4.89)" fill="#67a2c7"/><rect width="4.932" height="1.585" transform="translate(5.866 4.89)" fill="#67a2c7"/><rect width="4.932" height="1.585" transform="translate(0 7.335)" fill="#67a2c7"/><rect width="4.932" height="1.585" transform="translate(5.866 7.335)" fill="#67a2c7"/><rect width="4.932" height="1.585" transform="translate(0 9.882)" fill="#67a2c7"/><rect width="4.932" height="1.585" transform="translate(5.866 9.882)" fill="#67a2c7"/><rect width="4.932" height="1.585" transform="translate(0 12.327)" fill="#67a2c7"/><rect width="4.932" height="1.585" transform="translate(5.866 12.327)" fill="#67a2c7"/><rect width="4.932" height="1.585" transform="translate(0 14.772)" fill="#67a2c7"/><rect width="4.932" height="1.585" transform="translate(5.866 14.772)" fill="#67a2c7"/><rect width="4.932" height="1.585" transform="translate(0 17.217)" fill="#67a2c7"/><rect width="4.932" height="1.585" transform="translate(5.866 17.217)" fill="#67a2c7"/><rect width="4.932" height="1.585" transform="translate(0 19.662)" fill="#67a2c7"/><rect width="4.932" height="1.585" transform="translate(5.866 19.662)" fill="#67a2c7"/><rect width="4.932" height="1.585" transform="translate(0 22.107)" fill="#67a2c7"/><rect width="4.932" height="1.585" transform="translate(5.866 22.107)" fill="#67a2c7"/></g></g><g transform="translate(33.275 9.813)"><rect width="27.985" height="22.88" rx="6.75" fill="#c7ebef"/><g transform="translate(2.911 2.289)"><rect width="10.124" height="1.112" fill="#67a2c7"/><rect width="10.124" height="1.112" transform="translate(12.04)" fill="#67a2c7"/><rect width="10.124" height="1.112" transform="translate(0 1.715)" fill="#67a2c7"/><rect width="10.124" height="1.112" transform="translate(12.04 1.715)" fill="#67a2c7"/><rect width="10.124" height="1.112" transform="translate(0 3.43)" fill="#67a2c7"/><rect width="10.124" height="1.112" transform="translate(12.04 3.43)" fill="#67a2c7"/><rect width="10.124" height="1.112" transform="translate(0 5.145)" fill="#67a2c7"/><rect width="10.124" height="1.112" transform="translate(12.04 5.145)" fill="#67a2c7"/><rect width="10.124" height="1.112" transform="translate(0 6.932)" fill="#67a2c7"/><rect width="10.124" height="1.112" transform="translate(12.04 6.932)" fill="#67a2c7"/><rect width="10.124" height="1.112" transform="translate(0 8.647)" fill="#67a2c7"/><rect width="10.124" height="1.112" transform="translate(12.04 8.647)" fill="#67a2c7"/><rect width="10.124" height="1.112" transform="translate(0 10.362)" fill="#67a2c7"/><rect width="10.124" height="1.112" transform="translate(12.04 10.362)" fill="#67a2c7"/><rect width="10.124" height="1.112" transform="translate(0 12.077)" fill="#67a2c7"/><rect width="10.124" height="1.112" transform="translate(12.04 12.077)" fill="#67a2c7"/><rect width="10.124" height="1.112" transform="translate(0 13.792)" fill="#67a2c7"/><rect width="10.124" height="1.112" transform="translate(12.04 13.792)" fill="#67a2c7"/><rect width="10.124" height="1.112" transform="translate(0 15.507)" fill="#67a2c7"/><rect width="10.124" height="1.112" transform="translate(12.04 15.507)" fill="#67a2c7"/></g></g></g><g clip-path="url(#a)"><g transform="translate(-4.421 139.176)"><rect width="229.056" height="74.203" fill="#c7ebef"/><path d="M563.536,744.582H485.109l-60.938-74.2H563.536Z" transform="translate(-344.614 -670.379)" fill="#65c8d0"/><path d="M580.316,744.582H501.889l-60.938-74.2H580.316Z" transform="translate(-357.286 -670.379)" fill="#a3dee3"/><g transform="translate(110.719 15.832)"><path d="M689.293,735.037H672.915a1.6,1.6,0,0,0-1.222,2.621l32.194,38.334a5.942,5.942,0,0,0,4.555,2.121l16.385-.014a1.614,1.614,0,0,0,1.235-2.653l-32.115-38.24A6.078,6.078,0,0,0,689.293,735.037Z" transform="translate(-641.965 -735.037)" fill="#fff"/><path d="M569.417,735.037H553.039a1.6,1.6,0,0,0-1.222,2.621l32.194,38.334a5.942,5.942,0,0,0,4.555,2.121l16.385-.014a1.614,1.614,0,0,0,1.235-2.653l-32.115-38.24A6.078,6.078,0,0,0,569.417,735.037Z" transform="translate(-551.441 -735.037)" fill="#fff"/></g></g><g transform="translate(-3.228 112.124)"><g transform="translate(27.684 29.111)"><path d="M236.382,678.838c-8.887.9-19.723,10.637-18.1,14.957,1.374,3.658,11.9,4,19.619.9,8.415-3.376,15.018-11.705,13.553-14.214-.318-.545-.972-.663-3.665-.917C241.374,678.961,238.166,678.658,236.382,678.838Z" transform="translate(-217.891 -678.787)" fill="#67a2c7"/><path d="M217.431,708.673a.245.245,0,0,1-.182-.408A9.265,9.265,0,0,1,221.6,705.4a8.25,8.25,0,0,1,2.92-.238,6.254,6.254,0,0,0,3.074-.411,4.331,4.331,0,0,0,1.672-1.165,4.4,4.4,0,0,1,1.74-1.2,6.64,6.64,0,0,1,3.883-.2,12.481,12.481,0,0,0,2.705.22,11.62,11.62,0,0,0,6.387-2.52.245.245,0,0,1,.292.393,12.1,12.1,0,0,1-6.658,2.617,13.121,13.121,0,0,1-2.805-.226,6.164,6.164,0,0,0-3.624.174,3.928,3.928,0,0,0-1.569,1.087,4.8,4.8,0,0,1-1.835,1.276,6.745,6.745,0,0,1-3.288.448,7.844,7.844,0,0,0-2.762.221,8.786,8.786,0,0,0-4.119,2.725A.245.245,0,0,1,217.431,708.673Z" transform="translate(-217.186 -694.677)" fill="#8bd6dd"/></g><g transform="translate(22.678 47.735)"><path d="M219.053,755.293c-8.688-2.076-22.124,3.56-22.012,8.173.094,3.906,9.917,7.691,18.231,7.3,9.057-.422,18.031-6.116,17.473-8.966-.121-.619-.7-.945-3.16-2.071C223.727,757.051,220.8,755.71,219.053,755.293Z" transform="translate(-196.967 -754.85)" fill="#67a2c7"/><path d="M196.986,779.987a.245.245,0,0,1-.136-.448,9.26,9.26,0,0,1,4.926-1.7,8.241,8.241,0,0,1,2.888.493,6.261,6.261,0,0,0,3.08.364,4.331,4.331,0,0,0,1.909-.714,4.4,4.4,0,0,1,1.983-.732,6.653,6.653,0,0,1,3.812.767,12.492,12.492,0,0,0,2.566.884,11.623,11.623,0,0,0,6.813-.858.245.245,0,1,1,.186.453,12.092,12.092,0,0,1-7.1.884,13.063,13.063,0,0,1-2.662-.915,6.164,6.164,0,0,0-3.554-.73,3.932,3.932,0,0,0-1.79.664,4.8,4.8,0,0,1-2.094.781,6.744,6.744,0,0,1-3.3-.381,7.707,7.707,0,0,0-2.73-.471,8.777,8.777,0,0,0-4.666,1.618A.245.245,0,0,1,196.986,779.987Z" transform="translate(-196.741 -771.729)" fill="#8bd6dd"/></g><g transform="translate(15.954 7.674)"><path d="M183.938,603.175c3.926,8.023,1.365,22.367-3.16,23.267-3.832.762-9.674-8-11.115-16.191-1.57-8.93,2.024-18.933,4.927-19.012.631-.017,1.076.476,2.712,2.63C181.2,599,183.15,601.564,183.938,603.175Z" transform="translate(-169.281 -591.238)" fill="#67a2c7"/><path d="M193.595,651.567a.252.252,0,0,1-.063-.008.245.245,0,0,1-.174-.3,8.785,8.785,0,0,0,.017-4.939,7.836,7.836,0,0,0-1.331-2.43,6.744,6.744,0,0,1-1.43-2.994,4.8,4.8,0,0,1,.06-2.235,3.932,3.932,0,0,0,.047-1.908,6.162,6.162,0,0,0-1.843-3.125,13.078,13.078,0,0,1-1.728-2.221,12.1,12.1,0,0,1-1.466-7,.241.241,0,0,1,.259-.23.245.245,0,0,1,.23.259,11.623,11.623,0,0,0,1.4,6.723,12.536,12.536,0,0,0,1.669,2.141,6.637,6.637,0,0,1,1.962,3.356,4.394,4.394,0,0,1-.049,2.114,4.332,4.332,0,0,0-.057,2.037,6.255,6.255,0,0,0,1.344,2.8,8.241,8.241,0,0,1,1.4,2.571,9.261,9.261,0,0,1-.011,5.212A.245.245,0,0,1,193.595,651.567Z" transform="translate(-181.644 -616.111)" fill="#8bd6dd"/></g><g transform="translate(0 27.42)"><path d="M119.055,678.71c7.01,5.536,10.906,19.575,7.215,22.344-3.126,2.345-12.181-3.023-17.025-9.79-5.278-7.372-6.365-17.946-3.781-19.272.561-.288,1.176-.036,3.583,1.2C114.781,676.129,117.648,677.6,119.055,678.71Z" transform="translate(-104.122 -671.884)" fill="#67a2c7"/><path d="M144.908,717.96a.245.245,0,0,1-.243-.219,8.784,8.784,0,0,0-1.746-4.62,7.831,7.831,0,0,0-2.11-1.8,6.744,6.744,0,0,1-2.4-2.287,4.8,4.8,0,0,1-.741-2.109,3.929,3.929,0,0,0-.637-1.8,6.162,6.162,0,0,0-2.837-2.261,13.084,13.084,0,0,1-2.407-1.458,12.1,12.1,0,0,1-3.868-6.018.245.245,0,0,1,.467-.147,11.624,11.624,0,0,0,3.705,5.781,12.48,12.48,0,0,0,2.323,1.4,6.639,6.639,0,0,1,3.03,2.436,4.4,4.4,0,0,1,.708,1.992,4.331,4.331,0,0,0,.674,1.923,6.252,6.252,0,0,0,2.253,2.132,8.248,8.248,0,0,1,2.228,1.9,9.263,9.263,0,0,1,1.849,4.873.244.244,0,0,1-.217.269Z" transform="translate(-122.08 -689.396)" fill="#8bd6dd"/></g><g transform="translate(15.471)"><path d="M247.306,567.563c-6.636,5.98-9.611,20.242-5.748,22.766,3.271,2.137,11.959-3.809,16.353-10.876,4.788-7.7,5.186-18.321,2.521-19.477-.579-.251-1.176.04-3.5,1.428C251.4,564.71,248.638,566.363,247.306,567.563Z" transform="translate(-222.082 -559.895)" fill="#67a2c7"/><path d="M167.554,665.224l-.032,0a.245.245,0,0,1-.211-.274,139.636,139.636,0,0,1,3.918-19.378c2.667-9.6,7.329-22.368,11.734-29.257.178-.278.372-.567.579-.873a23.583,23.583,0,0,0,2.932-5.532,25.288,25.288,0,0,0,.947-3.378,6.816,6.816,0,0,1,1.719-3.779,7.224,7.224,0,0,1,2.134-1.5,4.631,4.631,0,0,0,2.116-1.77,4.069,4.069,0,0,0,.68-2.106,3.7,3.7,0,0,1,.677-2.041A5.269,5.269,0,0,1,197.8,593.4a5.85,5.85,0,0,0,2.878-1.648,6.489,6.489,0,0,0,1.4-4.218.251.251,0,0,1,.251-.238.245.245,0,0,1,.238.251,6.955,6.955,0,0,1-1.526,4.528,6.245,6.245,0,0,1-3.094,1.79,4.808,4.808,0,0,0-2.8,1.745,3.2,3.2,0,0,0-.591,1.8,4.54,4.54,0,0,1-.755,2.326,5.1,5.1,0,0,1-2.305,1.941,6.714,6.714,0,0,0-2,1.4,6.356,6.356,0,0,0-1.595,3.546,25.993,25.993,0,0,1-.964,3.438,24.012,24.012,0,0,1-2.986,5.638c-.2.3-.4.588-.572.863-4.378,6.846-9.018,19.56-11.675,29.124a139.193,139.193,0,0,0-3.9,19.31A.245.245,0,0,1,167.554,665.224Z" transform="translate(-167.309 -580.591)" fill="#8bd6dd"/></g></g></g></g><path d="M620.178,733.815a.245.245,0,0,1-.117-.46,155.8,155.8,0,0,0,47.672-39.87.245.245,0,1,1,.382.306,156.286,156.286,0,0,1-47.821,39.995A.245.245,0,0,1,620.178,733.815Z" transform="translate(-487.509 -539.316)" fill="#22367d"/><g transform="translate(0)"><g transform="translate(9.356 9.266)"><g clip-path="url(#a)"><path d="M273.242,462.835a.979.979,0,0,1-.979-.979V322.166a.979.979,0,1,1,1.959,0V461.856A.979.979,0,0,1,273.242,462.835Z" transform="translate(-234.322 -267.51)" fill="#65c8d0"/></g></g><g transform="translate(0 28.431)"><circle cx="11.606" cy="11.606" r="11.606" transform="matrix(0.923, -0.386, 0.386, 0.923, 0, 8.956)" fill="#c7ebef"/><g transform="translate(13.188 10.289)"><path d="M132.955,222.259h3.751l-.625,6h-2.5Zm.556,9.378a1.565,1.565,0,0,1-.514-1.181,1.515,1.515,0,0,1,.514-1.174,2.1,2.1,0,0,1,2.64,0,1.516,1.516,0,0,1,.514,1.174,1.566,1.566,0,0,1-.514,1.181,2.035,2.035,0,0,1-2.64,0Z" transform="translate(-132.955 -222.259)" fill="#a3dee3"/></g><path d="M94.58,210.811a15.088,15.088,0,1,1,15.088-15.088A15.1,15.1,0,0,1,94.58,210.811Zm0-28.951a13.864,13.864,0,1,0,13.863,13.863A13.879,13.879,0,0,0,94.58,181.859Z" transform="translate(-79.395 -180.538)" fill="#a3dee3"/></g><g transform="translate(69.867)"><circle cx="8.97" cy="8.97" r="8.97" transform="translate(2.83 2.831)" fill="#c7ebef"/><g transform="translate(10.257 8.016)"><path d="M406.333,96.861h2.9l-.483,4.639h-1.933Zm.43,7.248a1.209,1.209,0,0,1-.4-.913,1.171,1.171,0,0,1,.4-.907,1.627,1.627,0,0,1,2.04,0,1.172,1.172,0,0,1,.4.907,1.21,1.21,0,0,1-.4.913,1.572,1.572,0,0,1-2.04,0Z" transform="translate(-406.333 -96.861)" fill="#a3dee3"/></g><path d="M376.244,87.722a11.8,11.8,0,1,1,11.8-11.8A11.814,11.814,0,0,1,376.244,87.722Zm0-22.377A10.576,10.576,0,1,0,386.82,75.922,10.588,10.588,0,0,0,376.244,65.345Z" transform="translate(-364.443 -64.121)" fill="#a3dee3"/></g><g transform="translate(35.035 17.487)"><path d="M482.113,160.281a7.383,7.383,0,0,0-2.181-2.191,7.2,7.2,0,0,0-1.469-.712,3.862,3.862,0,0,1-1.017-.506,4.346,4.346,0,0,1-1.5-2.567.685.685,0,0,0-1.35.164v12.382a5.1,5.1,0,0,0-2.654-.7c-2.228,0-4.034,1.269-4.034,2.835s1.806,2.835,4.034,2.835c2.073,0,3.779-1.1,4.007-2.514l0-.018c0-.021,0-.042.006-.063a.659.659,0,0,0,.007-.067v-.027c0-.049.011-.1.011-.146s-.007-.1-.011-.146V157.37a4.421,4.421,0,0,0,.668.607,5.153,5.153,0,0,0,1.342.682,5.862,5.862,0,0,1,1.215.584,6.027,6.027,0,0,1,1.776,1.789.685.685,0,1,0,1.145-.75Z" transform="translate(-407.743 -149.318)" fill="#67a2c7"/><path d="M605.376,138.7a3.593,3.593,0,0,0-1.061-1.066,3.493,3.493,0,0,0-.715-.346,1.883,1.883,0,0,1-.495-.246,2.115,2.115,0,0,1-.729-1.249.333.333,0,0,0-.656.08V141.9a2.482,2.482,0,0,0-1.291-.342c-1.084,0-1.962.617-1.962,1.379s.879,1.379,1.962,1.379a1.842,1.842,0,0,0,1.949-1.223l0-.009c0-.01,0-.021,0-.031a.272.272,0,0,0,0-.032v-.013c0-.024,0-.047,0-.071s0-.047,0-.071v-5.578a2.132,2.132,0,0,0,.325.3,2.507,2.507,0,0,0,.653.332,2.851,2.851,0,0,1,.591.284,2.927,2.927,0,0,1,.864.87.333.333,0,0,0,.557-.365Z" transform="translate(-506.333 -135.542)" fill="#67a2c7"/><path d="M889.282,379.629a4.735,4.735,0,0,0-1.4-1.4,4.6,4.6,0,0,0-.942-.456,2.48,2.48,0,0,1-.652-.324,2.784,2.784,0,0,1-.961-1.646.439.439,0,0,0-.865.1v7.937a3.266,3.266,0,0,0-1.7-.451c-1.428,0-2.586.814-2.586,1.817s1.158,1.817,2.586,1.817a2.427,2.427,0,0,0,2.568-1.611l0-.012c0-.013,0-.027,0-.04s0-.028,0-.043V385.3c0-.031.007-.062.007-.093s0-.062-.007-.094v-7.351a2.841,2.841,0,0,0,.428.389,3.307,3.307,0,0,0,.861.437,3.756,3.756,0,0,1,.779.374,3.86,3.86,0,0,1,1.139,1.147.439.439,0,1,0,.734-.481Z" transform="translate(-719.067 -316.719)" fill="#67a2c7"/><path d="M226.583,376.5a2.287,2.287,0,0,0-.676-.679,2.219,2.219,0,0,0-.455-.22,1.2,1.2,0,0,1-.315-.157,1.346,1.346,0,0,1-.464-.8.212.212,0,0,0-.418.05v3.835a1.578,1.578,0,0,0-.822-.218c-.69,0-1.25.393-1.25.878s.559.878,1.25.878a1.172,1.172,0,0,0,1.241-.779v-.006c0-.007,0-.013,0-.02s0-.014,0-.021v-.008c0-.015,0-.03,0-.045s0-.03,0-.045V375.6a1.358,1.358,0,0,0,.207.188,1.594,1.594,0,0,0,.416.211,1.831,1.831,0,0,1,.376.181,1.865,1.865,0,0,1,.55.554.212.212,0,0,0,.355-.233Z" transform="translate(-222.183 -315.98)" fill="#67a2c7"/></g><g transform="translate(178.174 59.897)"><g transform="translate(0 34.621)"><path d="M808.3,458.79h-1.275a.245.245,0,0,1,0-.49H808.3a.245.245,0,1,1,0,.49Z" transform="translate(-806.783 -456.304)" fill="#65c8d0"/><path d="M819.4,458.79h-1.275a.245.245,0,1,1,0-.49H819.4a.245.245,0,1,1,0,.49Z" transform="translate(-815.164 -456.304)" fill="#65c8d0"/><path d="M815.182,451.912a.245.245,0,0,1-.245-.245v-1.275a.245.245,0,0,1,.49,0v1.275A.245.245,0,0,1,815.182,451.912Z" transform="translate(-812.941 -450.147)" fill="#65c8d0"/><path d="M815.182,463.01a.245.245,0,0,1-.245-.245V461.49a.245.245,0,0,1,.49,0v1.275A.245.245,0,0,1,815.182,463.01Z" transform="translate(-812.941 -458.528)" fill="#65c8d0"/></g><g transform="translate(13.733 43.114)"><path d="M865.061,497.767h-1.947a.245.245,0,1,1,0-.49h1.947a.245.245,0,1,1,0,.49Z" transform="translate(-862.87 -494.23)" fill="#65c8d0"/><path d="M882,497.767h-1.947a.245.245,0,1,1,0-.49H882a.245.245,0,1,1,0,.49Z" transform="translate(-875.664 -494.23)" fill="#65c8d0"/><path d="M875.561,487.268a.245.245,0,0,1-.245-.245v-1.947a.245.245,0,0,1,.49,0v1.947A.245.245,0,0,1,875.561,487.268Z" transform="translate(-872.269 -484.831)" fill="#65c8d0"/><path d="M875.561,504.21a.245.245,0,0,1-.245-.245v-1.947a.245.245,0,1,1,.49,0v1.947A.245.245,0,0,1,875.561,504.21Z" transform="translate(-872.269 -497.625)" fill="#65c8d0"/></g><g transform="translate(40.347)"><path d="M973.057,317.211H971.81a.245.245,0,0,1,0-.49h1.247a.245.245,0,1,1,0,.49Z" transform="translate(-971.565 -314.769)" fill="#65c8d0"/><path d="M983.908,317.211h-1.247a.245.245,0,0,1,0-.49h1.247a.245.245,0,0,1,0,.49Z" transform="translate(-979.759 -314.769)" fill="#65c8d0"/><path d="M979.782,310.486a.245.245,0,0,1-.245-.245v-1.247a.245.245,0,0,1,.49,0v1.247A.245.245,0,0,1,979.782,310.486Z" transform="translate(-977.585 -308.749)" fill="#65c8d0"/><path d="M979.782,321.337a.245.245,0,0,1-.245-.245v-1.247a.245.245,0,1,1,.49,0v1.247A.245.245,0,0,1,979.782,321.337Z" transform="translate(-977.585 -316.944)" fill="#65c8d0"/></g></g><g transform="translate(13.268 21.683)"><g transform="translate(0 29.857)"><path d="M197.687,357.044q-.656,0-1.314-.011a.245.245,0,0,1-.241-.249.249.249,0,0,1,.249-.241q.654.011,1.306.011h.4a.245.245,0,0,1,0,.49Zm2.854-.052a.245.245,0,0,1-.009-.489c.565-.021,1.139-.048,1.707-.082a.245.245,0,0,1,.029.489c-.571.034-1.149.062-1.718.082Zm-6.614-.036h-.012c-.575-.027-1.154-.06-1.722-.1a.245.245,0,1,1,.033-.489c.564.038,1.141.071,1.712.1a.245.245,0,0,1-.011.49Zm10.769-.233a.245.245,0,0,1-.023-.489c.567-.053,1.138-.113,1.7-.179a.245.245,0,1,1,.058.486c-.565.066-1.14.128-1.711.181Zm-14.932-.064h-.024c-.572-.055-1.149-.117-1.713-.182a.245.245,0,0,1,.057-.487c.561.065,1.135.126,1.7.181a.245.245,0,0,1-.023.489Zm19.064-.447a.245.245,0,0,1-.037-.487c.562-.087,1.128-.182,1.684-.284a.245.245,0,1,1,.088.482c-.559.1-1.13.2-1.7.286Zm-23.2-.053a.219.219,0,0,1-.035,0c-.562-.081-1.134-.17-1.7-.264a.245.245,0,1,1,.08-.483c.564.093,1.133.181,1.691.262a.245.245,0,0,1-.035.487Zm-4.108-.7a.24.24,0,0,1-.047,0q-.844-.163-1.685-.343a.245.245,0,1,1,.1-.479q.836.178,1.676.341a.245.245,0,0,1-.046.485Zm31.4-.023a.245.245,0,0,1-.053-.484c.555-.124,1.114-.257,1.661-.4a.245.245,0,0,1,.12.475c-.551.14-1.115.274-1.674.4A.254.254,0,0,1,212.919,355.441Zm-35.47-.864a.239.239,0,0,1-.058-.007c-.555-.135-1.115-.277-1.664-.421a.245.245,0,0,1,.125-.474c.546.144,1.1.285,1.655.419a.245.245,0,0,1-.058.483Zm39.5-.187a.245.245,0,0,1-.07-.479c.547-.165,1.095-.338,1.626-.517a.245.245,0,1,1,.155.464c-.536.18-1.088.355-1.641.521A.253.253,0,0,1,216.948,354.39Zm-43.515-.89a.251.251,0,0,1-.069-.01c-.544-.16-1.1-.328-1.641-.5a.245.245,0,1,1,.147-.467c.542.171,1.091.338,1.632.5a.245.245,0,0,1-.069.48Zm47.452-.463a.245.245,0,0,1-.089-.473c.529-.206,1.059-.423,1.578-.647a.245.245,0,0,1,.194.45c-.524.225-1.06.445-1.594.653A.241.241,0,0,1,220.885,353.037Zm-51.408-.8a.241.241,0,0,1-.08-.013c-.541-.188-1.086-.383-1.618-.581a.245.245,0,1,1,.17-.459c.53.2,1.071.39,1.609.577a.245.245,0,0,1-.08.476Zm55.217-.873a.245.245,0,0,1-.11-.464l.036-.018c.35-.174.864-.428,1.493-.759a.245.245,0,1,1,.227.434c-.634.332-1.151.589-1.493.759l-.044.022A.242.242,0,0,1,224.694,351.361Zm-59.115-.591a.244.244,0,0,1-.092-.018c-.532-.215-1.066-.438-1.587-.662a.245.245,0,0,1,.193-.45c.518.223,1.049.444,1.577.658a.245.245,0,0,1-.092.472Zm62.8-1.372a.245.245,0,0,1-.123-.457c.49-.284.983-.579,1.466-.879a.245.245,0,1,1,.258.416c-.487.3-.985.6-1.479.886A.242.242,0,0,1,228.376,349.4Zm-66.614-.29a.247.247,0,0,1-.1-.023c-.519-.243-1.041-.494-1.55-.746a.245.245,0,1,1,.218-.439c.506.251,1.023.5,1.54.741a.245.245,0,0,1-.1.467Zm-3.721-1.868a.244.244,0,0,1-.116-.029c-.5-.271-1.01-.552-1.5-.834a.245.245,0,1,1,.243-.425c.492.281.994.559,1.494.828a.245.245,0,0,1-.116.461Zm73.86-.062a.245.245,0,0,1-.139-.447c.473-.324.941-.656,1.393-.988a.245.245,0,1,1,.29.395c-.456.335-.929.671-1.406,1A.245.245,0,0,1,231.9,347.178Zm-77.464-2.021a.246.246,0,0,1-.129-.037c-.488-.3-.976-.614-1.45-.926a.245.245,0,1,1,.269-.409c.471.31.955.619,1.439.919a.245.245,0,0,1-.129.453Zm80.8-.473a.245.245,0,0,1-.155-.434c.442-.362.879-.734,1.3-1.105a.245.245,0,0,1,.325.367c-.425.376-.867.752-1.314,1.118A.245.245,0,0,1,235.238,344.684Zm-84.265-1.834a.243.243,0,0,1-.143-.046c-.469-.336-.935-.68-1.384-1.023a.245.245,0,0,1,.3-.39c.446.34.908.681,1.373,1.015a.245.245,0,0,1-.143.444Zm87.355-.957a.245.245,0,0,1-.173-.418c.4-.4.8-.82,1.174-1.234a.245.245,0,1,1,.363.329c-.38.42-.78.841-1.19,1.251A.243.243,0,0,1,238.328,341.892ZM147.68,340.3a.244.244,0,0,1-.157-.057c-.443-.369-.881-.748-1.3-1.125a.245.245,0,1,1,.326-.365c.418.374.853.748,1.291,1.115a.245.245,0,0,1-.157.433Zm93.4-1.53a.245.245,0,0,1-.193-.395c.35-.451.687-.912,1-1.37a.245.245,0,1,1,.4.277c-.32.466-.662.935-1.018,1.394A.244.244,0,0,1,241.085,338.775ZM144.6,337.51a.243.243,0,0,1-.172-.071c-.411-.405-.817-.82-1.2-1.232a.245.245,0,0,1,.357-.336c.384.407.785.817,1.192,1.219a.245.245,0,0,1-.172.419Zm98.788-2.2a.245.245,0,0,1-.213-.364c.277-.5.537-1.005.772-1.509a.245.245,0,1,1,.444.207c-.24.514-.505,1.033-.788,1.54A.245.245,0,0,1,243.385,335.313Zm-101.615-.855a.244.244,0,0,1-.187-.087c-.372-.442-.736-.893-1.082-1.342a.245.245,0,0,1,.388-.3c.342.443.7.889,1.069,1.326a.245.245,0,0,1-.187.4Zm103.309-2.939a.245.245,0,0,1-.232-.324c.182-.535.343-1.081.478-1.623a.245.245,0,0,1,.475.119c-.139.554-.3,1.113-.49,1.661A.245.245,0,0,1,245.079,331.519Zm-105.819-.378a.245.245,0,0,1-.2-.108c-.323-.478-.637-.966-.932-1.451a.245.245,0,0,1,.418-.255c.292.478.6.96.92,1.432a.245.245,0,0,1-.2.382Zm98.243-2.087H237.5a15.236,15.236,0,0,1-1.735-.147.245.245,0,1,1,.071-.485,14.653,14.653,0,0,0,1.679.142.245.245,0,0,1-.007.49Zm2.446-.072a.245.245,0,0,1-.018-.489l.479-.038c.4-.033.807-.081,1.2-.143a.245.245,0,0,1,.076.484c-.409.064-.826.113-1.24.147l-.482.038Zm-6.52-.683a.244.244,0,0,1-.089-.017,8.336,8.336,0,0,1-1.565-.81.245.245,0,1,1,.271-.408,7.84,7.84,0,0,0,1.473.762.245.245,0,0,1-.09.473Zm10.605-.051a.245.245,0,0,1-.072-.479c.532-.163,1.067-.356,1.589-.573a.246.246,0,0,1,.221.017.14.14,0,0,1,0-.017c.073-.55.13-1.119.17-1.69a.245.245,0,1,1,.488.034c-.041.582-.1,1.161-.173,1.721a.244.244,0,0,1-.275.21.241.241,0,0,1-.095-.033.245.245,0,0,1-.151.211c-.537.223-1.086.421-1.633.589A.246.246,0,0,1,244.034,328.249Zm-106.9-.68a.245.245,0,0,1-.218-.132c-.264-.512-.517-1.035-.752-1.553a.245.245,0,1,1,.446-.2c.231.511.48,1.025.741,1.53a.245.245,0,0,1-.217.357Zm110.708-.979a.245.245,0,0,1-.121-.458c.482-.274.965-.576,1.437-.9a.245.245,0,1,1,.275.4c-.483.328-.978.637-1.471.917A.243.243,0,0,1,247.843,326.589Zm-17.705-.745a.245.245,0,0,1-.2-.1,8.123,8.123,0,0,1-.9-1.518.245.245,0,1,1,.446-.2,7.607,7.607,0,0,0,.844,1.426.245.245,0,0,1-.2.392Zm21.11-1.641a.245.245,0,0,1-.158-.432c.427-.358.852-.739,1.265-1.134a.245.245,0,0,1,.338.355c-.42.4-.854.79-1.289,1.154A.243.243,0,0,1,251.248,324.2Zm-115.78-.436a.245.245,0,0,1-.23-.162c-.2-.541-.378-1.092-.541-1.636a.245.245,0,0,1,.469-.141c.161.535.34,1.077.533,1.611a.245.245,0,0,1-.23.328Zm110.78-.447a.244.244,0,0,1-.245-.239c-.014-.581-.049-1.15-.1-1.692a.245.245,0,0,1,.219-.269.248.248,0,0,1,.268.219c.056.555.092,1.138.106,1.731a.245.245,0,0,1-.239.25Zm-17.668-1.291a.245.245,0,0,1-.242-.209,9.322,9.322,0,0,1-.1-1.36q0-.2.009-.4a.238.238,0,0,1,.255-.234.245.245,0,0,1,.234.255c-.005.125-.008.25-.008.375a8.819,8.819,0,0,0,.095,1.288.245.245,0,0,1-.207.278Zm25.643-.735a.245.245,0,0,1-.183-.407c.373-.421.742-.86,1.094-1.3a.245.245,0,0,1,.384.3c-.358.451-.732.9-1.111,1.324A.244.244,0,0,1,254.224,321.295Zm-119.9-1.522a.245.245,0,0,1-.239-.193c-.119-.553-.225-1.123-.318-1.7a.245.245,0,0,1,.484-.078c.091.565.2,1.128.313,1.672a.245.245,0,0,1-.239.3ZM245.73,319.2a.245.245,0,0,1-.237-.185,12.329,12.329,0,0,0-.514-1.6.245.245,0,0,1,.454-.183,12.855,12.855,0,0,1,.535,1.663.246.246,0,0,1-.238.3ZM256.776,318a.245.245,0,0,1-.2-.382c.088-.13.168-.251.241-.363a.245.245,0,0,1,.41.268q-.112.17-.245.369A.245.245,0,0,1,256.776,318Zm-27.841-.083a.245.245,0,0,1-.232-.323,8.209,8.209,0,0,1,.739-1.6.245.245,0,0,1,.42.252,7.727,7.727,0,0,0-.7,1.505A.245.245,0,0,1,228.935,317.921ZM133.7,315.659a.245.245,0,0,1-.243-.222c-.053-.564-.094-1.143-.123-1.72a.245.245,0,1,1,.489-.024c.028.571.069,1.142.121,1.7a.245.245,0,0,1-.221.267Zm110.318-.225a.243.243,0,0,1-.195-.1,7.032,7.032,0,0,0-1.144-1.191.245.245,0,1,1,.31-.379,7.54,7.54,0,0,1,1.224,1.274.245.245,0,0,1-.195.393Zm-12.791-.927a.245.245,0,0,1-.159-.431,8.343,8.343,0,0,1,1.454-.995.245.245,0,0,1,.233.431,7.884,7.884,0,0,0-1.369.936A.243.243,0,0,1,231.227,314.507Zm9.484-1.5a.244.244,0,0,1-.085-.015,9.148,9.148,0,0,0-1.611-.428.245.245,0,0,1,.083-.483,9.647,9.647,0,0,1,1.7.452.245.245,0,0,1-.085.475Zm-5.788-.322a.245.245,0,0,1-.055-.483,10.584,10.584,0,0,1,1.735-.253.245.245,0,0,1,.031.489,10.088,10.088,0,0,0-1.654.242A.256.256,0,0,1,234.923,312.684ZM133.53,311.5h0a.245.245,0,0,1-.242-.247c.006-.573.023-1.153.052-1.723a.245.245,0,1,1,.489.024c-.028.564-.045,1.137-.051,1.7A.245.245,0,0,1,133.53,311.5Zm.244-4.154h-.026a.245.245,0,0,1-.217-.269c.061-.571.134-1.146.218-1.71a.245.245,0,1,1,.484.071c-.082.558-.155,1.127-.215,1.691A.245.245,0,0,1,133.773,307.347Zm.642-4.112a.263.263,0,0,1-.049,0,.245.245,0,0,1-.19-.289c.116-.562.244-1.128.382-1.682a.245.245,0,1,1,.476.118c-.136.547-.263,1.107-.378,1.663A.245.245,0,0,1,134.415,303.235Zm1.04-4.032a.245.245,0,0,1-.234-.318c.171-.548.356-1.1.549-1.636a.245.245,0,1,1,.461.166c-.19.531-.373,1.074-.542,1.616A.245.245,0,0,1,135.455,299.2Zm1.444-3.9a.249.249,0,0,1-.1-.02.245.245,0,0,1-.128-.322c.228-.528.47-1.056.719-1.569a.245.245,0,1,1,.44.214c-.246.506-.485,1.027-.71,1.548A.245.245,0,0,1,136.9,295.3Zm1.859-3.723a.245.245,0,0,1-.212-.367c.286-.5.587-1,.894-1.477a.245.245,0,1,1,.413.264c-.3.473-.6.963-.881,1.457A.245.245,0,0,1,138.759,291.577Zm2.279-3.482a.245.245,0,0,1-.2-.391c.344-.461.7-.918,1.068-1.358a.245.245,0,1,1,.377.313c-.36.433-.714.883-1.052,1.338A.245.245,0,0,1,141.038,288.095Zm2.693-3.172a.245.245,0,0,1-.176-.415c.4-.413.814-.819,1.233-1.209a.245.245,0,1,1,.333.359c-.413.383-.821.784-1.214,1.19A.243.243,0,0,1,143.731,284.923Zm3.081-2.794a.245.245,0,0,1-.152-.437c.45-.357.915-.705,1.382-1.036a.245.245,0,0,1,.283.4c-.46.326-.918.669-1.361,1.02A.241.241,0,0,1,146.812,282.129Zm3.422-2.364a.245.245,0,0,1-.126-.455c.489-.293.995-.578,1.5-.849a.245.245,0,0,1,.23.433c-.5.266-1,.547-1.482.836A.243.243,0,0,1,150.234,279.765Zm3.7-1.91a.245.245,0,0,1-.1-.469c.523-.231,1.06-.452,1.6-.657a.245.245,0,1,1,.176.457c-.528.2-1.058.421-1.574.648A.246.246,0,0,1,153.929,277.855Zm3.9-1.452a.245.245,0,0,1-.072-.479c.546-.168,1.1-.326,1.66-.471a.245.245,0,0,1,.123.474c-.549.142-1.1.3-1.639.465A.246.246,0,0,1,157.828,276.4Zm4.038-1.008a.245.245,0,0,1-.046-.485c.559-.108,1.131-.206,1.7-.292a.245.245,0,0,1,.072.485c-.562.084-1.128.181-1.68.288A.235.235,0,0,1,161.866,275.4Z" transform="translate(-133.285 -274.616)" fill="#65c8d0"/><g transform="translate(122.499 42.306)"><path d="M634.978,449.139l-.239-1.15-1.15.239.387-.589,1.15-.239.239,1.149Z" transform="translate(-633.59 -447.4)" fill="#65c8d0"/></g></g><g transform="translate(94.059 0)"><g transform="translate(3.024)"><circle cx="28.244" cy="28.244" r="28.244" transform="translate(0 39.944) rotate(-45)" fill="#a3dee3"/><path d="M595.843,247.2a32.736,32.736,0,0,1-23.049-9.415.612.612,0,0,1,.857-.874,31.7,31.7,0,1,0,3.219-48.026,31.965,31.965,0,0,0-11.305,15.99.612.612,0,0,1-1.169-.363A33.2,33.2,0,0,1,576.136,187.9a32.922,32.922,0,1,1,19.707,59.3Z" transform="translate(-555.9 -174.334)" fill="#a3dee3"/><g transform="translate(24.844 24.764)"><rect width="30.199" height="30.199" rx="6" fill="#67a2c7"/><rect width="28.14" height="28.14" rx="7" transform="translate(1.03 1.03)" fill="#e0f4f6"/><rect width="26.219" height="26.219" rx="5" transform="translate(1.99 1.99)" fill="#22367d"/><g transform="translate(4.351 5.793)"><g transform="translate(6.036)"><path d="M685.4,301.469a.367.367,0,0,1-.343-.236l-1.665-4.347L680.67,294.4a.367.367,0,0,1-.119-.271v-4.314l-2.471,1.574V294.3a.367.367,0,0,1-.735,0v-3.115a.367.367,0,0,1,.17-.31l3.206-2.042a.367.367,0,0,1,.565.31v4.822l2.662,2.438a.37.37,0,0,1,.095.14l1.7,4.429a.367.367,0,0,1-.343.5Z" transform="translate(-676.445 -286.008)" fill="#fff"/><path d="M674.037,319.833a.363.363,0,0,1-.189-.053.368.368,0,0,1-.125-.5l3.565-5.9a.367.367,0,0,1,.629.38l-3.565,5.9A.367.367,0,0,1,674.037,319.833Z" transform="translate(-673.67 -304.45)" fill="#fff"/><path d="M699.049,304.043a.365.365,0,0,1-.232-.083l-1.973-1.612a.367.367,0,0,1,.465-.569l1.973,1.612a.367.367,0,0,1-.233.652Z" transform="translate(-691.068 -295.765)" fill="#fff"/><circle cx="1.166" cy="1.166" r="1.166" transform="translate(3.932)" fill="#fff"/></g><g transform="translate(0 16.886)"><path d="M653.005,349.167l2.291-2.728h-2.242l-4.035,2.728Z" transform="translate(-649.02 -346.439)" fill="#fff"/><path d="M716.475,349.167l-4.035-2.728H710.2l2.291,2.728Z" transform="translate(-695.219 -346.439)" fill="#fff"/><path d="M687.863,349.167l-1.03-2.728h-2.242l-1.038,2.728Z" transform="translate(-675.098 -346.439)" fill="#fff"/></g></g></g></g><g transform="translate(0 34.149)"><circle cx="9.444" cy="9.444" r="9.444" transform="translate(1.928 19.953) rotate(-74.927)" fill="#c7ebef"/><g transform="translate(11.724 8.93)"><path d="M565.317,328.616h3.34l-.557,5.345h-2.227Zm.495,8.351a1.393,1.393,0,0,1-.458-1.052,1.349,1.349,0,0,1,.458-1.045,1.874,1.874,0,0,1,2.351,0,1.351,1.351,0,0,1,.458,1.045,1.4,1.4,0,0,1-.458,1.052,1.812,1.812,0,0,1-2.351,0Z" transform="translate(-565.317 -328.616)" fill="#a3dee3"/></g><path d="M530.937,318.937a13.5,13.5,0,0,1-2.458-26.782.612.612,0,1,1,.222,1.2,12.281,12.281,0,1,0,6.036,23.755.612.612,0,0,1,.378,1.164A13.5,13.5,0,0,1,530.937,318.937Z" transform="translate(-517.434 -292.145)" fill="#8bd6dd"/></g></g></g><g transform="translate(32.278 7.453)"><rect width="31.997" height="61.152" rx="15.999" fill="#67a2c7"/><rect width="24.806" height="61.152" rx="12.403" transform="translate(7.192)" fill="#c7ebef"/><g transform="translate(10.759 9.002)"><g transform="translate(0 0.292)"><circle cx="8.835" cy="8.835" r="8.835" fill="#a3dee3"/></g><g transform="translate(0.048)"><path d="M304.494,133.309l.61-.392,2.679.1,3.019.967,2.709,2.407,1.074,1.9.328,1.228H309.7l-.581-1.967-1.608-2.29-1.8-1.389Z" transform="translate(-292.39 -132.528)" fill="#65c8d0"/><path d="M277.863,137.947a9.163,9.163,0,0,0-8.776-6.621c-.085,0-.169.008-.254.011l.024-.008-4.645,0-.033.009c-.111,0-.221-.014-.333-.014a9.166,9.166,0,0,0-8.472,5.747l-.064.113v.041q-.134.353-.239.72a.293.293,0,0,0,.2.361h0v.01h5.309v-.005a.289.289,0,0,0,.291-.206,8.575,8.575,0,0,1,5.594-5.776,8.576,8.576,0,0,1,5.595,5.776.292.292,0,0,0,.281.212.3.3,0,0,0,.08-.011.292.292,0,0,0,.2-.361,9.157,9.157,0,0,0-5.169-5.871,8.445,8.445,0,0,1,1.632-.165,8.576,8.576,0,0,1,8.214,6.2.292.292,0,0,0,.281.212.305.305,0,0,0,.081-.011A.293.293,0,0,0,277.863,137.947Z" transform="translate(-255.06 -131.326)" fill="#65c8d0"/></g></g><g transform="translate(7.099 28.897)"><circle cx="8.835" cy="8.835" r="8.835" transform="translate(0 12.495) rotate(-45)" fill="#8bd6dd"/><g transform="translate(3.708 3.577)"><path d="M304.494,229.175l.61-.392,2.679.1,3.019.967,2.709,2.407,1.074,1.9.328,1.228H309.7l-.581-1.967-1.608-2.29-1.8-1.389Z" transform="translate(-292.39 -228.393)" fill="#65c8d0"/><path d="M277.863,233.812a9.163,9.163,0,0,0-8.776-6.621c-.085,0-.169.008-.254.011l.024-.008-4.645,0-.033.009c-.111,0-.221-.014-.333-.014a9.166,9.166,0,0,0-8.472,5.747l-.064.113v.041q-.134.353-.239.72a.293.293,0,0,0,.2.361h0v.01h5.309v0a.289.289,0,0,0,.291-.207,8.576,8.576,0,0,1,5.594-5.777,8.576,8.576,0,0,1,5.595,5.777.292.292,0,0,0,.281.212.3.3,0,0,0,.08-.011.292.292,0,0,0,.2-.361,9.157,9.157,0,0,0-5.169-5.871,8.445,8.445,0,0,1,1.632-.165,8.576,8.576,0,0,1,8.214,6.2.292.292,0,0,0,.281.212.3.3,0,0,0,.081-.011A.293.293,0,0,0,277.863,233.812Z" transform="translate(-255.06 -227.191)" fill="#65c8d0"/></g></g></g></g></g><g transform="translate(140 112.247)"><g transform="translate(26.816 21.423)"><g transform="translate(15.337 46.878)"><path d="M529.406,627.281a.612.612,0,0,1-.581-.419l-28.8-86.432a.612.612,0,1,1,1.162-.387l28.8,86.432a.613.613,0,0,1-.581.806Z" transform="translate(-499.996 -539.624)" fill="#fff"/><path d="M559.818,718.56a.612.612,0,0,1-.581-.419l-7.949-23.858a.612.612,0,0,1,1.162-.387l7.949,23.858a.612.612,0,0,1-.581.806Z" transform="translate(-538.706 -655.806)" fill="#67a2c7"/><path d="M596.009,827.181a.612.612,0,0,1-.581-.419l-7.2-21.616a.612.612,0,1,1,1.161-.387l7.2,21.616a.613.613,0,0,1-.581.806Z" transform="translate(-566.6 -739.524)" fill="#67a2c7"/><path d="M613.432,879.474a.612.612,0,0,1-.58-.419l-1.553-4.661a.612.612,0,0,1,1.162-.387l1.553,4.661a.612.612,0,0,1-.581.806Z" transform="translate(-584.022 -791.817)" fill="#22367d"/></g><path d="M496.443,544c1.871,3.556,2.414,4.945,2.5,5.489a1.082,1.082,0,0,0,.411.788.862.862,0,0,0,.639.047,1.564,1.564,0,0,1,.228-.96c.109-.171.218-.341.356-.354.2-.019.519.3,1,1.792a7.2,7.2,0,0,0,.742-1.3,4.864,4.864,0,0,0,.495-1.691c.023-.877-.537-1.537-1.636-2.674-1.221-1.263-2.307-2.342-3.207-3.218Z" transform="translate(-481.976 -494.484)" fill="#ffba93"/><path d="M453.13,393.8a2.328,2.328,0,0,0-.456-1.172c-.7-.988-2.831-6.789-3.474-12.164a31.106,31.106,0,0,1-.216-3.863q.021-.7.036-1.389c0-.017,0-.033,0-.051h0c.267-11.8-.581-20.211-1.878-22.633-.813-1.518-3.658-4.152-4.573-4.3a3.993,3.993,0,0,0-2.026.169c-.568.227-3.777,3.606-3.089,16.317a74.094,74.094,0,0,0,3.1,17.458h0c.765,3.578,2.745,8.237,7.287,13.7a3.314,3.314,0,0,0,1.552,1.071,2.523,2.523,0,0,0,.779.073l1.734,1.272,2.08-2.127-.918-1.662A2.108,2.108,0,0,0,453.13,393.8Z" transform="translate(-437.359 -348.165)" fill="#fcee21"/></g><g transform="translate(10.284 55.363)"><g transform="translate(2.913 86.237)"><path d="M381.738,840.177q.931,4.227,1.942,8.768l4.741-.815c-.221-3.023-.425-6.077-.622-9.145Z" transform="translate(-381.738 -838.986)" fill="#ffba93"/><g transform="translate(0.245 8.065)"><path d="M382.978,877.388a5.461,5.461,0,0,0,.435,1.025h5.336q-.013-.619-.027-1.237l1.5,1.237h10.169a1.349,1.349,0,0,0,1.024-.383,1.3,1.3,0,0,0,.3-.879c-.062-1.126-2.951-1.92-3.8-2.158a74.992,74.992,0,0,1-8.694-3.071,2.375,2.375,0,0,1-.623.556,2.639,2.639,0,0,1-1.9.286l-2.905-.718A7.017,7.017,0,0,0,382.978,877.388Z" transform="translate(-382.738 -871.923)" fill="#fcee21"/><path d="M391.037,894.615h-2.722a.245.245,0,1,1,0-.49h2.722a.245.245,0,0,1,0,.49Z" transform="translate(-386.764 -888.689)" fill="#22367d"/><path d="M422.2,894.619h-8.393a.245.245,0,0,1,0-.49H422.2a.245.245,0,0,1,0,.49Z" transform="translate(-406.016 -888.692)" fill="#22367d"/><path d="M391.678,873.289a4.724,4.724,0,0,1-2.322-.62.245.245,0,1,1,.241-.426,4.207,4.207,0,0,0,2.345.547,4.14,4.14,0,0,0,1.693-.484.245.245,0,1,1,.23.432,4.629,4.629,0,0,1-1.892.54C391.873,873.286,391.775,873.289,391.678,873.289Z" transform="translate(-387.642 -872.141)" fill="#22367d"/></g></g><g transform="translate(11.305 79.488)"><g transform="translate(3.401)"><path d="M434.456,811.425q-2.2,3.728-4.553,7.741l4.026,2.634q2.847-3.545,5.776-7.117Z" transform="translate(-429.903 -811.425)" fill="#ffba93"/></g><g transform="translate(0 6.371)"><path d="M416.213,841.453a5.476,5.476,0,0,0-.2,1.1l4.455,2.938.659-1.047.572,1.859,8.489,5.6a1.349,1.349,0,0,0,1.066.244,1.3,1.3,0,0,0,.734-.569c.568-.974-1.407-3.227-1.982-3.892a74.98,74.98,0,0,1-5.567-7.349,2.371,2.371,0,0,1-.826.121,2.641,2.641,0,0,1-1.744-.807l-2.03-2.2A7.017,7.017,0,0,0,416.213,841.453Z" transform="translate(-416.011 -837.444)" fill="#fcee21"/><path d="M422.335,858.486a.243.243,0,0,1-.135-.04l-2.272-1.5a.245.245,0,1,1,.27-.409l2.272,1.5a.245.245,0,0,1-.135.449Z" transform="translate(-418.885 -851.833)" fill="#22367d"/><path d="M448.348,875.646a.243.243,0,0,1-.134-.04l-7.007-4.621a.245.245,0,0,1,.27-.409l7.007,4.621a.245.245,0,0,1-.135.449Z" transform="translate(-434.954 -862.433)" fill="#22367d"/><path d="M436.627,841.741H436.6a4.629,4.629,0,0,1-1.877-.591,4.7,4.7,0,0,1-1.849-1.95.245.245,0,1,1,.436-.223,4.215,4.215,0,0,0,1.656,1.748,4.14,4.14,0,0,0,1.68.528.245.245,0,0,1-.023.489Z" transform="translate(-428.728 -838.5)" fill="#22367d"/></g></g><path d="M373.186,578.941h7.03q2.287-24.046,4.245-48.115.9-11.089,1.735-22.186c1.547,4.341,3.772,10.96,6.026,19.264.772,2.845,1.448,5.521,1.666,6.468,1.077,4.7,2.03,15.513-7.783,36.077l4.93,3.469c14.94-17.268,16.123-31.79,16.078-37.9-.056-7.589-2.1-15.281-5.213-26.987-2.346-8.826-4.805-16.039-6.666-21.1l-21.089-1.151a49.2,49.2,0,0,0-3.955,14c-.535,4.312-.377,8.477-.063,16.806.159,4.226.365,7.33.375,7.48C370.939,531.651,371.719,546.34,373.186,578.941Z" transform="translate(-369.839 -486.784)" fill="#22367d"/><path d="M502.358,697.189a.242.242,0,0,1-.157-.057l-2.057-1.722a.245.245,0,0,1,.314-.375l2.057,1.722a.245.245,0,0,1-.157.433Z" transform="translate(-468.173 -644.001)" fill="#fff"/><path d="M410.125,697.189a.245.245,0,0,1-.219-.136l-.857-1.722a.245.245,0,1,1,.439-.218l.857,1.722a.245.245,0,0,1-.11.328A.24.24,0,0,1,410.125,697.189Z" transform="translate(-399.429 -644.001)" fill="#fff"/><path d="M381.459,531.576a.245.245,0,0,1-.1-.47,7.152,7.152,0,0,0,2.3-1.545,7.268,7.268,0,0,0,1.874-3.317.245.245,0,1,1,.474.121,7.757,7.757,0,0,1-2,3.54,7.628,7.628,0,0,1-2.452,1.651A.241.241,0,0,1,381.459,531.576Z" transform="translate(-378.429 -516.444)" fill="#fff"/><path d="M470.957,527.172a.244.244,0,0,1-.148-.05,8.255,8.255,0,0,1-2.412-2.895,8.153,8.153,0,0,1-.676-1.931.245.245,0,1,1,.479-.1,7.678,7.678,0,0,0,.635,1.815,7.769,7.769,0,0,0,2.271,2.724.245.245,0,0,1-.149.44Z" transform="translate(-443.751 -513.378)" fill="#fff"/><g transform="translate(4.243 3.978)"><path d="M435.354,507.359h-2.413a.8.8,0,0,1-.747-.847v-1.229a.8.8,0,0,1,.747-.847h2.413a.8.8,0,0,1,.747.847v1.229A.8.8,0,0,1,435.354,507.359Zm-2.413-2.433c-.139,0-.257.164-.257.357v1.229c0,.194.118.358.257.358h2.413c.139,0,.257-.164.257-.358v-1.229c0-.194-.118-.357-.257-.357Z" transform="translate(-421.169 -504.092)" fill="#fff"/><path d="M431.525,509.895h-1.61a.245.245,0,0,1,0-.49h1.61a.245.245,0,0,1,0,.49Z" transform="translate(-419.263 -507.844)" fill="#fff"/><path d="M396.916,505.712h0a22.03,22.03,0,0,1-9.611-2.216.245.245,0,0,1,.213-.441,21.543,21.543,0,0,0,9.4,2.167.245.245,0,0,1,0,.49Z" transform="translate(-387.167 -503.031)" fill="#fff"/><path d="M446.634,507.344a.245.245,0,0,1-.02-.489,19.192,19.192,0,0,0,5.989-1.491.245.245,0,1,1,.193.45,19.694,19.694,0,0,1-6.141,1.528Z" transform="translate(-431.889 -504.778)" fill="#fff"/></g></g><g transform="translate(8.196 20.722)"><path d="M367.681,380.595c-.414-.2-.629-.29-.751-.364-3.644-2.214-1.1-7.762-2.785-16.137-1.307-6.488-4.258-10.225-2.017-14.563a4.439,4.439,0,0,1,.506-.848c2.972-3.723,11.773-3.427,14.623-3.331.513.017.941.043,1.243.064l.285.022c5.462.449,8.063,2.582,8.063,2.582.06.054.141.128.234.22,0,0,.162.158.316.328,2.249,2.48,3.635,7.9,3.635,7.9.8,3.132,1.2,4.7,1.141,6.163-.1,2.446-.795,2.624-1.461,6.391a30.615,30.615,0,0,0-.665,6.408c.041,2.32.4,4.69-.853,5.484a1.583,1.583,0,0,1-.4.18,24.99,24.99,0,0,1-21.115-.5Z" transform="translate(-361.313 -345.304)" fill="#fcee21"/><g transform="translate(3.044 11.531)"><path d="M378.3,397.1c.1-2.23-.124-4.677-.462-4.7-.042,0-.114.093-.282.261a5.242,5.242,0,0,0-.661.845,14.379,14.379,0,0,0-.921,1.708,37.848,37.848,0,0,0-2.234,5.629c.758,4.71.259,8.458.542,11.141.95-2.586,1.663-4.785,2.168-6.425C378,400.549,378.236,398.652,378.3,397.1Z" transform="translate(-373.745 -392.399)" fill="#22367d"/></g><path d="M436.177,397.372h-.007a.245.245,0,0,1-.238-.252,70.657,70.657,0,0,1,1.327-12.473l.043-.2a15.919,15.919,0,0,0,.2-6.935,14.245,14.245,0,0,0-.76-2.4c-.1-.269-.216-.566-.343-.909a69.239,69.239,0,0,1-2.45-8.183.245.245,0,0,1,.477-.112,68.673,68.673,0,0,0,2.432,8.125c.127.342.24.638.342.9a14.8,14.8,0,0,1,.782,2.469,16.357,16.357,0,0,1-.2,7.138l-.043.2a70.163,70.163,0,0,0-1.317,12.385A.245.245,0,0,1,436.177,397.372Z" transform="translate(-416.158 -360.722)" fill="#22367d"/><g transform="translate(16.906 8.314)"><circle cx="0.519" cy="0.519" r="0.519" fill="#fff"/><circle cx="0.519" cy="0.519" r="0.519" transform="translate(0.853 3.538)" fill="#fff"/><path d="M438.76,406.3a.519.519,0,1,1-.519-.52A.519.519,0,0,1,438.76,406.3Z" transform="translate(-435.919 -399.287)" fill="#fff"/><path d="M440.882,418.375a.519.519,0,1,1-.52-.52A.519.519,0,0,1,440.882,418.375Z" transform="translate(-437.521 -408.405)" fill="#fff"/><path d="M440.046,430.873a.519.519,0,1,1-.519-.519A.519.519,0,0,1,440.046,430.873Z" transform="translate(-436.89 -417.844)" fill="#fff"/><path d="M437.924,442.846a.52.52,0,1,1-.52-.52A.52.52,0,0,1,437.924,442.846Z" transform="translate(-435.288 -426.884)" fill="#fff"/><path d="M436.285,455.576a.519.519,0,1,1-.52-.52A.52.52,0,0,1,436.285,455.576Z" transform="translate(-434.05 -436.497)" fill="#fff"/><path d="M434.969,466.4a.519.519,0,1,1-.519-.52A.52.52,0,0,1,434.969,466.4Z" transform="translate(-433.056 -444.673)" fill="#fff"/><path d="M434.163,478.18a.519.519,0,1,1-.519-.52A.52.52,0,0,1,434.163,478.18Z" transform="translate(-432.447 -453.567)" fill="#fff"/></g></g><g transform="translate(0 22.799)"><g transform="translate(16.627 3.503)"><path d="M396.968,373.269l-.032,0a.245.245,0,0,1-.211-.275,6.989,6.989,0,0,0-.946-4.527.245.245,0,1,1,.419-.253,7.478,7.478,0,0,1,1.012,4.844A.245.245,0,0,1,396.968,373.269Z" transform="translate(-395.744 -368.094)" fill="#22367d"/></g><path d="M348.991,554.732c-.039.732-.1,1.328-.154,1.729,0,0-.39,5.361-.367,6.144a.16.16,0,0,0,.146.154.154.154,0,0,0,.169-.128l.464-2.356.582,4.275a.185.185,0,0,0,.366,0l.519-3.757.5,4.3a.173.173,0,0,0,.345,0l.382-4.356.687,3.725a.107.107,0,0,0,.212-.02q-.011-2.618-.022-5.236l2.242,2.162a.182.182,0,0,0,.282-.228l-4.275-7.655Z" transform="translate(-343.418 -504.586)" fill="#ffba93"/><path d="M335.957,400.778a2.33,2.33,0,0,0-.034-1.257c-.325-1.166-.376-7.346.832-12.623a31.12,31.12,0,0,1,1.1-3.709q.256-.654.5-1.3l.019-.047h0c4.231-11.02,6.269-19.223,5.865-21.94-.254-1.7-2.043-5.143-2.854-5.591a3.993,3.993,0,0,0-1.964-.524c-.611.022-4.771,2.121-8.411,14.319a74.092,74.092,0,0,0-2.974,17.479h0c-.486,3.627-.194,8.681,2.239,15.357a3.316,3.316,0,0,0,1.1,1.532,2.539,2.539,0,0,0,.709.332l1.2,1.783,2.676-1.3q-.152-.937-.3-1.874A2.108,2.108,0,0,0,335.957,400.778Z" transform="translate(-327.838 -353.788)" fill="#fcee21"/></g><g transform="translate(10)"><g transform="translate(0 16.318)"><path d="M374.029,335.09a.242.242,0,0,1-.041,0c-2.925-.5-5.049-2.2-5.287-4.231a3.359,3.359,0,0,1,.939-2.78,3.815,3.815,0,0,1,4.452-.1.245.245,0,1,1-.25.421,3.329,3.329,0,0,0-3.873.038,2.916,2.916,0,0,0-.781,2.359c.209,1.785,2.217,3.35,4.883,3.805a.245.245,0,0,1-.041.486Z" transform="translate(-368.68 -327.317)" fill="#22367d"/></g><g transform="translate(13.314 15.583)"><path d="M.231,0h4.1a.231.231,0,0,1,.231.231v6.2A2.282,2.282,0,0,1,2.282,8.715h0A2.282,2.282,0,0,1,0,6.433V.231A.231.231,0,0,1,.231,0Z" fill="#ffba93"/></g><g transform="translate(1.097)"><g transform="translate(9.666 3.915)"><path d="M424.463,281.995c-.607,4.524.537,6.22-.961,7.788-1.6,1.671-4.362,1.275-4.633,1.232-3.554-.56-5.575-4.338-6.062-7.13-.153-.873-.736-4.985,1.774-6.7.95-.647,2.07-.566,4.288-.435,1.5.089,3.346.223,4.564,1.516a4.187,4.187,0,0,1,.735,1.088A4.638,4.638,0,0,1,424.463,281.995Z" transform="translate(-412.638 -276.664)" fill="#ffba93"/><path d="M432.369,332.975h-.017a6.153,6.153,0,0,1-2.459-.7.245.245,0,1,1,.229-.433,5.647,5.647,0,0,0,2.263.646.245.245,0,0,1-.016.489Z" transform="translate(-425.571 -318.308)" fill="#22367d"/><path d="M455.708,314.326a.245.245,0,0,1-.1-.469.265.265,0,0,0,.17-.2.294.294,0,0,0-.284-.266.245.245,0,1,1,.051-.487.777.777,0,0,1,.721.786.742.742,0,0,1-.462.617A.248.248,0,0,1,455.708,314.326Z" transform="translate(-444.837 -304.028)" fill="#22367d"/></g><path d="M394.766,266.132a6.2,6.2,0,0,1-.057,2.547c-1.611,2-2.9,2.417-3.8,2.4-.759-.01-1.135-.325-1.96-.119-1.377.343-1.963,1.707-2.447,1.423-.077-.045-.472-.3-.428-1.371-.14,0-.243-.013-.323-.022-.176-.021-.239-.024-.261-.025-.35-.007-1.369,2.162-.737,4.518a5.9,5.9,0,0,0,.418,1.1c.121.215,1.766,3.257.2,6.1-1.509,2.748-4.859,3.2-6.9,2.9a6.454,6.454,0,0,1-4.395-2.637c-.582-.9-1.407-2.81-.565-3.955a2.943,2.943,0,0,1,1.57-.942,4.379,4.379,0,0,1,1.507,0c2-.138.6-10.962,5.428-15.281a8.493,8.493,0,0,1,8.955-1.371A7.224,7.224,0,0,1,394.766,266.132Z" transform="translate(-373.162 -260.673)" fill="#22367d"/><g transform="translate(9.666 9.935)"><circle cx="1.977" cy="1.977" r="1.977" fill="#ffba93"/><path d="M418.607,308.465a.246.246,0,0,1-.138-.042l-1.355-.924a.245.245,0,1,1,.276-.4l1.355.924a.245.245,0,0,1-.138.447Z" transform="translate(-415.937 -305.631)" fill="#22367d"/><path d="M421.3,308.3a.245.245,0,0,1-.239-.193l-.165-.76a.245.245,0,1,1,.478-.1l.165.76a.245.245,0,0,1-.188.291A.236.236,0,0,1,421.3,308.3Z" transform="translate(-418.87 -305.63)" fill="#22367d"/></g></g><g transform="translate(18.737 10.638)"><circle cx="1.118" cy="1.118" r="1.118" fill="#22367d"/><path d="M459.451,305.238c0,.617-.25,1.117-.559,1.117s-.559-.5-.559-1.117.25-1.118.559-1.118S459.451,304.62,459.451,305.238Z" transform="translate(-455.119 -304.12)" fill="#22367d"/><path d="M453.329,307.7a.246.246,0,0,1-.2-.1.982.982,0,0,0-.62-.4,1,1,0,0,0-.952.407.245.245,0,1,1-.39-.3,1.436,1.436,0,0,1,2.361.006.245.245,0,0,1-.2.387Z" transform="translate(-449.669 -306.063)" fill="#22367d"/></g></g><path d="M424.7,899.325H347.439a.245.245,0,0,1,0-.49H424.7a.245.245,0,1,1,0,.49Z" transform="translate(-342.455 -742.581)" fill="#22367d"/></g></g></svg>