<svg xmlns="http://www.w3.org/2000/svg" xmlns:xlink="http://www.w3.org/1999/xlink" width="103" height="103" viewBox="0 0 103 103"><defs><filter id="a" x="0" y="0" width="103" height="103" filterUnits="userSpaceOnUse"><feOffset dy="3" input="SourceAlpha"/><feGaussianBlur stdDeviation="3" result="b"/><feFlood flood-opacity="0.161"/><feComposite operator="in" in2="b"/><feComposite in="SourceGraphic"/></filter><clipPath id="c"><rect width="53" height="48" transform="translate(507 1709)" fill="#fff"/></clipPath></defs><g transform="translate(-695.723 -1677)"><g transform="matrix(1, 0, 0, 1, 695.72, 1677)" filter="url(#a)"><circle cx="42.5" cy="42.5" r="42.5" transform="translate(9 6)" fill="#fff"/></g><g transform="translate(213.723 -11)" clip-path="url(#c)"><g transform="translate(507 1709.202)"><g transform="translate(0.776 0.776)"><g transform="translate(24.129)"><path d="M51.329,12.3a8.178,8.178,0,1,0-16.356,0s0,11.991,0,13.864H51.332c0-1.873,0-13.864,0-13.864Z" transform="translate(-29.492 -4.125)" fill="#756e78"/><g transform="translate(12.237)"><path d="M52.349,12.3a8.172,8.172,0,0,0-9.6-8.052,3.815,3.815,0,0,1,2.84,3.688V26.168h6.763c0-1.873,0-13.864,0-13.864Z" transform="translate(-42.749 -4.125)" fill="#665e66"/></g><g transform="translate(18.561 8.011)"><path d="M50.027,13.345v4.633h2.735a1.165,1.165,0,0,0,1.165-1.165v-2.3a1.165,1.165,0,0,0-1.165-1.165H50.027Z" transform="translate(-50.027 -13.345)" fill="#9bc4f9"/></g><g transform="translate(4.857 8.011)"><path d="M38.155,13.345v4.633H35.42a1.165,1.165,0,0,1-1.165-1.165v-2.3a1.165,1.165,0,0,1,1.165-1.165h2.735Z" transform="translate(-34.256 -13.345)" fill="#9bc4f9"/></g><g transform="translate(0 13.977)"><path d="M49.872,30.649,47.953,26.43l-.058-.014A1.667,1.667,0,0,1,46.6,24.793v-4.58H40.22v4.58a1.667,1.667,0,0,1-1.295,1.624l-.058.014-1.919,4.219Z" transform="translate(-29.751 -20.213)" fill="#ffddce"/><path d="M49.149,28.025l-.044.039a8.644,8.644,0,0,1-13.564,0l-.048-.038a8.874,8.874,0,0,0-6.829,8.635v5.387H55.983V36.661a8.874,8.874,0,0,0-6.833-8.636Z" transform="translate(-28.665 -21.237)" fill="#dbe8f9"/><path d="M48.413,27.553l-.252-1.407a1.669,1.669,0,0,0,1.191,1.049l.058.014,1.919.492a8.874,8.874,0,0,1,7.2,8.714V41.8H48.058A35.461,35.461,0,0,0,48.413,27.553Z" transform="translate(-31.208 -20.991)" fill="#7fb2f9"/><path d="M51.345,27.7l-1.919-.492-.058-.014a1.669,1.669,0,0,1-1.191-1.049l.252,1.407c.13.725.234,1.454.319,2.184a8.867,8.867,0,0,1,3.031,6.678V41.8h6.763V36.415A8.874,8.874,0,0,0,51.345,27.7Z" transform="translate(-31.224 -20.991)" fill="#60a0f7"/><path d="M38.778,27.553l.252-1.407a1.669,1.669,0,0,1-1.191,1.049l-.058.014-1.919.492a8.874,8.874,0,0,0-7.2,8.714V41.8H39.133a35.461,35.461,0,0,1-.355-14.249Z" transform="translate(-28.665 -20.991)" fill="#7fb2f9"/><path d="M52.646,37.2h2.485a.828.828,0,0,0,.828-.828V35.154a.828.828,0,0,0-.828-.828H52.646a.828.828,0,0,0-.828.828v1.213A.828.828,0,0,0,52.646,37.2Z" transform="translate(-31.702 -22.063)" fill="#ffd064"/></g><g transform="translate(7.826 4.541)"><g transform="translate(0 0)"><path d="M49.339,12.822a5.473,5.473,0,0,1-2.75-3.255.309.309,0,0,0-.565-.054c-1.267,2.281-3.79,3.309-6.7,3.309H37.672v3.694a5.834,5.834,0,0,0,11.667,0Z" transform="translate(-37.672 -9.352)" fill="#ffddce"/></g><path d="M47.136,9.567a.309.309,0,0,0-.565-.054,5.763,5.763,0,0,1-1.1,1.411v5.593a5.837,5.837,0,0,1-3.626,5.313,5.835,5.835,0,0,0,8.041-5.313V12.822A5.472,5.472,0,0,1,47.136,9.567Z" transform="translate(-38.219 -9.352)" fill="#ffcbbe"/><g transform="translate(6.829 9.713)"><path d="M48.524,22.977h-1.77a1.223,1.223,0,0,1,0-2.445h1.77a1.223,1.223,0,0,1,0,2.445Z" transform="translate(-45.531 -20.531)" fill="#db636e"/></g></g></g><path d="M13.931,55.108H51.953a2.1,2.1,0,0,0,2.1-2.1V43.4H13.931Z" transform="translate(-2.603 -9.276)" fill="#eaf2ff"/><path d="M52.006,43.4V53.01a2.1,2.1,0,0,1-2.1,2.1h6.763a2.1,2.1,0,0,0,2.1-2.1V43.4Z" transform="translate(-7.322 -9.276)" fill="#dbe8f9"/><g transform="translate(0 8.715)"><g transform="translate(0 15.356)"><path d="M20.723,36.619V31.83H14.056v4.789a1.743,1.743,0,0,1-1.354,1.7s.177,3.937,4.687,3.937a4.64,4.64,0,0,0,4.972-3.88l-.225-.043A1.743,1.743,0,0,1,20.723,36.619Z" transform="translate(-2.442 -31.83)" fill="#ffddce"/><path d="M28.264,54.569a2.524,2.524,0,0,0,2.524-2.524V49.778a10.3,10.3,0,0,0-8.352-10.112l-1.624-.313a6.915,6.915,0,0,1-9.6,0l-.056-.054-.061.014-1.848.356A10.3,10.3,0,0,0,.894,49.778v2.267a2.524,2.524,0,0,0,2.524,2.524Z" transform="translate(-0.894 -32.809)" fill="#e07f84"/><g transform="translate(17.794 6.544)"><path d="M25.122,39.674,23.5,39.362a6.9,6.9,0,0,1-2.125,1.4,10.3,10.3,0,0,1,5.341,9.027v2.267a2.524,2.524,0,0,1-2.524,2.524H30.95a2.524,2.524,0,0,0,2.524-2.524V49.787a10.3,10.3,0,0,0-8.352-10.112Z" transform="translate(-21.374 -39.362)" fill="#db636e"/></g></g><path d="M24.964,22.979a3.757,3.757,0,0,0,.308-2.16l-.007-.048a1.538,1.538,0,0,0-.453-1.083.576.576,0,0,1-.171-.407,2.056,2.056,0,0,0-1.373-1.909.7.7,0,0,1-.431-.464,1.689,1.689,0,0,0-1.526-1.19.577.577,0,0,1-.428-.24,1.752,1.752,0,0,0-1.427-.71,1.817,1.817,0,0,0-.467.061.706.706,0,0,1-.677-.171,1.909,1.909,0,0,0-1.5-.5h0a1.885,1.885,0,0,0-1.5.5.706.706,0,0,1-.677.171,1.817,1.817,0,0,0-.467-.061,1.752,1.752,0,0,0-1.427.71.576.576,0,0,1-.428.24,1.689,1.689,0,0,0-1.526,1.19.7.7,0,0,1-.431.464A2.056,2.056,0,0,0,8.987,19.28a.576.576,0,0,1-.171.407,1.538,1.538,0,0,0-.453,1.083l-.007.048A3.759,3.759,0,0,0,8.671,23a18.772,18.772,0,0,1,.5,2.494,4.226,4.226,0,0,0,.445,1.324A4.285,4.285,0,0,1,10.1,28.3a6.339,6.339,0,0,0,2.1,4.028,6.869,6.869,0,0,0,9.263-.04,6.34,6.34,0,0,0,2.071-4.046,4.1,4.1,0,0,1,.478-1.473l0-.008a4.237,4.237,0,0,0,.46-1.365,18.216,18.216,0,0,1,.478-2.417Z" transform="translate(-1.866 -14.156)" fill="#ffddce"/><path d="M26.066,20.819l-.007-.048a1.538,1.538,0,0,0-.453-1.083.576.576,0,0,1-.171-.407,2.056,2.056,0,0,0-1.373-1.909.7.7,0,0,1-.431-.464,1.689,1.689,0,0,0-1.526-1.19.577.577,0,0,1-.428-.24,1.752,1.752,0,0,0-1.427-.71,1.816,1.816,0,0,0-.467.061.706.706,0,0,1-.677-.171,1.909,1.909,0,0,0-1.5-.5h0a1.885,1.885,0,0,0-1.5.5.706.706,0,0,1-.677.171,1.827,1.827,0,0,0-1.056.037,1.761,1.761,0,0,1,.513.3c.335.272.353.529.728.556a1.8,1.8,0,0,1,.868.3c.811.545.48,1.127,1.089,1.358a2.056,2.056,0,0,1,1.373,1.909c0,.508.673.431.675,2.11,0,1.344-.28.477-.829,4.006-.2,1.3-.8,1.582-.942,2.845a6.34,6.34,0,0,1-2.071,4.046,7.6,7.6,0,0,1-1.409.986,6.915,6.915,0,0,0,3.271.83,7.048,7.048,0,0,0,4.624-1.816,6.34,6.34,0,0,0,2.071-4.046,4.1,4.1,0,0,1,.478-1.473l0-.008a4.237,4.237,0,0,0,.46-1.365,18.15,18.15,0,0,1,.478-2.417,3.756,3.756,0,0,0,.308-2.16Z" transform="translate(-2.661 -14.156)" fill="#ffcbbe"/><path d="M25.264,20.77a1.538,1.538,0,0,0-.453-1.083.576.576,0,0,1-.171-.407,2.056,2.056,0,0,0-1.373-1.909.7.7,0,0,1-.431-.464,1.689,1.689,0,0,0-1.526-1.19.577.577,0,0,1-.428-.24,1.752,1.752,0,0,0-1.427-.71,1.817,1.817,0,0,0-.467.061.706.706,0,0,1-.677-.171,1.909,1.909,0,0,0-1.5-.5h0a1.885,1.885,0,0,0-1.5.5.706.706,0,0,1-.677.171,1.817,1.817,0,0,0-.467-.061,1.752,1.752,0,0,0-1.427.71.577.577,0,0,1-.428.24,1.689,1.689,0,0,0-1.526,1.19.7.7,0,0,1-.431.464A2.056,2.056,0,0,0,8.987,19.28a.576.576,0,0,1-.171.407,1.538,1.538,0,0,0-.453,1.083l-.007.048A3.759,3.759,0,0,0,8.671,23a18.772,18.772,0,0,1,.5,2.494,4.229,4.229,0,0,0,.445,1.324,4.6,4.6,0,0,1,.283.641,3.8,3.8,0,0,0,1.3,1.792l.057.042a9.423,9.423,0,0,0,11.182-.04l.013-.009a3.723,3.723,0,0,0,1.275-1.8,4.381,4.381,0,0,1,.3-.676l0-.008a4.237,4.237,0,0,0,.46-1.365,18.151,18.151,0,0,1,.478-2.417,3.757,3.757,0,0,0,.308-2.16Z" transform="translate(-1.866 -14.156)" fill="#756e78"/><path d="M26.067,20.819l-.007-.048a1.538,1.538,0,0,0-.453-1.083.576.576,0,0,1-.171-.407,2.056,2.056,0,0,0-1.373-1.909.7.7,0,0,1-.431-.464,1.689,1.689,0,0,0-1.526-1.19.577.577,0,0,1-.428-.24,1.752,1.752,0,0,0-1.427-.71,1.817,1.817,0,0,0-.467.061.706.706,0,0,1-.677-.171,1.909,1.909,0,0,0-1.5-.5h0a1.885,1.885,0,0,0-1.5.5.706.706,0,0,1-.677.171,1.827,1.827,0,0,0-1.056.037,1.761,1.761,0,0,1,.513.3c.335.272.353.529.728.556a1.8,1.8,0,0,1,.868.3c.811.545.48,1.127,1.089,1.358a2.056,2.056,0,0,1,1.373,1.909c0,.508.673.431.675,2.11,0,1.344-.28.477-.829,4.006-.2,1.3-.8,1.582-.942,2.845a6.526,6.526,0,0,1-1.017,2.829c.265.022.536.036.816.038a9.38,9.38,0,0,0,5.582-1.858l.013-.009a3.723,3.723,0,0,0,1.275-1.8,4.381,4.381,0,0,1,.3-.676l0-.008a4.237,4.237,0,0,0,.46-1.365,18.15,18.15,0,0,1,.478-2.417,3.755,3.755,0,0,0,.308-2.16Z" transform="translate(-2.662 -14.156)" fill="#665e66"/></g></g><g transform="translate(0 0)"><path d="M47.522,24.71c0-.011,0-.77,0-7.8a1.934,1.934,0,0,0,.621-1.419v-2.3a1.934,1.934,0,0,0-.636-1.432,8.952,8.952,0,0,0-17.884,0,1.934,1.934,0,0,0-.636,1.432v2.3a1.934,1.934,0,0,0,.622,1.42v2.444a.776.776,0,0,0,.776.777h0a.776.776,0,0,0,.776-.776V17.429H32.2A6.593,6.593,0,0,0,34.6,20.913c-.017,1.648.042,1.7-.058,1.967-.257.677-.747.5-3.379,1.243V22.982a.776.776,0,0,0-.776-.777h0a.776.776,0,0,0-.776.776V24.71a9.668,9.668,0,0,0-5.478,8.7v1.224a11.052,11.052,0,0,0-1.664-.46l-1.848-.356a.968.968,0,0,1-.785-.95v-.632a8.621,8.621,0,0,0,1.063-.8A7.1,7.1,0,0,0,23.225,26.9a3.386,3.386,0,0,1,.394-1.2c.74-1.366.609-2.87.962-3.832.572-1.233.641-3.136-.256-4.1a2.817,2.817,0,0,0-1.843-2.539,2.466,2.466,0,0,0-2.115-1.706,2.563,2.563,0,0,0-2.638-.882,2.624,2.624,0,0,0-2.007-.69,2.621,2.621,0,0,0-2.007.69,2.561,2.561,0,0,0-2.638.882,2.463,2.463,0,0,0-2.115,1.706,2.818,2.818,0,0,0-1.843,2.539c-.912.982-.825,2.891-.246,4.125.1.276.341,1.666.4,2.035.3,1.844.824,1.891.967,3.039a7.1,7.1,0,0,0,2.367,4.52,8.656,8.656,0,0,0,1,.747v.64a.962.962,0,0,1-.751.941h0l-1.881.364a11.017,11.017,0,0,0-3.944,1.589.776.776,0,0,0,.847,1.3A9.466,9.466,0,0,1,9.275,35.7l1.524-.293a7.651,7.651,0,0,0,5.095,1.931h0a7.651,7.651,0,0,0,5.035-1.877l1.241.239a9.535,9.535,0,0,1,7.722,9.35v2.267a1.75,1.75,0,0,1-1.748,1.748h-2.33V46.312a.776.776,0,1,0-1.553,0v2.751H7.166V46.312a.776.776,0,1,0-1.553,0v2.751H3.3a1.75,1.75,0,0,1-1.748-1.748V45.048a9.451,9.451,0,0,1,1.885-5.687.776.776,0,1,0-1.245-.928A10.993,10.993,0,0,0,0,45.049v2.267a3.3,3.3,0,0,0,3.3,3.3H50.126A2.877,2.877,0,0,0,53,47.742V33.41a9.668,9.668,0,0,0-5.478-8.7ZM9.545,16.665a1.483,1.483,0,0,0,.9-.981.912.912,0,0,1,.834-.625,1.372,1.372,0,0,0,1-.56,1.007,1.007,0,0,1,1.065-.353,1.487,1.487,0,0,0,1.421-.368,1.14,1.14,0,0,1,.953-.278,1.166,1.166,0,0,1,.953.278,1.487,1.487,0,0,0,1.421.368l.009,0a1.136,1.136,0,0,1,1.208.529,1.346,1.346,0,0,0,.711.368c.125.022.8.028.973.643a1.484,1.484,0,0,0,.9.981,1.278,1.278,0,0,1,.871,1.179,1.347,1.347,0,0,0,.395.956,2.7,2.7,0,0,1,0,2.419c-.417.895-.334,2.664-.921,3.748-.482.89-.443,1.538-1.35,2.217l-.015.011a8.647,8.647,0,0,1-10.257.038l-.052-.039c-.89-.666-.936-1.387-1.358-2.177-.552-1.034-.523-2.916-.932-3.784A2.68,2.68,0,0,1,8.279,18.8a1.346,1.346,0,0,0,.395-.956,1.277,1.277,0,0,1,.871-1.179Zm1.026,12.386a10.179,10.179,0,0,0,5.191,1.4h.015a10.169,10.169,0,0,0,5.113-1.4,5.267,5.267,0,0,1-1.019,1.219,6.1,6.1,0,0,1-8.243.035A5.271,5.271,0,0,1,10.571,29.051Zm1.821,5.636a2.5,2.5,0,0,0,.77-1.694,7.48,7.48,0,0,0,5.124,0,2.519,2.519,0,0,0,.921,1.821A6.11,6.11,0,0,1,12.392,34.686ZM51.447,33.41v3.948H48.667V35.8a.776.776,0,1,0-1.553,0v1.562h-4.27a36.139,36.139,0,0,0,.127-12.388c1.842.472,1.872.481,1.91.488A8.109,8.109,0,0,1,51.447,33.41Zm-15.58,3.948A34.5,34.5,0,0,1,35.33,28.3a9.452,9.452,0,0,0,6.47,0,34.505,34.505,0,0,1-.537,9.054ZM46.2,12.8a.389.389,0,0,1,.388.388v2.3a.389.389,0,0,1-.388.388H45.169c.011-.286,0,.082,0-3.08ZM44.429,18.8c-.009-.025-.017-.049-.027-.073a6.6,6.6,0,0,0,.522-1.3h1.044v.447a.944.944,0,0,1-.943.925ZM43,19.485a.447.447,0,0,1-.446.446h-1.77a.446.446,0,0,1,0-.893h1.77A.447.447,0,0,1,43,19.485Zm.253,3.955.01,0a.909.909,0,0,1-.731-.877V21.484h.021a2,2,0,0,0,1.8-1.131h.675a2.482,2.482,0,0,0,.943-.185v3.955l-2.717-.682ZM38.565,4.785A7.418,7.418,0,0,1,45.9,11.243H44.6a4.683,4.683,0,0,1-2.208-2.716A1.086,1.086,0,0,0,40.4,8.333c-1.843,3.316-5.879,2.91-9.178,2.91A7.417,7.417,0,0,1,38.565,4.785ZM30.928,15.876a.389.389,0,0,1-.388-.388v-2.3a.389.389,0,0,1,.388-.388h1.027c0,3.483-.007,2.739.006,3.08Zm2.58-.168V12.8c.37-.061,5.146.517,7.749-2.932a6.213,6.213,0,0,0,2.365,2.612v3.232a5.054,5.054,0,0,1-.4,1.9,1.985,1.985,0,0,0-.667-.117h-1.77a2,2,0,0,0-1.624,3.16,5.044,5.044,0,0,1-5.651-4.939Zm7.471,6.071c.031.928.533,3.808.666,4.916a7.87,7.87,0,0,1-6.16,0c.133-1.105.635-3.99.666-4.913A6.612,6.612,0,0,0,40.979,21.778Zm-15.3,13.553V33.41a8.108,8.108,0,0,1,6.567-7.951c.037-.007.067-.016,1.91-.488a36.139,36.139,0,0,0,.127,12.388H30.015V35.8a.776.776,0,1,0-1.553,0v1.562h-.129a11.086,11.086,0,0,0-2.651-2.026Zm25.765,12.41a1.321,1.321,0,0,1-1.321,1.321H30.944a3.28,3.28,0,0,0,.5-1.748V45.049A11.031,11.031,0,0,0,29.831,39.3l-.169-.264a.081.081,0,0,1,.068-.124H51.447Z" transform="translate(0 -3.232)"/><path d="M50.925,35.037V36.25a1.606,1.606,0,0,0,1.6,1.6h2.485a1.606,1.606,0,0,0,1.6-1.6V35.037a1.606,1.606,0,0,0-1.6-1.6H52.529A1.606,1.606,0,0,0,50.925,35.037Zm1.553,0a.052.052,0,0,1,.052-.052h2.485a.052.052,0,0,1,.052.052V36.25a.052.052,0,0,1-.052.052H52.529a.052.052,0,0,1-.052-.052Z" transform="translate(-6.679 -7.193)"/></g></g></g></g></svg>