<svg xmlns="http://www.w3.org/2000/svg" xmlns:xlink="http://www.w3.org/1999/xlink" width="103" height="103" viewBox="0 0 103 103"><defs><filter id="a" x="0" y="0" width="103" height="103" filterUnits="userSpaceOnUse"><feOffset dy="3" input="SourceAlpha"/><feGaussianBlur stdDeviation="3" result="b"/><feFlood flood-opacity="0.161"/><feComposite operator="in" in2="b"/><feComposite in="SourceGraphic"/></filter></defs><g transform="translate(-1011 -933)"><g transform="matrix(1, 0, 0, 1, 1011, 933)" filter="url(#a)"><circle cx="42.5" cy="42.5" r="42.5" transform="translate(9 6)" fill="#fff"/></g><g transform="translate(1038 956)"><path d="M36.953,39.154h3.933v3.5H36.953Z" transform="translate(-2.625 -2.418)" fill="#cbc4e5"/><path d="M15.059,11.173V17.38h10.2V6.626a.615.615,0,0,0-.614-.615H9.651a.615.615,0,0,0-.615.615v3.933h5.408A.614.614,0,0,1,15.059,11.173Z" transform="translate(-0.642 -0.063)" fill="#f6a96c"/><g transform="translate(16.159 5.948)"><path d="M22.678,6.011H17.4V9.083a.332.332,0,0,0,.332.332h4.619a.332.332,0,0,0,.332-.332Z" transform="translate(-17.395 -6.011)" fill="#fff"/></g><g transform="translate(8.394 5.948)"><path d="M12.485,10.559V6.626a.615.615,0,0,1,.614-.615H9.651a.615.615,0,0,0-.615.615v3.933Z" transform="translate(-9.036 -6.011)" fill="#ea9b58"/></g><path d="M15.519,17.9h6.145v-3.38a1.229,1.229,0,0,0-1.229-1.229H15.519Z" transform="translate(-1.102 -0.58)" fill="#fd5426"/><g transform="translate(6.991 43.312)"><path d="M13.39,47.613,11.6,50.7a.369.369,0,0,1-.638,0L9.175,47.613a3.756,3.756,0,1,0,4.215,0Z" transform="translate(-7.526 -46.331)" fill="#cbc4e5"/><path d="M9.845,50.716a3.728,3.728,0,0,1,.289-1.444l-.96-1.66a3.751,3.751,0,0,0,3.268,6.669A3.751,3.751,0,0,1,9.845,50.716Z" transform="translate(-7.526 -46.331)" fill="#b5adcf"/><path d="M8.5,46.233l2.53,4.374a.369.369,0,0,0,.638,0l2.53-4.374Z" transform="translate(-7.595 -46.233)" fill="#08a9f1"/><path d="M38.019,47.613,36.23,50.7a.369.369,0,0,1-.638,0L33.8,47.613a3.756,3.756,0,1,0,4.215,0Z" transform="translate(-9.275 -46.331)" fill="#cbc4e5"/><path d="M34.395,50.716a3.729,3.729,0,0,1,.323-1.522L33.8,47.613A3.752,3.752,0,0,0,37.031,54.3,3.752,3.752,0,0,1,34.395,50.716Z" transform="translate(-9.275 -46.331)" fill="#b5adcf"/><path d="M33.131,46.233l2.53,4.374a.369.369,0,0,0,.638,0l2.53-4.374Z" transform="translate(-9.345 -46.233)" fill="#08a9f1"/></g><g transform="translate(4.093 40.239)"><path d="M39.821,46H5.942a1.536,1.536,0,0,1,0-3.073h33.88a.615.615,0,0,1,.615.615v1.844a.615.615,0,0,1-.615.614Z" transform="translate(-4.405 -42.925)" fill="#fd5426"/></g><g transform="translate(4.093 40.239)"><path d="M39.821,46H5.942a1.536,1.536,0,0,1,0-3.073h33.88a.615.615,0,0,1,.615.615v1.844a.615.615,0,0,1-.615.614Z" transform="translate(-4.405 -42.925)" fill="#fd5426"/></g><g transform="translate(4.093 40.239)"><path d="M10.164,44.461A1.536,1.536,0,0,1,11.7,42.925H5.942a1.536,1.536,0,0,0,0,3.073H11.7A1.536,1.536,0,0,1,10.164,44.461Z" transform="translate(-4.405 -42.925)" fill="#ef4424"/></g><path d="M14.861,17.728V11.521a.615.615,0,0,0-.614-.615H6.872a.615.615,0,0,0-.614.615v6.207Z" transform="translate(-0.445 -0.411)" fill="#08a9f1"/><path d="M9.742,17.728V11.521a.615.615,0,0,1,.614-.615H6.872a.615.615,0,0,0-.614.615v6.207Z" transform="translate(-0.445 -0.411)" fill="#0290cf"/><path d="M40.529,17.664V11.231A1.229,1.229,0,0,0,39.3,10H33.154a1.229,1.229,0,0,0-1.229,1.229v6.433Z" transform="translate(-2.268 -0.347)" fill="#ffee9a"/><path d="M35.361,16.186V11.231A1.229,1.229,0,0,1,36.59,10H33.154a1.229,1.229,0,0,0-1.229,1.229v2.081A5.492,5.492,0,0,1,35.361,16.186Z" transform="translate(-2.268 -0.347)" fill="#fcdd66"/><path d="M35.308,17.9a5.477,5.477,0,0,0-10.8,0Z" transform="translate(-1.741 -0.584)" fill="#57be92"/><path d="M27.99,17.9a5.486,5.486,0,0,1,3.659-4.275,5.481,5.481,0,0,0-7.14,4.275Z" transform="translate(-1.741 -0.584)" fill="#22b27f"/><g transform="translate(0.83 17.317)"><path d="M39.028,37.669H6.229a.615.615,0,0,1-.595-.46L.914,19.018a.615.615,0,0,1,.595-.769H43.733l-3.5,18.42A1.229,1.229,0,0,1,39.028,37.669Z" transform="translate(-0.894 -18.25)" fill="#c8effe"/></g><g transform="translate(0.83 17.317)"><path d="M10.227,37.209,5.507,19.018A.615.615,0,0,1,6.1,18.25H1.509a.615.615,0,0,0-.595.769l4.72,18.191a.615.615,0,0,0,.595.46h4.593a.614.614,0,0,1-.595-.46Z" transform="translate(-0.894 -18.25)" fill="#99e6fc"/></g><g transform="translate(47.725 9.548)"><g transform="translate(0 0)"><path d="M58.872,12.959h-7.5V11.116A1.229,1.229,0,0,1,52.6,9.887h6.268a.615.615,0,0,1,.615.615v1.844A.615.615,0,0,1,58.872,12.959Z" transform="translate(-51.374 -9.887)" fill="#fd5426"/></g><path d="M56.09,9.887H52.6a1.229,1.229,0,0,0-1.229,1.229v1.844H54.86V11.116A1.229,1.229,0,0,1,56.09,9.887Z" transform="translate(-51.374 -9.887)" fill="#ef4424"/></g><g transform="translate(0 5.118)"><path d="M10.652,13.046H8.992a.83.83,0,1,0,0,1.66h1.66a.83.83,0,0,0,0-1.66Z" transform="translate(-0.58 -5.681)"/><circle cx="0.83" cy="0.83" r="0.83" transform="translate(34.975 6.314)"/><circle cx="0.83" cy="0.83" r="0.83" transform="translate(34.975 8.749)"/><path d="M55.222,8.718H48.954a2.062,2.062,0,0,0-2.059,2.059V11.79h-.807a2.676,2.676,0,0,0-2.627,2.175l-.479,2.521H39.091v-5.6a2.062,2.062,0,0,0-2.059-2.059H30.887a2.062,2.062,0,0,0-2.059,2.059v1.082a6.186,6.186,0,0,0-3.379.588v-.791a.83.83,0,1,0-1.66,0v1.95a6.305,6.305,0,0,0-1.68,2.773h-.716v-2.55a2.061,2.061,0,0,0-2.059-2.059H15.247V11.11A1.446,1.446,0,0,0,13.8,9.665H9.224V6.778h6.1V9.02a1.163,1.163,0,0,0,1.162,1.162H21.11A1.163,1.163,0,0,0,22.272,9.02V6.778h1.516V7.89a.83.83,0,1,0,1.66,0V6.562A1.446,1.446,0,0,0,24,5.118H9.009A1.446,1.446,0,0,0,7.564,6.562v3.1H6.428A1.446,1.446,0,0,0,4.983,11.11v5.377H1.445a1.445,1.445,0,0,0-1.4,1.807l4.72,18.191a1.445,1.445,0,0,0,1.4,1.082H33.5v1.843H29.662a.83.83,0,1,0,0,1.66h9.631v1.413H5.629a.706.706,0,0,1,0-1.413h20.16a.83.83,0,1,0,0-1.66H5.629a2.366,2.366,0,0,0,0,4.733H7.419l.15.259a4.586,4.586,0,1,0,6.357,0l.15-.259H30.3l.15.259a4.586,4.586,0,1,0,6.357,0l.15-.259h2.553A1.446,1.446,0,0,0,40.953,42.7V40.854a1.446,1.446,0,0,0-1.445-1.445h-.417V37.561a2.06,2.06,0,0,0,1.9-1.669l4.1-21.617a1.015,1.015,0,0,1,1-.824h9.135a1.446,1.446,0,0,0,1.445-1.445V10.162a1.446,1.446,0,0,0-1.445-1.445ZM16.989,6.778h3.622V8.521H16.989ZM12.158,44.142l-1.41,2.438-1.41-2.438ZM13.674,47.7A2.926,2.926,0,1,1,8.44,45.906l1.27,2.2a1.2,1.2,0,0,0,2.075,0l1.27-2.2a2.9,2.9,0,0,1,.618,1.791Zm21.363-3.555-1.41,2.438-1.41-2.438ZM36.553,47.7a2.926,2.926,0,1,1-5.234-1.792l1.27,2.2a1.2,1.2,0,0,0,2.075,0l1.27-2.2A2.9,2.9,0,0,1,36.553,47.7ZM27.164,22.94h6.988L33.587,26.2H27.018Zm.074-1.66.14-3.133h7.605L34.44,21.28Zm3.249-10.4a.4.4,0,0,1,.4-.4h6.145a.4.4,0,0,1,.4.4v5.6H34.224a6.361,6.361,0,0,0-3.737-4.108v-1.5Zm-2.32,2.706a4.681,4.681,0,0,1,4.3,2.9H23.864A4.681,4.681,0,0,1,28.168,13.59ZM11.29,21.28H10.048l-.672-3.133h7.576l.185,3.133H15.163a.83.83,0,1,0,0,1.66h2.073l.192,3.256H11.1l-.7-3.256h.885a.83.83,0,1,0,0-1.66Zm8.044-7.742a.4.4,0,0,1,.4.4v2.55H15.247V13.538h4.086ZM6.643,11.325h6.943v5.161H6.643ZM2.537,21.281l-.813-3.134H7.679L8.35,21.28H2.537Zm.431,1.66H8.706L9.4,26.2H3.813Zm2.121,8.173-.845-3.256H9.76l.7,3.256Zm1.244,4.793-.813-3.133h5.295l.672,3.133Zm5.126-8.05h6.068l.192,3.256H12.156Zm1.726,8.05-.672-3.133h5.3L18,35.906Zm11.738,0H19.665l-.185-3.133h5.582Zm.215-4.793H19.382l-.192-3.256h6.093Zm.22-4.916H19.092L18.9,22.94h6.6Zm.22-4.916H18.8l-.185-3.133h7.1ZM31.9,35.906H26.584l.14-3.133h5.721Zm.832-4.793H26.8l.146-3.256H33.3Zm2.425,8.3V37.567h2.273v1.843Zm4.2-3.828a.4.4,0,0,1-.392.325H33.586l.544-3.133h5.76Zm.849-4.469H34.418l.565-3.256h5.84Zm.933-4.916H35.272l.565-3.256h5.92Zm.933-4.916H36.125l.544-3.133h6Zm12.935-9.49H48.555V10.777a.4.4,0,0,1,.4-.4h6.053Z" transform="translate(0 -5.118)"/></g></g></g></svg>