<svg xmlns="http://www.w3.org/2000/svg" xmlns:xlink="http://www.w3.org/1999/xlink" width="124" height="124" viewBox="0 0 124 124"><defs><clipPath id="a"><rect width="74" height="74" transform="translate(1176 1486)" fill="#fff"/></clipPath></defs><g transform="translate(-1153.348 -1329.926)"><circle cx="62" cy="62" r="62" transform="translate(1153.348 1329.926)" fill="#fff"/><g transform="translate(2.348 -135)" clip-path="url(#a)"><g transform="translate(1176.002 1486)"><path d="M62.848,14.433,51.5,12.783,46.424,2.5A2.12,2.12,0,0,0,44.5,1.3V34.325l10.151,5.337A2.145,2.145,0,0,0,57.764,37.4L55.825,26.1l8.212-8.005a2.145,2.145,0,0,0-1.189-3.659Z" transform="translate(-7.893 -0.231)" fill="#ffbb6e"/><path d="M49.279,17.428,44.3,16.7,41.044,2.5c-.183-.8-.539-1.2-.9-1.2a2.12,2.12,0,0,0-1.924,1.2L33.15,12.783,21.8,14.433a2.145,2.145,0,0,0-1.189,3.659L28.824,26.1,26.885,37.4A2.145,2.145,0,0,0,30,39.661l10.151-5.337,5.906-.343a2.145,2.145,0,0,0,1.989-2.5L46.864,24.6l3.6-3.512a2.145,2.145,0,0,0-1.188-3.659Z" transform="translate(-3.542 -0.231)" fill="#ffd478"/><path d="M49.715,73.476l8.58,11.7h4.29l4.29-11.7Z" transform="translate(-8.818 -13.029)" fill="#ffe7ad"/><path d="M46.618,66.491H18.428l4.29,17.445H33.136l6.741-6.729,6.741,6.729h6.129V66.491Z" transform="translate(-3.27 -11.79)" fill="#fff3d6"/><path d="M11.1,67.363,4.5,71.217a6.437,6.437,0,0,0-3.192,5.558v7.316H19.681Z" transform="translate(-0.234 -11.945)" fill="#4367b1"/><path d="M82.889,71.508,78.6,69s3.192,15.378,3.192,15.378h4.29V77.066A6.437,6.437,0,0,0,82.889,71.508Z" transform="translate(-13.94 -12.236)" fill="#2d5093"/><path d="M76.251,68.715l-2.314-1.351-8.58,16.728H79.443V74.271A6.433,6.433,0,0,0,76.251,68.715Z" transform="translate(-11.592 -11.945)" fill="#4367b1"/><path d="M59.219,53.454h-4.29l4.29,18.9c.053.031.107.061.162.09a2.831,2.831,0,0,0,4.128-2.518V57.744a4.29,4.29,0,0,0-4.29-4.29Z" transform="translate(-9.743 -9.479)" fill="#fff3d6"/><path d="M49.381,53.454H27.932a4.29,4.29,0,0,0-4.29,4.29V69.926a2.832,2.832,0,0,0,5.136,1.647l5.282-7.394H47.542l5.282,7.394a2.823,2.823,0,0,0,.847.781V57.744a4.29,4.29,0,0,0-4.29-4.29Z" transform="translate(-4.195 -9.479)" fill="#fffaee"/><path d="M21.793,83.011l-6.006-4.5a6.436,6.436,0,0,1-2.574-5.148V66.284l8.58-5.008Z" transform="translate(-2.345 -10.866)" fill="#6a90e7"/><path d="M73.938,66.284v7.075a6.436,6.436,0,0,1-2.574,5.148l-6.006,4.5V61.276Z" transform="translate(-11.592 -10.866)" fill="#6a90e7"/><path d="M46.439,60.415a4.168,4.168,0,0,0-6.784,0L36.306,65.1H49.788Z" transform="translate(-6.44 -10.403)" fill="#2d5093"/><path d="M46.439,64.465a8.662,8.662,0,0,0-3.392-.582,8.662,8.662,0,0,0-3.392.582l-3.349,1.563,4.6,6.435,2.145,2.145,2.145-2.145,4.6-6.435Z" transform="translate(-6.44 -11.328)" fill="#4367b1"/><path d="M45.192,74.312l4.6,11.011H36.306l4.6-11.011Z" transform="translate(-6.44 -13.177)" fill="#2d5093"/><path d="M69.493,67.594,54.842,59.042V57.513a5.368,5.368,0,0,0-5.362-5.362H23.74a5.368,5.368,0,0,0-5.362,5.362v1.529l-8.048,4.7a1.073,1.073,0,0,0-.532.926v7.075a7.543,7.543,0,0,0,3,6.006l3.432,2.574H2.148V74.078a5.381,5.381,0,0,1,2.659-4.631l2.254-1.315A1.072,1.072,0,1,0,5.98,66.278L3.726,67.594A7.533,7.533,0,0,0,0,74.078v7.316a1.072,1.072,0,0,0,1.072,1.072H72.144a1.072,1.072,0,0,0,1.072-1.072V74.078a7.533,7.533,0,0,0-3.723-6.484Zm-8.217-2.312v6.46a5.388,5.388,0,0,1-2.145,4.29l-4.29,3.217V61.526ZM38.2,69.31H35.017l-3.83-5.362,2.9-4.066a3.1,3.1,0,0,1,5.038,0l2.9,4.066Zm-3.023,2.145H38.04l3.7,8.866H31.478Zm4.8-.935,3.377-4.727,4.408,6.172A3.9,3.9,0,0,0,52.7,73.179v7.141H44.065ZM20.523,57.513A3.221,3.221,0,0,1,23.74,54.3H49.479A3.221,3.221,0,0,1,52.7,57.513V69.7A1.76,1.76,0,0,1,49.5,70.718L40.874,58.635a5.24,5.24,0,0,0-8.529,0L23.715,70.718A1.76,1.76,0,0,1,20.523,69.7V57.513Zm-8.58,14.228v-6.46l6.435-3.756V79.248l-4.29-3.217A5.388,5.388,0,0,1,11.943,71.741Zm8.58,1.438a3.9,3.9,0,0,0,4.937-1.215l4.409-6.172,3.377,4.727-4.091,9.8H20.523V73.179Zm50.549,7.141H56.987l3.432-2.574a7.544,7.544,0,0,0,3-6.006V66.533l4.991,2.913a5.38,5.38,0,0,1,2.659,4.631Z" transform="translate(-0.003 -9.247)"/><path d="M27.44,26.24,25.6,36.987a3.218,3.218,0,0,0,4.669,3.392l9.652-5.074,9.652,5.074a3.218,3.218,0,0,0,4.668-3.392L52.395,26.24,60.2,18.628A3.218,3.218,0,0,0,58.42,13.14L47.629,11.572,42.8,1.794a3.217,3.217,0,0,0-5.77,0l-4.826,9.778L21.415,13.14a3.217,3.217,0,0,0-1.783,5.488ZM20.858,15.993a1.052,1.052,0,0,1,.866-.73l11.349-1.649a1.072,1.072,0,0,0,.807-.587L38.956,2.743a1.073,1.073,0,0,1,1.924,0l5.075,10.284a1.072,1.072,0,0,0,.807.587l11.349,1.649a1.072,1.072,0,0,1,.595,1.829L50.494,25.1a1.072,1.072,0,0,0-.308.949l1.939,11.3a1.073,1.073,0,0,1-1.556,1.131L40.417,33.144a1.073,1.073,0,0,0-1,0L29.268,38.481a1.073,1.073,0,0,1-1.556-1.131l1.939-11.3a1.073,1.073,0,0,0-.308-.949L21.13,17.092A1.051,1.051,0,0,1,20.858,15.993Z" transform="translate(-3.311 0)"/></g></g></g></svg>