<svg xmlns="http://www.w3.org/2000/svg" xmlns:xlink="http://www.w3.org/1999/xlink" width="103" height="103" viewBox="0 0 103 103"><defs><filter id="a" x="0" y="0" width="103" height="103" filterUnits="userSpaceOnUse"><feOffset dy="3" input="SourceAlpha"/><feGaussianBlur stdDeviation="3" result="b"/><feFlood flood-opacity="0.161"/><feComposite operator="in" in2="b"/><feComposite in="SourceGraphic"/></filter><clipPath id="c"><rect width="56" height="50" transform="translate(822 1709)" fill="#fff"/></clipPath></defs><g transform="translate(-383.723 -1791)"><g transform="matrix(1, 0, 0, 1, 383.72, 1791)" filter="url(#a)"><circle cx="42.5" cy="42.5" r="42.5" transform="translate(9 6)" fill="#fff"/></g><g transform="translate(-414.277 103)" clip-path="url(#c)"><g transform="translate(824.754 1709)"><path d="M43.468,42.581h4.886v4.072H43.468Z" transform="translate(-4.377 -4.305)" fill="#eeb8ab"/><path d="M45.1,44.3a2.634,2.634,0,0,1-1.629-.568v3.011h4.886V43.737a2.634,2.634,0,0,1-1.629.568Z" transform="translate(-4.377 -4.399)" fill="#ffe1d3"/><path d="M7.984,42.581H12.87v4.072H7.984Z" transform="translate(-1.469 -4.305)" fill="#eeb8ab"/><path d="M9.613,44.3a2.634,2.634,0,0,1-1.629-.568v3.011H12.87V43.737a2.634,2.634,0,0,1-1.629.568Z" transform="translate(-1.469 -4.399)" fill="#ffe1d3"/><path d="M17.742,35.484H37.287V54.215H17.742Z" transform="translate(-2.269 -3.723)" fill="#893b1b"/><path d="M37.505,36.371H20.4V48.587a3.258,3.258,0,0,0,3.258,3.258H37.505Z" transform="translate(-2.487 -3.796)" fill="#a44b2f"/><path d="M33.288,34.32V29.434l1.731,1.731a2.434,2.434,0,0,0,2.886.415l7.257-3.958a2.219,2.219,0,0,0,1.156-1.949,1.94,1.94,0,0,0-2.883-1.7l-6.891,3.828L34.97,23.866c-.035-.089-.074-.175-.117-.261a3.43,3.43,0,0,0-2.4-1.83L30.03,21.29H25.144l-3.354.839a4.172,4.172,0,0,0-3.161,4.047V34.32" transform="translate(-2.341 -2.559)" fill="#b4b4b4"/><path d="M44.6,23.733a1.94,1.94,0,0,0-.943.244l-6.89,3.828-1.575-3.939c-.035-.089-.074-.175-.117-.261a3.43,3.43,0,0,0-2.4-1.83l-2.426-.485H25.362l-3.354.839a4.2,4.2,0,0,0-.451.154,4.151,4.151,0,0,0-.266,1.45v5.7a2.443,2.443,0,0,0,2.443,2.443h9.773V29.434l1.731,1.731a2.434,2.434,0,0,0,2.886.415l7.257-3.958a2.219,2.219,0,0,0,1.156-1.949,1.941,1.941,0,0,0-1.94-1.941Z" transform="translate(-2.559 -2.559)" fill="#c8c8c8"/><path d="M30.83,24.548l2.688-2.688c-.089-.025-.17-.066-.261-.084L30.83,21.29l-2.443.814Z" transform="translate(-3.141 -2.559)" fill="#b4b4b4"/><path d="M27.936,22.1l-2.443-.814-2.606.652,2.606,2.606Z" transform="translate(-2.69 -2.559)" fill="#b4b4b4"/><path d="M30.019,23.969l-.977,1.466H27.413l-.977-1.466,1.792-1.792Z" transform="translate(-2.981 -2.632)" fill="#e66967"/><path d="M25.726,18.8v2.283l2.443.814,2.443-.814V18.8Z" transform="translate(-2.923 -2.356)" fill="#eeb8ab"/><path d="M21.29,9.959V5.846a4.072,4.072,0,0,1,4.072-4.072h4.072a2.443,2.443,0,0,1,2.443,2.443A2.443,2.443,0,0,1,34.32,6.66v3.3" transform="translate(-2.559 -0.96)" fill="#3f4042"/><path d="M34.466,6.66a2.443,2.443,0,0,0-2.443-2.443A2.443,2.443,0,0,0,29.58,1.774H25.508a4.045,4.045,0,0,0-2.342.749,4.066,4.066,0,0,0-.1.88,4.113,4.113,0,0,0,4.113,4.113h7.289Z" transform="translate(-2.705 -0.96)" fill="#5a5b5d"/><g transform="translate(17.102 5.701)"><path d="M32.837,9.54v4.072a4.886,4.886,0,0,1-9.773,0V9.54h2.764A5.488,5.488,0,0,0,30.394,7.1Z" transform="translate(-19.807 -7.097)" fill="#eeb8ab"/><path d="M22.774,10.645H21.552a2.036,2.036,0,1,0,0,4.072h1.289" transform="translate(-19.516 -7.388)" fill="#eeb8ab"/><path d="M33.7,10.645h1.222a2.036,2.036,0,1,1,0,4.072H33.636" transform="translate(-20.673 -7.388)" fill="#eeb8ab"/></g><path d="M29.87,34.684l-.814-8.958H27.427l-.814,8.958Z" transform="translate(-2.996 -2.923)" fill="#e66967"/><path d="M28.431,18.478a4.885,4.885,0,0,0,4.479-4.866V9.54L30.467,7.1A5.488,5.488,0,0,1,25.9,9.54h-1.95v4.072A4.885,4.885,0,0,0,28.431,18.478Z" transform="translate(-2.778 -1.396)" fill="#ffe1d3"/><path d="M30.685,19.686a4.84,4.84,0,0,1-4.072.375v1.1l2.036.678,2.036-.678Z" transform="translate(-2.996 -2.428)" fill="#ffe1d3"/><path d="M28.314,25.726,27.5,34.684h2.443l-.814-8.958Z" transform="translate(-3.068 -2.923)" fill="#ee8382"/><path d="M21.29,28.387h1.629V34.9H21.29Z" transform="translate(-2.559 -3.141)" fill="#959595"/><path d="M9.467,42.6A2.635,2.635,0,0,1,7.11,41.138L6.9,40.722A6.558,6.558,0,0,1,6.21,37.79V35.739a2.917,2.917,0,0,1,2.916-2.916h2.311a2.917,2.917,0,0,1,2.916,2.916V37.79a6.558,6.558,0,0,1-.692,2.933l-.208.416A2.637,2.637,0,0,1,11.1,42.6Z" transform="translate(-1.323 -3.505)" fill="#893b1b"/><path d="M25.726,42.581h4.886v4.072H25.726Z" transform="translate(-2.923 -4.305)" fill="#eeb8ab"/><path d="M42.435,6.21h9.773a1.628,1.628,0,0,1,1.629,1.629v6.515a1.628,1.628,0,0,1-1.629,1.629H47.322l-4.886,4.072.814-4.072h-.814a1.628,1.628,0,0,1-1.629-1.629V7.838A1.628,1.628,0,0,1,42.435,6.21Z" transform="translate(-4.159 -1.323)" fill="#6ac4e8"/><path d="M52.353,6.21H42.581v5.7a2.443,2.443,0,0,0,2.443,2.443h8.958V7.838A1.628,1.628,0,0,0,52.353,6.21Z" transform="translate(-4.305 -1.323)" fill="#8edff8"/><path d="M50.565,12.419h1.629v1.629H50.565Z" transform="translate(-4.959 -1.832)" fill="#fff"/><path d="M47.016,12.419h1.629v1.629H47.016Z" transform="translate(-4.668 -1.832)" fill="#fff"/><path d="M43.468,12.419H45.1v1.629H43.468Z" transform="translate(-4.377 -1.832)" fill="#fff"/><path d="M46.435,23.951a1.94,1.94,0,0,0-.943.244l-1.768.982,1.99,3.483,1.5-.82a2.219,2.219,0,0,0,1.156-1.949,1.941,1.941,0,0,0-1.94-1.941Z" transform="translate(-4.398 -2.778)" fill="#ffe1d3"/><path d="M12.432,32.972a2.907,2.907,0,0,0-.922-.15H9.2a2.913,2.913,0,0,0-2.068.862,2.835,2.835,0,0,0-.034.426v2.051a6.558,6.558,0,0,0,.692,2.933L8,39.509a2.637,2.637,0,0,0,2.358,1.457h1.629a2.63,2.63,0,0,0,2.073-1.019,6.564,6.564,0,0,0,.37-2.158V35.739a2.916,2.916,0,0,0-1.994-2.766Z" transform="translate(-1.396 -3.505)" fill="#a44b2f"/><path d="M27.209,42.6a2.635,2.635,0,0,1-2.357-1.457l-.208-.416a6.558,6.558,0,0,1-.692-2.933V35.739a2.917,2.917,0,0,1,2.916-2.916h2.311A2.917,2.917,0,0,1,32.1,35.739V37.79a6.558,6.558,0,0,1-.692,2.933l-.208.416A2.637,2.637,0,0,1,28.838,42.6Z" transform="translate(-2.778 -3.505)" fill="#3f4042"/><path d="M44.951,42.6a2.635,2.635,0,0,1-2.357-1.457l-.208-.416a6.558,6.558,0,0,1-.692-2.933V35.739a2.917,2.917,0,0,1,2.916-2.916h2.311a2.917,2.917,0,0,1,2.916,2.916V37.79a6.558,6.558,0,0,1-.692,2.933l-.208.416A2.637,2.637,0,0,1,46.58,42.6Z" transform="translate(-4.232 -3.505)" fill="#c99728"/><path d="M47.916,32.972a2.907,2.907,0,0,0-.922-.15H44.683a2.913,2.913,0,0,0-2.068.862,2.834,2.834,0,0,0-.034.426v2.051a6.558,6.558,0,0,0,.692,2.933l.208.416a2.637,2.637,0,0,0,2.358,1.457h1.629a2.63,2.63,0,0,0,2.073-1.019,6.564,6.564,0,0,0,.37-2.158V35.739a2.916,2.916,0,0,0-1.994-2.766Z" transform="translate(-4.305 -3.505)" fill="#e7b532"/><path d="M30.174,32.972a2.907,2.907,0,0,0-.922-.15H26.941a2.913,2.913,0,0,0-2.068.862,2.835,2.835,0,0,0-.034.426v2.051a6.558,6.558,0,0,0,.692,2.933l.208.416A2.637,2.637,0,0,0,28.1,40.966h1.629A2.63,2.63,0,0,0,31.8,39.948a6.564,6.564,0,0,0,.37-2.158V35.739A2.916,2.916,0,0,0,30.174,32.972Z" transform="translate(-2.85 -3.505)" fill="#5a5b5d"/><path d="M3.548,55.16v-5.7a2.443,2.443,0,0,1,2.443-2.443h8.144a2.443,2.443,0,0,1,2.443,2.443v5.7" transform="translate(-1.105 -4.668)" fill="#6bb566"/><path d="M8.653,52.717H16.8V49.459a2.443,2.443,0,0,0-2.443-2.443H6.21v3.258A2.443,2.443,0,0,0,8.653,52.717Z" transform="translate(-1.323 -4.668)" fill="#89c683"/><path d="M21.29,55.16v-5.7a2.443,2.443,0,0,1,2.443-2.443h8.144a2.443,2.443,0,0,1,2.443,2.443v5.7" transform="translate(-2.559 -4.668)" fill="#6bb566"/><path d="M26.395,52.717h8.144V49.459A2.443,2.443,0,0,0,32.1,47.016H23.952v3.258A2.443,2.443,0,0,0,26.395,52.717Z" transform="translate(-2.778 -4.668)" fill="#89c683"/><path d="M39.032,55.16v-5.7a2.443,2.443,0,0,1,2.443-2.443h8.144a2.443,2.443,0,0,1,2.443,2.443v5.7" transform="translate(-4.014 -4.668)" fill="#6bb566"/><path d="M44.137,52.717h8.144V49.459a2.443,2.443,0,0,0-2.443-2.443H41.694v3.258A2.443,2.443,0,0,0,44.137,52.717Z" transform="translate(-4.232 -4.668)" fill="#89c683"/><path d="M27.355,44.3a2.634,2.634,0,0,1-1.629-.568v3.011h4.886V43.737a2.634,2.634,0,0,1-1.629.568Z" transform="translate(-2.923 -4.399)" fill="#ffe1d3"/><path d="M13.176,1.774H3.4A1.628,1.628,0,0,0,1.774,3.4V9.918A1.628,1.628,0,0,0,3.4,11.547H8.289l4.886,4.072-.814-4.072h.814A1.628,1.628,0,0,0,14.8,9.918V3.4A1.628,1.628,0,0,0,13.176,1.774Z" transform="translate(-0.96 -0.96)" fill="#6ac4e8"/><path d="M13.321,1.774H3.548v5.7A2.443,2.443,0,0,0,5.992,9.918H14.95V3.4A1.628,1.628,0,0,0,13.321,1.774Z" transform="translate(-1.105 -0.96)" fill="#8edff8"/><path d="M4.435,7.984H6.064V9.613H4.435Z" transform="translate(-1.178 -1.469)" fill="#fff"/><path d="M7.984,7.984H9.613V9.613H7.984Z" transform="translate(-1.469 -1.469)" fill="#fff"/><path d="M11.532,7.984h1.629V9.613H11.532Z" transform="translate(-1.76 -1.469)" fill="#fff"/><path d="M15.691,42.873a3.224,3.224,0,0,0-1.629-.453h-.814V39.771a3.46,3.46,0,0,0,.643-.887l.208-.416a7.41,7.41,0,0,0,.779-3.3V33.121a3.731,3.731,0,0,0-3.731-3.731H8.835A3.73,3.73,0,0,0,5.1,33.121v2.051a7.41,7.41,0,0,0,.779,3.3l.208.416a3.447,3.447,0,0,0,.643.887v2.649H5.919a3.261,3.261,0,0,0-3.258,3.258v5.7H4.29v-5.7a1.63,1.63,0,0,1,1.629-1.629h8.144a1.63,1.63,0,0,1,1.629,1.629v5.7H17.32V33.462h4.072v1.709a7.41,7.41,0,0,0,.779,3.3l.208.416a3.461,3.461,0,0,0,.643.887v2.649h-.814a3.261,3.261,0,0,0-3.258,3.258v5.7h1.629v-5.7a1.63,1.63,0,0,1,1.629-1.629H30.35a1.63,1.63,0,0,1,1.629,1.629v5.7h1.629v-5.7a3.261,3.261,0,0,0-3.258-3.258h-.814V39.771a3.461,3.461,0,0,0,.643-.887l.208-.416a7.41,7.41,0,0,0,.779-3.3V33.462h4.072V51.379h1.629v-5.7a1.63,1.63,0,0,1,1.629-1.629h8.144a1.63,1.63,0,0,1,1.629,1.629v5.7H49.9v-5.7a3.261,3.261,0,0,0-3.258-3.258h-.814V39.771a3.46,3.46,0,0,0,.643-.887l.208-.416a7.41,7.41,0,0,0,.779-3.3V33.121a3.731,3.731,0,0,0-3.731-3.731H41.41a3.73,3.73,0,0,0-3.731,3.731v2.051a7.41,7.41,0,0,0,.779,3.3l.208.416a3.461,3.461,0,0,0,.643.887v2.649h-.814a3.224,3.224,0,0,0-1.629.453V32.648a.815.815,0,0,0-.814-.814H32.794V29.728l.34.34a3.308,3.308,0,0,0,3.852.555l7.257-3.958A3.033,3.033,0,0,0,45.824,24a2.755,2.755,0,0,0-4.093-2.408l-6.082,3.379-1.231-3.077c-.044-.11-.092-.218-.146-.326a4.219,4.219,0,0,0-2.964-2.264l-1.772-.355V17.774a5.717,5.717,0,0,0,2.2-3.043h.647a2.844,2.844,0,0,0,1.222-5.415V6.588a3.263,3.263,0,0,0-2.526-3.174A3.263,3.263,0,0,0,27.907.887H23.835a4.891,4.891,0,0,0-4.886,4.886V9.317a2.844,2.844,0,0,0,1.222,5.415h.647a5.714,5.714,0,0,0,2.2,3.043v1.208l-2.738.684A4.981,4.981,0,0,0,16.506,24.5v7.329a.815.815,0,0,0-.814.814ZM6.733,33.121a2.1,2.1,0,0,1,2.1-2.1h2.311a2.1,2.1,0,0,1,2.1,2.1v2.051a5.763,5.763,0,0,1-.607,2.569l-.208.416a1.811,1.811,0,0,1-1.629,1.007H9.176a1.811,1.811,0,0,1-1.629-1.007L7.34,37.74a5.763,5.763,0,0,1-.607-2.569Zm1.629,7.567a3.464,3.464,0,0,0,.814.1h1.629a3.464,3.464,0,0,0,.814-.1v1.732H8.362Zm30.947-7.567a2.1,2.1,0,0,1,2.1-2.1h2.311a2.1,2.1,0,0,1,2.1,2.1v2.051a5.763,5.763,0,0,1-.607,2.569l-.208.416a1.811,1.811,0,0,1-1.629,1.007H41.752a1.811,1.811,0,0,1-1.629-1.007l-.208-.416a5.763,5.763,0,0,1-.607-2.569Zm1.629,7.567a3.464,3.464,0,0,0,.814.1H43.38a3.464,3.464,0,0,0,.814-.1v1.732H40.937Zm-13.03,1.732H24.65V40.688a3.464,3.464,0,0,0,.814.1h1.629a3.464,3.464,0,0,0,.814-.1Zm1.629-7.249a5.763,5.763,0,0,1-.607,2.569l-.208.416a1.811,1.811,0,0,1-1.629,1.007H25.464a1.811,1.811,0,0,1-1.629-1.007l-.208-.416a5.763,5.763,0,0,1-.607-2.569V33.121a2.1,2.1,0,0,1,2.1-2.1h2.311a2.1,2.1,0,0,1,2.1,2.1ZM23.8,20.466l.968.322-.936.936-1.013-1.013Zm4.972-.007,1.011.2-1.064,1.063-.936-.936ZM26.208,24.5h.141l.444,4.886H25.763Zm.071-2.92.744.744-.365.548H25.9l-.366-.548Zm16.244,1.433A1.126,1.126,0,0,1,44.195,24a1.406,1.406,0,0,1-.732,1.234l-.8.438L41.474,23.6ZM32.815,22.3c.032.065.062.13.09.2l1.575,3.939a.814.814,0,0,0,.484.465.824.824,0,0,0,.669-.055l4.419-2.455,1.179,2.063-5.023,2.74a1.647,1.647,0,0,1-1.921-.277l-1.731-1.731a.814.814,0,0,0-1.39.577v4.072h-.237a3.72,3.72,0,0,0-2.314-2.252c-.056-.019-.114-.026-.171-.042L27.93,23.9l.274-.412a.793.793,0,0,0,1.093-.039l2.328-2.328a2.6,2.6,0,0,1,1.19,1.172ZM32.386,13.1h-.407V10.66h.407a1.222,1.222,0,1,1,0,2.443ZM20.578,5.773a3.261,3.261,0,0,1,3.258-3.258h4.072a1.63,1.63,0,0,1,1.629,1.629.815.815,0,0,0,.814.814,1.63,1.63,0,0,1,1.629,1.629V9.031a.812.812,0,0,0-.239-.576L29.3,6.012a.814.814,0,0,0-1.253.124,4.662,4.662,0,0,1-3.887,2.081H21.392a.815.815,0,0,0-.814.814ZM20.171,13.1a1.222,1.222,0,1,1,0-2.443h.407V13.1Zm2.036,0V9.845h1.95a6.285,6.285,0,0,0,4.637-2.034L30.35,9.368V13.1a4.072,4.072,0,1,1-8.144,0Zm4.072,5.7a5.665,5.665,0,0,0,1.629-.24v.467l-1.629.543-1.629-.543v-.467A5.665,5.665,0,0,0,26.278,18.8Zm-8.144,5.7a3.353,3.353,0,0,1,2.543-3.258l.3-.076,2.28,2.28a.793.793,0,0,0,1.093.039l.274.412-.512,5.637c-.057.016-.115.024-.171.042a3.72,3.72,0,0,0-2.314,2.252h-.238v-5.7H19.763v5.7H18.135Z" transform="translate(-1.033 -0.887)"/><path d="M3.33,12.288H7.922l4.66,3.883a.814.814,0,0,0,1.319-.786l-.621-3.1a2.445,2.445,0,0,0,2.266-2.436V3.33A2.446,2.446,0,0,0,13.1.887H3.33A2.446,2.446,0,0,0,.887,3.33V9.845A2.446,2.446,0,0,0,3.33,12.288ZM2.516,3.33a.816.816,0,0,1,.814-.814H13.1a.816.816,0,0,1,.814.814V9.845a.816.816,0,0,1-.814.814h-.814a.814.814,0,0,0-.8.974l.362,1.81L8.738,10.849a.813.813,0,0,0-.521-.189H3.33a.816.816,0,0,1-.814-.814Z" transform="translate(-0.887 -0.887)"/><path d="M4.435,7.984H6.064V9.613H4.435Z" transform="translate(-1.178 -1.469)"/><path d="M7.984,7.984H9.613V9.613H7.984Z" transform="translate(-1.469 -1.469)"/><path d="M11.532,7.984h1.629V9.613H11.532Z" transform="translate(-1.76 -1.469)"/><path d="M52.135,5.323H42.363a2.446,2.446,0,0,0-2.443,2.443v6.515a2.446,2.446,0,0,0,2.266,2.437l-.621,3.1a.814.814,0,0,0,1.319.785l4.66-3.883h4.591a2.446,2.446,0,0,0,2.443-2.443V7.766a2.446,2.446,0,0,0-2.443-2.443Zm.814,8.958a.816.816,0,0,1-.814.814H47.249a.813.813,0,0,0-.521.189l-3.114,2.595.362-1.81a.814.814,0,0,0-.8-.974h-.814a.816.816,0,0,1-.814-.814V7.766a.816.816,0,0,1,.814-.814h9.773a.816.816,0,0,1,.814.814Z" transform="translate(-4.086 -1.251)"/><path d="M50.565,12.419h1.629v1.629H50.565Z" transform="translate(-4.959 -1.832)"/><path d="M47.016,12.419h1.629v1.629H47.016Z" transform="translate(-4.668 -1.832)"/><path d="M43.468,12.419H45.1v1.629H43.468Z" transform="translate(-4.377 -1.832)"/></g></g></g></svg>