<svg xmlns="http://www.w3.org/2000/svg" xmlns:xlink="http://www.w3.org/1999/xlink" width="211.303" height="211.303" viewBox="0 0 211.303 211.303"><defs><clipPath id="a"><rect width="211.303" height="211.303" transform="translate(0)" fill="#fff"/></clipPath></defs><g clip-path="url(#a)"><g transform="translate(0 19.45)"><g transform="translate(3.094 3.094)"><path d="M16.3,6.117H193.127a14.146,14.146,0,0,1,14.146,14.146V156.416a15.914,15.914,0,0,1-15.914,15.914H18.073A15.914,15.914,0,0,1,2.159,156.416V20.263A14.146,14.146,0,0,1,16.3,6.117Z" transform="translate(-2.159 -6.117)" fill="#e1f7ff"/><path d="M193.127,6.117H16.3A14.146,14.146,0,0,0,2.159,20.263V44.015H207.273V20.263A14.146,14.146,0,0,0,193.127,6.117Z" transform="translate(-2.159 -6.117)" fill="#0081d0"/><ellipse cx="7.073" cy="7.073" rx="7.073" ry="7.073" transform="translate(20.458 11.877)" fill="#f37249"/><ellipse cx="7.073" cy="7.073" rx="7.073" ry="7.073" transform="translate(48.849 11.877)" fill="#ffcc5b"/><path d="M145.129,20.263A14.146,14.146,0,0,0,130.983,6.117H35.963l-17.926,37.9H145.129Z" transform="translate(59.985 -6.117)" fill="#a4def7"/><rect width="120.239" height="35.364" transform="translate(42.437 113.614)" fill="#a4def7"/><path d="M19.163,21.48h38v12.7A11.453,11.453,0,0,1,45.712,45.628h-15.1A11.453,11.453,0,0,1,19.163,34.176V21.48Z" transform="translate(64.393 54.013)" fill="#0081d0"/></g><path d="M1.529,158.881V22.728a17.26,17.26,0,0,1,17.24-17.24H82.388a3.094,3.094,0,1,1,0,6.189H18.769A11.064,11.064,0,0,0,7.718,22.728V43.386H80.686L97.774,7.259c.03-.064.072-.115.106-.177.057-.1.111-.2.177-.3a2.6,2.6,0,0,1,.187-.226,2.684,2.684,0,0,1,.205-.223,2.9,2.9,0,0,1,.23-.189,2.946,2.946,0,0,1,.244-.177,2.749,2.749,0,0,1,.246-.133,2.9,2.9,0,0,1,.29-.138c.087-.034.177-.055.263-.081a2.214,2.214,0,0,1,.624-.11c.076,0,.149-.023.225-.023h3.938a3.094,3.094,0,1,1,0,6.189H102.53l-15,31.71h91.24a3.094,3.094,0,0,1,0,6.189H7.718V158.881a12.834,12.834,0,0,0,12.82,12.82H47.061a3.094,3.094,0,1,1,0,6.189H20.538A19.03,19.03,0,0,1,1.529,158.881ZM60.547,171.7a3.094,3.094,0,1,0,0,6.189H63.2a3.094,3.094,0,1,0,0-6.189ZM195.592,5.487h-75.5a3.094,3.094,0,1,0,0,6.189h75.5a11.064,11.064,0,0,1,11.051,11.051V158.881a12.834,12.834,0,0,1-12.82,12.82H79.453a3.094,3.094,0,1,0,0,6.189H193.824a19.03,19.03,0,0,0,19.008-19.008V22.728a17.26,17.26,0,0,0-17.24-17.24ZM189.433,46.48a3.094,3.094,0,0,0,3.094,3.094h2.951a3.094,3.094,0,0,0,0-6.189h-2.951A3.094,3.094,0,0,0,189.433,46.48ZM32.155,17.363A10.167,10.167,0,1,1,21.988,27.53,10.167,10.167,0,0,1,32.155,17.363Zm0,6.189a3.979,3.979,0,1,0,3.979,3.979A3.979,3.979,0,0,0,32.155,23.552Zm28.392,7.957a3.982,3.982,0,0,1-3.979-3.979,3.094,3.094,0,0,0-6.189,0A10.167,10.167,0,1,0,60.547,17.363a3.094,3.094,0,1,0,0,6.189,3.979,3.979,0,0,1,0,7.957Zm131.98-7.073H113.41a3.094,3.094,0,0,0,0,6.189h79.117a3.094,3.094,0,0,0,0-6.189ZM167.3,148.272a3.094,3.094,0,0,0,3.094-3.094V122.19A3.1,3.1,0,0,0,167.3,119.1H47.061a3.1,3.1,0,0,0-3.094,3.094v35.364a3.094,3.094,0,0,0,3.094,3.094H167.3a3.094,3.094,0,1,0,0-6.189H50.155V125.285H164.206v19.893a3.094,3.094,0,0,0,3.094,3.094ZM82.415,133.3a3.1,3.1,0,0,0-4.3-.808l-2.231,1.526V132.8a3.094,3.094,0,0,0-6.189,0v1.209l-2.232-1.526a3.1,3.1,0,1,0-3.494,5.11L67.3,139.88l-3.337,2.279a3.1,3.1,0,0,0,3.494,5.11l2.233-1.526v1.208a3.094,3.094,0,1,0,6.189,0v-1.208l2.231,1.526a3.1,3.1,0,0,0,3.494-5.11L78.27,139.88l3.337-2.281a3.094,3.094,0,0,0,.808-4.3Zm34.394,0a3.1,3.1,0,0,0-4.3-.808l-2.232,1.526V132.8a3.094,3.094,0,0,0-6.189,0v1.209l-2.232-1.526a3.1,3.1,0,1,0-3.494,5.11l3.337,2.281-3.337,2.279a3.1,3.1,0,0,0,3.494,5.11l2.231-1.526v1.208a3.094,3.094,0,1,0,6.189,0v-1.208l2.232,1.526a3.1,3.1,0,0,0,3.494-5.11l-3.338-2.279L116,137.6a3.1,3.1,0,0,0,.81-4.3Zm34.392,0a3.094,3.094,0,0,0-4.3-.808l-2.232,1.526V132.8a3.094,3.094,0,1,0-6.189,0v1.209l-2.232-1.526a3.1,3.1,0,1,0-3.494,5.11l3.337,2.281-3.337,2.279a3.1,3.1,0,0,0,3.494,5.11l2.23-1.526v1.208a3.094,3.094,0,1,0,6.189,0v-1.208l2.232,1.526a3.1,3.1,0,0,0,3.494-5.11l-3.337-2.279,3.337-2.281a3.1,3.1,0,0,0,.817-4.3Zm-53.047-56.9V80.98h28.028a3.094,3.094,0,0,1,3.094,3.094v12.7a14.563,14.563,0,0,1-14.547,14.545h-15.1A14.563,14.563,0,0,1,85.078,96.77v-12.7a3.094,3.094,0,0,1,3.094-3.094h3.784V76.393A15.226,15.226,0,0,1,118.52,66.226a3.094,3.094,0,1,1-4.608,4.131,9.037,9.037,0,0,0-15.767,6.029Zm24.941,10.776H91.267v9.6a8.367,8.367,0,0,0,8.365,8.357h15.1a8.367,8.367,0,0,0,8.365-8.355Z" transform="translate(-1.529 -5.487)" fill="#12263f"/></g></g></svg>