<svg xmlns="http://www.w3.org/2000/svg" xmlns:xlink="http://www.w3.org/1999/xlink" width="211.303" height="211.303" viewBox="0 0 211.303 211.303"><defs><clipPath id="a"><rect width="211.303" height="211.303" transform="translate(0)" fill="#fff"/></clipPath></defs><g clip-path="url(#a)"><g transform="translate(0 0.001)"><g transform="translate(3.408 3.408)"><g transform="translate(115.876 184.038)"><path d="M24.968,38.839H79.5V59.287H24.968Z" transform="translate(-24.968 -38.839)" fill="#aab2bd"/></g><g transform="translate(81.795 163.589)"><path d="M140.724,34.677v6.816a13.629,13.629,0,0,1-13.632,13.632H31.665A13.629,13.629,0,0,1,18.032,41.494V34.677H140.724Z" transform="translate(-18.032 -34.677)" fill="#ccd1d9"/></g><g transform="translate(156.773 102.243)"><path d="M81,35.826V83.539H60.555V69.907l-8.214-2.726a33.592,33.592,0,0,0-2.795-6.85l3.851-7.7-9.645-9.645-7.7,3.851q-1.329-.716-2.761-1.329V22.194H67.371A13.629,13.629,0,0,1,81,35.826Z" transform="translate(-33.29 -22.194)" fill="#69d6f4"/></g><g transform="translate(81.795 102.243)"><path d="M65.746,22.194V45.505q-1.431.613-2.761,1.329l-7.7-3.851-9.645,9.645,3.851,7.7a33.592,33.592,0,0,0-2.795,6.85l-8.214,2.726V83.539H18.032V35.826A13.629,13.629,0,0,1,31.665,22.194Z" transform="translate(-18.032 -22.194)" fill="#69d6f4"/></g><g transform="translate(0 149.957)"><path d="M69.549,38.719V52.352a6.836,6.836,0,0,1-6.816,6.816H8.2a6.836,6.836,0,0,1-6.816-6.816V38.719A6.836,6.836,0,0,1,8.2,31.9h54.53A6.836,6.836,0,0,1,69.549,38.719Z" transform="translate(-1.387 -31.903)" fill="#fcd770"/></g><g transform="translate(0 177.222)"><path d="M1.387,57.9V44.268A6.836,6.836,0,0,1,8.2,37.452h54.53a6.836,6.836,0,0,1,6.816,6.816V57.9a6.836,6.836,0,0,1-6.816,6.816H8.2A6.836,6.836,0,0,1,1.387,57.9Z" transform="translate(-1.387 -37.452)" fill="#fcd770"/></g><g transform="translate(0 122.692)"><path d="M1.387,46.8V33.171A6.836,6.836,0,0,1,8.2,26.355h54.53a6.836,6.836,0,0,1,6.816,6.816V46.8a6.836,6.836,0,0,1-6.816,6.816H8.2A6.836,6.836,0,0,1,1.387,46.8Z" transform="translate(-1.387 -26.355)" fill="#fcd770"/></g><path d="M182.017,42.284a24.384,24.384,0,0,0-7.907,1.363,37.416,37.416,0,0,0-56.1-23A47.639,47.639,0,0,0,33.935,35.979a26.959,26.959,0,0,0-5.283-.511,27.265,27.265,0,1,0,0,54.53H182.017a23.857,23.857,0,1,0,0-47.714Z" transform="translate(-1.387 -1.387)" fill="#e6e9ed"/><g transform="translate(112.468 40.897)"><path d="M61.763,84.688H48.131L45.4,92.9a34.334,34.334,0,0,0-4.09,1.465V43.791H24.274L49.426,12.368a7.063,7.063,0,0,1,11.042,0L85.62,43.791H68.58V94.367A34.336,34.336,0,0,0,64.49,92.9Z" transform="translate(-24.274 -9.71)" fill="#ff826e"/></g><g transform="translate(102.243 115.876)"><path d="M103.988,59.049V72.681H82.381a20.449,20.449,0,1,0-38.58,0H22.194V59.049l8.214-2.726a33.591,33.591,0,0,1,2.795-6.85l-3.851-7.7L39,32.125l7.7,3.851q1.329-.716,2.761-1.329a34.334,34.334,0,0,1,4.09-1.465l2.726-8.214H69.907l2.726,8.214a34.331,34.331,0,0,1,4.09,1.465q1.431.613,2.761,1.329l7.7-3.851,9.645,9.645-3.851,7.7a33.592,33.592,0,0,1,2.795,6.85Z" transform="translate(-22.194 -24.968)" fill="#ffc729"/></g><g transform="translate(122.692 136.324)"><path d="M66.093,56.394H46.8a6.816,6.816,0,1,0-6.816-6.816A6.836,6.836,0,0,0,46.8,56.394H27.514a20.449,20.449,0,1,1,38.58,0Z" transform="translate(-26.355 -29.129)" fill="#fcd770"/></g></g><g transform="translate(0 0)"><path d="M194.956,102.937H164.283V96.121h20.449a27.265,27.265,0,1,0,0-54.53,26.786,26.786,0,0,0-5.576.59A40.793,40.793,0,0,0,121.59,18.958,50.609,50.609,0,0,0,82.488.694,51.325,51.325,0,0,0,34.274,34.918a30.671,30.671,0,1,0-2.907,61.2h3.408v27.265H10.918A10.237,10.237,0,0,0,.694,133.61v13.632a10.159,10.159,0,0,0,2.658,6.816,10.159,10.159,0,0,0-2.658,6.816v13.632a10.158,10.158,0,0,0,2.658,6.816A10.158,10.158,0,0,0,.694,188.14v13.632A10.237,10.237,0,0,0,10.918,212h54.53a10.237,10.237,0,0,0,10.224-10.224V188.14a10.158,10.158,0,0,0-2.658-6.816,10.142,10.142,0,0,0,2.658-6.816V160.875a10.158,10.158,0,0,0-2.658-6.816,10.142,10.142,0,0,0,2.658-6.816V133.61a10.237,10.237,0,0,0-10.224-10.224H41.591V96.121H130.2v6.816H99.529a17.06,17.06,0,0,0-17.041,17.041v54.53a17.06,17.06,0,0,0,17.041,17.041h17.041V205.18H102.937V212h88.611V205.18H177.915V191.548h17.041A17.06,17.06,0,0,0,212,174.507v-54.53A17.06,17.06,0,0,0,194.956,102.937Zm-126.1,57.938v13.632a3.409,3.409,0,0,1-3.408,3.408H10.918a3.409,3.409,0,0,1-3.408-3.408V160.875a3.409,3.409,0,0,1,3.408-3.408h54.53A3.409,3.409,0,0,1,68.856,160.875Zm0,40.9a3.409,3.409,0,0,1-3.408,3.408H10.918a3.409,3.409,0,0,1-3.408-3.408V188.14a3.409,3.409,0,0,1,3.408-3.408h54.53a3.409,3.409,0,0,1,3.408,3.408Zm0-68.162v13.632a3.409,3.409,0,0,1-3.408,3.408H10.918a3.409,3.409,0,0,1-3.408-3.408V133.61a3.409,3.409,0,0,1,3.408-3.408h54.53A3.409,3.409,0,0,1,68.856,133.61Zm126.1-23.857a10.237,10.237,0,0,1,10.224,10.224v44.305H191.548V151.6l-8.882-2.962a37.238,37.238,0,0,0-1.718-4.175l4.182-8.363-13.114-13.114-7.733,3.868v-17.1Zm-51.122,51.122a3.408,3.408,0,1,1,3.408,3.408A3.409,3.409,0,0,1,143.834,160.875Zm3.408-10.224a10.237,10.237,0,0,0-10.224,10.224,10.109,10.109,0,0,0,.627,3.408H130.58a17.041,17.041,0,1,1,33.325,0H156.84a10.109,10.109,0,0,0,.627-3.408A10.237,10.237,0,0,0,147.242,150.65Zm0-13.632a23.887,23.887,0,0,0-23.857,23.857,23.62,23.62,0,0,0,.29,3.408H109.753v-7.767L117.316,154l.5-1.714a30.534,30.534,0,0,1,2.532-6.148l.862-1.568-3.558-7.12,6.165-6.165,7.12,3.558,1.568-.862a30.144,30.144,0,0,1,6.148-2.532l1.714-.5,2.519-7.563H151.6l2.519,7.563,1.714.5a30.534,30.534,0,0,1,6.148,2.532l1.568.862,7.12-3.558,6.165,6.165-3.558,7.12.862,1.568a30.143,30.143,0,0,1,2.532,6.148l.5,1.714,7.559,2.519v7.767H170.809a23.623,23.623,0,0,0,.29-3.408,23.887,23.887,0,0,0-23.857-23.857Zm10.224-61.346v43.753l-.951-2.856H137.972l-.954,2.856V75.672h-13.36l20.7-25.881a3.8,3.8,0,0,1,5.753,0l20.711,25.885ZM31.367,89.3a23.854,23.854,0,1,1,4.618-47.257l3.071.6.862-3.009A44.472,44.472,0,0,1,82.488,7.51,43.922,43.922,0,0,1,118,25.406l1.871,2.508,2.658-1.646a33.978,33.978,0,0,1,50.982,20.905l.89,3.66,3.555-1.251A20.441,20.441,0,1,1,184.732,89.3H164.283V82.488H185L155.439,45.527a10.5,10.5,0,0,0-16.4,0L109.48,82.488H130.2V89.3Zm68.162,20.449H130.2v17.1l-7.733-3.865L109.354,136.1l4.182,8.363a37.9,37.9,0,0,0-1.718,4.175l-8.882,2.958v12.682H89.3V119.977A10.237,10.237,0,0,1,99.529,109.753ZM171.1,205.18H123.386V191.548H171.1Zm23.857-20.449H99.529A10.237,10.237,0,0,1,89.3,174.507V171.1H205.18v3.408A10.237,10.237,0,0,1,194.956,184.731Z" transform="translate(-0.694 -0.694)" fill="#12263f"/><path d="M6.242,28.435h6.816v6.816H6.242Z" transform="translate(21.023 107.889)" fill="#12263f"/><path d="M9.016,28.435h6.816v6.816H9.016Z" transform="translate(31.881 107.889)" fill="#12263f"/><path d="M3.468,28.435h6.816v6.816H3.468Z" transform="translate(10.165 107.889)" fill="#12263f"/><path d="M6.242,33.984h6.816V40.8H6.242Z" transform="translate(21.023 129.605)" fill="#12263f"/><path d="M11.79,33.984h6.816V40.8H11.79Z" transform="translate(42.739 129.605)" fill="#12263f"/><path d="M9.016,33.984h6.816V40.8H9.016Z" transform="translate(31.881 129.605)" fill="#12263f"/><path d="M6.242,39.532h6.816v6.816H6.242Z" transform="translate(21.023 151.322)" fill="#12263f"/><path d="M9.016,39.532h6.816v6.816H9.016Z" transform="translate(31.881 151.322)" fill="#12263f"/><path d="M3.468,39.532h6.816v6.816H3.468Z" transform="translate(10.165 151.322)" fill="#12263f"/><path d="M9.862,33.463l6.683,1.356A30.695,30.695,0,0,1,58.871,12.837L61.6,6.59a37.2,37.2,0,0,0-15-3.122A37.593,37.593,0,0,0,9.862,33.463Z" transform="translate(35.193 10.165)" fill="#12263f"/><path d="M10.284,13.871H3.468A17.06,17.06,0,0,0,20.508,30.912h6.816V24.1H20.508A10.237,10.237,0,0,1,10.284,13.871Z" transform="translate(10.165 50.883)" fill="#12263f"/><path d="M9.71,15.952h6.816v6.816H9.71Z" transform="translate(34.596 59.027)" fill="#12263f"/></g></g></g></svg>