<svg xmlns="http://www.w3.org/2000/svg" xmlns:xlink="http://www.w3.org/1999/xlink" width="103" height="103" viewBox="0 0 103 103"><defs><filter id="a" x="0" y="0" width="103" height="103" filterUnits="userSpaceOnUse"><feOffset dy="3" input="SourceAlpha"/><feGaussianBlur stdDeviation="3" result="b"/><feFlood flood-opacity="0.161"/><feComposite operator="in" in2="b"/><feComposite in="SourceGraphic"/></filter><clipPath id="c"><rect width="56" height="50" transform="translate(1133 1709)" fill="#fff"/></clipPath></defs><g transform="translate(-695.723 -1794)"><g transform="matrix(1, 0, 0, 1, 695.72, 1794)" filter="url(#a)"><circle cx="42.5" cy="42.5" r="42.5" transform="translate(9 6)" fill="#fff"/></g><g transform="translate(-413.277 106)" clip-path="url(#c)"><g transform="translate(1135.742 1709)"><path d="M1.634.909,8.612.825a.829.829,0,0,1,.707.38L11.5,4.6,14.648,9.2,11.9,13.584,1.352,1.523A.373.373,0,0,1,1.634.909Z" transform="translate(-0.104 -0.08)" fill="#fe646f"/><path d="M25.919,13.54,40.463,29.122l-2.247,2.11a.837.837,0,0,0,.338,1.413l11.095,3.246a.837.837,0,0,0,1.033-1.054L47.1,23.477a.837.837,0,0,0-1.393-.337l-1.8,1.816L25.108,5.932l-3.335,3.69Z" transform="translate(-1.785 -0.498)" fill="#fe646f"/><path d="M23.064,10.755l1.53-4.21A1.032,1.032,0,0,0,23.344,5.2l-3.129.884-1.249-.926a1.143,1.143,0,0,0-1.362,0l-1.249.926L13.225,5.2a1.032,1.032,0,0,0-1.25,1.345l1.53,4.21,1.119,3.166h7.058Z" transform="translate(-0.976 -0.417)" fill="#f9f3f1"/><g transform="translate(0.934 4.743)"><path d="M22.738,18.491l9.387,15.267a11.309,11.309,0,0,1-9.634,17.233H12.344A11.309,11.309,0,0,1,2.71,33.758L12.1,18.491l2.571-3.523h5.914Z" transform="translate(-1.017 -5.982)" fill="#f9f3f1"/><path d="M13.174,33.672l7.292-11.859a2,2,0,0,1,1.7-.953,4.137,4.137,0,0,0,1.777-.4l-1.21-1.968-.109-.179-2.046-3.345H14.669L12.1,18.491,2.71,33.758a11.309,11.309,0,0,0,9.634,17.233H22.492a11.687,11.687,0,0,0,1.413-.084l-1.1,0A11.309,11.309,0,0,1,13.174,33.672Z" transform="translate(-1.017 -5.982)" fill="#f3eae6"/><path d="M23.055,15.005H13.5a1.7,1.7,0,1,0,0,3.39h9.559a1.7,1.7,0,0,0,0-3.39Z" transform="translate(-1.901 -5.985)" fill="#fef0ae"/><path d="M23.894,8.491a4.164,4.164,0,0,0-.83-.083h-4.49A1.457,1.457,0,0,1,17.2,7.446c-.255-.7-.557-1.538-.561-1.556l-.288.214L13.225,5.22a1.032,1.032,0,0,0-1.25,1.345l1.53,4.21,1.119,3.166h7.058l.254-.581,1.128-2.585Z" transform="translate(-1.91 -5.18)" fill="#f3eae6"/><path d="M23.055,11.382H13.5a1.7,1.7,0,1,0,0,3.39h9.559a1.7,1.7,0,0,0,0-3.39Z" transform="translate(-1.901 -5.688)" fill="#fef0ae"/><path d="M16.53,16.7a1.7,1.7,0,0,1,1.7-1.7H13.5a1.7,1.7,0,1,0,0,3.39h4.729A1.7,1.7,0,0,1,16.53,16.7Z" transform="translate(-1.901 -5.985)" fill="#fee97d"/><path d="M16.53,13.078a1.7,1.7,0,0,1,1.7-1.7H13.5a1.7,1.7,0,0,0,0,3.39h4.729a1.7,1.7,0,0,1-1.7-1.7Z" transform="translate(-1.901 -5.688)" fill="#fee97d"/><path d="M23.384,36.028H14.939V33.113h9.332a.284.284,0,0,0,.284-.284V30.437a.284.284,0,0,0-.284-.284H19.557V28.67A.552.552,0,0,0,19,28.117H17.15a.552.552,0,0,0-.552.552v1.484H13.459a1.48,1.48,0,0,0-1.48,1.48v5.875a1.48,1.48,0,0,0,1.48,1.48H21.9V41.9H12.716a.565.565,0,0,0-.565.565V44.3a.565.565,0,0,0,.565.565H16.6v1.623a.413.413,0,0,0,.413.413h2.134a.413.413,0,0,0,.413-.413V44.863h3.826a1.48,1.48,0,0,0,1.48-1.48V37.508a1.48,1.48,0,0,0-1.48-1.48Z" transform="translate(-1.916 -7.06)" fill="#fedf30"/><path d="M50.71,53.67H33.369A1.665,1.665,0,0,1,31.7,52.006V49.324a1.665,1.665,0,0,1,1.665-1.665H50.71a1.665,1.665,0,0,1,1.665,1.665v2.682A1.665,1.665,0,0,1,50.71,53.67Z" transform="translate(-3.532 -8.662)" fill="#fee45a"/><path d="M50.71,47.123H33.369A1.665,1.665,0,0,1,31.7,45.458V42.776a1.665,1.665,0,0,1,1.665-1.665H50.71a1.665,1.665,0,0,1,1.665,1.665v2.682a1.665,1.665,0,0,1-1.665,1.665Z" transform="translate(-3.532 -8.125)" fill="#fee45a"/><g transform="translate(28.172 32.986)"><path d="M38.974,52.006V49.324a1.665,1.665,0,0,1,1.665-1.665h-7.27A1.665,1.665,0,0,0,31.7,49.324v2.682a1.665,1.665,0,0,0,1.665,1.665h7.27A1.665,1.665,0,0,1,38.974,52.006Z" transform="translate(-31.704 -41.648)" fill="#fedf30"/><path d="M38.974,45.458V42.776a1.665,1.665,0,0,1,1.665-1.665h-7.27A1.665,1.665,0,0,0,31.7,42.776v2.682a1.665,1.665,0,0,0,1.665,1.665h7.27A1.665,1.665,0,0,1,38.974,45.458Z" transform="translate(-31.704 -41.111)" fill="#fedf30"/></g></g><g transform="translate(0 0)"><path d="M26.008,48.41a10.655,10.655,0,0,1-3.6.615H12.261a10.569,10.569,0,0,1-9-16.105L12.429,18c.033,0,9.759,0,9.809,0L31.411,32.92a10.882,10.882,0,0,1,1,2.107.74.74,0,1,0,1.4-.488,12.364,12.364,0,0,0-1.14-2.394l-9.036-14.7a2.432,2.432,0,0,0,.179-3.593l.028-.029,6.583,7.053a.74.74,0,0,0,1.082-1.01l-7-7.5a2.5,2.5,0,0,0-1.448-2.533L24.019,7.2,41.6,24.991a.74.74,0,0,0,.526.22h0a.74.74,0,0,0,.526-.219l1.8-1.816a.1.1,0,0,1,.161.039L48.19,34.573a.1.1,0,0,1-.119.122L36.977,31.449a.1.1,0,0,1-.039-.163l2.247-2.11a.74.74,0,0,0,.035-1.044l-5.56-5.956a.74.74,0,0,0-1.082,1.01L37.634,28.6l-1.71,1.6a1.577,1.577,0,0,0,.636,2.663l11.094,3.246A1.577,1.577,0,0,0,49.6,34.129L46.025,22.77a1.577,1.577,0,0,0-2.624-.636l-1.271,1.284L24.392,5.475a1.772,1.772,0,0,0-2.225-1.391l-2.78.785-.957-.71a1.873,1.873,0,0,0-2.244,0l-.957.71-2.78-.785a1.78,1.78,0,0,0-.5-.067L9.589.353a.74.74,0,0,0-1.244.8L10.6,4.661a1.763,1.763,0,0,0-.3,1.733l1.252,3.445A2.517,2.517,0,0,0,10.354,11L1.3.372a.74.74,0,0,0-1.127.959S10.643,13.692,10.8,13.855a2.431,2.431,0,0,0,.214,3.621L2,32.145a12.049,12.049,0,0,0,10.264,18.36H22.408a12.132,12.132,0,0,0,4.1-.7.74.74,0,0,0-.5-1.394ZM12.6,11.092h9.426a1.022,1.022,0,0,1,0,2.043H12.6a1.022,1.022,0,0,1,0-2.043Zm9.492,3.523a.955.955,0,0,1,0,1.91H12.529a.955.955,0,1,1,0-1.91ZM15.177,6.392a.74.74,0,0,0,.642-.118l1.249-.926a.4.4,0,0,1,.481,0l1.249.926a.739.739,0,0,0,.642.118l3.129-.884a.292.292,0,0,1,.353.38L21.57,9.612H13.048L11.695,5.889a.292.292,0,0,1,.353-.38Z" transform="translate(0 -0.013)"/><path d="M16.944,47.573h2.134a1.154,1.154,0,0,0,1.153-1.153v-.883h3.086a2.222,2.222,0,0,0,2.22-2.22V37.442a2.222,2.222,0,0,0-2.22-2.22h-7.7V33.787h8.592a1.025,1.025,0,0,0,1.024-1.024V30.371a1.025,1.025,0,0,0-1.024-1.024H20.231V28.6a1.294,1.294,0,0,0-1.292-1.292H17.084A1.294,1.294,0,0,0,15.791,28.6v.744h-2.4a2.222,2.222,0,0,0-2.22,2.22v5.875a2.222,2.222,0,0,0,2.22,2.22h7.7V41.1H17.28a.74.74,0,1,0,0,1.48h4.558a.74.74,0,0,0,.74-.74V38.922a.74.74,0,0,0-.74-.74H13.393a.741.741,0,0,1-.74-.74V31.567a.741.741,0,0,1,.74-.74h3.138a.74.74,0,0,0,.74-.74v-1.3h1.48v1.3a.74.74,0,0,0,.74.74h4.258v1.48H14.873a.74.74,0,0,0-.74.74v2.915a.74.74,0,0,0,.74.74h8.444a.741.741,0,0,1,.74.74v5.875a.741.741,0,0,1-.74.74H19.491a.74.74,0,0,0-.74.74v1.3h-1.48V44.8a.74.74,0,0,0-.74-.74H12.826v-1.48h1.3a.74.74,0,1,0,0-1.48H12.65a1.306,1.306,0,0,0-1.3,1.3v1.831a1.306,1.306,0,0,0,1.3,1.3h3.141v.883a1.154,1.154,0,0,0,1.153,1.153Z" transform="translate(-0.916 -2.251)"/><path d="M53.049,42.71a2.407,2.407,0,0,0-2.4-2.4h-3.71a.74.74,0,0,0,0,1.48h3.71a.926.926,0,0,1,.925.925v2.682a.926.926,0,0,1-.923.925H33.3a.926.926,0,0,1-.923-.925V42.71a.926.926,0,0,1,.925-.925H43.78a.74.74,0,0,0,0-1.48H33.3a2.407,2.407,0,0,0-2.4,2.4v2.682a2.4,2.4,0,0,0,.672,1.665,2.4,2.4,0,0,0-.672,1.665V51.4a2.407,2.407,0,0,0,2.4,2.4H50.644a2.407,2.407,0,0,0,2.4-2.4V48.721a2.4,2.4,0,0,0-.672-1.665,2.4,2.4,0,0,0,.672-1.665V42.71ZM51.569,51.4a.926.926,0,0,1-.925.925H33.3a.926.926,0,0,1-.925-.925V48.721A.926.926,0,0,1,33.3,47.8H50.645a.926.926,0,0,1,.923.925V51.4Z" transform="translate(-2.533 -3.316)"/></g></g></g></g></svg>