<svg xmlns="http://www.w3.org/2000/svg" xmlns:xlink="http://www.w3.org/1999/xlink" width="114.056" height="114.056" viewBox="0 0 114.056 114.056"><defs><clipPath id="a"><rect width="114.056" height="114.056" transform="translate(736 2587)" fill="#fff"/></clipPath></defs><g transform="translate(-736 -2587)" clip-path="url(#a)"><g transform="translate(736 2587)"><g transform="translate(1.671 1.671)"><g transform="translate(58.892 0)"><path d="M75.538,40.481a2.293,2.293,0,0,1-2.293-2.293V19.451a18.66,18.66,0,1,0-37.319,0V38.188a2.293,2.293,0,0,1-2.293,2.293,4.937,4.937,0,0,0-4.957,4.943,4.849,4.849,0,0,0,4.848,4.755H75.647A4.849,4.849,0,0,0,80.494,45.2a4.984,4.984,0,0,0-4.957-4.721Z" transform="translate(-28.674 -0.791)" fill="#6c5e69"/><path d="M53.411,11.593,50.355,7.208a.424.424,0,0,0-.695,0L46.6,11.593a.423.423,0,0,1-.347.181H35.174a.423.423,0,0,0-.423.423V24.282a13.076,13.076,0,1,0,26.151,0V12.2a.423.423,0,0,0-.423-.423h-6.72a.423.423,0,0,1-.347-.181Z" transform="translate(-21.915 6.144)" fill="#ffe0cf"/><g transform="translate(23.862 17.918)"><path d="M54.673,9.274h-4.1A.423.423,0,0,1,51,9.7V21.782A13.078,13.078,0,0,1,39.971,34.7,13.079,13.079,0,0,0,55.1,21.782V9.7a.423.423,0,0,0-.423-.423Z" transform="translate(-39.971 -9.274)" fill="#ffcfc0"/></g></g><circle cx="7.094" cy="7.094" r="7.094" transform="translate(14.133 54.245)" fill="#ffb532"/><path d="M33.194,68.586H10.842A10.051,10.051,0,0,1,.791,58.535V52.762a21.227,21.227,0,1,1,42.454,0v5.773A10.051,10.051,0,0,1,33.194,68.586Z" transform="translate(-0.791 33.401)" fill="#ffc25e"/><path d="M18,67.523A13.592,13.592,0,0,1,4.406,53.931V40.339a29.69,29.69,0,0,0,27.184,0V53.931A13.592,13.592,0,0,1,18,67.523Z" transform="translate(3.229 43.192)" fill="#ffe0cf"/><g transform="translate(18.739 83.53)"><path d="M20.767,42.308V53.931a13.593,13.593,0,0,1-11.1,13.361,13.583,13.583,0,0,0,16.08-13.361V40.339a34.9,34.9,0,0,1-4.977,1.969Z" transform="translate(-9.663 -40.339)" fill="#ffcfc0"/></g><path d="M54.332,3.032V24.72a4.411,4.411,0,0,0,1.536,3.345L60.679,32.2a.956.956,0,0,1-.74,1.674l-11.467-1.42a10.6,10.6,0,0,0-1.3-.08H3.032A2.241,2.241,0,0,1,.791,30.131V3.032A2.241,2.241,0,0,1,3.032.791H52.091a2.241,2.241,0,0,1,2.241,2.241Z" transform="translate(-0.791 -0.791)" fill="#faf7f8"/><path d="M35.587,32.2l-4.811-4.134A4.41,4.41,0,0,1,29.24,24.72V3.032A2.241,2.241,0,0,0,27,.791H23.353a2.241,2.241,0,0,1,2.241,2.241v22.8a4.411,4.411,0,0,0,1.536,3.345l4.811,4.134a.99.99,0,0,1,.192.224l2.713.336A.956.956,0,0,0,35.587,32.2Z" transform="translate(24.302 -0.791)" fill="#f0eef0"/><path d="M30.533,31.951V53.638A4.411,4.411,0,0,1,29,56.984l-4.811,4.134a.956.956,0,0,0,.74,1.674l11.467-1.42a10.6,10.6,0,0,1,1.3-.08H75.149a2.241,2.241,0,0,0,2.241-2.241v-27.1a2.241,2.241,0,0,0-2.241-2.241H32.774a2.241,2.241,0,0,0-2.241,2.241Z" transform="translate(24.853 31.37)" fill="#faf7f8"/><g transform="translate(94.928 61.079)"><path d="M50.81,29.709H45.735a2.241,2.241,0,0,1,2.241,2.241v27.1a2.241,2.241,0,0,1-2.241,2.241H50.81a2.241,2.241,0,0,0,2.241-2.241v-27.1A2.242,2.242,0,0,0,50.81,29.709Z" transform="translate(-45.735 -29.709)" fill="#f0eef0"/></g><g transform="translate(6.244 6.498)"><g transform="translate(0 6.754)"><path d="M18.237,18.8h-11L3.747,7.065H21.724Z" transform="translate(-3.747 -7.065)" fill="#ffc25e"/></g><path d="M21.3,21.777l-6.382-6.382a1.366,1.366,0,0,1,0-1.932L24.11,4.268a1.366,1.366,0,0,1,1.332-.35L30.437,5.3a1.367,1.367,0,0,1,.951.951l1.387,4.995a1.366,1.366,0,0,1-.35,1.332L23.23,21.777a1.367,1.367,0,0,1-1.932,0Z" transform="translate(8.229 -3.867)" fill="#ff94be"/></g><g transform="translate(68.45 66.674)"><circle cx="10.326" cy="10.326" r="10.326" fill="#ffe270"/></g></g><g transform="translate(0)"><path d="M63.452,25.328V12.821a1.67,1.67,0,0,0-1.671-1.671H55.289L52.258,6.8a1.671,1.671,0,0,0-2.741,0L46.486,11.15H35.63a1.67,1.67,0,0,0-1.671,1.671V25.328a14.746,14.746,0,1,0,29.493,0Zm-26.151,0V14.492H47.357a1.67,1.67,0,0,0,1.371-.716l2.159-3.1,2.159,3.1a1.67,1.67,0,0,0,1.371.716H60.11V25.328a11.4,11.4,0,1,1-22.81,0Z" transform="translate(37.768 6.768)"/><path d="M41.1,15.126v-1.7a1.671,1.671,0,0,0-3.341,0v1.7a1.671,1.671,0,0,0,3.341,0Z" transform="translate(41.996 13.07)"/><path d="M44.21,16.8a1.67,1.67,0,0,0,1.671-1.671v-1.7a1.671,1.671,0,1,0-3.341,0v1.7A1.67,1.67,0,0,0,44.21,16.8Z" transform="translate(47.309 13.07)"/><path d="M49.323,18.722a1.671,1.671,0,0,0-1.877-2.765,5.423,5.423,0,0,1-6.722,0,1.671,1.671,0,0,0-1.877,2.765,8.737,8.737,0,0,0,10.476,0Z" transform="translate(42.389 17.425)"/><path d="M83.044,46.039a6.617,6.617,0,0,0-6.627-6.349.623.623,0,0,1-.623-.623V20.33a20.33,20.33,0,1,0-40.661,0V39.067a.623.623,0,0,1-.623.623A6.716,6.716,0,0,0,29.749,41.7a6.411,6.411,0,0,0-1.865,4.639A6.552,6.552,0,0,0,34.4,52.729h9.54a1.671,1.671,0,0,0,0-3.341H34.4a3.193,3.193,0,0,1-3.178-3.116,3.1,3.1,0,0,1,.909-2.236,3.356,3.356,0,0,1,2.378-1,3.968,3.968,0,0,0,3.964-3.964V20.33a16.989,16.989,0,0,1,33.978,0V39.067a3.969,3.969,0,0,0,3.964,3.964A3.3,3.3,0,0,1,79.7,46.125a3.179,3.179,0,0,1-3.177,3.263H50.474a1.671,1.671,0,0,0,0,3.341H76.527a6.52,6.52,0,0,0,6.517-6.691Z" transform="translate(31.009 0)"/><path d="M30.98,37.846a8.764,8.764,0,1,0-16.165,0A22.936,22.936,0,0,0,0,59.271v5.773A11.689,11.689,0,0,0,8.954,76.437,15.284,15.284,0,0,0,22.9,85.493a15.482,15.482,0,0,0,1.668-.092,1.671,1.671,0,0,0-.362-3.322,12.085,12.085,0,0,1-1.306.073A11.935,11.935,0,0,1,10.976,70.23V59.205a30.921,30.921,0,0,0,23.842,0V70.23a11.913,11.913,0,0,1-5.287,9.905,1.671,1.671,0,0,0,1.862,2.775,15.271,15.271,0,0,0,5.449-6.473,11.664,11.664,0,0,0,8.952-11.393V59.27A22.936,22.936,0,0,0,30.98,37.846Zm-13.505-3.4a5.423,5.423,0,1,1,10.846,0,5.368,5.368,0,0,1-.579,2.441,23.012,23.012,0,0,0-9.687,0A5.367,5.367,0,0,1,17.475,34.447Zm24.979,30.6A8.343,8.343,0,0,1,38,72.46a15.3,15.3,0,0,0,.163-2.23V56.638a1.671,1.671,0,0,0-2.4-1.5,27.865,27.865,0,0,1-25.726,0,1.671,1.671,0,0,0-2.4,1.5V70.23A15.321,15.321,0,0,0,7.8,72.456a8.362,8.362,0,0,1-4.455-7.412V59.271a19.556,19.556,0,1,1,39.112,0Z" transform="translate(0 28.563)"/><path d="M11,47.053v-1.7a1.671,1.671,0,1,0-3.341,0v1.7a1.671,1.671,0,1,0,3.341,0Z" transform="translate(8.52 48.577)"/><path d="M15.78,47.053v-1.7a1.671,1.671,0,1,0-3.341,0v1.7a1.671,1.671,0,1,0,3.341,0Z" transform="translate(13.834 48.577)"/><path d="M19.667,48.328a1.671,1.671,0,0,0-2.321-.444,5.423,5.423,0,0,1-6.722,0,1.671,1.671,0,1,0-1.877,2.765,9.273,9.273,0,0,0,5.238,1.744,9.276,9.276,0,0,0,5.238-1.744A1.671,1.671,0,0,0,19.667,48.328Z" transform="translate(8.913 52.933)"/><path d="M76.03,28.918H33.654a3.916,3.916,0,0,0-3.912,3.912V54.518a2.737,2.737,0,0,1-.955,2.078L23.976,60.73a2.627,2.627,0,0,0,2.035,4.6l12.014-1.488h38a3.917,3.917,0,0,0,3.912-3.912V32.83a3.916,3.916,0,0,0-3.912-3.912ZM76.6,59.929a.571.571,0,0,1-.571.571H37.922a1.666,1.666,0,0,0-.205.013l-9.767,1.209,3.016-2.591a6.075,6.075,0,0,0,2.118-4.613V32.831a.571.571,0,0,1,.571-.57H76.03a.571.571,0,0,1,.571.57v27.1Z" transform="translate(25.644 32.161)"/><path d="M14.652,3.182H12.578A4.993,4.993,0,0,0,7.591,8.169V9.713H4.627a1.671,1.671,0,0,0-1.6,2.147L6.512,23.594a1.67,1.67,0,0,0,1.6,1.195h11a1.671,1.671,0,0,0,1.6-1.195L24.2,11.859a1.671,1.671,0,0,0-1.6-2.147H19.639V8.169a4.992,4.992,0,0,0-4.987-4.987ZM10.933,8.169a1.648,1.648,0,0,1,1.646-1.646h2.073A1.648,1.648,0,0,1,16.3,8.169V9.713H10.933ZM17.87,21.447H9.361L6.866,13.054h13.5Z" transform="translate(3.288 3.539)"/><path d="M23.143,24.727a3.018,3.018,0,0,0,2.148-.89l9.194-9.194a3.042,3.042,0,0,0,.779-2.961L33.876,6.689a3.053,3.053,0,0,0-2.114-2.114L26.768,3.187a3.043,3.043,0,0,0-2.961.779L14.613,13.16a3.041,3.041,0,0,0,0,4.3L21,23.837a3.017,3.017,0,0,0,2.148.89Zm2.9-18.273L30.7,7.748,32,12.406l-8.854,8.854-5.952-5.952Z" transform="translate(15.264 3.422)"/><path d="M44.4,31.567a12,12,0,1,0,12,12A12.011,12.011,0,0,0,44.4,31.567Zm0,20.653a8.656,8.656,0,1,1,8.656-8.656A8.665,8.665,0,0,1,44.4,52.22Z" transform="translate(36.042 35.107)"/><path d="M41.8,39.635a9.77,9.77,0,0,1-2.08-.929.417.417,0,0,1,.223-.411,4.762,4.762,0,0,1,2.279-.037,1.671,1.671,0,0,0,.883-3.223,7.369,7.369,0,0,0-1.279-.212,1.671,1.671,0,0,0-3.27.429,3.706,3.706,0,0,0-2.112,2.723,3.361,3.361,0,0,0,1.141,3.305,11.16,11.16,0,0,0,3.1,1.5.531.531,0,0,1,.424.65.9.9,0,0,1-.9.761,2,2,0,0,1-1.524-.387,1.671,1.671,0,0,0-1.829,2.8,5.336,5.336,0,0,0,1.7.785,1.671,1.671,0,0,0,3.333-.17v-.03a4.246,4.246,0,0,0,2.509-3.2A3.845,3.845,0,0,0,41.8,39.635Z" transform="translate(40.159 37.407)"/><path d="M60.944,36.431a2.627,2.627,0,0,0,1.7-4.619l-4.812-4.134a2.736,2.736,0,0,1-.954-2.078V3.912A3.916,3.916,0,0,0,52.971,0H3.912A3.917,3.917,0,0,0,0,3.912V7.741a1.671,1.671,0,1,0,3.341,0V3.912a.571.571,0,0,1,.571-.571H52.971a.571.571,0,0,1,.571.571V25.6a6.074,6.074,0,0,0,2.118,4.613L58.675,32.8l-9.767-1.209a1.668,1.668,0,0,0-.205-.013H3.912a.571.571,0,0,1-.571-.571V14.2A1.671,1.671,0,0,0,0,14.2v16.81a3.917,3.917,0,0,0,3.912,3.912H48.6l12.014,1.488A2.709,2.709,0,0,0,60.944,36.431Z" transform="translate(0 0)"/></g></g></g></svg>