<svg xmlns="http://www.w3.org/2000/svg" width="124" height="124" viewBox="0 0 124 124"><g transform="translate(11323.994 8728.775)"><circle cx="62" cy="62" r="62" transform="translate(-11323.994 -8728.775)" fill="#fff"/><g transform="translate(-11292.994 -8695.822)"><g transform="translate(1.163 1.163)"><g transform="translate(2.325 34.877)"><path d="M27.251,59.9V65.3a1.585,1.585,0,0,1-2.8,1.011L19.113,59.9H6.325A2.332,2.332,0,0,1,4,57.576V34.325A2.332,2.332,0,0,1,6.325,32H18.334L19.8,33.755a1.585,1.585,0,0,0,2.8-1.011V32h9.3v2.325a2.332,2.332,0,0,0,2.325,2.325h9.3V57.576A2.332,2.332,0,0,1,41.2,59.9Z" transform="translate(-4 -32)" fill="#e6e9ed"/></g><g transform="translate(30.226 9.3)"><path d="M30.325,30.926A2.332,2.332,0,0,0,32.65,28.6V10H65.2a2.332,2.332,0,0,1,2.325,2.325V37.9A2.332,2.332,0,0,1,65.2,40.226H52.414l-5.336,6.406a1.585,1.585,0,0,1-2.8-1.011V40.226H30.325A2.332,2.332,0,0,1,28,37.9V30.926Z" transform="translate(-28 -10)" fill="#ffeaa7"/></g><path d="M36.877,11.3V29.9a2.332,2.332,0,0,1-2.325,2.325H22.926v5.394a1.585,1.585,0,0,1-2.8,1.011l-1.465-1.755-3.871-4.65H4.325A2.332,2.332,0,0,1,2,29.9V4.325A2.332,2.332,0,0,1,4.325,2H34.552a2.332,2.332,0,0,1,2.325,2.325Z" transform="translate(-2 -2)" fill="#f0d0b4"/><g transform="translate(6.975 51.152)"><path d="M17.335,47.2a6.434,6.434,0,0,0-.674,2.255l-.523,4.685H8V51.813A5.815,5.815,0,0,1,13.813,46a5.728,5.728,0,0,1,3.523,1.2Z" transform="translate(-8 -46)" fill="#b4dd7f"/></g><g transform="translate(27.867 51.153)"><path d="M35.305,51.813v2.325H27.167l-.523-4.685A6.434,6.434,0,0,0,25.97,47.2,5.728,5.728,0,0,1,29.493,46a5.8,5.8,0,0,1,5.813,5.813Z" transform="translate(-25.97 -46)" fill="#b4dd7f"/></g><g transform="translate(15.113 48.827)"><path d="M28.428,49.778l.523,4.685H15l.523-4.685A6.474,6.474,0,0,1,21.975,44a6.54,6.54,0,0,1,4.336,1.651,6.886,6.886,0,0,1,1.442,1.872A6.434,6.434,0,0,1,28.428,49.778Z" transform="translate(-15 -44)" fill="#fcd770"/></g><g transform="translate(27.8 44.149)"><ellipse cx="3.503" cy="3.503" rx="3.503" ry="3.503" transform="translate(0 0)" fill="#f0d0b4"/></g><g transform="translate(18.457 42.281)"><ellipse cx="3.737" cy="3.27" rx="3.737" ry="3.27" transform="translate(0 0)" fill="#f0d0b4"/></g><g transform="translate(9.581 44.149)"><ellipse cx="3.27" cy="3.503" rx="3.27" ry="3.503" transform="translate(0 0)" fill="#f0d0b4"/></g><g transform="translate(6.975 6.975)"><path d="M28.926,14.092v.186a6.769,6.769,0,0,1-2.255,5.034L18.463,26.6l-8.208-7.289A6.769,6.769,0,0,1,8,14.278v-.186A6.3,6.3,0,0,1,9.848,9.639a5.613,5.613,0,0,1,7.929,0l.686.686.686-.686a5.613,5.613,0,0,1,7.929,0A6.3,6.3,0,0,1,28.926,14.092Z" transform="translate(-8 -8)" fill="#ff826e"/></g><g transform="translate(39.527 20.926)"><path d="M42.975,31.626v1.163a1.166,1.166,0,0,1-1.163,1.163h-4.65A1.166,1.166,0,0,1,36,32.788V21.163A1.166,1.166,0,0,1,37.163,20h4.65a1.166,1.166,0,0,1,1.163,1.163Z" transform="translate(-36 -20)" fill="#b4dd7f"/></g><g transform="translate(46.502 13.951)"><path d="M58.276,24.463v6.975a3.483,3.483,0,0,1-3.488,3.488h-5.1A13.885,13.885,0,0,1,42,32.6V22.138l1.383-1.383a10.8,10.8,0,0,0,2.825-5A2.315,2.315,0,0,1,48.464,14,3.382,3.382,0,0,1,51.8,17.941l-.5,3.034h3.488A3.483,3.483,0,0,1,58.276,24.463Z" transform="translate(-42 -14)" fill="#f0d0b4"/></g></g><g transform="translate(0 0)"><path d="M30.251,14.439v-.183a7.406,7.406,0,0,0-2.184-5.272,6.776,6.776,0,0,0-9.441-.137,6.776,6.776,0,0,0-9.441.137A7.406,7.406,0,0,0,7,14.257v.183a7.9,7.9,0,0,0,2.649,5.9l8.976,7.98L27.6,20.34a7.9,7.9,0,0,0,2.651-5.9ZM18.626,25.208,11.195,18.6a5.572,5.572,0,0,1-1.869-4.163v-.183a5.1,5.1,0,0,1,1.5-3.628,4.451,4.451,0,0,1,6.294,0l1.5,1.5,1.5-1.5a4.56,4.56,0,0,1,6.294,0,5.1,5.1,0,0,1,1.5,3.628v.183A5.574,5.574,0,0,1,26.057,18.6Z" transform="translate(-0.025 -0.025)"/><path d="M69.591,10.3H38.2V4.488A3.492,3.492,0,0,0,34.714,1H4.488A3.492,3.492,0,0,0,1,4.488V30.064a3.492,3.492,0,0,0,3.488,3.488h9.919l1.938,2.325H6.813a3.492,3.492,0,0,0-3.488,3.488V62.616A3.492,3.492,0,0,0,6.813,66.1H19.057l4.99,5.987A2.745,2.745,0,0,0,28.9,70.333V66.1H41.69a3.492,3.492,0,0,0,3.488-3.488V42.852H47.5v4.229a2.745,2.745,0,0,0,4.855,1.758l4.99-5.987H69.591a3.492,3.492,0,0,0,3.488-3.488V13.788A3.492,3.492,0,0,0,69.591,10.3Zm-54.1,20.926H4.488a1.164,1.164,0,0,1-1.163-1.163V4.488A1.164,1.164,0,0,1,4.488,3.325H34.714a1.164,1.164,0,0,1,1.163,1.163V30.064a1.164,1.164,0,0,1-1.163,1.163H21.926v6.554a.435.435,0,0,1-.744.269Zm15.732,2.325v2.325H24.251V33.552ZM42.852,62.616a1.164,1.164,0,0,1-1.163,1.163H26.576v6.555a.435.435,0,0,1-.744.269l-5.687-6.823H6.813A1.164,1.164,0,0,1,5.65,62.616V39.364A1.164,1.164,0,0,1,6.813,38.2H18.281L19.4,39.539A2.737,2.737,0,0,0,24.208,38.2h7.018v1.163a3.492,3.492,0,0,0,3.488,3.488h8.138Zm27.9-23.251a1.164,1.164,0,0,1-1.163,1.163H56.259L50.571,47.35a.436.436,0,0,1-.744-.269V40.527H34.714a1.164,1.164,0,0,1-1.163-1.163V33.552h1.163A3.492,3.492,0,0,0,38.2,30.064V12.626H69.591a1.164,1.164,0,0,1,1.163,1.163Z" transform="translate(-1 -1)"/><path d="M27.926,43.975a4.6,4.6,0,0,0,.43,1.926,7.671,7.671,0,0,0-1.662-1.124,4.65,4.65,0,1,0-6.836,0A7.671,7.671,0,0,0,18.2,45.9a4.6,4.6,0,0,0,.43-1.926,4.65,4.65,0,1,0-8.014,3.194A6.979,6.979,0,0,0,7,53.276V55.6H9.325V53.276a4.641,4.641,0,0,1,6.724-4.156,7.734,7.734,0,0,0-.384,1.667l-.521,4.685,2.31.257.521-4.685a5.333,5.333,0,0,1,10.6,0l.521,4.685,2.31-.257-.521-4.685A7.665,7.665,0,0,0,30.5,49.12a4.641,4.641,0,0,1,6.724,4.156V55.6h2.325V53.276a6.979,6.979,0,0,0-3.612-6.107,4.645,4.645,0,1,0-8.014-3.194ZM13.975,46.3A2.325,2.325,0,1,1,16.3,43.975,2.327,2.327,0,0,1,13.975,46.3Zm9.3-2.325A2.325,2.325,0,1,1,25.6,41.65,2.327,2.327,0,0,1,23.276,43.975Zm11.626,0a2.325,2.325,0,1,1-2.325-2.325A2.327,2.327,0,0,1,34.9,43.975Z" transform="translate(-0.025 4.852)"/><path d="M55.926,19.975H53.81l.28-1.679A4.549,4.549,0,0,0,49.6,13a3.485,3.485,0,0,0-3.384,2.641A9.59,9.59,0,0,1,43.7,20.1l-.343.343a2.308,2.308,0,0,0-1.38-.464h-4.65A2.327,2.327,0,0,0,35,22.3V33.926a2.327,2.327,0,0,0,2.325,2.325h4.65a2.321,2.321,0,0,0,2.187-1.565,14.945,14.945,0,0,0,6.654,1.565h5.109a4.655,4.655,0,0,0,4.65-4.65V24.626A4.655,4.655,0,0,0,55.926,19.975Zm-18.6,13.951V22.3h4.65V33.926ZM58.251,31.6a2.327,2.327,0,0,1-2.325,2.325H50.817A12.632,12.632,0,0,1,44.3,32.115V22.782l1.042-1.042a11.917,11.917,0,0,0,3.134-5.535,1.161,1.161,0,0,1,1.128-.88,2.224,2.224,0,0,1,2.193,2.59l-.73,4.385h4.859a2.327,2.327,0,0,1,2.325,2.325Z" transform="translate(4.527 0.951)"/></g></g></g></svg>