<svg xmlns="http://www.w3.org/2000/svg" xmlns:xlink="http://www.w3.org/1999/xlink" width="111.816" height="111.817" viewBox="0 0 111.816 111.817"><defs><clipPath id="a"><rect width="111.817" height="111.817" fill="#fff"/></clipPath></defs><g clip-path="url(#a)"><g transform="translate(-0.001 0.008)"><path d="M6.815,76.514l19.994-6.248v-5.59A21.621,21.621,0,0,1,14.186,45.02V34.2h4.133A19.574,19.574,0,0,0,35.825,23.382,19.574,19.574,0,0,0,53.331,34.2h4.133V45.02A21.62,21.62,0,0,1,44.845,64.674l0,5.592,19.994,6.248a12.57,12.57,0,0,1,1.538.62,70.3,70.3,0,0,1-3.5-21.881V28.791a27.049,27.049,0,1,0-54.1,0V55.253a70.3,70.3,0,0,1-3.5,21.881,12.572,12.572,0,0,1,1.538-.62Z" transform="translate(3.846 0.062)" fill="#686868"/><path d="M68.621,65.324,48.626,59.076v-5.59A21.621,21.621,0,0,0,61.249,33.83V23.011H57.116A19.574,19.574,0,0,1,39.611,12.192,19.574,19.574,0,0,1,22.1,23.011H17.971V33.83A21.62,21.62,0,0,0,30.59,53.484l0,5.592L10.6,65.324A12.623,12.623,0,0,0,1.742,77.372V98.748H77.478V77.372a12.623,12.623,0,0,0-8.857-12.047Z" transform="translate(0.062 11.251)" fill="#fadcb5"/><path d="M77.478,53.13a12.623,12.623,0,0,0-8.857-12.047l-20-6.248-.606.9a10.109,10.109,0,0,1-16.821,0l-.606-.9L10.6,41.082A12.623,12.623,0,0,0,1.742,53.13V74.506H77.478Z" transform="translate(0.062 35.493)" fill="#c0dafb"/><path d="M65.823,41.082,45.829,34.834l-.606.9a10.109,10.109,0,0,1-16.821,0l-.606-.9L7.8,41.082a12.592,12.592,0,0,0-3.448,1.7c0,.056,0,.11,0,.166,0,17.423,18.153,31.557,40.551,31.557H74.681V53.13a12.623,12.623,0,0,0-8.857-12.047Z" transform="translate(2.859 35.493)" fill="#d9e9fd"/><path d="M13.309,25.439V20.03h-1.8a5.41,5.41,0,0,0,0,10.82h2.512a21.67,21.67,0,0,1-.709-5.41Z" transform="translate(4.724 19.642)" fill="#fadcb5"/><path d="M13.309,25.439V20.03h-1.8a5.41,5.41,0,0,0,0,10.82h2.512a21.67,21.67,0,0,1-.709-5.41Z" transform="translate(4.724 19.642)" fill="#fadcb5"/><path d="M31.172,12.192a19.574,19.574,0,0,1-17.506,10.82H9.623A30.617,30.617,0,0,0,43.372,51.7a21.612,21.612,0,0,0,9.438-17.867V23.011H48.678A19.574,19.574,0,0,1,31.172,12.193Z" transform="translate(8.5 11.25)" fill="#fcead3"/><path d="M32.638,20.03h-1.8v5.41a21.671,21.671,0,0,1-.686,5.414l2.49,0a5.41,5.41,0,0,0,0-10.82Z" transform="translate(30.476 19.642)" fill="#fadcb5"/><path d="M13.063,39.793a6.917,6.917,0,0,0,13.1,3.094l1.322-2.644a10.111,10.111,0,0,1-8.41-4.508l-.606-.9-5.41,1.69Z" transform="translate(12.183 35.493)" fill="#77a0d3"/><path d="M28.685,46.616a6.917,6.917,0,0,0,5.77-6.824V36.524l-5.41-1.69-.606.9a10.111,10.111,0,0,1-8.41,4.508l1.322,2.644A6.917,6.917,0,0,0,28.685,46.616Z" transform="translate(19.642 35.493)" fill="#77a0d3"/><path d="M54.608,17.417a18.018,18.018,0,0,0-12.43,31.076l-2,4.99,5.52-2.366a18.033,18.033,0,1,0,8.906-33.7Z" transform="translate(37.358 16.845)" fill="#77a0d3"/><path d="M52.743,17.417a18,18,0,0,0-13.914,6.56,18.287,18.287,0,0,0-.512,4.259c0,10.955,9.689,19.836,21.639,19.836a23.42,23.42,0,0,0,6.477-.9,18.018,18.018,0,0,0-13.69-29.754Z" transform="translate(39.222 16.845)" fill="#c0dafb"/><path d="M49.946,21.771l2.786,5.936,6.23.952-4.508,4.62L55.518,39.8l-5.572-3.08L44.374,39.8l1.064-6.524L40.93,28.66l6.23-.952Z" transform="translate(42.02 21.507)" fill="#f3a845"/><path d="M50.841,27.708l-2.786-5.936-2.786,5.936L42.7,28.1a9.617,9.617,0,0,0,9.867,8.1c.159,0,.316-.014.472-.022l-.472-2.9,4.508-4.62Z" transform="translate(43.91 21.507)" fill="#eecc61"/><path d="M72.582,76.788a68.378,68.378,0,0,1-3.188-20.6V50.673a7.081,7.081,0,0,0,0-9.442V29.723a28.852,28.852,0,1,0-57.7,0V41.231a7.081,7.081,0,0,0,0,9.442v5.513A68.378,68.378,0,0,1,8.5,76.788,14.332,14.332,0,0,0,.871,89.494V110.87a1.8,1.8,0,0,0,1.8,1.8H78.411a1.8,1.8,0,0,0,1.8-1.8V89.494A14.332,14.332,0,0,0,72.582,76.788ZM15.3,52.909a7.1,7.1,0,0,0,1.8.256h1.147A23.547,23.547,0,0,0,29.723,66.728v3.145L12.736,75.181a71.95,71.95,0,0,0,2.561-19Zm1.8-10.563v3.607a23.544,23.544,0,0,0,.307,3.607H17.1a3.607,3.607,0,0,1,0-7.213Zm46.884,3.607V42.346a3.607,3.607,0,0,1,0,7.213h-.307A23.544,23.544,0,0,0,63.985,45.952Zm-3.606,0a19.836,19.836,0,1,1-39.671,0V36.936h2.33a21.235,21.235,0,0,0,17.506-9.1,21.235,21.235,0,0,0,17.506,9.1h2.33Zm-12.623,24.7-.3.454a8.3,8.3,0,0,1-13.82,0l-.3-.454V68.248a23.262,23.262,0,0,0,14.426,0ZM27.92,74.213l2.871-.9a11.873,11.873,0,0,0,7,4.764l-.18.361a5.114,5.114,0,0,1-9.689-2.279Zm22.375-.9,2.871.9v1.944a5.114,5.114,0,0,1-9.689,2.288l-.18-.361a11.873,11.873,0,0,0,7-4.768Zm1.068-3.439V66.728A23.547,23.547,0,0,0,62.838,53.165h1.147a7.1,7.1,0,0,0,1.8-.256v3.277a71.95,71.95,0,0,0,2.561,19ZM40.542,4.477A25.273,25.273,0,0,1,65.788,29.723V39a7.1,7.1,0,0,0-1.8-.256V35.133a1.8,1.8,0,0,0-1.8-1.8H58.048a17.672,17.672,0,0,1-15.883-9.822,1.879,1.879,0,0,0-3.228,0,17.672,17.672,0,0,1-15.9,9.822H18.9a1.8,1.8,0,0,0-1.8,1.8v3.607A7.1,7.1,0,0,0,15.3,39V29.723A25.273,25.273,0,0,1,40.542,4.477ZM4.477,89.494a10.774,10.774,0,0,1,7.592-10.327l12.244-3.821v.817a8.7,8.7,0,0,0,7.287,8.6,9.122,9.122,0,0,0,1.461.121,8.636,8.636,0,0,0,5.678-2.139v26.319H18.9V96.444H15.3v12.623H4.477Zm72.13,19.573H65.788V96.444H62.181v12.623H42.346V82.748a8.643,8.643,0,0,0,5.678,2.133,9.138,9.138,0,0,0,1.461-.121,8.7,8.7,0,0,0,7.287-8.6v-.811l12.244,3.827a10.774,10.774,0,0,1,7.592,10.322Z" transform="translate(-0.871 -0.871)"/><rect width="3.606" height="7.213" transform="translate(27.049 39.672)"/><rect width="3.606" height="7.213" transform="translate(48.688 39.672)"/><path d="M23.759,30.6A3.607,3.607,0,0,1,20.153,27H16.546a7.213,7.213,0,1,0,14.426,0H27.366A3.607,3.607,0,0,1,23.759,30.6Z" transform="translate(15.912 27.101)"/><path d="M55.541,16.546A19.859,19.859,0,0,0,35.7,36.382,19.621,19.621,0,0,0,41,49.851l-1.56,3.9a1.8,1.8,0,0,0,1.675,2.472,1.784,1.784,0,0,0,.71-.146l4.721-2.018a19.836,19.836,0,1,0,8.995-37.508Zm0,36.065a16.218,16.218,0,0,1-8.014-2.13,1.8,1.8,0,0,0-.893-.236,1.774,1.774,0,0,0-.71.148l-1.518.649.38-.949a1.8,1.8,0,0,0-.431-1.975,16.213,16.213,0,1,1,11.186,4.492Z" transform="translate(36.425 15.913)"/><path d="M60.167,27.808,54.889,27l-2.378-5.065a1.8,1.8,0,0,0-3.264,0L46.868,27l-5.278.806a1.8,1.8,0,0,0-1.019,3.042l3.873,3.967-.918,5.626a1.8,1.8,0,0,0,2.653,1.868l4.7-2.595,4.7,2.6a1.8,1.8,0,0,0,2.653-1.868l-.918-5.626,3.873-3.967a1.8,1.8,0,0,0-1.019-3.042ZM54.1,32.953a1.8,1.8,0,0,0-.489,1.549l.467,2.86-2.323-1.284a1.8,1.8,0,0,0-1.746,0l-2.323,1.284.467-2.86a1.8,1.8,0,0,0-.489-1.549L45.6,30.845l2.761-.424a1.8,1.8,0,0,0,1.36-1.015l1.154-2.458,1.154,2.458a1.8,1.8,0,0,0,1.36,1.015l2.761.424Z" transform="translate(41.087 20.575)"/></g></g></svg>