<svg xmlns="http://www.w3.org/2000/svg" xmlns:xlink="http://www.w3.org/1999/xlink" width="211.303" height="211.303" viewBox="0 0 211.303 211.303"><defs><clipPath id="a"><rect width="211.303" height="211.303" transform="translate(0)" fill="#fff"/></clipPath></defs><g clip-path="url(#a)"><g transform="translate(0 -0.001)"><path d="M21.97,6.45H162.839a14.087,14.087,0,0,1,14.087,14.087V129.71a10.565,10.565,0,0,1-10.565,10.565H18.448A10.565,10.565,0,0,1,7.883,129.71V20.537A14.087,14.087,0,0,1,21.97,6.45Z" transform="translate(23.812 18.202)" fill="#4db7e5"/><path d="M42.222,6.45H38.7V140.275h7.043V6.894a14.116,14.116,0,0,0-3.522-.444Z" transform="translate(144.429 18.202)" fill="#48add9"/><path d="M131.205,2.15H25.554A14.087,14.087,0,0,0,11.467,16.237V164.149H145.292V16.237A14.087,14.087,0,0,0,131.205,2.15Z" transform="translate(37.837 1.372)" fill="#348fd9"/><path d="M141.084,8.958,12.542,137.5H141.084Z" transform="translate(42.045 28.02)" fill="#3086cd"/><path d="M107.331,56.532q0,1.776-.132,3.522A45.723,45.723,0,0,1,67.923,101.87c-.942.136-1.893.238-2.853.313q-1.743.132-3.522.132t-3.522-.132c-.96-.075-1.911-.176-2.853-.313a45.2,45.2,0,0,1-10.662-2.831A45.779,45.779,0,0,1,15.9,60.054q-.132-1.743-.132-3.522t.132-3.522A45.728,45.728,0,0,1,54.677,11.265q1.657-.251,3.35-.383,1.743-.132,3.522-.132t3.522.132c.96.075,1.911.176,2.853.313a45.178,45.178,0,0,1,10.653,2.826,45.937,45.937,0,0,1,23.6,21.381A45.416,45.416,0,0,1,107.2,53.011Q107.331,54.754,107.331,56.532Z" transform="translate(54.668 35.032)" fill="#4db7e5"/><path d="M107.2,60.054q.132-1.743.132-3.522t-.132-3.522H89.657A89.573,89.573,0,0,0,87.244,35.4h14.928a45.513,45.513,0,0,0-4.534-7.043H85.206a72.425,72.425,0,0,0-6.63-14.338,45.177,45.177,0,0,0-10.653-2.826l2.456,3.17a61.69,61.69,0,0,1,7.347,13.994H65.071V10.882q-1.743-.132-3.522-.132t-3.522.132V28.359H45.371a61.462,61.462,0,0,1,7.387-14.047c.044-.057.079-.119.119-.176l1.8-2.87a45.337,45.337,0,0,0-10.156,2.756,72.195,72.195,0,0,0-6.63,14.338H25.46A45.514,45.514,0,0,0,20.926,35.4H35.854a89.483,89.483,0,0,0-2.412,17.609H15.9q-.132,1.743-.132,3.522t.132,3.522H33.446a88.251,88.251,0,0,0,3.363,21.13H22.96a45.962,45.962,0,0,0,5.556,7.043h10.68a68.517,68.517,0,0,0,5.318,10.812,45.2,45.2,0,0,0,10.662,2.831L52.718,98.7a58.319,58.319,0,0,1-5.9-10.468H58.027v13.955q1.743.132,3.522.132t3.522-.132V88.228H76.283A58.089,58.089,0,0,1,70.38,98.7l-2.456,3.174a45.2,45.2,0,0,0,10.662-2.831A68.129,68.129,0,0,0,83.9,88.228h10.68a45.963,45.963,0,0,0,5.556-7.043H86.289a88.392,88.392,0,0,0,3.363-21.13ZM58.027,81.184H44.174a80.515,80.515,0,0,1-3.68-21.13H58.027Zm0-28.174H40.489A81.838,81.838,0,0,1,43.117,35.4h14.91Zm20.9,28.174H65.071V60.054H82.6a80.675,80.675,0,0,1-3.68,21.13ZM65.071,53.011V35.4h14.91a81.961,81.961,0,0,1,2.628,17.609Z" transform="translate(54.668 35.032)" fill="#60d1e0"/><path d="M121.208,35.772a12.023,12.023,0,0,1-8.5,3.522H83.928a12.025,12.025,0,0,1-8.5-3.521,12.024,12.024,0,0,0-8.5-3.522H6.45V42.815A10.565,10.565,0,0,0,17.015,53.38h162a10.565,10.565,0,0,0,10.565-10.565V32.25H129.71a12.025,12.025,0,0,0-8.5,3.521Z" transform="translate(18.202 119.184)" fill="#e0e0de"/><path d="M49.265,32.25V42.815A10.565,10.565,0,0,1,38.7,53.38H52.787A10.565,10.565,0,0,0,63.352,42.815V32.25Z" transform="translate(144.429 119.184)" fill="#d6d6d4"/><path d="M100.758,39.457V83.479a7.826,7.826,0,0,1-1.083,3.993A7.909,7.909,0,0,1,92.834,91.4H10.074a7.909,7.909,0,0,1-6.841-3.931A7.826,7.826,0,0,1,2.15,83.479V39.457a7.826,7.826,0,0,1,1.083-3.993,7.909,7.909,0,0,1,6.841-3.931h82.76a7.909,7.909,0,0,1,6.841,3.931A7.826,7.826,0,0,1,100.758,39.457Z" transform="translate(1.372 116.379)" fill="#ffb531"/><path d="M98.813,35.464c-10.9,6.071-28.442,10.01-48.221,10.01S13.274,41.535,2.37,35.464a7.909,7.909,0,0,1,6.841-3.931h82.76a7.909,7.909,0,0,1,6.841,3.931Z" transform="translate(2.234 116.379)" fill="#ffcb73"/><path d="M98.813,50.89a7.909,7.909,0,0,1-6.841,3.931H9.211A7.909,7.909,0,0,1,2.37,50.89c10.9-6.071,28.442-10.01,48.221-10.01s37.317,3.94,48.221,10.01Z" transform="translate(2.234 152.96)" fill="#ffa912"/><path d="M43.039,19.35A38.739,38.739,0,0,0,4.3,58.089v21.13H18.387V58.089a24.652,24.652,0,0,1,49.3,0v21.13H81.778V58.089A38.739,38.739,0,0,0,43.039,19.35Z" transform="translate(9.787 68.693)" fill="#e0e0de"/><path d="M31.165,45.718a10.565,10.565,0,1,0-14.087,9.916v7.693h7.043V55.635A10.547,10.547,0,0,0,31.165,45.718Z" transform="translate(32.226 130.367)" fill="#95573a"/><path d="M186.774,149.345h-3.522V40.172a17.628,17.628,0,0,0-17.609-17.609V19.042A17.628,17.628,0,0,0,148.035,1.433H42.384A17.628,17.628,0,0,0,24.775,19.042v3.522A17.628,17.628,0,0,0,7.167,40.172V82.433H14.21V40.172A10.577,10.577,0,0,1,24.775,29.607v49.3h7.043V19.042A10.577,10.577,0,0,1,42.384,8.477H148.035A10.577,10.577,0,0,1,158.6,19.042V138.78h7.043V29.607a10.577,10.577,0,0,1,10.565,10.565V149.345h-49.3a15.424,15.424,0,0,0-10.978,4.553,8.47,8.47,0,0,1-6.032,2.49H91.688v7.043H109.9a15.468,15.468,0,0,0,11.013-4.553,8.429,8.429,0,0,1,6-2.49h56.347v7.043a7.052,7.052,0,0,1-7.043,7.043H91.688v7.043h84.521A14.1,14.1,0,0,0,190.3,163.432V152.867A3.522,3.522,0,0,0,186.774,149.345Z" transform="translate(21.007 -1.433)" fill="#12263f"/><path d="M10.75,24.367h7.043V49.019H10.75Z" transform="translate(35.032 88.328)" fill="#12263f"/><path d="M14.333,4.3h7.043v7.043H14.333Z" transform="translate(49.056 9.787)" fill="#12263f"/><path d="M17.2,4.3h7.043v7.043H17.2Z" transform="translate(60.276 9.787)" fill="#12263f"/><path d="M20.066,4.3H27.11v7.043H20.066Z" transform="translate(71.496 9.787)" fill="#12263f"/><path d="M14.333,7.167H119.985V14.21H14.333Z" transform="translate(49.058 21.007)" fill="#12263f"/><path d="M52.524,100.194c-.745-.192-1.5-.409-2.233-.646l-2.154,6.706c.867.278,1.751.534,2.608.755A49.3,49.3,0,1,0,21.778,32.778,48.684,48.684,0,0,0,15.319,47.96l6.854,1.621a41.622,41.622,0,0,1,4.542-11.376H37.608a89.972,89.972,0,0,0-2.479,21.13c0,2.439.1,4.9.292,7.324l7.021-.562c-.086-1.073-.15-2.157-.2-3.241H59.78v21.13H49.215v7.043H59.78v10.408a42.174,42.174,0,0,1-7.256-1.245Zm38.7-9.162A42.427,42.427,0,0,1,83.2,96.6c.885-1.8,1.708-3.654,2.45-5.567Zm6.389-7.043H88.038A88.571,88.571,0,0,0,91.4,62.858H105.42a41.517,41.517,0,0,1-7.811,21.13ZM53.8,18.164a42.067,42.067,0,0,1,5.983-.931V31.163H47.134a62.276,62.276,0,0,1,6.664-13Zm13.026-.93a42.146,42.146,0,0,1,5.983.931,62.267,62.267,0,0,1,6.664,13H66.824ZM81.73,38.206a81.91,81.91,0,0,1,2.628,17.609H66.824V38.206Zm23.684,17.609h-14A89.362,89.362,0,0,0,89,38.206h10.89a41.859,41.859,0,0,1,5.523,17.609ZM94.785,31.163H86.954a75.671,75.671,0,0,0-3.781-9.14,41.869,41.869,0,0,1,11.609,9.14Zm-51.354-9.14a75.671,75.671,0,0,0-3.781,9.14H31.82a41.865,41.865,0,0,1,11.611-9.14ZM42.246,55.815a81.879,81.879,0,0,1,2.628-17.609H59.78V55.815Zm24.578,7.043H84.359a80.666,80.666,0,0,1-3.686,21.13H66.824Zm11.2,28.174a58.732,58.732,0,0,1-5.213,9.475,42,42,0,0,1-5.991.933V91.032Z" transform="translate(52.914 32.228)" fill="#12263f"/><path d="M96.52,78.572V60.894a42.261,42.261,0,0,0-84.521,0V78.572A11.858,11.858,0,0,0,1.433,90.344v43.229a11.856,11.856,0,0,0,11.842,11.842H95.243a11.856,11.856,0,0,0,11.842-11.842V90.344A11.859,11.859,0,0,0,96.52,78.572Zm-42.261-52.9A35.257,35.257,0,0,1,89.476,60.894V78.5H82.433V60.894a28.174,28.174,0,0,0-56.347,0V78.5H19.042V60.894A35.257,35.257,0,0,1,54.259,25.677ZM75.389,78.5H33.129V60.894a21.13,21.13,0,0,1,42.261,0Zm24.652,55.071a4.8,4.8,0,0,1-4.8,4.8H13.275a4.8,4.8,0,0,1-4.8-4.8V90.344a4.8,4.8,0,0,1,4.8-4.8H95.243a4.8,4.8,0,0,1,4.8,4.8Z" transform="translate(-1.433 65.888)" fill="#12263f"/><path d="M20.6,35.117a10.565,10.565,0,0,0-3.522,20.525V63.29h7.043V55.641A10.565,10.565,0,0,0,20.6,35.117Zm0,14.087a3.522,3.522,0,1,1,3.522-3.522A3.522,3.522,0,0,1,20.6,49.2Z" transform="translate(32.23 130.404)" fill="#12263f"/></g></g></svg>