<svg xmlns="http://www.w3.org/2000/svg" xmlns:xlink="http://www.w3.org/1999/xlink" width="382.348" height="1721.028" viewBox="0 0 382.348 1721.028">
  <defs>
    <clipPath id="clip-path">
      <path id="Path_993158" data-name="Path 993158" d="M24.772,0H1696.256c13.681,0,24.772,6.415,24.772,14.329v353.69c0,7.913-11.091,14.329-24.772,14.329H24.772C11.091,382.348,0,375.932,0,368.019V14.329C0,6.415,11.091,0,24.772,0Z" transform="translate(-15057.854 -13307.311)" fill="#cbc232"/>
    </clipPath>
    <clipPath id="clip-path-2">
      <path id="Path_993139" data-name="Path 993139" d="M363.315,0C563.969,0,726.631,155.789,726.631,347.964S563.969,695.928,363.315,695.928,0,540.139,0,347.964,162.662,0,363.315,0Z" transform="translate(0 0)" fill="#21c9b8"/>
    </clipPath>
    <clipPath id="clip-path-3">
      <rect id="Rectangle_455527" data-name="Rectangle 455527" width="530.776" height="530.776" fill="#dee4f0"/>
    </clipPath>
    <clipPath id="clip-path-4">
      <rect id="Rectangle_455529" data-name="Rectangle 455529" width="164.718" height="168.09" fill="#fff" stroke="#fff" stroke-width="1"/>
    </clipPath>
  </defs>
  <g id="Group_1182815" data-name="Group 1182815" transform="translate(3859.174 8839.21)">
    <g id="Mask_Group_1119147" data-name="Mask Group 1119147" transform="translate(9448.137 -22176.035) rotate(-90)" opacity="0.61" clip-path="url(#clip-path)">
      <path id="Path_993131" data-name="Path 993131" d="M0,0H2398.132V505.308H0Z" transform="translate(-15143.035 -13371.444)" fill="#f3f9ff"/>
      <path id="Path_993132" data-name="Path 993132" d="M339.691,0C527.3,0,679.381,152.085,679.381,339.691S527.3,679.381,339.691,679.381,0,527.3,0,339.691,152.085,0,339.691,0Z" transform="translate(-13285.051 -13355.636)" fill="#dbe3fb" opacity="0.14"/>
      <path id="Path_993133" data-name="Path 993133" d="M339.691,0C527.3,0,679.381,152.085,679.381,339.691S527.3,679.381,339.691,679.381,0,527.3,0,339.691,152.085,0,339.691,0Z" transform="translate(-14076.762 -12959.152)" fill="#dbe3fb" opacity="0.14"/>
      <path id="Path_993134" data-name="Path 993134" d="M339.691,0C527.3,0,679.381,152.085,679.381,339.691S527.3,679.381,339.691,679.381,0,527.3,0,339.691,152.085,0,339.691,0Z" transform="translate(-13298.395 -13510.606)" fill="#dbe3fb" opacity="0"/>
      <rect id="Rectangle_455526" data-name="Rectangle 455526" width="9.32" height="2.485" transform="translate(-13153.392 -12939.704)" fill="#dbe3fb"/>
      <ellipse id="Ellipse_13628" data-name="Ellipse 13628" cx="339.238" cy="324.904" rx="339.238" ry="324.904" transform="translate(-14135.324 -13978.838)" fill="#94a6dd" opacity="0.13"/>
      <path id="Path_993135" data-name="Path 993135" d="M347.5,0c191.917,0,347.5,149.006,347.5,332.814S539.414,665.628,347.5,665.628,0,516.622,0,332.814,155.58,0,347.5,0Z" transform="translate(-13640.354 -13164.039)" fill="#fff" opacity="0.25"/>
      <path id="Path_993136" data-name="Path 993136" d="M453.264,0C703.595,0,906.528,202.933,906.528,453.264S703.595,906.528,453.264,906.528,0,703.595,0,453.264,202.933,0,453.264,0Z" transform="translate(-15143.035 -13116.137)" fill="#a5b9f6" opacity="0.23" style="mix-blend-mode: multiply;isolation: isolate"/>
      <path id="Path_993137" data-name="Path 993137" d="M453.264,0C703.595,0,906.528,202.933,906.528,453.264S703.595,906.528,453.264,906.528,0,703.595,0,453.264,202.933,0,453.264,0Z" transform="translate(-15241.656 -13963.87)" fill="#a5b9f6" opacity="0.23" style="mix-blend-mode: multiply;isolation: isolate"/>
      <path id="Path_993138" data-name="Path 993138" d="M453.264,0C703.595,0,906.528,202.933,906.528,453.264S703.595,906.528,453.264,906.528,0,703.595,0,453.264,202.933,0,453.264,0Z" transform="translate(-14460.897 -13878.895)" fill="#f6f8fe" opacity="0.51" style="mix-blend-mode: lighten;isolation: isolate"/>
      <g id="Group_1182796" data-name="Group 1182796" transform="translate(-14538.409 -13748.186)">
        <g id="Group_1182795" data-name="Group 1182795" clip-path="url(#clip-path-3)">
          <path id="Path_993140" data-name="Path 993140" d="M530.776,265.384c0-8.566-.445-17.023-1.242-25.387H406.306l115.518-43.039a264.075,264.075,0,0,0-17.719-47.595L365.817,200.875,470.144,96.541a267.021,267.021,0,0,0-35.916-35.908l-87.152,87.161L398.3,35.715a264.035,264.035,0,0,0-46.185-21.142L290.788,148.75V1.233C282.423.445,273.958,0,265.384,0s-17.031.445-25.4,1.233V124.478L196.957,8.96a262.269,262.269,0,0,0-47.6,17.719l51.513,138.279L96.541,60.633A268,268,0,0,0,60.624,96.541L147.785,183.7,35.715,132.474a264.315,264.315,0,0,0-21.142,46.185L148.75,240H1.233C.445,248.361,0,256.818,0,265.384c0,8.583.445,17.04,1.233,25.4H124.478L8.952,333.819a262.977,262.977,0,0,0,17.719,47.612L164.95,329.909,60.624,434.227a267.083,267.083,0,0,0,35.916,35.916L183.7,382.983l-51.228,112.07A264.266,264.266,0,0,0,178.651,516.2l61.337-134.177V529.543c8.365.789,16.83,1.233,25.4,1.233s17.04-.445,25.4-1.233V406.3l43.031,115.527a264.14,264.14,0,0,0,47.6-17.711L329.9,365.826,434.227,470.144a266.109,266.109,0,0,0,35.916-35.916l-87.161-87.161,112.07,51.244A265.2,265.2,0,0,0,516.2,352.125L382.026,290.788H529.534c.8-8.365,1.242-16.821,1.242-25.4" fill="#dee4f0" opacity="0.12"/>
        </g>
      </g>
      <path id="Path_993141" data-name="Path 993141" d="M618.344,309.167c0-9.979-.518-19.831-1.447-29.576H473.339l134.577-50.14A307.632,307.632,0,0,0,587.273,174l-161.1,60.012L547.708,112.468a311.075,311.075,0,0,0-41.842-41.832L404.335,172.177,464.015,41.607a307.6,307.6,0,0,0-53.805-24.63L338.763,173.291V1.437C329.018.518,319.156,0,309.167,0s-19.841.518-29.586,1.437V145.015L229.452,10.438a305.538,305.538,0,0,0-55.457,20.642l60.012,161.093L112.468,70.636a312.219,312.219,0,0,0-41.842,41.832L172.167,214.009,41.607,154.33a307.922,307.922,0,0,0-24.63,53.805l156.314,71.457H1.437C.518,289.336,0,299.188,0,309.167c0,10,.518,19.851,1.437,29.6H145.015L10.429,388.893a306.364,306.364,0,0,0,20.642,55.467l161.093-60.021L70.626,505.867a311.149,311.149,0,0,0,41.842,41.842L214.009,446.168,154.33,576.727a307.863,307.863,0,0,0,53.8,24.64l71.457-156.314V616.908c9.745.919,19.606,1.437,29.586,1.437s19.851-.518,29.6-1.437V473.329l50.13,134.586a307.711,307.711,0,0,0,55.457-20.633l-60.021-161.1L505.867,547.708a310.013,310.013,0,0,0,41.842-41.842L446.168,404.326l130.559,59.7a308.948,308.948,0,0,0,24.64-53.805L445.053,338.763H616.9c.929-9.745,1.447-19.6,1.447-29.6" transform="translate(-14335.129 -12938.46)" fill="none" stroke="#fff" stroke-width="1"/>
      <rect id="Rectangle_455528" data-name="Rectangle 455528" width="9.32" height="2.485" transform="translate(-13114.48 -12874.489)" fill="#e9dcbf"/>
      <g id="Group_1182798" data-name="Group 1182798" transform="translate(-13397.381 -13286.881)" style="isolation: isolate">
        <g id="Group_1182797" data-name="Group 1182797" transform="translate(0 0)" clip-path="url(#clip-path-4)" style="isolation: isolate">
          <path id="Path_993142" data-name="Path 993142" d="M19.412,0h0a3.235,3.235,0,0,0-3.177,2.829A15.828,15.828,0,0,1,2.809,16.186a3.24,3.24,0,0,0,.021,6.425A15.7,15.7,0,0,1,16.256,35.965a3.2,3.2,0,0,0,6.351.056A15.957,15.957,0,0,1,36.08,22.531a3.091,3.091,0,0,0,2.737-3.043v-.076a3.2,3.2,0,0,0-2.807-3.156A15.958,15.958,0,0,1,22.584,2.8,3.221,3.221,0,0,0,19.412,0" transform="translate(0 0)" fill="#fff" stroke="#fff" stroke-width="1"/>
          <path id="Path_993143" data-name="Path 993143" d="M40.955,0h0a3.235,3.235,0,0,0-3.177,2.829A15.828,15.828,0,0,1,24.352,16.186a3.24,3.24,0,0,0,.021,6.425A15.7,15.7,0,0,1,37.8,35.965a3.2,3.2,0,0,0,6.351.056,15.957,15.957,0,0,1,13.473-13.49,3.091,3.091,0,0,0,2.737-3.043v-.076a3.2,3.2,0,0,0-2.807-3.156A15.954,15.954,0,0,1,44.129,2.8,3.224,3.224,0,0,0,40.955,0" transform="translate(20.424 0)" fill="#fff" stroke="#fff" stroke-width="1"/>
          <path id="Path_993144" data-name="Path 993144" d="M62.5,0h0a3.235,3.235,0,0,0-3.177,2.829A15.828,15.828,0,0,1,45.9,16.186a3.24,3.24,0,0,0,.021,6.425A15.7,15.7,0,0,1,59.342,35.965a3.2,3.2,0,0,0,6.351.056,15.957,15.957,0,0,1,13.473-13.49A3.091,3.091,0,0,0,81.9,19.488v-.076A3.2,3.2,0,0,0,79.1,16.256,15.958,15.958,0,0,1,65.67,2.8,3.221,3.221,0,0,0,62.5,0" transform="translate(40.847 0)" fill="#fff" stroke="#fff" stroke-width="1"/>
          <path id="Path_993145" data-name="Path 993145" d="M84.042,0h0a3.235,3.235,0,0,0-3.177,2.829A15.828,15.828,0,0,1,67.439,16.186a3.24,3.24,0,0,0,.021,6.425A15.7,15.7,0,0,1,80.886,35.965a3.2,3.2,0,0,0,6.351.056,15.957,15.957,0,0,1,13.473-13.49,3.091,3.091,0,0,0,2.737-3.043v-.076a3.2,3.2,0,0,0-2.807-3.156A15.958,15.958,0,0,1,87.214,2.8,3.221,3.221,0,0,0,84.042,0" transform="translate(61.271 0)" fill="#fff" stroke="#fff" stroke-width="1"/>
          <path id="Path_993146" data-name="Path 993146" d="M19.412,22.12h0a3.237,3.237,0,0,0-3.177,2.83A15.83,15.83,0,0,1,2.809,38.308a3.24,3.24,0,0,0,.021,6.425A15.7,15.7,0,0,1,16.256,58.087a3.2,3.2,0,0,0,6.351.055A15.957,15.957,0,0,1,36.08,44.653a3.092,3.092,0,0,0,2.737-3.043v-.078a3.205,3.205,0,0,0-2.807-3.156A15.956,15.956,0,0,1,22.584,24.919a3.221,3.221,0,0,0-3.171-2.8" transform="translate(0 20.97)" fill="#fff" stroke="#fff" stroke-width="1"/>
          <path id="Path_993147" data-name="Path 993147" d="M40.955,22.12h0a3.237,3.237,0,0,0-3.177,2.83A15.83,15.83,0,0,1,24.352,38.308a3.24,3.24,0,0,0,.021,6.425A15.7,15.7,0,0,1,37.8,58.087a3.2,3.2,0,0,0,6.351.055A15.957,15.957,0,0,1,57.623,44.653,3.092,3.092,0,0,0,60.36,41.61v-.078a3.205,3.205,0,0,0-2.807-3.156A15.952,15.952,0,0,1,44.129,24.919a3.224,3.224,0,0,0-3.173-2.8" transform="translate(20.424 20.97)" fill="#fff" stroke="#fff" stroke-width="1"/>
          <path id="Path_993148" data-name="Path 993148" d="M62.5,22.12h0a3.237,3.237,0,0,0-3.177,2.83A15.83,15.83,0,0,1,45.9,38.308a3.24,3.24,0,0,0,.021,6.425A15.7,15.7,0,0,1,59.342,58.087a3.2,3.2,0,0,0,6.351.055A15.957,15.957,0,0,1,79.166,44.653,3.092,3.092,0,0,0,81.9,41.61v-.078A3.205,3.205,0,0,0,79.1,38.376,15.956,15.956,0,0,1,65.67,24.919a3.221,3.221,0,0,0-3.171-2.8" transform="translate(40.847 20.97)" fill="#fff" stroke="#fff" stroke-width="1"/>
          <path id="Path_993149" data-name="Path 993149" d="M84.042,22.12h0a3.237,3.237,0,0,0-3.177,2.83A15.83,15.83,0,0,1,67.439,38.308a3.24,3.24,0,0,0,.021,6.425A15.7,15.7,0,0,1,80.886,58.087a3.2,3.2,0,0,0,6.351.055A15.957,15.957,0,0,1,100.71,44.653a3.092,3.092,0,0,0,2.737-3.043v-.078a3.205,3.205,0,0,0-2.807-3.156A15.956,15.956,0,0,1,87.214,24.919a3.221,3.221,0,0,0-3.171-2.8" transform="translate(61.271 20.97)" fill="#fff" stroke="#fff" stroke-width="1"/>
          <path id="Path_993150" data-name="Path 993150" d="M19.412,44.241h0a3.235,3.235,0,0,0-3.177,2.829A15.823,15.823,0,0,1,2.809,60.425a3.241,3.241,0,0,0,.021,6.427A15.7,15.7,0,0,1,16.256,80.206a3.2,3.2,0,0,0,6.351.056A15.957,15.957,0,0,1,36.08,66.772a3.092,3.092,0,0,0,2.737-3.043v-.076A3.2,3.2,0,0,0,36.009,60.5,15.958,15.958,0,0,1,22.584,47.04a3.221,3.221,0,0,0-3.171-2.8" transform="translate(0 41.942)" fill="#fff" stroke="#fff" stroke-width="1"/>
          <path id="Path_993151" data-name="Path 993151" d="M40.955,44.241h0a3.235,3.235,0,0,0-3.177,2.829A15.823,15.823,0,0,1,24.352,60.425a3.241,3.241,0,0,0,.021,6.427A15.7,15.7,0,0,1,37.8,80.206a3.2,3.2,0,0,0,6.351.056,15.957,15.957,0,0,1,13.473-13.49,3.092,3.092,0,0,0,2.737-3.043v-.076A3.2,3.2,0,0,0,57.552,60.5,15.954,15.954,0,0,1,44.129,47.04a3.224,3.224,0,0,0-3.173-2.8" transform="translate(20.424 41.942)" fill="#fff" stroke="#fff" stroke-width="1"/>
          <path id="Path_993152" data-name="Path 993152" d="M62.5,44.241h0a3.235,3.235,0,0,0-3.177,2.829A15.823,15.823,0,0,1,45.9,60.425a3.241,3.241,0,0,0,.021,6.427A15.7,15.7,0,0,1,59.342,80.206a3.2,3.2,0,0,0,6.351.056,15.957,15.957,0,0,1,13.473-13.49A3.092,3.092,0,0,0,81.9,63.729v-.076A3.2,3.2,0,0,0,79.1,60.5,15.958,15.958,0,0,1,65.67,47.04a3.221,3.221,0,0,0-3.171-2.8" transform="translate(40.847 41.942)" fill="#fff" stroke="#fff" stroke-width="1"/>
          <path id="Path_993153" data-name="Path 993153" d="M84.042,44.241h0a3.235,3.235,0,0,0-3.177,2.829A15.823,15.823,0,0,1,67.439,60.425a3.241,3.241,0,0,0,.021,6.427A15.7,15.7,0,0,1,80.886,80.206a3.2,3.2,0,0,0,6.351.056,15.957,15.957,0,0,1,13.473-13.49,3.092,3.092,0,0,0,2.737-3.043v-.076a3.2,3.2,0,0,0-2.807-3.156A15.958,15.958,0,0,1,87.214,47.04a3.221,3.221,0,0,0-3.171-2.8" transform="translate(61.271 41.942)" fill="#fff" stroke="#fff" stroke-width="1"/>
          <path id="Path_993154" data-name="Path 993154" d="M19.412,66.361h0a3.235,3.235,0,0,0-3.177,2.829A15.828,15.828,0,0,1,2.809,82.547a3.24,3.24,0,0,0,.021,6.425,15.7,15.7,0,0,1,13.426,13.354,3.2,3.2,0,0,0,6.351.056A15.957,15.957,0,0,1,36.08,88.892a3.091,3.091,0,0,0,2.737-3.043v-.076a3.2,3.2,0,0,0-2.807-3.156A15.958,15.958,0,0,1,22.584,69.16a3.221,3.221,0,0,0-3.171-2.8" transform="translate(0 62.912)" fill="#fff" stroke="#fff" stroke-width="1"/>
          <path id="Path_993155" data-name="Path 993155" d="M40.955,66.361h0a3.235,3.235,0,0,0-3.177,2.829A15.827,15.827,0,0,1,24.352,82.547a3.24,3.24,0,0,0,.021,6.425A15.7,15.7,0,0,1,37.8,102.326a3.2,3.2,0,0,0,6.351.056,15.957,15.957,0,0,1,13.473-13.49,3.091,3.091,0,0,0,2.737-3.043v-.076a3.2,3.2,0,0,0-2.807-3.156A15.954,15.954,0,0,1,44.129,69.16a3.224,3.224,0,0,0-3.173-2.8" transform="translate(20.424 62.912)" fill="#fff" stroke="#fff" stroke-width="1"/>
          <path id="Path_993156" data-name="Path 993156" d="M62.5,66.361h0a3.235,3.235,0,0,0-3.177,2.829A15.827,15.827,0,0,1,45.9,82.547a3.24,3.24,0,0,0,.021,6.425,15.7,15.7,0,0,1,13.426,13.354,3.2,3.2,0,0,0,6.351.056,15.957,15.957,0,0,1,13.473-13.49A3.091,3.091,0,0,0,81.9,85.849v-.076A3.2,3.2,0,0,0,79.1,82.617,15.958,15.958,0,0,1,65.67,69.16a3.221,3.221,0,0,0-3.171-2.8" transform="translate(40.847 62.912)" fill="#fff" stroke="#fff" stroke-width="1"/>
          <path id="Path_993157" data-name="Path 993157" d="M84.042,66.361h0a3.235,3.235,0,0,0-3.177,2.829A15.827,15.827,0,0,1,67.439,82.547a3.24,3.24,0,0,0,.021,6.425,15.7,15.7,0,0,1,13.426,13.354,3.2,3.2,0,0,0,6.351.056,15.957,15.957,0,0,1,13.473-13.49,3.091,3.091,0,0,0,2.737-3.043v-.076a3.2,3.2,0,0,0-2.807-3.156A15.958,15.958,0,0,1,87.214,69.16a3.221,3.221,0,0,0-3.171-2.8" transform="translate(61.271 62.912)" fill="#fff" stroke="#fff" stroke-width="1"/>
        </g>
      </g>
    </g>
    <g id="Group_1182794" data-name="Group 1182794">
      <rect id="Rectangle_455517" data-name="Rectangle 455517" width="308" height="327" rx="13" transform="translate(-3826 -8514.235)" fill="#fff"/>
      <rect id="Rectangle_455518" data-name="Rectangle 455518" width="308" height="225.734" rx="13" transform="translate(-3826 -8147.235)" fill="#fff"/>
      <rect id="Rectangle_455523" data-name="Rectangle 455523" width="308" height="198.867" rx="13" transform="translate(-3826 -7880.368)" fill="#fff"/>
      <rect id="Rectangle_455524" data-name="Rectangle 455524" width="308" height="198.867" rx="13" transform="translate(-3826 -7641.272)" fill="#fff"/>
      <rect id="Rectangle_455525" data-name="Rectangle 455525" width="308" height="246.867" rx="13" transform="translate(-3826 -7402.177)" fill="#fff"/>
      <text id="Este_es_el_último_grupo_de_necesidades_y_están_relacionadas_con_la_satisfacción_personal_tener_todas_las_necesidades_cubiertas_y_el_sentirse_pleno_puede_parecer_un_poco_subjetivo_ya_que_cada_persona_evalúa_cuando_se_siente_totalmente_satisfecho_algun" data-name="Este es el último grupo de necesidades y están relacionadas con la satisfacción personal, tener todas las necesidades cubiertas, y el “sentirse pleno”, puede parecer un poco subjetivo ya que cada persona evalúa cuando se siente totalmente satisfecho, algun" transform="translate(-3798 -8487.59)" fill="#12263f" font-size="14" font-family="Roboto-Regular, Roboto"><tspan x="0" y="15">Este es el último grupo de necesidades y </tspan><tspan x="0" y="39">están relacionadas con la satisfacción </tspan><tspan x="0" y="63">personal, tener todas las necesidades </tspan><tspan x="0" y="87">cubiertas, y el </tspan><tspan y="87" font-family="Roboto-Bold, Roboto" font-weight="700">“sentirse pleno”</tspan><tspan y="87">, puede </tspan><tspan x="0" y="111">parecer un poco subjetivo ya que cada </tspan><tspan x="0" y="135">persona evalúa cuando se siente </tspan><tspan x="0" y="159">totalmente satisfecho, algunos lo asocian </tspan><tspan x="0" y="183">con temas económicos, otros con temas </tspan><tspan x="0" y="207">familiares, otros con temas espirituales, </tspan><tspan x="0" y="231">por lo que la unidad de medida varía en </tspan><tspan x="0" y="255">cada caso.</tspan><tspan y="255" xml:space="preserve" font-family="Roboto-Bold, Roboto" font-weight="700"> Ejemplo: moralidad, metas </tspan><tspan x="0" y="279" font-family="Roboto-Bold, Roboto" font-weight="700">cumplidas.</tspan></text>
      <g id="Group_1182788" data-name="Group 1182788" transform="translate(-659.652 -238.235)">
        <g id="Rectangle_455513" data-name="Rectangle 455513" transform="translate(-3166.348 -8302.455)" fill="#a5b9f6" stroke="#a5b9f6" stroke-width="1">
          <rect width="181" height="38" rx="19" stroke="none"/>
          <rect x="0.5" y="0.5" width="180" height="37" rx="18.5" fill="none"/>
        </g>
        <text id="Autorrealización" transform="translate(-3074.195 -8277.455)" fill="#12263f" font-size="18" font-family="Roboto-Black, Roboto" font-weight="800"><tspan x="-67.302" y="0">Autorrealización</tspan></text>
      </g>
      <g id="Group_1182789" data-name="Group 1182789" transform="translate(-1058.649 512.904)">
        <rect id="Rectangle_455514" data-name="Rectangle 455514" width="238.348" height="38" rx="19" transform="translate(-2767.351 -7934.08)" fill="#21c9b8"/>
        <text id="Necesidades_Fisiológicas" data-name="Necesidades Fisiológicas" transform="translate(-2644.351 -7909.08)" fill="#12263f" font-size="18" font-family="Roboto-Black, Roboto" font-weight="800"><tspan x="-103.307" y="0">Necesidades Fisiológicas</tspan></text>
      </g>
      <g id="Group_1182793" data-name="Group 1182793" transform="translate(-1396.041 152.804)">
        <g id="Group_1182792" data-name="Group 1182792">
          <rect id="Rectangle_455515" data-name="Rectangle 455515" width="180" height="38" rx="19" transform="translate(-2429.959 -8319.039)" fill="#ff7e5d"/>
          <text id="Reconocimiento" transform="translate(-2343.612 -8294.039)" fill="#12263f" font-size="18" font-family="Roboto-Black, Roboto" font-weight="800"><tspan x="-65.993" y="0">Reconocimiento</tspan></text>
        </g>
      </g>
      <g id="Group_1182791" data-name="Group 1182791" transform="translate(-1402.652 276.948)">
        <rect id="Rectangle_455516" data-name="Rectangle 455516" width="187.754" height="38" rx="19" transform="matrix(1, 0.017, -0.017, 1, -2422.685, -8175)" fill="#e9dcbf"/>
        <path id="Path_995060" data-name="Path 995060" d="M-65.391-2.391h-4.228L-70.356,0h-3.3l4.693-12.8h2.9L-61.33,0h-3.313ZM-68.88-4.772h2.751l-1.38-4.438ZM-59.845,0V-7.453h-1.38V-9.51h1.38v-.316A3.631,3.631,0,0,1-58.6-12.735a4.987,4.987,0,0,1,3.243-.949,11.509,11.509,0,0,1,3.094.51l-.4,2.338-.492-.132a7.832,7.832,0,0,0-2.021-.255q-1.7,0-1.7,1.547v.167h1.863v2.057h-1.863V0ZM-50.9,0h-2.979V-9.51H-50.9Zm4.931,0h-2.971V-13.5h2.971Zm4.948,0h-2.971V-9.51h2.971Zm-3.146-11.962A1.322,1.322,0,0,1-43.708-13a1.724,1.724,0,0,1,1.187-.4,1.724,1.724,0,0,1,1.187.4,1.322,1.322,0,0,1,.457,1.037,1.322,1.322,0,0,1-.457,1.037,1.724,1.724,0,0,1-1.187.4,1.724,1.724,0,0,1-1.187-.4A1.322,1.322,0,0,1-44.165-11.962ZM-33.838,0a3.344,3.344,0,0,1-.281-.853A2.754,2.754,0,0,1-36.4.176a3.374,3.374,0,0,1-2.285-.813,2.588,2.588,0,0,1-.94-2.043,2.66,2.66,0,0,1,1.143-2.338,5.821,5.821,0,0,1,3.322-.791h.914v-.5q0-1.31-1.134-1.31a.925.925,0,0,0-1.055,1.037H-39.4a2.659,2.659,0,0,1,1.173-2.241,4.927,4.927,0,0,1,2.993-.861,4.323,4.323,0,0,1,2.874.888A3.086,3.086,0,0,1-31.28-6.363v4.21a4.311,4.311,0,0,0,.4,2V0Zm-1.854-1.934a1.652,1.652,0,0,0,.918-.237,1.487,1.487,0,0,0,.523-.536V-4.228h-.861q-1.547,0-1.547,1.389a.848.848,0,0,0,.272.655A.986.986,0,0,0-35.692-1.934Zm10.072-.176a1.317,1.317,0,0,0,.967-.338,1.241,1.241,0,0,0,.334-.945h2.777A3.288,3.288,0,0,1-22.663-.826a4.168,4.168,0,0,1-2.887,1,4.22,4.22,0,0,1-3.27-1.3,5.125,5.125,0,0,1-1.2-3.6v-.123A5.792,5.792,0,0,1-29.483-7.4a3.872,3.872,0,0,1,1.534-1.7,4.573,4.573,0,0,1,2.373-.593,4.116,4.116,0,0,1,2.944,1.028,3.647,3.647,0,0,1,1.09,2.786h-2.777A1.626,1.626,0,0,0-24.68-7a1.244,1.244,0,0,0-.967-.4q-1.151,0-1.345,1.468a10.357,10.357,0,0,0-.062,1.283,4.068,4.068,0,0,0,.343,1.986A1.187,1.187,0,0,0-25.62-2.109ZM-17.165,0h-2.971V-9.51h2.971Zm-3.146-11.962A1.322,1.322,0,0,1-19.854-13a1.724,1.724,0,0,1,1.187-.4,1.724,1.724,0,0,1,1.187.4,1.322,1.322,0,0,1,.457,1.037,1.322,1.322,0,0,1-.457,1.037,1.724,1.724,0,0,1-1.187.4,1.724,1.724,0,0,1-1.187-.4A1.322,1.322,0,0,1-20.312-11.962Zm4.6,7.119a5.613,5.613,0,0,1,.554-2.536A3.96,3.96,0,0,1-13.57-9.088a4.791,4.791,0,0,1,2.435-.6A4.373,4.373,0,0,1-7.77-8.363a5.076,5.076,0,0,1,1.23,3.6v.105A4.925,4.925,0,0,1-7.774-1.129,4.384,4.384,0,0,1-11.118.176a4.434,4.434,0,0,1-3.261-1.217,4.761,4.761,0,0,1-1.327-3.3Zm2.962.185a3.538,3.538,0,0,0,.413,1.934,1.376,1.376,0,0,0,1.222.615q1.582,0,1.617-2.435v-.3Q-9.5-7.4-11.136-7.4q-1.485,0-1.608,2.206Zm2.021-8.842H-7.6l-2.443,2.76h-2.417Zm8.218,3.99.1,1.116A3.225,3.225,0,0,1,.3-9.686,2.713,2.713,0,0,1,2.518-8.8a4.226,4.226,0,0,1,.76,2.672V0H.308V-6a1.6,1.6,0,0,0-.29-1.059A1.342,1.342,0,0,0-1.037-7.4a1.413,1.413,0,0,0-1.292.686V0H-5.291V-9.51ZM13.2-4.148,14.783-9.51h3.173L14.08,1.591l-.167.4A2.944,2.944,0,0,1,11,3.841a4.625,4.625,0,0,1-1.222-.176V1.547h.387a2.027,2.027,0,0,0,.954-.18A1.093,1.093,0,0,0,11.6.721l.237-.633-3.3-9.6H11.7ZM28.564,0a3.344,3.344,0,0,1-.281-.853A2.754,2.754,0,0,1,26,.176a3.374,3.374,0,0,1-2.285-.813,2.588,2.588,0,0,1-.94-2.043,2.66,2.66,0,0,1,1.143-2.338,5.821,5.821,0,0,1,3.322-.791h.914v-.5q0-1.31-1.134-1.31a.925.925,0,0,0-1.055,1.037H23a2.659,2.659,0,0,1,1.173-2.241,4.927,4.927,0,0,1,2.993-.861,4.323,4.323,0,0,1,2.874.888,3.086,3.086,0,0,1,1.081,2.435v4.21a4.311,4.311,0,0,0,.4,2V0ZM26.71-1.934a1.652,1.652,0,0,0,.918-.237,1.487,1.487,0,0,0,.523-.536V-4.228H27.29q-1.547,0-1.547,1.389a.848.848,0,0,0,.272.655A.986.986,0,0,0,26.71-1.934ZM33.416,0V-7.453h-1.38V-9.51h1.38v-.756a3.286,3.286,0,0,1,.958-2.522,3.785,3.785,0,0,1,2.689-.9,5.889,5.889,0,0,1,1.389.185l.009,2.18a2.706,2.706,0,0,0-.729-.079q-1.345,0-1.345,1.16v.729h1.854v2.057H36.387V0ZM43.884.176a4.889,4.889,0,0,1-3.542-1.305,4.507,4.507,0,0,1-1.354-3.4v-.246a5.84,5.84,0,0,1,.541-2.575,3.955,3.955,0,0,1,1.578-1.727,4.763,4.763,0,0,1,2.461-.611,4.117,4.117,0,0,1,3.164,1.244,4.887,4.887,0,0,1,1.16,3.467v1.151H42A2.135,2.135,0,0,0,42.7-2.566a2.066,2.066,0,0,0,1.389.457,2.662,2.662,0,0,0,2.2-.984l1.354,1.6A3.784,3.784,0,0,1,46.068-.277,5.3,5.3,0,0,1,43.884.176ZM43.55-7.4q-1.3,0-1.547,1.723h2.988v-.229a1.467,1.467,0,0,0-.36-1.1A1.434,1.434,0,0,0,43.55-7.4ZM53.1-2.109a1.317,1.317,0,0,0,.967-.338,1.241,1.241,0,0,0,.334-.945h2.777A3.288,3.288,0,0,1,56.061-.826a4.168,4.168,0,0,1-2.887,1,4.22,4.22,0,0,1-3.27-1.3,5.125,5.125,0,0,1-1.2-3.6v-.123A5.792,5.792,0,0,1,49.241-7.4a3.872,3.872,0,0,1,1.534-1.7,4.573,4.573,0,0,1,2.373-.593,4.116,4.116,0,0,1,2.944,1.028,3.647,3.647,0,0,1,1.09,2.786H54.4A1.626,1.626,0,0,0,54.044-7a1.244,1.244,0,0,0-.967-.4q-1.151,0-1.345,1.468a10.357,10.357,0,0,0-.062,1.283,4.068,4.068,0,0,0,.343,1.986A1.187,1.187,0,0,0,53.1-2.109Zm8.78-9.765V-9.51h1.564v2.057H61.884V-3.1a1.111,1.111,0,0,0,.193.747,1.037,1.037,0,0,0,.765.211A4.345,4.345,0,0,0,63.58-2.2V-.079a5.466,5.466,0,0,1-1.67.255,3.1,3.1,0,0,1-2.259-.721,2.954,2.954,0,0,1-.729-2.188v-4.72H57.709V-9.51h1.213v-2.364Zm2.092,7.031a5.613,5.613,0,0,1,.554-2.536A3.96,3.96,0,0,1,66.12-9.088a4.791,4.791,0,0,1,2.435-.6,4.373,4.373,0,0,1,3.366,1.323,5.076,5.076,0,0,1,1.23,3.6v.105a4.925,4.925,0,0,1-1.235,3.529A4.384,4.384,0,0,1,68.572.176a4.434,4.434,0,0,1-3.261-1.217,4.761,4.761,0,0,1-1.327-3.3Zm2.962.185a3.538,3.538,0,0,0,.413,1.934,1.376,1.376,0,0,0,1.222.615q1.582,0,1.617-2.435v-.3q0-2.558-1.635-2.558-1.485,0-1.608,2.206Z" transform="translate(-2329.339 -8147.854)" fill="#12263f"/>
      </g>
      <g id="Group_1182790" data-name="Group 1182790" transform="translate(-1377.305 361.808)">
        <rect id="Rectangle_455512" data-name="Rectangle 455512" width="238.348" height="38" rx="19" transform="translate(-2448.695 -8022.08)" fill="#cbc232"/>
        <text id="Necesidades_de_seguridad" data-name="Necesidades de seguridad" transform="translate(-2329.348 -7997.08)" fill="#12263f" font-size="18" font-family="Roboto-Black, Roboto" font-weight="800"><tspan x="-107.284" y="0">Necesidades de seguridad</tspan></text>
      </g>
      <text id="Hace_relación_a_la_estima_a_sentirse_reconocido_y_valorado_en_términos_sociales_es_decir_se_enfoca_a_que_la_persona_se_sienta_valiosa_como_participante_de_una_sociedad._Ejemplo:_ascensos_en_la_empresa_logros_grados." data-name="Hace relación a la estima, a sentirse reconocido y valorado en términos sociales, es decir, se enfoca a que la persona se sienta valiosa como participante de una sociedad. Ejemplo: ascensos en la empresa, logros, grados." transform="translate(-3798 -8106.281)" fill="#12263f" font-size="16" font-family="Roboto-Regular, Roboto"><tspan x="0" y="17">Hace relación a la estima, a sentirse </tspan><tspan x="0" y="41">reconocido y valorado en términos </tspan><tspan x="0" y="65">sociales, es decir, se enfoca a que la </tspan><tspan x="0" y="89">persona se sienta valiosa como </tspan><tspan x="0" y="113">participante de una sociedad. </tspan><tspan x="0" y="137" font-family="Roboto-Bold, Roboto" font-weight="700">Ejemplo: ascensos en la empresa, </tspan><tspan x="0" y="161" font-family="Roboto-Bold, Roboto" font-weight="700">logros, grados.</tspan></text>
      <text id="Esta_tercera_necesidad_está_relacionada_directamente_con_la_relevancia_para_el_individuo_de_pertenencia_a_un_grupo_de_encajar_dentro_de_su_entorno._Ejemplo:_familia_amistades." data-name="Esta tercera necesidad está relacionada directamente con la relevancia para el individuo de pertenencia a un grupo, de “encajar” dentro de su entorno. Ejemplo: familia, amistades." transform="translate(-3798 -7844.501)" fill="#12263f" font-size="16" font-family="Roboto-Regular, Roboto"><tspan x="0" y="17">Esta tercera necesidad está </tspan><tspan x="0" y="41">relacionada directamente con la </tspan><tspan x="0" y="65">relevancia para el individuo de </tspan><tspan x="0" y="89">pertenencia a un grupo, de </tspan><tspan y="89" font-family="Roboto-Bold, Roboto" font-weight="700">“encajar” </tspan><tspan x="0" y="113">dentro de su entorno. </tspan><tspan y="113" font-family="Roboto-Bold, Roboto" font-weight="700">Ejemplo: </tspan><tspan x="0" y="137" font-family="Roboto-Bold, Roboto" font-weight="700">familia, amistades.</tspan></text>
      <text id="Este_grupo_de_necesidades_impacta_la_interacción_de_la_persona_con_la_sociedad_y_están_asociadas_a_necesidades_básicas_de_protección_y_seguridad._Ejemplo:_empleo_salud_propiedad_privada." data-name="Este grupo de necesidades impacta la interacción de la persona con la sociedad y están asociadas a necesidades básicas de protección y seguridad.  Ejemplo: empleo, salud, propiedad privada." transform="translate(-3798 -7605.405)" fill="#12263f" font-size="16" font-family="Roboto-Regular, Roboto"><tspan x="0" y="17">Este grupo de necesidades impacta </tspan><tspan x="0" y="41">la interacción de la persona con la </tspan><tspan x="0" y="65">sociedad y están asociadas a </tspan><tspan x="0" y="89">necesidades básicas de protección </tspan><tspan x="0" y="113" xml:space="preserve">y seguridad.  </tspan><tspan y="113" font-family="Roboto-Bold, Roboto" font-weight="700">Ejemplo: empleo, </tspan><tspan x="0" y="137" font-family="Roboto-Bold, Roboto" font-weight="700">salud, propiedad privada.</tspan></text>
      <text id="Son_aquellas_necesidades_individuales_que_deben_ser_satisfechas_porque_se_consideran_básicas_es_decir_que_las_personas_necesitan_para_subsistir_garantizando_calidad_de_vida._Ejemplos:_la_vivienda_los_alimentos_la_salud." data-name="Son aquellas necesidades individuales que deben ser satisfechas porque se consideran básicas, es decir, que las personas necesitan para subsistir garantizando calidad de vida. Ejemplos: la vivienda, los alimentos, la salud." transform="translate(-3798 -7366.947)" fill="#12263f" font-size="16" font-family="Roboto-Regular, Roboto"><tspan x="0" y="17">Son aquellas necesidades </tspan><tspan x="0" y="41">individuales que deben ser </tspan><tspan x="0" y="65">satisfechas porque se consideran </tspan><tspan x="0" y="89">básicas, es decir, que las personas </tspan><tspan x="0" y="113">necesitan para subsistir </tspan><tspan x="0" y="137">garantizando calidad de vida. </tspan><tspan x="0" y="161" font-family="Roboto-Bold, Roboto" font-weight="700">Ejemplos: la vivienda, los alimentos, </tspan><tspan x="0" y="185" font-family="Roboto-Bold, Roboto" font-weight="700">la salud.</tspan></text>
    </g>
    <g id="Group_1182814" data-name="Group 1182814" transform="translate(-780 110)">
      <g id="Group_1182799" data-name="Group 1182799" transform="translate(-2881.267 -8895)">
        <path id="Path_993109" data-name="Path 993109" d="M0,163.336l82.9,81.8,82.364-81.8-82.9-81.8Z" transform="translate(0 -28.64)" fill="#636363" opacity="0.15" style="mix-blend-mode: multiply;isolation: isolate"/>
        <path id="Path_993110" data-name="Path 993110" d="M168.28,135.208,91.94,211.023,15.1,135.209l76.34-75.816Z" transform="translate(-9.052 -21.655)" fill="#21c9b8"/>
        <path id="Path_993111" data-name="Path 993111" d="M172.211,127.37l-68.448,67.978-68.9-67.976,68.448-67.979Z" transform="translate(-20.901 -21.655)" fill="#636363" opacity="0.15" style="mix-blend-mode: multiply;isolation: isolate"/>
        <path id="Path_993112" data-name="Path 993112" d="M282.87,170.144l-.266,15.343L206.264,261.3l.266-15.344Z" transform="translate(-123.641 -56.592)" fill="#4dd5c7"/>
        <path id="Path_993113" data-name="Path 993113" d="M91.543,245.96,91.277,261.3,14.437,185.489l.266-15.343Z" transform="translate(-8.654 -56.592)" fill="#3b958c"/>
        <path id="Path_993114" data-name="Path 993114" d="M173.793,104.247,108.62,168.973l-65.6-64.725,65.174-64.726Z" transform="translate(-25.787 -15.386)" fill="#cbc232"/>
        <path id="Path_993115" data-name="Path 993115" d="M178.44,94.982,122.6,150.443,66.385,94.983,122.23,39.521Z" transform="translate(-39.793 -15.386)" fill="#636363" opacity="0.15" style="mix-blend-mode: multiply;isolation: isolate"/>
        <path id="Path_993116" data-name="Path 993116" d="M271.622,134.073l-.227,13.1L206.221,211.9l.227-13.1Z" transform="translate(-123.616 -45.213)" fill="#e1d740"/>
        <path id="Path_993117" data-name="Path 993117" d="M108.28,198.8l-.227,13.1-65.6-64.725.227-13.1Z" transform="translate(-25.447 -45.213)" fill="#b7af2d"/>
        <path id="Path_993118" data-name="Path 993118" d="M179.61,76.045l-53.393,53.027L72.474,76.046l53.394-53.027Z" transform="translate(-43.443 -10.181)" fill="#e9dcbf"/>
        <path id="Path_993119" data-name="Path 993119" d="M185.094,65.11,142.712,107.2l-42.66-42.091,42.382-42.092Z" transform="translate(-59.974 -10.181)" fill="#636363" opacity="0.15" style="mix-blend-mode: multiply;isolation: isolate"/>
        <path id="Path_993120" data-name="Path 993120" d="M259.756,100.48l-.186,10.732-53.393,53.027.186-10.732Z" transform="translate(-123.589 -34.616)" fill="#f6e1b2"/>
        <path id="Path_993121" data-name="Path 993121" d="M125.939,153.507l-.186,10.732L72.01,111.213l.186-10.732Z" transform="translate(-43.165 -34.616)" fill="#d2c6ac"/>
        <path id="Path_993122" data-name="Path 993122" d="M186.312,50.942,146.494,90.487,106.415,50.942,146.234,11.4Z" transform="translate(-63.789 -6.515)" fill="#ff7e5d"/>
        <path id="Path_993123" data-name="Path 993123" d="M191.195,41.207l-30.016,29.81L130.967,41.207,160.982,11.4Z" transform="translate(-78.506 -6.515)" fill="#636363" opacity="0.15" style="mix-blend-mode: multiply;isolation: isolate"/>
        <path id="Path_993124" data-name="Path 993124" d="M246.081,69.164l-.139,8-39.818,39.545.139-8Z" transform="translate(-123.558 -24.737)" fill="#f3a38e"/>
        <path id="Path_993125" data-name="Path 993125" d="M146.287,108.71l-.139,8L106.069,77.168l.139-8Z" transform="translate(-63.581 -24.738)" fill="#df6546"/>
        <path id="Path_993126" data-name="Path 993126" d="M192.982,30.393l-26.31,26.129L140.191,30.394,166.5,4.265Z" transform="translate(-84.035 -4.265)" fill="#a5b9f6"/>
        <path id="Path_993128" data-name="Path 993128" d="M232.474,42.434l-.092,5.288L206.073,73.85l.091-5.287Z" transform="translate(-123.527 -16.305)" fill="#dbe3fb"/>
        <path id="Path_993129" data-name="Path 993129" d="M166.536,68.563l-.092,5.288L139.962,47.722l.091-5.288Z" transform="translate(-83.898 -16.305)" fill="#94a6dd"/>
      </g>
      <g id="Group_1182804" data-name="Group 1182804" transform="translate(-2802.447 -8713.517) rotate(180)">
        <path id="Path_993130" data-name="Path 993130" d="M0,0H58.252" transform="translate(0 5.669)" fill="none" stroke="#12263f" stroke-width="1"/>
        <ellipse id="Ellipse_13627" data-name="Ellipse 13627" cx="4.584" cy="4.584" rx="4.584" ry="4.584" transform="translate(55.109 0) rotate(16)" fill="#12263f"/>
      </g>
      <g id="Group_1182810" data-name="Group 1182810" transform="translate(-2802.447 -8752.395) rotate(180)">
        <path id="Path_993130-2" data-name="Path 993130" d="M0,0H62.762" transform="translate(0 5.669)" fill="none" stroke="#12263f" stroke-width="1"/>
        <ellipse id="Ellipse_13627-2" data-name="Ellipse 13627" cx="4.584" cy="4.584" rx="4.584" ry="4.584" transform="translate(59.619 0) rotate(16)" fill="#12263f"/>
      </g>
      <g id="Group_1182811" data-name="Group 1182811" transform="translate(-2798.633 -8788.121) rotate(180)">
        <path id="Path_993130-3" data-name="Path 993130" d="M0,0H104.912" transform="translate(0 5.669)" fill="none" stroke="#12263f" stroke-width="1"/>
        <ellipse id="Ellipse_13627-3" data-name="Ellipse 13627" cx="4.584" cy="4.584" rx="4.584" ry="4.584" transform="translate(101.77 0) rotate(16)" fill="#12263f"/>
      </g>
      <g id="Group_1182812" data-name="Group 1182812" transform="translate(-2798.633 -8829.351) rotate(180)">
        <path id="Path_993130-4" data-name="Path 993130" d="M0,0H104.912" transform="translate(0 5.669)" fill="none" stroke="#12263f" stroke-width="1"/>
        <ellipse id="Ellipse_13627-4" data-name="Ellipse 13627" cx="4.584" cy="4.584" rx="4.584" ry="4.584" transform="translate(101.77 0) rotate(16)" fill="#12263f"/>
      </g>
      <g id="Group_1182813" data-name="Group 1182813" transform="translate(-2798.633 -8872.083) rotate(180)">
        <path id="Path_993130-5" data-name="Path 993130" d="M0,0H108.853" transform="translate(0 5.669)" fill="none" stroke="#12263f" stroke-width="1"/>
        <ellipse id="Ellipse_13627-5" data-name="Ellipse 13627" cx="4.584" cy="4.584" rx="4.584" ry="4.584" transform="translate(105.71 0) rotate(16)" fill="#12263f"/>
      </g>
      <g id="Group_1182809" data-name="Group 1182809" transform="translate(-3046 -8891.993)">
        <g id="Rectangle_455534" data-name="Rectangle 455534" transform="translate(0 0)" fill="#a5b9f6" stroke="#a5b9f6" stroke-width="1">
          <rect width="117.157" height="26.796" rx="13.398" stroke="none"/>
          <rect x="0.5" y="0.5" width="116.157" height="25.796" rx="12.898" fill="none"/>
        </g>
        <text id="Autorrealización-2" data-name="Autorrealización" transform="translate(57.027 17.257)" fill="#12263f" font-size="12" font-family="Roboto-Black, Roboto" font-weight="800"><tspan x="-44.868" y="0">Autorrealización</tspan></text>
      </g>
      <g id="Group_1182808" data-name="Group 1182808" transform="translate(-3046 -8732.631)">
        <rect id="Rectangle_455533" data-name="Rectangle 455533" width="168.074" height="26.796" rx="13.398" transform="translate(0 0)" fill="#21c9b8"/>
        <text id="Necesidades_Fisiológicas-2" data-name="Necesidades Fisiológicas" transform="translate(83.103 16.641)" fill="#12263f" font-size="12" font-family="Roboto-Black, Roboto" font-weight="800"><tspan x="-68.871" y="0">Necesidades Fisiológicas</tspan></text>
      </g>
      <g id="Group_1182805" data-name="Group 1182805" transform="translate(-3046 -8852.152)">
        <rect id="Rectangle_455535" data-name="Rectangle 455535" width="117.157" height="26.796" rx="13.398" fill="#ff7e5d"/>
        <text id="Reconocimiento-2" data-name="Reconocimiento" transform="translate(58.348 16.641)" fill="#12263f" font-size="12" font-family="Roboto-Black, Roboto" font-weight="800"><tspan x="-43.995" y="0">Reconocimiento</tspan></text>
      </g>
      <g id="Group_1182806" data-name="Group 1182806" transform="translate(-3046 -8813.063)">
        <rect id="Rectangle_455531" data-name="Rectangle 455531" width="132.397" height="26.796" rx="13.398" transform="matrix(1, 0.017, -0.017, 1, 0.468, 0)" fill="#e9dcbf"/>
        <text id="Afiliación_y_afecto" data-name="Afiliación y afecto" transform="translate(63.11 18.154)" fill="#12263f" font-size="12" font-family="Roboto-Black, Roboto" font-weight="800"><tspan x="-49.084" y="0">Afiliación y afecto</tspan></text>
      </g>
      <g id="Group_1182807" data-name="Group 1182807" transform="translate(-3046 -8771.72)">
        <rect id="Rectangle_455530" data-name="Rectangle 455530" width="168.074" height="26.796" rx="13.398" fill="#cbc232"/>
        <text id="Necesidades_de_seguridad-2" data-name="Necesidades de seguridad" transform="translate(74.707 15.641)" fill="#12263f" font-size="11" font-family="Roboto-Black, Roboto" font-weight="800"><tspan x="-65.562" y="0">Necesidades de seguridad</tspan></text>
      </g>
    </g>
  </g>
</svg>
