<svg xmlns="http://www.w3.org/2000/svg" xmlns:xlink="http://www.w3.org/1999/xlink" width="111.816" height="111.817" viewBox="0 0 111.816 111.817"><defs><clipPath id="a"><rect width="111.817" height="111.817" fill="#fff"/></clipPath></defs><g clip-path="url(#a)"><g transform="translate(1.638 1.638)"><path d="M12.446,13.5A3.285,3.285,0,0,0,9.17,16.777v4.914H33.739V16.777A3.286,3.286,0,0,0,30.463,13.5Z" transform="translate(8.18 12.817)" fill="#ff5477" fill-rule="evenodd"/><path d="M33.739,17.456H9.17l1.638,31.121H32.1Z" transform="translate(8.18 17.052)" fill="#fff" fill-rule="evenodd"/><path d="M16.391,61.339,14.753,30.217V25.3a3.286,3.286,0,0,1,3.276-3.276H36.046A3.286,3.286,0,0,1,39.322,25.3v4.914L37.684,61.339ZM50.12,5.537H3.955v65.74H50.12Z" transform="translate(2.597 4.291)" fill="#53d8f6" fill-rule="evenodd"/><path d="M7.343,10.619H53.507v65.74H7.343ZM4.067,86.186H60.059v-17l6.552-5.673V43.378H63.335A3.286,3.286,0,0,1,60.059,40.1V33.55a3.286,3.286,0,0,1,3.276-3.276H78.929A3.286,3.286,0,0,1,82.2,33.55V40.1a3.286,3.286,0,0,1-3.276,3.276H75.653V60.186a4.521,4.521,0,1,1,9.042,0v2.261a4.521,4.521,0,1,1,9.042,0v2.261a4.521,4.521,0,1,1,9.042,0V86.187h3.276a3.286,3.286,0,0,0,3.276-3.276V4.067A3.286,3.286,0,0,0,106.056.791H4.067A3.286,3.286,0,0,0,.791,4.067V82.911a3.286,3.286,0,0,0,3.276,3.276ZM63.335,10.619H78.929a3.286,3.286,0,0,1,3.276,3.276v6.552a3.286,3.286,0,0,1-3.276,3.276H63.335a3.286,3.286,0,0,1-3.276-3.276V13.895A3.286,3.286,0,0,1,63.335,10.619Z" transform="translate(-0.791 -0.791)" fill="#fff08a" fill-rule="evenodd"/><path d="M27.041,64.395V45.154l6.552-5.673V21.144a3.248,3.248,0,0,0,1.638.442h3.276v20.14L31.954,47.4v17H27.041ZM52.462,21.144v7.824a9.4,9.4,0,0,1,6.111,2.6,9.42,9.42,0,0,1,9.042,2.26,9.436,9.436,0,0,1,11.974,9.087V63.953a3.248,3.248,0,0,1-1.638.442H74.675V42.916a4.521,4.521,0,1,0-9.042,0V40.655a4.521,4.521,0,1,0-9.042,0V38.394a4.521,4.521,0,1,0-9.042,0V21.586h3.276a3.247,3.247,0,0,0,1.638-.442Z" transform="translate(27.314 21.001)" fill="#ffc472" fill-rule="evenodd"/><path d="M29.414,8.813v6.552a3.286,3.286,0,0,0,3.276,3.276H48.283a3.286,3.286,0,0,0,3.276-3.276V8.813a3.286,3.286,0,0,0-3.276-3.276H32.689A3.286,3.286,0,0,0,29.414,8.813Z" transform="translate(29.855 4.29)" fill="#ffc277" fill-rule="evenodd"/><path d="M48.283,15.029H32.689a3.286,3.286,0,0,0-3.276,3.276v6.552a3.286,3.286,0,0,0,3.276,3.276h3.276V26.1a4.521,4.521,0,1,1,9.042,0v2.031h3.276a3.286,3.286,0,0,0,3.276-3.276V18.305A3.286,3.286,0,0,0,48.283,15.029Z" transform="translate(29.855 14.454)" fill="#ffc277" fill-rule="evenodd"/><path d="M30.2,26.844a3.248,3.248,0,0,0,1.638.442h3.276V25.255a4.521,4.521,0,1,1,9.042,0v2.031h3.276a3.25,3.25,0,0,0,1.638-.442V25.255a9.435,9.435,0,0,0-18.87,0Z" transform="translate(30.702 15.301)" fill="#ff905b" fill-rule="evenodd"/><path d="M49.529,37.033a4.534,4.534,0,0,0-4.521,4.521V22.714a4.521,4.521,0,1,0-9.042,0v22.17l-6.552,5.673v17L40.368,77.723V90.7H67.613V77.723l4.521-10.169V46.075a4.521,4.521,0,1,0-9.042,0V43.814a4.521,4.521,0,1,0-9.042,0V41.554a4.535,4.535,0,0,0-4.521-4.521Z" transform="translate(29.855 17.841)" fill="#fef2e2" fill-rule="evenodd"/><path d="M12.446,13.5A3.285,3.285,0,0,0,9.17,16.777v4.914h4.914V16.777A3.286,3.286,0,0,1,17.359,13.5Z" transform="translate(8.18 12.817)" fill="#ff0e42" fill-rule="evenodd"/><path d="M14.083,17.456H9.17l1.638,31.121h4.914Z" transform="translate(8.18 17.052)" fill="#9ee6fa" fill-rule="evenodd"/><path d="M3.955,5.537H8.869v65.74H3.955Z" transform="translate(2.597 4.291)" fill="#2d93f4" fill-rule="evenodd"/><path d="M29.414,8.813v6.552a3.286,3.286,0,0,0,3.276,3.276H37.6a3.286,3.286,0,0,1-3.276-3.276V8.813A3.286,3.286,0,0,1,37.6,5.537H32.689A3.286,3.286,0,0,0,29.414,8.813Z" transform="translate(29.855 4.29)" fill="#ff905b" fill-rule="evenodd"/><path d="M4.067,86.186H8.981A3.286,3.286,0,0,1,5.7,82.911V4.067A3.286,3.286,0,0,1,8.981.791H4.067A3.286,3.286,0,0,0,.791,4.067V82.911A3.286,3.286,0,0,0,4.067,86.186Z" transform="translate(-0.791 -0.791)" fill="#ffc472" fill-rule="evenodd"/><path d="M34.7,50.836H61.949V55.75H34.7Z" transform="translate(35.519 52.792)" fill="#ffe1ba" fill-rule="evenodd"/><g transform="translate(100.351 4.914)"><path d="M52.53,12.992H49.254V9.716H52.53Zm0-6.552H49.254V3.164H52.53Z" transform="translate(-49.254 -3.164)" fill="#fff"/></g></g><path d="M40.492,52.418h3.276v3.276H40.492Z" transform="translate(43.354 56.123)"/><path d="M106.9,0H4.914A4.919,4.919,0,0,0,0,4.914V83.758a4.919,4.919,0,0,0,4.914,4.914H60.263l9.96,9.246v13.9H80.569v-3.276H73.5V99.053l4.382.536.4-3.252-5.692-.7L62.544,86.319V70.786l3.276-2.837V81.6H69.1v-39.4a2.883,2.883,0,1,1,5.766,0V68.945h3.276V61.033a2.883,2.883,0,0,1,5.767,0v9.042H87.18V63.294a2.883,2.883,0,1,1,5.766,0v7.912h3.276V65.554a2.883,2.883,0,1,1,5.766,0V86.686l-4,9-5.3.648.4,3.252,4.382-.536v9.488H90.4v3.276h10.347V97.551l3.947-8.879H106.9a4.919,4.919,0,0,0,4.914-4.914V4.914A4.919,4.919,0,0,0,106.9,0ZM71.979,36.035a6.166,6.166,0,0,0-6.159,6.159v.393H64.182a1.64,1.64,0,0,1-1.638-1.638V34.4a1.64,1.64,0,0,1,1.638-1.638H79.776A1.64,1.64,0,0,1,81.414,34.4v6.552a1.64,1.64,0,0,1-1.638,1.638H78.138v-.393A6.166,6.166,0,0,0,71.979,36.035Zm36.562,47.723A1.64,1.64,0,0,1,106.9,85.4h-1.638V65.554a6.157,6.157,0,0,0-9.7-5.035,6.155,6.155,0,0,0-9.042-2.261,6.154,6.154,0,0,0-8.382-2.666v-9.73h1.638a4.919,4.919,0,0,0,4.914-4.914V34.4a4.919,4.919,0,0,0-4.914-4.914H64.181A4.919,4.919,0,0,0,59.268,34.4v6.552a4.919,4.919,0,0,0,4.914,4.914h1.638V63.616l-6.552,5.673V85.4H4.914a1.64,1.64,0,0,1-1.638-1.638V4.914A1.64,1.64,0,0,1,4.914,3.276H106.9a1.64,1.64,0,0,1,1.638,1.638Z"/><path d="M3.164,12.936H6.44V8.022H49.329V70.486H6.44V16.212H3.164V73.762H52.6V4.746H3.164Z" transform="translate(3.388 5.082)"/><path d="M49.13,4.746H33.536A4.919,4.919,0,0,0,28.623,9.66v6.552a4.919,4.919,0,0,0,4.914,4.914H49.13a4.919,4.919,0,0,0,4.914-4.914V9.66A4.92,4.92,0,0,0,49.13,4.746Zm1.638,11.466A1.64,1.64,0,0,1,49.13,17.85H33.536A1.64,1.64,0,0,1,31.9,16.212V9.66a1.64,1.64,0,0,1,1.638-1.638H49.13A1.64,1.64,0,0,1,50.768,9.66Z" transform="translate(30.646 5.082)"/><path d="M22.357,10.337v4.914H14.986a4.919,4.919,0,0,0-4.914,4.914V23.44H6.8v3.276h3.36l1.638,31.121H36.2l1.638-31.121h3.36V23.44H37.917V20.164A4.919,4.919,0,0,0,33,15.251H25.633V10.337Zm10.73,44.225H14.9L13.437,26.716H34.553Zm1.554-34.4V23.44H13.348V20.164a1.64,1.64,0,0,1,1.638-1.638H33A1.64,1.64,0,0,1,34.642,20.164Z" transform="translate(7.277 11.068)"/><path d="M42.481,18.984h9.828V22.26H42.481Z" transform="translate(45.484 20.326)"/><path d="M42.481,6.328h9.828V9.6H42.481Z" transform="translate(45.484 6.775)"/><path d="M42.481,9.492h9.828v3.276H42.481Z" transform="translate(45.484 10.163)"/><path d="M42.481,15.82h9.828V19.1H42.481Z" transform="translate(45.484 16.939)"/></g></svg>