<svg xmlns="http://www.w3.org/2000/svg" xmlns:xlink="http://www.w3.org/1999/xlink" width="124" height="124" viewBox="0 0 124 124"><defs><clipPath id="a"><rect width="71.939" height="71.938" transform="translate(0)" fill="#fff" stroke="#707070" stroke-width="1"/></clipPath></defs><g transform="translate(9877.994 8667.447)"><circle cx="62" cy="62" r="62" transform="translate(-9877.994 -8667.447)" fill="#fff"/><g transform="translate(-9854.295 -8641.416)" clip-path="url(#a)"><g transform="translate(6.898)"><path d="M25.817,41.75V74.793A11.6,11.6,0,0,1,14.223,86.462v6.67H2.255v-39.6A11.785,11.785,0,0,1,14.039,41.75Zm0,0" transform="translate(-1.201 -22.247)" fill="#edb48a"/><path d="M27.876,41.75H39.47V93.132H27.876Zm0,0" transform="translate(-14.854 -22.247)" fill="#e29c6d"/><path d="M71.167,71.982H40.936a5.046,5.046,0,0,1-5.047-5.047V7.3a5.047,5.047,0,0,1,5.047-5.047h30.23A5.046,5.046,0,0,1,76.213,7.3V66.935A5.047,5.047,0,0,1,71.167,71.982Zm0,0" transform="translate(-19.124 -1.202)" fill="#618baa"/><path d="M111.491,7.3V66.936a5.045,5.045,0,0,1-5.046,5.046h-4.351a5.046,5.046,0,0,0,5.047-5.046V7.3a5.046,5.046,0,0,0-5.047-5.046h4.351A5.045,5.045,0,0,1,111.491,7.3Zm0,0" transform="translate(-54.403 -1.202)" fill="#4e7693"/><path d="M67.779,17.1,67.057,19a1.4,1.4,0,0,1-1.312.905H46.357A1.4,1.4,0,0,1,45.045,19l-.721-1.9a1.4,1.4,0,0,0-1.312-.905H35.889v56H76.213v-56H69.09a1.4,1.4,0,0,0-1.311.905Zm0,0" transform="translate(-19.124 -8.631)" fill="#5be167"/><path d="M112.9,16.2h4.35v56H112.9Zm0,0" transform="translate(-60.159 -8.631)" fill="#1fc974"/><path d="M52.306,69.708H47.972a1.284,1.284,0,0,1-1.284-1.284V64.09a1.284,1.284,0,0,1,1.284-1.284h4.334A1.284,1.284,0,0,1,53.59,64.09v4.334A1.284,1.284,0,0,1,52.306,69.708Zm0,0" transform="translate(-24.879 -33.467)" fill="#fd9e28"/><path d="M57.07,64.089v4.334a1.284,1.284,0,0,1-1.284,1.284H53.218A1.284,1.284,0,0,0,54.5,68.423V64.089a1.284,1.284,0,0,0-1.284-1.284h2.568a1.284,1.284,0,0,1,1.284,1.284Zm0,0" transform="translate(-28.358 -33.467)" fill="#fd8724"/><path d="M77.281,69.708H72.947a1.284,1.284,0,0,1-1.284-1.284V64.09a1.284,1.284,0,0,1,1.284-1.284h4.334a1.284,1.284,0,0,1,1.284,1.284v4.334A1.284,1.284,0,0,1,77.281,69.708Zm0,0" transform="translate(-38.187 -33.467)" fill="#fd9e28"/><path d="M82.044,64.089v4.334a1.284,1.284,0,0,1-1.284,1.284H78.193a1.284,1.284,0,0,0,1.284-1.284V64.089a1.284,1.284,0,0,0-1.284-1.284H80.76a1.284,1.284,0,0,1,1.284,1.284Zm0,0" transform="translate(-41.666 -33.467)" fill="#fd8724"/><path d="M102.256,69.708H97.921a1.284,1.284,0,0,1-1.284-1.284V64.09a1.284,1.284,0,0,1,1.284-1.284h4.334a1.284,1.284,0,0,1,1.284,1.284v4.334A1.284,1.284,0,0,1,102.256,69.708Zm0,0" transform="translate(-51.495 -33.467)" fill="#fd9e28"/><path d="M107.019,64.089v4.334a1.284,1.284,0,0,1-1.284,1.284h-2.568a1.284,1.284,0,0,0,1.284-1.284V64.089a1.284,1.284,0,0,0-1.284-1.284h2.568a1.284,1.284,0,0,1,1.284,1.284Zm0,0" transform="translate(-54.975 -33.467)" fill="#fd8724"/><path d="M52.306,115.957H47.972a1.284,1.284,0,0,1-1.284-1.284v-4.334a1.284,1.284,0,0,1,1.284-1.284h4.334a1.284,1.284,0,0,1,1.284,1.284v4.334A1.284,1.284,0,0,1,52.306,115.957Zm0,0" transform="translate(-24.879 -58.112)" fill="#43a3f9"/><path d="M57.07,110.34v4.334a1.284,1.284,0,0,1-1.284,1.284H53.218a1.284,1.284,0,0,0,1.284-1.284V110.34a1.284,1.284,0,0,0-1.284-1.284h2.568A1.284,1.284,0,0,1,57.07,110.34Zm0,0" transform="translate(-28.358 -58.112)" fill="#1685fb"/><path d="M77.281,115.957H72.947a1.284,1.284,0,0,1-1.284-1.284v-4.334a1.284,1.284,0,0,1,1.284-1.284h4.334a1.284,1.284,0,0,1,1.284,1.284v4.334A1.284,1.284,0,0,1,77.281,115.957Zm0,0" transform="translate(-38.187 -58.112)" fill="#43a3f9"/><path d="M82.044,110.34v4.334a1.284,1.284,0,0,1-1.284,1.284H78.193a1.284,1.284,0,0,0,1.284-1.284V110.34a1.284,1.284,0,0,0-1.284-1.284H80.76A1.285,1.285,0,0,1,82.044,110.34Zm0,0" transform="translate(-41.666 -58.112)" fill="#1685fb"/><path d="M102.256,115.957H97.921a1.284,1.284,0,0,1-1.284-1.284v-4.334a1.284,1.284,0,0,1,1.284-1.284h4.334a1.284,1.284,0,0,1,1.284,1.284v4.334A1.284,1.284,0,0,1,102.256,115.957Zm0,0" transform="translate(-51.495 -58.112)" fill="#43a3f9"/><path d="M107.019,110.34v4.334a1.284,1.284,0,0,1-1.284,1.284h-2.568a1.284,1.284,0,0,0,1.284-1.284V110.34a1.284,1.284,0,0,0-1.284-1.284h2.568A1.284,1.284,0,0,1,107.019,110.34Zm0,0" transform="translate(-54.975 -58.112)" fill="#1685fb"/><path d="M27.876,65.637a5.8,5.8,0,0,1,11.593,0v18.8a11.641,11.641,0,0,1-7.8,11.035,5.627,5.627,0,0,0-3.8,5.316Zm0,0" transform="translate(-14.854 -31.887)" fill="#edb48a"/><path d="M44.162,65.636v18.8a11.646,11.646,0,0,1-7.239,10.823,11.678,11.678,0,0,0,3.872-8.719v-20.9a5.8,5.8,0,0,0-4.114-5.548,5.8,5.8,0,0,1,7.481,5.548Zm0,0" transform="translate(-19.546 -31.886)" fill="#e29c6d"/><path d="M52.306,43.966H47.972a1.284,1.284,0,0,1-1.284-1.284V38.348a1.284,1.284,0,0,1,1.284-1.284h4.334a1.284,1.284,0,0,1,1.284,1.284v4.334A1.284,1.284,0,0,1,52.306,43.966Zm0,0" transform="translate(-24.879 -19.75)" fill="#e3f4ff"/><path d="M57.07,38.349v4.334a1.284,1.284,0,0,1-1.284,1.284H53.218A1.284,1.284,0,0,0,54.5,42.683V38.349a1.284,1.284,0,0,0-1.284-1.284h2.568A1.284,1.284,0,0,1,57.07,38.349Zm0,0" transform="translate(-28.358 -19.751)" fill="#bddff4"/><path d="M77.281,43.966H72.947a1.284,1.284,0,0,1-1.284-1.284V38.348a1.284,1.284,0,0,1,1.284-1.284h4.334a1.284,1.284,0,0,1,1.284,1.284v4.334A1.284,1.284,0,0,1,77.281,43.966Zm0,0" transform="translate(-38.187 -19.75)" fill="#e3f4ff"/><path d="M82.044,38.349v4.334a1.284,1.284,0,0,1-1.284,1.284H78.193a1.284,1.284,0,0,0,1.284-1.284V38.349a1.284,1.284,0,0,0-1.284-1.284H80.76A1.284,1.284,0,0,1,82.044,38.349Zm0,0" transform="translate(-41.666 -19.751)" fill="#bddff4"/><path d="M102.256,43.966H97.921a1.284,1.284,0,0,1-1.284-1.284V38.348a1.284,1.284,0,0,1,1.284-1.284h4.334a1.284,1.284,0,0,1,1.284,1.284v4.334A1.284,1.284,0,0,1,102.256,43.966Zm0,0" transform="translate(-51.495 -19.75)" fill="#e3f4ff"/><path d="M107.019,38.349v4.334a1.284,1.284,0,0,1-1.284,1.284h-2.568a1.284,1.284,0,0,0,1.284-1.284V38.349a1.284,1.284,0,0,0-1.284-1.284h2.568A1.284,1.284,0,0,1,107.019,38.349Zm0,0" transform="translate(-54.975 -19.751)" fill="#bddff4"/><path d="M1.054,118.669A1.054,1.054,0,0,0,0,119.723v14.4a1.054,1.054,0,0,0,2.108,0v-14.4A1.054,1.054,0,0,0,1.054,118.669Zm0,0" transform="translate(0 -63.235)"/><path d="M78.417,62.887a2.34,2.34,0,0,0-2.338-2.338H71.745a2.34,2.34,0,0,0-2.338,2.338v4.334a2.34,2.34,0,0,0,2.338,2.338h4.334a2.341,2.341,0,0,0,2.338-2.338Zm-2.108,4.334a.23.23,0,0,1-.23.231H71.745a.23.23,0,0,1-.23-.231V62.887a.23.23,0,0,1,.23-.23h4.334a.23.23,0,0,1,.23.23Zm0,0" transform="translate(-36.985 -32.265)"/><path d="M103.391,62.887a2.34,2.34,0,0,0-2.338-2.338H96.719a2.34,2.34,0,0,0-2.338,2.338v4.334a2.341,2.341,0,0,0,2.338,2.338h4.334a2.34,2.34,0,0,0,2.338-2.338Zm-2.108,4.334a.23.23,0,0,1-.23.231H96.719a.23.23,0,0,1-.23-.231V62.887a.23.23,0,0,1,.23-.23h4.334a.23.23,0,0,1,.23.23Zm0,0" transform="translate(-50.293 -32.265)"/><path d="M76.079,106.8H71.745a2.34,2.34,0,0,0-2.338,2.338v4.334a2.34,2.34,0,0,0,2.338,2.338h4.334a2.34,2.34,0,0,0,2.338-2.338v-4.334A2.341,2.341,0,0,0,76.079,106.8Zm.231,6.672a.23.23,0,0,1-.23.23H71.745a.23.23,0,0,1-.23-.23v-4.334a.23.23,0,0,1,.23-.231h4.334a.23.23,0,0,1,.23.231Zm0,0" transform="translate(-36.985 -56.91)"/><path d="M101.054,106.8H96.719a2.341,2.341,0,0,0-2.338,2.338v4.334a2.34,2.34,0,0,0,2.338,2.338h4.334a2.34,2.34,0,0,0,2.338-2.338v-4.334A2.34,2.34,0,0,0,101.054,106.8Zm.23,6.672a.23.23,0,0,1-.23.23H96.719a.23.23,0,0,1-.23-.23v-4.334a.23.23,0,0,1,.23-.231h4.334a.23.23,0,0,1,.23.231Zm0,0" transform="translate(-50.293 -56.91)"/><path d="M57.089,41a1.054,1.054,0,0,0,1.054-1.054V6.1a6.107,6.107,0,0,0-6.1-6.1H32.219a1.054,1.054,0,1,0,0,2.108H52.042A4,4,0,0,1,56.035,6.1v.412H49.967A2.469,2.469,0,0,0,47.67,8.1L46.948,10a.351.351,0,0,1-.327.226H27.233A.352.352,0,0,1,26.906,10l-.721-1.9a2.47,2.47,0,0,0-2.3-1.585H17.819V6.1a4,4,0,0,1,3.993-3.993h5.557a1.054,1.054,0,1,0,0-2.108H21.812a6.108,6.108,0,0,0-6.1,6.1V18.449H12.839A12.853,12.853,0,0,0,0,31.288V51.224a1.054,1.054,0,0,0,2.108,0V31.287A10.743,10.743,0,0,1,12.839,20.556h2.873v7.092a6.857,6.857,0,0,0-3.743,6.1v9.89A4.3,4.3,0,0,0,8.727,47.8a1.054,1.054,0,1,0,2.108,0,2.189,2.189,0,0,1,1.133-1.915v2.96a1.054,1.054,0,0,0,2.108,0V33.75a4.743,4.743,0,0,1,9.486,0v18.8a10.6,10.6,0,0,1-7.089,10.038,6.647,6.647,0,0,0-4.153,4.177,1.054,1.054,0,1,0,2,.675,4.552,4.552,0,0,1,1.4-2.042v.338a6.108,6.108,0,0,0,6.1,6.1h30.23a6.108,6.108,0,0,0,6.1-6.1V44.8a1.054,1.054,0,1,0-2.108,0V62.513H20.9A12.687,12.687,0,0,0,23.984,58.9h3.444a2.34,2.34,0,0,0,2.338-2.338V52.228a2.34,2.34,0,0,0-2.338-2.338H25.669v-12.6h1.758a2.34,2.34,0,0,0,2.338-2.338V30.622a2.34,2.34,0,0,0-2.338-2.338H23.093a1.028,1.028,0,0,0-.137.01,6.812,6.812,0,0,0-4.137-1.4,6.907,6.907,0,0,0-1,.074V8.62h6.069a.351.351,0,0,1,.327.225l.721,1.9a2.471,2.471,0,0,0,2.3,1.585H46.621a2.471,2.471,0,0,0,2.3-1.585l.722-1.9a.351.351,0,0,1,.326-.226h6.069V39.951A1.054,1.054,0,0,0,57.089,41ZM56.035,64.62v1.113a4,4,0,0,1-3.993,3.993H21.812a4,4,0,0,1-3.993-3.993V64.62H56.035ZM27.428,52a.23.23,0,0,1,.23.231v4.334a.23.23,0,0,1-.23.23H24.946a12.809,12.809,0,0,0,.723-4.245V52Zm0-21.6a.23.23,0,0,1,.23.23v4.334a.23.23,0,0,1-.23.231H25.669V33.75a6.8,6.8,0,0,0-.883-3.357Zm0,0" transform="translate(0)"/><path d="M46.77,34.809a2.34,2.34,0,0,0-2.338,2.338v4.334a2.34,2.34,0,0,0,2.338,2.338H51.1a2.34,2.34,0,0,0,2.338-2.338V37.147A2.34,2.34,0,0,0,51.1,34.809Zm4.564,2.338v4.334a.231.231,0,0,1-.23.23H46.77a.23.23,0,0,1-.23-.23V37.147a.23.23,0,0,1,.23-.23H51.1A.23.23,0,0,1,51.334,37.147Zm0,0" transform="translate(-23.676 -18.549)"/><path d="M78.417,37.147a2.34,2.34,0,0,0-2.338-2.338H71.745a2.34,2.34,0,0,0-2.338,2.338v4.334a2.34,2.34,0,0,0,2.338,2.338h4.334a2.34,2.34,0,0,0,2.338-2.338Zm-2.108,4.334a.23.23,0,0,1-.23.23H71.745a.23.23,0,0,1-.23-.23V37.146a.23.23,0,0,1,.23-.23h4.334a.23.23,0,0,1,.23.23Zm0,0" transform="translate(-36.985 -18.549)"/><path d="M103.391,37.147a2.34,2.34,0,0,0-2.338-2.338H96.719a2.34,2.34,0,0,0-2.338,2.338v4.334a2.34,2.34,0,0,0,2.338,2.338h4.334a2.34,2.34,0,0,0,2.338-2.338Zm-2.108,4.334a.23.23,0,0,1-.23.23H96.719a.23.23,0,0,1-.23-.23V37.146a.23.23,0,0,1,.23-.23h4.334a.23.23,0,0,1,.23.23Zm0,0" transform="translate(-50.293 -18.549)"/></g></g></g></svg>