<svg xmlns="http://www.w3.org/2000/svg" width="118.004" height="107.731" viewBox="0 0 118.004 107.731"><g transform="translate(0 -0.074)"><path d="M111.569,81.009H73.335V92.435h4.558a7.7,7.7,0,0,1,7.686,7.685v4.92H96.454a1.383,1.383,0,0,1,0,2.766H21.55a1.383,1.383,0,0,1,0-2.766H32.426v-4.92a7.7,7.7,0,0,1,7.684-7.686h4.558V81.009H6.434A6.443,6.443,0,0,1,0,74.574V6.508A6.442,6.442,0,0,1,6.434.074H111.569A6.443,6.443,0,0,1,118,6.508V74.573a6.443,6.443,0,0,1-6.435,6.436Zm-22.844-9.22h7.5V78.3h-7.5Zm-2.766,6.452V71.789H14.153a4.94,4.94,0,0,1-4.934-4.934V14.226a4.94,4.94,0,0,1,4.934-4.934h89.7a4.941,4.941,0,0,1,4.935,4.934V66.854a4.941,4.941,0,0,1-4.935,4.934H98.989v6.452h12.58a3.673,3.673,0,0,0,3.668-3.668V6.508a3.673,3.673,0,0,0-3.668-3.668H6.434A3.673,3.673,0,0,0,2.766,6.508V74.573a3.673,3.673,0,0,0,3.668,3.668H85.96ZM45.579,66.875H28.764a1.383,1.383,0,0,1,0-2.766H45.579A1.383,1.383,0,0,1,45.579,66.875Zm-22.158,0c-1.859,0-4.206.429-4.206-1.383s2.347-1.383,4.206-1.383A1.383,1.383,0,0,1,23.421,66.875Zm22.157-4.6c-1.86,0-4.206.429-4.206-1.383s2.347-1.383,4.206-1.383A1.383,1.383,0,0,1,45.578,62.279Zm-8.167,0H20.6a1.383,1.383,0,0,1,0-2.766H37.411A1.383,1.383,0,0,1,37.411,62.279Zm8.168-4.6H28.764a1.383,1.383,0,0,1,0-2.766H45.579A1.383,1.383,0,0,1,45.579,57.683Zm-22.158,0c-1.859,0-4.206.429-4.206-1.383s2.347-1.383,4.206-1.383A1.383,1.383,0,0,1,23.421,57.683ZM97.406,35.935c-1.86,0-4.206.429-4.206-1.383s2.347-1.383,4.206-1.383a1.383,1.383,0,0,1,0,2.766Zm-8.168,0H72.424a1.383,1.383,0,0,1,0-2.766H89.239A1.383,1.383,0,0,1,89.239,35.935Zm8.168-5.407H80.592a1.383,1.383,0,0,1,0-2.766H97.407A1.383,1.383,0,0,1,97.407,30.529Zm-22.158,0c-1.86,0-4.206.429-4.206-1.383s2.347-1.383,4.206-1.383a1.383,1.383,0,0,1,0,2.766Zm22.158-5.407c-1.86,0-4.206.429-4.206-1.383s2.347-1.383,4.206-1.383a1.383,1.383,0,0,1,0,2.766Zm-8.168,0H72.424a1.383,1.383,0,0,1,0-2.766H89.239A1.383,1.383,0,0,1,89.239,25.122Zm8.168-5.408H80.592a1.383,1.383,0,0,1,0-2.766H97.407A1.383,1.383,0,0,1,97.407,19.714Zm-22.158,0c-1.86,0-4.206.429-4.206-1.383s2.347-1.383,4.206-1.383a1.383,1.383,0,0,1,0,2.766ZM93.7,59.614H81.875a1.383,1.383,0,0,1,0-2.766H93.7A1.383,1.383,0,0,1,93.7,59.614Zm-15.585,0c-1.331,0-3.369.335-3.369-1.383s2.04-1.383,3.369-1.383a1.383,1.383,0,0,1,0,2.766ZM93.528,54.8H76.3a1.383,1.383,0,0,1-1.383-1.383V46.8A1.384,1.384,0,0,1,76.3,45.416H93.528A1.384,1.384,0,0,1,94.911,46.8v6.615A1.383,1.383,0,0,1,93.528,54.8Zm-15.84-2.766H92.145v-3.85H77.687Zm20.092,12.98H72.053a2.49,2.49,0,0,1-2.487-2.487V55.117h-9.18V69.022h43.466a2.17,2.17,0,0,0,2.168-2.167V14.227a2.171,2.171,0,0,0-2.168-2.168h-89.7a2.171,2.171,0,0,0-2.168,2.168V66.855a2.17,2.17,0,0,0,2.168,2.168H57.619V42.873H48.439V50.28a2.49,2.49,0,0,1-2.487,2.487H20.225a2.49,2.49,0,0,1-2.487-2.487V31.07a2.49,2.49,0,0,1,2.487-2.487H45.951a2.49,2.49,0,0,1,2.487,2.487v9.036h9.181V30.683a18.576,18.576,0,0,1-3.5,1.5,1.385,1.385,0,0,1-1.37-1.565l.628-4.715-3.28-3.445a1.385,1.385,0,0,1,.751-2.315l4.678-.86L57.785,15.1a1.384,1.384,0,0,1,2.433,0l2.261,4.183,4.679.86a1.385,1.385,0,0,1,.751,2.315l-3.279,3.445.628,4.715a1.388,1.388,0,0,1-1.969,1.43l-2.905-1.393V52.351h9.18V43.313a2.49,2.49,0,0,1,2.487-2.487H97.779a2.49,2.49,0,0,1,2.487,2.487V62.525a2.49,2.49,0,0,1-2.487,2.487ZM72.333,62.245H97.5V43.592H72.333ZM41.873,47.371c-1.331,0-3.368.335-3.368-1.383S40.542,44.6,41.873,44.6a1.383,1.383,0,0,1,0,2.766Zm-5.743,0H24.3a1.383,1.383,0,0,1,0-2.766H36.13A1.383,1.383,0,0,1,36.13,47.371ZM41.7,42.554H24.476a1.383,1.383,0,0,1-1.383-1.383V34.556a1.383,1.383,0,0,1,1.383-1.383H41.7a1.383,1.383,0,0,1,1.383,1.383v6.615A1.383,1.383,0,0,1,41.7,42.554ZM25.859,39.788H40.318v-3.85H25.859ZM20.5,50H45.673V31.348H20.5Zm33.355-27.6c2.867,3.012,2.514,1.924,1.964,6.047,1.333-.639,2.047-1.05,2.583-1.235a1.543,1.543,0,0,1,1.2,0c.535.186,1.249.6,2.576,1.231-.549-4.122-.9-3.035,1.965-6.047-4.089-.751-3.167-.08-5.142-3.737-1.978,3.657-1.054,2.986-5.144,3.738ZM71.982,95.2H40.111a4.925,4.925,0,0,0-4.92,4.919v4.918h47.62V100.12A4.925,4.925,0,0,0,77.894,95.2H71.982ZM47.434,92.434H70.569V81.009H47.434V92.435Z" transform="translate(0 0)" fill="#000002" fill-rule="evenodd"/><path d="M.374,4.443H14.833V.593H.374Z" transform="translate(25.485 35.345)" fill="#95e29f" fill-rule="evenodd"/><path d="M15.922,13.784a1.383,1.383,0,0,1,0,2.766H4.1a1.383,1.383,0,0,1,0-2.766Zm5.571-2.051H4.268A1.383,1.383,0,0,1,2.886,10.35V3.734A1.383,1.383,0,0,1,4.268,2.351H21.493a1.383,1.383,0,0,1,1.383,1.383V10.35A1.383,1.383,0,0,1,21.493,11.732ZM.3,19.181H25.466V.527H.3Zm21.369-2.631c-1.331,0-3.368.335-3.368-1.383s2.037-1.383,3.368-1.383a1.383,1.383,0,0,1,0,2.766Z" transform="translate(20.207 30.821)" fill="#4bcd5c" fill-rule="evenodd"/><path d="M2.743,10.128c1.333-.639,2.047-1.05,2.584-1.235a1.543,1.543,0,0,1,1.2,0c.535.186,1.249.6,2.576,1.231C8.551,6,8.2,7.092,11.065,4.08,6.976,3.329,7.9,4,5.923.343,3.944,4,4.868,3.329.779,4.081c2.867,3.012,2.514,1.924,1.964,6.047Z" transform="translate(53.08 18.324)" fill="#79a8d5" fill-rule="evenodd"/><path d="M15.581.77H1.124V4.62H15.581Z" transform="translate(76.563 47.411)" fill="#ffdf9b" fill-rule="evenodd"/><path d="M22.241,2.528a1.384,1.384,0,0,1,1.383,1.383v6.615a1.383,1.383,0,0,1-1.383,1.383H5.017a1.383,1.383,0,0,1-1.383-1.383V3.911A1.384,1.384,0,0,1,5.017,2.528ZM1.046,19.357H26.213V.7H1.046Zm9.542-5.4H22.415a1.383,1.383,0,0,1,0,2.766H10.588A1.383,1.383,0,0,1,10.588,13.96Zm-3.758,0a1.383,1.383,0,0,1,0,2.766c-1.331,0-3.369.335-3.369-1.383S5.5,13.96,6.83,13.96Z" transform="translate(71.286 42.888)" fill="#ffc143" fill-rule="evenodd"/><path d="M85.967,29.016A2.49,2.49,0,0,1,88.455,31.5V50.714A2.49,2.49,0,0,1,85.967,53.2H60.241a2.49,2.49,0,0,1-2.487-2.487V43.306h-9.18V57.212H92.04a2.17,2.17,0,0,0,2.168-2.167V2.416A2.171,2.171,0,0,0,92.04.248H2.342A2.171,2.171,0,0,0,.173,2.416V55.044a2.17,2.17,0,0,0,2.168,2.168H45.808V31.062H36.627V38.47a2.49,2.49,0,0,1-2.487,2.487H8.414A2.49,2.49,0,0,1,5.927,38.47V19.26a2.49,2.49,0,0,1,2.487-2.487H34.14a2.49,2.49,0,0,1,2.487,2.487V28.3h9.181V18.873a18.576,18.576,0,0,1-3.5,1.5,1.385,1.385,0,0,1-1.37-1.565l.628-4.715-3.28-3.445a1.385,1.385,0,0,1,.751-2.315l4.678-.86,2.263-4.183a1.384,1.384,0,0,1,2.433,0l2.261,4.183,4.679.86a1.385,1.385,0,0,1,.751,2.315L52.819,14.1l.628,4.715a1.388,1.388,0,0,1-1.969,1.43l-2.905-1.393V40.541h9.18V31.5a2.49,2.49,0,0,1,2.487-2.487H85.967ZM16.952,52.3H33.768a1.383,1.383,0,0,1,0,2.766H16.952a1.383,1.383,0,0,1,0-2.766Zm16.815-9.192a1.383,1.383,0,0,1,0,2.766H16.952a1.383,1.383,0,0,1,0-2.766ZM25.6,47.7a1.383,1.383,0,0,1,0,2.766H8.786a1.383,1.383,0,0,1,0-2.766ZM11.61,52.3a1.383,1.383,0,0,1,0,2.766c-1.859,0-4.206.429-4.206-1.383S9.751,52.3,11.61,52.3Zm22.157-4.6a1.383,1.383,0,0,1,0,2.766c-1.86,0-4.206.429-4.206-1.383S31.907,47.7,33.767,47.7Zm-22.157-4.6a1.383,1.383,0,0,1,0,2.766c-1.859,0-4.206.429-4.206-1.383s2.347-1.383,4.206-1.383ZM85.6,21.359a1.383,1.383,0,0,1,0,2.766c-1.86,0-4.206.429-4.206-1.383s2.347-1.383,4.206-1.383Zm-8.168,0a1.383,1.383,0,0,1,0,2.766H60.612a1.383,1.383,0,0,1,0-2.766ZM85.6,18.718H68.781a1.383,1.383,0,0,1,0-2.766H85.6A1.383,1.383,0,0,1,85.6,18.718Zm-22.158,0c-1.86,0-4.206.429-4.206-1.383s2.347-1.383,4.206-1.383a1.383,1.383,0,0,1,0,2.766ZM85.6,13.312c-1.86,0-4.206.429-4.206-1.383s2.347-1.383,4.206-1.383a1.383,1.383,0,0,1,0,2.766Zm-8.168,0H60.612a1.383,1.383,0,0,1,0-2.766H77.428A1.383,1.383,0,0,1,77.428,13.312ZM85.6,7.9H68.781a1.383,1.383,0,0,1,0-2.766H85.6A1.383,1.383,0,0,1,85.6,7.9Zm-22.158,0c-1.86,0-4.206.429-4.206-1.383s2.347-1.383,4.206-1.383a1.383,1.383,0,0,1,0,2.766Z" transform="translate(11.811 11.81)" fill="#e6faff" fill-rule="evenodd"/><path d="M11.427,6.566h89.7A4.941,4.941,0,0,1,106.06,11.5V64.129a4.941,4.941,0,0,1-4.935,4.934H96.263v6.452h12.58a3.673,3.673,0,0,0,3.668-3.668V3.783A3.673,3.673,0,0,0,108.843.114H3.708A3.673,3.673,0,0,0,.04,3.783V71.847a3.673,3.673,0,0,0,3.668,3.668H83.233V69.063H11.428a4.94,4.94,0,0,1-4.934-4.934V11.5a4.94,4.94,0,0,1,4.934-4.934Z" transform="translate(2.726 2.726)" fill="#f6f8fe" fill-rule="evenodd"/><path d="M8.782,1.111h-7.5V7.627h7.5Z" transform="translate(87.442 70.677)" fill="#94a6dd" fill-rule="evenodd"/><path d="M23.821,12.67V1.245H.686V12.67Z" transform="translate(46.748 79.764)" fill="#94a6dd" fill-rule="evenodd"/><path d="M37.27,1.451H5.429A4.925,4.925,0,0,0,.509,6.369v4.918H48.13V6.369A4.925,4.925,0,0,0,43.211,1.45H37.27Z" transform="translate(34.682 93.751)" fill="#f6f8fe" fill-rule="evenodd"/></g></svg>