<svg xmlns="http://www.w3.org/2000/svg" xmlns:xlink="http://www.w3.org/1999/xlink" width="124" height="124" viewBox="0 0 124 124"><defs><clipPath id="a"><rect width="61.662" height="61.662" transform="translate(0 0)" fill="#fff"/></clipPath></defs><g transform="translate(9519.326 8667.447)"><circle cx="62" cy="62" r="62" transform="translate(-9519.326 -8667.447)" fill="#fff"/><g transform="translate(-9488.156 -8631.438)" clip-path="url(#a)"><g transform="translate(-0.156 -0.156)"><rect width="59.974" height="59.974" rx="9.935" transform="translate(1 1)" fill="#50bcf7"/><path d="M4.968,87.661a4,4,0,0,0,4,4H60.943a4,4,0,0,0,4-4V49.677H4.968Z" transform="translate(-3.968 -30.686)" fill="#e0e0e0"/><path d="M4.968,49.677V82.663a55.588,55.588,0,0,0,10.5,1c23.875,0,43.44-14.963,45.318-33.985Z" transform="translate(-3.968 -30.686)" fill="#f3f3f3"/><path d="M22.355,84.452H58.339v21.99H22.355Z" transform="translate(-14.358 -51.466)" fill="#f9d78f"/><path d="M22.355,118.316l17.992-13.994,17.992,13.994Z" transform="translate(-14.358 -63.341)" fill="#f4b248"/><g transform="translate(30.986 6.997)"><ellipse cx="2.999" cy="2.999" rx="2.999" ry="2.999" transform="translate(19.991)" fill="#fff"/><ellipse cx="2.999" cy="2.999" rx="2.999" ry="2.999" transform="translate(9.996)" fill="#fff"/><ellipse cx="2.999" cy="2.999" rx="2.999" ry="2.999" fill="#fff"/></g><path d="M22.355,84.452,40.347,98.445,58.339,84.452Z" transform="translate(-14.358 -51.466)" fill="#f4b248"/><path d="M94.387,79.059a10.238,10.238,0,0,0,3-7.24v-.757a4,4,0,1,1,8,0v.757a10.238,10.238,0,0,0,3,7.24Z" transform="translate(-57.403 -41.076)" fill="#ec4c5e"/><path d="M106.806,96.871v2a2,2,0,1,0,4,0v-2Z" transform="translate(-64.825 -58.888)" fill="#c73245"/><path d="M59.459,2.484H7.482a5,5,0,0,0-5,5V59.459a5,5,0,0,0,5,5H59.459a5,5,0,0,0,5-5V7.482a5,5,0,0,0-5-5Zm-51.977,2H59.459a3,3,0,0,1,3,3V20.476H4.483V7.482A3,3,0,0,1,7.482,4.483ZM59.459,62.457H7.482a3,3,0,0,1-3-3V22.475H62.457V59.459A3,3,0,0,1,59.459,62.457Z" transform="translate(-2.484 -2.484)"/><path d="M130.676,25.384a4,4,0,1,0-4-4A4,4,0,0,0,130.676,25.384Zm0-6a2,2,0,1,1-2,2A2,2,0,0,1,130.676,19.386Z" transform="translate(-76.699 -11.39)"/><path d="M105.837,25.384a4,4,0,1,0-4-4A4,4,0,0,0,105.837,25.384Zm0-6a2,2,0,1,1-2,2A2,2,0,0,1,105.837,19.386Z" transform="translate(-61.856 -11.39)"/><path d="M81,25.384a4,4,0,1,0-4-4A4,4,0,0,0,81,25.384Zm0-6a2,2,0,1,1-2,2A2,2,0,0,1,81,19.386Z" transform="translate(-47.013 -11.39)"/><path d="M61.852,70.335v-.757a5,5,0,0,0-10,0v.757a9.309,9.309,0,0,1-.093,1.242H20.871a1,1,0,0,0-1,1v21.99a1,1,0,0,0,1,1H56.855a1,1,0,0,0,1-1V82.389a3,3,0,0,0,2-2.815v-1h4a1,1,0,0,0,.707-1.706A9.178,9.178,0,0,1,61.852,70.335ZM48.934,77.958a1,1,0,0,0,.924.617h4v1a3,3,0,0,0,2,2.815V92.523L44.346,83.572l4.126-3.209-1.227-1.579L38.863,85.3,23.784,73.577h27.48a9.2,9.2,0,0,1-2.113,3.292A1,1,0,0,0,48.934,77.958ZM33.379,83.572,21.87,92.523v-17.9Zm1.628,1.266,3.242,2.522a1,1,0,0,0,1.227,0l3.242-2.522,11.223,8.729H23.784Zm22.847-5.265a1,1,0,0,1-2,0v-1h2Zm-5.885-3a11.163,11.163,0,0,0,1.887-6.24v-.757a3,3,0,0,1,6,0v.757a11.163,11.163,0,0,0,1.887,6.24Z" transform="translate(-12.874 -39.592)"/><path d="M0,0H4.24V2H0Z" transform="translate(49.264 25.284) rotate(-45)"/><path d="M129.161,72.032h4v2h-4Z" transform="translate(-78.184 -44.045)"/><path d="M0,0H2V4.24H0Z" transform="translate(34.271 23.698) rotate(-45)"/><path d="M84.452,72.032h4v2h-4Z" transform="translate(-51.466 -44.045)"/></g></g></g></svg>