<svg xmlns="http://www.w3.org/2000/svg" width="94.508" height="94.509" viewBox="0 0 94.508 94.509"><g transform="translate(-2 -2)"><ellipse cx="3.5" cy="3" rx="3.5" ry="3" transform="translate(17.508 4)" fill="#46ccff"/><circle cx="3" cy="3" r="3" transform="translate(74.508 4)" fill="#46ccff"/><path d="M26,48H44.9V63.751H26Z" transform="translate(13.803 26.456)" fill="#323232"/><path d="M15,57H68.555v6.3H15Z" transform="translate(7.477 31.633)" fill="#b90000"/><path d="M3,11H94.358V70.855H3Z" transform="translate(0.575 5.176)" fill="#6090bf"/><path d="M3,45H94.358v6.3H3Z" transform="translate(0.575 24.731)" fill="#b90000"/><g transform="translate(9.876 31.928)"><ellipse cx="3.5" cy="3" rx="3.5" ry="3" transform="translate(-0.368 11.072)" fill="#efaf22"/><circle cx="3" cy="3" r="3" transform="translate(72.632 11.072)" fill="#efaf22"/><path d="M51.352,38.326v-6.3H47.745a10.663,10.663,0,0,0-.866-2.095l2.552-2.552-4.379-4.458L42.5,25.473a10.664,10.664,0,0,0-2.174-.866V21h-6.3v3.607a10.664,10.664,0,0,0-2.095.866l-2.552-2.552-4.458,4.458,2.552,2.552a10.664,10.664,0,0,0-.866,2.095H23v6.3h3.607a10.664,10.664,0,0,0,.866,2.095l-2.552,2.63,4.458,4.458,2.552-2.552a10.663,10.663,0,0,0,2.095.866v3.528h6.3V45.745a10.663,10.663,0,0,0,2.095-.866l2.63,2.552,4.379-4.379L46.879,40.5a10.664,10.664,0,0,0,.866-2.174Z" transform="translate(2.202 -21)" fill="#efaf22"/></g><ellipse cx="4.5" cy="5" rx="4.5" ry="5" transform="translate(44.508 41)" fill="#ffd6ba"/><path d="M94.933,14.6H58.7V8.3h14.46a4.725,4.725,0,1,0,0-3.15H57.13a1.575,1.575,0,0,0-1.575,1.575V14.6h-12.6V6.726A1.575,1.575,0,0,0,41.378,5.15H25.344a4.725,4.725,0,1,0,0,3.15H39.8v6.3H3.575A1.575,1.575,0,0,0,2,16.176V76.032a1.575,1.575,0,0,0,1.575,1.575H38.228v9.451H22.477A1.575,1.575,0,0,0,20.9,88.633v6.3a1.575,1.575,0,0,0,1.575,1.575H76.031a1.575,1.575,0,0,0,1.575-1.575v-6.3a1.575,1.575,0,0,0-1.575-1.575H60.28V77.607H94.933a1.575,1.575,0,0,0,1.575-1.575V16.176A1.575,1.575,0,0,0,94.933,14.6ZM77.607,5.15a1.575,1.575,0,1,1-1.575,1.575A1.575,1.575,0,0,1,77.607,5.15ZM20.9,8.3a1.575,1.575,0,1,1,1.575-1.575A1.575,1.575,0,0,1,20.9,8.3Zm34.653,9.451V33.125L54.168,34.5l-.189-.079V31.928A1.575,1.575,0,0,0,52.4,30.353H46.1a1.575,1.575,0,0,0-1.575,1.575v2.489l-.189.079-1.386-1.37V17.752Zm2.016,23.863a9.136,9.136,0,0,1,.74,1.8,1.575,1.575,0,0,0,1.575,1.118h1.969v3.15H59.823A1.575,1.575,0,0,0,58.248,48.8a9.136,9.136,0,0,1-.74,1.8,1.575,1.575,0,0,0,.331,1.811l1.433,1.433L57.13,56.122l-1.575-1.433a1.575,1.575,0,0,0-1.874-.268,9.136,9.136,0,0,1-1.8.74,1.575,1.575,0,0,0-1.118,1.575v1.969H47.679V56.673A1.575,1.575,0,0,0,46.561,55.1a9.136,9.136,0,0,1-1.8-.74,1.575,1.575,0,0,0-1.874.268l-1.433,1.433L39.236,53.98l1.433-1.433a1.575,1.575,0,0,0,.268-1.874,9.136,9.136,0,0,1-.74-1.8,1.575,1.575,0,0,0-1.575-1.118H36.653V44.529h2.032A1.575,1.575,0,0,0,40.26,43.41a9.136,9.136,0,0,1,.74-1.8A1.575,1.575,0,0,0,40.67,39.8L39.236,38.37l2.221-2.221,1.433,1.433a1.575,1.575,0,0,0,1.874.268,9.135,9.135,0,0,1,1.8-.74,1.575,1.575,0,0,0,1.118-1.575V33.5h3.15v2.032a1.575,1.575,0,0,0,1.118,1.575,9.135,9.135,0,0,1,1.8.74,1.575,1.575,0,0,0,1.811-.331l1.433-1.433,2.221,2.221L57.776,39.74a1.575,1.575,0,0,0-.2,1.874ZM39.8,17.752V33.282l-3.922,3.906a1.575,1.575,0,0,0,0,2.237l1.764,1.764a.961.961,0,0,1-.079.189H35.078A1.575,1.575,0,0,0,33.5,42.954v1.575H17.468a4.725,4.725,0,1,0,0,3.15H33.5v1.575a1.575,1.575,0,0,0,1.575,1.575h2.489a.961.961,0,0,1,.079.189l-1.764,1.764a1.575,1.575,0,0,0-.457,1.118,1.654,1.654,0,0,0,.457,1.118l4.458,4.458a1.575,1.575,0,0,0,2.237,0l1.764-1.764.189.079V60.28A1.575,1.575,0,0,0,46.1,61.855h6.3a1.575,1.575,0,0,0,1.575-1.575V57.791l.189-.079,1.764,1.764a1.575,1.575,0,0,0,2.237,0l4.458-4.458a1.654,1.654,0,0,0,.457-1.118,1.575,1.575,0,0,0-.457-1.118l-1.764-1.764a.96.96,0,0,1,.079-.189H63.43a1.575,1.575,0,0,0,1.575-1.575V47.679H81.04a4.725,4.725,0,1,0,0-3.15H65.005V42.954a1.575,1.575,0,0,0-1.575-1.575H60.942a.96.96,0,0,1-.079-.189l1.764-1.764a1.575,1.575,0,0,0,0-2.237L58.7,33.282V17.752H93.358v50.4H5.15v-50.4ZM14.6,46.1a1.575,1.575,0,1,1-1.575-1.575A1.575,1.575,0,0,1,14.6,46.1Zm69.306,0a1.575,1.575,0,1,1,1.575,1.575A1.575,1.575,0,0,1,83.907,46.1ZM74.456,93.358h-50.4v-3.15h50.4Zm-17.326-6.3H41.378V77.607H57.13ZM5.15,74.456v-3.15H93.358v3.15Z" transform="translate(0 0)"/><path d="M34.3,26a6.3,6.3,0,1,0,6.3,6.3A6.3,6.3,0,0,0,34.3,26Zm0,9.451a3.15,3.15,0,1,1,3.15-3.15A3.15,3.15,0,0,1,34.3,35.451Z" transform="translate(14.954 13.803)"/><path d="M7.575,17.15h7.876v12.6a1.575,1.575,0,0,0,1.575,1.575h9.451a1.575,1.575,0,1,0,0-3.15H18.6v-12.6A1.575,1.575,0,0,0,17.026,14H7.575a1.575,1.575,0,1,0,0,3.15Z" transform="translate(2.301 6.902)"/><path d="M64.477,14H55.026a1.575,1.575,0,0,0-1.575,1.575v12.6H45.575a1.575,1.575,0,0,0,0,3.15h9.451A1.575,1.575,0,0,0,56.6,29.751V17.15h7.876a1.575,1.575,0,0,0,0-3.15Z" transform="translate(24.156 6.902)"/></g></svg>