<svg xmlns="http://www.w3.org/2000/svg" xmlns:xlink="http://www.w3.org/1999/xlink" width="108.698" height="108.699" viewBox="0 0 108.698 108.699"><defs><clipPath id="a"><rect width="108.699" height="108.699" transform="translate(0 0)" fill="#fff"/></clipPath></defs><g clip-path="url(#a)"><g transform="translate(0 2.254)"><path d="M50.931,61.975V54.293a3.493,3.493,0,0,0-1.837-3.1,9.774,9.774,0,0,1-5.244-8.663V41.2H16.494V62.063a1.062,1.062,0,0,0,1.062,1.062H52.08A1.149,1.149,0,0,1,50.931,61.975Z" transform="translate(16.707 39.475)" fill="#00f2a6"/><path d="M26.047,62.063V41.2H16.494V62.063a1.062,1.062,0,0,0,1.062,1.062h9.554A1.062,1.062,0,0,1,26.047,62.063Z" transform="translate(16.707 39.475)" fill="#05e39c"/><path d="M100.558,1.911H6.538A5.747,5.747,0,0,0,.791,7.658V75.242a5.747,5.747,0,0,0,5.747,5.747H59.755V54.251a3.836,3.836,0,0,1,3.967-3.834,3.9,3.9,0,0,1,3.7,3.934V67.293a3.836,3.836,0,1,1,7.672,0,3.836,3.836,0,1,1,7.672,0,3.836,3.836,0,0,1,3.967-3.834,3.9,3.9,0,0,1,3.7,3.934v13.6h10.117a5.747,5.747,0,0,0,5.747-5.747V7.658a5.748,5.748,0,0,0-5.747-5.747Z" transform="translate(0.801 -0.318)" fill="#6cabca"/><g transform="translate(1.592 1.592)"><path d="M16.183,75.242V7.658A5.747,5.747,0,0,1,21.93,1.911H6.538A5.747,5.747,0,0,0,.791,7.658V75.242a5.747,5.747,0,0,0,5.747,5.747H21.93A5.747,5.747,0,0,1,16.183,75.242Z" transform="translate(-0.791 -1.911)" fill="#3692bc"/></g><path d="M97.265,4.547H4.489A1.062,1.062,0,0,0,3.428,5.609v66.34a1.062,1.062,0,0,0,1.062,1.062H57.084V51.58a3.836,3.836,0,0,1,3.967-3.834,3.9,3.9,0,0,1,3.7,3.934V64.622a3.836,3.836,0,1,1,7.672,0,3.836,3.836,0,1,1,7.672,0,3.836,3.836,0,0,1,3.967-3.834,3.9,3.9,0,0,1,3.7,3.934v8.288h9.494a1.062,1.062,0,0,0,1.062-1.062V5.609a1.062,1.062,0,0,0-1.062-1.062Z" transform="translate(3.472 2.352)" fill="#eaf6ff"/><path d="M13.531,4.547H4.489A1.062,1.062,0,0,0,3.428,5.609v66.34a1.062,1.062,0,0,0,1.062,1.062h9.041c-.011-.145-.018-.291-.018-.439V4.987C13.512,4.839,13.52,4.693,13.531,4.547Z" transform="translate(3.472 2.352)" fill="#d8ecfe"/><g transform="translate(32.612 17.212)"><path d="M51.95,25.936a1.062,1.062,0,0,1-1.062-1.062V13.962a21.719,21.719,0,1,0-6.744,38.25V46.391a3.836,3.836,0,0,1,3.967-3.834,3.9,3.9,0,0,1,3.7,3.934v1.6a21.755,21.755,0,0,0,7.14-22.158H51.95Z" transform="translate(-16.201 -9.67)" fill="#2ed1e2"/><path d="M26.974,31.394a21.732,21.732,0,0,1,16.337-21.05,21.724,21.724,0,1,0,0,42.1A21.732,21.732,0,0,1,26.974,31.394Z" transform="translate(-16.201 -9.67)" fill="#03bed7"/><g transform="translate(18.782 8.663)"><path d="M31.484,34.786H25.532V19.215h5.316a.637.637,0,0,1,.637.637Z" transform="translate(-25.532 -8.665)" fill="#fff"/><path d="M30.847,19.926H26.169a.637.637,0,0,1-.637-.637V14.611a.637.637,0,0,1,.637-.637h4.679a.637.637,0,0,1,.637.637v4.679A.637.637,0,0,1,30.847,19.926Z" transform="translate(-25.532 -13.974)" fill="#fff"/></g></g><g transform="translate(60.556 50.097)"><path d="M57.066,39.051A3.836,3.836,0,0,0,53.1,42.885a3.836,3.836,0,1,0-7.672,0,3.836,3.836,0,1,0-7.672,0V29.943a3.9,3.9,0,0,0-3.7-3.934,3.836,3.836,0,0,0-3.967,3.834V57.911a9.774,9.774,0,0,0,5.244,8.663,3.493,3.493,0,0,1,1.837,3.1V77.36a1.149,1.149,0,0,0,1.149,1.149H52.539a1.149,1.149,0,0,0,1.149-1.149V69.678a3.492,3.492,0,0,1,1.837-3.1,9.774,9.774,0,0,0,5.244-8.663V42.985A3.9,3.9,0,0,0,57.066,39.051Z" transform="translate(-30.083 -26.007)" fill="#ffcdbe"/></g><g transform="translate(60.556 50.097)"><path d="M41.033,67.92a3.492,3.492,0,0,0-1.837-3.1,9.774,9.774,0,0,1-5.244-8.663V28.085a3.811,3.811,0,0,1,.583-2.024,3.733,3.733,0,0,0-.484-.052,3.836,3.836,0,0,0-3.967,3.834V57.911a9.774,9.774,0,0,0,5.244,8.663,3.493,3.493,0,0,1,1.837,3.1V77.36a1.149,1.149,0,0,0,1.149,1.149h2.719Z" transform="translate(-30.083 -26.007)" fill="#ffaf9d"/></g><g transform="translate(67.3 13.097)"><path d="M60.4,28.007H34.5a1.062,1.062,0,0,1-1.062-1.062V8.687A1.062,1.062,0,0,1,34.5,7.626H60.4a1.062,1.062,0,0,1,1.062,1.062V26.946A1.062,1.062,0,0,1,60.4,28.007Z" transform="translate(-33.434 -7.626)" fill="#00f2a6"/></g><g transform="translate(67.3 13.097)"><path d="M40.227,26.946V8.687a1.062,1.062,0,0,1,1.062-1.062H34.5a1.062,1.062,0,0,0-1.062,1.062V26.946A1.062,1.062,0,0,0,34.5,28.007h6.794A1.062,1.062,0,0,1,40.227,26.946Z" transform="translate(-33.434 -7.626)" fill="#05e39c"/></g><g transform="translate(13.163 57.893)"><path d="M16.517,40.92H7.6a1.062,1.062,0,0,1-1.062-1.062V30.941A1.062,1.062,0,0,1,7.6,29.88h8.917a1.062,1.062,0,0,1,1.062,1.062v8.917A1.062,1.062,0,0,1,16.517,40.92Z" transform="translate(-6.539 -29.88)" fill="#00f2a6"/></g><g transform="translate(13.163 57.893)"><path d="M11.634,39.858V30.941A1.062,1.062,0,0,1,12.7,29.88H7.6a1.062,1.062,0,0,0-1.062,1.062v8.917A1.062,1.062,0,0,0,7.6,40.92h5.1A1.062,1.062,0,0,1,11.634,39.858Z" transform="translate(-6.539 -29.88)" fill="#05e39c"/></g><g transform="translate(13.163 41.545)"><path d="M16.517,32.8H7.6a1.062,1.062,0,0,1-1.062-1.062V22.82A1.062,1.062,0,0,1,7.6,21.759h8.917a1.062,1.062,0,0,1,1.062,1.062v8.917A1.062,1.062,0,0,1,16.517,32.8Z" transform="translate(-6.539 -21.759)" fill="#2ed1e2"/></g><g transform="translate(13.163 41.545)"><path d="M11.634,31.737V22.82A1.062,1.062,0,0,1,12.7,21.759H7.6A1.062,1.062,0,0,0,6.539,22.82v8.917A1.062,1.062,0,0,0,7.6,32.8h5.1A1.062,1.062,0,0,1,11.634,31.737Z" transform="translate(-6.539 -21.759)" fill="#03bed7"/></g><g transform="translate(13.163 25.198)"><path d="M16.517,24.677H7.6a1.062,1.062,0,0,1-1.062-1.062V14.7A1.062,1.062,0,0,1,7.6,13.638h8.917A1.062,1.062,0,0,1,17.579,14.7v8.917A1.062,1.062,0,0,1,16.517,24.677Z" transform="translate(-6.539 -13.638)" fill="#fe646f"/></g><g transform="translate(13.163 25.198)"><path d="M11.634,23.616V14.7A1.062,1.062,0,0,1,12.7,13.638H7.6A1.062,1.062,0,0,0,6.539,14.7v8.917A1.062,1.062,0,0,0,7.6,24.677h5.1A1.062,1.062,0,0,1,11.634,23.616Z" transform="translate(-6.539 -13.638)" fill="#fd4755"/></g><g transform="translate(0 0)"><path d="M101.359,1.12H7.339A7.348,7.348,0,0,0,0,8.459V76.044a7.347,7.347,0,0,0,7.339,7.339H31.608v19.275a2.657,2.657,0,0,0,2.654,2.654H47.343a1.592,1.592,0,0,0,0-3.185H34.793V83.383H58.968a11.342,11.342,0,0,0,6.093,9.811,1.913,1.913,0,0,1,.984,1.694v7.239H54.774a1.592,1.592,0,0,0,0,3.185H83.012a2.745,2.745,0,0,0,2.742-2.742V94.888a1.914,1.914,0,0,1,.984-1.694,11.342,11.342,0,0,0,6.093-9.811h8.529a7.348,7.348,0,0,0,7.339-7.339V8.459a7.348,7.348,0,0,0-7.339-7.34ZM60.125,51.7a1.584,1.584,0,0,0-.722-.174h-.465V38.181a2.232,2.232,0,0,0-2.229-2.229H49.268a1.592,1.592,0,0,0,0,3.185H49.8V51.523h-.465a1.592,1.592,0,0,0,0,3.185h9.639c-.007.114-.012.229-.012.345v4.594a20.133,20.133,0,1,1,6.744-36.189V33.536a2.657,2.657,0,0,0,2.654,2.654h5.73a20.086,20.086,0,0,1-4.6,17.1,5.485,5.485,0,0,0-4.918-3.659,5.381,5.381,0,0,0-3.958,1.523,5.54,5.54,0,0,0-.493.547ZM55.754,39.137V51.523H52.986V39.137Zm33.9,43.984a8.168,8.168,0,0,1-4.391,7.253,5.063,5.063,0,0,0-2.691,4.514v7.239H69.23V94.888a5.063,5.063,0,0,0-2.69-4.514,8.168,8.168,0,0,1-4.391-7.253V55.052A2.244,2.244,0,0,1,64.47,52.81a2.315,2.315,0,0,1,2.165,2.343V68.094a1.592,1.592,0,1,0,3.185,0,2.244,2.244,0,1,1,4.487,0,1.592,1.592,0,1,0,3.185,0,2.244,2.244,0,1,1,4.487,0,1.592,1.592,0,1,0,3.185,0,2.244,2.244,0,0,1,2.322-2.242,2.314,2.314,0,0,1,2.165,2.343V83.121Zm15.863-7.077a4.159,4.159,0,0,1-4.155,4.155H92.835V78.075h7.9a2.657,2.657,0,0,0,2.654-2.654V9.081a2.657,2.657,0,0,0-2.654-2.654H30.571a1.592,1.592,0,0,0,0,3.185h69.635V74.891H92.835v-6.7a5.523,5.523,0,0,0-5.244-5.526,5.389,5.389,0,0,0-3.958,1.523l-.064.063a5.42,5.42,0,0,0-7.67,0,5.422,5.422,0,0,0-6.079-1.105V57.471A23.271,23.271,0,0,0,77.327,36.19H94.262a2.657,2.657,0,0,0,2.654-2.654V27.951a1.592,1.592,0,1,0-3.185,0v5.054H68.892v-17.2H93.731v4.712a1.592,1.592,0,1,0,3.185,0V15.278a2.657,2.657,0,0,0-2.654-2.654h-25.9a2.657,2.657,0,0,0-2.654,2.654v4.431a23.311,23.311,0,1,0-6.744,43.2V74.891H8.492V9.612H23.141a1.592,1.592,0,0,0,0-3.185H7.961A2.657,2.657,0,0,0,5.308,9.081v66.34a2.657,2.657,0,0,0,2.654,2.654h51V80.2H7.339a4.159,4.159,0,0,1-4.155-4.155V8.459A4.159,4.159,0,0,1,7.339,4.3h94.02a4.159,4.159,0,0,1,4.155,4.155Z" transform="translate(0 -1.12)"/><path d="M31.649,13.183H26.97a2.232,2.232,0,0,0-2.229,2.229V20.09A2.232,2.232,0,0,0,26.97,22.32h4.679a2.232,2.232,0,0,0,2.229-2.229V15.412a2.232,2.232,0,0,0-2.229-2.229Zm-.955,5.952H27.925V16.367h2.768Z" transform="translate(25.061 11.1)"/><path d="M51.408,9.472H37.821a1.592,1.592,0,0,0,0,3.185H51.408a1.592,1.592,0,0,0,0-3.185Z" transform="translate(36.697 7.34)"/><path d="M51.408,11.9H37.821a1.592,1.592,0,0,0,0,3.185H51.408a1.592,1.592,0,0,0,0-3.185Z" transform="translate(36.697 9.798)"/><path d="M45.676,14.323H37.821a1.592,1.592,0,0,0,0,3.185h7.855a1.592,1.592,0,0,0,0-3.185Z" transform="translate(36.697 12.255)"/><path d="M17.319,29.089H8.4a2.657,2.657,0,0,0-2.654,2.654v8.917A2.657,2.657,0,0,0,8.4,43.313h8.917a2.657,2.657,0,0,0,2.654-2.654V31.743A2.657,2.657,0,0,0,17.319,29.089Zm-.531,11.04H8.933V32.273h7.855Z" transform="translate(5.822 27.212)"/><path d="M17.319,20.968H8.4a2.657,2.657,0,0,0-2.654,2.654v8.917A2.657,2.657,0,0,0,8.4,35.192h8.917a2.657,2.657,0,0,0,2.654-2.654V23.622A2.657,2.657,0,0,0,17.319,20.968Zm-.531,11.04H8.933V24.152h7.855Z" transform="translate(5.822 18.985)"/><path d="M17.319,12.847H8.4A2.657,2.657,0,0,0,5.748,15.5v8.917A2.657,2.657,0,0,0,8.4,27.071h8.917a2.657,2.657,0,0,0,2.654-2.654V15.5a2.657,2.657,0,0,0-2.654-2.654Zm-.531,11.04H8.933V16.031h7.855Z" transform="translate(5.822 10.759)"/></g></g></g></svg>