<svg xmlns="http://www.w3.org/2000/svg" width="188" height="70" viewBox="0 0 188 70"><g transform="translate(-184.674 -394)"><rect width="188" height="70" rx="11" transform="translate(184.674 394)" fill="#f6f8fe"/><g transform="translate(253.925 399.515)"><path d="M54.025,129.094v3.518H31.161v-3.518H54.025Z" transform="translate(-17.503 -76.744)" fill="#969faa"/><g transform="translate(13.658 45.315)"><path d="M74.275,120.191l2.638,3.518H69v-3.518Z" transform="translate(-54.049 -116.674)" fill="#aab2bd"/><path d="M39.075,120.191v3.518H31.161l2.638-3.518Z" transform="translate(-31.161 -116.674)" fill="#aab2bd"/><path d="M58.228,114.806v3.518H51.193v-7.035h7.035Z" transform="translate(-43.278 -111.288)" fill="#aab2bd"/></g><path d="M48.422,93.482V97a3.517,3.517,0,0,1-3.518,3.518H7.969A3.517,3.517,0,0,1,4.452,97V93.482Z" transform="translate(-1.346 -55.202)" fill="#ccd1d9"/><path d="M48.422,58.477H4.452V39.13a3.518,3.518,0,0,1,3.518-3.518H48.422Z" transform="translate(-1.346 -20.197)" fill="#69d6f4"/><path d="M89.529,22.258V36.328a3.517,3.517,0,0,1-3.518,3.518H61.388a3.517,3.517,0,0,1-3.518-3.518V22.258Z" transform="translate(-33.659 -12.119)" fill="#e6e9ed"/><path d="M89.529,11.487H57.87V7.969a3.517,3.517,0,0,1,3.518-3.518h7.035a3.515,3.515,0,0,1,2.814,1.407L72.82,7.969H86.011A3.517,3.517,0,0,1,89.529,11.487Z" transform="translate(-33.659 -1.348)" fill="#b4dd7f"/><path d="M118.323,49.846v1.759a.882.882,0,0,1-.879.879h-5.276a.882.882,0,0,1-.879-.879V49.846a.882.882,0,0,1,.879-.879h5.276A.882.882,0,0,1,118.323,49.846Z" transform="translate(-65.971 -28.275)" fill="#fcd770"/><path d="M24.727,12.361a7.947,7.947,0,0,1-5.276,7.457v2.216H17.691v3.518H19.45V29.07H17.691v3.518H19.45v1.759a1.764,1.764,0,0,1-1.759,1.759H15.933a1.764,1.764,0,0,1-1.759-1.759V19.819A7.945,7.945,0,0,1,8.9,12.106a8.01,8.01,0,0,1,7.686-7.66A7.917,7.917,0,0,1,24.727,12.361ZM19.45,10.6a2.638,2.638,0,1,0-2.638,2.638A2.635,2.635,0,0,0,19.45,10.6Z" transform="translate(-4.033 -1.343)" fill="#fcd770"/><path d="M23.55,18.164a3.518,3.518,0,1,0-3.518-3.518A3.521,3.521,0,0,0,23.55,18.164Zm0-5.276a1.759,1.759,0,1,1-1.759,1.759A1.761,1.761,0,0,1,23.55,12.888Z" transform="translate(-10.771 -5.387)"/><path d="M57.87,100.159h1.759v1.759H57.87Z" transform="translate(-33.659 -59.241)"/><path d="M48.967,100.159h1.759v1.759H48.967Z" transform="translate(-28.273 -59.241)"/><path d="M66.773,100.159h1.759v1.759H66.773Z" transform="translate(-39.044 -59.241)"/><path d="M52.352,5.742H39.6L38.281,3.983a4.419,4.419,0,0,0-3.518-1.759H27.729a4.4,4.4,0,0,0-4.4,4.4v7.915H20.82a8.778,8.778,0,0,0-8.3-12.308,8.908,8.908,0,0,0-8.533,8.511h0A8.78,8.78,0,0,0,4.9,14.908a4.383,4.383,0,0,0-2.67,4.025V41.8a4.4,4.4,0,0,0,4.4,4.4H20.693v1.759H15.857l-3.078,4.1v4.69H37.4v-4.69l-3.078-4.1H29.487V46.195H43.558a4.4,4.4,0,0,0,4.4-4.4V28.606h4.4a4.4,4.4,0,0,0,4.4-4.4V10.139A4.4,4.4,0,0,0,52.352,5.742ZM27.729,3.983h7.035a2.653,2.653,0,0,1,2.111,1.055L38.721,7.5H52.352a2.635,2.635,0,0,1,2.476,1.759H25.09V6.621A2.641,2.641,0,0,1,27.729,3.983ZM5.748,10.793a7.123,7.123,0,0,1,6.824-6.807l.208,0a7.031,7.031,0,0,1,2.343,13.661l-.586.208v1.96H12.779v5.276h1.759v1.759H12.779v5.276h1.759V33a.88.88,0,0,1-.879.879H11.9A.88.88,0,0,1,11.02,33V17.852l-.586-.208a7.014,7.014,0,0,1-4.686-6.851ZM16.736,49.712h3.957v1.759H15.417Zm-2.2,5.276V53.23H35.643v1.759Zm18.907-5.276,1.319,1.759H29.487V49.712Zm-5.716,1.759H22.452V46.195h5.276Zm15.829-7.035H6.623A2.641,2.641,0,0,1,3.985,41.8V39.159H46.2V41.8A2.641,2.641,0,0,1,43.558,44.436ZM46.2,37.4H3.985V18.933a2.637,2.637,0,0,1,1.854-2.52,8.768,8.768,0,0,0,3.423,2.658V33A2.641,2.641,0,0,0,11.9,35.642h1.759A2.641,2.641,0,0,0,16.3,33V30.365H14.537V28.606H16.3V23.33H14.537V21.571H16.3v-2.5a8.778,8.778,0,0,0,3.481-2.776h3.555v7.915a4.4,4.4,0,0,0,4.4,4.4H46.2Zm6.156-10.553H27.729a2.641,2.641,0,0,1-2.638-2.638V11.018h29.9V24.209A2.641,2.641,0,0,1,52.352,26.848Z" transform="translate(0 0)"/><path d="M64.547,11.129h1.759v1.759H64.547Z" transform="translate(-37.698 -5.387)"/><path d="M82.353,11.129h1.759v1.759H82.353Z" transform="translate(-48.469 -5.387)"/><path d="M73.45,11.129h1.759v1.759H73.45Z" transform="translate(-43.083 -5.387)"/><path d="M69,73.45H84.828v1.759H69Z" transform="translate(-40.391 -43.085)"/><path d="M69,82.353h8.794v1.759H69Z" transform="translate(-40.391 -48.47)"/><path d="M104.611,82.353h1.759v1.759h-1.759Z" transform="translate(-61.932 -48.47)"/><path d="M95.708,82.353h1.759v1.759H95.708Z" transform="translate(-56.547 -48.47)"/><path d="M116.1,46.741h-5.276a1.761,1.761,0,0,0-1.759,1.759v1.759a1.761,1.761,0,0,0,1.759,1.759H116.1a1.761,1.761,0,0,0,1.759-1.759V48.5A1.761,1.761,0,0,0,116.1,46.741Zm-5.276,3.518V48.5H116.1v1.759Z" transform="translate(-64.625 -26.929)"/><path d="M64.547,55.644h1.759V57.4H64.547Z" transform="translate(-37.698 -32.314)"/><path d="M64.547,37.838h1.759V39.6H64.547Z" transform="translate(-37.698 -21.543)"/><path d="M64.547,46.741h1.759V48.5H64.547Z" transform="translate(-37.698 -26.929)"/></g></g></svg>